<svg class="main-svg" xmlns="http://www.w3.org/2000/svg" xmlns:xlink="http://www.w3.org/1999/xlink" width="900" height="400" viewBox="0 0 900 400"><rect x="0" y="0" width="900" height="400" style="fill: rgb(255, 255, 255); fill-opacity: 1;"/><defs id="defs-737cc6"><g class="clips"><clipPath id="clip737cc6xyplot" class="plotclip"><rect width="757" height="260"/></clipPath><clipPath class="axesclip" id="clip737cc6x"><rect x="76" y="0" width="757" height="400"/></clipPath><clipPath class="axesclip" id="clip737cc6y"><rect x="0" y="50" width="900" height="260"/></clipPath><clipPath class="axesclip" id="clip737cc6xy"><rect x="76" y="50" width="757" height="260"/></clipPath></g><g class="gradients"/><g class="patterns"/></defs><g class="bglayer"/><g class="layer-below"><g class="imagelayer"/><g class="shapelayer"/></g><g class="cartesianlayer"><g class="subplot xy"><g class="layer-subplot"><g class="shapelayer"/><g class="imagelayer"/></g><g class="gridlayer"><g class="x"><path class="xgrid crisp" transform="translate(170.63,0)" d="M0,50v260" style="stroke: rgb(235, 240, 248); stroke-opacity: 1; stroke-width: 1px;"/><path class="xgrid crisp" transform="translate(265.25,0)" d="M0,50v260" style="stroke: rgb(235, 240, 248); stroke-opacity: 1; stroke-width: 1px;"/><path class="xgrid crisp" transform="translate(359.88,0)" d="M0,50v260" style="stroke: rgb(235, 240, 248); stroke-opacity: 1; stroke-width: 1px;"/><path class="xgrid crisp" transform="translate(454.5,0)" d="M0,50v260" style="stroke: rgb(235, 240, 248); stroke-opacity: 1; stroke-width: 1px;"/><path class="xgrid crisp" transform="translate(549.13,0)" d="M0,50v260" style="stroke: rgb(235, 240, 248); stroke-opacity: 1; stroke-width: 1px;"/><path class="xgrid crisp" transform="translate(643.75,0)" d="M0,50v260" style="stroke: rgb(235, 240, 248); stroke-opacity: 1; stroke-width: 1px;"/><path class="xgrid crisp" transform="translate(738.38,0)" d="M0,50v260" style="stroke: rgb(235, 240, 248); stroke-opacity: 1; stroke-width: 1px;"/></g><g class="y"><path class="ygrid crisp" transform="translate(0,269.53999999999996)" d="M76,0h757" style="stroke: rgb(235, 240, 248); stroke-opacity: 1; stroke-width: 1px;"/><path class="ygrid crisp" transform="translate(0,229.09)" d="M76,0h757" style="stroke: rgb(235, 240, 248); stroke-opacity: 1; stroke-width: 1px;"/><path class="ygrid crisp" transform="translate(0,188.63)" d="M76,0h757" style="stroke: rgb(235, 240, 248); stroke-opacity: 1; stroke-width: 1px;"/><path class="ygrid crisp" transform="translate(0,148.18)" d="M76,0h757" style="stroke: rgb(235, 240, 248); stroke-opacity: 1; stroke-width: 1px;"/><path class="ygrid crisp" transform="translate(0,107.72)" d="M76,0h757" style="stroke: rgb(235, 240, 248); stroke-opacity: 1; stroke-width: 1px;"/><path class="ygrid crisp" transform="translate(0,67.27)" d="M76,0h757" style="stroke: rgb(235, 240, 248); stroke-opacity: 1; stroke-width: 1px;"/></g></g><g class="zerolinelayer"><path class="yzl zl crisp" transform="translate(0,310)" d="M76,0h757" style="stroke: rgb(0, 0, 0); stroke-opacity: 1; stroke-width: 2px;"/></g><path class="xlines-below"/><path class="ylines-below"/><g class="overlines-below"/><g class="xaxislayer-below"/><g class="yaxislayer-below"/><g class="overaxes-below"/><g class="plot" transform="translate(76,50)" clip-path="url(#clip737cc6xyplot)"><g class="scatterlayer mlayer"><g class="trace scatter trace6e2a0c" style="stroke-miterlimit: 2; opacity: 1;"><g class="fills"/><g class="errorbars"/><g class="lines"><path class="js-line" d="M0,221.2L3.94,212.18L7.89,221.75L11.83,219.19L15.77,226.92L19.71,238.65L23.66,232.52L27.6,226.89L31.54,201.19L35.48,201.48L39.43,192.91L43.37,219.78L47.31,223.18L51.26,222.72L55.2,219.79L59.14,230.42L63.08,238.06L67.03,234.04L70.97,233.25L74.91,225.44L78.85,242.03L86.74,239.02L90.68,241.57L94.63,229.63L98.57,232.87L102.51,233.79L106.45,233.74L110.4,204.09L114.34,223.99L118.28,219.93L122.22,225L126.17,211.83L130.11,207.58L134.05,222.68L137.99,223.06L141.94,228.32L145.88,220.44L149.82,227.24L153.77,220.74L157.71,217.23L161.65,220.79L165.59,215.16L169.54,219.42L173.48,192.6L177.42,203.18L181.36,214.59L185.31,143.23L189.25,176.02L193.19,13L197.14,172.19L201.08,201.6L205.02,190.61L208.96,191.52L212.91,101.76L216.85,165.54L220.79,206.19L224.73,212.09L228.68,175.91L232.62,220.48L240.51,222.83L244.45,226.02L248.39,218.75L252.33,180.66L256.28,224.75L260.22,213.89L264.16,218.52L268.1,218.58L272.05,233.28L275.99,229.19L279.93,232.78L283.88,213.27L287.82,201.71L291.76,202.55L295.7,205.08L299.65,204.85L303.59,179.41L307.53,216.39L311.47,208.86L315.42,217.1L319.36,223.68L323.3,219.12L327.24,204.29L331.19,204.61L335.13,192.73L339.07,199.33L343.02,204.92L346.96,172.87L350.9,186.85L354.84,142.45L358.79,157.72L362.73,214.06L366.67,198.32L370.61,195.24L374.56,187.12L378.5,221.02L382.44,221.49L386.39,217.02L390.33,214.35L394.27,228.62L398.21,225.4L402.16,234.76L406.1,237.06L410.04,211.01L417.93,197.91L421.87,198L429.76,182.09L433.7,150.74L437.64,223.67L441.58,237.14L445.53,231.93L449.47,237.43L453.41,238.87L457.35,239.3L461.3,229.92L465.24,238.31L469.18,233.99L473.13,223.67L481.01,233.38L484.95,229.85L488.9,224.57L492.84,211.96L496.78,223.85L500.72,222.55L504.67,197.23L508.61,218.24L512.55,198.07L516.49,204.05L520.44,205.15L524.38,193.95L528.32,198.33L532.27,213.43L536.21,202.61L540.15,174.18L544.09,205.95L548.04,219.31L551.98,201.5L555.92,218.62L559.86,215.62L563.81,225.93L571.69,187.04L575.64,188.07L579.58,170.25L583.52,191.45L587.46,193.39L591.41,174.23L595.35,192.01L599.29,194.68L603.23,212.33L607.18,201.36L611.12,208.99L615.06,209.17L619.01,196.01L622.95,217.95L626.89,179.88L630.83,224.8L634.78,201.98L638.72,225.42L642.66,228.63L646.6,223.97L650.55,218.14L654.49,190.99L658.43,193.23L662.38,207.33L666.32,213.92L670.26,192.23L674.2,200.96L678.15,213.2L682.09,214.46L686.03,210.13L689.97,203.45L693.92,215.85L697.86,209.71L701.8,217.24L705.74,207.88L709.69,202.81L713.63,204.61L717.57,211.53L721.52,198.69L725.46,193.8L729.4,202.25L733.34,197.36L737.29,205.82L741.23,194.11L745.17,193.41L749.11,162.06L753.06,187.7L757,192.47" style="vector-effect: non-scaling-stroke; fill: none; stroke: rgb(76, 120, 168); stroke-opacity: 1; stroke-width: 2px; opacity: 1;"/></g><g class="points"/><g class="text"/></g><g class="trace scatter traceeb27ec" style="stroke-miterlimit: 2;"><g class="fills"><g><path class="js-fill" d="M757,260L0,260L0,260L63.08,260L67.03,258.24L78.85,252.97L82.8,246.36L94.63,226.53L98.57,213.74L118.28,151.97L122.22,140.28L126.17,128.59L130.11,119.6L141.94,92.65L145.88,87.02L157.71,70.11L161.65,67.26L173.48,58.71L177.42,59.35L189.25,61.29L193.19,65.61L205.02,78.56L208.96,86.01L220.79,108.38L224.73,125.83L236.56,178.18L240.51,190.15L252.33,226.06L256.28,232.04L268.1,249.96L272.05,251.33L295.7,258.86L299.65,260L441.58,260L445.53,257.96L457.35,251.85L461.3,245.48L473.13,226.37L477.07,214.02L500.72,142.17L504.67,130.56L520.44,94.37L524.38,88.67L536.21,71.55L540.15,68.04L551.98,57.53L555.92,58.5L567.75,61.44L571.69,65.06L583.52,75.93L587.46,82.87L599.29,103.66L603.23,114.03L619.01,156.91L622.95,168.67L646.6,240.44L650.55,243.74L662.38,253.65L666.32,255.24L678.15,260L682.09,260L757,260" style="fill: rgb(255, 127, 14); fill-opacity: 0.05; stroke-width: 0;"/></g></g><g class="errorbars"/><g class="lines"><path class="js-line" d="M0,260L63.08,260L67.03,258.24L78.85,252.97L82.8,246.36L94.63,226.53L98.57,213.74L118.28,151.97L122.22,140.28L126.17,128.59L130.11,119.6L141.94,92.65L145.88,87.02L157.71,70.11L161.65,67.26L173.48,58.71L177.42,59.35L189.25,61.29L193.19,65.61L205.02,78.56L208.96,86.01L220.79,108.38L224.73,125.83L236.56,178.18L240.51,190.15L252.33,226.06L256.28,232.04L268.1,249.96L272.05,251.33L295.7,258.86L299.65,260L441.58,260L445.53,257.96L457.35,251.85L461.3,245.48L473.13,226.37L477.07,214.02L500.72,142.17L504.67,130.56L520.44,94.37L524.38,88.67L536.21,71.55L540.15,68.04L551.98,57.53L555.92,58.5L567.75,61.44L571.69,65.06L583.52,75.93L587.46,82.87L599.29,103.66L603.23,114.03L619.01,156.91L622.95,168.67L646.6,240.44L650.55,243.74L662.38,253.65L666.32,255.24L678.15,260L682.09,260L757,260" style="vector-effect: non-scaling-stroke; fill: none; stroke: rgb(245, 133, 24); stroke-opacity: 1; stroke-width: 3px; opacity: 1;"/></g><g class="points"/><g class="text"/></g></g></g><g class="overplot"/><path class="xlines-above crisp" d="M0,0" style="fill: none;"/><path class="ylines-above crisp" d="M75,50V310" style="fill: none; stroke-width: 2px; stroke: rgb(0, 0, 0); stroke-opacity: 1;"/><g class="overlines-above"/><g class="xaxislayer-above"><g class="xtick"><text text-anchor="middle" x="0" y="330" transform="translate(76,0)" style="font-family: 'Open Sans', verdana, arial, sans-serif; font-size: 19px; fill: rgb(42, 63, 95); fill-opacity: 1; white-space: pre; opacity: 1;"><tspan class="line" dy="0em" x="0" y="330">00:00</tspan><tspan class="line" dy="1.3em" x="0" y="330">May 30, 2019</tspan></text></g><g class="xtick"><text text-anchor="middle" x="0" y="330" style="font-family: 'Open Sans', verdana, arial, sans-serif; font-size: 19px; fill: rgb(42, 63, 95); fill-opacity: 1; white-space: pre; opacity: 1;" transform="translate(170.63,0)">06:00</text></g><g class="xtick"><text text-anchor="middle" x="0" y="330" style="font-family: 'Open Sans', verdana, arial, sans-serif; font-size: 19px; fill: rgb(42, 63, 95); fill-opacity: 1; white-space: pre; opacity: 1;" transform="translate(265.25,0)">12:00</text></g><g class="xtick"><text text-anchor="middle" x="0" y="330" style="font-family: 'Open Sans', verdana, arial, sans-serif; font-size: 19px; fill: rgb(42, 63, 95); fill-opacity: 1; white-space: pre; opacity: 1;" transform="translate(359.88,0)">18:00</text></g><g class="xtick"><text text-anchor="middle" x="0" y="330" style="font-family: 'Open Sans', verdana, arial, sans-serif; font-size: 19px; fill: rgb(42, 63, 95); fill-opacity: 1; white-space: pre; opacity: 1;" transform="translate(454.5,0)"><tspan class="line" dy="0em" x="0" y="330">00:00</tspan><tspan class="line" dy="1.3em" x="0" y="330">May 31, 2019</tspan></text></g><g class="xtick"><text text-anchor="middle" x="0" y="330" style="font-family: 'Open Sans', verdana, arial, sans-serif; font-size: 19px; fill: rgb(42, 63, 95); fill-opacity: 1; white-space: pre; opacity: 1;" transform="translate(549.13,0)">06:00</text></g><g class="xtick"><text text-anchor="middle" x="0" y="330" style="font-family: 'Open Sans', verdana, arial, sans-serif; font-size: 19px; fill: rgb(42, 63, 95); fill-opacity: 1; white-space: pre; opacity: 1;" transform="translate(643.75,0)">12:00</text></g><g class="xtick"><text text-anchor="middle" x="0" y="330" style="font-family: 'Open Sans', verdana, arial, sans-serif; font-size: 19px; fill: rgb(42, 63, 95); fill-opacity: 1; white-space: pre; opacity: 1;" transform="translate(738.38,0)">18:00</text></g><g class="xtick"><text text-anchor="middle" x="0" y="330" style="font-family: 'Open Sans', verdana, arial, sans-serif; font-size: 19px; fill: rgb(42, 63, 95); fill-opacity: 1; white-space: pre; opacity: 1;" transform="translate(833,0)"><tspan class="line" dy="0em" x="0" y="330">00:00</tspan><tspan class="line" dy="1.3em" x="0" y="330">Jun 1, 2019</tspan></text></g></g><g class="yaxislayer-above"><g class="ytick"><text text-anchor="end" x="70.2" y="6.6499999999999995" transform="translate(0,310)" style="font-family: 'Open Sans', verdana, arial, sans-serif; font-size: 19px; fill: rgb(42, 63, 95); fill-opacity: 1; white-space: pre; opacity: 1;">0</text></g><g class="ytick"><text text-anchor="end" x="70.2" y="6.6499999999999995" style="font-family: 'Open Sans', verdana, arial, sans-serif; font-size: 19px; fill: rgb(42, 63, 95); fill-opacity: 1; white-space: pre; opacity: 1;" transform="translate(0,269.53999999999996)">10</text></g><g class="ytick"><text text-anchor="end" x="70.2" y="6.6499999999999995" style="font-family: 'Open Sans', verdana, arial, sans-serif; font-size: 19px; fill: rgb(42, 63, 95); fill-opacity: 1; white-space: pre; opacity: 1;" transform="translate(0,229.09)">20</text></g><g class="ytick"><text text-anchor="end" x="70.2" y="6.6499999999999995" style="font-family: 'Open Sans', verdana, arial, sans-serif; font-size: 19px; fill: rgb(42, 63, 95); fill-opacity: 1; white-space: pre; opacity: 1;" transform="translate(0,188.63)">30</text></g><g class="ytick"><text text-anchor="end" x="70.2" y="6.6499999999999995" style="font-family: 'Open Sans', verdana, arial, sans-serif; font-size: 19px; fill: rgb(42, 63, 95); fill-opacity: 1; white-space: pre; opacity: 1;" transform="translate(0,148.18)">40</text></g><g class="ytick"><text text-anchor="end" x="70.2" y="6.6499999999999995" style="font-family: 'Open Sans', verdana, arial, sans-serif; font-size: 19px; fill: rgb(42, 63, 95); fill-opacity: 1; white-space: pre; opacity: 1;" transform="translate(0,107.72)">50</text></g><g class="ytick"><text text-anchor="end" x="70.2" y="6.6499999999999995" style="font-family: 'Open Sans', verdana, arial, sans-serif; font-size: 19px; fill: rgb(42, 63, 95); fill-opacity: 1; white-space: pre; opacity: 1;" transform="translate(0,67.27)">60</text></g></g><g class="overaxes-above"/></g></g><g class="polarlayer"/><g class="ternarylayer"/><g class="geolayer"/><g class="funnelarealayer"/><g class="pielayer"/><g class="iciclelayer"/><g class="treemaplayer"/><g class="sunburstlayer"/><g class="glimages"/><defs id="topdefs-737cc6"><g class="clips"/></defs><g class="layer-above"><g class="imagelayer"/><g class="shapelayer"/></g><g class="infolayer"><g class="g-gtitle"/><g class="g-xtitle"/><g class="g-ytitle" transform="translate(8.068359375,0)"><text class="ytitle" transform="rotate(-90,14.931250000000006,180)" x="14.931250000000006" y="180" text-anchor="middle" style="font-family: 'Open Sans', verdana, arial, sans-serif; font-size: 23px; fill: rgb(42, 63, 95); opacity: 1; font-weight: normal; white-space: pre;">Power [kW]</text></g></g></svg>