<svg class="main-svg" xmlns="http://www.w3.org/2000/svg" xmlns:xlink="http://www.w3.org/1999/xlink" width="900" height="400" viewBox="0 0 900 400"><rect x="0" y="0" width="900" height="400" style="fill: rgb(255, 255, 255); fill-opacity: 1;"/><defs id="defs-46ff15"><g class="clips"><clipPath id="clip46ff15xyplot" class="plotclip"><rect width="775" height="260"/></clipPath><clipPath class="axesclip" id="clip46ff15x"><rect x="75" y="0" width="775" height="400"/></clipPath><clipPath class="axesclip" id="clip46ff15y"><rect x="0" y="50" width="900" height="260"/></clipPath><clipPath class="axesclip" id="clip46ff15xy"><rect x="75" y="50" width="775" height="260"/></clipPath></g><g class="gradients"/><g class="patterns"/></defs><g class="bglayer"/><g class="layer-below"><g class="imagelayer"/><g class="shapelayer"/></g><g class="cartesianlayer"><g class="subplot xy"><g class="layer-subplot"><g class="shapelayer"/><g class="imagelayer"/></g><g class="gridlayer"><g class="x"><path class="xgrid crisp" transform="translate(158.04000000000002,0)" d="M0,50v260" style="stroke: rgb(235, 240, 248); stroke-opacity: 1; stroke-width: 1px;"/><path class="xgrid crisp" transform="translate(268.75,0)" d="M0,50v260" style="stroke: rgb(235, 240, 248); stroke-opacity: 1; stroke-width: 1px;"/><path class="xgrid crisp" transform="translate(379.46,0)" d="M0,50v260" style="stroke: rgb(235, 240, 248); stroke-opacity: 1; stroke-width: 1px;"/><path class="xgrid crisp" transform="translate(490.18,0)" d="M0,50v260" style="stroke: rgb(235, 240, 248); stroke-opacity: 1; stroke-width: 1px;"/><path class="xgrid crisp" transform="translate(600.89,0)" d="M0,50v260" style="stroke: rgb(235, 240, 248); stroke-opacity: 1; stroke-width: 1px;"/><path class="xgrid crisp" transform="translate(711.61,0)" d="M0,50v260" style="stroke: rgb(235, 240, 248); stroke-opacity: 1; stroke-width: 1px;"/><path class="xgrid crisp" transform="translate(822.32,0)" d="M0,50v260" style="stroke: rgb(235, 240, 248); stroke-opacity: 1; stroke-width: 1px;"/></g><g class="y"><path class="ygrid crisp" transform="translate(0,277.95)" d="M75,0h775" style="stroke: rgb(235, 240, 248); stroke-opacity: 1; stroke-width: 1px;"/><path class="ygrid crisp" transform="translate(0,226.91)" d="M75,0h775" style="stroke: rgb(235, 240, 248); stroke-opacity: 1; stroke-width: 1px;"/><path class="ygrid crisp" transform="translate(0,124.84)" d="M75,0h775" style="stroke: rgb(235, 240, 248); stroke-opacity: 1; stroke-width: 1px;"/><path class="ygrid crisp" transform="translate(0,73.8)" d="M75,0h775" style="stroke: rgb(235, 240, 248); stroke-opacity: 1; stroke-width: 1px;"/></g></g><g class="zerolinelayer"><path class="yzl zl crisp" transform="translate(0,175.88)" d="M75,0h775" style="stroke: rgb(0, 0, 0); stroke-opacity: 1; stroke-width: 2px;"/></g><path class="xlines-below"/><path class="ylines-below"/><g class="overlines-below"/><g class="xaxislayer-below"/><g class="yaxislayer-below"/><g class="overaxes-below"/><g class="plot" transform="translate(75,50)" clip-path="url(#clip46ff15xyplot)"><g class="scatterlayer mlayer"><g class="trace scatter trace8d531c" style="stroke-miterlimit: 2; opacity: 1;"><g class="fills"/><g class="errorbars"/><g class="lines"><path class="js-line" d="M0,143.73L2.31,161L3.46,163.95L6.92,191.45L8.07,197.11L10.38,212.63L11.53,208.77L12.69,218.32L13.84,209.22L14.99,192.79L16.15,228.75L18.45,237.86L19.61,238.53L21.91,228.71L23.07,196.21L24.22,242.26L25.37,247L26.53,242.72L27.68,229.72L28.83,227.92L29.99,240.21L32.29,225.35L33.44,229.08L34.6,188.68L35.75,206.73L36.9,208.2L38.06,193.05L40.36,174.79L41.52,164.52L42.67,150.54L43.82,153.73L48.44,99.59L49.59,109.03L50.74,104.01L51.9,102.99L54.2,115.66L55.36,103.49L56.51,91.49L57.66,101.45L58.82,112.15L59.97,102.58L61.12,103.62L62.28,91.91L63.43,65.06L64.58,82.72L66.89,92.32L68.04,117.63L69.2,117.1L70.35,121.42L71.5,114.77L72.66,94.83L73.81,108.82L74.96,75.24L77.27,114.69L78.42,117.51L79.58,114.14L80.73,108.18L81.88,114.79L83.04,110.85L84.19,108.26L85.34,112.89L86.5,107.94L87.65,114.39L88.8,123.41L89.96,123.79L91.11,124L92.26,120.98L93.42,110.93L94.57,111.84L95.72,117.73L96.88,110.18L98.03,109.94L99.18,113.12L102.64,124.56L103.79,118.31L104.95,118.86L106.1,114.48L107.25,114.71L108.41,118.83L109.56,128.46L110.71,126.62L113.02,149.56L114.17,151.42L115.33,164.68L116.48,164.01L117.63,178.14L118.79,182.58L121.09,201.02L122.25,209.64L123.4,195.03L124.55,206.98L125.71,208.95L126.86,215.23L128.01,222.28L129.17,236.4L133.78,174.93L134.93,184.61L136.09,185.98L137.24,236.24L138.39,232.43L139.55,232.31L141.85,197.8L143.01,196.42L144.16,208.52L145.31,207.33L147.62,199.29L148.77,182.01L149.93,177.29L151.08,186.89L152.23,188.58L153.39,181.23L154.54,160.61L155.69,153.63L156.85,132.36L158,129.11L159.15,125.22L160.31,94.77L161.46,97.19L162.61,108.41L163.76,111.35L164.92,128.32L167.22,88.88L168.38,95.93L169.53,98.88L170.68,112.12L172.99,93.58L174.14,88.98L175.3,88.57L176.45,107.88L177.6,74.24L178.76,96.55L179.91,116.91L181.06,110.57L183.37,88.49L184.52,110.5L186.83,87.76L187.98,95.93L189.14,107.03L190.29,82.97L192.6,117.59L193.75,101.22L194.9,104.28L196.06,104.08L197.21,114.54L198.36,117.86L199.52,113.52L200.67,101.99L201.82,115.45L202.98,119.72L204.13,117.9L205.28,121.28L206.44,115.63L207.59,117.37L209.9,121.66L211.05,117.45L212.2,115.49L213.36,124.89L215.66,116.39L216.82,126.78L217.97,130.98L219.12,121.97L222.58,149.2L223.74,158.13L224.89,159.25L226.04,173.26L227.19,176.22L228.35,176.63L229.5,190.26L230.65,188.73L232.96,208.68L234.11,206.91L235.27,211.34L236.42,190.77L238.73,199.61L239.88,223.31L241.03,229.12L242.19,214.69L243.34,232.51L244.49,193.06L245.65,191.75L246.8,196.72L247.95,168.61L249.11,85.13L251.41,192.82L252.57,194.37L253.72,206.21L254.87,184.69L256.03,178.97L257.18,189.15L258.33,198.46L259.49,197.44L260.64,194.03L261.79,193.57L262.95,191.86L264.1,187.02L266.41,167.16L267.56,139.64L268.71,123L269.87,124.25L271.02,97.87L272.17,101.76L273.33,127.97L274.48,71.12L275.63,94.51L276.79,98.8L277.94,104.75L279.09,102.83L281.4,120.54L282.55,113.92L283.71,122.13L284.86,101.32L286.01,50.83L287.17,38.69L288.32,13L289.47,58.35L290.63,92.73L291.78,46.88L292.93,23.26L294.08,55.09L295.24,81.77L296.39,87.7L297.54,73.74L298.7,84.42L299.85,111.09L301,105.24L302.16,100.75L303.31,111.43L305.62,83.33L306.77,95.32L307.92,99.6L309.08,117.82L310.23,101.38L311.38,120.62L312.54,101.93L313.69,111.92L314.84,107L316,114.21L317.15,112.11L318.3,87.2L319.46,114.46L320.61,117.85L321.76,119.13L322.92,116.86L324.07,119.76L325.22,125.93L327.53,121.62L328.68,124.12L330.99,132.1L332.14,139.75L336.76,167.1L337.91,165.06L339.06,160.75L340.22,178.58L341.37,176.65L342.52,184.89L343.68,188.36L344.83,174.16L347.14,187.67L348.29,178.26L349.44,186.3L350.6,157.19L355.21,237.43L356.36,206.8L357.51,126.2L358.67,211.82L359.82,203.38L360.97,218.97L363.28,182.2L364.43,185.03L365.59,159.28L366.74,160.89L367.89,159.53L369.05,152.62L370.2,89.6L371.35,164.03L372.51,168.87L373.66,148.85L374.81,163.73L375.97,136.18L377.12,145.94L378.27,129.15L379.43,143.48L380.58,144.21L381.73,138.36L382.89,123.84L384.04,113.45L385.19,110.69L386.35,119.66L387.5,121.29L388.65,124.84L389.81,121.66L390.96,108.55L392.11,109.55L393.27,107.8L394.42,109.64L395.57,107.44L396.73,86.47L397.88,94.61L399.03,80.78L400.19,115.41L401.34,112.19L402.49,91.47L403.65,104.54L404.8,83.84L405.95,110.61L407.11,87.06L408.26,111.95L409.41,101.4L410.57,109.91L411.72,120.26L412.87,111.47L414.03,110.79L415.18,119.53L416.33,92.89L417.49,112.71L418.64,118.59L419.79,119.46L420.94,107.96L422.1,108.63L423.25,110.58L424.4,116.67L425.56,116.16L426.71,104.3L427.86,118.25L429.02,111.93L430.17,118.46L431.32,120.15L432.48,123.91L433.63,123.84L435.94,128.15L437.09,127.41L438.24,128.39L439.4,128.18L441.7,140.76L442.86,144.05L444.01,149.07L445.16,144.05L448.62,173.96L449.78,179.37L450.93,183.55L452.08,199.44L453.24,196.01L454.39,213.81L455.54,207.6L456.7,213.48L457.85,212.12L459,180.16L461.31,207.2L462.46,198.98L463.62,208.42L464.77,225.43L465.92,231.12L467.08,217.02L468.23,190.78L469.38,225.51L470.54,217.41L471.69,220.96L472.84,223.19L474,228.43L475.15,199.89L476.3,209.56L477.46,213.58L478.61,213.69L482.07,153.58L483.22,170.39L484.38,163.03L485.53,135.45L487.83,73.47L488.99,66.26L490.14,104.11L491.29,38.65L492.45,98.19L493.6,103.17L494.75,108.67L495.91,122.63L498.21,91.57L499.37,98.27L500.52,107.6L501.67,70.53L502.83,53.45L503.98,52.39L505.13,76.49L506.29,59.93L507.44,64.61L508.59,84.64L509.75,59.03L510.9,76.02L512.05,79.12L513.21,103.08L514.36,113.96L515.51,106.41L516.67,116.62L517.82,77.79L518.97,87.5L520.13,116.85L522.43,120.06L523.59,107.55L524.74,98.56L525.89,112.45L528.2,123.02L529.35,123.81L530.51,120.24L531.66,124.09L532.81,124.88L533.97,123.34L536.27,121.57L537.43,118.23L538.58,124.37L539.73,120.25L540.89,119.94L542.04,101.41L543.19,102.42L544.35,112.72L545.5,110.96L546.65,107.39L547.81,112.31L548.96,113.71L550.11,106.98L551.26,119.39L552.42,108L553.57,108.86L554.72,105.98L555.88,110.29L558.18,114.33L559.34,112.98L560.49,95.4L561.64,116.98L565.1,128.08L566.26,123.11L567.41,123.76L568.56,120.89L569.72,118.58L570.87,141.39L572.02,120.85L573.18,118.67L574.33,104.05L575.48,112.23L576.64,106.26L577.79,81.1L578.94,92.85L580.1,17.3L582.4,109.01L583.56,75.69L584.71,129.95L585.86,114.07L587.02,115.06L588.17,101.33L589.32,125.04L590.48,130.08L591.63,129.22L592.78,131.95L593.94,137.57L595.09,134.79L596.24,111.24L597.4,121.78L598.55,110.9L599.7,108.46L600.86,125.17L602.01,99.86L604.32,115.15L605.47,85.42L606.62,110.66L607.78,104.02L608.93,113.67L610.08,99.18L612.39,63.63L613.54,80.21L614.69,90.41L615.85,66.69L617,43.09L618.15,86.9L619.31,108.75L620.46,114.61L621.61,120.98L622.77,65.28L623.92,90.48L625.07,92.36L626.23,72.37L627.38,112.46L629.69,64.84L630.84,65.89L631.99,96.87L633.15,97.65L634.3,84.55L635.45,82.16L636.61,109.27L637.76,91.45L638.91,114.81L640.07,116.92L641.22,111.37L642.37,112.2L643.53,111.22L644.68,115.43L645.83,116.06L646.99,123.02L648.14,114.53L649.29,120.18L650.45,119.52L651.6,123.53L652.75,123.92L653.91,122.28L655.06,117.69L656.21,120.75L657.37,116.28L658.52,122.72L659.67,111.11L660.83,114.97L661.98,116.69L663.13,122.61L664.29,115L665.44,74.63L666.59,111L667.75,110.81L670.05,156.64L671.21,155.18L673.51,188.76L674.67,186.14L675.82,185.96L676.97,191.06L678.13,205.26L679.28,193.21L680.43,211.76L681.58,214.71L682.74,197.73L683.89,215.24L685.04,212.62L686.2,165.97L687.35,201.03L688.5,176.68L689.66,184.94L690.81,212.64L691.96,220.61L693.12,134.8L695.42,208.37L696.58,187.45L697.73,181.29L698.88,159.93L700.04,170.55L701.19,158.73L702.34,154.2L703.5,157.47L704.65,182.66L705.8,174.25L706.96,165.08L708.11,147.03L709.26,130.78L710.42,146.94L712.72,136.3L713.88,111.09L715.03,121.93L716.18,119.3L717.34,129.29L718.49,84.83L719.64,91.12L720.8,15.17L723.1,84.11L724.26,94.78L725.41,97.28L726.56,24.74L727.72,101.27L728.87,80.07L730.02,93.81L731.18,74.83L732.33,102.6L733.48,65.19L734.64,79.1L735.79,69.2L736.94,80.07L738.1,56.3L740.4,107.17L741.56,116.39L742.71,116.4L743.86,110.73L746.17,123.19L747.32,123.95L748.47,122.39L749.63,113.17L750.78,116.78L751.93,109.59L753.09,117.9L754.24,102.96L756.55,112.27L757.7,114.62L758.85,101.9L760.01,106.23L762.31,114.63L763.47,109.66L764.62,122.73L765.77,119.77L766.93,122.29L768.08,113.44L769.23,110.13L770.39,119.01L771.54,121.68L772.69,102.43L773.85,125.21L775,131.34" style="vector-effect: non-scaling-stroke; fill: none; stroke: rgb(76, 120, 168); stroke-opacity: 1; stroke-width: 3px; opacity: 1;"/></g><g class="points"/><g class="text"/></g><g class="trace scatter trace4d596b" style="stroke-miterlimit: 2; opacity: 1;"><g class="fills"/><g class="errorbars"/><g class="lines"><path class="js-line" d="M0,137.57L3.46,160.73L4.61,169.88L11.53,210.08L12.69,210.71L13.84,213.44L14.99,211.26L16.15,203.29L17.3,217.8L20.76,227L21.91,225.31L23.07,224.63L24.22,210.3L26.53,235.35L27.68,230.1L29.99,219.05L31.14,225.17L34.6,206.3L35.75,187.71L36.9,195.26L38.06,192.15L40.36,166.66L41.52,162.66L49.59,102.47L50.74,100.78L53.05,101.81L54.2,107.23L57.66,93.5L58.82,96.21L59.97,103.21L61.12,101.38L62.28,99.33L63.43,93.34L64.58,79.26L65.74,81.23L66.89,83.58L68.04,83.57L69.2,101.59L70.35,101.97L71.5,102.12L72.66,97.01L73.81,105.23L74.96,105.76L76.12,90.68L77.27,95.97L78.42,108.02L79.58,110.5L80.73,109.55L81.88,105.18L83.04,111.86L84.19,111.9L85.34,109.14L86.5,110.75L87.65,108.45L88.8,112.27L91.11,120.62L92.26,115.59L93.42,115.31L94.57,111.54L95.72,111.89L96.88,114.71L98.03,113.54L99.18,113.97L100.33,116.74L101.49,115.06L103.79,123.61L104.95,122.8L106.1,119.36L107.25,120.2L108.41,122.01L109.56,126.08L111.87,134.53L113.02,141.69L116.48,169.3L117.63,172.15L122.25,201.66L123.4,207.63L124.55,201.82L125.71,205.35L128.01,213.14L129.17,212.41L130.32,220.57L131.47,217.86L134.93,192.56L136.09,196.17L137.24,198.5L138.39,215.48L139.55,222.8L140.7,222.56L141.85,214.84L143.01,197.03L144.16,191.31L145.31,192.82L146.47,190.64L147.62,195.11L148.77,189.68L149.93,178.21L151.08,170.21L152.23,175.71L153.39,173.56L154.54,167.67L158,131.65L159.15,124.67L160.31,119.94L161.46,99.42L162.61,97.82L163.76,104.71L164.92,109.62L166.07,108.94L168.38,92.1L169.53,94.54L170.68,96.14L171.84,102.49L175.3,89.72L176.45,87.29L177.6,92.77L178.76,77.49L181.06,98.15L182.22,96.37L183.37,87.48L184.52,98.82L185.68,104.88L186.83,103.78L187.98,92.88L189.14,95.43L190.29,101.71L191.44,93.65L192.6,98.51L193.75,110.32L194.9,106.61L196.06,106.52L197.21,105.64L198.36,109.38L199.52,114.52L200.67,112.53L201.82,107.7L202.98,107.58L204.13,112.89L205.28,113.76L206.44,115.74L207.59,114.1L211.05,121.06L212.2,115.16L213.36,115.84L214.51,121.71L215.66,122.78L216.82,117.44L219.12,130.19L220.28,129.81L221.43,132.18L222.58,138.54L227.19,173.06L228.35,178.54L229.5,180.36L230.65,191.36L231.81,193.23L232.96,200.76L234.11,206.26L235.27,205.13L236.42,206.47L237.57,197.44L239.88,192.31L241.03,205.18L242.19,213.74L243.34,210.31L244.49,217.07L245.65,203.99L246.8,198.42L247.95,200.14L249.11,182.44L250.26,141.98L251.41,150.16L252.57,183.14L253.72,189.96L254.87,192.19L256.03,178.9L257.18,174.39L258.33,185.57L259.49,182.48L261.79,174.38L262.95,178.29L264.1,175.25L265.25,169.59L268.71,134.52L269.87,121.4L271.02,117.77L272.17,100.06L273.33,99.36L274.48,112.79L275.63,93.56L276.79,87.03L279.09,97.41L280.25,99.25L281.4,99.58L282.55,106.04L284.86,107.15L286.01,96.37L288.32,53.98L289.47,37.33L291.78,79.62L292.93,61.23L294.08,41.56L295.24,71.82L296.39,86.84L297.54,91.16L298.7,79.6L299.85,84.1L301,101.06L302.16,102.6L303.31,96.18L304.46,103.2L305.62,100.87L306.77,94.45L309.08,97.96L310.23,109.43L311.38,106.05L312.54,112.47L313.69,102.6L314.84,105.74L316,105.39L317.15,108.33L318.3,109.57L319.46,99.75L321.76,116.84L322.92,113.98L324.07,114.67L325.22,116.84L326.38,123.29L327.53,120.19L328.68,120.35L329.84,123.58L333.3,137.74L334.45,144.82L337.91,166.97L339.06,168.01L340.22,166.3L341.37,177.73L342.52,178.53L343.68,181.08L344.83,182.64L345.98,174.06L347.14,174.79L348.29,178.26L350.6,171.11L351.75,163.42L355.21,204.01L356.36,218.26L357.51,208.33L358.67,168.5L360.97,194.57L362.13,198.84L363.28,189.07L364.43,168.42L365.59,170.49L366.74,157.7L367.89,147.46L369.05,152.19L370.2,148.34L371.35,118.13L373.66,157.17L374.81,147.72L375.97,147.31L377.12,133.08L378.27,133.39L379.43,125.86L380.58,124.11L381.73,126.73L385.19,108.35L386.35,106.81L387.5,101.2L388.65,104.33L389.81,107.26L390.96,107.84L392.11,101.94L393.27,100.72L396.73,96.4L397.88,84.84L399.03,83.4L400.19,76.22L401.34,95.3L402.49,96L403.65,83.04L404.8,82.96L407.11,102.28L408.26,92.85L410.57,99.72L411.72,101.64L412.87,106.68L414.03,103.4L416.33,110.12L417.49,99.92L419.79,109.2L420.94,111.68L424.4,103.22L425.56,108.33L426.71,109.22L427.86,104.51L429.02,110.1L430.17,111.4L432.48,117.44L433.63,114.67L437.09,123.93L438.24,121.08L440.55,126.57L441.7,132.69L442.86,135.26L444.01,140.77L445.16,146.52L446.32,147.86L448.62,164.88L449.78,172.93L452.08,186.9L453.24,195.63L454.39,197.47L455.54,205.53L456.7,204.36L457.85,206.26L459,207.38L460.16,193.61L461.31,192.08L462.46,199.22L463.62,198.32L464.77,202.77L467.08,218.59L468.23,214.98L469.38,199.89L470.54,205.26L471.69,208L472.84,207.67L474,207L475.15,203.75L476.3,192.02L477.46,188.87L478.61,187.41L479.76,194.02L483.22,153.42L484.38,160.94L485.53,154.6L486.68,135.99L488.99,89.75L490.14,82.49L491.29,98.36L492.45,74.2L495.91,105.45L497.06,113.97L498.21,94.99L499.37,88.99L501.67,96.53L502.83,81.63L503.98,69.16L505.13,65.38L506.29,77.02L507.44,72.63L508.59,68.39L509.75,75.5L510.9,66.82L512.05,76.82L513.21,75.4L514.36,83.28L515.51,90.48L516.67,107.76L517.82,108.47L518.97,91.48L520.13,87.7L521.28,103.99L522.43,108.44L523.59,109.35L524.74,103.11L525.89,102.32L528.2,112.81L529.35,115.11L531.66,115.34L532.81,118.52L533.97,120.43L535.12,113.53L538.58,115.05L539.73,117.95L542.04,119.01L543.19,112.25L544.35,105.31L545.5,111.73L546.65,114.15L547.81,113.6L548.96,111.26L550.11,114.54L551.26,113.74L552.42,118.37L553.57,112.3L554.72,112.06L555.88,111.18L557.03,112.14L558.18,117.47L559.34,118.51L560.49,117.61L561.64,109.35L563.95,123.42L565.1,124.95L566.26,126.75L567.41,122.65L568.56,121.43L569.72,118.89L570.87,115.17L572.02,117.89L575.48,100.18L576.64,100.18L577.79,100.94L578.94,89.56L580.1,91.76L581.25,55.75L583.56,96.21L584.71,85.67L585.86,99.89L587.02,98.94L588.17,98.68L589.32,92.13L591.63,109.37L592.78,111.87L593.94,111.36L595.09,121.8L596.24,122.21L597.4,110.16L598.55,109.44L599.7,104.6L600.86,104.21L602.01,112.68L603.16,105.57L604.32,103.63L605.47,109.26L606.62,97.94L607.78,106.24L608.93,97.15L610.08,102.37L611.24,99.62L613.54,77.37L614.69,84.12L615.85,90.48L617,80.6L618.15,64.52L619.31,79.04L620.46,95.06L621.61,98.47L622.77,105.72L623.92,78.47L626.23,82.31L627.38,91.38L628.53,103.22L629.69,98.45L630.84,83.62L631.99,83.05L634.3,98.82L635.45,92.85L636.61,91.81L637.76,105.31L638.91,104.45L640.07,111.05L642.37,111.85L643.53,114.11L644.68,113.59L645.83,109.66L648.14,116.4L649.29,115.22L653.91,124.92L655.06,119.58L656.21,119.43L657.37,122.29L658.52,122.55L659.67,121.49L660.83,120.08L661.98,122.64L664.29,128.92L665.44,129.49L666.59,112.62L667.75,124.72L671.21,164.37L672.36,167.29L674.67,192.99L675.82,192.51L676.97,191.99L678.13,192.29L679.28,200.67L680.43,199.49L681.58,206.46L682.74,205.88L683.89,200.85L685.04,207.36L686.2,209.36L687.35,188.97L688.5,198.32L689.66,192.68L690.81,194.9L691.96,203.18L693.12,209.44L694.27,174.25L695.42,179.47L696.58,191.88L697.73,187.7L698.88,178.97L700.04,161.97L701.19,172.51L702.34,168.8L703.5,157.28L704.65,152.75L705.8,170.15L706.96,168.2L708.11,159.2L710.42,131.72L711.57,134.97L713.88,127L715.03,109.71L717.34,115.62L718.49,120.92L719.64,92.63L720.8,89.67L721.95,58.82L723.1,68.81L725.41,93.52L726.56,96.97L727.72,63.51L728.87,86.11L730.02,87.66L731.18,86.11L732.33,74.86L733.48,89.83L734.64,78.66L735.79,76.6L736.94,67.69L738.1,91.12L739.25,81.6L740.4,86.95L742.71,111.21L743.86,111.26L745.01,106.6L746.17,109.72L747.32,118.09L748.47,118.03L749.63,117.06L750.78,114.13L751.93,113.69L753.09,112.3L754.24,115.54L755.39,111.1L756.55,105.72L757.7,109.88L758.85,113.02L760.01,108.99L761.16,108.82L762.31,112.92L763.47,117.43L764.62,116.95L765.77,116.79L766.93,120.12L768.08,123.54L769.23,121.45L770.39,114.97L771.54,121.45L772.69,126.54L773.85,120.33L775,126.4" style="vector-effect: non-scaling-stroke; fill: none; stroke: rgb(255, 127, 14); stroke-opacity: 0.7; stroke-width: 3px; opacity: 1;"/></g><g class="points"/><g class="text"/></g></g></g><g class="overplot"/><path class="xlines-above crisp" d="M0,0" style="fill: none;"/><path class="ylines-above crisp" d="M74,50V310" style="fill: none; stroke-width: 2px; stroke: rgb(0, 0, 0); stroke-opacity: 1;"/><g class="overlines-above"/><g class="xaxislayer-above"><g class="xtick"><text text-anchor="middle" x="0" y="330" transform="translate(158.04000000000002,0)" style="font-family: 'Open Sans', verdana, arial, sans-serif; font-size: 19px; fill: rgb(42, 63, 95); fill-opacity: 1; white-space: pre; opacity: 1;"><tspan class="line" dy="0em" x="0" y="330">May 31</tspan><tspan class="line" dy="1.3em" x="0" y="330">2019</tspan></text></g><g class="xtick"><text text-anchor="middle" x="0" y="330" style="font-family: 'Open Sans', verdana, arial, sans-serif; font-size: 19px; fill: rgb(42, 63, 95); fill-opacity: 1; white-space: pre; opacity: 1;" transform="translate(268.75,0)">Jun 1</text></g><g class="xtick"><text text-anchor="middle" x="0" y="330" style="font-family: 'Open Sans', verdana, arial, sans-serif; font-size: 19px; fill: rgb(42, 63, 95); fill-opacity: 1; white-space: pre; opacity: 1;" transform="translate(379.46,0)">Jun 2</text></g><g class="xtick"><text text-anchor="middle" x="0" y="330" style="font-family: 'Open Sans', verdana, arial, sans-serif; font-size: 19px; fill: rgb(42, 63, 95); fill-opacity: 1; white-space: pre; opacity: 1;" transform="translate(490.18,0)">Jun 3</text></g><g class="xtick"><text text-anchor="middle" x="0" y="330" style="font-family: 'Open Sans', verdana, arial, sans-serif; font-size: 19px; fill: rgb(42, 63, 95); fill-opacity: 1; white-space: pre; opacity: 1;" transform="translate(600.89,0)">Jun 4</text></g><g class="xtick"><text text-anchor="middle" x="0" y="330" style="font-family: 'Open Sans', verdana, arial, sans-serif; font-size: 19px; fill: rgb(42, 63, 95); fill-opacity: 1; white-space: pre; opacity: 1;" transform="translate(711.61,0)">Jun 5</text></g><g class="xtick"><text text-anchor="middle" x="0" y="330" style="font-family: 'Open Sans', verdana, arial, sans-serif; font-size: 19px; fill: rgb(42, 63, 95); fill-opacity: 1; white-space: pre; opacity: 1;" transform="translate(822.32,0)">Jun 6</text></g></g><g class="yaxislayer-above"><g class="ytick"><text text-anchor="end" x="69.2" y="6.6499999999999995" transform="translate(0,277.95)" style="font-family: 'Open Sans', verdana, arial, sans-serif; font-size: 19px; fill: rgb(42, 63, 95); fill-opacity: 1; white-space: pre; opacity: 1;">−2</text></g><g class="ytick"><text text-anchor="end" x="69.2" y="6.6499999999999995" style="font-family: 'Open Sans', verdana, arial, sans-serif; font-size: 19px; fill: rgb(42, 63, 95); fill-opacity: 1; white-space: pre; opacity: 1;" transform="translate(0,226.91)">−1</text></g><g class="ytick"><text text-anchor="end" x="69.2" y="6.6499999999999995" style="font-family: 'Open Sans', verdana, arial, sans-serif; font-size: 19px; fill: rgb(42, 63, 95); fill-opacity: 1; white-space: pre; opacity: 1;" transform="translate(0,175.88)">0</text></g><g class="ytick"><text text-anchor="end" x="69.2" y="6.6499999999999995" style="font-family: 'Open Sans', verdana, arial, sans-serif; font-size: 19px; fill: rgb(42, 63, 95); fill-opacity: 1; white-space: pre; opacity: 1;" transform="translate(0,124.84)">1</text></g><g class="ytick"><text text-anchor="end" x="69.2" y="6.6499999999999995" style="font-family: 'Open Sans', verdana, arial, sans-serif; font-size: 19px; fill: rgb(42, 63, 95); fill-opacity: 1; white-space: pre; opacity: 1;" transform="translate(0,73.8)">2</text></g></g><g class="overaxes-above"/></g></g><g class="polarlayer"/><g class="ternarylayer"/><g class="geolayer"/><g class="funnelarealayer"/><g class="pielayer"/><g class="iciclelayer"/><g class="treemaplayer"/><g class="sunburstlayer"/><g class="glimages"/><defs id="topdefs-46ff15"><g class="clips"/></defs><g class="layer-above"><g class="imagelayer"/><g class="shapelayer"/></g><g class="infolayer"><g class="g-gtitle"/><g class="g-xtitle"/><g class="g-ytitle" transform="translate(12.537109375,0)"><text class="ytitle" transform="rotate(-90,10.462500000000006,180)" x="10.462500000000006" y="180" text-anchor="middle" style="font-family: 'Open Sans', verdana, arial, sans-serif; font-size: 23px; fill: rgb(42, 63, 95); opacity: 1; font-weight: normal; white-space: pre;">Netload [kW]</text></g></g></svg>