<svg class="main-svg" xmlns="http://www.w3.org/2000/svg" xmlns:xlink="http://www.w3.org/1999/xlink" width="900" height="400" viewBox="0 0 900 400"><rect x="0" y="0" width="900" height="400" style="fill: rgb(255, 255, 255); fill-opacity: 1;"/><defs id="defs-6c388c"><g class="clips"><clipPath id="clip6c388cxyplot" class="plotclip"><rect width="775" height="260"/></clipPath><clipPath class="axesclip" id="clip6c388cx"><rect x="75" y="0" width="775" height="400"/></clipPath><clipPath class="axesclip" id="clip6c388cy"><rect x="0" y="50" width="900" height="260"/></clipPath><clipPath class="axesclip" id="clip6c388cxy"><rect x="75" y="50" width="775" height="260"/></clipPath></g><g class="gradients"/><g class="patterns"/></defs><g class="bglayer"/><g class="layer-below"><g class="imagelayer"/><g class="shapelayer"/></g><g class="cartesianlayer"><g class="subplot xy"><g class="layer-subplot"><g class="shapelayer"/><g class="imagelayer"/></g><g class="gridlayer"><g class="x"><path class="xgrid crisp" transform="translate(158.04000000000002,0)" d="M0,50v260" style="stroke: rgb(235, 240, 248); stroke-opacity: 1; stroke-width: 1px;"/><path class="xgrid crisp" transform="translate(268.75,0)" d="M0,50v260" style="stroke: rgb(235, 240, 248); stroke-opacity: 1; stroke-width: 1px;"/><path class="xgrid crisp" transform="translate(379.46,0)" d="M0,50v260" style="stroke: rgb(235, 240, 248); stroke-opacity: 1; stroke-width: 1px;"/><path class="xgrid crisp" transform="translate(490.18,0)" d="M0,50v260" style="stroke: rgb(235, 240, 248); stroke-opacity: 1; stroke-width: 1px;"/><path class="xgrid crisp" transform="translate(600.89,0)" d="M0,50v260" style="stroke: rgb(235, 240, 248); stroke-opacity: 1; stroke-width: 1px;"/><path class="xgrid crisp" transform="translate(711.61,0)" d="M0,50v260" style="stroke: rgb(235, 240, 248); stroke-opacity: 1; stroke-width: 1px;"/><path class="xgrid crisp" transform="translate(822.32,0)" d="M0,50v260" style="stroke: rgb(235, 240, 248); stroke-opacity: 1; stroke-width: 1px;"/></g><g class="y"><path class="ygrid crisp" transform="translate(0,275.37)" d="M75,0h775" style="stroke: rgb(235, 240, 248); stroke-opacity: 1; stroke-width: 1px;"/><path class="ygrid crisp" transform="translate(0,225.03)" d="M75,0h775" style="stroke: rgb(235, 240, 248); stroke-opacity: 1; stroke-width: 1px;"/><path class="ygrid crisp" transform="translate(0,124.33)" d="M75,0h775" style="stroke: rgb(235, 240, 248); stroke-opacity: 1; stroke-width: 1px;"/><path class="ygrid crisp" transform="translate(0,73.99)" d="M75,0h775" style="stroke: rgb(235, 240, 248); stroke-opacity: 1; stroke-width: 1px;"/></g></g><g class="zerolinelayer"><path class="yzl zl crisp" transform="translate(0,174.68)" d="M75,0h775" style="stroke: rgb(0, 0, 0); stroke-opacity: 1; stroke-width: 2px;"/></g><path class="xlines-below"/><path class="ylines-below"/><g class="overlines-below"/><g class="xaxislayer-below"/><g class="yaxislayer-below"/><g class="overaxes-below"/><g class="plot" transform="translate(75,50)" clip-path="url(#clip6c388cxyplot)"><g class="scatterlayer mlayer"><g class="trace scatter trace8ae7c8" style="stroke-miterlimit: 2; opacity: 1;"><g class="fills"/><g class="errorbars"/><g class="lines"><path class="js-line" d="M0,117.41L3.46,148.94L4.61,151.15L6.92,174.12L8.07,174.86L10.38,192.01L11.53,199.13L12.69,210.46L13.84,207.55L14.99,202.35L16.15,227.52L17.3,223.53L18.45,231.14L20.76,241.2L21.91,241.58L23.07,246.12L24.22,245.68L25.37,237L26.53,241.22L28.83,214.96L29.99,214L31.14,235.18L32.29,228.88L33.44,216.62L34.6,191.19L35.75,205.87L36.9,199.51L39.21,167.58L40.36,171.55L41.52,146.99L42.67,144.28L43.82,143.54L44.98,146.65L47.28,126.66L48.44,129.92L49.59,130.66L50.74,126.49L51.9,126.16L53.05,123.1L54.2,121.66L55.36,123.61L57.66,117.75L58.82,107.02L59.97,109.49L61.12,108.08L62.28,104.16L63.43,103.63L64.58,98.5L65.74,117.36L69.2,51.54L70.35,55.57L72.66,86.28L73.81,79.96L74.96,53.33L76.12,74.94L77.27,83.47L78.42,103.98L79.58,114.35L80.73,117.51L81.88,78.29L83.04,106.82L84.19,115.36L85.34,116.51L86.5,114.82L87.65,117.98L88.8,117.5L89.96,111.73L91.11,119.71L92.26,111.68L93.42,112.4L94.57,117.67L95.72,119.05L96.88,122.23L98.03,122L99.18,116.36L100.33,118.9L101.49,107.04L102.64,115.76L103.79,114.36L104.95,121.21L106.1,109.52L107.25,106.8L108.41,127.41L109.56,123.19L110.71,123.38L111.87,130.48L113.02,127.04L117.63,182.52L118.79,186.14L122.25,212.36L123.4,212.85L125.71,227.47L126.86,224.29L129.17,234.43L130.32,230.37L131.47,242.97L132.63,239.66L133.78,246.25L134.93,247L136.09,245.79L137.24,242.94L138.39,241.92L139.55,242.75L140.7,235.8L141.85,236.65L143.01,235.41L144.16,231.26L146.47,220.99L147.62,216.39L148.77,199.68L149.93,198.25L151.08,192.14L152.23,161.65L153.39,173.07L154.54,166.48L155.69,157.52L156.85,141.43L158,143.97L159.15,139.72L160.31,131.34L161.46,130.7L162.61,130.81L163.76,127.45L166.07,100.66L167.22,109.91L168.38,90.62L169.53,109.71L170.68,98.89L171.84,101.77L172.99,86.54L174.14,104L175.3,106.39L176.45,104.36L177.6,112.06L178.76,106.16L181.06,92.77L182.22,67.04L183.37,79.91L184.52,102.76L186.83,91.39L187.98,98.43L189.14,105.25L190.29,104.02L192.6,85.31L193.75,107.27L194.9,112.89L196.06,108.3L197.21,116.92L198.36,109.77L199.52,108.67L200.67,112.39L201.82,117.98L202.98,106.56L204.13,104.89L205.28,96.75L206.44,107.02L207.59,101.21L208.74,116.48L209.9,104.74L211.05,102.3L212.2,108.65L213.36,120.32L214.51,96.85L215.66,107.33L216.82,106.17L217.97,111.21L219.12,111.67L220.28,127.84L221.43,126.63L222.58,138.85L223.74,140.72L226.04,170.39L227.19,179.9L228.35,184.26L229.5,185.4L235.27,214.82L236.42,217.83L237.57,204.64L238.73,208.05L239.88,206.55L241.03,218.7L243.34,235.69L244.49,236.6L245.65,225.55L246.8,231.1L249.11,236.64L250.26,230.16L252.57,231.35L253.72,229.72L256.03,219.43L257.18,218.02L258.33,215.24L259.49,207.11L260.64,202.35L261.79,184.58L262.95,186.14L264.1,179.56L268.71,145.88L269.87,139.28L271.02,136.62L272.17,131.61L273.33,123.6L274.48,124.03L275.63,123.42L276.79,113.89L277.94,112.66L279.09,112.62L280.25,106.64L281.4,84.56L282.55,111.25L283.71,103.97L284.86,112.25L286.01,106.69L287.17,110.66L288.32,110.22L290.63,49.32L291.78,23.03L292.93,82.04L294.08,62.47L296.39,102.69L297.54,104.2L298.7,87.63L299.85,114.38L301,106.62L302.16,105.06L303.31,78.75L304.46,116.7L306.77,106.59L307.92,106.92L309.08,106.91L310.23,112.52L312.54,103.7L313.69,102.51L314.84,110.47L316,107.03L317.15,117.42L318.3,110.77L319.46,115.86L320.61,110.33L321.76,115.87L322.92,114.56L324.07,112.06L325.22,116.91L326.38,113.63L327.53,113.96L328.68,121.99L329.84,122.38L330.99,124.06L332.14,128.54L334.45,149.41L335.6,164.2L341.37,188.79L342.52,192.38L343.68,194.49L344.83,194.21L345.98,190.16L347.14,191.9L348.29,195.26L349.44,190.2L350.6,196.89L351.75,193.69L352.9,201.25L354.06,222.22L355.21,239.72L356.36,238.02L359.82,230.79L360.97,224.13L362.13,219.62L363.28,209.52L364.43,205.89L365.59,189.68L366.74,179.8L367.89,191.09L369.05,173.23L370.2,178.88L371.35,177.21L372.51,181.35L373.66,169.94L374.81,174.16L375.97,173.25L377.12,166.66L378.27,156.15L379.43,153.96L381.73,134.52L382.89,118.89L384.04,123.18L385.19,122.42L386.35,121.56L387.5,106.03L388.65,96.72L389.81,103.25L390.96,109.89L392.11,107.61L393.27,116.2L394.42,113.9L395.57,104.01L396.73,107.29L397.88,116.32L399.03,112.37L401.34,100.78L402.49,111.53L403.65,104.5L404.8,88.38L405.95,98.16L407.11,90.03L408.26,78.13L409.41,93.21L410.57,101.37L411.72,99.46L412.87,96.85L414.03,90.76L415.18,107.6L416.33,107.18L417.49,107.9L418.64,110.63L420.94,100.83L422.1,105.48L424.4,117.93L425.56,109.35L426.71,103.95L427.86,39.14L429.02,106.11L430.17,117.32L431.32,109.5L432.48,108L433.63,114.64L434.78,112.69L435.94,122.66L437.09,122.94L438.24,116.75L439.4,116.79L440.55,106.3L441.7,130.51L442.86,132.75L444.01,132.2L447.47,166.09L448.62,175.78L449.78,171.33L450.93,180.79L455.54,209.3L456.7,209.6L457.85,216.62L459,208.49L461.31,224.8L462.46,211.49L464.77,232.41L465.92,238.11L467.08,234.63L468.23,236.64L469.38,237.21L470.54,235.31L471.69,229.93L472.84,231.57L474,226.45L475.15,214.96L477.46,179.34L478.61,184.32L479.76,178.4L480.92,182.79L483.22,136.81L484.38,144.97L485.53,153.81L486.68,145.07L487.83,147.51L488.99,134.87L490.14,125.17L491.29,128.34L492.45,128.62L493.6,124.62L494.75,124.3L495.91,123.15L497.06,125.8L498.21,102.9L499.37,52.11L500.52,78.11L501.67,97.46L502.83,91.55L503.98,85.81L505.13,93.37L506.29,105.42L507.44,98.71L508.59,104.7L509.75,99.49L510.9,112.33L512.05,93.9L513.21,108.97L514.36,105.3L515.51,97.74L516.67,101.92L517.82,98.87L518.97,104.04L520.13,88.03L521.28,94.84L523.59,78.89L524.74,105.87L525.89,94.46L527.05,51.85L528.2,100.5L529.35,105.49L530.51,110.77L531.66,104.28L532.81,112.61L533.97,97.43L535.12,89.15L536.27,111.89L537.43,110.48L538.58,100.62L539.73,31.01L540.89,104.19L542.04,105.8L543.19,87.96L544.35,105.24L545.5,86.12L546.65,102.38L547.81,90.24L548.96,97.37L550.11,77.95L551.26,111.68L552.42,115.81L553.57,113.32L554.72,105.12L555.88,111.75L557.03,112.78L558.18,116.14L559.34,123.35L560.49,108.26L561.64,107.8L563.95,128.07L565.1,121.91L566.26,124.53L567.41,111.74L568.56,74.26L569.72,125.07L570.87,132.33L572.02,117.14L573.18,118.03L574.33,130.1L575.48,127.28L576.64,97.16L577.79,100.32L578.94,107.25L580.1,98.94L581.25,108.97L582.4,108.08L583.56,13L587.02,92.3L588.17,103.74L590.48,96.09L591.63,107.29L592.78,105.49L593.94,107.56L595.09,114.96L596.24,66.1L597.4,105.04L598.55,115.36L599.7,116.87L600.86,108.67L602.01,112.83L603.16,111L604.32,129.05L605.47,128.78L606.62,114.67L607.78,116.94L608.93,121.29L610.08,118.06L611.24,106.61L612.39,114.35L613.54,115.86L614.69,119.97L617,117.8L618.15,113.16L619.31,119.59L620.46,114.13L621.61,91.66L622.77,104.26L623.92,105.65L625.07,87.94L626.23,117.45L627.38,118.04L628.53,118.4L629.69,116.98L630.84,109.27L631.99,118.5L633.15,114.7L634.3,98.68L636.61,111.35L637.76,111.1L638.91,115.01L640.07,99.76L641.22,99.29L642.37,106.68L643.53,114.86L644.68,114.39L646.99,109.55L648.14,105.06L649.29,106.35L650.45,104.57L651.6,105.78L652.75,95.63L653.91,98.99L655.06,108.55L656.21,115.11L657.37,114.8L658.52,119.54L659.67,120.36L660.83,130.64L661.98,134L665.44,142.54L666.59,142.77L668.9,147.85L670.05,156.16L671.21,159L672.36,177.23L673.51,191.19L674.67,192.54L675.82,202.44L676.97,204.63L678.13,206.19L679.28,216.55L680.43,211.18L681.58,217.48L682.74,213.54L683.89,203.88L686.2,232.2L687.35,212.17L689.66,201.47L690.81,210.79L693.12,222.34L694.27,210.41L695.42,204.69L696.58,211.73L697.73,204.66L698.88,204.36L700.04,192.55L701.19,210.29L702.34,199.7L703.5,195.98L704.65,193.17L705.8,188.14L708.11,169.05L709.26,167.92L713.88,137.02L715.03,128.53L716.18,131.86L717.34,127.96L718.49,127.18L719.64,124.42L720.8,121.29L721.95,112.68L723.1,116.91L724.26,109.1L725.41,110.95L726.56,117.31L727.72,118.85L728.87,115.82L731.18,118.12L732.33,117.06L733.48,114.46L734.64,114.58L735.79,96.71L736.94,97.13L738.1,97.25L739.25,85.68L740.4,87.63L741.56,106.31L742.71,109.49L743.86,98.28L745.01,103.69L746.17,99.1L747.32,118.38L748.47,118.24L749.63,113.32L750.78,104.74L751.93,116.61L753.09,106.96L754.24,115.33L755.39,112.77L756.55,114.25L757.7,110.1L758.85,117.79L760.01,116.09L761.16,120.62L762.31,119.33L763.47,120.07L764.62,117.31L765.77,119.3L766.93,117.63L769.23,126.17L770.39,124.14L775,141.74" style="vector-effect: non-scaling-stroke; fill: none; stroke: rgb(76, 120, 168); stroke-opacity: 1; stroke-width: 3px; opacity: 1;"/></g><g class="points"/><g class="text"/></g><g class="trace scatter trace03f180" style="stroke-miterlimit: 2; opacity: 1;"><g class="fills"/><g class="errorbars"/><g class="lines"><path class="js-line" d="M0,124.18L1.15,126.82L2.31,137.88L4.61,150.43L5.77,156.03L8.07,176.92L9.23,178.65L12.69,200.94L13.84,199.82L14.99,199.98L16.15,198.82L18.45,220.57L19.61,225.18L21.91,231.88L23.07,237.1L24.22,239.42L25.37,239.28L26.53,234.97L27.68,227.74L29.99,212.84L31.14,211.9L32.29,220.63L33.44,215.83L34.6,207.75L35.75,192.54L36.9,192.2L38.06,183.39L40.36,154.67L41.52,160.52L43.82,135.94L44.98,130.14L46.13,133.47L47.28,125.03L48.44,115.71L49.59,114.02L50.74,119.57L51.9,115.98L54.2,112.64L55.36,106.25L56.51,107.72L57.66,106.65L58.82,106.82L59.97,98.87L62.28,104.16L63.43,104.63L64.58,89.29L65.74,89L66.89,101.14L68.04,89.76L70.35,50.76L71.5,53.64L72.66,62.58L73.81,81.21L74.96,77.41L76.12,62.56L77.27,72.87L78.42,95.22L80.73,108.53L81.88,108.65L83.04,96.55L84.19,110.17L85.34,113.39L86.5,112.85L87.65,108.9L88.8,109.73L89.96,108.78L91.11,105.17L92.26,110.59L93.42,105.96L94.57,105.98L95.72,108.42L98.03,113.29L99.18,112.81L100.33,109.47L101.49,112.94L102.64,106.99L103.79,111.93L104.95,111.6L106.1,120.82L107.25,116.62L108.41,117.28L109.56,130.37L110.71,127.65L111.87,132.11L113.02,140.32L114.17,143.06L115.33,148.43L118.79,182.86L119.94,186.06L123.4,209.37L124.55,202.54L126.86,213.53L128.01,213.36L129.17,224.78L130.32,228.56L131.47,227.25L132.63,234.81L134.93,241.55L136.09,241.91L137.24,241.41L138.39,230.33L139.55,229.4L140.7,229.56L143.01,223.87L144.16,221.88L146.47,212.75L147.62,203.21L148.77,197.52L149.93,185.12L151.08,180.47L152.23,183.2L153.39,162.19L154.54,163.03L155.69,154.2L156.85,151.21L158,137.15L159.15,132.99L160.31,125.41L161.46,124.22L164.92,117.36L166.07,104.08L167.22,97.27L168.38,102.87L169.53,93.85L170.68,101.46L171.84,98.01L172.99,101.97L175.3,90.59L176.45,94.24L177.6,95.36L178.76,101.32L179.91,79.42L181.06,77.31L182.22,74.27L183.37,61.02L185.68,90.41L186.83,86.72L187.98,82.49L189.14,104.05L190.29,106.18L191.44,103.99L192.6,96.27L193.75,101.13L194.9,111.28L196.06,112.94L197.21,109.37L198.36,110.84L199.52,106.23L200.67,104.94L201.82,106.32L202.98,110.47L204.13,104.04L205.28,102.78L206.44,98.14L207.59,106.36L208.74,102.94L209.9,110.62L211.05,104.06L212.2,104.89L213.36,108.46L214.51,114.89L215.66,102.84L216.82,113.91L217.97,115.26L219.12,120.01L220.28,122.47L221.43,130.5L222.58,134.25L223.74,145.18L226.04,157.36L227.19,168.12L229.5,183.8L230.65,185.52L234.11,203L235.27,200.26L237.57,204.91L238.73,197.96L239.88,207.33L241.03,207.83L244.49,231.67L245.65,232.27L246.8,226.74L247.95,230.13L249.11,222.16L250.26,223.55L251.41,219.98L252.57,220.01L254.87,216.4L256.03,212.35L257.18,208.24L258.33,199.76L259.49,195.25L260.64,187.62L262.95,178.25L264.1,174.21L266.41,155.59L267.56,153.41L269.87,133.6L271.02,124.92L272.17,126.88L273.33,122.28L274.48,116.47L275.63,115.56L277.94,104.1L279.09,104L280.25,104.93L281.4,99.14L282.55,89.72L283.71,106.18L284.86,104.82L286.01,94.07L287.17,93.49L288.32,97.72L289.47,99.35L290.63,60.6L292.93,36.35L294.08,67.73L295.24,68.4L296.39,77.74L297.54,88.2L298.7,87.84L301,109.49L302.16,103.8L303.31,101.37L304.46,96.01L305.62,114.53L306.77,110.98L309.08,103.68L310.23,102.78L311.38,104.97L312.54,101.91L314.84,99.73L316,103.5L317.15,101.27L318.3,109.5L319.46,105.58L320.61,107.83L321.76,104.48L322.92,109.46L325.22,107.98L326.38,110.89L330.99,125.21L332.14,125.47L334.45,140.86L335.6,151.61L341.37,177.59L342.52,180.18L344.83,184.61L345.98,175L347.14,173.16L348.29,174.28L349.44,176.17L350.6,181.19L354.06,201.76L355.21,222.1L356.36,230.41L357.51,228.78L358.67,227.01L359.82,216.15L363.28,199.81L364.43,189.75L365.59,186.91L366.74,177.32L367.89,170.87L369.05,169.31L370.2,158.61L371.35,159.99L372.51,157.19L373.66,167.32L374.81,157.39L375.97,155.47L377.12,150.66L378.27,149.95L381.73,124.55L382.89,122.4L384.04,111.73L385.19,111.96L386.35,109.97L387.5,102.85L389.81,90.41L390.96,94.81L393.27,96.69L394.42,103.61L395.57,104.87L396.73,84.54L397.88,88.61L399.03,95.52L400.19,95.29L401.34,71.95L402.49,71.47L403.65,77.83L404.8,74.4L405.95,76.9L407.11,81.54L408.26,76.4L409.41,68.99L410.57,94.75L411.72,97.55L412.87,94.97L414.03,92.01L415.18,97.34L416.33,104.76L417.49,103.21L419.79,100.75L420.94,96.64L422.1,93.99L423.25,95.84L425.56,103.16L426.71,98.25L427.86,95.04L429.02,63.66L430.17,98.6L431.32,104.13L432.48,99.63L433.63,100.95L434.78,104.78L435.94,104.13L438.24,115.63L439.4,114.21L440.55,116.21L441.7,112.79L444.01,130.51L445.16,134.72L447.47,151.51L448.62,159.07L449.78,168.55L450.93,170.52L455.54,197.64L456.7,193.97L457.85,195.51L459,200.47L460.16,197.37L461.31,209.82L462.46,215.05L463.62,208.42L467.08,227.47L468.23,225.59L469.38,226.78L470.54,217.5L471.69,215.83L472.84,212.43L474,212.79L475.15,207.58L477.46,190.56L478.61,177.75L480.92,166.7L482.07,166.26L484.38,145.72L485.53,143.74L486.68,141.87L487.83,130.56L488.99,132.23L490.14,122.49L491.29,114.38L492.45,113.22L493.6,119.11L494.75,114.7L497.06,110.53L498.21,105.39L499.37,93.49L500.52,67.33L502.83,89.73L503.98,88.9L505.13,88.35L506.29,94.9L507.44,86.21L508.59,85.11L509.75,90.49L510.9,89.69L513.21,69.19L514.36,77.92L515.51,76.34L516.67,83.42L517.82,85.19L518.97,82.79L520.13,84.46L521.28,93.9L522.43,96.06L523.59,91.19L524.74,84.63L525.89,107.46L527.05,100.06L528.2,76.33L529.35,100.86L530.51,100.46L531.66,102.43L532.81,98.34L533.97,102.19L535.12,95.43L536.27,90.68L537.43,102.34L538.58,101.28L539.73,98.92L540.89,61.9L542.04,100.15L543.19,100.65L544.35,93.4L545.5,102.23L546.65,91.91L547.81,100.32L548.96,98.94L550.11,102.96L551.26,93.11L552.42,111.42L553.57,111.39L554.72,111.02L555.88,107.75L557.03,112.38L558.18,106.98L560.49,116.28L561.64,110.12L562.8,108.64L563.95,115.28L565.1,122.61L566.26,120.8L568.56,105.8L569.72,84.99L572.02,120.91L573.18,111.33L574.33,110.28L575.48,115.21L576.64,116.58L577.79,101.37L578.94,103.88L580.1,108.55L581.25,95.47L582.4,101.37L583.56,101.61L584.71,52.25L588.17,93.46L589.32,99.55L590.48,91.06L591.63,90.64L592.78,97.57L593.94,97.32L595.09,108.96L596.24,110.97L597.4,83.08L598.55,101.29L599.7,111.51L600.86,110.91L602.01,105.26L603.16,106.28L605.47,119.89L606.62,117.79L608.93,103.43L610.08,105.81L611.24,104.65L612.39,99.56L613.54,101L614.69,104.03L617,110.72L618.15,94.9L619.31,94.83L620.46,100.39L621.61,99.4L622.77,68.74L623.92,76.53L625.07,77.98L626.23,68.95L627.38,95.52L629.69,94.69L630.84,92.82L631.99,106.57L633.15,109.96L634.3,106.39L635.45,96.37L636.61,109.58L637.76,110.15L638.91,108.7L640.07,109.58L641.22,98.45L642.37,97.33L644.68,104.22L645.83,105.15L649.29,99.04L650.45,102.5L651.6,101.19L652.75,101.44L653.91,95.69L655.06,99.57L657.37,108.51L658.52,108.66L659.67,116.67L660.83,119.1L663.13,130.67L664.29,132.11L667.75,147.1L668.9,145.54L672.36,165.36L673.51,176.1L674.67,186.14L675.82,189.4L676.97,197.02L678.13,190.47L679.28,193.16L680.43,200.38L681.58,199.23L682.74,211.8L683.89,210.12L685.04,205.47L687.35,225.77L688.5,215.04L691.96,204.94L693.12,207.24L694.27,210.67L695.42,204.3L696.58,199.2L697.73,201.91L698.88,197.04L700.04,195.56L701.19,181.73L702.34,188.21L704.65,173.96L705.8,178.83L708.11,160.57L709.26,151.16L710.42,152.48L711.57,142.18L713.88,123.55L715.03,123.57L716.18,117.15L717.34,117.36L718.49,114.19L719.64,107.6L721.95,105.35L723.1,101.88L724.26,101.58L725.41,99.72L726.56,103.15L727.72,109.03L728.87,94.77L730.02,95.58L732.33,100.9L733.48,81.55L734.64,81.36L735.79,82.18L736.94,73.08L738.1,84.35L739.25,83.95L740.4,77.04L741.56,76.98L742.71,104.69L743.86,104.92L745.01,97.48L746.17,98.8L747.32,104.96L748.47,113.71L749.63,112.36L750.78,108.63L751.93,101.05L753.09,106.48L754.24,100.71L755.39,104.56L756.55,104.44L757.7,104.83L758.85,102.29L761.16,107.95L762.31,110.01L763.47,108.99L764.62,109.03L766.93,111.17L768.08,110.74L769.23,113.18L770.39,121.47L771.54,122.15L772.69,126.22L775,132.42" style="vector-effect: non-scaling-stroke; fill: none; stroke: rgb(255, 127, 14); stroke-opacity: 0.7; stroke-width: 3px; opacity: 1;"/></g><g class="points"/><g class="text"/></g></g></g><g class="overplot"/><path class="xlines-above crisp" d="M0,0" style="fill: none;"/><path class="ylines-above crisp" d="M74,50V310" style="fill: none; stroke-width: 2px; stroke: rgb(0, 0, 0); stroke-opacity: 1;"/><g class="overlines-above"/><g class="xaxislayer-above"><g class="xtick"><text text-anchor="middle" x="0" y="330" transform="translate(158.04000000000002,0)" style="font-family: 'Open Sans', verdana, arial, sans-serif; font-size: 19px; fill: rgb(42, 63, 95); fill-opacity: 1; white-space: pre; opacity: 1;"><tspan class="line" dy="0em" x="0" y="330">May 31</tspan><tspan class="line" dy="1.3em" x="0" y="330">2019</tspan></text></g><g class="xtick"><text text-anchor="middle" x="0" y="330" style="font-family: 'Open Sans', verdana, arial, sans-serif; font-size: 19px; fill: rgb(42, 63, 95); fill-opacity: 1; white-space: pre; opacity: 1;" transform="translate(268.75,0)">Jun 1</text></g><g class="xtick"><text text-anchor="middle" x="0" y="330" style="font-family: 'Open Sans', verdana, arial, sans-serif; font-size: 19px; fill: rgb(42, 63, 95); fill-opacity: 1; white-space: pre; opacity: 1;" transform="translate(379.46,0)">Jun 2</text></g><g class="xtick"><text text-anchor="middle" x="0" y="330" style="font-family: 'Open Sans', verdana, arial, sans-serif; font-size: 19px; fill: rgb(42, 63, 95); fill-opacity: 1; white-space: pre; opacity: 1;" transform="translate(490.18,0)">Jun 3</text></g><g class="xtick"><text text-anchor="middle" x="0" y="330" style="font-family: 'Open Sans', verdana, arial, sans-serif; font-size: 19px; fill: rgb(42, 63, 95); fill-opacity: 1; white-space: pre; opacity: 1;" transform="translate(600.89,0)">Jun 4</text></g><g class="xtick"><text text-anchor="middle" x="0" y="330" style="font-family: 'Open Sans', verdana, arial, sans-serif; font-size: 19px; fill: rgb(42, 63, 95); fill-opacity: 1; white-space: pre; opacity: 1;" transform="translate(711.61,0)">Jun 5</text></g><g class="xtick"><text text-anchor="middle" x="0" y="330" style="font-family: 'Open Sans', verdana, arial, sans-serif; font-size: 19px; fill: rgb(42, 63, 95); fill-opacity: 1; white-space: pre; opacity: 1;" transform="translate(822.32,0)">Jun 6</text></g></g><g class="yaxislayer-above"><g class="ytick"><text text-anchor="end" x="69.2" y="6.6499999999999995" transform="translate(0,275.37)" style="font-family: 'Open Sans', verdana, arial, sans-serif; font-size: 19px; fill: rgb(42, 63, 95); fill-opacity: 1; white-space: pre; opacity: 1;">−2</text></g><g class="ytick"><text text-anchor="end" x="69.2" y="6.6499999999999995" style="font-family: 'Open Sans', verdana, arial, sans-serif; font-size: 19px; fill: rgb(42, 63, 95); fill-opacity: 1; white-space: pre; opacity: 1;" transform="translate(0,225.03)">−1</text></g><g class="ytick"><text text-anchor="end" x="69.2" y="6.6499999999999995" style="font-family: 'Open Sans', verdana, arial, sans-serif; font-size: 19px; fill: rgb(42, 63, 95); fill-opacity: 1; white-space: pre; opacity: 1;" transform="translate(0,174.68)">0</text></g><g class="ytick"><text text-anchor="end" x="69.2" y="6.6499999999999995" style="font-family: 'Open Sans', verdana, arial, sans-serif; font-size: 19px; fill: rgb(42, 63, 95); fill-opacity: 1; white-space: pre; opacity: 1;" transform="translate(0,124.33)">1</text></g><g class="ytick"><text text-anchor="end" x="69.2" y="6.6499999999999995" style="font-family: 'Open Sans', verdana, arial, sans-serif; font-size: 19px; fill: rgb(42, 63, 95); fill-opacity: 1; white-space: pre; opacity: 1;" transform="translate(0,73.99)">2</text></g></g><g class="overaxes-above"/></g></g><g class="polarlayer"/><g class="ternarylayer"/><g class="geolayer"/><g class="funnelarealayer"/><g class="pielayer"/><g class="iciclelayer"/><g class="treemaplayer"/><g class="sunburstlayer"/><g class="glimages"/><defs id="topdefs-6c388c"><g class="clips"/></defs><g class="layer-above"><g class="imagelayer"/><g class="shapelayer"/></g><g class="infolayer"><g class="g-gtitle"/><g class="g-xtitle"/><g class="g-ytitle" transform="translate(12.537109375,0)"><text class="ytitle" transform="rotate(-90,10.462500000000006,180)" x="10.462500000000006" y="180" text-anchor="middle" style="font-family: 'Open Sans', verdana, arial, sans-serif; font-size: 23px; fill: rgb(42, 63, 95); opacity: 1; font-weight: normal; white-space: pre;">Netload [kW]</text></g></g></svg>