<svg class="main-svg" xmlns="http://www.w3.org/2000/svg" xmlns:xlink="http://www.w3.org/1999/xlink" width="900" height="400" viewBox="0 0 900 400"><rect x="0" y="0" width="900" height="400" style="fill: rgb(255, 255, 255); fill-opacity: 1;"/><defs id="defs-75fb3f"><g class="clips"><clipPath id="clip75fb3fxyplot" class="plotclip"><rect width="775" height="260"/></clipPath><clipPath class="axesclip" id="clip75fb3fx"><rect x="75" y="0" width="775" height="400"/></clipPath><clipPath class="axesclip" id="clip75fb3fy"><rect x="0" y="50" width="900" height="260"/></clipPath><clipPath class="axesclip" id="clip75fb3fxy"><rect x="75" y="50" width="775" height="260"/></clipPath></g><g class="gradients"/><g class="patterns"/></defs><g class="bglayer"/><g class="layer-below"><g class="imagelayer"/><g class="shapelayer"/></g><g class="cartesianlayer"><g class="subplot xy"><g class="layer-subplot"><g class="shapelayer"/><g class="imagelayer"/></g><g class="gridlayer"><g class="x"><path class="xgrid crisp" transform="translate(158.04000000000002,0)" d="M0,50v260" style="stroke: rgb(235, 240, 248); stroke-opacity: 1; stroke-width: 1px;"/><path class="xgrid crisp" transform="translate(268.75,0)" d="M0,50v260" style="stroke: rgb(235, 240, 248); stroke-opacity: 1; stroke-width: 1px;"/><path class="xgrid crisp" transform="translate(379.46,0)" d="M0,50v260" style="stroke: rgb(235, 240, 248); stroke-opacity: 1; stroke-width: 1px;"/><path class="xgrid crisp" transform="translate(490.18,0)" d="M0,50v260" style="stroke: rgb(235, 240, 248); stroke-opacity: 1; stroke-width: 1px;"/><path class="xgrid crisp" transform="translate(600.89,0)" d="M0,50v260" style="stroke: rgb(235, 240, 248); stroke-opacity: 1; stroke-width: 1px;"/><path class="xgrid crisp" transform="translate(711.61,0)" d="M0,50v260" style="stroke: rgb(235, 240, 248); stroke-opacity: 1; stroke-width: 1px;"/><path class="xgrid crisp" transform="translate(822.32,0)" d="M0,50v260" style="stroke: rgb(235, 240, 248); stroke-opacity: 1; stroke-width: 1px;"/></g><g class="y"><path class="ygrid crisp" transform="translate(0,284.98)" d="M75,0h775" style="stroke: rgb(235, 240, 248); stroke-opacity: 1; stroke-width: 1px;"/><path class="ygrid crisp" transform="translate(0,161.53)" d="M75,0h775" style="stroke: rgb(235, 240, 248); stroke-opacity: 1; stroke-width: 1px;"/><path class="ygrid crisp" transform="translate(0,99.8)" d="M75,0h775" style="stroke: rgb(235, 240, 248); stroke-opacity: 1; stroke-width: 1px;"/></g></g><g class="zerolinelayer"><path class="yzl zl crisp" transform="translate(0,223.25)" d="M75,0h775" style="stroke: rgb(0, 0, 0); stroke-opacity: 1; stroke-width: 2px;"/></g><path class="xlines-below"/><path class="ylines-below"/><g class="overlines-below"/><g class="xaxislayer-below"/><g class="yaxislayer-below"/><g class="overaxes-below"/><g class="plot" transform="translate(75,50)" clip-path="url(#clip75fb3fxyplot)"><g class="scatterlayer mlayer"><g class="trace scatter trace0e8eeb" style="stroke-miterlimit: 2; opacity: 1;"><g class="fills"/><g class="errorbars"/><g class="lines"><path class="js-line" d="M0,178.07L1.15,174.34L2.31,192.57L3.46,194.98L4.61,189.97L6.92,213.05L8.07,214.22L10.38,225.65L11.53,227.48L12.69,226.19L13.84,233.91L14.99,233.56L16.15,234.23L17.3,234.14L18.45,236.37L19.61,241.04L20.76,240.84L21.91,238.9L23.07,240.2L24.22,247L25.37,233.26L26.53,233.78L27.68,227.26L28.83,237.15L29.99,229.43L31.14,231.1L32.29,227.03L33.44,227.63L34.6,194.13L35.75,221.48L36.9,225.24L39.21,208.55L40.36,207.17L47.28,179.35L48.44,178.2L49.59,174.95L50.74,173.95L51.9,174.16L53.05,172.98L54.2,171.52L55.36,162.72L56.51,165.4L57.66,166.12L59.97,158.85L61.12,158.22L62.28,165.04L63.43,154.89L65.74,166.53L66.89,166.2L68.04,152.22L69.2,148.62L70.35,168.48L71.5,157.9L73.81,143.51L74.96,145.46L76.12,112.77L77.27,154.41L78.42,163.16L79.58,164.78L80.73,152.12L81.88,150.98L83.04,156.86L84.19,167.72L85.34,167.7L86.5,165.88L87.65,162.27L88.8,162.14L89.96,165.42L91.11,164.01L92.26,160.5L93.42,159.92L94.57,158.83L95.72,159.48L98.03,151.82L99.18,164.46L101.49,170.12L102.64,162.09L106.1,172.66L107.25,171.19L108.41,177.77L109.56,178.72L110.71,164.4L111.87,169.26L114.17,185.8L115.33,190.91L116.48,205.14L117.63,207.97L118.79,210.22L119.94,209.34L121.09,207.61L122.25,164.21L123.4,218L124.55,231.26L125.71,231.97L126.86,225.83L128.01,230.94L129.17,231.46L130.32,222.9L131.47,220.89L132.63,238.53L133.78,239.94L134.93,244.12L136.09,243.3L137.24,241.87L138.39,244.92L139.55,240.54L140.7,222.65L141.85,227.08L143.01,227.36L144.16,233.33L145.31,223.37L146.47,226.61L147.62,219.86L148.77,216.85L149.93,218.53L151.08,217.62L152.23,208.64L153.39,201.64L154.54,188.5L155.69,191.97L156.85,191.35L159.15,180.08L160.31,179.85L162.61,160.74L163.76,58.4L164.92,60.43L166.07,159.82L167.22,155.97L168.38,155.49L169.53,142.32L170.68,170.17L171.84,169.55L172.99,163.13L174.14,157.02L175.3,167.32L176.45,150.63L177.6,167.18L178.76,164.58L179.91,165.76L181.06,165.22L182.22,155.04L183.37,165.44L184.52,162.05L185.68,166.59L186.83,164.01L189.14,169.7L190.29,167.59L191.44,149.32L192.6,160.3L193.75,168.4L194.9,165.47L197.21,156.32L198.36,155.13L200.67,169.14L201.82,165.44L202.98,166.72L204.13,169.2L206.44,144.28L207.59,166.41L208.74,168.02L209.9,165.57L212.2,164.67L213.36,166.43L214.51,164.59L215.66,171.17L216.82,169.27L217.97,171.95L219.12,175.7L220.28,159.61L221.43,163.27L222.58,172.01L223.74,148.87L224.89,178.3L226.04,199.09L227.19,198.04L228.35,197.95L229.5,206.51L231.81,194.91L232.96,178.74L234.11,206.69L235.27,199.82L236.42,223.54L237.57,210.99L238.73,195.48L239.88,230.33L241.03,231.31L242.19,233.55L243.34,238.11L244.49,239.09L245.65,212.91L246.8,232.89L247.95,227.57L249.11,213.14L250.26,200.22L251.41,230.43L252.57,234.04L253.72,234.01L254.87,231.55L256.03,219.47L257.18,226.8L258.33,227.21L259.49,220.01L260.64,220.5L262.95,213.77L264.1,205.87L266.41,192.81L267.56,175.61L268.71,96.36L269.87,153.96L271.02,167.89L272.17,128.6L273.33,79L274.48,167.78L275.63,150.94L276.79,36.16L279.09,152.67L280.25,150.08L281.4,134.89L282.55,144.46L283.71,164.06L284.86,165.52L286.01,163.61L287.17,164.84L288.32,158.74L289.47,148.16L291.78,166.81L292.93,110.07L294.08,163.19L295.24,167.34L296.39,168.62L297.54,165.41L298.7,165.98L299.85,164.5L302.16,80.04L303.31,144.7L304.46,159.47L305.62,149.15L306.77,147.97L307.92,162.86L310.23,165.46L311.38,169.66L312.54,171.12L313.69,169.6L316,166.53L317.15,169.89L319.46,169.93L320.61,164L321.76,165.24L322.92,169.4L324.07,171.86L325.22,169.03L327.53,158.19L328.68,170.02L330.99,159.5L332.14,138.71L333.3,146.75L334.45,180.87L335.6,187.41L336.76,198.67L337.91,195.3L339.06,200.34L340.22,202.32L341.37,198.35L343.68,211.28L344.83,212.76L345.98,197.88L347.14,208.93L349.44,200.58L350.6,164.83L351.75,153.52L352.9,207.64L355.21,229.1L356.36,223.74L357.51,221.56L358.67,228.73L359.82,232.06L360.97,228.36L362.13,207.78L363.28,208.48L366.74,215.78L367.89,210.16L369.05,208.24L370.2,211.48L371.35,210.74L372.51,200.88L373.66,197L374.81,198.06L377.12,191.4L378.27,174.67L380.58,176.15L381.73,131.37L382.89,117.7L384.04,163.25L385.19,170.92L386.35,156.74L388.65,173.83L389.81,170.75L392.11,157.77L393.27,165.59L394.42,167.09L395.57,160.1L396.73,154.8L397.88,160L399.03,166.34L400.19,141.42L402.49,97.33L403.65,150.05L404.8,156.71L405.95,153.18L407.11,153.8L408.26,151.33L410.57,99.05L411.72,153.3L412.87,150.18L414.03,108.4L416.33,164.81L417.49,165.8L418.64,154.14L419.79,163.27L420.94,169.34L422.1,162.91L423.25,164.94L424.4,160.62L425.56,133.66L426.71,135.18L429.02,145.04L430.17,164.34L431.32,163.42L432.48,169.15L433.63,169.58L434.78,168.76L435.94,163.88L437.09,142.4L439.4,174.1L440.55,170.09L441.7,169.83L442.86,168.5L444.01,182.53L445.16,112.25L446.32,128.67L447.47,188.92L448.62,190.1L449.78,197.11L450.93,208.83L452.08,196.26L453.24,191.89L454.39,204.08L455.54,222.1L456.7,225.6L457.85,228.75L459,213.02L460.16,206.44L461.31,212.56L462.46,217.14L463.62,225.51L464.77,218.9L465.92,221.94L467.08,108.97L468.23,211.68L469.38,223.32L470.54,202.9L472.84,163.09L474,209.64L475.15,201.65L476.3,216.17L477.46,217.6L478.61,223.57L480.92,200.18L482.07,206.28L484.38,185.16L485.53,189.64L486.68,197.6L487.83,153.45L488.99,176.15L490.14,178.58L491.29,166.85L492.45,109.75L495.91,173.68L497.06,155.07L498.21,163.65L499.37,161.56L500.52,159.76L501.67,166.46L502.83,166.12L503.98,162.24L505.13,165.24L506.29,158.43L507.44,142L508.59,77.92L509.75,147.34L510.9,133.92L512.05,13L513.21,29.1L515.51,155.06L516.67,151.13L517.82,36.09L518.97,155.68L520.13,154.33L521.28,158.41L522.43,160.52L523.59,160.67L524.74,169.63L525.89,160.41L527.05,78.34L528.2,142.91L529.35,153.01L530.51,155.99L531.66,116.8L532.81,151.88L533.97,167.93L535.12,162.39L536.27,85.29L537.43,130.46L538.58,166.3L539.73,171.02L542.04,155.57L543.19,154.91L544.35,156.75L545.5,142.27L546.65,166.77L547.81,151.55L550.11,167.43L551.26,168.64L553.57,167.72L554.72,161.87L555.88,171.33L557.03,172.49L558.18,168.28L559.34,169.39L560.49,161.85L561.64,175.62L562.8,171.08L563.95,145.63L565.1,135.73L566.26,168.19L567.41,168.06L568.56,107.01L569.72,158.53L570.87,82.87L572.02,89.73L573.18,131.66L574.33,135.75L575.48,126.84L576.64,156.7L577.79,150.85L578.94,162.8L580.1,146.65L581.25,115.14L582.4,159.94L583.56,166.13L584.71,164.37L585.86,177.51L587.02,174.43L588.17,170.44L589.32,175L591.63,175.2L592.78,178.33L593.94,181.16L595.09,181.24L597.4,175.88L598.55,178.18L600.86,176.4L602.01,169.96L603.16,176.96L604.32,168.36L606.62,174.46L607.78,170.88L608.93,170.93L610.08,168.57L611.24,164.36L612.39,156.07L613.54,162.15L614.69,164.19L615.85,161.08L617,153.03L618.15,160L619.31,158L620.46,159.22L621.61,164.52L622.77,105.05L623.92,159.57L625.07,159.8L626.23,157.73L627.38,166.17L628.53,162.31L629.69,159.29L630.84,160.4L631.99,167.22L633.15,168.08L634.3,167.76L635.45,162.59L636.61,168.56L637.76,164.61L638.91,169.94L640.07,163.83L641.22,165.42L642.37,169.44L643.53,168.03L644.68,115.76L646.99,153.51L648.14,138.44L649.29,160.06L650.45,160.5L651.6,109.93L652.75,155.5L653.91,155.11L655.06,167.4L656.21,164.24L657.37,153.75L658.52,168.52L659.67,171.37L663.13,180.94L664.29,182.79L665.44,177.51L666.59,190.07L667.75,191.98L668.9,198.13L670.05,205.02L671.21,204.47L674.67,221L675.82,223.06L680.43,233.79L681.58,234.23L682.74,223.91L683.89,232.11L685.04,234.82L686.2,232.46L687.35,241.48L688.5,229.66L690.81,239.64L691.96,238.72L693.12,237.08L694.27,228.58L695.42,225.36L696.58,231.79L697.73,221.43L698.88,231.64L701.19,227.68L702.34,221.36L704.65,211.31L705.8,201.57L706.96,177.92L708.11,193.81L710.42,170.87L711.57,176.14L712.72,160.28L713.88,162.65L715.03,131.28L716.18,168.87L717.34,156.25L718.49,119.94L720.8,167.99L721.95,149.29L723.1,154.95L724.26,126.18L726.56,161.78L727.72,162.05L728.87,153.71L730.02,165.29L731.18,169.31L732.33,154.51L733.48,41.64L734.64,132.42L735.79,145.8L736.94,109.1L738.1,154.77L739.25,164.69L740.4,168.86L741.56,160.77L742.71,167.94L743.86,162.21L745.01,168.6L746.17,168.02L747.32,168.91L748.47,171.79L749.63,171.33L750.78,168.22L753.09,170.78L754.24,172.21L755.39,165.62L756.55,168.27L757.7,169.88L758.85,167.91L761.16,157.15L762.31,163.58L763.47,169.15L764.62,166.18L766.93,172.4L768.08,171.71L769.23,175.24L770.39,171.62L771.54,173.2L772.69,178.28L773.85,182.09L775,180.99" style="vector-effect: non-scaling-stroke; fill: none; stroke: rgb(76, 120, 168); stroke-opacity: 1; stroke-width: 3px; opacity: 1;"/></g><g class="points"/><g class="text"/></g><g class="trace scatter trace50c008" style="stroke-miterlimit: 2; opacity: 1;"><g class="fills"/><g class="errorbars"/><g class="lines"><path class="js-line" d="M0,174.36L1.15,173.48L2.31,176.32L3.46,179.93L4.61,192.06L6.92,205.21L8.07,209.43L10.38,216.04L11.53,217.85L12.69,218.59L13.84,218.34L17.3,216.4L18.45,222.93L19.61,225.65L20.76,226.03L21.91,225.79L23.07,230.58L24.22,232.04L25.37,231.7L26.53,230.55L27.68,234.36L28.83,235.05L29.99,233.92L31.14,232.2L32.29,235.15L33.44,235.04L34.6,233.12L36.9,227.94L38.06,223.24L47.28,177.6L48.44,174.56L49.59,172.37L50.74,162.95L51.9,158.68L53.05,157.66L54.2,158.09L55.36,160.24L58.82,168.17L59.97,162.02L61.12,160.62L62.28,162.43L63.43,164.99L64.58,156.25L65.74,153.54L66.89,154.33L68.04,156.53L69.2,152.64L70.35,151.89L71.5,152.82L72.66,154.29L73.81,151.46L76.12,150.12L77.27,149.94L79.58,156.57L80.73,156.64L81.88,156.02L83.04,159.37L84.19,160.14L85.34,159.36L86.5,157.71L87.65,161.51L88.8,162.39L89.96,161.42L91.11,159.88L92.26,159.99L95.72,156.8L96.88,160.75L99.18,163.02L100.33,163.38L102.64,164.64L103.79,166.04L104.95,167.56L106.1,165.65L107.25,166.47L108.41,168.9L109.56,171.96L110.71,167.17L111.87,167.33L113.02,170.35L114.17,174.21L115.33,186.26L117.63,199.16L118.79,203.18L121.09,209.56L122.25,211.24L123.4,211.93L124.55,211.63L128.01,209.62L129.17,216.1L130.32,218.85L131.47,219.31L132.63,219.16L133.78,224.06L134.93,225.47L136.09,224.99L137.24,223.69L138.39,227.32L139.55,228L140.7,226.95L141.85,225.35L143.01,228.42L144.16,228.43L145.31,226.64L148.77,218.21L149.93,214.25L155.69,193.49L156.85,185.82L160.31,171.55L161.46,160.36L163.76,153.04L164.92,152.74L167.22,156.29L168.38,158.52L169.53,161.26L170.68,154.84L171.84,153.24L172.99,154.88L174.14,157.27L175.3,148.37L176.45,145.52L177.6,146.19L178.76,148.3L179.91,144.32L181.06,143.52L182.22,144.41L183.37,145.85L184.52,143L186.83,141.65L187.98,141.47L190.29,148.13L191.44,148.21L192.6,147.62L193.75,151L194.9,151.81L196.06,151.07L197.21,149.45L198.36,153.3L199.52,154.23L200.67,153.32L201.82,151.83L202.98,152.01L206.44,149.02L207.59,153.04L209.9,155.46L211.05,155.91L213.36,157.3L214.51,158.75L215.66,160.3L216.82,158.42L217.97,159.32L219.12,161.84L220.28,165L221.43,157.67L224.89,168.29L226.04,180.98L228.35,194.5L229.5,197.8L231.81,204.34L232.96,205.63L234.11,206.19L235.27,205.83L238.73,200.46L239.88,205.56L241.03,208L242.19,208.62L243.34,208.83L244.49,214.23L245.65,216.1L246.8,216.07L247.95,215.24L249.11,219.29L250.26,220.29L251.41,219.52L252.57,218.16L253.72,221.49L254.87,221.8L256.03,220.34L259.49,213.1L260.64,209.58L266.41,190.72L267.56,183.35L271.02,170.09L272.17,159.26L273.33,154.12L274.48,152.53L275.63,152.5L276.79,154.26L280.25,161.54L281.4,155.14L282.55,153.63L283.71,155.4L284.86,157.92L286.01,149.15L287.17,146.44L288.32,147.25L289.47,149.5L290.63,145.65L291.78,144.97L292.93,145.99L294.08,147.54L295.24,144.81L297.54,143.68L298.7,143.62L301,150.5L302.16,150.69L303.31,150.2L304.46,153.69L305.62,154.6L306.77,153.96L307.92,152.44L309.08,156.4L310.23,157.42L311.38,156.6L312.54,155.21L313.69,155.47L317.15,152.73L318.3,156.84L320.61,159.42L321.76,159.94L324.07,161.51L325.22,163.09L326.38,164.78L327.53,163.04L328.68,164L329.84,166.54L330.99,169.7L332.14,165.02L333.3,165.23L334.45,168.29L335.6,172.18L336.76,184.26L339.06,195.86L340.22,198.97L341.37,202.01L342.52,202.74L343.68,202.39L344.83,200.91L349.44,191.51L350.6,196.53L354.06,207.74L355.21,216.51L356.36,219.51L357.51,219.42L358.67,218.08L359.82,221.38L360.97,220.58L362.13,217.52L363.28,213.67L364.43,214.51L365.59,213.78L366.74,212.04L375.97,194.77L377.12,191.74L379.43,180.54L380.58,177.03L381.73,174.12L382.89,163.96L385.19,157.28L386.35,157.06L388.65,160.73L389.81,163.06L390.96,165.9L392.11,159.58L393.27,158.13L394.42,159.94L395.57,162.5L396.73,153.74L397.88,151.03L399.03,151.83L400.19,154.05L401.34,150.17L402.49,149.46L403.65,150.43L404.8,151.95L405.95,149.19L408.26,148L409.41,147.9L411.72,154.71L412.87,154.86L414.03,154.33L415.18,157.78L416.33,158.65L417.49,157.97L418.64,156.41L419.79,160.32L420.94,161.3L422.1,160.44L423.25,159L424.4,159.22L427.86,156.36L429.02,160.42L431.32,162.92L432.48,163.39L434.78,164.91L435.94,166.47L437.09,168.15L438.24,166.4L439.4,167.32L440.55,169.79L441.7,172.88L442.86,167.05L444.01,167.8L445.16,171.71L446.32,174.76L447.47,187.11L449.78,200.36L450.93,204.39L453.24,211.08L454.39,212.99L455.54,213.93L456.7,213.65L460.16,211.24L461.31,217.54L462.46,219.97L463.62,220.08L464.77,219.58L465.92,224.1L467.08,225.35L468.23,224.84L469.38,223.54L470.54,227.19L471.69,227.77L472.84,226.53L474,224.71L475.15,227.56L476.3,227.37L477.46,225.4L484.38,207.5L485.53,203.06L487.83,192.33L488.99,183.44L491.29,175.61L492.45,173.88L494.75,160.75L495.91,159.27L497.06,159.14L498.21,160.61L501.67,167.46L502.83,161.02L503.98,159.49L505.13,161.24L506.29,163.81L507.44,155.08L508.59,152.4L509.75,153.21L510.9,155.44L512.05,151.55L513.21,150.82L514.36,151.78L515.51,153.27L516.67,150.48L518.97,149.24L520.13,149.12L522.43,155.89L523.59,156.02L524.74,155.48L525.89,158.91L527.05,159.76L528.2,159.05L529.35,157.47L530.51,161.36L531.66,162.32L532.81,161.44L533.97,159.98L535.12,160.17L538.58,157.25L539.73,161.28L542.04,163.73L543.19,164.19L546.65,166.3L547.81,167.36L548.96,164.94L550.11,164.62L552.42,167.03L553.57,160.58L554.72,158.07L555.88,157.91L557.03,158.36L558.18,166.92L560.49,173.72L561.64,174.81L562.8,175.92L563.95,175.92L565.1,175.43L566.26,174.04L568.56,168.45L569.72,164.75L570.87,161.07L572.02,164.43L573.18,164.17L574.33,161.69L575.48,158.62L576.64,160.65L577.79,160.94L578.94,160.25L580.1,159.1L581.25,163.06L582.4,164.31L583.56,163.93L584.71,163.07L585.86,166.88L587.02,168.08L588.17,167.72L590.48,165.96L591.63,165.8L593.94,166.35L595.09,167.56L597.4,166.95L598.55,166.36L600.86,160.75L602.01,160.87L603.16,161.71L604.32,155.4L605.47,152.5L606.62,151.98L607.78,152.61L608.93,154.81L612.39,163.27L613.54,157.28L614.69,156.17L615.85,158.29L617,161.17L618.15,152.7L619.31,150.22L620.46,151.21L621.61,153.57L622.77,149.78L623.92,149.13L625.07,150.16L626.23,151.71L627.38,148.97L629.69,147.81L630.84,147.72L633.15,154.54L634.3,154.69L635.45,154.16L636.61,157.6L637.76,158.46L638.91,157.76L640.07,156.19L641.22,160.08L642.37,161.05L643.53,160.17L644.68,158.72L645.83,158.92L649.29,156.01L650.45,160.06L652.75,162.53L653.91,163L656.21,164.42L657.37,165.88L658.52,167.44L659.67,165.56L660.83,166.49L661.98,169.06L663.13,172.28L664.29,170.35L665.44,169.67L666.59,170.53L667.75,174.13L668.9,185.99L671.21,198.86L672.36,203.1L674.67,209.3L675.82,210.68L676.97,210.83L678.13,209.99L681.58,207.85L682.74,214.49L683.89,217.18L685.04,217.46L686.2,217.07L687.35,221.72L688.5,223.07L689.66,222.63L690.81,221.4L691.96,225.14L693.12,226.01L694.27,225.19L695.42,223.85L696.58,227.2L697.73,227.59L698.88,226.22L702.34,219.22L703.5,215.79L709.26,197.37L710.42,190.08L713.88,176.82L715.03,165.98L716.18,160.82L717.34,159.22L718.49,159.18L719.64,160.93L723.1,168.33L724.26,161.99L725.41,160.51L726.56,162.28L727.72,164.8L728.87,156.03L730.02,153.31L731.18,154.11L732.33,156.34L733.48,152.49L734.64,151.8L735.79,152.8L736.94,154.34L738.1,151.61L740.4,150.45L741.56,150.38L743.86,157.23L745.01,157.4L746.17,156.9L747.32,160.37L748.47,161.26L749.63,160.61L750.78,159.07L751.93,163.01L753.09,164.01L754.24,163.17L755.39,161.76L756.55,162L760.01,159.21L761.16,163.29L763.47,165.83L764.62,166.33L766.93,167.9L768.08,169.51L769.23,171.25L770.39,169.55L771.54,170.43L772.69,172.83L773.85,175.82L775,170.95" style="vector-effect: non-scaling-stroke; fill: none; stroke: rgb(255, 127, 14); stroke-opacity: 0.7; stroke-width: 3px; opacity: 1;"/></g><g class="points"/><g class="text"/></g></g></g><g class="overplot"/><path class="xlines-above crisp" d="M0,0" style="fill: none;"/><path class="ylines-above crisp" d="M74,50V310" style="fill: none; stroke-width: 2px; stroke: rgb(0, 0, 0); stroke-opacity: 1;"/><g class="overlines-above"/><g class="xaxislayer-above"><g class="xtick"><text text-anchor="middle" x="0" y="330" transform="translate(158.04000000000002,0)" style="font-family: 'Open Sans', verdana, arial, sans-serif; font-size: 19px; fill: rgb(42, 63, 95); fill-opacity: 1; white-space: pre; opacity: 1;"><tspan class="line" dy="0em" x="0" y="330">May 31</tspan><tspan class="line" dy="1.3em" x="0" y="330">2019</tspan></text></g><g class="xtick"><text text-anchor="middle" x="0" y="330" style="font-family: 'Open Sans', verdana, arial, sans-serif; font-size: 19px; fill: rgb(42, 63, 95); fill-opacity: 1; white-space: pre; opacity: 1;" transform="translate(268.75,0)">Jun 1</text></g><g class="xtick"><text text-anchor="middle" x="0" y="330" style="font-family: 'Open Sans', verdana, arial, sans-serif; font-size: 19px; fill: rgb(42, 63, 95); fill-opacity: 1; white-space: pre; opacity: 1;" transform="translate(379.46,0)">Jun 2</text></g><g class="xtick"><text text-anchor="middle" x="0" y="330" style="font-family: 'Open Sans', verdana, arial, sans-serif; font-size: 19px; fill: rgb(42, 63, 95); fill-opacity: 1; white-space: pre; opacity: 1;" transform="translate(490.18,0)">Jun 3</text></g><g class="xtick"><text text-anchor="middle" x="0" y="330" style="font-family: 'Open Sans', verdana, arial, sans-serif; font-size: 19px; fill: rgb(42, 63, 95); fill-opacity: 1; white-space: pre; opacity: 1;" transform="translate(600.89,0)">Jun 4</text></g><g class="xtick"><text text-anchor="middle" x="0" y="330" style="font-family: 'Open Sans', verdana, arial, sans-serif; font-size: 19px; fill: rgb(42, 63, 95); fill-opacity: 1; white-space: pre; opacity: 1;" transform="translate(711.61,0)">Jun 5</text></g><g class="xtick"><text text-anchor="middle" x="0" y="330" style="font-family: 'Open Sans', verdana, arial, sans-serif; font-size: 19px; fill: rgb(42, 63, 95); fill-opacity: 1; white-space: pre; opacity: 1;" transform="translate(822.32,0)">Jun 6</text></g></g><g class="yaxislayer-above"><g class="ytick"><text text-anchor="end" x="69.2" y="6.6499999999999995" transform="translate(0,284.98)" style="font-family: 'Open Sans', verdana, arial, sans-serif; font-size: 19px; fill: rgb(42, 63, 95); fill-opacity: 1; white-space: pre; opacity: 1;">−2</text></g><g class="ytick"><text text-anchor="end" x="69.2" y="6.6499999999999995" style="font-family: 'Open Sans', verdana, arial, sans-serif; font-size: 19px; fill: rgb(42, 63, 95); fill-opacity: 1; white-space: pre; opacity: 1;" transform="translate(0,223.25)">0</text></g><g class="ytick"><text text-anchor="end" x="69.2" y="6.6499999999999995" style="font-family: 'Open Sans', verdana, arial, sans-serif; font-size: 19px; fill: rgb(42, 63, 95); fill-opacity: 1; white-space: pre; opacity: 1;" transform="translate(0,161.53)">2</text></g><g class="ytick"><text text-anchor="end" x="69.2" y="6.6499999999999995" style="font-family: 'Open Sans', verdana, arial, sans-serif; font-size: 19px; fill: rgb(42, 63, 95); fill-opacity: 1; white-space: pre; opacity: 1;" transform="translate(0,99.8)">4</text></g></g><g class="overaxes-above"/></g></g><g class="polarlayer"/><g class="ternarylayer"/><g class="geolayer"/><g class="funnelarealayer"/><g class="pielayer"/><g class="iciclelayer"/><g class="treemaplayer"/><g class="sunburstlayer"/><g class="glimages"/><defs id="topdefs-75fb3f"><g class="clips"/></defs><g class="layer-above"><g class="imagelayer"/><g class="shapelayer"/></g><g class="infolayer"><g class="g-gtitle"/><g class="g-xtitle"/><g class="g-ytitle" transform="translate(12.537109375,0)"><text class="ytitle" transform="rotate(-90,10.462500000000006,180)" x="10.462500000000006" y="180" text-anchor="middle" style="font-family: 'Open Sans', verdana, arial, sans-serif; font-size: 23px; fill: rgb(42, 63, 95); opacity: 1; font-weight: normal; white-space: pre;">Netload [kW]</text></g></g></svg>