<svg class="main-svg" xmlns="http://www.w3.org/2000/svg" xmlns:xlink="http://www.w3.org/1999/xlink" width="900" height="400" viewBox="0 0 900 400"><rect x="0" y="0" width="900" height="400" style="fill: rgb(255, 255, 255); fill-opacity: 1;"/><defs id="defs-b4af28"><g class="clips"><clipPath id="clipb4af28xyplot" class="plotclip"><rect width="775" height="260"/></clipPath><clipPath class="axesclip" id="clipb4af28x"><rect x="75" y="0" width="775" height="400"/></clipPath><clipPath class="axesclip" id="clipb4af28y"><rect x="0" y="50" width="900" height="260"/></clipPath><clipPath class="axesclip" id="clipb4af28xy"><rect x="75" y="50" width="775" height="260"/></clipPath></g><g class="gradients"/><g class="patterns"/></defs><g class="bglayer"/><g class="layer-below"><g class="imagelayer"/><g class="shapelayer"/></g><g class="cartesianlayer"><g class="subplot xy"><g class="layer-subplot"><g class="shapelayer"/><g class="imagelayer"/></g><g class="gridlayer"><g class="x"><path class="xgrid crisp" transform="translate(158.04000000000002,0)" d="M0,50v260" style="stroke: rgb(235, 240, 248); stroke-opacity: 1; stroke-width: 1px;"/><path class="xgrid crisp" transform="translate(268.75,0)" d="M0,50v260" style="stroke: rgb(235, 240, 248); stroke-opacity: 1; stroke-width: 1px;"/><path class="xgrid crisp" transform="translate(379.46,0)" d="M0,50v260" style="stroke: rgb(235, 240, 248); stroke-opacity: 1; stroke-width: 1px;"/><path class="xgrid crisp" transform="translate(490.18,0)" d="M0,50v260" style="stroke: rgb(235, 240, 248); stroke-opacity: 1; stroke-width: 1px;"/><path class="xgrid crisp" transform="translate(600.89,0)" d="M0,50v260" style="stroke: rgb(235, 240, 248); stroke-opacity: 1; stroke-width: 1px;"/><path class="xgrid crisp" transform="translate(711.61,0)" d="M0,50v260" style="stroke: rgb(235, 240, 248); stroke-opacity: 1; stroke-width: 1px;"/><path class="xgrid crisp" transform="translate(822.32,0)" d="M0,50v260" style="stroke: rgb(235, 240, 248); stroke-opacity: 1; stroke-width: 1px;"/></g><g class="y"><path class="ygrid crisp" transform="translate(0,274.40999999999997)" d="M75,0h775" style="stroke: rgb(235, 240, 248); stroke-opacity: 1; stroke-width: 1px;"/><path class="ygrid crisp" transform="translate(0,216.72)" d="M75,0h775" style="stroke: rgb(235, 240, 248); stroke-opacity: 1; stroke-width: 1px;"/><path class="ygrid crisp" transform="translate(0,101.36)" d="M75,0h775" style="stroke: rgb(235, 240, 248); stroke-opacity: 1; stroke-width: 1px;"/></g></g><g class="zerolinelayer"><path class="yzl zl crisp" transform="translate(0,159.04000000000002)" d="M75,0h775" style="stroke: rgb(0, 0, 0); stroke-opacity: 1; stroke-width: 2px;"/></g><path class="xlines-below"/><path class="ylines-below"/><g class="overlines-below"/><g class="xaxislayer-below"/><g class="yaxislayer-below"/><g class="overaxes-below"/><g class="plot" transform="translate(75,50)" clip-path="url(#clipb4af28xyplot)"><g class="scatterlayer mlayer"><g class="trace scatter trace003ba4" style="stroke-miterlimit: 2; opacity: 1;"><g class="fills"/><g class="errorbars"/><g class="lines"><path class="js-line" d="M0,132.18L8.07,192.28L9.23,200.42L10.38,205.21L11.53,213.59L14.99,230.17L16.15,233.79L19.61,244.28L20.76,246.04L21.91,247L23.07,246.23L24.22,239.08L25.37,246.13L26.53,209.2L27.68,236.75L28.83,123.78L29.99,220.72L31.14,232.5L32.29,221.97L33.44,221.96L34.6,174.44L35.75,186.34L36.9,207.12L42.67,152.23L43.82,144.83L46.13,126.43L47.28,121.46L48.44,121.19L49.59,113.09L50.74,102.68L51.9,112.19L53.05,106.31L54.2,109.34L55.36,109.46L56.51,106.99L58.82,103.34L59.97,103.7L61.12,101.34L62.28,103.76L63.43,104.09L64.58,102.35L65.74,104.81L66.89,98.58L68.04,91.12L69.2,102.42L70.35,97.19L71.5,98.36L72.66,103.02L73.81,102.86L76.12,107.01L77.27,107.48L78.42,104.84L79.58,106.82L80.73,106.49L81.88,105.15L83.04,107.54L84.19,107.89L85.34,106.63L86.5,107.09L88.8,107.33L89.96,103.31L91.11,106.45L92.26,106.87L93.42,104.1L94.57,107.45L95.72,102.42L96.88,106.54L98.03,106.95L99.18,77.78L100.33,106.85L101.49,105.88L107.25,114.73L108.41,121.59L110.71,129.71L111.87,140.44L115.33,167.22L116.48,168.63L118.79,188.39L119.94,195.28L122.25,211.17L123.4,214.66L125.71,217.91L126.86,226.64L128.01,232.55L129.17,230.79L130.32,225.32L131.47,243.59L132.63,246.25L133.78,243.54L134.93,246.87L136.09,243.22L137.24,245.71L138.39,233.53L139.55,226.23L140.7,235.74L141.85,229.52L143.01,236.9L145.31,214.87L146.47,219.9L147.62,210.05L148.77,209.14L149.93,190.05L151.08,194.24L153.39,173.52L154.54,172.43L155.69,158.92L156.85,154.52L159.15,131.83L160.31,129.2L161.46,116.4L162.61,116.86L163.76,115.15L164.92,110.03L166.07,106.04L167.22,108.24L168.38,105.34L169.53,107.54L171.84,103.64L172.99,102.47L174.14,99.09L175.3,103.5L176.45,99.92L177.6,105.02L178.76,104.67L179.91,94.39L181.06,101.58L182.22,102.23L183.37,103.74L184.52,103.75L186.83,105.85L187.98,107.92L189.14,107.21L190.29,105.41L191.44,100.52L192.6,102.33L196.06,106.95L197.21,106.91L198.36,107.64L199.52,105.42L200.67,107.15L201.82,104.36L202.98,103.42L204.13,98L205.28,88.95L206.44,105.66L207.59,107.58L208.74,107.75L209.9,107.33L211.05,105.33L213.36,105.55L214.51,94.71L215.66,109.08L216.82,109.2L219.12,122.3L220.28,124.66L223.74,147.73L224.89,158.65L231.81,204.16L232.96,211.05L234.11,217.02L235.27,217.71L236.42,219.14L237.57,215.4L238.73,220.26L239.88,221.75L241.03,224.47L242.19,230.07L243.34,231.98L244.49,237.22L245.65,226.55L246.8,239.29L249.11,233.86L250.26,236.47L251.41,234.96L252.57,228.4L253.72,227.71L254.87,224.32L256.03,219.1L257.18,202.97L258.33,201.22L259.49,194.93L260.64,190.45L261.79,190.39L264.1,177.85L265.25,169.52L267.56,153.45L268.71,143.89L272.17,118.55L273.33,116.87L275.63,109.12L276.79,106.26L277.94,103.73L279.09,97.25L280.25,100.7L281.4,95.19L282.55,103.82L283.71,104.23L286.01,103.25L287.17,102.33L288.32,99.39L289.47,84.95L290.63,101.91L291.78,104.82L294.08,107.29L295.24,105.26L296.39,106.72L297.54,106.76L301,107.61L302.16,105.75L305.62,107.48L306.77,104.25L309.08,107.66L310.23,105.71L311.38,105.58L312.54,106.53L313.69,102.58L314.84,106.95L316,106.23L317.15,107.25L320.61,108.32L321.76,107.17L325.22,108.53L326.38,112.13L327.53,111.95L328.68,117.61L332.14,130.49L333.3,138.62L336.76,164.28L337.91,169.26L339.06,174.06L340.22,164.02L341.37,182.93L342.52,180.1L343.68,190.59L344.83,191.67L345.98,187.07L347.14,193.7L348.29,189.86L349.44,194.41L350.6,196.62L351.75,195.4L352.9,217.73L354.06,223.23L355.21,238.12L356.36,237.01L357.51,228.94L358.67,232.56L360.97,219.53L362.13,213.43L363.28,175.02L364.43,194.12L365.59,191.45L366.74,185.24L367.89,178.72L369.05,178.06L370.2,180.7L371.35,177.67L373.66,173.6L374.81,168.5L375.97,159.61L377.12,157.01L378.27,151.26L379.43,141.46L380.58,137.92L381.73,131.18L384.04,119.96L385.19,119.57L387.5,108.52L388.65,109.43L389.81,110.62L390.96,109.57L393.27,105.93L394.42,105.86L395.57,105.2L396.73,103.42L397.88,103.97L399.03,103.37L400.19,100.08L401.34,105.97L402.49,101.29L403.65,105.37L404.8,105.69L405.95,102.36L407.11,108.27L408.26,98.81L410.57,104.8L411.72,105.14L412.87,104.66L414.03,105.67L415.18,108.05L416.33,104.03L417.49,103.64L418.64,104.91L419.79,103.16L420.94,76.97L422.1,105.39L423.25,104.78L425.56,106.42L426.71,104.39L427.86,106.1L429.02,105.91L430.17,107.23L431.32,104.07L432.48,107.91L433.63,107.15L434.78,106.93L435.94,110.16L437.09,107.84L438.24,110.67L439.4,102.5L440.55,116.64L441.7,124.97L442.86,126.81L448.62,175.87L449.78,183.57L455.54,217.28L456.7,222.58L457.85,223.87L459,231.42L461.31,238.77L462.46,239.36L463.62,240L464.77,241.9L465.92,240.74L467.08,242.07L468.23,239.28L469.38,239.56L470.54,237.27L471.69,215.44L472.84,228.99L474,223.66L475.15,217.34L476.3,216.97L477.46,208.36L478.61,206.14L482.07,192.36L483.22,183.16L484.38,183.28L485.53,171.72L488.99,132.93L490.14,132.15L492.45,124.06L493.6,122.57L495.91,113.4L497.06,112.14L498.21,112.72L499.37,108.95L500.52,106.21L501.67,105.73L502.83,102.38L503.98,104.8L508.59,106.53L509.75,106.11L510.9,106.16L512.05,103.72L513.21,103.02L514.36,107.17L515.51,102.96L516.67,103.22L517.82,99.59L518.97,105.51L520.13,106.28L521.28,100.98L522.43,105.77L523.59,97.7L524.74,94.06L525.89,105.34L527.05,93.2L528.2,103.7L529.35,100.66L530.51,105.31L532.81,105.96L533.97,106.17L535.12,107.4L536.27,106.6L537.43,103.34L538.58,107.15L540.89,105.45L542.04,107.39L543.19,107.35L544.35,106.06L546.65,103.57L547.81,102.71L548.96,105.94L550.11,102.67L551.26,100.06L552.42,106.37L555.88,112.03L557.03,113.52L559.34,115.64L560.49,115.39L561.64,113.18L562.8,122.94L563.95,125.45L565.1,130.29L567.41,136.27L568.56,133.75L572.02,123.88L573.18,122.69L574.33,120.89L575.48,112.84L576.64,76.41L577.79,110.15L578.94,114.4L580.1,112.8L581.25,112.5L582.4,108.91L583.56,102.97L584.71,109.36L585.86,116.43L587.02,117.09L588.17,108.76L589.32,115.55L590.48,109.1L591.63,113.7L592.78,120.98L593.94,123.05L595.09,123.75L596.24,122.34L598.55,121.29L599.7,119.38L600.86,111.17L602.01,110.46L603.16,108.58L604.32,113.79L605.47,116.31L606.62,113.3L607.78,112.64L608.93,109.68L610.08,98.52L611.24,105.63L612.39,101.04L613.54,13L614.69,96.49L615.85,101.03L617,98.1L618.15,101.4L620.46,100.81L621.61,106.56L622.77,105.23L623.92,101.94L625.07,100.14L626.23,92.4L627.38,106.16L628.53,105.16L631.99,107.84L633.15,105.68L634.3,104.48L635.45,104.98L636.61,105.12L637.76,106.16L638.91,100.76L640.07,101.01L641.22,100.81L642.37,90.95L643.53,102.56L644.68,58.31L645.83,102.14L646.99,104.92L648.14,101.21L649.29,102.23L650.45,104.77L651.6,103.01L652.75,106.04L653.91,105.39L656.21,101.13L657.37,107.5L658.52,86.74L659.67,107.87L660.83,111.76L661.98,118.5L663.13,119.91L664.29,127.62L666.59,145.23L667.75,152.97L672.36,187.57L673.51,191.62L680.43,222.7L681.58,227.57L682.74,231.78L683.89,228.91L686.2,232.28L687.35,236.92L688.5,236.64L689.66,233.79L690.81,237.69L691.96,231.87L693.12,234.39L694.27,232.5L697.73,216.93L698.88,217.54L700.04,188.24L701.19,195.36L703.5,192.89L704.65,187.46L706.96,163.74L708.11,166.18L709.26,153.24L710.42,152.48L715.03,116.13L716.18,118.65L717.34,112.24L718.49,111.35L719.64,109.67L720.8,103.69L723.1,101.78L724.26,102.79L725.41,106.09L726.56,97.82L727.72,102.93L728.87,99.91L731.18,106.36L732.33,101.98L733.48,105.9L734.64,104.77L735.79,105.74L736.94,105.39L738.1,97.51L739.25,103L740.4,103.77L741.56,103.5L742.71,105.68L743.86,101.97L746.17,106.3L747.32,104.45L750.78,104.17L751.93,103.07L753.09,102.26L754.24,104.65L755.39,104.59L756.55,105.73L758.85,104.6L760.01,106.51L763.47,104.63L764.62,106.23L765.77,105.69L766.93,108.85L768.08,108.91L769.23,110.89L771.54,114.86L772.69,119.66L773.85,124.87L775,125.11" style="vector-effect: non-scaling-stroke; fill: none; stroke: rgb(76, 120, 168); stroke-opacity: 1; stroke-width: 3px; opacity: 1;"/></g><g class="points"/><g class="text"/></g><g class="trace scatter traced21429" style="stroke-miterlimit: 2; opacity: 1;"><g class="fills"/><g class="errorbars"/><g class="lines"><path class="js-line" d="M0,130.02L11.53,213.25L12.69,219.22L16.15,231.92L17.3,235.49L19.61,241.52L20.76,243.54L21.91,245.41L23.07,243.11L26.53,241.59L27.68,236.78L28.83,237.58L29.99,233.64L31.14,236.03L32.29,223.13L33.44,235.03L34.6,216.64L36.9,206.1L38.06,195.39L39.21,191.98L40.36,175.72L42.67,153.96L43.82,146.87L47.28,120.88L48.44,116.39L49.59,113.48L50.74,107.86L53.05,104.78L54.2,105.27L55.36,105.86L56.51,103.97L57.66,105.03L58.82,104.68L59.97,100.07L61.12,100.87L65.74,102.76L66.89,102.8L69.2,103.74L70.35,104.6L72.66,107.07L73.81,104.16L74.96,105.48L76.12,105.41L77.27,104.83L78.42,106.08L81.88,103.98L83.04,107.03L86.5,104.9L87.65,105.98L91.11,103.28L92.26,106.61L95.72,104.99L96.88,106.19L98.03,106.8L99.18,106.21L100.33,107.14L101.49,104.86L102.64,106.07L103.79,112.25L104.95,110.11L106.1,111.95L110.71,128.68L111.87,137.2L121.09,205.35L122.25,210.55L125.71,225.68L126.86,229.64L130.32,240.02L131.47,242.03L132.63,244.51L133.78,242.82L134.93,243.43L136.09,240.85L137.24,240.35L138.39,241.31L144.16,227.26L145.31,220.76L148.77,207.1L149.93,199.94L153.39,176.24L154.54,169.86L161.46,113.97L162.61,110.55L167.22,103.97L168.38,103.5L169.53,103.77L170.68,99.62L171.84,99.09L172.99,99.89L176.45,101.07L177.6,101.53L178.76,102.29L179.91,104.41L181.06,105.4L182.22,104.93L184.52,105.6L185.68,104.45L187.98,104.18L189.14,105.23L191.44,104L192.6,103.07L193.75,105.28L194.9,105.27L196.06,105.3L197.21,104.16L198.36,105.5L199.52,104.47L201.82,102.81L202.98,105.93L206.44,104.9L207.59,105.65L208.74,106.24L209.9,107.7L211.05,105.6L212.2,105.48L215.66,111.06L216.82,110.6L221.43,128.66L222.58,136.42L231.81,203.53L232.96,209.1L235.27,220.18L236.42,221.33L239.88,221.74L241.03,224.75L243.34,232.12L244.49,231.41L250.26,232.31L251.41,228.52L253.72,226.01L254.87,221L259.49,202.91L260.64,195.94L264.1,176.06L265.25,167.77L272.17,115.09L273.33,112.29L277.94,105.51L279.09,105.27L280.25,104.86L281.4,98.7L282.55,99.33L283.71,100.85L284.86,101.13L286.01,102.41L287.17,101.68L288.32,102.26L289.47,102.84L290.63,102.58L294.08,107.73L295.24,105.37L298.7,104.89L299.85,106.3L303.31,104.11L304.46,107.03L306.77,105.8L307.92,104.78L309.08,105.94L310.23,105.07L311.38,104.69L312.54,103.47L313.69,106.74L314.84,106.48L317.15,105.39L318.3,107.7L319.46,106.9L320.61,107.07L322.92,106.7L324.07,108.12L327.53,112.72L328.68,117.15L333.3,136.84L334.45,145.21L337.91,169.65L339.06,175.06L341.37,184.73L342.52,187.94L343.68,189.09L344.83,192.03L345.98,189.68L347.14,191.38L348.29,190.98L349.44,191.72L350.6,193.79L351.75,202.3L355.21,233.37L356.36,234.89L357.51,231.57L358.67,230.68L359.82,227.95L360.97,221.57L363.28,206.01L364.43,194.34L366.74,187.34L367.89,187.76L370.2,179L371.35,176.38L372.51,173.82L373.66,173.65L384.04,116.06L385.19,112.56L388.65,106.07L389.81,104.85L390.96,104.45L392.11,100.59L393.27,99.74L394.42,99.86L399.03,101.65L400.19,101.82L401.34,104.16L402.49,104.68L404.8,105.45L405.95,104.31L407.11,104.98L408.26,104.24L410.57,104.42L411.72,103.24L412.87,104.25L414.03,103.2L415.18,105.65L416.33,105.25L418.64,103.75L419.79,104.56L422.1,103.46L423.25,102.46L425.56,108.05L426.71,103.64L427.86,103.88L429.02,105.94L430.17,105.61L431.32,106.45L433.63,105.63L434.78,106.86L437.09,110.97L438.24,111.4L441.7,125.72L442.86,126.91L448.62,171.7L449.78,179.87L454.39,209.68L455.54,215.43L457.85,223.8L459,226.54L462.46,234.56L463.62,235.18L464.77,236.52L465.92,234.36L469.38,231.02L470.54,232.34L475.15,218.38L476.3,215.63L478.61,202.25L479.76,200.49L483.22,182.03L484.38,178.5L490.14,126.19L491.29,123.51L493.6,116.94L494.75,112.93L499.37,104.46L500.52,103.91L501.67,103.29L502.83,98.53L506.29,99.73L507.44,101.05L509.75,100.61L510.9,100.81L512.05,104.26L513.21,104.19L517.82,104.02L518.97,103.18L522.43,103.98L523.59,102.67L524.74,101.94L525.89,103.79L527.05,103.29L528.2,103.97L529.35,103.68L530.51,102.46L531.66,104.3L532.81,102.11L533.97,102.09L535.12,105.41L538.58,103.77L539.73,105.94L544.35,105.41L545.5,105.64L547.81,106.24L548.96,105.17L552.42,108.98L553.57,106.27L555.88,109.58L557.03,109.88L565.1,126.46L566.26,129.5L567.41,131.02L568.56,129.14L575.48,114.06L576.64,106.94L577.79,106.89L578.94,107.67L580.1,109.68L581.25,115.61L582.4,110.6L583.56,110.61L584.71,111.21L585.86,110.78L587.02,111.34L588.17,110.66L589.32,108.54L590.48,111.14L593.94,118.75L595.09,125.18L598.55,120.51L599.7,117.45L602.01,118.66L603.16,119.72L604.32,116.77L605.47,116.54L607.78,112.61L608.93,108.28L611.24,106.66L612.39,105.84L613.54,99.38L614.69,100.95L615.85,100.26L617,101.61L618.15,109.93L619.31,98.72L623.92,106.65L625.07,105.8L626.23,104.94L627.38,103.09L628.53,105.45L629.69,105.89L630.84,105.85L631.99,104.6L634.3,104.18L635.45,103.45L636.61,106.23L637.76,105.72L640.07,104.43L641.22,104.93L644.68,103.45L645.83,99.28L646.99,104.07L648.14,102.29L649.29,109.01L650.45,104.08L652.75,106.74L653.91,106.66L655.06,106.81L656.21,107.98L658.52,111.46L659.67,109.05L663.13,128.62L664.29,127.35L673.51,194.86L674.67,200.16L682.74,229.78L683.89,231.42L686.2,234.69L687.35,231.19L688.5,231.43L689.66,230.86L690.81,230.4L691.96,230.87L695.42,223.75L696.58,223.48L705.8,183.08L706.96,175.41L715.03,114.28L716.18,112.14L719.64,107.35L720.8,105.56L723.1,105.39L724.26,99.46L727.72,101.9L728.87,101.91L730.02,101.89L731.18,103.62L732.33,103.22L733.48,105.94L735.79,105.99L736.94,107.08L738.1,105.93L739.25,106.21L741.56,105.65L742.71,106.52L745.01,105.14L746.17,104.7L747.32,106.87L748.47,107.21L750.78,105.19L751.93,106.23L755.39,104.35L756.55,107.14L758.85,106.38L760.01,106.11L762.31,107.67L763.47,107.81L765.77,106.98L766.93,108.75L769.23,112.95L770.39,113.79L775,128.36" style="vector-effect: non-scaling-stroke; fill: none; stroke: rgb(255, 127, 14); stroke-opacity: 0.7; stroke-width: 3px; opacity: 1;"/></g><g class="points"/><g class="text"/></g></g></g><g class="overplot"/><path class="xlines-above crisp" d="M0,0" style="fill: none;"/><path class="ylines-above crisp" d="M74,50V310" style="fill: none; stroke-width: 2px; stroke: rgb(0, 0, 0); stroke-opacity: 1;"/><g class="overlines-above"/><g class="xaxislayer-above"><g class="xtick"><text text-anchor="middle" x="0" y="330" transform="translate(158.04000000000002,0)" style="font-family: 'Open Sans', verdana, arial, sans-serif; font-size: 19px; fill: rgb(42, 63, 95); fill-opacity: 1; white-space: pre; opacity: 1;"><tspan class="line" dy="0em" x="0" y="330">May 31</tspan><tspan class="line" dy="1.3em" x="0" y="330">2019</tspan></text></g><g class="xtick"><text text-anchor="middle" x="0" y="330" style="font-family: 'Open Sans', verdana, arial, sans-serif; font-size: 19px; fill: rgb(42, 63, 95); fill-opacity: 1; white-space: pre; opacity: 1;" transform="translate(268.75,0)">Jun 1</text></g><g class="xtick"><text text-anchor="middle" x="0" y="330" style="font-family: 'Open Sans', verdana, arial, sans-serif; font-size: 19px; fill: rgb(42, 63, 95); fill-opacity: 1; white-space: pre; opacity: 1;" transform="translate(379.46,0)">Jun 2</text></g><g class="xtick"><text text-anchor="middle" x="0" y="330" style="font-family: 'Open Sans', verdana, arial, sans-serif; font-size: 19px; fill: rgb(42, 63, 95); fill-opacity: 1; white-space: pre; opacity: 1;" transform="translate(490.18,0)">Jun 3</text></g><g class="xtick"><text text-anchor="middle" x="0" y="330" style="font-family: 'Open Sans', verdana, arial, sans-serif; font-size: 19px; fill: rgb(42, 63, 95); fill-opacity: 1; white-space: pre; opacity: 1;" transform="translate(600.89,0)">Jun 4</text></g><g class="xtick"><text text-anchor="middle" x="0" y="330" style="font-family: 'Open Sans', verdana, arial, sans-serif; font-size: 19px; fill: rgb(42, 63, 95); fill-opacity: 1; white-space: pre; opacity: 1;" transform="translate(711.61,0)">Jun 5</text></g><g class="xtick"><text text-anchor="middle" x="0" y="330" style="font-family: 'Open Sans', verdana, arial, sans-serif; font-size: 19px; fill: rgb(42, 63, 95); fill-opacity: 1; white-space: pre; opacity: 1;" transform="translate(822.32,0)">Jun 6</text></g></g><g class="yaxislayer-above"><g class="ytick"><text text-anchor="end" x="69.2" y="6.6499999999999995" transform="translate(0,274.40999999999997)" style="font-family: 'Open Sans', verdana, arial, sans-serif; font-size: 19px; fill: rgb(42, 63, 95); fill-opacity: 1; white-space: pre; opacity: 1;">−2</text></g><g class="ytick"><text text-anchor="end" x="69.2" y="6.6499999999999995" style="font-family: 'Open Sans', verdana, arial, sans-serif; font-size: 19px; fill: rgb(42, 63, 95); fill-opacity: 1; white-space: pre; opacity: 1;" transform="translate(0,216.72)">−1</text></g><g class="ytick"><text text-anchor="end" x="69.2" y="6.6499999999999995" style="font-family: 'Open Sans', verdana, arial, sans-serif; font-size: 19px; fill: rgb(42, 63, 95); fill-opacity: 1; white-space: pre; opacity: 1;" transform="translate(0,159.04000000000002)">0</text></g><g class="ytick"><text text-anchor="end" x="69.2" y="6.6499999999999995" style="font-family: 'Open Sans', verdana, arial, sans-serif; font-size: 19px; fill: rgb(42, 63, 95); fill-opacity: 1; white-space: pre; opacity: 1;" transform="translate(0,101.36)">1</text></g></g><g class="overaxes-above"/></g></g><g class="polarlayer"/><g class="ternarylayer"/><g class="geolayer"/><g class="funnelarealayer"/><g class="pielayer"/><g class="iciclelayer"/><g class="treemaplayer"/><g class="sunburstlayer"/><g class="glimages"/><defs id="topdefs-b4af28"><g class="clips"/></defs><g class="layer-above"><g class="imagelayer"/><g class="shapelayer"/></g><g class="infolayer"><g class="g-gtitle"/><g class="g-xtitle"/><g class="g-ytitle" transform="translate(12.537109375,0)"><text class="ytitle" transform="rotate(-90,10.462500000000006,180)" x="10.462500000000006" y="180" text-anchor="middle" style="font-family: 'Open Sans', verdana, arial, sans-serif; font-size: 23px; fill: rgb(42, 63, 95); opacity: 1; font-weight: normal; white-space: pre;">Netload [kW]</text></g></g></svg>