<svg class="main-svg" xmlns="http://www.w3.org/2000/svg" xmlns:xlink="http://www.w3.org/1999/xlink" width="900" height="400" viewBox="0 0 900 400"><rect x="0" y="0" width="900" height="400" style="fill: rgb(255, 255, 255); fill-opacity: 1;"/><defs id="defs-722a66"><g class="clips"><clipPath id="clip722a66xyplot" class="plotclip"><rect width="775" height="260"/></clipPath><clipPath class="axesclip" id="clip722a66x"><rect x="75" y="0" width="775" height="400"/></clipPath><clipPath class="axesclip" id="clip722a66y"><rect x="0" y="50" width="900" height="260"/></clipPath><clipPath class="axesclip" id="clip722a66xy"><rect x="75" y="50" width="775" height="260"/></clipPath></g><g class="gradients"/><g class="patterns"/></defs><g class="bglayer"/><g class="layer-below"><g class="imagelayer"/><g class="shapelayer"/></g><g class="cartesianlayer"><g class="subplot xy"><g class="layer-subplot"><g class="shapelayer"/><g class="imagelayer"/></g><g class="gridlayer"><g class="x"><path class="xgrid crisp" transform="translate(158.04000000000002,0)" d="M0,50v260" style="stroke: rgb(235, 240, 248); stroke-opacity: 1; stroke-width: 1px;"/><path class="xgrid crisp" transform="translate(268.75,0)" d="M0,50v260" style="stroke: rgb(235, 240, 248); stroke-opacity: 1; stroke-width: 1px;"/><path class="xgrid crisp" transform="translate(379.46,0)" d="M0,50v260" style="stroke: rgb(235, 240, 248); stroke-opacity: 1; stroke-width: 1px;"/><path class="xgrid crisp" transform="translate(490.18,0)" d="M0,50v260" style="stroke: rgb(235, 240, 248); stroke-opacity: 1; stroke-width: 1px;"/><path class="xgrid crisp" transform="translate(600.89,0)" d="M0,50v260" style="stroke: rgb(235, 240, 248); stroke-opacity: 1; stroke-width: 1px;"/><path class="xgrid crisp" transform="translate(711.61,0)" d="M0,50v260" style="stroke: rgb(235, 240, 248); stroke-opacity: 1; stroke-width: 1px;"/><path class="xgrid crisp" transform="translate(822.32,0)" d="M0,50v260" style="stroke: rgb(235, 240, 248); stroke-opacity: 1; stroke-width: 1px;"/></g><g class="y"><path class="ygrid crisp" transform="translate(0,277.95)" d="M75,0h775" style="stroke: rgb(235, 240, 248); stroke-opacity: 1; stroke-width: 1px;"/><path class="ygrid crisp" transform="translate(0,226.91)" d="M75,0h775" style="stroke: rgb(235, 240, 248); stroke-opacity: 1; stroke-width: 1px;"/><path class="ygrid crisp" transform="translate(0,124.84)" d="M75,0h775" style="stroke: rgb(235, 240, 248); stroke-opacity: 1; stroke-width: 1px;"/><path class="ygrid crisp" transform="translate(0,73.8)" d="M75,0h775" style="stroke: rgb(235, 240, 248); stroke-opacity: 1; stroke-width: 1px;"/></g></g><g class="zerolinelayer"><path class="yzl zl crisp" transform="translate(0,175.88)" d="M75,0h775" style="stroke: rgb(0, 0, 0); stroke-opacity: 1; stroke-width: 2px;"/></g><path class="xlines-below"/><path class="ylines-below"/><g class="overlines-below"/><g class="xaxislayer-below"/><g class="yaxislayer-below"/><g class="overaxes-below"/><g class="plot" transform="translate(75,50)" clip-path="url(#clip722a66xyplot)"><g class="scatterlayer mlayer"><g class="trace scatter tracea981e0" style="stroke-miterlimit: 2; opacity: 1;"><g class="fills"/><g class="errorbars"/><g class="lines"><path class="js-line" d="M0,143.73L2.31,161L3.46,163.95L6.92,191.45L8.07,197.11L10.38,212.63L11.53,208.77L12.69,218.32L13.84,209.22L14.99,192.79L16.15,228.75L18.45,237.86L19.61,238.53L21.91,228.71L23.07,196.21L24.22,242.26L25.37,247L26.53,242.72L27.68,229.72L28.83,227.92L29.99,240.21L32.29,225.35L33.44,229.08L34.6,188.68L35.75,206.73L36.9,208.2L38.06,193.05L40.36,174.79L41.52,164.52L42.67,150.54L43.82,153.73L48.44,99.59L49.59,109.03L50.74,104.01L51.9,102.99L54.2,115.66L55.36,103.49L56.51,91.49L57.66,101.45L58.82,112.15L59.97,102.58L61.12,103.62L62.28,91.91L63.43,65.06L64.58,82.72L66.89,92.32L68.04,117.63L69.2,117.1L70.35,121.42L71.5,114.77L72.66,94.83L73.81,108.82L74.96,75.24L77.27,114.69L78.42,117.51L79.58,114.14L80.73,108.18L81.88,114.79L83.04,110.85L84.19,108.26L85.34,112.89L86.5,107.94L87.65,114.39L88.8,123.41L89.96,123.79L91.11,124L92.26,120.98L93.42,110.93L94.57,111.84L95.72,117.73L96.88,110.18L98.03,109.94L99.18,113.12L102.64,124.56L103.79,118.31L104.95,118.86L106.1,114.48L107.25,114.71L108.41,118.83L109.56,128.46L110.71,126.62L113.02,149.56L114.17,151.42L115.33,164.68L116.48,164.01L117.63,178.14L118.79,182.58L121.09,201.02L122.25,209.64L123.4,195.03L124.55,206.98L125.71,208.95L126.86,215.23L128.01,222.28L129.17,236.4L133.78,174.93L134.93,184.61L136.09,185.98L137.24,236.24L138.39,232.43L139.55,232.31L141.85,197.8L143.01,196.42L144.16,208.52L145.31,207.33L147.62,199.29L148.77,182.01L149.93,177.29L151.08,186.89L152.23,188.58L153.39,181.23L154.54,160.61L155.69,153.63L156.85,132.36L158,129.11L159.15,125.22L160.31,94.77L161.46,97.19L162.61,108.41L163.76,111.35L164.92,128.32L167.22,88.88L168.38,95.93L169.53,98.88L170.68,112.12L172.99,93.58L174.14,88.98L175.3,88.57L176.45,107.88L177.6,74.24L178.76,96.55L179.91,116.91L181.06,110.57L183.37,88.49L184.52,110.5L186.83,87.76L187.98,95.93L189.14,107.03L190.29,82.97L192.6,117.59L193.75,101.22L194.9,104.28L196.06,104.08L197.21,114.54L198.36,117.86L199.52,113.52L200.67,101.99L201.82,115.45L202.98,119.72L204.13,117.9L205.28,121.28L206.44,115.63L207.59,117.37L209.9,121.66L211.05,117.45L212.2,115.49L213.36,124.89L215.66,116.39L216.82,126.78L217.97,130.98L219.12,121.97L222.58,149.2L223.74,158.13L224.89,159.25L226.04,173.26L227.19,176.22L228.35,176.63L229.5,190.26L230.65,188.73L232.96,208.68L234.11,206.91L235.27,211.34L236.42,190.77L238.73,199.61L239.88,223.31L241.03,229.12L242.19,214.69L243.34,232.51L244.49,193.06L245.65,191.75L246.8,196.72L247.95,168.61L249.11,85.13L251.41,192.82L252.57,194.37L253.72,206.21L254.87,184.69L256.03,178.97L257.18,189.15L258.33,198.46L259.49,197.44L260.64,194.03L261.79,193.57L262.95,191.86L264.1,187.02L266.41,167.16L267.56,139.64L268.71,123L269.87,124.25L271.02,97.87L272.17,101.76L273.33,127.97L274.48,71.12L275.63,94.51L276.79,98.8L277.94,104.75L279.09,102.83L281.4,120.54L282.55,113.92L283.71,122.13L284.86,101.32L286.01,50.83L287.17,38.69L288.32,13L289.47,58.35L290.63,92.73L291.78,46.88L292.93,23.26L294.08,55.09L295.24,81.77L296.39,87.7L297.54,73.74L298.7,84.42L299.85,111.09L301,105.24L302.16,100.75L303.31,111.43L305.62,83.33L306.77,95.32L307.92,99.6L309.08,117.82L310.23,101.38L311.38,120.62L312.54,101.93L313.69,111.92L314.84,107L316,114.21L317.15,112.11L318.3,87.2L319.46,114.46L320.61,117.85L321.76,119.13L322.92,116.86L324.07,119.76L325.22,125.93L327.53,121.62L328.68,124.12L330.99,132.1L332.14,139.75L336.76,167.1L337.91,165.06L339.06,160.75L340.22,178.58L341.37,176.65L342.52,184.89L343.68,188.36L344.83,174.16L347.14,187.67L348.29,178.26L349.44,186.3L350.6,157.19L355.21,237.43L356.36,206.8L357.51,126.2L358.67,211.82L359.82,203.38L360.97,218.97L363.28,182.2L364.43,185.03L365.59,159.28L366.74,160.89L367.89,159.53L369.05,152.62L370.2,89.6L371.35,164.03L372.51,168.87L373.66,148.85L374.81,163.73L375.97,136.18L377.12,145.94L378.27,129.15L379.43,143.48L380.58,144.21L381.73,138.36L382.89,123.84L384.04,113.45L385.19,110.69L386.35,119.66L387.5,121.29L388.65,124.84L389.81,121.66L390.96,108.55L392.11,109.55L393.27,107.8L394.42,109.64L395.57,107.44L396.73,86.47L397.88,94.61L399.03,80.78L400.19,115.41L401.34,112.19L402.49,91.47L403.65,104.54L404.8,83.84L405.95,110.61L407.11,87.06L408.26,111.95L409.41,101.4L410.57,109.91L411.72,120.26L412.87,111.47L414.03,110.79L415.18,119.53L416.33,92.89L417.49,112.71L418.64,118.59L419.79,119.46L420.94,107.96L422.1,108.63L423.25,110.58L424.4,116.67L425.56,116.16L426.71,104.3L427.86,118.25L429.02,111.93L430.17,118.46L431.32,120.15L432.48,123.91L433.63,123.84L435.94,128.15L437.09,127.41L438.24,128.39L439.4,128.18L441.7,140.76L442.86,144.05L444.01,149.07L445.16,144.05L448.62,173.96L449.78,179.37L450.93,183.55L452.08,199.44L453.24,196.01L454.39,213.81L455.54,207.6L456.7,213.48L457.85,212.12L459,180.16L461.31,207.2L462.46,198.98L463.62,208.42L464.77,225.43L465.92,231.12L467.08,217.02L468.23,190.78L469.38,225.51L470.54,217.41L471.69,220.96L472.84,223.19L474,228.43L475.15,199.89L476.3,209.56L477.46,213.58L478.61,213.69L482.07,153.58L483.22,170.39L484.38,163.03L485.53,135.45L487.83,73.47L488.99,66.26L490.14,104.11L491.29,38.65L492.45,98.19L493.6,103.17L494.75,108.67L495.91,122.63L498.21,91.57L499.37,98.27L500.52,107.6L501.67,70.53L502.83,53.45L503.98,52.39L505.13,76.49L506.29,59.93L507.44,64.61L508.59,84.64L509.75,59.03L510.9,76.02L512.05,79.12L513.21,103.08L514.36,113.96L515.51,106.41L516.67,116.62L517.82,77.79L518.97,87.5L520.13,116.85L522.43,120.06L523.59,107.55L524.74,98.56L525.89,112.45L528.2,123.02L529.35,123.81L530.51,120.24L531.66,124.09L532.81,124.88L533.97,123.34L536.27,121.57L537.43,118.23L538.58,124.37L539.73,120.25L540.89,119.94L542.04,101.41L543.19,102.42L544.35,112.72L545.5,110.96L546.65,107.39L547.81,112.31L548.96,113.71L550.11,106.98L551.26,119.39L552.42,108L553.57,108.86L554.72,105.98L555.88,110.29L558.18,114.33L559.34,112.98L560.49,95.4L561.64,116.98L565.1,128.08L566.26,123.11L567.41,123.76L568.56,120.89L569.72,118.58L570.87,141.39L572.02,120.85L573.18,118.67L574.33,104.05L575.48,112.23L576.64,106.26L577.79,81.1L578.94,92.85L580.1,17.3L582.4,109.01L583.56,75.69L584.71,129.95L585.86,114.07L587.02,115.06L588.17,101.33L589.32,125.04L590.48,130.08L591.63,129.22L592.78,131.95L593.94,137.57L595.09,134.79L596.24,111.24L597.4,121.78L598.55,110.9L599.7,108.46L600.86,125.17L602.01,99.86L604.32,115.15L605.47,85.42L606.62,110.66L607.78,104.02L608.93,113.67L610.08,99.18L612.39,63.63L613.54,80.21L614.69,90.41L615.85,66.69L617,43.09L618.15,86.9L619.31,108.75L620.46,114.61L621.61,120.98L622.77,65.28L623.92,90.48L625.07,92.36L626.23,72.37L627.38,112.46L629.69,64.84L630.84,65.89L631.99,96.87L633.15,97.65L634.3,84.55L635.45,82.16L636.61,109.27L637.76,91.45L638.91,114.81L640.07,116.92L641.22,111.37L642.37,112.2L643.53,111.22L644.68,115.43L645.83,116.06L646.99,123.02L648.14,114.53L649.29,120.18L650.45,119.52L651.6,123.53L652.75,123.92L653.91,122.28L655.06,117.69L656.21,120.75L657.37,116.28L658.52,122.72L659.67,111.11L660.83,114.97L661.98,116.69L663.13,122.61L664.29,115L665.44,74.63L666.59,111L667.75,110.81L670.05,156.64L671.21,155.18L673.51,188.76L674.67,186.14L675.82,185.96L676.97,191.06L678.13,205.26L679.28,193.21L680.43,211.76L681.58,214.71L682.74,197.73L683.89,215.24L685.04,212.62L686.2,165.97L687.35,201.03L688.5,176.68L689.66,184.94L690.81,212.64L691.96,220.61L693.12,134.8L695.42,208.37L696.58,187.45L697.73,181.29L698.88,159.93L700.04,170.55L701.19,158.73L702.34,154.2L703.5,157.47L704.65,182.66L705.8,174.25L706.96,165.08L708.11,147.03L709.26,130.78L710.42,146.94L712.72,136.3L713.88,111.09L715.03,121.93L716.18,119.3L717.34,129.29L718.49,84.83L719.64,91.12L720.8,15.17L723.1,84.11L724.26,94.78L725.41,97.28L726.56,24.74L727.72,101.27L728.87,80.07L730.02,93.81L731.18,74.83L732.33,102.6L733.48,65.19L734.64,79.1L735.79,69.2L736.94,80.07L738.1,56.3L740.4,107.17L741.56,116.39L742.71,116.4L743.86,110.73L746.17,123.19L747.32,123.95L748.47,122.39L749.63,113.17L750.78,116.78L751.93,109.59L753.09,117.9L754.24,102.96L756.55,112.27L757.7,114.62L758.85,101.9L760.01,106.23L762.31,114.63L763.47,109.66L764.62,122.73L765.77,119.77L766.93,122.29L768.08,113.44L769.23,110.13L770.39,119.01L771.54,121.68L772.69,102.43L773.85,125.21L775,131.34" style="vector-effect: non-scaling-stroke; fill: none; stroke: rgb(76, 120, 168); stroke-opacity: 1; stroke-width: 3px; opacity: 1;"/></g><g class="points"/><g class="text"/></g><g class="trace scatter trace565642" style="stroke-miterlimit: 2; opacity: 1;"><g class="fills"/><g class="errorbars"/><g class="lines"><path class="js-line" d="M0,137.62L3.46,152.2L4.61,169.92L8.07,183.6L9.23,199.63L12.69,207.15L13.84,213.45L16.15,213.06L17.3,214.09L18.45,221.13L19.61,217.75L21.91,214.12L23.07,224.67L25.37,220.81L26.53,220.71L27.68,230.14L28.83,223.32L31.14,214.05L32.29,218.59L35.75,186.66L36.9,195.27L39.21,174.63L40.36,162.94L41.52,162.64L42.67,153.53L47.28,120.86L48.44,115.38L49.59,111.41L50.74,100.75L53.05,100.07L54.2,102.03L55.36,102.72L56.51,99.76L58.82,95.61L59.97,103.17L61.12,101.63L62.28,98.54L63.43,96.01L64.58,79.24L65.74,79.66L66.89,78.52L68.04,75.78L69.2,101.59L72.66,80.64L73.81,105.24L76.12,103.01L77.27,100.25L78.42,108.04L79.58,106.28L81.88,102.19L83.04,111.87L84.19,112.36L85.34,111.14L86.5,110.64L87.65,108.42L91.11,112.72L92.26,115.54L94.57,111.55L95.72,112.09L98.03,115.52L99.18,117.2L100.33,119.53L101.49,115.04L104.95,121.89L106.1,119.39L108.41,126.22L109.56,130.62L110.71,130.2L111.87,136.15L114.17,148.51L115.33,161.2L118.79,178.32L119.94,189.83L123.4,201.22L124.55,201.83L126.86,205.22L128.01,207.67L129.17,212.43L130.32,209.89L131.47,209.32L132.63,210.76L133.78,199.54L134.93,203.57L138.39,215.52L139.55,215.26L141.85,209.4L143.01,197.07L146.47,178.1L147.62,195.13L151.08,172.41L152.23,175.7L160.31,123.38L161.46,99.4L162.61,98.8L163.76,100.79L164.92,103.41L166.07,108.91L168.38,99.43L169.53,98.5L171.84,95.33L172.99,93.63L176.45,87.79L177.6,83.99L178.76,78.64L179.91,88.04L181.06,85.26L182.22,80.42L183.37,74.8L184.52,98.83L186.83,101.02L187.98,98.39L189.14,95.45L190.29,96.55L191.44,97.84L192.6,97.27L193.75,110.33L194.9,110.69L196.06,110.85L197.21,109.77L198.36,109.35L199.52,110.71L200.67,109.92L201.82,110.78L202.98,107.53L204.13,107.44L205.28,107.15L206.44,107.72L207.59,114.05L208.74,114.94L211.05,118.09L212.2,115.14L213.36,115.67L214.51,117.53L215.66,120.56L216.82,117.47L219.12,123.69L220.28,128.68L222.58,136.41L223.74,141.93L224.89,147.66L226.04,164.46L229.5,177.93L230.65,191.38L234.11,199.6L235.27,205.14L238.73,201.11L239.88,192.33L241.03,191.36L242.19,191.87L243.34,193.8L244.49,217.11L247.95,211.05L249.11,182.48L252.57,189.84L253.72,189.99L254.87,184.96L256.03,176.41L257.18,173.17L258.33,185.58L261.79,158.65L262.95,178.28L266.41,149.5L267.56,149.6L271.02,123.07L272.17,100.04L273.33,98.58L274.48,99.4L275.63,101.47L276.79,86.99L279.09,87.71L280.25,89.63L281.4,99.54L282.55,96.65L283.71,95.6L284.86,92.39L286.01,96.35L287.17,89.88L289.47,77.72L290.63,59.98L291.78,64.99L292.93,64.04L294.08,62.47L295.24,71.83L297.54,87.17L298.7,84.65L299.85,84.13L301,89.03L302.16,91L303.31,89.01L304.46,103.21L305.62,103.28L306.77,104.23L307.92,103.91L309.08,97.94L310.23,100.54L312.54,104.14L313.69,102.55L316,101.47L317.15,101.76L318.3,109.52L319.46,109.7L320.61,110.83L321.76,113.13L322.92,113.95L324.07,113.36L325.22,113.51L326.38,116.68L327.53,120.22L328.68,119.74L329.84,121.39L330.99,125.15L333.3,133.77L334.45,137.56L335.6,142.57L336.76,161.92L340.22,168.95L341.37,177.76L342.52,179.03L343.68,178.63L344.83,177.33L345.98,174.07L349.44,168.57L350.6,171.14L351.75,169.66L352.9,171.93L354.06,178.29L355.21,204.04L356.36,203.37L357.51,201.41L358.67,201.26L359.82,187.79L360.97,187.61L362.13,182.31L367.89,146.09L369.05,152.2L372.51,139.58L373.66,157.15L375.97,143.15L377.12,134.29L378.27,133.36L379.43,127.73L381.73,112.44L382.89,120.43L385.19,107.41L386.35,105.21L390.96,89.22L392.11,101.9L395.57,89.61L396.73,96.38L400.19,76.27L401.34,95.3L404.8,70.95L405.95,95.57L407.11,95.56L408.26,94.21L409.41,90.29L410.57,99.74L414.03,92.09L415.18,106.24L417.49,102.82L418.64,102.97L419.79,109.17L420.94,107.08L423.25,106.14L424.4,103.17L427.86,100.71L429.02,110.06L432.48,112.08L433.63,114.65L434.78,113.98L435.94,114.28L437.09,115.75L438.24,121.1L439.4,120.91L440.55,122.14L441.7,125.01L442.86,135.31L445.16,139.66L446.32,143.83L447.47,159.16L448.62,164.07L450.93,172.31L452.08,186.92L455.54,195.07L456.7,204.37L459,201.47L460.16,201.44L461.31,192.11L462.46,192.5L463.62,192.99L464.77,194.72L465.92,211.19L467.08,209.71L470.54,205.3L471.69,202.59L474,192.45L475.15,203.79L478.61,170.97L479.76,194.04L483.22,160.73L484.38,160.93L487.83,134.61L488.99,89.71L492.45,98.71L493.6,86.06L495.91,95.1L497.06,98.85L499.37,90.5L500.52,89.79L501.67,87.38L502.83,81.6L503.98,81.72L505.13,83.02L506.29,84.89L507.44,72.6L510.9,70.26L512.05,76.81L513.21,74.37L514.36,70.1L515.51,66.25L516.67,107.77L520.13,98.4L521.28,104.02L524.74,96.07L525.89,102.33L527.05,104.48L528.2,105.03L529.35,104.79L530.51,115.05L531.66,113.02L532.81,112.75L535.12,113.48L536.27,109.95L537.43,108.32L538.58,108.75L539.73,117.9L540.89,117.2L542.04,117.42L543.19,118.97L544.35,105.28L545.5,108.39L547.81,115.09L548.96,111.29L552.42,117.96L553.57,112.35L558.18,117.51L559.34,119.94L561.64,121.98L562.8,119.46L565.1,124.6L566.26,125.09L570.87,115.2L572.02,117.91L575.48,98.52L576.64,100.2L578.94,96.22L580.1,95.94L581.25,55.77L582.4,62.41L584.71,75.79L585.86,99.91L589.32,81.71L590.48,102.34L593.94,88.59L595.09,121.78L598.55,105.11L599.7,104.57L602.01,101.91L603.16,102.83L606.62,104.44L607.78,106.44L608.93,97.12L610.08,94.97L611.24,95.08L612.39,94.33L613.54,77.34L614.69,82.83L617,88.3L618.15,64.49L620.46,73.71L621.61,73.67L622.77,105.72L623.92,96.54L626.23,82.51L627.38,91.39L630.84,97.24L631.99,83.07L635.45,94.33L636.61,91.82L640.07,107.24L641.22,111.72L642.37,112.01L643.53,114.1L644.68,114.89L645.83,109.61L648.14,109.42L649.29,110.8L650.45,117.6L651.6,118.67L653.91,122.48L655.06,119.55L656.21,120.25L657.37,122.36L658.52,125.19L659.67,121.52L661.98,128.67L663.13,133.58L664.29,128.97L665.44,135.75L667.75,148.54L668.9,136.66L671.21,161.37L672.36,169.01L674.67,190.77L675.82,193.77L676.97,196.17L678.13,192.3L681.58,200.54L682.74,205.91L685.04,203.9L686.2,203.78L687.35,189L688.5,192.96L690.81,203.23L691.96,203.22L694.27,201.3L695.42,200.4L696.58,191.92L697.73,189.71L700.04,173.85L701.19,172.53L702.34,174.96L703.5,168.78L704.65,161.27L705.8,170.13L706.96,166.36L708.11,159.11L709.26,151.31L710.42,131.69L713.88,119.64L715.03,109.69L716.18,107.22L717.34,108.27L718.49,109.54L719.64,92.6L720.8,90.32L721.95,92.63L723.1,94.96L724.26,85.17L726.56,91.82L727.72,92.12L728.87,86.09L730.02,90.34L732.33,79.14L733.48,89.84L734.64,89.67L735.79,85.3L736.94,76.76L738.1,91.13L739.25,97.16L740.4,98.35L741.56,98.06L742.71,111.23L743.86,108.96L745.01,104.98L746.17,103.21L747.32,118.1L749.63,113.01L750.78,112.91L755.39,115.72L756.55,105.67L758.85,108.54L760.01,110.72L761.16,108.76L762.31,112L764.62,119.35L765.77,116.77L768.08,121.47L769.23,124.43L770.39,115L771.54,119.67L773.85,130.01L775,126.45" style="vector-effect: non-scaling-stroke; fill: none; stroke: rgb(255, 127, 14); stroke-opacity: 0.7; stroke-width: 3px; opacity: 1;"/></g><g class="points"/><g class="text"/></g></g></g><g class="overplot"/><path class="xlines-above crisp" d="M0,0" style="fill: none;"/><path class="ylines-above crisp" d="M74,50V310" style="fill: none; stroke-width: 2px; stroke: rgb(0, 0, 0); stroke-opacity: 1;"/><g class="overlines-above"/><g class="xaxislayer-above"><g class="xtick"><text text-anchor="middle" x="0" y="330" transform="translate(158.04000000000002,0)" style="font-family: 'Open Sans', verdana, arial, sans-serif; font-size: 19px; fill: rgb(42, 63, 95); fill-opacity: 1; white-space: pre; opacity: 1;"><tspan class="line" dy="0em" x="0" y="330">May 31</tspan><tspan class="line" dy="1.3em" x="0" y="330">2019</tspan></text></g><g class="xtick"><text text-anchor="middle" x="0" y="330" style="font-family: 'Open Sans', verdana, arial, sans-serif; font-size: 19px; fill: rgb(42, 63, 95); fill-opacity: 1; white-space: pre; opacity: 1;" transform="translate(268.75,0)">Jun 1</text></g><g class="xtick"><text text-anchor="middle" x="0" y="330" style="font-family: 'Open Sans', verdana, arial, sans-serif; font-size: 19px; fill: rgb(42, 63, 95); fill-opacity: 1; white-space: pre; opacity: 1;" transform="translate(379.46,0)">Jun 2</text></g><g class="xtick"><text text-anchor="middle" x="0" y="330" style="font-family: 'Open Sans', verdana, arial, sans-serif; font-size: 19px; fill: rgb(42, 63, 95); fill-opacity: 1; white-space: pre; opacity: 1;" transform="translate(490.18,0)">Jun 3</text></g><g class="xtick"><text text-anchor="middle" x="0" y="330" style="font-family: 'Open Sans', verdana, arial, sans-serif; font-size: 19px; fill: rgb(42, 63, 95); fill-opacity: 1; white-space: pre; opacity: 1;" transform="translate(600.89,0)">Jun 4</text></g><g class="xtick"><text text-anchor="middle" x="0" y="330" style="font-family: 'Open Sans', verdana, arial, sans-serif; font-size: 19px; fill: rgb(42, 63, 95); fill-opacity: 1; white-space: pre; opacity: 1;" transform="translate(711.61,0)">Jun 5</text></g><g class="xtick"><text text-anchor="middle" x="0" y="330" style="font-family: 'Open Sans', verdana, arial, sans-serif; font-size: 19px; fill: rgb(42, 63, 95); fill-opacity: 1; white-space: pre; opacity: 1;" transform="translate(822.32,0)">Jun 6</text></g></g><g class="yaxislayer-above"><g class="ytick"><text text-anchor="end" x="69.2" y="6.6499999999999995" transform="translate(0,277.95)" style="font-family: 'Open Sans', verdana, arial, sans-serif; font-size: 19px; fill: rgb(42, 63, 95); fill-opacity: 1; white-space: pre; opacity: 1;">−2</text></g><g class="ytick"><text text-anchor="end" x="69.2" y="6.6499999999999995" style="font-family: 'Open Sans', verdana, arial, sans-serif; font-size: 19px; fill: rgb(42, 63, 95); fill-opacity: 1; white-space: pre; opacity: 1;" transform="translate(0,226.91)">−1</text></g><g class="ytick"><text text-anchor="end" x="69.2" y="6.6499999999999995" style="font-family: 'Open Sans', verdana, arial, sans-serif; font-size: 19px; fill: rgb(42, 63, 95); fill-opacity: 1; white-space: pre; opacity: 1;" transform="translate(0,175.88)">0</text></g><g class="ytick"><text text-anchor="end" x="69.2" y="6.6499999999999995" style="font-family: 'Open Sans', verdana, arial, sans-serif; font-size: 19px; fill: rgb(42, 63, 95); fill-opacity: 1; white-space: pre; opacity: 1;" transform="translate(0,124.84)">1</text></g><g class="ytick"><text text-anchor="end" x="69.2" y="6.6499999999999995" style="font-family: 'Open Sans', verdana, arial, sans-serif; font-size: 19px; fill: rgb(42, 63, 95); fill-opacity: 1; white-space: pre; opacity: 1;" transform="translate(0,73.8)">2</text></g></g><g class="overaxes-above"/></g></g><g class="polarlayer"/><g class="ternarylayer"/><g class="geolayer"/><g class="funnelarealayer"/><g class="pielayer"/><g class="iciclelayer"/><g class="treemaplayer"/><g class="sunburstlayer"/><g class="glimages"/><defs id="topdefs-722a66"><g class="clips"/></defs><g class="layer-above"><g class="imagelayer"/><g class="shapelayer"/></g><g class="infolayer"><g class="g-gtitle"/><g class="g-xtitle"/><g class="g-ytitle" transform="translate(12.537109375,0)"><text class="ytitle" transform="rotate(-90,10.462500000000006,180)" x="10.462500000000006" y="180" text-anchor="middle" style="font-family: 'Open Sans', verdana, arial, sans-serif; font-size: 23px; fill: rgb(42, 63, 95); opacity: 1; font-weight: normal; white-space: pre;">Netload [kW]</text></g></g></svg>