<svg class="main-svg" xmlns="http://www.w3.org/2000/svg" xmlns:xlink="http://www.w3.org/1999/xlink" width="900" height="400" viewBox="0 0 900 400"><rect x="0" y="0" width="900" height="400" style="fill: rgb(255, 255, 255); fill-opacity: 1;"/><defs id="defs-b99e38"><g class="clips"><clipPath id="clipb99e38xyplot" class="plotclip"><rect width="775" height="260"/></clipPath><clipPath class="axesclip" id="clipb99e38x"><rect x="75" y="0" width="775" height="400"/></clipPath><clipPath class="axesclip" id="clipb99e38y"><rect x="0" y="50" width="900" height="260"/></clipPath><clipPath class="axesclip" id="clipb99e38xy"><rect x="75" y="50" width="775" height="260"/></clipPath></g><g class="gradients"/><g class="patterns"/></defs><g class="bglayer"/><g class="layer-below"><g class="imagelayer"/><g class="shapelayer"/></g><g class="cartesianlayer"><g class="subplot xy"><g class="layer-subplot"><g class="shapelayer"/><g class="imagelayer"/></g><g class="gridlayer"><g class="x"><path class="xgrid crisp" transform="translate(158.04000000000002,0)" d="M0,50v260" style="stroke: rgb(235, 240, 248); stroke-opacity: 1; stroke-width: 1px;"/><path class="xgrid crisp" transform="translate(268.75,0)" d="M0,50v260" style="stroke: rgb(235, 240, 248); stroke-opacity: 1; stroke-width: 1px;"/><path class="xgrid crisp" transform="translate(379.46,0)" d="M0,50v260" style="stroke: rgb(235, 240, 248); stroke-opacity: 1; stroke-width: 1px;"/><path class="xgrid crisp" transform="translate(490.18,0)" d="M0,50v260" style="stroke: rgb(235, 240, 248); stroke-opacity: 1; stroke-width: 1px;"/><path class="xgrid crisp" transform="translate(600.89,0)" d="M0,50v260" style="stroke: rgb(235, 240, 248); stroke-opacity: 1; stroke-width: 1px;"/><path class="xgrid crisp" transform="translate(711.61,0)" d="M0,50v260" style="stroke: rgb(235, 240, 248); stroke-opacity: 1; stroke-width: 1px;"/><path class="xgrid crisp" transform="translate(822.32,0)" d="M0,50v260" style="stroke: rgb(235, 240, 248); stroke-opacity: 1; stroke-width: 1px;"/></g><g class="y"><path class="ygrid crisp" transform="translate(0,270.97)" d="M75,0h775" style="stroke: rgb(235, 240, 248); stroke-opacity: 1; stroke-width: 1px;"/><path class="ygrid crisp" transform="translate(0,211.05)" d="M75,0h775" style="stroke: rgb(235, 240, 248); stroke-opacity: 1; stroke-width: 1px;"/><path class="ygrid crisp" transform="translate(0,91.22)" d="M75,0h775" style="stroke: rgb(235, 240, 248); stroke-opacity: 1; stroke-width: 1px;"/></g></g><g class="zerolinelayer"><path class="yzl zl crisp" transform="translate(0,151.14)" d="M75,0h775" style="stroke: rgb(0, 0, 0); stroke-opacity: 1; stroke-width: 2px;"/></g><path class="xlines-below"/><path class="ylines-below"/><g class="overlines-below"/><g class="xaxislayer-below"/><g class="yaxislayer-below"/><g class="overaxes-below"/><g class="plot" transform="translate(75,50)" clip-path="url(#clipb99e38xyplot)"><g class="scatterlayer mlayer"><g class="trace scatter trace5543ce" style="stroke-miterlimit: 2; opacity: 1;"><g class="fills"/><g class="errorbars"/><g class="lines"><path class="js-line" d="M0,102.1L1.15,108.39L2.31,120.76L3.46,121.52L4.61,99.52L8.07,182.64L9.23,178.48L11.53,191.37L12.69,180.48L13.84,198.49L14.99,192.39L16.15,221.62L17.3,219.32L18.45,233.88L19.61,219.95L20.76,222.85L21.91,222.41L23.07,210.54L24.22,218.92L25.37,218.03L26.53,228.73L27.68,242.8L28.83,211.84L29.99,225.99L31.14,226.95L32.29,196.16L33.44,210.44L35.75,186.61L36.9,201.71L38.06,158.69L39.21,177.67L41.52,137.92L42.67,136.16L43.82,129.01L44.98,130.48L47.28,111.51L48.44,116.49L49.59,94.5L50.74,88.43L51.9,101.74L53.05,97.58L54.2,101.17L55.36,39.74L56.51,95.27L57.66,95.11L58.82,93.14L59.97,83.21L61.12,46.5L62.28,53.02L63.43,13L64.58,21.63L65.74,60.53L66.89,29.47L69.2,82.43L70.35,47.98L71.5,92.29L72.66,84.96L73.81,72.78L74.96,91.7L76.12,93.97L77.27,89.56L78.42,98.01L79.58,96.03L81.88,88.09L83.04,97.07L84.19,95.67L85.34,91.53L86.5,82.88L87.65,91.36L88.8,32.75L89.96,82.15L92.26,87.84L93.42,96.28L94.57,70.58L95.72,68.56L96.88,77.92L98.03,76.73L99.18,43.64L100.33,80.27L101.49,68.37L102.64,67.91L104.95,84.18L106.1,67.53L107.25,89.99L108.41,95.3L109.56,113.77L110.71,93.97L111.87,105.42L113.02,127.26L114.17,145.79L115.33,129.05L116.48,144.25L117.63,138.65L118.79,144.91L119.94,165.38L122.25,182.7L123.4,184.29L124.55,211.15L125.71,207.68L126.86,212.05L128.01,225.65L129.17,191.72L130.32,193.56L132.63,235.81L133.78,208.21L134.93,242.98L136.09,247L137.24,243.26L138.39,246.38L139.55,231.48L140.7,231.6L141.85,229.2L143.01,208.25L144.16,197.84L145.31,206.63L147.62,189.9L148.77,193.26L153.39,135.31L154.54,82.78L155.69,98.28L156.85,127.45L158,94.07L159.15,91.5L160.31,98.35L161.46,80.17L162.61,45.9L163.76,51.61L164.92,90.91L166.07,13.62L167.22,63.06L168.38,70.99L169.53,23.66L170.68,29.85L172.99,56.35L174.14,50.79L175.3,16.06L176.45,67.69L177.6,82.06L178.76,37.27L179.91,71.29L181.06,76.67L182.22,75.1L183.37,88.06L185.68,76.43L186.83,66.56L187.98,60.94L189.14,88.29L190.29,92.11L191.44,81.83L192.6,82.87L193.75,97.28L194.9,91.88L196.06,95.3L197.21,97.79L198.36,96.44L200.67,97.85L201.82,91.11L202.98,94.62L204.13,94.55L205.28,95.43L206.44,98.79L207.59,96.32L208.74,96.88L209.9,94.15L211.05,96.54L212.2,96.9L213.36,94.52L214.51,101.8L215.66,102.95L217.97,109.84L219.12,110.72L220.28,116.7L221.43,111.83L223.74,125.13L224.89,144.69L226.04,143.91L227.19,157.57L228.35,161.07L229.5,178.74L230.65,176.56L231.81,158.9L232.96,201.77L234.11,211.93L235.27,215.08L236.42,210.4L237.57,221.76L238.73,222.47L239.88,214.87L241.03,224.87L242.19,227.61L243.34,234.49L244.49,238.01L245.65,235.34L246.8,231.16L247.95,235.52L250.26,233.52L251.41,234L252.57,231.7L253.72,225.29L254.87,224.98L256.03,217.33L257.18,209.93L258.33,207.73L261.79,182.01L262.95,168.23L264.1,163.8L265.25,151.8L266.41,132.97L267.56,145.42L269.87,131.42L271.02,117.36L272.17,91L273.33,102.97L275.63,105L276.79,105.11L279.09,79.05L280.25,96.63L281.4,85.22L282.55,86.42L283.71,90.49L284.86,88.19L286.01,89.47L287.17,88.42L288.32,98.58L289.47,97.95L291.78,93.86L292.93,98.73L294.08,98.73L295.24,84.75L296.39,61.49L297.54,89.35L298.7,79.53L299.85,85.56L301,95.34L302.16,98.58L303.31,96.78L304.46,86.89L305.62,78.88L306.77,97.05L307.92,83.8L309.08,98.48L310.23,98.66L311.38,97.18L313.69,83.81L314.84,89.66L317.15,99.99L318.3,99.15L319.46,92.96L320.61,92.71L324.07,96.1L325.22,94.52L328.68,104.66L329.84,111.85L330.99,114.46L332.14,120.08L336.76,159.7L337.91,155.39L339.06,162.22L340.22,164.56L341.37,173.83L342.52,174.03L343.68,178.75L344.83,177.85L347.14,188.44L348.29,176.78L349.44,191.94L350.6,192.81L354.06,229.04L355.21,228.65L356.36,228.74L357.51,231L358.67,220.88L359.82,224.9L360.97,224.16L362.13,216.44L363.28,199.4L364.43,196.33L365.59,194.5L366.74,189.11L367.89,187.83L369.05,176.65L372.51,175.35L373.66,172.37L374.81,159.39L375.97,156.64L378.27,148.22L379.43,125.88L381.73,122.74L382.89,114.07L384.04,105.7L385.19,112.38L386.35,108.57L387.5,96.41L388.65,87.67L389.81,89.16L390.96,63.35L392.11,72.08L393.27,70.48L394.42,71.52L395.57,74.6L396.73,46.74L399.03,91.47L400.19,79.38L401.34,93.39L402.49,90.18L403.65,74.91L404.8,90.58L407.11,71.41L408.26,92.07L409.41,93.17L410.57,86.57L411.72,94.55L412.87,94.76L414.03,97.53L415.18,93.35L416.33,92.58L417.49,96.26L418.64,95.74L419.79,97.26L423.25,93.67L424.4,97.09L427.86,94.14L429.02,99.85L430.17,98.57L431.32,100.59L432.48,97.9L433.63,99.14L434.78,102.23L435.94,100.9L437.09,101.93L438.24,105.81L441.7,120.03L442.86,124.9L447.47,155.69L448.62,151.04L449.78,176.96L450.93,185.52L453.24,199.56L454.39,204.35L456.7,221.68L457.85,220.85L461.31,235.22L462.46,229.85L463.62,224.74L464.77,238.12L465.92,241.59L467.08,237.65L468.23,237.19L469.38,235.33L470.54,237.95L471.69,227.98L472.84,218.64L474,218.15L475.15,205.89L476.3,205.35L477.46,208.52L478.61,204.47L479.76,198.65L480.92,187.59L483.22,183.56L484.38,171.45L485.53,166.59L486.68,153.26L488.99,126.55L490.14,124.81L491.29,125.2L492.45,114.79L493.6,113.86L494.75,106.21L495.91,109.54L497.06,107.62L499.37,92.21L500.52,97.76L501.67,100.17L502.83,97.04L503.98,93.49L505.13,99.01L506.29,96.77L507.44,90.28L508.59,83.39L509.75,91.03L510.9,91.56L512.05,98.56L513.21,97.87L514.36,98.56L515.51,94.38L516.67,75.64L517.82,99.12L518.97,88.47L520.13,97.29L521.28,99.95L530.51,100.58L531.66,97.19L533.97,100.58L535.12,100.57L538.58,100.1L539.73,99.71L542.04,100.59L543.19,97.93L544.35,98.16L545.5,100.69L546.65,93.52L547.81,97.59L548.96,95.99L550.11,92.99L551.26,101.6L552.42,98.97L554.72,103.62L555.88,102.65L557.03,102.06L558.18,104.61L559.34,109.45L560.49,109.13L561.64,110.76L562.8,108.49L566.26,126L567.41,128.98L569.72,124.34L570.87,118.41L572.02,117.76L573.18,109.07L574.33,106.85L575.48,99.45L576.64,109.06L577.79,108.15L578.94,106.39L580.1,111.28L581.25,113.93L582.4,113.61L583.56,106.75L584.71,112.94L587.02,108.77L588.17,108.83L589.32,98.61L590.48,106.69L595.09,121.67L596.24,120.26L597.4,118.75L598.55,114.81L600.86,108.86L602.01,117.23L603.16,115.62L604.32,108.38L605.47,104.34L606.62,89.5L607.78,96.43L608.93,90.49L610.08,99.78L611.24,100.35L612.39,58.38L613.54,66.88L614.69,92.29L615.85,49.62L618.15,97.31L619.31,79.61L620.46,90.26L621.61,91.25L622.77,52.28L623.92,85.38L626.23,78.23L627.38,92.98L628.53,88.47L629.69,92.67L630.84,96.57L631.99,93.03L633.15,90.37L634.3,98.28L635.45,96.35L636.61,98.75L638.91,97.77L640.07,98.91L641.22,100.58L642.37,99.82L644.68,100.58L645.83,100.44L648.14,96.87L649.29,95.27L650.45,99.47L651.6,94.66L653.91,100.06L655.06,95.55L656.21,97.95L657.37,102.26L659.67,105.97L660.83,110.83L664.29,124.41L665.44,133.62L668.9,153.21L670.05,160.69L675.82,201.59L676.97,206.88L679.28,216.16L680.43,221.6L682.74,230.73L683.89,231.43L685.04,231.53L686.2,233.84L687.35,238.02L688.5,237.4L691.96,235.11L693.12,232.83L696.58,225.95L697.73,221.63L702.34,202.2L703.5,195.45L708.11,165.77L709.26,157.49L712.72,128.75L713.88,121.24L715.03,101.12L716.18,107.31L717.34,109.65L718.49,101.84L719.64,93.31L720.8,98.06L721.95,101.4L723.1,87.1L724.26,89.3L725.41,96.21L726.56,99.01L727.72,99.01L728.87,95.12L730.02,98.34L736.94,98.57L738.1,99.24L746.17,99.95L747.32,100.36L751.93,100.58L753.09,99.63L755.39,99.69L756.55,100.57L757.7,99.79L758.85,100.57L762.31,98.17L763.47,100.09L764.62,100.59L765.77,98.77L770.39,107.4L771.54,111.54L775,124.09" style="vector-effect: non-scaling-stroke; fill: none; stroke: rgb(76, 120, 168); stroke-opacity: 1; stroke-width: 3px; opacity: 1;"/></g><g class="points"/><g class="text"/></g><g class="trace scatter trace3efc3f" style="stroke-miterlimit: 2; opacity: 1;"><g class="fills"/><g class="errorbars"/><g class="lines"><path class="js-line" d="M0,102.05L2.31,116.13L3.46,126.97L4.61,123.13L5.77,116.24L8.07,146.84L9.23,175.87L10.38,176.45L11.53,182.28L12.69,189.24L13.84,180.92L14.99,193.79L16.15,196.03L17.3,216.38L18.45,197.92L19.61,212.31L20.76,213.75L21.91,223.94L23.07,188.87L24.22,191.28L25.37,203.27L26.53,210.28L27.68,203.63L28.83,214.84L29.99,203.05L32.29,216.77L33.44,199.65L34.6,202.83L35.75,192.25L36.9,191.43L38.06,188.51L39.21,156.94L40.36,155L43.82,108.26L44.98,97.01L46.13,119.21L47.28,108.52L48.44,102.97L49.59,103.24L50.74,74.28L51.9,72.13L53.05,79.78L54.2,79.2L55.36,71.18L56.51,42.75L57.66,70.32L58.82,70.38L59.97,75.39L61.12,69.55L62.28,49.96L63.43,50.49L64.58,30.1L65.74,30.48L66.89,45.15L68.04,25.93L69.2,54.67L70.35,62.21L71.5,42.22L72.66,60.87L73.81,77.65L74.96,70.52L76.12,79.17L77.27,80.49L79.58,92L80.73,92.61L81.88,92.1L83.04,83.46L84.19,89.06L85.34,89.21L86.5,87.46L87.65,90.61L88.8,93.6L89.96,63.52L91.11,84.95L92.26,91.75L93.42,89.41L94.57,90L95.72,74.09L96.88,81.57L98.03,83.08L99.18,79.98L100.33,62.07L101.49,84.53L102.64,78.83L103.79,79.31L106.1,88.79L107.25,84.24L109.56,105.05L110.71,112.49L111.87,108.19L113.02,118.63L114.17,133.69L115.33,138.06L116.48,133.46L117.63,143.98L118.79,144.3L119.94,159.86L122.25,180.84L123.4,186.64L124.55,184.15L125.71,201.08L126.86,204.39L128.01,212.53L130.32,192.5L131.47,201.54L132.63,223.3L133.78,195.84L134.93,190.33L136.09,214.72L137.24,223.77L138.39,209.83L139.55,215.76L140.7,211.73L141.85,213.54L143.01,217.08L145.31,195.89L146.47,195.08L147.62,196.09L148.77,183.95L149.93,176.84L151.08,160.43L154.54,114.98L155.69,81.72L156.85,110.59L158,118.52L159.15,97.24L160.31,91.76L163.76,49.76L164.92,53.19L166.07,61.66L167.22,25.29L168.38,49.65L169.53,53.35L170.68,36.2L171.84,38.03L174.14,46.13L175.3,42.28L176.45,21.64L177.6,42.37L178.76,45L179.91,37.85L181.06,50.36L182.22,49.54L183.37,45.98L184.52,72.51L187.98,60.5L189.14,66.03L190.29,80.5L191.44,83.89L192.6,80.58L193.75,74.1L194.9,82.32L196.06,80.55L197.21,82.45L198.36,91.01L201.82,85.81L202.98,87.6L204.13,86.05L205.28,82.58L206.44,79.56L207.59,89.7L209.9,83.39L211.05,80.21L212.2,86.22L213.36,86.47L214.51,86.05L215.66,90.89L216.82,91.82L217.97,96.88L220.28,106.84L221.43,108.39L222.58,111.46L223.74,121.19L226.04,132.69L227.19,135.78L229.5,150.27L230.65,171.35L231.81,172.76L232.96,167.09L234.11,191.23L235.27,192.96L237.57,198.48L238.73,208.65L239.88,190.11L241.03,194.48L243.34,218.99L244.49,188.17L246.8,205.1L247.95,210.73L249.11,201.25L250.26,205.37L253.72,214.85L254.87,209.88L256.03,206.41L257.18,198.08L258.33,200.02L259.49,191.28L266.41,116.05L267.56,128.65L268.71,128.88L269.87,120.26L271.02,113.43L272.17,86.56L273.33,74.11L274.48,80.62L275.63,82.3L276.79,72.29L277.94,73.31L279.09,66.78L280.25,61.15L281.4,75.35L282.55,68.84L283.71,67.62L284.86,67.02L286.01,64.91L288.32,57.25L289.47,58L290.63,72.31L291.78,67.31L292.93,63.29L294.08,62.97L295.24,83.37L296.39,75.45L297.54,63.82L298.7,77.58L301,85.47L302.16,91.85L303.31,95.16L304.46,87.4L306.77,81.04L307.92,90.15L309.08,91.18L310.23,97.25L311.38,95.64L312.54,92.62L313.69,94.65L314.84,88.07L317.15,87.06L318.3,97.65L321.76,86.97L322.92,92.48L327.53,96.93L328.68,102.11L330.99,114.94L332.14,114.77L335.6,140.16L336.76,141.91L337.91,149.03L339.06,149.09L340.22,154.37L341.37,166.99L342.52,171.6L343.68,172.22L344.83,175.61L345.98,169.65L348.29,181.2L349.44,180.35L350.6,168.86L351.75,180.93L354.06,217.37L355.21,193.41L358.67,215.18L359.82,197.59L360.97,201.54L362.13,201.94L367.89,177.22L369.05,182.25L371.35,164.06L372.51,156.73L373.66,151.88L374.81,142.43L377.12,120.63L378.27,140.19L379.43,133.72L380.58,118.53L381.73,114.25L382.89,93.84L385.19,85.43L386.35,88.99L388.65,71.29L389.81,67.46L390.96,67.95L392.11,61.08L393.27,64.15L394.42,61.43L395.57,59.22L396.73,59.56L397.88,42.24L399.03,53.94L400.19,55.36L401.34,64L402.49,66.86L403.65,61.88L404.8,51.72L405.95,79.55L408.26,68.46L409.41,78.62L410.57,87.38L411.72,85.45L412.87,90.84L414.03,92.58L415.18,86.91L416.33,86.14L417.49,86.58L418.64,88.6L419.79,95.67L420.94,95.29L423.25,89.77L424.4,94.38L425.56,92.76L426.71,88.81L427.86,84.91L429.02,92.87L430.17,92.65L431.32,89.54L432.48,88.62L433.63,92.14L434.78,92.89L435.94,95.18L438.24,96.88L439.4,102.2L441.7,113.98L442.86,114.88L446.32,140.4L447.47,141.16L448.62,146.24L449.78,147.28L453.24,186.92L454.39,191.7L455.54,197.42L456.7,199.38L460.16,219.06L461.31,204.11L463.62,217.85L464.77,223.81L465.92,195.06L467.08,204.65L469.38,217.46L470.54,204.54L471.69,210.06L472.84,208.24L474,205.32L475.15,209.62L477.46,197.28L478.61,193.69L479.76,196.77L480.92,186.77L483.22,164.6L484.38,157.56L487.83,113.44L488.99,127.76L490.14,117.19L491.29,113.85L492.45,112.46L493.6,89.65L494.75,89.02L495.91,85.59L497.06,87.68L498.21,76.05L500.52,70.03L501.67,72.57L502.83,79.41L503.98,76.86L505.13,73.31L506.29,73.37L507.44,71.25L508.59,64.36L509.75,56.96L510.9,56.45L512.05,71.29L513.21,70.87L515.51,64.86L516.67,83.2L517.82,72.96L518.97,83.86L520.13,79L521.28,91.58L523.59,95.83L524.74,97.51L525.89,90.64L527.05,92.17L529.35,93.38L530.51,100.78L531.66,99.85L532.81,96.49L533.97,95.08L535.12,100.86L538.58,90.81L539.73,99.11L542.04,93.88L543.19,92.11L544.35,95.69L545.5,95.31L546.65,96.69L547.81,93.98L550.11,96.79L551.26,97.34L552.42,103.53L553.57,99.1L555.88,104.65L557.03,105.26L558.18,96.97L559.34,99.16L560.49,102.17L561.64,102.52L562.8,113.33L563.95,113.06L566.26,123.1L567.41,119.66L569.72,123.77L570.87,125.9L572.02,102.84L573.18,107.5L574.33,109.1L575.48,114.43L576.64,73.63L577.79,87.01L580.1,102.3L581.25,93.44L583.56,104.24L584.71,103.72L585.86,112.45L587.02,110.77L589.32,104.68L590.48,106.6L591.63,107.06L592.78,105.05L595.09,101.91L596.24,97.51L598.55,85.76L599.7,108.33L602.01,102.63L603.16,106.67L604.32,89.67L605.47,85.82L606.62,83.96L607.78,77.09L608.93,69.54L610.08,67.39L611.24,72.12L612.39,72.03L613.54,57.22L614.69,60.09L615.85,70.32L617,46.92L619.31,64.76L620.46,51.94L621.61,52.68L622.77,67.54L623.92,44.73L625.07,57.19L626.23,52.96L627.38,71.01L628.53,76.73L629.69,73.91L630.84,76.02L631.99,86.02L634.3,85.61L635.45,90.95L636.61,82.91L637.76,85.21L640.07,85.55L641.22,93.31L642.37,92.89L643.53,90.63L644.68,88.47L645.83,93.36L649.29,81L650.45,88.59L651.6,87.53L652.75,82.59L653.91,82.49L655.06,87.88L656.21,85.6L657.37,87.32L658.52,90.54L659.67,91.41L663.13,108.13L664.29,109.01L667.75,132.86L668.9,131.93L671.21,143.29L672.36,150.33L673.51,168.24L674.67,173.53L676.97,184.97L678.13,183.65L680.43,197.48L681.58,206.35L682.74,191.27L683.89,200.39L686.2,217L687.35,182.9L690.81,207.11L691.96,194.77L694.27,201.18L695.42,202.05L696.58,205.87L697.73,202.86L700.04,190.72L701.19,194.14L705.8,151.4L706.96,139.41L709.26,115.41L710.42,133.07L713.88,104.36L715.03,80.52L716.18,71L717.34,74.62L718.49,76.6L719.64,62.5L720.8,59.35L721.95,62.17L723.1,63.68L724.26,62.5L725.41,62.51L726.56,63.99L728.87,61.69L730.02,56.05L732.33,49.35L733.48,63.94L736.94,54.29L738.1,74.68L740.4,73.43L741.56,73.74L742.71,82.11L743.86,83.84L746.17,87.29L747.32,80.42L749.63,82.96L750.78,83.34L751.93,90.81L753.09,89.95L755.39,85.55L756.55,90.78L760.01,81.43L761.16,89.67L763.47,83.72L764.62,82.9L765.77,88.11L766.93,87.56L770.39,93.85L771.54,98.39L773.85,109.8L775,110.33" style="vector-effect: non-scaling-stroke; fill: none; stroke: rgb(255, 127, 14); stroke-opacity: 0.7; stroke-width: 3px; opacity: 1;"/></g><g class="points"/><g class="text"/></g></g></g><g class="overplot"/><path class="xlines-above crisp" d="M0,0" style="fill: none;"/><path class="ylines-above crisp" d="M74,50V310" style="fill: none; stroke-width: 2px; stroke: rgb(0, 0, 0); stroke-opacity: 1;"/><g class="overlines-above"/><g class="xaxislayer-above"><g class="xtick"><text text-anchor="middle" x="0" y="330" transform="translate(158.04000000000002,0)" style="font-family: 'Open Sans', verdana, arial, sans-serif; font-size: 19px; fill: rgb(42, 63, 95); fill-opacity: 1; white-space: pre; opacity: 1;"><tspan class="line" dy="0em" x="0" y="330">May 31</tspan><tspan class="line" dy="1.3em" x="0" y="330">2019</tspan></text></g><g class="xtick"><text text-anchor="middle" x="0" y="330" style="font-family: 'Open Sans', verdana, arial, sans-serif; font-size: 19px; fill: rgb(42, 63, 95); fill-opacity: 1; white-space: pre; opacity: 1;" transform="translate(268.75,0)">Jun 1</text></g><g class="xtick"><text text-anchor="middle" x="0" y="330" style="font-family: 'Open Sans', verdana, arial, sans-serif; font-size: 19px; fill: rgb(42, 63, 95); fill-opacity: 1; white-space: pre; opacity: 1;" transform="translate(379.46,0)">Jun 2</text></g><g class="xtick"><text text-anchor="middle" x="0" y="330" style="font-family: 'Open Sans', verdana, arial, sans-serif; font-size: 19px; fill: rgb(42, 63, 95); fill-opacity: 1; white-space: pre; opacity: 1;" transform="translate(490.18,0)">Jun 3</text></g><g class="xtick"><text text-anchor="middle" x="0" y="330" style="font-family: 'Open Sans', verdana, arial, sans-serif; font-size: 19px; fill: rgb(42, 63, 95); fill-opacity: 1; white-space: pre; opacity: 1;" transform="translate(600.89,0)">Jun 4</text></g><g class="xtick"><text text-anchor="middle" x="0" y="330" style="font-family: 'Open Sans', verdana, arial, sans-serif; font-size: 19px; fill: rgb(42, 63, 95); fill-opacity: 1; white-space: pre; opacity: 1;" transform="translate(711.61,0)">Jun 5</text></g><g class="xtick"><text text-anchor="middle" x="0" y="330" style="font-family: 'Open Sans', verdana, arial, sans-serif; font-size: 19px; fill: rgb(42, 63, 95); fill-opacity: 1; white-space: pre; opacity: 1;" transform="translate(822.32,0)">Jun 6</text></g></g><g class="yaxislayer-above"><g class="ytick"><text text-anchor="end" x="69.2" y="6.6499999999999995" transform="translate(0,270.97)" style="font-family: 'Open Sans', verdana, arial, sans-serif; font-size: 19px; fill: rgb(42, 63, 95); fill-opacity: 1; white-space: pre; opacity: 1;">−2</text></g><g class="ytick"><text text-anchor="end" x="69.2" y="6.6499999999999995" style="font-family: 'Open Sans', verdana, arial, sans-serif; font-size: 19px; fill: rgb(42, 63, 95); fill-opacity: 1; white-space: pre; opacity: 1;" transform="translate(0,211.05)">−1</text></g><g class="ytick"><text text-anchor="end" x="69.2" y="6.6499999999999995" style="font-family: 'Open Sans', verdana, arial, sans-serif; font-size: 19px; fill: rgb(42, 63, 95); fill-opacity: 1; white-space: pre; opacity: 1;" transform="translate(0,151.14)">0</text></g><g class="ytick"><text text-anchor="end" x="69.2" y="6.6499999999999995" style="font-family: 'Open Sans', verdana, arial, sans-serif; font-size: 19px; fill: rgb(42, 63, 95); fill-opacity: 1; white-space: pre; opacity: 1;" transform="translate(0,91.22)">1</text></g></g><g class="overaxes-above"/></g></g><g class="polarlayer"/><g class="ternarylayer"/><g class="geolayer"/><g class="funnelarealayer"/><g class="pielayer"/><g class="iciclelayer"/><g class="treemaplayer"/><g class="sunburstlayer"/><g class="glimages"/><defs id="topdefs-b99e38"><g class="clips"/></defs><g class="layer-above"><g class="imagelayer"/><g class="shapelayer"/></g><g class="infolayer"><g class="g-gtitle"/><g class="g-xtitle"/><g class="g-ytitle" transform="translate(12.537109375,0)"><text class="ytitle" transform="rotate(-90,10.462500000000006,180)" x="10.462500000000006" y="180" text-anchor="middle" style="font-family: 'Open Sans', verdana, arial, sans-serif; font-size: 23px; fill: rgb(42, 63, 95); opacity: 1; font-weight: normal; white-space: pre;">Netload [kW]</text></g></g></svg>