<svg class="main-svg" xmlns="http://www.w3.org/2000/svg" xmlns:xlink="http://www.w3.org/1999/xlink" width="900" height="400" viewBox="0 0 900 400"><rect x="0" y="0" width="900" height="400" style="fill: rgb(255, 255, 255); fill-opacity: 1;"/><defs id="defs-f6799a"><g class="clips"><clipPath id="clipf6799axyplot" class="plotclip"><rect width="775" height="260"/></clipPath><clipPath class="axesclip" id="clipf6799ax"><rect x="75" y="0" width="775" height="400"/></clipPath><clipPath class="axesclip" id="clipf6799ay"><rect x="0" y="50" width="900" height="260"/></clipPath><clipPath class="axesclip" id="clipf6799axy"><rect x="75" y="50" width="775" height="260"/></clipPath></g><g class="gradients"/><g class="patterns"/></defs><g class="bglayer"/><g class="layer-below"><g class="imagelayer"/><g class="shapelayer"/></g><g class="cartesianlayer"><g class="subplot xy"><g class="layer-subplot"><g class="shapelayer"/><g class="imagelayer"/></g><g class="gridlayer"><g class="x"><path class="xgrid crisp" transform="translate(158.04000000000002,0)" d="M0,50v260" style="stroke: rgb(235, 240, 248); stroke-opacity: 1; stroke-width: 1px;"/><path class="xgrid crisp" transform="translate(268.75,0)" d="M0,50v260" style="stroke: rgb(235, 240, 248); stroke-opacity: 1; stroke-width: 1px;"/><path class="xgrid crisp" transform="translate(379.46,0)" d="M0,50v260" style="stroke: rgb(235, 240, 248); stroke-opacity: 1; stroke-width: 1px;"/><path class="xgrid crisp" transform="translate(490.18,0)" d="M0,50v260" style="stroke: rgb(235, 240, 248); stroke-opacity: 1; stroke-width: 1px;"/><path class="xgrid crisp" transform="translate(600.89,0)" d="M0,50v260" style="stroke: rgb(235, 240, 248); stroke-opacity: 1; stroke-width: 1px;"/><path class="xgrid crisp" transform="translate(711.61,0)" d="M0,50v260" style="stroke: rgb(235, 240, 248); stroke-opacity: 1; stroke-width: 1px;"/><path class="xgrid crisp" transform="translate(822.32,0)" d="M0,50v260" style="stroke: rgb(235, 240, 248); stroke-opacity: 1; stroke-width: 1px;"/></g><g class="y"><path class="ygrid crisp" transform="translate(0,281.61)" d="M75,0h775" style="stroke: rgb(235, 240, 248); stroke-opacity: 1; stroke-width: 1px;"/><path class="ygrid crisp" transform="translate(0,241.43)" d="M75,0h775" style="stroke: rgb(235, 240, 248); stroke-opacity: 1; stroke-width: 1px;"/><path class="ygrid crisp" transform="translate(0,161.06)" d="M75,0h775" style="stroke: rgb(235, 240, 248); stroke-opacity: 1; stroke-width: 1px;"/><path class="ygrid crisp" transform="translate(0,120.88)" d="M75,0h775" style="stroke: rgb(235, 240, 248); stroke-opacity: 1; stroke-width: 1px;"/><path class="ygrid crisp" transform="translate(0,80.69)" d="M75,0h775" style="stroke: rgb(235, 240, 248); stroke-opacity: 1; stroke-width: 1px;"/></g></g><g class="zerolinelayer"><path class="yzl zl crisp" transform="translate(0,201.25)" d="M75,0h775" style="stroke: rgb(0, 0, 0); stroke-opacity: 1; stroke-width: 2px;"/></g><path class="xlines-below"/><path class="ylines-below"/><g class="overlines-below"/><g class="xaxislayer-below"/><g class="yaxislayer-below"/><g class="overaxes-below"/><g class="plot" transform="translate(75,50)" clip-path="url(#clipf6799axyplot)"><g class="scatterlayer mlayer"><g class="trace scatter trace0b5190" style="stroke-miterlimit: 2; opacity: 1;"><g class="fills"/><g class="errorbars"/><g class="lines"><path class="js-line" d="M0,164.56L1.15,169.08L2.31,176.76L3.46,184.26L4.61,183.94L6.92,194.49L8.07,204.87L11.53,216.62L12.69,216.99L13.84,222.54L14.99,216.66L16.15,233.04L17.3,232.72L18.45,239.12L19.61,240.95L20.76,242.06L21.91,244.97L23.07,241.79L24.22,244.41L25.37,240.54L26.53,246.97L27.68,247L28.83,242.5L29.99,242.38L31.14,240.12L32.29,239.52L33.44,236.21L36.9,221.26L38.06,205.01L39.21,186.64L40.36,185.06L42.67,182.87L43.82,174.55L46.13,162.85L47.28,159.78L49.59,149.65L50.74,151.66L51.9,147.57L53.05,151.91L55.36,142.27L56.51,147.58L57.66,140.28L58.82,143.36L59.97,135.76L61.12,140.43L62.28,136.73L63.43,141.8L64.58,138.7L65.74,138.98L66.89,140.85L68.04,136.15L69.2,125.7L70.35,103.38L71.5,13L72.66,129.5L73.81,81.43L74.96,128.79L76.12,130.97L77.27,140.52L80.73,145.83L81.88,148.77L84.19,148.89L85.34,150.29L87.65,149.77L88.8,150.63L92.26,148.75L93.42,149.03L95.72,144.51L96.88,144.25L98.03,149.69L99.18,149.94L100.33,143.41L101.49,142L102.64,142.87L103.79,145.69L106.1,148.79L107.25,155.7L108.41,160.25L109.56,160.71L110.71,164.18L111.87,172.1L113.02,174.09L114.17,184.25L117.63,202.45L118.79,207.44L121.09,216.09L122.25,217.47L123.4,219.79L124.55,211.84L125.71,224.81L126.86,216.76L129.17,238.96L130.32,235.53L131.47,225.68L132.63,231.17L133.78,230.02L134.93,239.44L137.24,241.76L138.39,244.76L139.55,238.63L140.7,240.66L141.85,231.14L143.01,231.86L144.16,221.46L145.31,230.03L146.47,222.22L147.62,226.66L149.93,208L151.08,207.16L152.23,203.8L153.39,195.77L156.85,183.06L158,172.05L161.46,150.45L162.61,115.73L163.76,151.39L164.92,149.39L166.07,140.69L167.22,144.47L168.38,146.68L169.53,124.5L170.68,119.1L171.84,138.5L172.99,140.62L174.14,138.38L175.3,137.46L176.45,129.04L177.6,125.47L178.76,72.45L179.91,115.54L181.06,130.34L183.37,143.02L184.52,139.23L186.83,123.15L187.98,127.01L189.14,123.62L190.29,141.83L191.44,143.17L192.6,147.39L193.75,148.31L194.9,142.86L196.06,147.89L197.21,148.14L198.36,150.38L199.52,149.95L202.98,149.96L204.13,150.69L207.59,149.63L208.74,147.49L209.9,147.63L211.05,119.46L212.2,143.05L213.36,140.48L214.51,135.1L215.66,146.47L216.82,148.09L217.97,141.17L220.28,160.81L221.43,157.18L223.74,178.06L224.89,185.18L235.27,230.56L236.42,229.89L237.57,227.97L238.73,228.96L239.88,227.63L241.03,231.61L242.19,231.39L243.34,232.59L245.65,240.62L246.8,232.85L247.95,236.46L249.11,225.97L250.26,235.96L251.41,230.15L252.57,236.35L253.72,235.71L254.87,226.88L256.03,229.22L260.64,207.57L261.79,205.04L265.25,191.66L266.41,183L267.56,178.42L268.71,168.76L269.87,166.15L271.02,160.15L272.17,159.4L273.33,155.63L274.48,153.11L275.63,153.33L276.79,147.33L277.94,129.05L279.09,146.43L280.25,144.95L281.4,142.52L282.55,146.03L284.86,139.65L286.01,141.68L287.17,140.71L288.32,126.16L289.47,134.69L290.63,81.91L292.93,130.48L294.08,137.62L295.24,142.88L296.39,140.96L297.54,137.73L298.7,143.01L299.85,127.89L301,130.47L302.16,125.32L303.31,134.13L304.46,146.48L305.62,144.16L306.77,148.35L307.92,148.99L310.23,149.67L311.38,149.92L313.69,147.43L314.84,147.36L316,148.43L317.15,143.24L318.3,147.61L319.46,146.92L320.61,146.2L321.76,147.67L322.92,146.06L324.07,146.21L325.22,148.24L326.38,146.64L327.53,148.75L328.68,153.54L330.99,162.37L332.14,156.74L333.3,168.02L334.45,169.38L336.76,189.16L337.91,191.63L339.06,193.58L340.22,199.98L341.37,206.27L342.52,202.65L343.68,205.8L344.83,203.02L345.98,206.03L347.14,204.52L348.29,201.29L349.44,201.86L350.6,206.11L351.75,216.34L355.21,238.81L356.36,237.83L357.51,235.56L358.67,230.6L359.82,231.26L360.97,224.92L364.43,204.14L365.59,206.51L366.74,210.25L367.89,207.68L369.05,206.05L370.2,202.11L371.35,201.81L372.51,200.04L374.81,194.93L375.97,189.93L379.43,176.67L380.58,166.57L381.73,162.89L382.89,161.7L385.19,156.04L386.35,152.22L387.5,145.44L388.65,144.8L390.96,149.17L392.11,142.53L394.42,149.58L395.57,147.76L396.73,149.95L397.88,146.96L399.03,146.31L400.19,148.49L404.8,138.25L405.95,98.6L407.11,138.33L408.26,119.19L409.41,142.75L410.57,139.07L411.72,146.75L412.87,147.02L414.03,147.38L415.18,144.74L416.33,145.74L417.49,148.16L420.94,150.48L422.1,150.45L424.4,149.46L425.56,150.1L427.86,146.17L429.02,147.44L430.17,149.89L431.32,148.64L432.48,147.31L433.63,148.66L435.94,147.83L437.09,138.71L438.24,151.53L439.4,152.1L440.55,150.72L441.7,158L445.16,174.99L446.32,180.66L448.62,189.63L449.78,200.7L450.93,200.98L452.08,211.38L453.24,211.13L454.39,218.23L455.54,219.53L456.7,223.97L457.85,218.26L459,229.79L461.31,241.25L462.46,239.76L463.62,237.64L464.77,238.85L467.08,243.85L468.23,242.07L469.38,235.29L470.54,237.47L471.69,229.72L472.84,231.22L474,228.81L475.15,231.54L476.3,228.64L477.46,220.46L479.76,217.61L480.92,210.55L482.07,210.64L483.22,203.38L484.38,201.33L485.53,194.52L488.99,168.69L490.14,164.18L491.29,160.68L492.45,164.8L494.75,157.31L495.91,156.49L498.21,149.3L499.37,149.6L500.52,147.59L501.67,142.06L502.83,149.7L503.98,149.55L505.13,149.38L506.29,148.15L507.44,146.7L508.59,141.7L510.9,149.56L512.05,145.69L513.21,148.39L514.36,144.8L515.51,139.75L516.67,147.04L517.82,145.58L518.97,148.09L520.13,147.52L521.28,135.94L523.59,146.02L524.74,147.98L525.89,150.14L527.05,149.05L528.2,149.73L529.35,148.36L531.66,150.02L532.81,146.42L533.97,146.88L535.12,149.92L536.27,145.99L537.43,148.1L538.58,145.06L539.73,147.4L540.89,146.22L542.04,147.43L543.19,147.35L544.35,149.7L545.5,149.58L546.65,147.01L547.81,149.41L548.96,149.81L550.11,145.98L551.26,147.53L552.42,147.16L553.57,145.25L554.72,134.29L555.88,152.38L558.18,153.2L559.34,156.36L561.64,153.36L562.8,159.7L563.95,157.36L565.1,163.61L567.41,161.45L568.56,148.12L569.72,153.58L570.87,141.4L572.02,155.05L573.18,147.85L574.33,150.93L575.48,148.94L576.64,155.12L577.79,144.82L578.94,144.4L580.1,148.3L581.25,152.77L582.4,142.75L583.56,146.89L584.71,142.13L585.86,128.68L587.02,149.07L588.17,152.04L589.32,149.89L591.63,147.66L592.78,143.31L593.94,154.12L595.09,151.95L596.24,162.74L597.4,156.53L598.55,157.14L599.7,153.36L600.86,157.6L602.01,156.84L603.16,154.76L604.32,158.03L605.47,149.37L606.62,152.5L610.08,147.43L611.24,150.65L612.39,142.73L613.54,142.28L614.69,143.75L615.85,149.61L617,145.8L618.15,147.03L619.31,148.73L620.46,147.1L621.61,145.78L622.77,137.53L623.92,137.93L625.07,142.2L626.23,142.3L627.38,137L628.53,137.39L629.69,135.09L630.84,78.72L631.99,129.32L633.15,118.44L634.3,134.04L635.45,143.84L636.61,145L638.91,145.81L640.07,143.49L641.22,148.5L642.37,145.55L643.53,144.17L644.68,147.24L645.83,145.26L646.99,145.04L648.14,146.54L649.29,146.68L650.45,148.35L651.6,144.83L653.91,136.58L655.06,144.93L656.21,145.49L657.37,139.73L658.52,132.97L659.67,147.53L660.83,148.78L661.98,157.12L663.13,154.83L664.29,155.83L666.59,169.52L667.75,175.26L672.36,198.42L673.51,208.18L674.67,210.39L675.82,214.3L676.97,218.44L678.13,219.05L680.43,223.54L681.58,230.55L682.74,235.42L683.89,235.63L685.04,234.69L686.2,230.21L687.35,235.55L688.5,237.05L689.66,237.44L690.81,217.15L691.96,214.17L693.12,216.01L694.27,223.97L695.42,226.57L697.73,228.23L698.88,224.07L702.34,214.96L703.5,207.51L704.65,198.03L705.8,203.44L706.96,198.37L708.11,187.29L710.42,182.13L711.57,177.48L715.03,153.24L716.18,148.75L717.34,151.99L718.49,152.24L719.64,149.12L720.8,150.99L721.95,148.33L723.1,150.19L724.26,142.07L725.41,144.11L726.56,144.12L727.72,142.02L728.87,141.72L730.02,142.21L731.18,145.63L732.33,143.34L733.48,139.32L734.64,141.44L735.79,145.83L736.94,143.97L738.1,134.52L739.25,142.5L741.56,146.09L742.71,142.34L743.86,141.85L745.01,144.01L746.17,138.67L747.32,149.24L748.47,149.03L749.63,145.17L751.93,149.75L753.09,149.73L758.85,148.53L760.01,146.67L761.16,150.14L762.31,150L763.47,149.81L764.62,150.42L769.23,147.09L770.39,149.27L771.54,148.2L772.69,155L775,159.32" style="vector-effect: non-scaling-stroke; fill: none; stroke: rgb(76, 120, 168); stroke-opacity: 1; stroke-width: 3px; opacity: 1;"/></g><g class="points"/><g class="text"/></g><g class="trace scatter trace37293a" style="stroke-miterlimit: 2; opacity: 1;"><g class="fills"/><g class="errorbars"/><g class="lines"><path class="js-line" d="M0,156.98L2.31,167.85L3.46,174.42L6.92,191.84L8.07,197.81L10.38,210.99L11.53,215.56L12.69,219.83L13.84,219.85L17.3,225.18L18.45,231.91L21.91,240.78L23.07,239.14L25.37,239.56L26.53,240.03L28.83,233.33L29.99,231.72L31.14,229.79L32.29,230.68L34.6,225.39L35.75,221.59L36.9,219.51L38.06,212.35L43.82,171.33L44.98,163.63L47.28,156.75L48.44,152.61L50.74,146.58L51.9,144.87L54.2,142.45L55.36,143.07L58.82,141.62L59.97,139.16L63.43,135.82L64.58,135.35L68.04,133.25L69.2,131.42L71.5,130.28L72.66,130.28L73.81,125.2L74.96,124.11L77.27,125.18L78.42,130.56L81.88,139L83.04,139.91L87.65,144.73L88.8,145.31L92.26,145.25L93.42,144.57L96.88,142.15L98.03,141.32L101.49,139.15L102.64,139.56L106.1,142.85L107.25,146.03L111.87,161.4L113.02,168.11L119.94,205.54L121.09,210.95L123.4,219.78L124.55,219.81L128.01,225.18L129.17,231.93L132.63,241.51L133.78,240.17L136.09,240.53L137.24,240.87L139.55,234.11L140.7,232.71L141.85,231.04L143.01,232.24L145.31,227.51L146.47,223.96L147.62,222.14L148.77,217.16L155.69,180.7L156.85,178.06L162.61,150.2L163.76,147.38L164.92,145.09L166.07,144.67L169.53,142.15L170.68,139.48L174.14,136.1L175.3,135.64L178.76,133.6L179.91,131.78L182.22,130.66L183.37,130.67L184.52,125.61L185.68,124.53L187.98,125.63L189.14,131.03L192.6,139.52L193.75,140.45L198.36,145.37L199.52,145.98L202.98,146.01L204.13,145.35L207.59,143.03L208.74,142.23L212.2,140.17L213.36,140.56L216.82,143.71L217.97,146.89L222.58,162.8L223.74,169.94L228.35,193.25L229.5,198.92L231.81,211.64L232.96,216.1L234.11,220.27L235.27,220.21L238.73,220.25L239.88,224.76L243.34,234.59L244.49,234.02L247.95,236.88L249.11,232.84L252.57,228.81L253.72,230.29L256.03,226.25L257.18,223.07L258.33,221.63L259.49,217.07L267.56,180.27L268.71,174.68L272.17,157.09L273.33,153.69L275.63,148.93L276.79,148.66L280.25,145.74L281.4,142.87L284.86,139.34L286.01,138.87L289.47,136.86L290.63,135.06L292.93,133.95L294.08,133.95L295.24,128.89L296.39,127.81L298.7,128.9L299.85,134.29L303.31,142.75L304.46,143.66L309.08,148.5L310.23,149.09L313.69,149.04L314.84,148.36L318.3,145.94L319.46,145.1L322.92,142.92L324.07,143.34L327.53,146.67L328.68,149.79L330.99,158.17L332.14,159.4L341.37,202.23L342.52,204.71L344.83,206.71L345.98,203.11L348.29,201.25L349.44,200.96L351.75,212.28L352.9,220.07L355.21,233.7L356.36,235.86L358.67,237.17L359.82,231.75L364.43,213.84L365.59,210.82L369.05,202.97L370.2,200.27L372.51,193.43L373.66,193.54L377.12,179.18L378.27,178.29L385.19,151.87L386.35,149.12L390.96,144.45L392.11,141.5L395.57,137.82L396.73,137.3L400.19,135.12L401.34,133.25L403.65,132.02L404.8,131.97L405.95,126.85L407.11,125.71L409.41,126.7L410.57,132.04L414.03,140.36L415.18,141.23L419.79,145.91L420.94,146.46L424.4,146.32L425.56,145.6L429.02,143.11L430.17,142.25L433.63,140.02L434.78,140.46L438.24,143.92L439.4,147.02L444.01,162.23L445.16,168.66L452.08,206.08L453.24,211.44L455.54,220.08L456.7,220.01L460.16,224.1L461.31,230.34L464.77,237.86L465.92,235.79L468.23,235.66L469.38,235.89L471.69,228.8L472.84,227.04L474,224.97L475.15,225.73L477.46,220.29L478.61,216.42L479.76,214.29L480.92,209.95L485.53,190.46L486.68,181.8L488.99,168.15L490.14,163.72L492.45,156.51L493.6,154.87L498.21,147.38L499.37,146.27L501.67,143.81L502.83,140.86L506.29,137.31L507.44,136.85L510.9,134.88L512.05,133.08L514.36,131.99L515.51,132.01L516.67,126.96L517.82,125.89L520.13,127.01L521.28,132.42L524.74,140.93L525.89,141.87L530.51,146.8L531.66,147.41L535.12,147.44L536.27,146.78L539.73,144.44L540.89,143.63L544.35,141.55L545.5,141.42L548.96,142.24L550.11,143.41L552.42,147.07L553.57,145.73L555.88,148.65L557.03,150.32L558.18,149.82L559.34,151.31L561.64,154.87L562.8,158.45L566.26,164.23L567.41,161.75L570.87,155.94L572.02,158.59L574.33,157.42L575.48,156.66L576.64,151.58L577.79,150.88L580.1,152.89L581.25,149.46L583.56,149.29L584.71,149.27L585.86,152.1L587.02,152.64L589.32,151.22L590.48,152.08L593.94,152.99L595.09,157.05L596.24,156.63L597.4,154.79L598.55,152.71L599.7,154.96L603.16,154.32L604.32,155.43L606.62,152.14L607.78,150.05L610.08,147.94L611.24,146.5L612.39,145.1L613.54,141.99L617,138.17L618.15,137.65L621.61,135.49L622.77,133.63L625.07,132.41L626.23,132.36L627.38,127.24L628.53,126.1L630.84,127.08L631.99,132.41L635.45,140.71L636.61,141.57L641.22,146.2L642.37,146.74L645.83,146.54L646.99,145.81L650.45,143.25L651.6,142.37L655.06,140.06L656.21,140.36L659.67,143.23L660.83,146.36L666.59,167.83L667.75,173.87L671.21,189.8L672.36,195.36L674.67,207.46L675.82,211.19L676.97,214.56L678.13,213.64L680.43,216.76L681.58,218.89L683.89,229.28L685.04,231.77L686.2,234.28L687.35,232.36L689.66,232.38L690.81,232.68L693.12,226.09L694.27,224.89L695.42,223.44L696.58,224.87L698.88,221L700.04,217.94L701.19,216.62L702.34,212.21L715.03,152.65L716.18,149.17L718.49,144.25L719.64,143.92L723.1,141.08L724.26,138.26L727.72,134.69L728.87,134.2L732.33,132.08L733.48,130.24L735.79,129.07L736.94,129.06L738.1,123.97L739.25,122.87L741.56,123.92L742.71,129.29L746.17,137.71L747.32,138.62L751.93,143.44L753.09,144.02L756.55,143.98L757.7,143.3L761.16,140.91L762.31,140.09L765.77,137.95L766.93,138.46L770.39,142.17L771.54,145.21L773.85,153.24L775,154.24" style="vector-effect: non-scaling-stroke; fill: none; stroke: rgb(255, 127, 14); stroke-opacity: 0.7; stroke-width: 3px; opacity: 1;"/></g><g class="points"/><g class="text"/></g></g></g><g class="overplot"/><path class="xlines-above crisp" d="M0,0" style="fill: none;"/><path class="ylines-above crisp" d="M74,50V310" style="fill: none; stroke-width: 2px; stroke: rgb(0, 0, 0); stroke-opacity: 1;"/><g class="overlines-above"/><g class="xaxislayer-above"><g class="xtick"><text text-anchor="middle" x="0" y="330" transform="translate(158.04000000000002,0)" style="font-family: 'Open Sans', verdana, arial, sans-serif; font-size: 19px; fill: rgb(42, 63, 95); fill-opacity: 1; white-space: pre; opacity: 1;"><tspan class="line" dy="0em" x="0" y="330">May 31</tspan><tspan class="line" dy="1.3em" x="0" y="330">2019</tspan></text></g><g class="xtick"><text text-anchor="middle" x="0" y="330" style="font-family: 'Open Sans', verdana, arial, sans-serif; font-size: 19px; fill: rgb(42, 63, 95); fill-opacity: 1; white-space: pre; opacity: 1;" transform="translate(268.75,0)">Jun 1</text></g><g class="xtick"><text text-anchor="middle" x="0" y="330" style="font-family: 'Open Sans', verdana, arial, sans-serif; font-size: 19px; fill: rgb(42, 63, 95); fill-opacity: 1; white-space: pre; opacity: 1;" transform="translate(379.46,0)">Jun 2</text></g><g class="xtick"><text text-anchor="middle" x="0" y="330" style="font-family: 'Open Sans', verdana, arial, sans-serif; font-size: 19px; fill: rgb(42, 63, 95); fill-opacity: 1; white-space: pre; opacity: 1;" transform="translate(490.18,0)">Jun 3</text></g><g class="xtick"><text text-anchor="middle" x="0" y="330" style="font-family: 'Open Sans', verdana, arial, sans-serif; font-size: 19px; fill: rgb(42, 63, 95); fill-opacity: 1; white-space: pre; opacity: 1;" transform="translate(600.89,0)">Jun 4</text></g><g class="xtick"><text text-anchor="middle" x="0" y="330" style="font-family: 'Open Sans', verdana, arial, sans-serif; font-size: 19px; fill: rgb(42, 63, 95); fill-opacity: 1; white-space: pre; opacity: 1;" transform="translate(711.61,0)">Jun 5</text></g><g class="xtick"><text text-anchor="middle" x="0" y="330" style="font-family: 'Open Sans', verdana, arial, sans-serif; font-size: 19px; fill: rgb(42, 63, 95); fill-opacity: 1; white-space: pre; opacity: 1;" transform="translate(822.32,0)">Jun 6</text></g></g><g class="yaxislayer-above"><g class="ytick"><text text-anchor="end" x="69.2" y="6.6499999999999995" transform="translate(0,281.61)" style="font-family: 'Open Sans', verdana, arial, sans-serif; font-size: 19px; fill: rgb(42, 63, 95); fill-opacity: 1; white-space: pre; opacity: 1;">−2</text></g><g class="ytick"><text text-anchor="end" x="69.2" y="6.6499999999999995" style="font-family: 'Open Sans', verdana, arial, sans-serif; font-size: 19px; fill: rgb(42, 63, 95); fill-opacity: 1; white-space: pre; opacity: 1;" transform="translate(0,241.43)">−1</text></g><g class="ytick"><text text-anchor="end" x="69.2" y="6.6499999999999995" style="font-family: 'Open Sans', verdana, arial, sans-serif; font-size: 19px; fill: rgb(42, 63, 95); fill-opacity: 1; white-space: pre; opacity: 1;" transform="translate(0,201.25)">0</text></g><g class="ytick"><text text-anchor="end" x="69.2" y="6.6499999999999995" style="font-family: 'Open Sans', verdana, arial, sans-serif; font-size: 19px; fill: rgb(42, 63, 95); fill-opacity: 1; white-space: pre; opacity: 1;" transform="translate(0,161.06)">1</text></g><g class="ytick"><text text-anchor="end" x="69.2" y="6.6499999999999995" style="font-family: 'Open Sans', verdana, arial, sans-serif; font-size: 19px; fill: rgb(42, 63, 95); fill-opacity: 1; white-space: pre; opacity: 1;" transform="translate(0,120.88)">2</text></g><g class="ytick"><text text-anchor="end" x="69.2" y="6.6499999999999995" style="font-family: 'Open Sans', verdana, arial, sans-serif; font-size: 19px; fill: rgb(42, 63, 95); fill-opacity: 1; white-space: pre; opacity: 1;" transform="translate(0,80.69)">3</text></g></g><g class="overaxes-above"/></g></g><g class="polarlayer"/><g class="ternarylayer"/><g class="geolayer"/><g class="funnelarealayer"/><g class="pielayer"/><g class="iciclelayer"/><g class="treemaplayer"/><g class="sunburstlayer"/><g class="glimages"/><defs id="topdefs-f6799a"><g class="clips"/></defs><g class="layer-above"><g class="imagelayer"/><g class="shapelayer"/></g><g class="infolayer"><g class="g-gtitle"/><g class="g-xtitle"/><g class="g-ytitle" transform="translate(12.537109375,0)"><text class="ytitle" transform="rotate(-90,10.462500000000006,180)" x="10.462500000000006" y="180" text-anchor="middle" style="font-family: 'Open Sans', verdana, arial, sans-serif; font-size: 23px; fill: rgb(42, 63, 95); opacity: 1; font-weight: normal; white-space: pre;">Netload [kW]</text></g></g></svg>