<svg class="main-svg" xmlns="http://www.w3.org/2000/svg" xmlns:xlink="http://www.w3.org/1999/xlink" width="900" height="400" viewBox="0 0 900 400"><rect x="0" y="0" width="900" height="400" style="fill: rgb(255, 255, 255); fill-opacity: 1;"/><defs id="defs-43b030"><g class="clips"><clipPath id="clip43b030xyplot" class="plotclip"><rect width="775" height="260"/></clipPath><clipPath class="axesclip" id="clip43b030x"><rect x="75" y="0" width="775" height="400"/></clipPath><clipPath class="axesclip" id="clip43b030y"><rect x="0" y="50" width="900" height="260"/></clipPath><clipPath class="axesclip" id="clip43b030xy"><rect x="75" y="50" width="775" height="260"/></clipPath></g><g class="gradients"/><g class="patterns"/></defs><g class="bglayer"/><g class="layer-below"><g class="imagelayer"/><g class="shapelayer"/></g><g class="cartesianlayer"><g class="subplot xy"><g class="layer-subplot"><g class="shapelayer"/><g class="imagelayer"/></g><g class="gridlayer"><g class="x"><path class="xgrid crisp" transform="translate(158.04000000000002,0)" d="M0,50v260" style="stroke: rgb(235, 240, 248); stroke-opacity: 1; stroke-width: 1px;"/><path class="xgrid crisp" transform="translate(268.75,0)" d="M0,50v260" style="stroke: rgb(235, 240, 248); stroke-opacity: 1; stroke-width: 1px;"/><path class="xgrid crisp" transform="translate(379.46,0)" d="M0,50v260" style="stroke: rgb(235, 240, 248); stroke-opacity: 1; stroke-width: 1px;"/><path class="xgrid crisp" transform="translate(490.18,0)" d="M0,50v260" style="stroke: rgb(235, 240, 248); stroke-opacity: 1; stroke-width: 1px;"/><path class="xgrid crisp" transform="translate(600.89,0)" d="M0,50v260" style="stroke: rgb(235, 240, 248); stroke-opacity: 1; stroke-width: 1px;"/><path class="xgrid crisp" transform="translate(711.61,0)" d="M0,50v260" style="stroke: rgb(235, 240, 248); stroke-opacity: 1; stroke-width: 1px;"/><path class="xgrid crisp" transform="translate(822.32,0)" d="M0,50v260" style="stroke: rgb(235, 240, 248); stroke-opacity: 1; stroke-width: 1px;"/></g><g class="y"><path class="ygrid crisp" transform="translate(0,271.25)" d="M75,0h775" style="stroke: rgb(235, 240, 248); stroke-opacity: 1; stroke-width: 1px;"/><path class="ygrid crisp" transform="translate(0,211.98)" d="M75,0h775" style="stroke: rgb(235, 240, 248); stroke-opacity: 1; stroke-width: 1px;"/><path class="ygrid crisp" transform="translate(0,93.44)" d="M75,0h775" style="stroke: rgb(235, 240, 248); stroke-opacity: 1; stroke-width: 1px;"/></g></g><g class="zerolinelayer"><path class="yzl zl crisp" transform="translate(0,152.70999999999998)" d="M75,0h775" style="stroke: rgb(0, 0, 0); stroke-opacity: 1; stroke-width: 2px;"/></g><path class="xlines-below"/><path class="ylines-below"/><g class="overlines-below"/><g class="xaxislayer-below"/><g class="yaxislayer-below"/><g class="overaxes-below"/><g class="plot" transform="translate(75,50)" clip-path="url(#clip43b030xyplot)"><g class="scatterlayer mlayer"><g class="trace scatter traceae6f59" style="stroke-miterlimit: 2; opacity: 1;"><g class="fills"/><g class="errorbars"/><g class="lines"><path class="js-line" d="M0,103.66L1.15,109.88L2.31,122.12L3.46,122.87L4.61,101.11L8.07,183.34L9.23,179.22L11.53,191.97L12.69,181.2L13.84,199.01L14.99,192.98L16.15,221.89L17.3,219.62L18.45,234.03L19.61,220.24L20.76,223.11L21.91,222.67L23.07,210.93L24.22,219.23L25.37,218.34L26.53,228.92L27.68,242.84L28.83,212.22L29.99,226.22L31.14,227.17L32.29,196.71L33.44,210.83L35.75,187.26L36.9,202.2L38.06,159.64L39.21,178.42L41.52,139.09L42.67,137.36L43.82,130.28L44.98,131.74L47.28,112.97L48.44,117.89L49.59,96.14L50.74,90.14L51.9,103.3L53.05,99.18L54.2,102.74L55.36,41.97L56.51,96.9L57.66,96.74L58.82,94.79L59.97,84.97L61.12,48.66L62.28,55.11L63.43,15.52L64.58,24.05L65.74,62.54L66.89,31.81L69.2,84.2L70.35,50.12L71.5,93.96L72.66,86.71L73.81,74.66L74.96,93.37L76.12,95.62L77.27,91.26L78.42,99.62L79.58,97.66L81.88,89.8L83.04,98.68L84.19,97.3L85.34,93.2L86.5,84.64L87.65,93.04L88.8,35.06L89.96,83.92L92.26,89.56L93.42,97.9L94.57,72.48L95.72,70.48L96.88,79.74L98.03,78.56L99.18,45.83L100.33,82.07L101.49,70.29L102.64,69.84L104.95,85.94L106.1,69.46L107.25,91.68L108.41,96.94L109.56,115.2L110.71,95.62L111.87,106.94L113.02,128.55L114.17,146.87L115.33,130.32L116.48,145.35L117.63,139.82L118.79,146.01L119.94,166.26L122.25,183.39L123.4,184.96L124.55,211.54L125.71,208.11L126.86,212.43L128.01,225.88L129.17,192.32L130.32,194.14L132.63,235.93L133.78,208.62L134.93,243.02L136.09,247L137.24,243.3L138.39,246.38L139.55,231.65L140.7,231.77L141.85,229.39L143.01,208.67L144.16,198.37L145.31,207.07L147.62,190.52L148.77,193.84L153.39,136.51L154.54,84.55L155.69,99.88L156.85,128.74L158,95.72L159.15,93.18L160.31,99.95L161.46,81.96L162.61,48.06L163.76,53.72L164.92,92.59L166.07,16.13L167.22,65.04L168.38,72.88L169.53,26.06L170.68,32.19L172.99,58.41L174.14,52.9L175.3,18.55L176.45,69.62L177.6,83.84L178.76,39.53L179.91,73.18L181.06,78.51L182.22,76.95L183.37,89.77L185.68,78.26L186.83,68.5L187.98,62.95L189.14,90L190.29,93.78L191.44,83.6L192.6,84.64L193.75,98.89L194.9,93.55L196.06,96.93L197.21,99.4L198.36,98.07L200.67,99.45L201.82,92.79L202.98,96.26L204.13,96.19L205.28,97.06L206.44,100.38L207.59,97.94L208.74,98.5L209.9,95.8L211.05,98.16L212.2,98.52L213.36,96.16L214.51,103.36L215.66,104.5L219.12,112.19L220.28,118.1L221.43,113.28L222.58,122.82L223.74,126.44L224.89,145.8L226.04,145.02L227.19,158.53L228.35,161.99L229.5,179.48L230.65,177.32L231.81,159.85L232.96,202.26L234.11,212.31L235.27,215.42L236.42,210.79L237.57,222.03L238.73,222.74L239.88,215.22L241.03,225.11L242.19,227.82L243.34,234.62L244.49,238.1L245.65,235.47L246.8,231.33L247.95,235.64L250.26,233.66L251.41,234.14L252.57,231.86L253.72,225.52L254.87,225.21L256.03,217.65L257.18,210.33L258.33,208.15L261.79,182.71L262.95,169.08L264.1,164.7L265.25,152.82L266.41,134.2L267.56,146.51L269.87,132.66L271.02,118.75L272.17,92.68L273.33,104.52L275.63,106.52L276.79,106.64L279.09,80.86L280.25,98.25L281.4,86.96L282.55,88.15L283.71,92.18L284.86,89.9L286.01,91.17L287.17,90.12L288.32,100.17L289.47,99.55L291.78,95.51L292.93,100.33L294.08,100.32L295.24,86.49L296.39,63.49L297.54,91.05L298.7,81.34L299.85,87.3L301,96.98L302.16,100.18L303.31,98.4L304.46,88.62L305.62,80.69L306.77,98.66L307.92,85.56L309.08,100.08L310.23,100.25L311.38,98.79L313.69,85.56L314.84,91.35L317.15,101.58L318.3,100.74L319.46,94.62L320.61,94.37L324.07,97.72L325.22,96.16L328.68,106.2L329.84,113.31L330.99,115.89L332.14,121.44L336.76,160.64L337.91,156.37L339.06,163.13L340.22,165.45L341.37,174.61L342.52,174.82L343.68,179.49L344.83,178.6L347.14,189.07L348.29,177.53L349.44,192.53L350.6,193.39L354.06,229.23L355.21,228.84L356.36,228.94L357.51,231.17L358.67,221.16L359.82,225.14L360.97,224.41L362.13,216.77L363.28,199.91L364.43,196.88L365.59,195.06L366.74,189.73L367.89,188.47L369.05,177.4L372.51,176.12L373.66,173.18L374.81,160.34L375.97,157.62L378.27,149.28L379.43,127.19L381.73,124.08L382.89,115.5L384.04,107.22L385.19,113.83L386.35,110.06L387.5,98.03L388.65,89.39L389.81,90.85L390.96,65.32L392.11,73.96L393.27,72.38L394.42,73.41L395.57,76.46L396.73,48.89L399.03,93.14L400.19,81.19L401.34,95.04L402.49,91.86L403.65,76.76L404.8,92.27L407.11,73.3L408.26,93.74L409.41,94.83L410.57,88.3L411.72,96.19L412.87,96.4L414.03,99.13L415.18,95L416.33,94.24L417.49,97.89L418.64,97.37L419.79,98.87L423.25,95.32L424.4,98.71L427.86,95.78L429.02,101.44L430.17,100.17L431.32,102.16L432.48,99.5L433.63,100.73L434.78,103.79L435.94,102.48L437.09,103.49L438.24,107.33L441.7,121.4L442.86,126.22L447.47,156.68L448.62,152.07L449.78,177.72L450.93,186.18L453.24,200.07L454.39,204.81L456.7,221.95L457.85,221.13L461.31,235.34L462.46,230.03L463.62,224.98L464.77,238.22L465.92,241.64L467.08,237.75L468.23,237.3L469.38,235.45L470.54,238.05L471.69,228.19L472.84,218.95L474,218.46L475.15,206.33L476.3,205.8L477.46,208.93L478.61,204.93L479.76,199.17L480.92,188.23L483.22,184.24L484.38,172.26L485.53,167.45L486.68,154.27L488.99,127.84L490.14,126.13L491.29,126.51L492.45,116.22L493.6,115.29L494.75,107.73L495.91,111.02L497.06,109.12L499.37,93.88L500.52,99.37L501.67,101.75L502.83,98.65L503.98,95.14L505.13,100.61L506.29,98.39L507.44,91.97L508.59,85.15L509.75,92.71L510.9,93.23L512.05,100.16L513.21,99.48L514.36,100.16L515.51,96.02L516.67,77.49L517.82,100.72L518.97,90.18L520.13,98.9L521.28,101.54L529.35,101.94L530.51,102.16L531.66,98.81L532.81,100.7L533.97,102.15L535.12,102.14L538.58,101.68L539.73,101.29L542.04,102.16L543.19,99.53L544.35,99.76L545.5,102.26L546.65,95.17L547.81,99.2L548.96,97.62L550.11,94.65L551.26,103.17L552.42,100.56L554.72,105.16L555.88,104.2L557.03,103.62L558.18,106.14L559.34,110.93L560.49,110.61L561.64,112.23L562.8,109.98L566.26,127.3L567.41,130.25L569.72,125.66L570.87,119.79L572.02,119.15L573.18,110.56L574.33,108.36L575.48,101.03L576.64,110.54L577.79,109.64L578.94,107.9L580.1,112.74L581.25,115.37L582.4,115.04L583.56,108.26L584.71,114.38L587.02,110.26L588.17,110.31L589.32,100.21L590.48,108.2L595.09,123.02L596.24,121.62L597.4,120.13L598.55,116.23L600.86,110.34L602.01,118.63L603.16,117.04L604.32,109.87L605.47,105.88L606.62,91.2L607.78,98.05L608.93,92.17L610.08,101.36L611.24,101.93L612.39,60.41L613.54,68.82L614.69,93.96L615.85,51.74L618.15,98.92L619.31,81.42L620.46,91.95L621.61,92.92L622.77,54.37L623.92,87.12L626.23,80.05L627.38,94.64L628.53,90.18L629.69,94.33L630.84,98.19L631.99,94.69L633.15,92.05L634.3,99.88L635.45,97.98L636.61,100.35L638.91,99.37L640.07,100.5L641.22,102.15L642.37,101.4L644.68,102.16L645.83,102.01L648.14,98.48L649.29,96.9L650.45,101.06L651.6,96.3L653.91,101.64L655.06,97.18L656.21,99.55L657.37,103.81L659.67,107.49L660.83,112.29L664.29,125.73L665.44,134.84L668.9,154.22L670.05,161.62L675.82,202.08L676.97,207.32L679.28,216.49L680.43,221.88L682.74,230.9L683.89,231.59L685.04,231.69L686.2,233.98L687.35,238.11L688.5,237.51L691.96,235.24L693.12,232.98L696.58,226.18L697.73,221.91L702.34,202.68L703.5,196.01L708.11,166.65L709.26,158.45L712.72,130.02L713.88,122.59L715.03,102.69L716.18,108.81L717.34,111.13L718.49,103.4L719.64,94.96L720.8,99.67L721.95,102.97L723.1,88.82L724.26,90.99L725.41,97.84L726.56,100.6L727.72,100.6L728.87,96.76L730.02,99.94L736.94,100.16L738.1,100.83L746.17,101.54L747.32,101.94L751.93,102.16L753.09,101.22L755.39,101.27L756.55,102.14L757.7,101.37L758.85,102.14L762.31,99.77L763.47,101.67L764.62,102.16L765.77,100.37L770.39,108.91L771.54,112.99L775,125.42" style="vector-effect: non-scaling-stroke; fill: none; stroke: rgb(76, 120, 168); stroke-opacity: 1; stroke-width: 3px; opacity: 1;"/></g><g class="points"/><g class="text"/></g><g class="trace scatter trace74c710" style="stroke-miterlimit: 2; opacity: 1;"><g class="fills"/><g class="errorbars"/><g class="lines"><path class="js-line" d="M0,103.61L2.31,117.25L3.46,125.91L4.61,125.93L5.77,129.63L8.07,140.55L9.23,155.98L12.69,181.08L13.84,181.58L16.15,193.19L17.3,202.86L18.45,190.36L19.61,191.6L21.91,213.16L23.07,184.9L24.22,179.32L25.37,184.48L26.53,194.32L27.68,187.39L28.83,188.42L29.99,192.03L31.14,195.5L32.29,201.81L33.44,202.62L34.6,199.34L35.75,192.8L36.9,194.7L38.06,185.52L39.21,170.4L44.98,83.9L46.13,97.5L47.28,100.07L48.44,98.29L49.59,95.32L50.74,75.74L53.05,64.08L54.2,64.06L56.51,50.95L57.66,50.04L58.82,49.74L59.97,55.49L61.12,57.22L62.28,56.22L65.74,45.63L66.89,39.16L68.04,31.86L69.2,42.73L70.35,44.18L71.5,41.55L72.66,37.58L73.81,55.76L76.12,66.46L77.27,68.21L79.58,82.86L80.73,87.13L81.88,90.84L83.04,85.72L84.19,84.51L85.34,84.73L86.5,85.09L87.65,92.51L88.8,95L89.96,94.43L91.11,91.77L92.26,95.43L93.42,93.95L94.57,89.78L95.72,84.31L96.88,90.02L98.03,89.81L99.18,87.21L100.33,84.04L101.49,87.23L106.1,93.54L107.25,97.62L109.56,109.61L110.71,111.24L113.02,124.98L114.17,133.19L115.33,132.63L116.48,135.8L118.79,145.72L119.94,160.66L123.4,184.5L124.55,184.6L125.71,188.57L126.86,195.42L128.01,204.69L129.17,191.8L130.32,192.83L131.47,201.4L132.63,214.21L133.78,185.9L134.93,179.97L136.09,184.63L137.24,193.92L138.39,186.39L139.55,187.13L140.7,190.62L141.85,194.04L143.01,200.33L144.16,201.1L145.31,197.76L146.47,191.15L147.62,192.99L148.77,185.82L149.93,173.72L155.69,97.11L156.85,110.72L158,111.21L159.15,106.33L160.31,99.78L161.46,76.38L163.76,60.11L164.92,58.37L167.22,42.65L168.38,40.97L169.53,40.03L170.68,45.21L171.84,46.57L172.99,45.27L176.45,34.03L177.6,27.39L178.76,19.93L179.91,30.64L181.06,31.94L182.22,29.19L183.37,25.09L184.52,43.17L186.83,53.68L187.98,55.35L190.29,69.89L191.44,74.11L192.6,77.79L193.75,72.65L194.9,71.43L196.06,71.66L197.21,72.03L198.36,79.47L199.52,81.99L200.67,81.47L201.82,78.87L202.98,82.59L204.13,81.19L205.28,77.11L206.44,71.73L207.59,77.56L208.74,77.47L209.9,75L211.05,71.96L212.2,75.31L216.82,81.94L217.97,86.18L220.28,98.59L221.43,109.88L222.58,111.27L223.74,116.98L224.89,124.36L226.04,123.57L228.35,131.25L229.5,136.47L231.81,161.05L232.96,168.53L234.11,175.55L235.27,175.79L236.42,178.51L237.57,183.41L238.73,190.43L239.88,175.12L241.03,175.7L242.19,184.74L243.34,198.5L244.49,171.36L245.65,166.53L246.8,172.27L247.95,182.61L249.11,176.14L250.26,177.74L251.41,181.99L252.57,186.13L253.72,193.12L254.87,194.64L256.03,192.08L257.18,186.27L258.33,188.91L259.49,182.59L260.64,171.35L266.41,98.49L267.56,112.69L268.71,113.82L269.87,109.62L271.02,103.75L272.17,81.04L274.48,65.91L275.63,64.69L277.94,49.76L279.09,48.24L280.25,47.4L281.4,52.65L282.55,54.2L283.71,53.16L287.17,42.79L288.32,36.44L289.47,29.27L290.63,40.26L291.78,41.84L292.93,39.35L294.08,35.52L295.24,53.84L297.54,64.85L298.7,66.75L301,81.72L302.16,86.15L303.31,90.03L304.46,85.08L305.62,84.04L306.77,84.44L307.92,84.97L309.08,92.58L310.23,95.24L311.38,94.85L312.54,92.38L313.69,96.23L314.84,94.93L316,90.96L317.15,85.67L318.3,91.58L319.46,91.56L320.61,89.15L321.76,86.17L322.92,89.56L327.53,96.74L328.68,100.96L330.99,113.16L332.14,114.87L334.45,128.6L335.6,136.76L336.76,136.15L337.91,138.27L340.22,144.87L341.37,157.92L343.68,167.98L344.83,170.82L345.98,166.73L347.14,167.44L349.44,178.14L350.6,162.76L351.75,166.85L352.9,181.16L354.06,201L355.21,180.36L356.36,177.56L357.51,183.18L358.67,192.36L359.82,184.22L360.97,182.28L362.13,182.08L363.28,181.34L364.43,183.23L365.59,182.43L366.74,178.89L367.89,172.74L369.05,175.36L370.2,170.7L371.35,161.93L377.12,101.07L378.27,116.99L379.43,119.35L380.58,116.13L381.73,111.13L382.89,89.24L385.19,73.23L386.35,71.1L388.65,54.51L389.81,52.56L390.96,51.39L392.11,56.35L393.27,57.62L394.42,56.3L397.88,45.1L399.03,38.48L400.19,31.03L401.34,41.75L402.49,43.07L403.65,40.32L404.8,36.23L405.95,54.3L408.26,64.8L409.41,66.46L411.72,80.96L412.87,85.17L414.03,88.82L415.18,83.65L416.33,82.4L417.49,82.59L418.64,82.92L419.79,90.32L420.94,92.8L422.1,92.23L423.25,89.57L424.4,93.25L425.56,91.78L426.71,87.65L427.86,82.21L429.02,87.98L430.17,87.82L431.32,85.28L432.48,82.17L433.63,85.44L438.24,92.44L439.4,96.57L446.32,133.15L447.47,132.44L449.78,140.41L450.93,145.81L453.24,170.61L454.39,178.08L455.54,185.05L456.7,185.23L457.85,189.02L459,195.56L460.16,204.47L461.31,191.2L462.46,191.69L463.62,199.66L464.77,211.84L465.92,182.89L467.08,176.74L468.23,181.41L469.38,190.8L470.54,183.44L471.69,184.09L472.84,187.38L474,190.53L475.15,196.54L476.3,197.1L477.46,193.62L478.61,186.87L479.76,188.59L480.92,182.32L482.07,171.6L486.68,112.11L487.83,94.53L488.99,105.94L490.14,108.01L492.45,104.26L493.6,85.57L495.91,72.19L497.06,70.65L499.37,54.77L500.52,53.05L501.67,52.09L502.83,57.24L503.98,58.7L505.13,57.58L508.59,47L509.75,40.58L510.9,33.34L512.05,44.27L513.21,45.78L514.36,43.24L515.51,39.34L516.67,57.6L518.97,68.49L520.13,70.33L522.43,85.2L523.59,89.58L524.74,93.4L525.89,88.4L527.05,87.3L528.2,87.66L529.35,88.14L530.51,95.69L531.66,98.31L532.81,97.87L533.97,95.35L535.12,99.15L536.27,97.81L537.43,93.79L538.58,88.46L539.73,94.32L540.89,94.26L542.04,91.8L543.19,88.78L544.35,92.12L547.81,95.04L548.96,95.37L551.26,100.24L552.42,103.66L553.57,102.19L554.72,103.28L557.03,107.3L558.18,100.36L559.34,97.96L560.49,97.47L561.64,97.73L562.8,107.77L565.1,117.36L566.26,121.02L567.41,118L568.56,117.86L569.72,120.09L570.87,124.52L572.02,106.67L573.18,102.97L574.33,106.92L575.48,115.17L576.64,82.31L577.79,75.11L578.94,80.07L580.1,90.42L581.25,84.32L582.4,86.79L587.02,109.2L588.17,108.92L589.32,105.54L590.48,110.69L591.63,109.77L592.78,105.33L596.24,84.86L597.4,75.22L598.55,65.81L599.7,85.48L602.01,95.86L603.16,97.18L605.47,74L606.62,70.32L607.78,68.83L608.93,57.35L611.24,50.42L612.39,49.05L613.54,53.78L614.69,54.84L615.85,53.34L617,49.85L618.15,46.94L619.31,41.62L621.61,27.2L622.77,37.74L623.92,38.88L625.07,35.94L626.23,31.66L627.38,49.54L629.69,59.66L630.84,61.12L633.15,75.21L634.3,79.21L635.45,82.65L636.61,77.28L637.76,75.81L638.91,75.8L640.07,75.91L641.22,83.1L642.37,85.35L643.53,84.56L644.68,81.69L645.83,85.14L646.99,83.45L648.14,79.09L649.29,73.42L650.45,78.96L651.6,78.57L652.75,75.8L653.91,72.46L655.06,75.5L659.67,80.84L660.83,84.8L663.13,96.72L664.29,110.5L665.44,109.81L666.59,113.95L667.75,120.03L668.9,118.06L670.05,120.39L671.21,124.5L672.36,129.32L673.51,143.89L676.97,164.87L678.13,163.84L679.28,167.47L680.43,174.35L681.58,183.84L682.74,171.27L683.89,172.1L685.04,180.22L686.2,192.47L687.35,163.55L688.5,157.4L689.66,162.04L690.81,171.41L691.96,164.01L693.12,165.03L694.27,168.87L695.42,172.67L696.58,179.38L697.73,180.75L698.88,178.11L700.04,172.25L701.19,174.86L702.34,168.54L703.5,157.32L709.26,84.41L710.42,98.55L711.57,99.54L712.72,95.13L713.88,89.05L715.03,66.12L717.34,50.61L718.49,49.22L720.8,34.03L721.95,32.47L723.1,31.62L724.26,36.87L725.41,38.37L726.56,37.25L730.02,26.65L731.18,20.24L732.33,13L733.48,23.94L734.64,25.48L735.79,22.95L736.94,19.09L738.1,37.4L740.4,48.38L741.56,50.29L743.86,65.29L745.01,69.76L746.17,73.66L747.32,68.76L748.47,67.77L749.63,68.24L750.78,68.84L751.93,76.52L753.09,79.27L754.24,78.97L755.39,76.59L756.55,80.55L757.7,79.36L758.85,75.51L760.01,70.35L761.16,76.4L762.31,76.52L763.47,74.26L764.62,71.43L765.77,74.98L770.39,83.32L771.54,87.63L773.85,99.74L775,101.35" style="vector-effect: non-scaling-stroke; fill: none; stroke: rgb(255, 127, 14); stroke-opacity: 0.7; stroke-width: 3px; opacity: 1;"/></g><g class="points"/><g class="text"/></g></g></g><g class="overplot"/><path class="xlines-above crisp" d="M0,0" style="fill: none;"/><path class="ylines-above crisp" d="M74,50V310" style="fill: none; stroke-width: 2px; stroke: rgb(0, 0, 0); stroke-opacity: 1;"/><g class="overlines-above"/><g class="xaxislayer-above"><g class="xtick"><text text-anchor="middle" x="0" y="330" transform="translate(158.04000000000002,0)" style="font-family: 'Open Sans', verdana, arial, sans-serif; font-size: 19px; fill: rgb(42, 63, 95); fill-opacity: 1; white-space: pre; opacity: 1;"><tspan class="line" dy="0em" x="0" y="330">May 31</tspan><tspan class="line" dy="1.3em" x="0" y="330">2019</tspan></text></g><g class="xtick"><text text-anchor="middle" x="0" y="330" style="font-family: 'Open Sans', verdana, arial, sans-serif; font-size: 19px; fill: rgb(42, 63, 95); fill-opacity: 1; white-space: pre; opacity: 1;" transform="translate(268.75,0)">Jun 1</text></g><g class="xtick"><text text-anchor="middle" x="0" y="330" style="font-family: 'Open Sans', verdana, arial, sans-serif; font-size: 19px; fill: rgb(42, 63, 95); fill-opacity: 1; white-space: pre; opacity: 1;" transform="translate(379.46,0)">Jun 2</text></g><g class="xtick"><text text-anchor="middle" x="0" y="330" style="font-family: 'Open Sans', verdana, arial, sans-serif; font-size: 19px; fill: rgb(42, 63, 95); fill-opacity: 1; white-space: pre; opacity: 1;" transform="translate(490.18,0)">Jun 3</text></g><g class="xtick"><text text-anchor="middle" x="0" y="330" style="font-family: 'Open Sans', verdana, arial, sans-serif; font-size: 19px; fill: rgb(42, 63, 95); fill-opacity: 1; white-space: pre; opacity: 1;" transform="translate(600.89,0)">Jun 4</text></g><g class="xtick"><text text-anchor="middle" x="0" y="330" style="font-family: 'Open Sans', verdana, arial, sans-serif; font-size: 19px; fill: rgb(42, 63, 95); fill-opacity: 1; white-space: pre; opacity: 1;" transform="translate(711.61,0)">Jun 5</text></g><g class="xtick"><text text-anchor="middle" x="0" y="330" style="font-family: 'Open Sans', verdana, arial, sans-serif; font-size: 19px; fill: rgb(42, 63, 95); fill-opacity: 1; white-space: pre; opacity: 1;" transform="translate(822.32,0)">Jun 6</text></g></g><g class="yaxislayer-above"><g class="ytick"><text text-anchor="end" x="69.2" y="6.6499999999999995" transform="translate(0,271.25)" style="font-family: 'Open Sans', verdana, arial, sans-serif; font-size: 19px; fill: rgb(42, 63, 95); fill-opacity: 1; white-space: pre; opacity: 1;">−2</text></g><g class="ytick"><text text-anchor="end" x="69.2" y="6.6499999999999995" style="font-family: 'Open Sans', verdana, arial, sans-serif; font-size: 19px; fill: rgb(42, 63, 95); fill-opacity: 1; white-space: pre; opacity: 1;" transform="translate(0,211.98)">−1</text></g><g class="ytick"><text text-anchor="end" x="69.2" y="6.6499999999999995" style="font-family: 'Open Sans', verdana, arial, sans-serif; font-size: 19px; fill: rgb(42, 63, 95); fill-opacity: 1; white-space: pre; opacity: 1;" transform="translate(0,152.70999999999998)">0</text></g><g class="ytick"><text text-anchor="end" x="69.2" y="6.6499999999999995" style="font-family: 'Open Sans', verdana, arial, sans-serif; font-size: 19px; fill: rgb(42, 63, 95); fill-opacity: 1; white-space: pre; opacity: 1;" transform="translate(0,93.44)">1</text></g></g><g class="overaxes-above"/></g></g><g class="polarlayer"/><g class="ternarylayer"/><g class="geolayer"/><g class="funnelarealayer"/><g class="pielayer"/><g class="iciclelayer"/><g class="treemaplayer"/><g class="sunburstlayer"/><g class="glimages"/><defs id="topdefs-43b030"><g class="clips"/></defs><g class="layer-above"><g class="imagelayer"/><g class="shapelayer"/></g><g class="infolayer"><g class="g-gtitle"/><g class="g-xtitle"/><g class="g-ytitle" transform="translate(12.537109375,0)"><text class="ytitle" transform="rotate(-90,10.462500000000006,180)" x="10.462500000000006" y="180" text-anchor="middle" style="font-family: 'Open Sans', verdana, arial, sans-serif; font-size: 23px; fill: rgb(42, 63, 95); opacity: 1; font-weight: normal; white-space: pre;">Netload [kW]</text></g></g></svg>