<svg class="main-svg" xmlns="http://www.w3.org/2000/svg" xmlns:xlink="http://www.w3.org/1999/xlink" width="900" height="400" viewBox="0 0 900 400"><rect x="0" y="0" width="900" height="400" style="fill: rgb(255, 255, 255); fill-opacity: 1;"/><defs id="defs-6e7d66"><g class="clips"><clipPath id="clip6e7d66xyplot" class="plotclip"><rect width="775" height="260"/></clipPath><clipPath class="axesclip" id="clip6e7d66x"><rect x="75" y="0" width="775" height="400"/></clipPath><clipPath class="axesclip" id="clip6e7d66y"><rect x="0" y="50" width="900" height="260"/></clipPath><clipPath class="axesclip" id="clip6e7d66xy"><rect x="75" y="50" width="775" height="260"/></clipPath></g><g class="gradients"/><g class="patterns"/></defs><g class="bglayer"/><g class="layer-below"><g class="imagelayer"/><g class="shapelayer"/></g><g class="cartesianlayer"><g class="subplot xy"><g class="layer-subplot"><g class="shapelayer"/><g class="imagelayer"/></g><g class="gridlayer"><g class="x"><path class="xgrid crisp" transform="translate(158.04000000000002,0)" d="M0,50v260" style="stroke: rgb(235, 240, 248); stroke-opacity: 1; stroke-width: 1px;"/><path class="xgrid crisp" transform="translate(268.75,0)" d="M0,50v260" style="stroke: rgb(235, 240, 248); stroke-opacity: 1; stroke-width: 1px;"/><path class="xgrid crisp" transform="translate(379.46,0)" d="M0,50v260" style="stroke: rgb(235, 240, 248); stroke-opacity: 1; stroke-width: 1px;"/><path class="xgrid crisp" transform="translate(490.18,0)" d="M0,50v260" style="stroke: rgb(235, 240, 248); stroke-opacity: 1; stroke-width: 1px;"/><path class="xgrid crisp" transform="translate(600.89,0)" d="M0,50v260" style="stroke: rgb(235, 240, 248); stroke-opacity: 1; stroke-width: 1px;"/><path class="xgrid crisp" transform="translate(711.61,0)" d="M0,50v260" style="stroke: rgb(235, 240, 248); stroke-opacity: 1; stroke-width: 1px;"/><path class="xgrid crisp" transform="translate(822.32,0)" d="M0,50v260" style="stroke: rgb(235, 240, 248); stroke-opacity: 1; stroke-width: 1px;"/></g><g class="y"><path class="ygrid crisp" transform="translate(0,275.37)" d="M75,0h775" style="stroke: rgb(235, 240, 248); stroke-opacity: 1; stroke-width: 1px;"/><path class="ygrid crisp" transform="translate(0,225.03)" d="M75,0h775" style="stroke: rgb(235, 240, 248); stroke-opacity: 1; stroke-width: 1px;"/><path class="ygrid crisp" transform="translate(0,124.33)" d="M75,0h775" style="stroke: rgb(235, 240, 248); stroke-opacity: 1; stroke-width: 1px;"/><path class="ygrid crisp" transform="translate(0,73.99)" d="M75,0h775" style="stroke: rgb(235, 240, 248); stroke-opacity: 1; stroke-width: 1px;"/></g></g><g class="zerolinelayer"><path class="yzl zl crisp" transform="translate(0,174.68)" d="M75,0h775" style="stroke: rgb(0, 0, 0); stroke-opacity: 1; stroke-width: 2px;"/></g><path class="xlines-below"/><path class="ylines-below"/><g class="overlines-below"/><g class="xaxislayer-below"/><g class="yaxislayer-below"/><g class="overaxes-below"/><g class="plot" transform="translate(75,50)" clip-path="url(#clip6e7d66xyplot)"><g class="scatterlayer mlayer"><g class="trace scatter tracec135cc" style="stroke-miterlimit: 2; opacity: 1;"><g class="fills"/><g class="errorbars"/><g class="lines"><path class="js-line" d="M0,117.41L3.46,148.94L4.61,151.15L6.92,174.12L8.07,174.86L10.38,192.01L11.53,199.13L12.69,210.46L13.84,207.55L14.99,202.35L16.15,227.52L17.3,223.53L18.45,231.14L20.76,241.2L21.91,241.58L23.07,246.12L24.22,245.68L25.37,237L26.53,241.22L28.83,214.96L29.99,214L31.14,235.18L32.29,228.88L33.44,216.62L34.6,191.19L35.75,205.87L36.9,199.51L39.21,167.58L40.36,171.55L41.52,146.99L42.67,144.28L43.82,143.54L44.98,146.65L47.28,126.66L48.44,129.92L49.59,130.66L50.74,126.49L51.9,126.16L53.05,123.1L54.2,121.66L55.36,123.61L57.66,117.75L58.82,107.02L59.97,109.49L61.12,108.08L62.28,104.16L63.43,103.63L64.58,98.5L65.74,117.36L69.2,51.54L70.35,55.57L72.66,86.28L73.81,79.96L74.96,53.33L76.12,74.94L77.27,83.47L78.42,103.98L79.58,114.35L80.73,117.51L81.88,78.29L83.04,106.82L84.19,115.36L85.34,116.51L86.5,114.82L87.65,117.98L88.8,117.5L89.96,111.73L91.11,119.71L92.26,111.68L93.42,112.4L94.57,117.67L95.72,119.05L96.88,122.23L98.03,122L99.18,116.36L100.33,118.9L101.49,107.04L102.64,115.76L103.79,114.36L104.95,121.21L106.1,109.52L107.25,106.8L108.41,127.41L109.56,123.19L110.71,123.38L111.87,130.48L113.02,127.04L117.63,182.52L118.79,186.14L122.25,212.36L123.4,212.85L125.71,227.47L126.86,224.29L129.17,234.43L130.32,230.37L131.47,242.97L132.63,239.66L133.78,246.25L134.93,247L136.09,245.79L137.24,242.94L138.39,241.92L139.55,242.75L140.7,235.8L141.85,236.65L143.01,235.41L144.16,231.26L146.47,220.99L147.62,216.39L148.77,199.68L149.93,198.25L151.08,192.14L152.23,161.65L153.39,173.07L154.54,166.48L155.69,157.52L156.85,141.43L158,143.97L159.15,139.72L160.31,131.34L161.46,130.7L162.61,130.81L163.76,127.45L166.07,100.66L167.22,109.91L168.38,90.62L169.53,109.71L170.68,98.89L171.84,101.77L172.99,86.54L174.14,104L175.3,106.39L176.45,104.36L177.6,112.06L178.76,106.16L181.06,92.77L182.22,67.04L183.37,79.91L184.52,102.76L186.83,91.39L187.98,98.43L189.14,105.25L190.29,104.02L192.6,85.31L193.75,107.27L194.9,112.89L196.06,108.3L197.21,116.92L198.36,109.77L199.52,108.67L200.67,112.39L201.82,117.98L202.98,106.56L204.13,104.89L205.28,96.75L206.44,107.02L207.59,101.21L208.74,116.48L209.9,104.74L211.05,102.3L212.2,108.65L213.36,120.32L214.51,96.85L215.66,107.33L216.82,106.17L217.97,111.21L219.12,111.67L220.28,127.84L221.43,126.63L222.58,138.85L223.74,140.72L226.04,170.39L227.19,179.9L228.35,184.26L229.5,185.4L235.27,214.82L236.42,217.83L237.57,204.64L238.73,208.05L239.88,206.55L241.03,218.7L243.34,235.69L244.49,236.6L245.65,225.55L246.8,231.1L249.11,236.64L250.26,230.16L252.57,231.35L253.72,229.72L256.03,219.43L257.18,218.02L258.33,215.24L259.49,207.11L260.64,202.35L261.79,184.58L262.95,186.14L264.1,179.56L268.71,145.88L269.87,139.28L271.02,136.62L272.17,131.61L273.33,123.6L274.48,124.03L275.63,123.42L276.79,113.89L277.94,112.66L279.09,112.62L280.25,106.64L281.4,84.56L282.55,111.25L283.71,103.97L284.86,112.25L286.01,106.69L287.17,110.66L288.32,110.22L290.63,49.32L291.78,23.03L292.93,82.04L294.08,62.47L296.39,102.69L297.54,104.2L298.7,87.63L299.85,114.38L301,106.62L302.16,105.06L303.31,78.75L304.46,116.7L306.77,106.59L307.92,106.92L309.08,106.91L310.23,112.52L312.54,103.7L313.69,102.51L314.84,110.47L316,107.03L317.15,117.42L318.3,110.77L319.46,115.86L320.61,110.33L321.76,115.87L322.92,114.56L324.07,112.06L325.22,116.91L326.38,113.63L327.53,113.96L328.68,121.99L329.84,122.38L330.99,124.06L332.14,128.54L334.45,149.41L335.6,164.2L341.37,188.79L342.52,192.38L343.68,194.49L344.83,194.21L345.98,190.16L347.14,191.9L348.29,195.26L349.44,190.2L350.6,196.89L351.75,193.69L352.9,201.25L354.06,222.22L355.21,239.72L356.36,238.02L359.82,230.79L360.97,224.13L362.13,219.62L363.28,209.52L364.43,205.89L365.59,189.68L366.74,179.8L367.89,191.09L369.05,173.23L370.2,178.88L371.35,177.21L372.51,181.35L373.66,169.94L374.81,174.16L375.97,173.25L377.12,166.66L378.27,156.15L379.43,153.96L381.73,134.52L382.89,118.89L384.04,123.18L385.19,122.42L386.35,121.56L387.5,106.03L388.65,96.72L389.81,103.25L390.96,109.89L392.11,107.61L393.27,116.2L394.42,113.9L395.57,104.01L396.73,107.29L397.88,116.32L399.03,112.37L401.34,100.78L402.49,111.53L403.65,104.5L404.8,88.38L405.95,98.16L407.11,90.03L408.26,78.13L409.41,93.21L410.57,101.37L411.72,99.46L412.87,96.85L414.03,90.76L415.18,107.6L416.33,107.18L417.49,107.9L418.64,110.63L420.94,100.83L422.1,105.48L424.4,117.93L425.56,109.35L426.71,103.95L427.86,39.14L429.02,106.11L430.17,117.32L431.32,109.5L432.48,108L433.63,114.64L434.78,112.69L435.94,122.66L437.09,122.94L438.24,116.75L439.4,116.79L440.55,106.3L441.7,130.51L442.86,132.75L444.01,132.2L447.47,166.09L448.62,175.78L449.78,171.33L450.93,180.79L455.54,209.3L456.7,209.6L457.85,216.62L459,208.49L461.31,224.8L462.46,211.49L464.77,232.41L465.92,238.11L467.08,234.63L468.23,236.64L469.38,237.21L470.54,235.31L471.69,229.93L472.84,231.57L474,226.45L475.15,214.96L477.46,179.34L478.61,184.32L479.76,178.4L480.92,182.79L483.22,136.81L484.38,144.97L485.53,153.81L486.68,145.07L487.83,147.51L488.99,134.87L490.14,125.17L491.29,128.34L492.45,128.62L493.6,124.62L494.75,124.3L495.91,123.15L497.06,125.8L498.21,102.9L499.37,52.11L500.52,78.11L501.67,97.46L502.83,91.55L503.98,85.81L505.13,93.37L506.29,105.42L507.44,98.71L508.59,104.7L509.75,99.49L510.9,112.33L512.05,93.9L513.21,108.97L514.36,105.3L515.51,97.74L516.67,101.92L517.82,98.87L518.97,104.04L520.13,88.03L521.28,94.84L523.59,78.89L524.74,105.87L525.89,94.46L527.05,51.85L528.2,100.5L529.35,105.49L530.51,110.77L531.66,104.28L532.81,112.61L533.97,97.43L535.12,89.15L536.27,111.89L537.43,110.48L538.58,100.62L539.73,31.01L540.89,104.19L542.04,105.8L543.19,87.96L544.35,105.24L545.5,86.12L546.65,102.38L547.81,90.24L548.96,97.37L550.11,77.95L551.26,111.68L552.42,115.81L553.57,113.32L554.72,105.12L555.88,111.75L557.03,112.78L558.18,116.14L559.34,123.35L560.49,108.26L561.64,107.8L563.95,128.07L565.1,121.91L566.26,124.53L567.41,111.74L568.56,74.26L569.72,125.07L570.87,132.33L572.02,117.14L573.18,118.03L574.33,130.1L575.48,127.28L576.64,97.16L577.79,100.32L578.94,107.25L580.1,98.94L581.25,108.97L582.4,108.08L583.56,13L587.02,92.3L588.17,103.74L590.48,96.09L591.63,107.29L592.78,105.49L593.94,107.56L595.09,114.96L596.24,66.1L597.4,105.04L598.55,115.36L599.7,116.87L600.86,108.67L602.01,112.83L603.16,111L604.32,129.05L605.47,128.78L606.62,114.67L607.78,116.94L608.93,121.29L610.08,118.06L611.24,106.61L612.39,114.35L613.54,115.86L614.69,119.97L617,117.8L618.15,113.16L619.31,119.59L620.46,114.13L621.61,91.66L622.77,104.26L623.92,105.65L625.07,87.94L626.23,117.45L627.38,118.04L628.53,118.4L629.69,116.98L630.84,109.27L631.99,118.5L633.15,114.7L634.3,98.68L636.61,111.35L637.76,111.1L638.91,115.01L640.07,99.76L641.22,99.29L642.37,106.68L643.53,114.86L644.68,114.39L646.99,109.55L648.14,105.06L649.29,106.35L650.45,104.57L651.6,105.78L652.75,95.63L653.91,98.99L655.06,108.55L656.21,115.11L657.37,114.8L658.52,119.54L659.67,120.36L660.83,130.64L661.98,134L665.44,142.54L666.59,142.77L668.9,147.85L670.05,156.16L671.21,159L672.36,177.23L673.51,191.19L674.67,192.54L675.82,202.44L676.97,204.63L678.13,206.19L679.28,216.55L680.43,211.18L681.58,217.48L682.74,213.54L683.89,203.88L686.2,232.2L687.35,212.17L689.66,201.47L690.81,210.79L693.12,222.34L694.27,210.41L695.42,204.69L696.58,211.73L697.73,204.66L698.88,204.36L700.04,192.55L701.19,210.29L702.34,199.7L703.5,195.98L704.65,193.17L705.8,188.14L708.11,169.05L709.26,167.92L713.88,137.02L715.03,128.53L716.18,131.86L717.34,127.96L718.49,127.18L719.64,124.42L720.8,121.29L721.95,112.68L723.1,116.91L724.26,109.1L725.41,110.95L726.56,117.31L727.72,118.85L728.87,115.82L731.18,118.12L732.33,117.06L733.48,114.46L734.64,114.58L735.79,96.71L736.94,97.13L738.1,97.25L739.25,85.68L740.4,87.63L741.56,106.31L742.71,109.49L743.86,98.28L745.01,103.69L746.17,99.1L747.32,118.38L748.47,118.24L749.63,113.32L750.78,104.74L751.93,116.61L753.09,106.96L754.24,115.33L755.39,112.77L756.55,114.25L757.7,110.1L758.85,117.79L760.01,116.09L761.16,120.62L762.31,119.33L763.47,120.07L764.62,117.31L765.77,119.3L766.93,117.63L769.23,126.17L770.39,124.14L775,141.74" style="vector-effect: non-scaling-stroke; fill: none; stroke: rgb(76, 120, 168); stroke-opacity: 1; stroke-width: 3px; opacity: 1;"/></g><g class="points"/><g class="text"/></g><g class="trace scatter tracebc2a51" style="stroke-miterlimit: 2; opacity: 1;"><g class="fills"/><g class="errorbars"/><g class="lines"><path class="js-line" d="M0,124.18L2.31,138.3L3.46,147.18L5.77,155.65L6.92,162.82L10.38,183.95L11.53,189.91L13.84,199.82L14.99,195.91L16.15,195.43L17.3,196.69L18.45,220.57L19.61,219.61L21.91,220.57L23.07,237.1L25.37,233.47L26.53,233.11L31.14,212.7L32.29,220.63L34.6,205.04L35.75,199.85L38.06,179.53L39.21,167.07L40.36,154.41L41.52,160.52L44.98,127.65L46.13,133.47L49.59,105.47L50.74,119.57L53.05,107.52L54.2,104.42L55.36,106.25L56.51,98.56L57.66,95.41L58.82,95.04L59.97,98.87L61.12,96.85L62.28,98.24L63.43,101.51L65.74,84.14L66.89,83.63L68.04,85.28L69.2,63.86L71.5,54.53L72.66,53.42L73.81,81.21L74.96,78.07L77.27,73.23L78.42,95.22L79.58,99.97L80.73,100.95L81.88,99.92L83.04,96.55L85.34,107.8L86.5,108.26L87.65,108.9L88.8,104.94L91.11,100.13L92.26,110.59L94.57,102.28L95.72,100.3L96.88,111.96L98.03,107.87L100.33,103.68L101.49,112.94L103.79,108.94L104.95,108.74L106.1,120.82L107.25,122.58L109.56,129.41L110.71,127.65L114.17,151.14L115.33,148.43L118.79,173.46L119.94,186.06L122.25,194.2L123.4,199.8L124.55,202.54L125.71,198.8L126.86,198.41L128.01,199.71L129.17,224.78L130.32,223.47L131.47,223.61L132.63,224.61L133.78,238.28L134.93,237.34L137.24,236.68L138.39,230.33L140.7,219.3L141.85,216.96L143.01,223.87L144.16,215.8L146.47,205.38L147.62,203.21L151.08,171.01L152.23,183.2L155.69,152.52L156.85,151.21L160.31,121.4L161.46,124.22L167.22,99.07L168.38,97.16L169.53,97.29L170.68,101.46L171.84,99.37L172.99,100.7L174.14,103.93L175.3,90.59L176.45,85.92L177.6,85.64L178.76,87.4L179.91,79.42L182.22,60.41L183.37,57.52L184.52,78.84L185.68,77.79L187.98,74.6L189.14,104.05L190.29,105.54L191.44,104.79L193.75,101.13L194.9,108.05L196.06,110.39L197.21,110.47L198.36,110.84L199.52,106.79L201.82,101.87L202.98,110.47L205.28,103.42L206.44,101.66L207.59,106.36L208.74,105.65L211.05,104.15L212.2,104.89L215.66,108.51L216.82,113.91L220.28,129.13L221.43,130.5L223.74,143.84L224.89,152.39L228.35,167.52L229.5,174.97L230.65,185.52L231.81,188.8L234.11,199.04L235.27,200.26L237.57,193.17L238.73,191.92L239.88,207.33L241.03,208.24L243.34,212.44L244.49,231.67L246.8,228.91L247.95,228.98L251.41,212.47L252.57,210.56L253.72,218.41L254.87,210.44L257.18,200.61L258.33,199.76L261.79,168.1L262.95,178.25L266.41,150.38L267.56,153.41L271.02,121.11L272.17,126.88L274.48,114.46L275.63,110.52L276.79,109.03L277.94,101.54L279.09,98.14L280.25,97.3L281.4,99.14L282.55,97.41L283.71,98.89L284.86,102.14L287.17,86.83L288.32,85.16L289.47,86.14L290.63,60.6L292.93,53.45L294.08,52.65L295.24,68.4L296.39,70.99L297.54,71.49L298.7,70.6L299.85,96.9L301,100.27L302.16,100.45L303.31,98.94L304.46,96.01L305.62,103.63L306.77,106.29L307.92,106.48L312.54,97.17L313.69,100.83L317.15,96.18L318.3,109.5L320.61,102.06L321.76,100.12L322.92,109.46L324.07,106.33L326.38,104.59L327.53,114.71L329.84,120.34L330.99,124.13L332.14,125.47L333.3,130.37L335.6,145.19L336.76,156.69L337.91,155.93L339.06,158.71L340.22,163.3L341.37,177.59L342.52,174.27L343.68,173.31L344.83,173.45L345.98,175L348.29,160.19L349.44,157.68L350.6,181.19L351.75,181.29L354.06,193.85L355.21,222.1L358.67,218.64L359.82,216.15L363.28,186.33L364.43,189.75L366.74,171.37L367.89,166.42L369.05,169.31L370.2,156.54L372.51,141.9L373.66,167.32L377.12,136.24L378.27,149.95L381.73,113.03L382.89,122.4L385.19,106.9L386.35,101.79L387.5,102.85L388.65,93.09L389.81,88.49L390.96,87.03L392.11,95.69L393.27,90.41L394.42,90.01L395.57,92.28L397.88,76.61L399.03,74.58L400.19,75.37L401.34,71.95L403.65,48.7L404.8,44.98L405.95,76.9L407.11,70.33L409.41,62.6L410.57,94.75L411.72,94.06L412.87,92.13L414.03,89.52L415.18,97.34L416.33,99.35L417.49,99.08L418.64,97.76L419.79,100.75L422.1,90.75L423.25,88.07L424.4,99.66L425.56,93.53L427.86,87.64L429.02,63.66L431.32,82.46L432.48,85.37L433.63,100.95L434.78,97.56L437.09,95.86L438.24,115.63L439.4,113.62L440.55,114.54L441.7,117.14L442.86,124.95L444.01,126.4L445.16,131.66L446.32,139.02L447.47,151.51L448.62,151.38L449.78,155.69L450.93,162.27L452.08,176.8L453.24,177.93L454.39,181.63L456.7,193.97L457.85,187.27L459,184.99L460.16,184.98L461.31,209.82L462.46,207.16L464.77,206.07L465.92,224.68L468.23,218.09L469.38,217L470.54,217.5L471.69,206.44L474,196.17L475.15,207.58L477.46,188.42L478.61,182.54L482.07,156.07L483.22,149.1L485.53,144.13L486.68,136.77L487.83,126.18L488.99,132.23L492.45,104.73L493.6,119.11L497.06,101.5L498.21,105.39L500.52,89.84L501.67,88.27L502.83,89.73L503.98,87.94L505.13,89.48L506.29,92.85L508.59,78.52L509.75,76.69L512.05,77.7L513.21,60.65L515.51,48.46L516.67,83.42L518.97,70.44L520.13,66.74L521.28,93.9L522.43,95.57L523.59,94.95L524.74,93.1L525.89,107.46L527.05,106.91L529.35,103.42L530.51,100.46L532.81,94.5L533.97,92.64L535.12,95.43L536.27,93.99L538.58,92.01L539.73,98.92L543.19,95.87L544.35,93.4L546.65,97.12L547.81,97.55L548.96,98.94L550.11,103.8L553.57,111.39L554.72,110L555.88,110.32L557.03,111.62L558.18,106.98L559.34,105.79L560.49,107.02L561.64,109.46L562.8,108.64L563.95,110.8L566.26,116.37L567.41,113.49L569.72,102.11L570.87,98.54L572.02,120.91L573.18,113.32L575.48,103.45L576.64,116.58L578.94,109.84L580.1,109.92L581.25,95.47L582.4,94.26L584.71,95.13L585.86,66.36L588.17,86.73L589.32,90.58L590.48,91.06L591.63,87.99L592.78,87.39L593.94,87.78L595.09,108.96L596.24,107.81L598.55,101.31L599.7,111.51L603.16,102.12L604.32,112.72L605.47,111.28L606.62,108.56L608.93,103.43L610.08,96.4L611.24,93.23L612.39,92.51L613.54,101L614.69,96.2L615.85,96.09L617,98.54L618.15,94.9L619.31,85.2L620.46,82.26L621.61,82.59L623.92,57.8L625.07,52.76L626.23,50.4L627.38,95.52L629.69,76.26L630.84,71.35L631.99,106.57L633.15,103.67L635.45,97.37L636.61,109.58L637.76,109.22L638.91,107.7L640.07,105.73L641.22,98.45L644.68,93.93L645.83,105.15L648.14,96.66L649.29,94.61L650.45,102.5L651.6,100.1L653.91,97.18L655.06,99.57L658.52,101.16L659.67,116.67L660.83,117.15L661.98,119.53L663.13,123.03L664.29,132.11L665.44,133.2L666.59,137.87L667.75,144.51L668.9,145.54L671.21,156.4L672.36,163.99L673.51,176.1L674.67,178.18L678.13,190.47L679.28,184.87L680.43,183.68L681.58,184.73L682.74,211.8L683.89,209.21L685.04,208.28L686.2,208.33L687.35,225.77L688.5,222.2L690.81,219.51L691.96,204.94L694.27,199.74L695.42,198.67L696.58,199.2L697.73,195.3L700.04,189.1L701.19,181.73L704.65,157.86L705.8,178.83L709.26,143.76L710.42,152.48L713.88,114.58L715.03,123.57L717.34,108.22L718.49,103.78L719.64,107.6L720.8,97.48L721.95,92.8L723.1,91.39L724.26,101.58L725.41,95.76L726.56,95.14L727.72,97.34L728.87,94.77L730.02,84.48L731.18,81.25L732.33,81.46L733.48,81.55L734.64,64.01L736.94,51.36L738.1,84.35L740.4,72.54L741.56,69.03L742.71,104.69L743.86,102.39L746.17,96.66L747.32,104.96L748.47,106.64L749.63,106.24L750.78,104.9L751.93,101.05L755.39,94.44L756.55,104.44L758.85,96.79L760.01,94.95L761.16,107.95L762.31,103.33L764.62,98.74L765.77,109.72L768.08,104.67L769.23,104.42L770.39,121.47L771.54,120.74L772.69,122.24L773.85,125.05L775,132.42" style="vector-effect: non-scaling-stroke; fill: none; stroke: rgb(255, 127, 14); stroke-opacity: 0.7; stroke-width: 3px; opacity: 1;"/></g><g class="points"/><g class="text"/></g></g></g><g class="overplot"/><path class="xlines-above crisp" d="M0,0" style="fill: none;"/><path class="ylines-above crisp" d="M74,50V310" style="fill: none; stroke-width: 2px; stroke: rgb(0, 0, 0); stroke-opacity: 1;"/><g class="overlines-above"/><g class="xaxislayer-above"><g class="xtick"><text text-anchor="middle" x="0" y="330" transform="translate(158.04000000000002,0)" style="font-family: 'Open Sans', verdana, arial, sans-serif; font-size: 19px; fill: rgb(42, 63, 95); fill-opacity: 1; white-space: pre; opacity: 1;"><tspan class="line" dy="0em" x="0" y="330">May 31</tspan><tspan class="line" dy="1.3em" x="0" y="330">2019</tspan></text></g><g class="xtick"><text text-anchor="middle" x="0" y="330" style="font-family: 'Open Sans', verdana, arial, sans-serif; font-size: 19px; fill: rgb(42, 63, 95); fill-opacity: 1; white-space: pre; opacity: 1;" transform="translate(268.75,0)">Jun 1</text></g><g class="xtick"><text text-anchor="middle" x="0" y="330" style="font-family: 'Open Sans', verdana, arial, sans-serif; font-size: 19px; fill: rgb(42, 63, 95); fill-opacity: 1; white-space: pre; opacity: 1;" transform="translate(379.46,0)">Jun 2</text></g><g class="xtick"><text text-anchor="middle" x="0" y="330" style="font-family: 'Open Sans', verdana, arial, sans-serif; font-size: 19px; fill: rgb(42, 63, 95); fill-opacity: 1; white-space: pre; opacity: 1;" transform="translate(490.18,0)">Jun 3</text></g><g class="xtick"><text text-anchor="middle" x="0" y="330" style="font-family: 'Open Sans', verdana, arial, sans-serif; font-size: 19px; fill: rgb(42, 63, 95); fill-opacity: 1; white-space: pre; opacity: 1;" transform="translate(600.89,0)">Jun 4</text></g><g class="xtick"><text text-anchor="middle" x="0" y="330" style="font-family: 'Open Sans', verdana, arial, sans-serif; font-size: 19px; fill: rgb(42, 63, 95); fill-opacity: 1; white-space: pre; opacity: 1;" transform="translate(711.61,0)">Jun 5</text></g><g class="xtick"><text text-anchor="middle" x="0" y="330" style="font-family: 'Open Sans', verdana, arial, sans-serif; font-size: 19px; fill: rgb(42, 63, 95); fill-opacity: 1; white-space: pre; opacity: 1;" transform="translate(822.32,0)">Jun 6</text></g></g><g class="yaxislayer-above"><g class="ytick"><text text-anchor="end" x="69.2" y="6.6499999999999995" transform="translate(0,275.37)" style="font-family: 'Open Sans', verdana, arial, sans-serif; font-size: 19px; fill: rgb(42, 63, 95); fill-opacity: 1; white-space: pre; opacity: 1;">−2</text></g><g class="ytick"><text text-anchor="end" x="69.2" y="6.6499999999999995" style="font-family: 'Open Sans', verdana, arial, sans-serif; font-size: 19px; fill: rgb(42, 63, 95); fill-opacity: 1; white-space: pre; opacity: 1;" transform="translate(0,225.03)">−1</text></g><g class="ytick"><text text-anchor="end" x="69.2" y="6.6499999999999995" style="font-family: 'Open Sans', verdana, arial, sans-serif; font-size: 19px; fill: rgb(42, 63, 95); fill-opacity: 1; white-space: pre; opacity: 1;" transform="translate(0,174.68)">0</text></g><g class="ytick"><text text-anchor="end" x="69.2" y="6.6499999999999995" style="font-family: 'Open Sans', verdana, arial, sans-serif; font-size: 19px; fill: rgb(42, 63, 95); fill-opacity: 1; white-space: pre; opacity: 1;" transform="translate(0,124.33)">1</text></g><g class="ytick"><text text-anchor="end" x="69.2" y="6.6499999999999995" style="font-family: 'Open Sans', verdana, arial, sans-serif; font-size: 19px; fill: rgb(42, 63, 95); fill-opacity: 1; white-space: pre; opacity: 1;" transform="translate(0,73.99)">2</text></g></g><g class="overaxes-above"/></g></g><g class="polarlayer"/><g class="ternarylayer"/><g class="geolayer"/><g class="funnelarealayer"/><g class="pielayer"/><g class="iciclelayer"/><g class="treemaplayer"/><g class="sunburstlayer"/><g class="glimages"/><defs id="topdefs-6e7d66"><g class="clips"/></defs><g class="layer-above"><g class="imagelayer"/><g class="shapelayer"/></g><g class="infolayer"><g class="g-gtitle"/><g class="g-xtitle"/><g class="g-ytitle" transform="translate(12.537109375,0)"><text class="ytitle" transform="rotate(-90,10.462500000000006,180)" x="10.462500000000006" y="180" text-anchor="middle" style="font-family: 'Open Sans', verdana, arial, sans-serif; font-size: 23px; fill: rgb(42, 63, 95); opacity: 1; font-weight: normal; white-space: pre;">Netload [kW]</text></g></g></svg>