<svg class="main-svg" xmlns="http://www.w3.org/2000/svg" xmlns:xlink="http://www.w3.org/1999/xlink" width="900" height="400" viewBox="0 0 900 400"><rect x="0" y="0" width="900" height="400" style="fill: rgb(255, 255, 255); fill-opacity: 1;"/><defs id="defs-1278e9"><g class="clips"><clipPath id="clip1278e9xyplot" class="plotclip"><rect width="775" height="260"/></clipPath><clipPath class="axesclip" id="clip1278e9x"><rect x="75" y="0" width="775" height="400"/></clipPath><clipPath class="axesclip" id="clip1278e9y"><rect x="0" y="50" width="900" height="260"/></clipPath><clipPath class="axesclip" id="clip1278e9xy"><rect x="75" y="50" width="775" height="260"/></clipPath></g><g class="gradients"/><g class="patterns"/></defs><g class="bglayer"/><g class="layer-below"><g class="imagelayer"/><g class="shapelayer"/></g><g class="cartesianlayer"><g class="subplot xy"><g class="layer-subplot"><g class="shapelayer"/><g class="imagelayer"/></g><g class="gridlayer"><g class="x"><path class="xgrid crisp" transform="translate(158.04000000000002,0)" d="M0,50v260" style="stroke: rgb(235, 240, 248); stroke-opacity: 1; stroke-width: 1px;"/><path class="xgrid crisp" transform="translate(268.75,0)" d="M0,50v260" style="stroke: rgb(235, 240, 248); stroke-opacity: 1; stroke-width: 1px;"/><path class="xgrid crisp" transform="translate(379.46,0)" d="M0,50v260" style="stroke: rgb(235, 240, 248); stroke-opacity: 1; stroke-width: 1px;"/><path class="xgrid crisp" transform="translate(490.18,0)" d="M0,50v260" style="stroke: rgb(235, 240, 248); stroke-opacity: 1; stroke-width: 1px;"/><path class="xgrid crisp" transform="translate(600.89,0)" d="M0,50v260" style="stroke: rgb(235, 240, 248); stroke-opacity: 1; stroke-width: 1px;"/><path class="xgrid crisp" transform="translate(711.61,0)" d="M0,50v260" style="stroke: rgb(235, 240, 248); stroke-opacity: 1; stroke-width: 1px;"/><path class="xgrid crisp" transform="translate(822.32,0)" d="M0,50v260" style="stroke: rgb(235, 240, 248); stroke-opacity: 1; stroke-width: 1px;"/></g><g class="y"><path class="ygrid crisp" transform="translate(0,275.37)" d="M75,0h775" style="stroke: rgb(235, 240, 248); stroke-opacity: 1; stroke-width: 1px;"/><path class="ygrid crisp" transform="translate(0,225.03)" d="M75,0h775" style="stroke: rgb(235, 240, 248); stroke-opacity: 1; stroke-width: 1px;"/><path class="ygrid crisp" transform="translate(0,124.33)" d="M75,0h775" style="stroke: rgb(235, 240, 248); stroke-opacity: 1; stroke-width: 1px;"/><path class="ygrid crisp" transform="translate(0,73.99)" d="M75,0h775" style="stroke: rgb(235, 240, 248); stroke-opacity: 1; stroke-width: 1px;"/></g></g><g class="zerolinelayer"><path class="yzl zl crisp" transform="translate(0,174.68)" d="M75,0h775" style="stroke: rgb(0, 0, 0); stroke-opacity: 1; stroke-width: 2px;"/></g><path class="xlines-below"/><path class="ylines-below"/><g class="overlines-below"/><g class="xaxislayer-below"/><g class="yaxislayer-below"/><g class="overaxes-below"/><g class="plot" transform="translate(75,50)" clip-path="url(#clip1278e9xyplot)"><g class="scatterlayer mlayer"><g class="trace scatter trace41001a" style="stroke-miterlimit: 2; opacity: 1;"><g class="fills"/><g class="errorbars"/><g class="lines"><path class="js-line" d="M0,117.41L3.46,148.94L4.61,151.15L6.92,174.12L8.07,174.86L10.38,192.01L11.53,199.13L12.69,210.46L13.84,207.55L14.99,202.35L16.15,227.52L17.3,223.53L18.45,231.14L20.76,241.2L21.91,241.58L23.07,246.12L24.22,245.68L25.37,237L26.53,241.22L28.83,214.96L29.99,214L31.14,235.18L32.29,228.88L33.44,216.62L34.6,191.19L35.75,205.87L36.9,199.51L39.21,167.58L40.36,171.55L41.52,146.99L42.67,144.28L43.82,143.54L44.98,146.65L47.28,126.66L48.44,129.92L49.59,130.66L50.74,126.49L51.9,126.16L53.05,123.1L54.2,121.66L55.36,123.61L57.66,117.75L58.82,107.02L59.97,109.49L61.12,108.08L62.28,104.16L63.43,103.63L64.58,98.5L65.74,117.36L69.2,51.54L70.35,55.57L72.66,86.28L73.81,79.96L74.96,53.33L76.12,74.94L77.27,83.47L78.42,103.98L79.58,114.35L80.73,117.51L81.88,78.29L83.04,106.82L84.19,115.36L85.34,116.51L86.5,114.82L87.65,117.98L88.8,117.5L89.96,111.73L91.11,119.71L92.26,111.68L93.42,112.4L94.57,117.67L95.72,119.05L96.88,122.23L98.03,122L99.18,116.36L100.33,118.9L101.49,107.04L102.64,115.76L103.79,114.36L104.95,121.21L106.1,109.52L107.25,106.8L108.41,127.41L109.56,123.19L110.71,123.38L111.87,130.48L113.02,127.04L117.63,182.52L118.79,186.14L122.25,212.36L123.4,212.85L125.71,227.47L126.86,224.29L129.17,234.43L130.32,230.37L131.47,242.97L132.63,239.66L133.78,246.25L134.93,247L136.09,245.79L137.24,242.94L138.39,241.92L139.55,242.75L140.7,235.8L141.85,236.65L143.01,235.41L144.16,231.26L146.47,220.99L147.62,216.39L148.77,199.68L149.93,198.25L151.08,192.14L152.23,161.65L153.39,173.07L154.54,166.48L155.69,157.52L156.85,141.43L158,143.97L159.15,139.72L160.31,131.34L161.46,130.7L162.61,130.81L163.76,127.45L166.07,100.66L167.22,109.91L168.38,90.62L169.53,109.71L170.68,98.89L171.84,101.77L172.99,86.54L174.14,104L175.3,106.39L176.45,104.36L177.6,112.06L178.76,106.16L181.06,92.77L182.22,67.04L183.37,79.91L184.52,102.76L186.83,91.39L187.98,98.43L189.14,105.25L190.29,104.02L192.6,85.31L193.75,107.27L194.9,112.89L196.06,108.3L197.21,116.92L198.36,109.77L199.52,108.67L200.67,112.39L201.82,117.98L202.98,106.56L204.13,104.89L205.28,96.75L206.44,107.02L207.59,101.21L208.74,116.48L209.9,104.74L211.05,102.3L212.2,108.65L213.36,120.32L214.51,96.85L215.66,107.33L216.82,106.17L217.97,111.21L219.12,111.67L220.28,127.84L221.43,126.63L222.58,138.85L223.74,140.72L226.04,170.39L227.19,179.9L228.35,184.26L229.5,185.4L235.27,214.82L236.42,217.83L237.57,204.64L238.73,208.05L239.88,206.55L241.03,218.7L243.34,235.69L244.49,236.6L245.65,225.55L246.8,231.1L249.11,236.64L250.26,230.16L252.57,231.35L253.72,229.72L256.03,219.43L257.18,218.02L258.33,215.24L259.49,207.11L260.64,202.35L261.79,184.58L262.95,186.14L264.1,179.56L268.71,145.88L269.87,139.28L271.02,136.62L272.17,131.61L273.33,123.6L274.48,124.03L275.63,123.42L276.79,113.89L277.94,112.66L279.09,112.62L280.25,106.64L281.4,84.56L282.55,111.25L283.71,103.97L284.86,112.25L286.01,106.69L287.17,110.66L288.32,110.22L290.63,49.32L291.78,23.03L292.93,82.04L294.08,62.47L296.39,102.69L297.54,104.2L298.7,87.63L299.85,114.38L301,106.62L302.16,105.06L303.31,78.75L304.46,116.7L306.77,106.59L307.92,106.92L309.08,106.91L310.23,112.52L312.54,103.7L313.69,102.51L314.84,110.47L316,107.03L317.15,117.42L318.3,110.77L319.46,115.86L320.61,110.33L321.76,115.87L322.92,114.56L324.07,112.06L325.22,116.91L326.38,113.63L327.53,113.96L328.68,121.99L329.84,122.38L330.99,124.06L332.14,128.54L334.45,149.41L335.6,164.2L341.37,188.79L342.52,192.38L343.68,194.49L344.83,194.21L345.98,190.16L347.14,191.9L348.29,195.26L349.44,190.2L350.6,196.89L351.75,193.69L352.9,201.25L354.06,222.22L355.21,239.72L356.36,238.02L359.82,230.79L360.97,224.13L362.13,219.62L363.28,209.52L364.43,205.89L365.59,189.68L366.74,179.8L367.89,191.09L369.05,173.23L370.2,178.88L371.35,177.21L372.51,181.35L373.66,169.94L374.81,174.16L375.97,173.25L377.12,166.66L378.27,156.15L379.43,153.96L381.73,134.52L382.89,118.89L384.04,123.18L385.19,122.42L386.35,121.56L387.5,106.03L388.65,96.72L389.81,103.25L390.96,109.89L392.11,107.61L393.27,116.2L394.42,113.9L395.57,104.01L396.73,107.29L397.88,116.32L399.03,112.37L401.34,100.78L402.49,111.53L403.65,104.5L404.8,88.38L405.95,98.16L407.11,90.03L408.26,78.13L409.41,93.21L410.57,101.37L411.72,99.46L412.87,96.85L414.03,90.76L415.18,107.6L416.33,107.18L417.49,107.9L418.64,110.63L420.94,100.83L422.1,105.48L424.4,117.93L425.56,109.35L426.71,103.95L427.86,39.14L429.02,106.11L430.17,117.32L431.32,109.5L432.48,108L433.63,114.64L434.78,112.69L435.94,122.66L437.09,122.94L438.24,116.75L439.4,116.79L440.55,106.3L441.7,130.51L442.86,132.75L444.01,132.2L447.47,166.09L448.62,175.78L449.78,171.33L450.93,180.79L455.54,209.3L456.7,209.6L457.85,216.62L459,208.49L461.31,224.8L462.46,211.49L464.77,232.41L465.92,238.11L467.08,234.63L468.23,236.64L469.38,237.21L470.54,235.31L471.69,229.93L472.84,231.57L474,226.45L475.15,214.96L477.46,179.34L478.61,184.32L479.76,178.4L480.92,182.79L483.22,136.81L484.38,144.97L485.53,153.81L486.68,145.07L487.83,147.51L488.99,134.87L490.14,125.17L491.29,128.34L492.45,128.62L493.6,124.62L494.75,124.3L495.91,123.15L497.06,125.8L498.21,102.9L499.37,52.11L500.52,78.11L501.67,97.46L502.83,91.55L503.98,85.81L505.13,93.37L506.29,105.42L507.44,98.71L508.59,104.7L509.75,99.49L510.9,112.33L512.05,93.9L513.21,108.97L514.36,105.3L515.51,97.74L516.67,101.92L517.82,98.87L518.97,104.04L520.13,88.03L521.28,94.84L523.59,78.89L524.74,105.87L525.89,94.46L527.05,51.85L528.2,100.5L529.35,105.49L530.51,110.77L531.66,104.28L532.81,112.61L533.97,97.43L535.12,89.15L536.27,111.89L537.43,110.48L538.58,100.62L539.73,31.01L540.89,104.19L542.04,105.8L543.19,87.96L544.35,105.24L545.5,86.12L546.65,102.38L547.81,90.24L548.96,97.37L550.11,77.95L551.26,111.68L552.42,115.81L553.57,113.32L554.72,105.12L555.88,111.75L557.03,112.78L558.18,116.14L559.34,123.35L560.49,108.26L561.64,107.8L563.95,128.07L565.1,121.91L566.26,124.53L567.41,111.74L568.56,74.26L569.72,125.07L570.87,132.33L572.02,117.14L573.18,118.03L574.33,130.1L575.48,127.28L576.64,97.16L577.79,100.32L578.94,107.25L580.1,98.94L581.25,108.97L582.4,108.08L583.56,13L587.02,92.3L588.17,103.74L590.48,96.09L591.63,107.29L592.78,105.49L593.94,107.56L595.09,114.96L596.24,66.1L597.4,105.04L598.55,115.36L599.7,116.87L600.86,108.67L602.01,112.83L603.16,111L604.32,129.05L605.47,128.78L606.62,114.67L607.78,116.94L608.93,121.29L610.08,118.06L611.24,106.61L612.39,114.35L613.54,115.86L614.69,119.97L617,117.8L618.15,113.16L619.31,119.59L620.46,114.13L621.61,91.66L622.77,104.26L623.92,105.65L625.07,87.94L626.23,117.45L627.38,118.04L628.53,118.4L629.69,116.98L630.84,109.27L631.99,118.5L633.15,114.7L634.3,98.68L636.61,111.35L637.76,111.1L638.91,115.01L640.07,99.76L641.22,99.29L642.37,106.68L643.53,114.86L644.68,114.39L646.99,109.55L648.14,105.06L649.29,106.35L650.45,104.57L651.6,105.78L652.75,95.63L653.91,98.99L655.06,108.55L656.21,115.11L657.37,114.8L658.52,119.54L659.67,120.36L660.83,130.64L661.98,134L665.44,142.54L666.59,142.77L668.9,147.85L670.05,156.16L671.21,159L672.36,177.23L673.51,191.19L674.67,192.54L675.82,202.44L676.97,204.63L678.13,206.19L679.28,216.55L680.43,211.18L681.58,217.48L682.74,213.54L683.89,203.88L686.2,232.2L687.35,212.17L689.66,201.47L690.81,210.79L693.12,222.34L694.27,210.41L695.42,204.69L696.58,211.73L697.73,204.66L698.88,204.36L700.04,192.55L701.19,210.29L702.34,199.7L703.5,195.98L704.65,193.17L705.8,188.14L708.11,169.05L709.26,167.92L713.88,137.02L715.03,128.53L716.18,131.86L717.34,127.96L718.49,127.18L719.64,124.42L720.8,121.29L721.95,112.68L723.1,116.91L724.26,109.1L725.41,110.95L726.56,117.31L727.72,118.85L728.87,115.82L731.18,118.12L732.33,117.06L733.48,114.46L734.64,114.58L735.79,96.71L736.94,97.13L738.1,97.25L739.25,85.68L740.4,87.63L741.56,106.31L742.71,109.49L743.86,98.28L745.01,103.69L746.17,99.1L747.32,118.38L748.47,118.24L749.63,113.32L750.78,104.74L751.93,116.61L753.09,106.96L754.24,115.33L755.39,112.77L756.55,114.25L757.7,110.1L758.85,117.79L760.01,116.09L761.16,120.62L762.31,119.33L763.47,120.07L764.62,117.31L765.77,119.3L766.93,117.63L769.23,126.17L770.39,124.14L775,141.74" style="vector-effect: non-scaling-stroke; fill: none; stroke: rgb(76, 120, 168); stroke-opacity: 1; stroke-width: 3px; opacity: 1;"/></g><g class="points"/><g class="text"/></g><g class="trace scatter trace7f80b1" style="stroke-miterlimit: 2; opacity: 1;"><g class="fills"/><g class="errorbars"/><g class="lines"><path class="js-line" d="M0,124.18L2.31,138.3L3.46,147.18L4.61,149.5L5.77,155.16L12.69,195.76L13.84,192.07L14.99,191.82L16.15,193.28L17.3,195.55L18.45,205.82L20.76,215.66L21.91,218.41L24.22,228.22L25.37,230.07L26.53,231.31L27.68,222.52L29.99,214.07L31.14,211.94L35.75,198.05L36.9,188.08L40.36,153.8L41.52,151.17L43.82,136.21L44.98,126.27L47.28,117.21L48.44,110.73L49.59,103.9L50.74,105.46L53.05,103.6L54.2,102.36L56.51,93.2L57.66,92.58L58.82,93.55L59.97,91.77L61.12,93.11L62.28,96.26L63.43,100.47L64.58,87.63L65.74,83.26L66.89,83.17L68.04,85.03L69.2,67.24L71.5,55.47L72.66,53.92L74.96,69.08L76.12,70.87L77.27,70.73L78.42,88.51L79.58,96.43L80.73,99.08L81.88,98.93L83.04,107.43L84.19,110.5L85.34,110.83L86.5,109.85L87.65,106.28L91.11,99.75L92.26,100.07L95.72,98.76L96.88,101.26L99.18,102.39L100.33,102.11L102.64,105.43L103.79,106.48L104.95,107.45L106.1,113.56L109.56,128.35L110.71,130.37L113.02,143.12L114.17,151.54L115.33,153.46L116.48,158.86L123.4,198.87L124.55,195.17L125.71,194.91L126.86,196.36L128.01,198.63L129.17,208.9L131.47,219.2L132.63,222.28L134.93,232.52L136.09,234.27L137.24,235.34L138.39,226.32L140.7,218.19L141.85,216.38L146.47,203.82L147.62,194.16L151.08,169.69L152.23,171.36L153.39,167.31L154.54,160L155.69,150.78L156.85,147.66L159.15,131.13L160.31,120.88L162.61,115.55L163.76,112.27L164.92,109.35L166.07,101.56L168.38,96.46L169.53,96.92L170.68,94.72L171.84,95.81L174.14,102.94L175.3,90.03L176.45,85.62L177.6,85.48L178.76,87.31L179.91,69.49L182.22,57.65L183.37,56.07L185.68,71.17L186.83,72.93L187.98,72.76L189.14,90.51L190.29,98.41L191.44,101.03L192.6,100.86L193.75,109.33L194.9,112.37L196.06,112.67L197.21,111.67L198.36,108.08L201.82,101.46L202.98,101.76L206.44,100.38L207.59,102.86L209.9,103.94L211.05,103.63L213.36,106.85L214.51,107.78L215.66,108.61L216.82,114.58L220.28,129.23L221.43,130.5L223.74,143.84L224.89,152.39L226.04,154.4L227.19,159.69L234.11,198.2L235.27,194.29L237.57,191.51L238.73,191.04L241.03,203.51L242.19,207.56L243.34,211.13L244.49,218.72L246.8,225.31L247.95,227.08L250.26,214.13L251.41,211.53L252.57,210.06L253.72,207.18L257.18,198.96L258.33,189.71L261.79,166.63L262.95,168.79L264.1,165.06L265.25,158L266.41,148.99L267.56,146.05L269.87,130.01L271.02,120.03L273.33,115.18L274.48,112.03L275.63,109.24L276.79,101.55L279.09,96.06L280.25,96.2L281.4,93.64L282.55,94.51L284.86,101.34L286.01,88.32L287.17,83.8L288.32,83.56L289.47,85.29L290.63,67.37L292.93,55.33L294.08,53.64L296.39,68.54L297.54,70.19L298.7,69.92L299.85,87.56L301,95.35L302.16,97.86L303.31,97.57L304.46,105.93L305.62,108.86L306.77,109.04L307.92,107.93L309.08,104.22L312.54,97.25L313.69,97.43L317.15,95.68L318.3,98.04L320.61,98.87L321.76,98.44L324.07,101.48L325.22,102.4L326.38,103.24L327.53,109.23L330.99,123.33L332.14,125.08L334.45,137.11L335.6,145.13L336.76,146.64L337.91,150.63L341.37,165.04L342.52,167.66L344.83,171.61L345.98,163.08L348.29,156.88L349.44,155.93L352.9,181.22L354.06,191.2L356.36,212.5L357.51,215.32L358.67,216.25L359.82,206.45L364.43,176.77L365.59,171.56L367.89,164.52L369.05,155.3L372.51,139.85L373.66,145.44L374.81,144.47L375.97,139.81L377.12,133.03L378.27,132.22L380.58,119.18L381.73,110.43L382.89,109.7L384.04,106.89L386.35,99.92L387.5,91.44L389.81,85.32L390.96,85.36L392.11,82.76L393.27,83.59L395.57,90.38L396.73,77.35L397.88,72.83L399.03,72.58L400.19,74.31L401.34,56.39L403.65,44.37L404.8,42.7L407.11,57.64L408.26,59.32L409.41,59.07L410.57,76.75L411.72,84.57L412.87,87.12L414.03,86.88L415.18,95.29L416.33,98.27L417.49,98.51L418.64,97.46L419.79,93.81L423.25,87.06L424.4,87.31L427.86,85.83L429.02,88.27L431.32,89.3L432.48,88.98L435.94,93.37L437.09,94.39L440.55,110.35L441.7,114.93L442.86,124.95L444.01,126.4L446.32,139.02L447.47,140.41L449.78,152.6L450.93,160.65L455.54,184.98L456.7,181.15L457.85,180.51L459,181.43L460.16,183.11L461.31,192.74L463.62,201.39L464.77,203.57L467.08,212.38L468.23,213.86L469.38,214.77L470.54,205.67L472.84,196.76L474,194.43L478.61,180.06L479.76,170.02L483.22,148.77L484.38,152.03L485.53,147.46L486.68,138.52L488.99,121.48L490.14,115.43L492.45,103.16L493.6,105.68L494.75,104.71L495.91,102.28L497.06,99.53L498.21,91.54L500.52,85.99L501.67,86.24L502.83,83.81L503.98,84.82L506.29,91.98L507.44,79.13L508.59,74.78L509.75,74.72L510.9,76.63L512.05,58.88L514.36,47.2L515.51,45.7L517.82,60.97L518.97,62.81L520.13,62.72L521.28,80.56L522.43,88.53L523.59,91.24L524.74,91.14L525.89,99.7L527.05,102.82L528.2,103.2L529.35,102.29L530.51,98.77L533.97,92.39L535.12,92.77L538.58,91.62L539.73,94.18L542.04,95.41L543.19,95.18L545.5,98L546.65,98.18L547.81,98.1L548.96,103.09L551.26,107.89L552.42,109.42L553.57,108.02L554.72,108.23L557.03,111.13L558.18,106.1L559.34,105.33L560.49,106.77L561.64,109.33L562.8,109.45L565.1,113.73L566.26,116.48L568.56,104.49L569.72,100.93L570.87,97.92L572.02,102.77L573.18,103.75L574.33,102.75L575.48,100.79L576.64,102.61L580.1,107.87L581.25,100.18L582.4,96.74L583.56,95.64L584.71,95.82L585.86,94.68L589.32,94.73L590.48,88.59L591.63,86.69L592.78,86.71L593.94,87.41L595.09,98.34L596.24,102.21L597.4,102.12L598.55,99.75L599.7,103.28L600.86,103.74L602.01,102.66L603.16,100.92L604.32,107.41L605.47,108.48L606.62,107.08L607.78,104.83L608.93,97.04L611.24,91.46L612.39,91.57L613.54,88.99L614.69,89.87L617,96.79L618.15,83.82L619.31,79.36L620.46,79.18L621.61,80.97L622.77,63.1L625.07,51.19L626.23,49.57L628.53,64.59L629.69,66.32L630.84,66.1L631.99,83.82L633.15,91.67L634.3,94.25L635.45,94.03L636.61,102.46L637.76,105.46L638.91,105.72L640.07,104.68L641.22,101.04L644.68,94.31L645.83,94.56L649.29,93.06L650.45,95.5L652.75,96.5L653.91,96.15L656.21,99.29L657.37,100.17L658.52,100.94L659.67,106.86L663.13,121.6L664.29,132.11L665.44,133.2L666.59,137.87L667.75,144.51L668.9,145.12L671.21,156.29L672.36,163.93L676.97,185.13L678.13,180.19L679.28,179.45L680.43,180.82L681.58,183.23L682.74,193.74L685.04,203.26L686.2,205.69L688.5,214.84L689.66,216.44L690.81,217.46L691.96,208.46L694.27,200.72L695.42,199.19L700.04,188.67L701.19,179.69L704.65,157.56L705.8,160.05L706.96,156.6L708.11,149.78L709.26,141.01L710.42,138.29L712.72,122.44L713.88,112.5L716.18,107.72L717.34,104.63L718.49,101.89L719.64,94.26L721.95,89.09L723.1,89.44L724.26,87.1L725.41,88.13L727.72,95.21L728.87,82.31L730.02,77.91L731.18,77.78L732.33,79.63L733.48,61.82L735.79,50.03L736.94,48.47L739.25,63.62L740.4,65.41L741.56,65.27L742.71,83.05L743.86,90.98L745.01,93.63L746.17,93.49L747.32,102L748.47,105.08L749.63,105.42L750.78,104.46L751.93,100.9L755.39,94.42L756.55,94.77L760.01,93.53L761.16,96.06L763.47,97.25L764.62,96.99L768.08,101.69L769.23,102.85L772.69,118.82L773.85,123.25L775,124.87" style="vector-effect: non-scaling-stroke; fill: none; stroke: rgb(255, 127, 14); stroke-opacity: 0.7; stroke-width: 3px; opacity: 1;"/></g><g class="points"/><g class="text"/></g></g></g><g class="overplot"/><path class="xlines-above crisp" d="M0,0" style="fill: none;"/><path class="ylines-above crisp" d="M74,50V310" style="fill: none; stroke-width: 2px; stroke: rgb(0, 0, 0); stroke-opacity: 1;"/><g class="overlines-above"/><g class="xaxislayer-above"><g class="xtick"><text text-anchor="middle" x="0" y="330" transform="translate(158.04000000000002,0)" style="font-family: 'Open Sans', verdana, arial, sans-serif; font-size: 19px; fill: rgb(42, 63, 95); fill-opacity: 1; white-space: pre; opacity: 1;"><tspan class="line" dy="0em" x="0" y="330">May 31</tspan><tspan class="line" dy="1.3em" x="0" y="330">2019</tspan></text></g><g class="xtick"><text text-anchor="middle" x="0" y="330" style="font-family: 'Open Sans', verdana, arial, sans-serif; font-size: 19px; fill: rgb(42, 63, 95); fill-opacity: 1; white-space: pre; opacity: 1;" transform="translate(268.75,0)">Jun 1</text></g><g class="xtick"><text text-anchor="middle" x="0" y="330" style="font-family: 'Open Sans', verdana, arial, sans-serif; font-size: 19px; fill: rgb(42, 63, 95); fill-opacity: 1; white-space: pre; opacity: 1;" transform="translate(379.46,0)">Jun 2</text></g><g class="xtick"><text text-anchor="middle" x="0" y="330" style="font-family: 'Open Sans', verdana, arial, sans-serif; font-size: 19px; fill: rgb(42, 63, 95); fill-opacity: 1; white-space: pre; opacity: 1;" transform="translate(490.18,0)">Jun 3</text></g><g class="xtick"><text text-anchor="middle" x="0" y="330" style="font-family: 'Open Sans', verdana, arial, sans-serif; font-size: 19px; fill: rgb(42, 63, 95); fill-opacity: 1; white-space: pre; opacity: 1;" transform="translate(600.89,0)">Jun 4</text></g><g class="xtick"><text text-anchor="middle" x="0" y="330" style="font-family: 'Open Sans', verdana, arial, sans-serif; font-size: 19px; fill: rgb(42, 63, 95); fill-opacity: 1; white-space: pre; opacity: 1;" transform="translate(711.61,0)">Jun 5</text></g><g class="xtick"><text text-anchor="middle" x="0" y="330" style="font-family: 'Open Sans', verdana, arial, sans-serif; font-size: 19px; fill: rgb(42, 63, 95); fill-opacity: 1; white-space: pre; opacity: 1;" transform="translate(822.32,0)">Jun 6</text></g></g><g class="yaxislayer-above"><g class="ytick"><text text-anchor="end" x="69.2" y="6.6499999999999995" transform="translate(0,275.37)" style="font-family: 'Open Sans', verdana, arial, sans-serif; font-size: 19px; fill: rgb(42, 63, 95); fill-opacity: 1; white-space: pre; opacity: 1;">−2</text></g><g class="ytick"><text text-anchor="end" x="69.2" y="6.6499999999999995" style="font-family: 'Open Sans', verdana, arial, sans-serif; font-size: 19px; fill: rgb(42, 63, 95); fill-opacity: 1; white-space: pre; opacity: 1;" transform="translate(0,225.03)">−1</text></g><g class="ytick"><text text-anchor="end" x="69.2" y="6.6499999999999995" style="font-family: 'Open Sans', verdana, arial, sans-serif; font-size: 19px; fill: rgb(42, 63, 95); fill-opacity: 1; white-space: pre; opacity: 1;" transform="translate(0,174.68)">0</text></g><g class="ytick"><text text-anchor="end" x="69.2" y="6.6499999999999995" style="font-family: 'Open Sans', verdana, arial, sans-serif; font-size: 19px; fill: rgb(42, 63, 95); fill-opacity: 1; white-space: pre; opacity: 1;" transform="translate(0,124.33)">1</text></g><g class="ytick"><text text-anchor="end" x="69.2" y="6.6499999999999995" style="font-family: 'Open Sans', verdana, arial, sans-serif; font-size: 19px; fill: rgb(42, 63, 95); fill-opacity: 1; white-space: pre; opacity: 1;" transform="translate(0,73.99)">2</text></g></g><g class="overaxes-above"/></g></g><g class="polarlayer"/><g class="ternarylayer"/><g class="geolayer"/><g class="funnelarealayer"/><g class="pielayer"/><g class="iciclelayer"/><g class="treemaplayer"/><g class="sunburstlayer"/><g class="glimages"/><defs id="topdefs-1278e9"><g class="clips"/></defs><g class="layer-above"><g class="imagelayer"/><g class="shapelayer"/></g><g class="infolayer"><g class="g-gtitle"/><g class="g-xtitle"/><g class="g-ytitle" transform="translate(12.537109375,0)"><text class="ytitle" transform="rotate(-90,10.462500000000006,180)" x="10.462500000000006" y="180" text-anchor="middle" style="font-family: 'Open Sans', verdana, arial, sans-serif; font-size: 23px; fill: rgb(42, 63, 95); opacity: 1; font-weight: normal; white-space: pre;">Netload [kW]</text></g></g></svg>