<svg class="main-svg" xmlns="http://www.w3.org/2000/svg" xmlns:xlink="http://www.w3.org/1999/xlink" width="900" height="400" viewBox="0 0 900 400"><rect x="0" y="0" width="900" height="400" style="fill: rgb(255, 255, 255); fill-opacity: 1;"/><defs id="defs-a01e7c"><g class="clips"><clipPath id="clipa01e7cxyplot" class="plotclip"><rect width="775" height="260"/></clipPath><clipPath class="axesclip" id="clipa01e7cx"><rect x="75" y="0" width="775" height="400"/></clipPath><clipPath class="axesclip" id="clipa01e7cy"><rect x="0" y="50" width="900" height="260"/></clipPath><clipPath class="axesclip" id="clipa01e7cxy"><rect x="75" y="50" width="775" height="260"/></clipPath></g><g class="gradients"/><g class="patterns"/></defs><g class="bglayer"/><g class="layer-below"><g class="imagelayer"/><g class="shapelayer"/></g><g class="cartesianlayer"><g class="subplot xy"><g class="layer-subplot"><g class="shapelayer"/><g class="imagelayer"/></g><g class="gridlayer"><g class="x"><path class="xgrid crisp" transform="translate(158.04000000000002,0)" d="M0,50v260" style="stroke: rgb(235, 240, 248); stroke-opacity: 1; stroke-width: 1px;"/><path class="xgrid crisp" transform="translate(268.75,0)" d="M0,50v260" style="stroke: rgb(235, 240, 248); stroke-opacity: 1; stroke-width: 1px;"/><path class="xgrid crisp" transform="translate(379.46,0)" d="M0,50v260" style="stroke: rgb(235, 240, 248); stroke-opacity: 1; stroke-width: 1px;"/><path class="xgrid crisp" transform="translate(490.18,0)" d="M0,50v260" style="stroke: rgb(235, 240, 248); stroke-opacity: 1; stroke-width: 1px;"/><path class="xgrid crisp" transform="translate(600.89,0)" d="M0,50v260" style="stroke: rgb(235, 240, 248); stroke-opacity: 1; stroke-width: 1px;"/><path class="xgrid crisp" transform="translate(711.61,0)" d="M0,50v260" style="stroke: rgb(235, 240, 248); stroke-opacity: 1; stroke-width: 1px;"/><path class="xgrid crisp" transform="translate(822.32,0)" d="M0,50v260" style="stroke: rgb(235, 240, 248); stroke-opacity: 1; stroke-width: 1px;"/></g><g class="y"><path class="ygrid crisp" transform="translate(0,277.95)" d="M75,0h775" style="stroke: rgb(235, 240, 248); stroke-opacity: 1; stroke-width: 1px;"/><path class="ygrid crisp" transform="translate(0,226.91)" d="M75,0h775" style="stroke: rgb(235, 240, 248); stroke-opacity: 1; stroke-width: 1px;"/><path class="ygrid crisp" transform="translate(0,124.84)" d="M75,0h775" style="stroke: rgb(235, 240, 248); stroke-opacity: 1; stroke-width: 1px;"/><path class="ygrid crisp" transform="translate(0,73.8)" d="M75,0h775" style="stroke: rgb(235, 240, 248); stroke-opacity: 1; stroke-width: 1px;"/></g></g><g class="zerolinelayer"><path class="yzl zl crisp" transform="translate(0,175.88)" d="M75,0h775" style="stroke: rgb(0, 0, 0); stroke-opacity: 1; stroke-width: 2px;"/></g><path class="xlines-below"/><path class="ylines-below"/><g class="overlines-below"/><g class="xaxislayer-below"/><g class="yaxislayer-below"/><g class="overaxes-below"/><g class="plot" transform="translate(75,50)" clip-path="url(#clipa01e7cxyplot)"><g class="scatterlayer mlayer"><g class="trace scatter trace413983" style="stroke-miterlimit: 2; opacity: 1;"><g class="fills"/><g class="errorbars"/><g class="lines"><path class="js-line" d="M0,143.73L2.31,161L3.46,163.95L6.92,191.45L8.07,197.11L10.38,212.63L11.53,208.77L12.69,218.32L13.84,209.22L14.99,192.79L16.15,228.75L18.45,237.86L19.61,238.53L21.91,228.71L23.07,196.21L24.22,242.26L25.37,247L26.53,242.72L27.68,229.72L28.83,227.92L29.99,240.21L32.29,225.35L33.44,229.08L34.6,188.68L35.75,206.73L36.9,208.2L38.06,193.05L40.36,174.79L41.52,164.52L42.67,150.54L43.82,153.73L48.44,99.59L49.59,109.03L50.74,104.01L51.9,102.99L54.2,115.66L55.36,103.49L56.51,91.49L57.66,101.45L58.82,112.15L59.97,102.58L61.12,103.62L62.28,91.91L63.43,65.06L64.58,82.72L66.89,92.32L68.04,117.63L69.2,117.1L70.35,121.42L71.5,114.77L72.66,94.83L73.81,108.82L74.96,75.24L77.27,114.69L78.42,117.51L79.58,114.14L80.73,108.18L81.88,114.79L83.04,110.85L84.19,108.26L85.34,112.89L86.5,107.94L87.65,114.39L88.8,123.41L89.96,123.79L91.11,124L92.26,120.98L93.42,110.93L94.57,111.84L95.72,117.73L96.88,110.18L98.03,109.94L99.18,113.12L102.64,124.56L103.79,118.31L104.95,118.86L106.1,114.48L107.25,114.71L108.41,118.83L109.56,128.46L110.71,126.62L113.02,149.56L114.17,151.42L115.33,164.68L116.48,164.01L117.63,178.14L118.79,182.58L121.09,201.02L122.25,209.64L123.4,195.03L124.55,206.98L125.71,208.95L126.86,215.23L128.01,222.28L129.17,236.4L133.78,174.93L134.93,184.61L136.09,185.98L137.24,236.24L138.39,232.43L139.55,232.31L141.85,197.8L143.01,196.42L144.16,208.52L145.31,207.33L147.62,199.29L148.77,182.01L149.93,177.29L151.08,186.89L152.23,188.58L153.39,181.23L154.54,160.61L155.69,153.63L156.85,132.36L158,129.11L159.15,125.22L160.31,94.77L161.46,97.19L162.61,108.41L163.76,111.35L164.92,128.32L167.22,88.88L168.38,95.93L169.53,98.88L170.68,112.12L172.99,93.58L174.14,88.98L175.3,88.57L176.45,107.88L177.6,74.24L178.76,96.55L179.91,116.91L181.06,110.57L183.37,88.49L184.52,110.5L186.83,87.76L187.98,95.93L189.14,107.03L190.29,82.97L192.6,117.59L193.75,101.22L194.9,104.28L196.06,104.08L197.21,114.54L198.36,117.86L199.52,113.52L200.67,101.99L201.82,115.45L202.98,119.72L204.13,117.9L205.28,121.28L206.44,115.63L207.59,117.37L209.9,121.66L211.05,117.45L212.2,115.49L213.36,124.89L215.66,116.39L216.82,126.78L217.97,130.98L219.12,121.97L222.58,149.2L223.74,158.13L224.89,159.25L226.04,173.26L227.19,176.22L228.35,176.63L229.5,190.26L230.65,188.73L232.96,208.68L234.11,206.91L235.27,211.34L236.42,190.77L238.73,199.61L239.88,223.31L241.03,229.12L242.19,214.69L243.34,232.51L244.49,193.06L245.65,191.75L246.8,196.72L247.95,168.61L249.11,85.13L251.41,192.82L252.57,194.37L253.72,206.21L254.87,184.69L256.03,178.97L257.18,189.15L258.33,198.46L259.49,197.44L260.64,194.03L261.79,193.57L262.95,191.86L264.1,187.02L266.41,167.16L267.56,139.64L268.71,123L269.87,124.25L271.02,97.87L272.17,101.76L273.33,127.97L274.48,71.12L275.63,94.51L276.79,98.8L277.94,104.75L279.09,102.83L281.4,120.54L282.55,113.92L283.71,122.13L284.86,101.32L286.01,50.83L287.17,38.69L288.32,13L289.47,58.35L290.63,92.73L291.78,46.88L292.93,23.26L294.08,55.09L295.24,81.77L296.39,87.7L297.54,73.74L298.7,84.42L299.85,111.09L301,105.24L302.16,100.75L303.31,111.43L305.62,83.33L306.77,95.32L307.92,99.6L309.08,117.82L310.23,101.38L311.38,120.62L312.54,101.93L313.69,111.92L314.84,107L316,114.21L317.15,112.11L318.3,87.2L319.46,114.46L320.61,117.85L321.76,119.13L322.92,116.86L324.07,119.76L325.22,125.93L327.53,121.62L328.68,124.12L330.99,132.1L332.14,139.75L336.76,167.1L337.91,165.06L339.06,160.75L340.22,178.58L341.37,176.65L342.52,184.89L343.68,188.36L344.83,174.16L347.14,187.67L348.29,178.26L349.44,186.3L350.6,157.19L355.21,237.43L356.36,206.8L357.51,126.2L358.67,211.82L359.82,203.38L360.97,218.97L363.28,182.2L364.43,185.03L365.59,159.28L366.74,160.89L367.89,159.53L369.05,152.62L370.2,89.6L371.35,164.03L372.51,168.87L373.66,148.85L374.81,163.73L375.97,136.18L377.12,145.94L378.27,129.15L379.43,143.48L380.58,144.21L381.73,138.36L382.89,123.84L384.04,113.45L385.19,110.69L386.35,119.66L387.5,121.29L388.65,124.84L389.81,121.66L390.96,108.55L392.11,109.55L393.27,107.8L394.42,109.64L395.57,107.44L396.73,86.47L397.88,94.61L399.03,80.78L400.19,115.41L401.34,112.19L402.49,91.47L403.65,104.54L404.8,83.84L405.95,110.61L407.11,87.06L408.26,111.95L409.41,101.4L410.57,109.91L411.72,120.26L412.87,111.47L414.03,110.79L415.18,119.53L416.33,92.89L417.49,112.71L418.64,118.59L419.79,119.46L420.94,107.96L422.1,108.63L423.25,110.58L424.4,116.67L425.56,116.16L426.71,104.3L427.86,118.25L429.02,111.93L430.17,118.46L431.32,120.15L432.48,123.91L433.63,123.84L435.94,128.15L437.09,127.41L438.24,128.39L439.4,128.18L441.7,140.76L442.86,144.05L444.01,149.07L445.16,144.05L448.62,173.96L449.78,179.37L450.93,183.55L452.08,199.44L453.24,196.01L454.39,213.81L455.54,207.6L456.7,213.48L457.85,212.12L459,180.16L461.31,207.2L462.46,198.98L463.62,208.42L464.77,225.43L465.92,231.12L467.08,217.02L468.23,190.78L469.38,225.51L470.54,217.41L471.69,220.96L472.84,223.19L474,228.43L475.15,199.89L476.3,209.56L477.46,213.58L478.61,213.69L482.07,153.58L483.22,170.39L484.38,163.03L485.53,135.45L487.83,73.47L488.99,66.26L490.14,104.11L491.29,38.65L492.45,98.19L493.6,103.17L494.75,108.67L495.91,122.63L498.21,91.57L499.37,98.27L500.52,107.6L501.67,70.53L502.83,53.45L503.98,52.39L505.13,76.49L506.29,59.93L507.44,64.61L508.59,84.64L509.75,59.03L510.9,76.02L512.05,79.12L513.21,103.08L514.36,113.96L515.51,106.41L516.67,116.62L517.82,77.79L518.97,87.5L520.13,116.85L522.43,120.06L523.59,107.55L524.74,98.56L525.89,112.45L528.2,123.02L529.35,123.81L530.51,120.24L531.66,124.09L532.81,124.88L533.97,123.34L536.27,121.57L537.43,118.23L538.58,124.37L539.73,120.25L540.89,119.94L542.04,101.41L543.19,102.42L544.35,112.72L545.5,110.96L546.65,107.39L547.81,112.31L548.96,113.71L550.11,106.98L551.26,119.39L552.42,108L553.57,108.86L554.72,105.98L555.88,110.29L558.18,114.33L559.34,112.98L560.49,95.4L561.64,116.98L565.1,128.08L566.26,123.11L567.41,123.76L568.56,120.89L569.72,118.58L570.87,141.39L572.02,120.85L573.18,118.67L574.33,104.05L575.48,112.23L576.64,106.26L577.79,81.1L578.94,92.85L580.1,17.3L582.4,109.01L583.56,75.69L584.71,129.95L585.86,114.07L587.02,115.06L588.17,101.33L589.32,125.04L590.48,130.08L591.63,129.22L592.78,131.95L593.94,137.57L595.09,134.79L596.24,111.24L597.4,121.78L598.55,110.9L599.7,108.46L600.86,125.17L602.01,99.86L604.32,115.15L605.47,85.42L606.62,110.66L607.78,104.02L608.93,113.67L610.08,99.18L612.39,63.63L613.54,80.21L614.69,90.41L615.85,66.69L617,43.09L618.15,86.9L619.31,108.75L620.46,114.61L621.61,120.98L622.77,65.28L623.92,90.48L625.07,92.36L626.23,72.37L627.38,112.46L629.69,64.84L630.84,65.89L631.99,96.87L633.15,97.65L634.3,84.55L635.45,82.16L636.61,109.27L637.76,91.45L638.91,114.81L640.07,116.92L641.22,111.37L642.37,112.2L643.53,111.22L644.68,115.43L645.83,116.06L646.99,123.02L648.14,114.53L649.29,120.18L650.45,119.52L651.6,123.53L652.75,123.92L653.91,122.28L655.06,117.69L656.21,120.75L657.37,116.28L658.52,122.72L659.67,111.11L660.83,114.97L661.98,116.69L663.13,122.61L664.29,115L665.44,74.63L666.59,111L667.75,110.81L670.05,156.64L671.21,155.18L673.51,188.76L674.67,186.14L675.82,185.96L676.97,191.06L678.13,205.26L679.28,193.21L680.43,211.76L681.58,214.71L682.74,197.73L683.89,215.24L685.04,212.62L686.2,165.97L687.35,201.03L688.5,176.68L689.66,184.94L690.81,212.64L691.96,220.61L693.12,134.8L695.42,208.37L696.58,187.45L697.73,181.29L698.88,159.93L700.04,170.55L701.19,158.73L702.34,154.2L703.5,157.47L704.65,182.66L705.8,174.25L706.96,165.08L708.11,147.03L709.26,130.78L710.42,146.94L712.72,136.3L713.88,111.09L715.03,121.93L716.18,119.3L717.34,129.29L718.49,84.83L719.64,91.12L720.8,15.17L723.1,84.11L724.26,94.78L725.41,97.28L726.56,24.74L727.72,101.27L728.87,80.07L730.02,93.81L731.18,74.83L732.33,102.6L733.48,65.19L734.64,79.1L735.79,69.2L736.94,80.07L738.1,56.3L740.4,107.17L741.56,116.39L742.71,116.4L743.86,110.73L746.17,123.19L747.32,123.95L748.47,122.39L749.63,113.17L750.78,116.78L751.93,109.59L753.09,117.9L754.24,102.96L756.55,112.27L757.7,114.62L758.85,101.9L760.01,106.23L762.31,114.63L763.47,109.66L764.62,122.73L765.77,119.77L766.93,122.29L768.08,113.44L769.23,110.13L770.39,119.01L771.54,121.68L772.69,102.43L773.85,125.21L775,131.34" style="vector-effect: non-scaling-stroke; fill: none; stroke: rgb(76, 120, 168); stroke-opacity: 1; stroke-width: 3px; opacity: 1;"/></g><g class="points"/><g class="text"/></g><g class="trace scatter trace38e4e7" style="stroke-miterlimit: 2; opacity: 1;"><g class="fills"/><g class="errorbars"/><g class="lines"><path class="js-line" d="M0,137.57L3.46,152.23L4.61,162.29L10.38,195.5L11.53,200.12L13.84,205.18L14.99,206.87L17.3,210.97L18.45,207.24L19.61,207.02L20.76,207.7L26.53,216.95L27.68,212.94L31.14,206.83L32.29,199.46L35.75,180.6L36.9,182L39.21,167.74L40.36,157.62L42.67,145.74L43.82,138.42L47.28,115.47L48.44,111.39L49.59,108.7L50.74,101.91L51.9,100.23L53.05,100.33L54.2,102.08L55.36,94.61L57.66,92.55L58.82,93.02L62.28,93.8L63.43,93.09L65.74,88.88L66.89,85.05L68.04,80.31L69.2,83.45L71.5,77.64L72.66,72.84L73.81,89.83L74.96,94.06L76.12,96.62L77.27,96.54L78.42,98.89L79.58,98.7L80.73,98.83L81.88,98.19L84.19,103.27L85.34,105.53L86.5,107.6L87.65,107.2L89.96,109.94L91.11,111.91L92.26,107.48L93.42,107.04L94.57,107.38L95.72,108.77L98.03,112.32L99.18,114.78L100.33,117.79L101.49,115.36L103.79,118.83L104.95,121.84L106.1,120.45L107.25,123.12L111.87,137.86L113.02,143.15L114.17,149.01L115.33,158.92L121.09,192.23L122.25,196.86L124.55,202.04L125.71,203.79L128.01,207.98L129.17,204.33L130.32,204.31L131.47,205.26L137.24,215.32L138.39,211.21L141.85,205.74L143.01,198.73L146.47,180.95L147.62,182.7L149.93,173.24L151.08,166.49L152.23,165.79L153.39,160.68L156.85,140.19L158,133.21L162.61,108.43L163.76,106.7L164.92,106.82L166.07,97.87L168.38,94.09L169.53,93.98L172.99,93.53L174.14,92.56L176.45,87.96L177.6,83.98L178.76,79.11L179.91,82.16L182.22,76.21L183.37,71.34L184.52,88.29L185.68,92.49L186.83,95.01L187.98,94.9L189.14,97.23L190.29,97.01L191.44,97.12L192.6,96.46L194.9,101.5L196.06,103.74L197.21,105.8L198.36,105.38L200.67,108.09L201.82,110.04L202.98,105.59L204.13,105.14L205.28,105.46L206.44,106.84L208.74,110.35L209.9,112.79L211.05,115.78L212.2,113.33L214.51,116.63L215.66,119.53L216.82,118.02L217.97,120.62L222.58,136.36L223.74,141.91L226.04,156.59L227.19,163.77L232.96,193.28L234.11,196.81L236.42,198.35L237.57,198.42L238.73,198.37L239.88,192.16L241.03,191.04L242.19,191.49L247.95,203.4L249.11,199.9L252.57,195.44L253.72,188.7L257.18,171.99L258.33,174.15L260.64,165.62L261.79,159.37L262.95,159.18L264.1,154.45L266.41,143.03L267.56,134.84L273.33,104.56L274.48,103.06L275.63,103.38L276.79,94.63L279.09,90.73L280.25,90.43L283.71,89.51L284.86,88.46L287.17,83.75L288.32,79.73L289.47,74.83L290.63,77.84L292.93,71.79L294.08,66.89L295.24,83.79L296.39,87.94L297.54,90.42L298.7,90.27L299.85,92.56L301,92.3L302.16,92.37L303.31,91.68L305.62,96.65L306.77,98.86L307.92,100.88L309.08,100.43L311.38,103.07L312.54,104.99L313.69,100.5L314.84,100.02L316,100.31L317.15,101.66L319.46,105.11L320.61,107.52L321.76,110.48L322.92,108.01L325.22,111.41L326.38,114.39L327.53,112.98L328.68,115.57L333.3,129.72L334.45,134.77L335.6,140.37L336.76,150L341.37,171.6L342.52,174L343.68,175.06L344.83,174.84L347.14,170.08L348.29,168.66L349.44,167.67L350.6,160.91L351.75,162.35L352.9,166.78L356.36,187.04L357.51,190.67L358.67,193.49L359.82,189.38L362.13,180.73L363.28,175.08L365.59,156.49L366.74,149.43L367.89,142.95L369.05,144.87L371.35,139.64L372.51,135.99L373.66,138.71L374.81,136.39L377.12,129.36L378.27,123.27L384.04,99.46L385.19,98.14L386.35,98.34L387.5,89.25L389.81,85.26L390.96,85L394.42,84.37L395.57,83.44L397.88,78.9L399.03,74.94L400.19,70.1L401.34,73.16L403.65,67.23L404.8,62.38L405.95,79.35L407.11,83.56L408.26,86.1L409.41,86.02L410.57,88.37L411.72,88.18L412.87,88.32L414.03,87.69L416.33,92.8L417.49,95.08L418.64,97.17L419.79,96.8L422.1,99.59L423.25,101.59L424.4,97.18L425.56,96.77L426.71,97.15L427.86,98.57L430.17,102.2L431.32,104.69L432.48,107.74L433.63,105.35L435.94,109L437.09,112.12L438.24,110.87L439.4,113.55L441.7,121.23L442.86,135.26L445.16,139.64L446.32,143.86L448.62,159.25L449.78,164.77L450.93,169.99L452.08,178.9L455.54,192.16L456.7,193.3L460.16,197.75L461.31,193.48L462.46,192.75L463.62,192.93L469.38,200.22L470.54,195.94L474,189.28L475.15,181.78L478.61,162.7L479.76,164.07L482.07,155.85L483.22,150.22L484.38,150.83L485.53,145.38L487.83,130.7L488.99,120.26L491.29,110.33L492.45,108.17L493.6,102.19L494.75,100.4L495.91,100L497.06,100.88L498.21,92.26L499.37,89.98L501.67,88.27L502.83,88.09L505.13,87.87L506.29,87.07L508.59,82.82L509.75,79L510.9,74.28L512.05,77.47L514.36,71.74L515.51,66.99L516.67,84.05L517.82,88.36L518.97,91L520.13,91.01L521.28,93.46L522.43,93.36L523.59,93.59L524.74,93.05L527.05,98.33L528.2,100.69L529.35,102.87L530.51,102.58L532.81,105.53L533.97,107.61L535.12,103.28L536.27,102.95L537.43,103.4L538.58,104.9L540.89,108.66L542.04,111.23L543.19,114.35L544.35,112.02L546.65,114.5L547.81,116.73L548.96,114.45L550.11,115.22L552.42,117.94L553.57,116.99L557.03,117.41L558.18,121.06L560.49,123.23L561.64,123.25L562.8,126.59L563.95,127.43L566.26,127.62L567.41,125.21L570.87,116.45L572.02,107.45L575.48,94.92L576.64,91.56L577.79,91.17L578.94,91.87L580.1,93.7L581.25,89.93L584.71,87.92L585.86,82.51L589.32,72.35L590.48,77.19L593.94,81.11L595.09,88.78L597.4,92.81L598.55,93.45L599.7,91.88L600.86,92.56L603.16,97.67L604.32,96.45L606.62,99.6L607.78,102.09L608.93,94.68L610.08,93.38L611.24,92.72L612.39,93.07L615.85,93.97L617,93.48L619.31,89.66L620.46,85.97L621.61,81.36L622.77,84.61L625.07,78.96L626.23,74.22L627.38,91.28L628.53,95.58L629.69,98.2L630.84,98.19L631.99,100.61L633.15,100.48L634.3,100.67L635.45,100.09L637.76,105.29L638.91,107.6L640.07,109.73L641.22,109.38L643.53,112.23L644.68,114.24L645.83,109.86L646.99,109.47L648.14,109.86L649.29,111.3L651.6,114.93L652.75,117.43L653.91,120.48L655.06,118.1L657.37,121.5L658.52,124.44L659.67,122.98L660.83,125.66L663.13,133.6L664.29,128.92L674.67,190.59L675.82,194.51L676.97,197.44L678.13,197.91L680.43,201.11L681.58,203.37L682.74,199.88L683.89,199.65L685.04,200.22L686.2,201.89L689.66,206.55L690.81,208.53L693.12,202.81L694.27,201.07L695.42,199.44L696.58,192.71L700.04,176.43L701.19,178.81L703.5,170.76L704.65,164.78L705.8,164.87L706.96,160.39L709.26,149.43L710.42,141.45L716.18,111.54L717.34,110.08L718.49,110.44L719.64,101.72L721.95,98.05L723.1,97.9L726.56,97.34L727.72,96.37L730.02,91.79L731.18,87.82L732.33,82.97L733.48,86.03L735.79,80.09L736.94,75.23L738.1,92.19L739.25,96.38L740.4,98.91L741.56,98.81L742.71,101.14L743.86,100.93L745.01,101.04L746.17,100.39L748.47,105.45L749.63,107.7L750.78,109.76L751.93,109.36L754.24,112.08L755.39,114.04L756.55,109.6L757.7,109.15L758.85,109.48L760.01,110.87L762.31,114.4L763.47,116.85L764.62,119.85L765.77,117.42L768.08,121.04L769.23,124.17L770.39,122.93L771.54,125.49L775,134.44" style="vector-effect: non-scaling-stroke; fill: none; stroke: rgb(255, 127, 14); stroke-opacity: 0.7; stroke-width: 3px; opacity: 1;"/></g><g class="points"/><g class="text"/></g></g></g><g class="overplot"/><path class="xlines-above crisp" d="M0,0" style="fill: none;"/><path class="ylines-above crisp" d="M74,50V310" style="fill: none; stroke-width: 2px; stroke: rgb(0, 0, 0); stroke-opacity: 1;"/><g class="overlines-above"/><g class="xaxislayer-above"><g class="xtick"><text text-anchor="middle" x="0" y="330" transform="translate(158.04000000000002,0)" style="font-family: 'Open Sans', verdana, arial, sans-serif; font-size: 19px; fill: rgb(42, 63, 95); fill-opacity: 1; white-space: pre; opacity: 1;"><tspan class="line" dy="0em" x="0" y="330">May 31</tspan><tspan class="line" dy="1.3em" x="0" y="330">2019</tspan></text></g><g class="xtick"><text text-anchor="middle" x="0" y="330" style="font-family: 'Open Sans', verdana, arial, sans-serif; font-size: 19px; fill: rgb(42, 63, 95); fill-opacity: 1; white-space: pre; opacity: 1;" transform="translate(268.75,0)">Jun 1</text></g><g class="xtick"><text text-anchor="middle" x="0" y="330" style="font-family: 'Open Sans', verdana, arial, sans-serif; font-size: 19px; fill: rgb(42, 63, 95); fill-opacity: 1; white-space: pre; opacity: 1;" transform="translate(379.46,0)">Jun 2</text></g><g class="xtick"><text text-anchor="middle" x="0" y="330" style="font-family: 'Open Sans', verdana, arial, sans-serif; font-size: 19px; fill: rgb(42, 63, 95); fill-opacity: 1; white-space: pre; opacity: 1;" transform="translate(490.18,0)">Jun 3</text></g><g class="xtick"><text text-anchor="middle" x="0" y="330" style="font-family: 'Open Sans', verdana, arial, sans-serif; font-size: 19px; fill: rgb(42, 63, 95); fill-opacity: 1; white-space: pre; opacity: 1;" transform="translate(600.89,0)">Jun 4</text></g><g class="xtick"><text text-anchor="middle" x="0" y="330" style="font-family: 'Open Sans', verdana, arial, sans-serif; font-size: 19px; fill: rgb(42, 63, 95); fill-opacity: 1; white-space: pre; opacity: 1;" transform="translate(711.61,0)">Jun 5</text></g><g class="xtick"><text text-anchor="middle" x="0" y="330" style="font-family: 'Open Sans', verdana, arial, sans-serif; font-size: 19px; fill: rgb(42, 63, 95); fill-opacity: 1; white-space: pre; opacity: 1;" transform="translate(822.32,0)">Jun 6</text></g></g><g class="yaxislayer-above"><g class="ytick"><text text-anchor="end" x="69.2" y="6.6499999999999995" transform="translate(0,277.95)" style="font-family: 'Open Sans', verdana, arial, sans-serif; font-size: 19px; fill: rgb(42, 63, 95); fill-opacity: 1; white-space: pre; opacity: 1;">−2</text></g><g class="ytick"><text text-anchor="end" x="69.2" y="6.6499999999999995" style="font-family: 'Open Sans', verdana, arial, sans-serif; font-size: 19px; fill: rgb(42, 63, 95); fill-opacity: 1; white-space: pre; opacity: 1;" transform="translate(0,226.91)">−1</text></g><g class="ytick"><text text-anchor="end" x="69.2" y="6.6499999999999995" style="font-family: 'Open Sans', verdana, arial, sans-serif; font-size: 19px; fill: rgb(42, 63, 95); fill-opacity: 1; white-space: pre; opacity: 1;" transform="translate(0,175.88)">0</text></g><g class="ytick"><text text-anchor="end" x="69.2" y="6.6499999999999995" style="font-family: 'Open Sans', verdana, arial, sans-serif; font-size: 19px; fill: rgb(42, 63, 95); fill-opacity: 1; white-space: pre; opacity: 1;" transform="translate(0,124.84)">1</text></g><g class="ytick"><text text-anchor="end" x="69.2" y="6.6499999999999995" style="font-family: 'Open Sans', verdana, arial, sans-serif; font-size: 19px; fill: rgb(42, 63, 95); fill-opacity: 1; white-space: pre; opacity: 1;" transform="translate(0,73.8)">2</text></g></g><g class="overaxes-above"/></g></g><g class="polarlayer"/><g class="ternarylayer"/><g class="geolayer"/><g class="funnelarealayer"/><g class="pielayer"/><g class="iciclelayer"/><g class="treemaplayer"/><g class="sunburstlayer"/><g class="glimages"/><defs id="topdefs-a01e7c"><g class="clips"/></defs><g class="layer-above"><g class="imagelayer"/><g class="shapelayer"/></g><g class="infolayer"><g class="g-gtitle"/><g class="g-xtitle"/><g class="g-ytitle" transform="translate(12.537109375,0)"><text class="ytitle" transform="rotate(-90,10.462500000000006,180)" x="10.462500000000006" y="180" text-anchor="middle" style="font-family: 'Open Sans', verdana, arial, sans-serif; font-size: 23px; fill: rgb(42, 63, 95); opacity: 1; font-weight: normal; white-space: pre;">Netload [kW]</text></g></g></svg>