<svg class="main-svg" xmlns="http://www.w3.org/2000/svg" xmlns:xlink="http://www.w3.org/1999/xlink" width="900" height="400" viewBox="0 0 900 400"><rect x="0" y="0" width="900" height="400" style="fill: rgb(255, 255, 255); fill-opacity: 1;"/><defs id="defs-8000ad"><g class="clips"><clipPath id="clip8000adxyplot" class="plotclip"><rect width="775" height="260"/></clipPath><clipPath class="axesclip" id="clip8000adx"><rect x="75" y="0" width="775" height="400"/></clipPath><clipPath class="axesclip" id="clip8000ady"><rect x="0" y="50" width="900" height="260"/></clipPath><clipPath class="axesclip" id="clip8000adxy"><rect x="75" y="50" width="775" height="260"/></clipPath></g><g class="gradients"/><g class="patterns"/></defs><g class="bglayer"/><g class="layer-below"><g class="imagelayer"/><g class="shapelayer"/></g><g class="cartesianlayer"><g class="subplot xy"><g class="layer-subplot"><g class="shapelayer"/><g class="imagelayer"/></g><g class="gridlayer"><g class="x"><path class="xgrid crisp" transform="translate(158.04000000000002,0)" d="M0,50v260" style="stroke: rgb(235, 240, 248); stroke-opacity: 1; stroke-width: 1px;"/><path class="xgrid crisp" transform="translate(268.75,0)" d="M0,50v260" style="stroke: rgb(235, 240, 248); stroke-opacity: 1; stroke-width: 1px;"/><path class="xgrid crisp" transform="translate(379.46,0)" d="M0,50v260" style="stroke: rgb(235, 240, 248); stroke-opacity: 1; stroke-width: 1px;"/><path class="xgrid crisp" transform="translate(490.18,0)" d="M0,50v260" style="stroke: rgb(235, 240, 248); stroke-opacity: 1; stroke-width: 1px;"/><path class="xgrid crisp" transform="translate(600.89,0)" d="M0,50v260" style="stroke: rgb(235, 240, 248); stroke-opacity: 1; stroke-width: 1px;"/><path class="xgrid crisp" transform="translate(711.61,0)" d="M0,50v260" style="stroke: rgb(235, 240, 248); stroke-opacity: 1; stroke-width: 1px;"/><path class="xgrid crisp" transform="translate(822.32,0)" d="M0,50v260" style="stroke: rgb(235, 240, 248); stroke-opacity: 1; stroke-width: 1px;"/></g><g class="y"><path class="ygrid crisp" transform="translate(0,288.21000000000004)" d="M75,0h775" style="stroke: rgb(235, 240, 248); stroke-opacity: 1; stroke-width: 1px;"/><path class="ygrid crisp" transform="translate(0,153.95999999999998)" d="M75,0h775" style="stroke: rgb(235, 240, 248); stroke-opacity: 1; stroke-width: 1px;"/><path class="ygrid crisp" transform="translate(0,86.83)" d="M75,0h775" style="stroke: rgb(235, 240, 248); stroke-opacity: 1; stroke-width: 1px;"/></g></g><g class="zerolinelayer"><path class="yzl zl crisp" transform="translate(0,221.08)" d="M75,0h775" style="stroke: rgb(0, 0, 0); stroke-opacity: 1; stroke-width: 2px;"/></g><path class="xlines-below"/><path class="ylines-below"/><g class="overlines-below"/><g class="xaxislayer-below"/><g class="yaxislayer-below"/><g class="overaxes-below"/><g class="plot" transform="translate(75,50)" clip-path="url(#clip8000adxyplot)"><g class="scatterlayer mlayer"><g class="trace scatter traced66b78" style="stroke-miterlimit: 2; opacity: 1;"><g class="fills"/><g class="errorbars"/><g class="lines"><path class="js-line" d="M0,123.58L2.31,163.76L3.46,159.15L4.61,99.9L5.77,189.45L8.07,212.77L9.23,204.74L10.38,211.05L11.53,204.78L13.84,216.61L14.99,212.42L16.15,218.79L17.3,239.62L18.45,228.32L19.61,230.56L20.76,219.89L21.91,232.38L23.07,243.98L24.22,241.64L26.53,245.37L27.68,216.34L29.99,243.45L31.14,231.22L32.29,228.1L33.44,231.71L34.6,226.04L35.75,227.73L40.36,207.73L41.52,194.97L43.82,185.37L44.98,184.67L46.13,182.82L47.28,179.46L49.59,170.45L50.74,162.98L51.9,166.11L53.05,161.33L54.2,162.17L55.36,164.97L56.51,154.13L57.66,151.45L58.82,148.61L59.97,151.66L61.12,150.85L62.28,147.26L63.43,135.69L64.58,152.31L65.74,151.41L66.89,146.57L68.04,148.03L69.2,152.51L70.35,144.51L71.5,154.39L72.66,155.3L73.81,147.24L74.96,141.6L76.12,144.91L78.42,162.69L79.58,158.05L80.73,159.03L81.88,152.92L84.19,161.69L85.34,162.71L86.5,159.29L87.65,162.11L88.8,147.53L89.96,163.99L94.57,165.67L95.72,162.46L96.88,163.37L98.03,165.46L99.18,165.76L100.33,161.36L101.49,160.4L102.64,167.54L103.79,168.24L104.95,172.01L106.1,169.33L107.25,171.48L108.41,171.78L109.56,173.91L110.71,155.39L111.87,161.71L114.17,185.42L115.33,197.61L116.48,199.36L117.63,197.39L118.79,198.5L119.94,210.53L121.09,218.9L122.25,212.54L124.55,226.11L125.71,225.57L126.86,217.19L128.01,223.65L130.32,229.33L131.47,214.21L133.78,244.74L134.93,245.74L136.09,236.93L137.24,238.63L138.39,232.98L139.55,247L141.85,226.43L143.01,218.29L145.31,221.63L146.47,217.7L147.62,218.49L148.77,215.53L151.08,214.17L152.23,211.29L154.54,187.25L155.69,187.55L156.85,188.13L158,186.21L159.15,184.8L160.31,179.46L161.46,174.3L162.61,163.79L164.92,173.13L166.07,166.19L167.22,156.77L168.38,153.51L169.53,147.63L170.68,146.55L172.99,160.27L174.14,162.81L177.6,130.05L178.76,123.29L179.91,139.99L181.06,141.7L182.22,134.26L183.37,81.76L184.52,81.52L185.68,132.19L186.83,131.29L187.98,87.16L190.29,150.01L191.44,154.22L192.6,159.32L193.75,160.32L194.9,157.22L196.06,158.94L197.21,163.4L198.36,160.76L199.52,166.98L200.67,166.15L201.82,168.49L202.98,163.97L205.28,168.54L206.44,165.36L208.74,157.81L209.9,156.9L211.05,163.18L212.2,159.2L213.36,160.98L214.51,166.61L215.66,162.96L216.82,162.47L217.97,164.03L219.12,173.39L220.28,175.95L221.43,173.34L222.58,171.26L223.74,172.02L224.89,184.46L226.04,181.64L227.19,109.58L228.35,173.57L230.65,214.2L231.81,216.54L232.96,214.64L234.11,214.85L235.27,220.29L236.42,212.23L237.57,218.04L238.73,179.11L239.88,188.73L241.03,179.1L242.19,209.88L243.34,197.34L244.49,226.36L245.65,223.52L246.8,235.5L247.95,234.33L250.26,202.51L251.41,205.56L253.72,230.32L254.87,215.04L256.03,214.57L257.18,207.51L259.49,215.4L260.64,205.23L261.79,210.92L262.95,209.55L268.71,185.74L269.87,186.01L271.02,180.68L272.17,170.08L273.33,163.04L274.48,161.04L275.63,166.94L276.79,163.9L277.94,153.1L279.09,150L280.25,150.71L281.4,150.32L282.55,158.71L283.71,160.77L284.86,140.64L286.01,143.07L287.17,144.2L288.32,150.11L289.47,151.89L290.63,135.67L291.78,133.86L292.93,134.33L295.24,147L296.39,143.53L297.54,143.9L298.7,142.94L301,168.5L302.16,165.6L303.31,160.21L304.46,159.31L305.62,162.52L306.77,160.47L307.92,161.74L309.08,165.61L310.23,168.47L311.38,168.3L312.54,166.57L313.69,160.87L314.84,166.12L316,161.81L319.46,151.66L320.61,153.56L321.76,145.92L322.92,159.4L324.07,162.53L325.22,162.45L326.38,153.22L327.53,162.33L328.68,158.02L329.84,167.62L330.99,176.51L332.14,172.56L333.3,176.54L334.45,174.3L335.6,178.23L336.76,195.27L337.91,188.26L339.06,188.72L340.22,185.16L341.37,204.75L342.52,203.24L343.68,204.05L344.83,214.87L345.98,213.86L348.29,195.28L349.44,196.18L350.6,197.2L351.75,208.83L352.9,212.93L354.06,231.14L355.21,236.03L356.36,232.48L357.51,233.97L358.67,238.62L359.82,229.56L360.97,207.45L362.13,204.53L363.28,198L364.43,196L365.59,198.2L366.74,201.99L367.89,194.91L369.05,192.06L370.2,195.45L372.51,206.35L373.66,193.55L374.81,200.37L375.97,198.21L377.12,197.85L378.27,191.48L379.43,187.7L380.58,180.95L381.73,176.07L382.89,166.24L384.04,164.69L385.19,165.2L387.5,169.89L388.65,164.11L392.11,149.56L393.27,134.07L394.42,133.89L395.57,28.47L396.73,114.02L397.88,139.31L399.03,132.83L400.19,13L401.34,117.52L402.49,145.25L403.65,161.28L404.8,160.47L405.95,147.59L407.11,152.77L408.26,159.04L409.41,134.26L410.57,158.89L411.72,156.68L412.87,153.84L414.03,155.46L415.18,157.25L416.33,169.29L417.49,168.79L418.64,160.15L419.79,158.29L420.94,163.33L422.1,162.01L423.25,163.84L424.4,158.77L425.56,158.17L426.71,163.37L427.86,160.98L429.02,162.32L430.17,161.98L431.32,156.66L432.48,158.55L434.78,167.92L435.94,167.81L437.09,165.98L438.24,167.19L441.7,170.92L442.86,164.69L444.01,164.68L445.16,168.85L446.32,194.47L447.47,198.02L448.62,197.11L449.78,173.63L450.93,174.33L452.08,204L453.24,202.47L454.39,213.7L455.54,216.91L456.7,213.5L460.16,232.84L461.31,232.84L462.46,225.14L463.62,231.87L464.77,243.23L465.92,235.87L467.08,236.25L468.23,232.83L469.38,230.92L470.54,221.67L472.84,232.52L474,232L475.15,217.19L476.3,218.71L477.46,230.41L478.61,225.8L479.76,213.35L480.92,165.23L483.22,199.48L484.38,203.88L485.53,201.05L486.68,189.84L487.83,174.42L488.99,177.99L490.14,175.99L491.29,180.36L493.6,172.72L494.75,158.63L495.91,160.34L497.06,158.76L498.21,164.89L499.37,155.3L500.52,103.43L501.67,92.66L502.83,140.89L503.98,155.4L506.29,129.82L507.44,122.64L508.59,145.07L509.75,61.94L510.9,129.24L512.05,134.22L513.21,149.32L514.36,153.26L515.51,154.83L516.67,148.04L517.82,158.46L518.97,151.88L520.13,150.17L521.28,151.54L522.43,107.17L523.59,147.84L524.74,151.53L525.89,160.09L528.2,165.13L529.35,161.26L530.51,161.58L531.66,157.85L533.97,164.92L535.12,165.69L537.43,158.1L538.58,137.05L540.89,157.47L542.04,159.98L544.35,157.05L545.5,160.49L546.65,158.55L547.81,159.42L550.11,161.42L551.26,160.51L552.42,156.67L553.57,143.46L557.03,153.47L558.18,156.59L559.34,154.86L560.49,150.37L561.64,165.18L562.8,166.37L563.95,163.85L565.1,178.46L568.56,168.87L569.72,140.28L570.87,165.89L572.02,124.11L573.18,163.31L574.33,175.84L576.64,164.9L577.79,162.83L578.94,162.1L580.1,164.79L582.4,155.52L583.56,154.05L584.71,146.32L585.86,145.16L587.02,102.49L588.17,149.43L589.32,164.25L590.48,165.18L591.63,163L592.78,154.27L593.94,150.72L595.09,169.37L596.24,164.34L597.4,167.36L598.55,169.63L599.7,170.14L600.86,166.31L602.01,173.94L604.32,172.63L605.47,175.27L606.62,162.06L607.78,164.27L608.93,158.36L610.08,162.16L611.24,157.78L612.39,149.82L613.54,129.41L614.69,149.45L615.85,156.74L617,152.11L618.15,156.45L619.31,143.79L620.46,102.62L621.61,132.34L622.77,160.92L623.92,158.62L625.07,147.92L626.23,152.23L627.38,141.31L628.53,144.98L629.69,153.85L630.84,148.21L633.15,160.75L634.3,159.72L636.61,163.24L637.76,147.49L640.07,161.16L641.22,156.9L642.37,157.15L643.53,153.46L644.68,153.36L645.83,159.07L646.99,154.98L648.14,157.99L649.29,159.57L650.45,154.83L651.6,153.07L652.75,159.32L655.06,166.32L656.21,162.17L657.37,160.83L658.52,163.66L659.67,165.38L660.83,174.12L663.13,168.31L664.29,157.31L665.44,175.11L666.59,179.43L667.75,189.1L668.9,185.84L670.05,185.08L671.21,193.13L672.36,205.69L673.51,208.9L674.67,217.92L675.82,215.83L676.97,225.93L678.13,228.87L680.43,229.03L681.58,216.71L682.74,218.34L683.89,228.18L685.04,229.91L686.2,235.52L687.35,233.73L688.5,241.91L689.66,244.92L690.81,241.36L691.96,231.44L693.12,228.77L694.27,232.56L695.42,232.98L697.73,207.78L698.88,208.45L700.04,224.39L701.19,224.39L702.34,211.61L703.5,210.53L704.65,212.18L705.8,210.29L706.96,210.97L708.11,206.72L710.42,195.57L711.57,188.94L715.03,165.34L716.18,164.74L717.34,162.33L718.49,161.87L719.64,164.37L720.8,150.29L721.95,156.98L723.1,153.05L726.56,138.01L727.72,149.11L728.87,103.06L730.02,146.73L733.48,167.84L734.64,154.74L735.79,146.59L736.94,145.2L738.1,140.95L739.25,153.33L740.4,159.58L741.56,146.73L742.71,129.78L743.86,148.3L746.17,142.19L747.32,132.06L748.47,158.57L749.63,159.05L751.93,150.08L753.09,161.71L754.24,162.46L755.39,160.34L756.55,164.03L757.7,163.87L758.85,162.05L760.01,158.28L761.16,165.75L762.31,165.23L763.47,151.58L764.62,155.92L765.77,161.03L766.93,160.24L769.23,164.57L770.39,161.63L772.69,172.19L773.85,173.53L775,172.4" style="vector-effect: non-scaling-stroke; fill: none; stroke: rgb(76, 120, 168); stroke-opacity: 1; stroke-width: 3px; opacity: 1;"/></g><g class="points"/><g class="text"/></g><g class="trace scatter trace43c14b" style="stroke-miterlimit: 2; opacity: 1;"><g class="fills"/><g class="errorbars"/><g class="lines"><path class="js-line" d="M0,162.49L3.46,177.71L4.61,185.44L8.07,203.81L9.23,206.13L14.99,222.38L16.15,224.59L17.3,226.72L18.45,231.09L20.76,234.13L21.91,234.41L23.07,239.26L24.22,240.83L25.37,240.74L26.53,239.74L28.83,229.29L29.99,226.23L31.14,223.68L32.29,227.81L33.44,227.48L34.6,225.07L36.9,218.53L38.06,213.17L44.98,176.97L46.13,175.77L48.44,169.23L49.59,165.09L51.9,158.2L53.05,155.93L56.51,151.09L57.66,150.47L58.82,150.6L59.97,144.57L61.12,142.84L62.28,143.51L63.43,145.58L64.58,144.2L65.74,145.2L66.89,147.75L68.04,151.24L69.2,147.42L70.35,147.45L71.5,149.61L72.66,152.41L73.81,148.06L74.96,146.98L76.12,147.63L77.27,148.75L78.42,155.75L80.73,159.28L81.88,158.8L83.04,161.93L84.19,162.81L85.34,162.38L86.5,160.73L87.65,162.16L88.8,162.12L91.11,159.68L92.26,161.61L93.42,161.79L94.57,161.02L95.72,160.07L96.88,161.08L99.18,161.21L100.33,160.96L104.95,165.08L106.1,164.96L108.41,168.79L109.56,171.52L110.71,167.25L111.87,168.15L114.17,176.46L115.33,185.01L118.79,201.95L119.94,204.39L125.71,220.48L126.86,222.79L128.01,225.11L129.17,229.54L131.47,232.89L132.63,233.46L133.78,238.59L134.93,240.24L136.09,240.11L137.24,239.03L139.55,228.65L140.7,225.83L141.85,223.53L143.01,227.92L144.16,227.82L145.31,225.65L148.77,215.86L149.93,211.76L155.69,189.39L156.85,188.63L159.15,179.4L160.31,173.24L162.61,163.05L163.76,159.82L167.22,152.45L168.38,151.4L169.53,151.22L170.68,144.87L171.84,142.91L172.99,143.43L174.14,145.43L175.3,144.05L176.45,145.06L177.6,147.63L178.76,151.13L179.91,147.34L181.06,147.42L182.22,149.62L183.37,152.45L184.52,148.13L185.68,147.08L186.83,147.76L187.98,148.91L189.14,155.94L191.44,159.51L192.6,159.05L193.75,162.2L194.9,163.1L196.06,162.69L197.21,161.06L198.36,162.5L199.52,162.48L201.82,160.07L202.98,162.01L204.13,162.21L205.28,161.44L206.44,160.51L207.59,161.53L209.9,161.68L211.05,161.45L215.66,165.43L216.82,165.24L219.12,169.07L220.28,171.8L221.43,169.14L222.58,168.56L224.89,177.32L226.04,185.88L229.5,201.98L230.65,204.29L235.27,217.42L236.42,218.75L238.73,220.32L239.88,223.01L243.34,226.96L244.49,232.48L245.65,234.45L246.8,234.67L247.95,234.01L249.11,227.93L251.41,221.7L252.57,219.6L253.72,224.24L254.87,224.47L257.18,220.2L258.33,217.15L264.1,198.82L265.25,193.92L266.41,188.74L267.56,188.13L269.87,179.29L271.02,173.33L273.33,163.47L274.48,160.36L277.94,153.14L279.09,151.95L280.25,151.61L281.4,145.09L282.55,143.04L283.71,143.52L284.86,145.48L286.01,144.06L287.17,145.04L288.32,147.58L289.47,151.06L290.63,147.24L291.78,147.29L292.93,149.46L294.08,152.27L295.24,147.93L296.39,146.87L297.54,147.53L298.7,148.67L299.85,155.69L302.16,159.22L303.31,158.76L304.46,161.9L305.62,162.78L306.77,162.36L307.92,160.71L309.08,162.14L310.23,162.11L312.54,159.67L313.69,161.6L314.84,161.79L316,161.02L317.15,160.08L318.3,161.09L320.61,161.22L321.76,160.99L326.38,165.16L327.53,165.06L329.84,168.81L330.99,171.47L332.14,167.14L333.3,167.93L335.6,175.95L336.76,184.35L340.22,198.08L341.37,199.22L344.83,203.1L345.98,202.64L349.44,203.67L350.6,206.21L354.06,219.85L355.21,229.49L356.36,232.53L357.51,232.66L358.67,231.5L359.82,224.88L363.28,209.38L364.43,211.06L365.59,210.32L366.74,208.2L372.51,195.46L373.66,194.71L375.97,188.63L377.12,184.82L378.27,185.68L379.43,183.21L386.35,158.91L387.5,155.84L389.81,152.72L390.96,152.39L392.11,145.87L393.27,143.82L394.42,144.3L395.57,146.28L396.73,144.86L397.88,145.84L400.19,151.87L401.34,148.09L402.49,148.18L403.65,150.39L404.8,153.24L405.95,148.94L407.11,147.92L408.26,148.62L409.41,149.79L410.57,156.84L412.87,160.46L414.03,160.03L415.18,163.21L416.33,164.12L417.49,163.74L418.64,162.13L419.79,163.6L420.94,163.6L423.25,161.24L424.4,163.2L425.56,163.43L426.71,162.69L427.86,161.78L429.02,162.83L431.32,163.02L432.48,162.82L437.09,167.21L438.24,167.18L440.55,170.94L441.7,173.59L442.86,167.87L444.01,169.39L446.32,178.54L447.47,187.08L450.93,204.13L452.08,206.57L456.7,220.15L457.85,222.33L460.16,226.26L461.31,230.3L463.62,232.66L464.77,232.66L465.92,237.22L467.08,238.59L468.23,238.3L469.38,237.11L471.69,226.36L472.84,223.2L474,220.55L475.15,224.58L476.3,224.18L477.46,221.74L484.38,202.42L485.53,197.64L488.99,182.41L490.14,179.66L498.21,157.5L499.37,155.64L501.67,154.07L502.83,147.6L503.98,145.68L505.13,146.25L506.29,148.27L507.44,146.82L508.59,147.74L509.75,150.23L510.9,153.69L512.05,149.86L513.21,149.9L514.36,152.07L515.51,154.88L516.67,150.54L517.82,149.48L518.97,150.13L520.13,151.26L521.28,158.27L523.59,161.79L524.74,161.32L525.89,164.44L527.05,165.32L528.2,164.88L529.35,163.23L530.51,164.65L531.66,164.6L533.97,162.14L535.12,164.05L536.27,164.23L537.43,163.44L538.58,162.48L539.73,163.48L542.04,163.57L543.19,163.31L545.5,165.05L546.65,165.37L547.81,165.69L548.96,164.85L551.26,165.32L552.42,166L554.72,157.26L555.88,156.87L557.03,157.52L558.18,161.82L561.64,168.07L562.8,167.01L563.95,167.65L565.1,169.16L566.26,170.6L567.41,170.59L570.87,167.87L572.02,168.94L573.18,167.96L574.33,165.97L575.48,163.37L576.64,165.36L578.94,166.04L580.1,165.44L582.4,156.36L583.56,154.5L584.71,153.33L585.86,158.92L587.02,160.51L588.17,160.29L590.48,158.48L591.63,158.94L593.94,160.73L595.09,163.21L596.24,163.59L597.4,162.81L598.55,161.69L599.7,165.14L600.86,166.24L602.01,166.04L605.47,162.75L606.62,160.56L610.08,154.13L611.24,153.09L612.39,152.76L613.54,146.21L614.69,144.22L615.85,144.72L617,146.7L618.15,145.18L619.31,146.01L620.46,148.41L621.61,151.81L622.77,147.96L623.92,147.97L625.07,150.11L626.23,152.9L627.38,148.54L628.53,147.47L629.69,148.13L630.84,149.26L631.99,156.26L634.3,159.79L635.45,159.33L636.61,162.46L637.76,163.34L638.91,162.92L640.07,161.28L641.22,162.71L642.37,162.68L644.68,160.25L645.83,162.18L646.99,162.37L648.14,161.6L649.29,160.65L650.45,161.67L652.75,161.8L653.91,161.57L658.52,165.51L659.67,165.32L661.98,169.21L663.13,171.99L664.29,165.76L665.44,168.11L667.75,176.51L668.9,183.97L673.51,203.1L674.67,205.79L679.28,216.22L680.43,218.49L681.58,220.85L682.74,225.38L685.04,228.25L686.2,228.43L687.35,233.12L688.5,234.61L689.66,234.43L690.81,233.36L693.12,223.13L694.27,220.48L695.42,218.37L696.58,222.95L697.73,223.17L698.88,221.37L702.34,212.88L703.5,209.28L709.26,188.91L710.42,188.42L712.72,179.66L713.88,173.71L716.18,163.87L717.34,160.77L720.8,153.6L721.95,152.49L723.1,152.24L724.26,145.8L725.41,143.8L726.56,144.3L727.72,146.29L728.87,144.89L730.02,145.89L731.18,148.45L732.33,151.95L733.48,148.15L734.64,148.21L735.79,150.4L736.94,153.22L738.1,148.89L739.25,147.85L740.4,148.52L741.56,149.67L742.71,156.69L745.01,160.25L746.17,159.79L747.32,162.93L748.47,163.82L749.63,163.41L750.78,161.77L751.93,163.21L753.09,163.17L755.39,160.75L756.55,162.68L757.7,162.87L758.85,162.1L760.01,161.16L761.16,162.18L763.47,162.31L764.62,162.07L769.23,166.43L770.39,166.41L772.69,169.92L773.85,172.4L775,167.88" style="vector-effect: non-scaling-stroke; fill: none; stroke: rgb(255, 127, 14); stroke-opacity: 0.7; stroke-width: 3px; opacity: 1;"/></g><g class="points"/><g class="text"/></g></g></g><g class="overplot"/><path class="xlines-above crisp" d="M0,0" style="fill: none;"/><path class="ylines-above crisp" d="M74,50V310" style="fill: none; stroke-width: 2px; stroke: rgb(0, 0, 0); stroke-opacity: 1;"/><g class="overlines-above"/><g class="xaxislayer-above"><g class="xtick"><text text-anchor="middle" x="0" y="330" transform="translate(158.04000000000002,0)" style="font-family: 'Open Sans', verdana, arial, sans-serif; font-size: 19px; fill: rgb(42, 63, 95); fill-opacity: 1; white-space: pre; opacity: 1;"><tspan class="line" dy="0em" x="0" y="330">May 31</tspan><tspan class="line" dy="1.3em" x="0" y="330">2019</tspan></text></g><g class="xtick"><text text-anchor="middle" x="0" y="330" style="font-family: 'Open Sans', verdana, arial, sans-serif; font-size: 19px; fill: rgb(42, 63, 95); fill-opacity: 1; white-space: pre; opacity: 1;" transform="translate(268.75,0)">Jun 1</text></g><g class="xtick"><text text-anchor="middle" x="0" y="330" style="font-family: 'Open Sans', verdana, arial, sans-serif; font-size: 19px; fill: rgb(42, 63, 95); fill-opacity: 1; white-space: pre; opacity: 1;" transform="translate(379.46,0)">Jun 2</text></g><g class="xtick"><text text-anchor="middle" x="0" y="330" style="font-family: 'Open Sans', verdana, arial, sans-serif; font-size: 19px; fill: rgb(42, 63, 95); fill-opacity: 1; white-space: pre; opacity: 1;" transform="translate(490.18,0)">Jun 3</text></g><g class="xtick"><text text-anchor="middle" x="0" y="330" style="font-family: 'Open Sans', verdana, arial, sans-serif; font-size: 19px; fill: rgb(42, 63, 95); fill-opacity: 1; white-space: pre; opacity: 1;" transform="translate(600.89,0)">Jun 4</text></g><g class="xtick"><text text-anchor="middle" x="0" y="330" style="font-family: 'Open Sans', verdana, arial, sans-serif; font-size: 19px; fill: rgb(42, 63, 95); fill-opacity: 1; white-space: pre; opacity: 1;" transform="translate(711.61,0)">Jun 5</text></g><g class="xtick"><text text-anchor="middle" x="0" y="330" style="font-family: 'Open Sans', verdana, arial, sans-serif; font-size: 19px; fill: rgb(42, 63, 95); fill-opacity: 1; white-space: pre; opacity: 1;" transform="translate(822.32,0)">Jun 6</text></g></g><g class="yaxislayer-above"><g class="ytick"><text text-anchor="end" x="69.2" y="6.6499999999999995" transform="translate(0,288.21000000000004)" style="font-family: 'Open Sans', verdana, arial, sans-serif; font-size: 19px; fill: rgb(42, 63, 95); fill-opacity: 1; white-space: pre; opacity: 1;">−2</text></g><g class="ytick"><text text-anchor="end" x="69.2" y="6.6499999999999995" style="font-family: 'Open Sans', verdana, arial, sans-serif; font-size: 19px; fill: rgb(42, 63, 95); fill-opacity: 1; white-space: pre; opacity: 1;" transform="translate(0,221.08)">0</text></g><g class="ytick"><text text-anchor="end" x="69.2" y="6.6499999999999995" style="font-family: 'Open Sans', verdana, arial, sans-serif; font-size: 19px; fill: rgb(42, 63, 95); fill-opacity: 1; white-space: pre; opacity: 1;" transform="translate(0,153.95999999999998)">2</text></g><g class="ytick"><text text-anchor="end" x="69.2" y="6.6499999999999995" style="font-family: 'Open Sans', verdana, arial, sans-serif; font-size: 19px; fill: rgb(42, 63, 95); fill-opacity: 1; white-space: pre; opacity: 1;" transform="translate(0,86.83)">4</text></g></g><g class="overaxes-above"/></g></g><g class="polarlayer"/><g class="ternarylayer"/><g class="geolayer"/><g class="funnelarealayer"/><g class="pielayer"/><g class="iciclelayer"/><g class="treemaplayer"/><g class="sunburstlayer"/><g class="glimages"/><defs id="topdefs-8000ad"><g class="clips"/></defs><g class="layer-above"><g class="imagelayer"/><g class="shapelayer"/></g><g class="infolayer"><g class="g-gtitle"/><g class="g-xtitle"/><g class="g-ytitle" transform="translate(12.537109375,0)"><text class="ytitle" transform="rotate(-90,10.462500000000006,180)" x="10.462500000000006" y="180" text-anchor="middle" style="font-family: 'Open Sans', verdana, arial, sans-serif; font-size: 23px; fill: rgb(42, 63, 95); opacity: 1; font-weight: normal; white-space: pre;">Netload [kW]</text></g></g></svg>