<svg class="main-svg" xmlns="http://www.w3.org/2000/svg" xmlns:xlink="http://www.w3.org/1999/xlink" width="900" height="400" viewBox="0 0 900 400"><rect x="0" y="0" width="900" height="400" style="fill: rgb(255, 255, 255); fill-opacity: 1;"/><defs id="defs-039de9"><g class="clips"><clipPath id="clip039de9xyplot" class="plotclip"><rect width="775" height="260"/></clipPath><clipPath class="axesclip" id="clip039de9x"><rect x="75" y="0" width="775" height="400"/></clipPath><clipPath class="axesclip" id="clip039de9y"><rect x="0" y="50" width="900" height="260"/></clipPath><clipPath class="axesclip" id="clip039de9xy"><rect x="75" y="50" width="775" height="260"/></clipPath></g><g class="gradients"/><g class="patterns"/></defs><g class="bglayer"/><g class="layer-below"><g class="imagelayer"/><g class="shapelayer"/></g><g class="cartesianlayer"><g class="subplot xy"><g class="layer-subplot"><g class="shapelayer"/><g class="imagelayer"/></g><g class="gridlayer"><g class="x"><path class="xgrid crisp" transform="translate(158.04000000000002,0)" d="M0,50v260" style="stroke: rgb(235, 240, 248); stroke-opacity: 1; stroke-width: 1px;"/><path class="xgrid crisp" transform="translate(268.75,0)" d="M0,50v260" style="stroke: rgb(235, 240, 248); stroke-opacity: 1; stroke-width: 1px;"/><path class="xgrid crisp" transform="translate(379.46,0)" d="M0,50v260" style="stroke: rgb(235, 240, 248); stroke-opacity: 1; stroke-width: 1px;"/><path class="xgrid crisp" transform="translate(490.18,0)" d="M0,50v260" style="stroke: rgb(235, 240, 248); stroke-opacity: 1; stroke-width: 1px;"/><path class="xgrid crisp" transform="translate(600.89,0)" d="M0,50v260" style="stroke: rgb(235, 240, 248); stroke-opacity: 1; stroke-width: 1px;"/><path class="xgrid crisp" transform="translate(711.61,0)" d="M0,50v260" style="stroke: rgb(235, 240, 248); stroke-opacity: 1; stroke-width: 1px;"/><path class="xgrid crisp" transform="translate(822.32,0)" d="M0,50v260" style="stroke: rgb(235, 240, 248); stroke-opacity: 1; stroke-width: 1px;"/></g><g class="y"><path class="ygrid crisp" transform="translate(0,277.95)" d="M75,0h775" style="stroke: rgb(235, 240, 248); stroke-opacity: 1; stroke-width: 1px;"/><path class="ygrid crisp" transform="translate(0,226.91)" d="M75,0h775" style="stroke: rgb(235, 240, 248); stroke-opacity: 1; stroke-width: 1px;"/><path class="ygrid crisp" transform="translate(0,124.84)" d="M75,0h775" style="stroke: rgb(235, 240, 248); stroke-opacity: 1; stroke-width: 1px;"/><path class="ygrid crisp" transform="translate(0,73.8)" d="M75,0h775" style="stroke: rgb(235, 240, 248); stroke-opacity: 1; stroke-width: 1px;"/></g></g><g class="zerolinelayer"><path class="yzl zl crisp" transform="translate(0,175.88)" d="M75,0h775" style="stroke: rgb(0, 0, 0); stroke-opacity: 1; stroke-width: 2px;"/></g><path class="xlines-below"/><path class="ylines-below"/><g class="overlines-below"/><g class="xaxislayer-below"/><g class="yaxislayer-below"/><g class="overaxes-below"/><g class="plot" transform="translate(75,50)" clip-path="url(#clip039de9xyplot)"><g class="scatterlayer mlayer"><g class="trace scatter traceaf7cc0" style="stroke-miterlimit: 2; opacity: 1;"><g class="fills"/><g class="errorbars"/><g class="lines"><path class="js-line" d="M0,143.73L2.31,161L3.46,163.95L6.92,191.45L8.07,197.11L10.38,212.63L11.53,208.77L12.69,218.32L13.84,209.22L14.99,192.79L16.15,228.75L18.45,237.86L19.61,238.53L21.91,228.71L23.07,196.21L24.22,242.26L25.37,247L26.53,242.72L27.68,229.72L28.83,227.92L29.99,240.21L32.29,225.35L33.44,229.08L34.6,188.68L35.75,206.73L36.9,208.2L38.06,193.05L40.36,174.79L41.52,164.52L42.67,150.54L43.82,153.73L48.44,99.59L49.59,109.03L50.74,104.01L51.9,102.99L54.2,115.66L55.36,103.49L56.51,91.49L57.66,101.45L58.82,112.15L59.97,102.58L61.12,103.62L62.28,91.91L63.43,65.06L64.58,82.72L66.89,92.32L68.04,117.63L69.2,117.1L70.35,121.42L71.5,114.77L72.66,94.83L73.81,108.82L74.96,75.24L77.27,114.69L78.42,117.51L79.58,114.14L80.73,108.18L81.88,114.79L83.04,110.85L84.19,108.26L85.34,112.89L86.5,107.94L87.65,114.39L88.8,123.41L89.96,123.79L91.11,124L92.26,120.98L93.42,110.93L94.57,111.84L95.72,117.73L96.88,110.18L98.03,109.94L99.18,113.12L102.64,124.56L103.79,118.31L104.95,118.86L106.1,114.48L107.25,114.71L108.41,118.83L109.56,128.46L110.71,126.62L113.02,149.56L114.17,151.42L115.33,164.68L116.48,164.01L117.63,178.14L118.79,182.58L121.09,201.02L122.25,209.64L123.4,195.03L124.55,206.98L125.71,208.95L126.86,215.23L128.01,222.28L129.17,236.4L133.78,174.93L134.93,184.61L136.09,185.98L137.24,236.24L138.39,232.43L139.55,232.31L141.85,197.8L143.01,196.42L144.16,208.52L145.31,207.33L147.62,199.29L148.77,182.01L149.93,177.29L151.08,186.89L152.23,188.58L153.39,181.23L154.54,160.61L155.69,153.63L156.85,132.36L158,129.11L159.15,125.22L160.31,94.77L161.46,97.19L162.61,108.41L163.76,111.35L164.92,128.32L167.22,88.88L168.38,95.93L169.53,98.88L170.68,112.12L172.99,93.58L174.14,88.98L175.3,88.57L176.45,107.88L177.6,74.24L178.76,96.55L179.91,116.91L181.06,110.57L183.37,88.49L184.52,110.5L186.83,87.76L187.98,95.93L189.14,107.03L190.29,82.97L192.6,117.59L193.75,101.22L194.9,104.28L196.06,104.08L197.21,114.54L198.36,117.86L199.52,113.52L200.67,101.99L201.82,115.45L202.98,119.72L204.13,117.9L205.28,121.28L206.44,115.63L207.59,117.37L209.9,121.66L211.05,117.45L212.2,115.49L213.36,124.89L215.66,116.39L216.82,126.78L217.97,130.98L219.12,121.97L222.58,149.2L223.74,158.13L224.89,159.25L226.04,173.26L227.19,176.22L228.35,176.63L229.5,190.26L230.65,188.73L232.96,208.68L234.11,206.91L235.27,211.34L236.42,190.77L238.73,199.61L239.88,223.31L241.03,229.12L242.19,214.69L243.34,232.51L244.49,193.06L245.65,191.75L246.8,196.72L247.95,168.61L249.11,85.13L251.41,192.82L252.57,194.37L253.72,206.21L254.87,184.69L256.03,178.97L257.18,189.15L258.33,198.46L259.49,197.44L260.64,194.03L261.79,193.57L262.95,191.86L264.1,187.02L266.41,167.16L267.56,139.64L268.71,123L269.87,124.25L271.02,97.87L272.17,101.76L273.33,127.97L274.48,71.12L275.63,94.51L276.79,98.8L277.94,104.75L279.09,102.83L281.4,120.54L282.55,113.92L283.71,122.13L284.86,101.32L286.01,50.83L287.17,38.69L288.32,13L289.47,58.35L290.63,92.73L291.78,46.88L292.93,23.26L294.08,55.09L295.24,81.77L296.39,87.7L297.54,73.74L298.7,84.42L299.85,111.09L301,105.24L302.16,100.75L303.31,111.43L305.62,83.33L306.77,95.32L307.92,99.6L309.08,117.82L310.23,101.38L311.38,120.62L312.54,101.93L313.69,111.92L314.84,107L316,114.21L317.15,112.11L318.3,87.2L319.46,114.46L320.61,117.85L321.76,119.13L322.92,116.86L324.07,119.76L325.22,125.93L327.53,121.62L328.68,124.12L330.99,132.1L332.14,139.75L336.76,167.1L337.91,165.06L339.06,160.75L340.22,178.58L341.37,176.65L342.52,184.89L343.68,188.36L344.83,174.16L347.14,187.67L348.29,178.26L349.44,186.3L350.6,157.19L355.21,237.43L356.36,206.8L357.51,126.2L358.67,211.82L359.82,203.38L360.97,218.97L363.28,182.2L364.43,185.03L365.59,159.28L366.74,160.89L367.89,159.53L369.05,152.62L370.2,89.6L371.35,164.03L372.51,168.87L373.66,148.85L374.81,163.73L375.97,136.18L377.12,145.94L378.27,129.15L379.43,143.48L380.58,144.21L381.73,138.36L382.89,123.84L384.04,113.45L385.19,110.69L386.35,119.66L387.5,121.29L388.65,124.84L389.81,121.66L390.96,108.55L392.11,109.55L393.27,107.8L394.42,109.64L395.57,107.44L396.73,86.47L397.88,94.61L399.03,80.78L400.19,115.41L401.34,112.19L402.49,91.47L403.65,104.54L404.8,83.84L405.95,110.61L407.11,87.06L408.26,111.95L409.41,101.4L410.57,109.91L411.72,120.26L412.87,111.47L414.03,110.79L415.18,119.53L416.33,92.89L417.49,112.71L418.64,118.59L419.79,119.46L420.94,107.96L422.1,108.63L423.25,110.58L424.4,116.67L425.56,116.16L426.71,104.3L427.86,118.25L429.02,111.93L430.17,118.46L431.32,120.15L432.48,123.91L433.63,123.84L435.94,128.15L437.09,127.41L438.24,128.39L439.4,128.18L441.7,140.76L442.86,144.05L444.01,149.07L445.16,144.05L448.62,173.96L449.78,179.37L450.93,183.55L452.08,199.44L453.24,196.01L454.39,213.81L455.54,207.6L456.7,213.48L457.85,212.12L459,180.16L461.31,207.2L462.46,198.98L463.62,208.42L464.77,225.43L465.92,231.12L467.08,217.02L468.23,190.78L469.38,225.51L470.54,217.41L471.69,220.96L472.84,223.19L474,228.43L475.15,199.89L476.3,209.56L477.46,213.58L478.61,213.69L482.07,153.58L483.22,170.39L484.38,163.03L485.53,135.45L487.83,73.47L488.99,66.26L490.14,104.11L491.29,38.65L492.45,98.19L493.6,103.17L494.75,108.67L495.91,122.63L498.21,91.57L499.37,98.27L500.52,107.6L501.67,70.53L502.83,53.45L503.98,52.39L505.13,76.49L506.29,59.93L507.44,64.61L508.59,84.64L509.75,59.03L510.9,76.02L512.05,79.12L513.21,103.08L514.36,113.96L515.51,106.41L516.67,116.62L517.82,77.79L518.97,87.5L520.13,116.85L522.43,120.06L523.59,107.55L524.74,98.56L525.89,112.45L528.2,123.02L529.35,123.81L530.51,120.24L531.66,124.09L532.81,124.88L533.97,123.34L536.27,121.57L537.43,118.23L538.58,124.37L539.73,120.25L540.89,119.94L542.04,101.41L543.19,102.42L544.35,112.72L545.5,110.96L546.65,107.39L547.81,112.31L548.96,113.71L550.11,106.98L551.26,119.39L552.42,108L553.57,108.86L554.72,105.98L555.88,110.29L558.18,114.33L559.34,112.98L560.49,95.4L561.64,116.98L565.1,128.08L566.26,123.11L567.41,123.76L568.56,120.89L569.72,118.58L570.87,141.39L572.02,120.85L573.18,118.67L574.33,104.05L575.48,112.23L576.64,106.26L577.79,81.1L578.94,92.85L580.1,17.3L582.4,109.01L583.56,75.69L584.71,129.95L585.86,114.07L587.02,115.06L588.17,101.33L589.32,125.04L590.48,130.08L591.63,129.22L592.78,131.95L593.94,137.57L595.09,134.79L596.24,111.24L597.4,121.78L598.55,110.9L599.7,108.46L600.86,125.17L602.01,99.86L604.32,115.15L605.47,85.42L606.62,110.66L607.78,104.02L608.93,113.67L610.08,99.18L612.39,63.63L613.54,80.21L614.69,90.41L615.85,66.69L617,43.09L618.15,86.9L619.31,108.75L620.46,114.61L621.61,120.98L622.77,65.28L623.92,90.48L625.07,92.36L626.23,72.37L627.38,112.46L629.69,64.84L630.84,65.89L631.99,96.87L633.15,97.65L634.3,84.55L635.45,82.16L636.61,109.27L637.76,91.45L638.91,114.81L640.07,116.92L641.22,111.37L642.37,112.2L643.53,111.22L644.68,115.43L645.83,116.06L646.99,123.02L648.14,114.53L649.29,120.18L650.45,119.52L651.6,123.53L652.75,123.92L653.91,122.28L655.06,117.69L656.21,120.75L657.37,116.28L658.52,122.72L659.67,111.11L660.83,114.97L661.98,116.69L663.13,122.61L664.29,115L665.44,74.63L666.59,111L667.75,110.81L670.05,156.64L671.21,155.18L673.51,188.76L674.67,186.14L675.82,185.96L676.97,191.06L678.13,205.26L679.28,193.21L680.43,211.76L681.58,214.71L682.74,197.73L683.89,215.24L685.04,212.62L686.2,165.97L687.35,201.03L688.5,176.68L689.66,184.94L690.81,212.64L691.96,220.61L693.12,134.8L695.42,208.37L696.58,187.45L697.73,181.29L698.88,159.93L700.04,170.55L701.19,158.73L702.34,154.2L703.5,157.47L704.65,182.66L705.8,174.25L706.96,165.08L708.11,147.03L709.26,130.78L710.42,146.94L712.72,136.3L713.88,111.09L715.03,121.93L716.18,119.3L717.34,129.29L718.49,84.83L719.64,91.12L720.8,15.17L723.1,84.11L724.26,94.78L725.41,97.28L726.56,24.74L727.72,101.27L728.87,80.07L730.02,93.81L731.18,74.83L732.33,102.6L733.48,65.19L734.64,79.1L735.79,69.2L736.94,80.07L738.1,56.3L740.4,107.17L741.56,116.39L742.71,116.4L743.86,110.73L746.17,123.19L747.32,123.95L748.47,122.39L749.63,113.17L750.78,116.78L751.93,109.59L753.09,117.9L754.24,102.96L756.55,112.27L757.7,114.62L758.85,101.9L760.01,106.23L762.31,114.63L763.47,109.66L764.62,122.73L765.77,119.77L766.93,122.29L768.08,113.44L769.23,110.13L770.39,119.01L771.54,121.68L772.69,102.43L773.85,125.21L775,131.34" style="vector-effect: non-scaling-stroke; fill: none; stroke: rgb(76, 120, 168); stroke-opacity: 1; stroke-width: 3px; opacity: 1;"/></g><g class="points"/><g class="text"/></g><g class="trace scatter trace6d7f25" style="stroke-miterlimit: 2; opacity: 1;"><g class="fills"/><g class="errorbars"/><g class="lines"><path class="js-line" d="M0,137.57L3.46,152.23L4.61,169.88L8.07,183.62L9.23,199.61L12.69,207.16L13.84,213.44L16.15,213.07L17.3,214.11L18.45,221.11L19.61,217.72L21.91,214.12L23.07,224.63L25.37,220.8L26.53,220.74L27.68,230.1L28.83,223.29L31.14,214.08L32.29,218.56L35.75,186.66L36.9,195.26L39.21,174.62L40.36,162.92L41.52,162.66L42.67,153.55L47.28,120.88L48.44,115.39L49.59,111.39L50.74,100.78L53.05,100.07L54.2,101.99L55.36,102.75L56.51,99.79L58.82,95.59L59.97,103.21L61.12,101.66L62.28,98.56L63.43,95.99L64.58,79.26L65.74,79.68L66.89,78.52L68.04,75.76L69.2,101.59L72.66,80.63L73.81,105.23L76.12,103.01L77.27,100.27L78.42,108.02L79.58,106.26L81.88,102.2L83.04,111.86L84.19,112.35L85.34,111.14L86.5,110.63L87.65,108.45L91.11,112.68L92.26,115.59L94.57,111.55L95.72,112.04L98.03,115.56L99.18,117.22L100.33,119.51L101.49,115.06L104.95,121.91L106.1,119.36L108.41,126.22L109.56,130.65L110.71,130.15L111.87,136.11L114.17,148.53L115.33,161.16L118.79,178.34L119.94,189.8L123.4,201.24L124.55,201.82L126.86,205.23L128.01,207.69L129.17,212.41L130.32,209.86L131.47,209.3L132.63,210.76L133.78,199.51L134.93,203.54L138.39,215.48L139.55,215.23L141.85,209.44L143.01,197.03L146.47,178.1L147.62,195.11L151.08,172.38L152.23,175.71L160.31,123.36L161.46,99.42L162.61,98.81L163.76,100.78L164.92,103.37L166.07,108.94L168.38,99.43L169.53,98.47L171.84,95.36L172.99,93.64L176.45,87.8L177.6,83.99L178.76,78.62L179.91,88.04L181.06,85.26L182.22,80.41L183.37,74.79L184.52,98.82L186.83,101.03L187.98,98.42L189.14,95.43L190.29,96.53L191.44,97.84L192.6,97.28L193.75,110.32L194.9,110.68L196.06,110.85L197.21,109.75L198.36,109.38L199.52,110.73L200.67,109.92L201.82,110.73L202.98,107.58L204.13,107.47L205.28,107.15L206.44,107.66L207.59,114.1L208.74,114.98L211.05,118.07L212.2,115.16L213.36,115.69L214.51,117.55L215.66,120.58L216.82,117.44L219.12,123.69L220.28,128.71L222.58,136.36L223.74,141.91L224.89,147.69L226.04,164.41L229.5,177.95L230.65,191.36L234.11,199.62L235.27,205.13L238.73,201.14L239.88,192.31L241.03,191.33L242.19,191.86L243.34,193.81L244.49,217.07L247.95,211.08L249.11,182.44L252.57,189.87L253.72,189.96L254.87,184.94L256.03,176.39L257.18,173.17L258.33,185.57L261.79,158.63L262.95,178.29L266.41,149.48L267.56,149.62L271.02,123.05L272.17,100.06L273.33,98.6L274.48,99.4L275.63,101.44L276.79,87.03L279.09,87.72L280.25,89.61L281.4,99.58L282.55,96.68L283.71,95.61L284.86,92.38L286.01,96.37L287.17,89.9L289.47,77.69L290.63,59.98L291.78,65L292.93,64.04L294.08,62.46L295.24,71.82L297.54,87.18L298.7,84.68L299.85,84.1L301,89.01L302.16,91L303.31,89.02L304.46,103.2L305.62,103.27L306.77,104.22L307.92,103.89L309.08,97.96L310.23,100.56L312.54,104.1L313.69,102.6L316,101.47L317.15,101.7L318.3,109.57L319.46,109.74L320.61,110.84L321.76,113.11L322.92,113.98L324.07,113.39L325.22,113.53L326.38,116.7L327.53,120.19L328.68,119.72L329.84,121.38L330.99,125.18L333.3,133.73L334.45,137.54L335.6,142.6L336.76,161.87L340.22,168.97L341.37,177.73L342.52,179.02L343.68,178.63L344.83,177.35L345.98,174.06L349.44,168.6L350.6,171.11L351.75,169.63L352.9,171.92L354.06,178.29L355.21,204.01L356.36,203.34L357.51,201.4L358.67,201.29L359.82,187.75L360.97,187.59L362.13,182.31L367.89,146.1L369.05,152.19L372.51,139.56L373.66,157.17L375.97,143.16L377.12,134.27L378.27,133.39L379.43,127.75L381.73,112.41L382.89,120.45L385.19,107.39L386.35,105.17L390.96,89.2L392.11,101.94L395.57,89.59L396.73,96.4L400.19,76.25L401.34,95.3L404.8,70.94L405.95,95.56L407.11,95.55L408.26,94.22L409.41,90.31L410.57,99.72L414.03,92.1L415.18,106.23L417.49,102.81L418.64,102.95L419.79,109.2L420.94,107.09L423.25,106.1L424.4,103.22L427.86,100.65L429.02,110.1L432.48,112.06L433.63,114.67L434.78,114L435.94,114.3L437.09,115.77L438.24,121.08L439.4,120.89L440.55,122.13L441.7,125.04L442.86,135.26L445.16,139.64L446.32,143.86L447.47,159.11L448.62,164.03L450.93,172.33L452.08,186.9L455.54,195.08L456.7,204.36L459,201.47L460.16,201.46L461.31,192.08L462.46,192.47L463.62,192.98L464.77,194.72L465.92,211.16L467.08,209.68L470.54,205.26L471.69,202.57L474,192.48L475.15,203.75L478.61,170.98L479.76,194.02L483.22,160.71L484.38,160.94L487.83,134.59L488.99,89.75L492.45,98.7L493.6,86.08L495.91,95.09L497.06,98.81L499.37,90.52L500.52,89.79L501.67,87.35L502.83,81.63L503.98,81.75L505.13,83.04L506.29,84.88L507.44,72.63L510.9,70.24L512.05,76.82L513.21,74.37L514.36,70.09L515.51,66.24L516.67,107.76L520.13,98.42L521.28,103.99L524.74,96.08L525.89,102.32L527.05,104.47L528.2,105.02L529.35,104.78L530.51,115.08L531.66,113.04L532.81,112.75L535.12,113.53L536.27,109.98L537.43,108.32L538.58,108.7L539.73,117.95L540.89,117.24L542.04,117.43L543.19,118.95L544.35,105.31L545.5,108.41L547.81,115.11L548.96,111.26L552.42,117.99L553.57,112.3L558.18,117.47L559.34,119.91L561.64,122.01L562.8,119.44L565.1,124.62L566.26,125.12L570.87,115.24L572.02,117.89L575.48,98.54L576.64,100.18L578.94,96.23L580.1,95.99L581.25,55.75L582.4,62.4L584.71,75.85L585.86,99.89L589.32,81.73L590.48,102.33L593.94,88.58L595.09,121.8L598.55,105.09L599.7,104.6L602.01,101.92L603.16,102.81L606.62,104.43L607.78,106.4L608.93,97.15L610.08,94.99L611.24,95.09L612.39,94.3L613.54,77.37L614.69,82.86L617,88.28L618.15,64.52L620.46,73.71L621.61,73.65L622.77,105.72L623.92,96.53L626.23,82.49L627.38,91.38L630.84,97.27L631.99,83.05L635.45,94.34L636.61,91.81L640.07,107.23L641.22,111.74L642.37,112.02L643.53,114.09L644.68,114.85L645.83,109.66L648.14,109.42L649.29,110.74L650.45,117.65L651.6,118.71L653.91,122.46L655.06,119.58L656.21,120.27L657.37,122.38L658.52,125.21L659.67,121.49L661.98,128.66L663.13,133.61L664.29,128.92L665.44,135.7L667.75,148.57L668.9,136.61L671.21,161.36L672.36,169.03L674.67,190.75L675.82,193.76L676.97,196.18L678.13,192.29L681.58,200.56L682.74,205.88L685.04,203.88L686.2,203.78L687.35,188.97L688.5,192.93L690.81,203.26L691.96,203.18L694.27,201.3L695.42,200.43L696.58,191.88L697.73,189.68L700.04,173.85L701.19,172.51L702.34,174.95L703.5,168.77L704.65,161.24L705.8,170.15L706.96,166.37L708.11,159.12L709.26,151.29L710.42,131.72L713.88,119.62L715.03,109.71L716.18,107.23L717.34,108.26L718.49,109.5L719.64,92.63L720.8,90.35L721.95,92.63L723.1,94.94L724.26,85.22L726.56,91.84L727.72,92.11L728.87,86.11L730.02,90.36L732.33,79.12L733.48,89.83L734.64,89.66L735.79,85.29L736.94,76.75L738.1,91.12L739.25,97.15L740.4,98.36L741.56,98.09L742.71,111.21L743.86,108.94L745.01,104.97L746.17,103.22L747.32,118.09L749.63,113L750.78,112.89L755.39,115.68L756.55,105.72L758.85,108.54L760.01,110.67L761.16,108.82L762.31,112.04L764.62,119.33L765.77,116.79L768.08,121.49L769.23,124.46L770.39,114.97L771.54,119.65L773.85,130.04L775,126.4" style="vector-effect: non-scaling-stroke; fill: none; stroke: rgb(255, 127, 14); stroke-opacity: 0.7; stroke-width: 3px; opacity: 1;"/></g><g class="points"/><g class="text"/></g></g></g><g class="overplot"/><path class="xlines-above crisp" d="M0,0" style="fill: none;"/><path class="ylines-above crisp" d="M74,50V310" style="fill: none; stroke-width: 2px; stroke: rgb(0, 0, 0); stroke-opacity: 1;"/><g class="overlines-above"/><g class="xaxislayer-above"><g class="xtick"><text text-anchor="middle" x="0" y="330" transform="translate(158.04000000000002,0)" style="font-family: 'Open Sans', verdana, arial, sans-serif; font-size: 19px; fill: rgb(42, 63, 95); fill-opacity: 1; white-space: pre; opacity: 1;"><tspan class="line" dy="0em" x="0" y="330">May 31</tspan><tspan class="line" dy="1.3em" x="0" y="330">2019</tspan></text></g><g class="xtick"><text text-anchor="middle" x="0" y="330" style="font-family: 'Open Sans', verdana, arial, sans-serif; font-size: 19px; fill: rgb(42, 63, 95); fill-opacity: 1; white-space: pre; opacity: 1;" transform="translate(268.75,0)">Jun 1</text></g><g class="xtick"><text text-anchor="middle" x="0" y="330" style="font-family: 'Open Sans', verdana, arial, sans-serif; font-size: 19px; fill: rgb(42, 63, 95); fill-opacity: 1; white-space: pre; opacity: 1;" transform="translate(379.46,0)">Jun 2</text></g><g class="xtick"><text text-anchor="middle" x="0" y="330" style="font-family: 'Open Sans', verdana, arial, sans-serif; font-size: 19px; fill: rgb(42, 63, 95); fill-opacity: 1; white-space: pre; opacity: 1;" transform="translate(490.18,0)">Jun 3</text></g><g class="xtick"><text text-anchor="middle" x="0" y="330" style="font-family: 'Open Sans', verdana, arial, sans-serif; font-size: 19px; fill: rgb(42, 63, 95); fill-opacity: 1; white-space: pre; opacity: 1;" transform="translate(600.89,0)">Jun 4</text></g><g class="xtick"><text text-anchor="middle" x="0" y="330" style="font-family: 'Open Sans', verdana, arial, sans-serif; font-size: 19px; fill: rgb(42, 63, 95); fill-opacity: 1; white-space: pre; opacity: 1;" transform="translate(711.61,0)">Jun 5</text></g><g class="xtick"><text text-anchor="middle" x="0" y="330" style="font-family: 'Open Sans', verdana, arial, sans-serif; font-size: 19px; fill: rgb(42, 63, 95); fill-opacity: 1; white-space: pre; opacity: 1;" transform="translate(822.32,0)">Jun 6</text></g></g><g class="yaxislayer-above"><g class="ytick"><text text-anchor="end" x="69.2" y="6.6499999999999995" transform="translate(0,277.95)" style="font-family: 'Open Sans', verdana, arial, sans-serif; font-size: 19px; fill: rgb(42, 63, 95); fill-opacity: 1; white-space: pre; opacity: 1;">−2</text></g><g class="ytick"><text text-anchor="end" x="69.2" y="6.6499999999999995" style="font-family: 'Open Sans', verdana, arial, sans-serif; font-size: 19px; fill: rgb(42, 63, 95); fill-opacity: 1; white-space: pre; opacity: 1;" transform="translate(0,226.91)">−1</text></g><g class="ytick"><text text-anchor="end" x="69.2" y="6.6499999999999995" style="font-family: 'Open Sans', verdana, arial, sans-serif; font-size: 19px; fill: rgb(42, 63, 95); fill-opacity: 1; white-space: pre; opacity: 1;" transform="translate(0,175.88)">0</text></g><g class="ytick"><text text-anchor="end" x="69.2" y="6.6499999999999995" style="font-family: 'Open Sans', verdana, arial, sans-serif; font-size: 19px; fill: rgb(42, 63, 95); fill-opacity: 1; white-space: pre; opacity: 1;" transform="translate(0,124.84)">1</text></g><g class="ytick"><text text-anchor="end" x="69.2" y="6.6499999999999995" style="font-family: 'Open Sans', verdana, arial, sans-serif; font-size: 19px; fill: rgb(42, 63, 95); fill-opacity: 1; white-space: pre; opacity: 1;" transform="translate(0,73.8)">2</text></g></g><g class="overaxes-above"/></g></g><g class="polarlayer"/><g class="ternarylayer"/><g class="geolayer"/><g class="funnelarealayer"/><g class="pielayer"/><g class="iciclelayer"/><g class="treemaplayer"/><g class="sunburstlayer"/><g class="glimages"/><defs id="topdefs-039de9"><g class="clips"/></defs><g class="layer-above"><g class="imagelayer"/><g class="shapelayer"/></g><g class="infolayer"><g class="g-gtitle"/><g class="g-xtitle"/><g class="g-ytitle" transform="translate(12.537109375,0)"><text class="ytitle" transform="rotate(-90,10.462500000000006,180)" x="10.462500000000006" y="180" text-anchor="middle" style="font-family: 'Open Sans', verdana, arial, sans-serif; font-size: 23px; fill: rgb(42, 63, 95); opacity: 1; font-weight: normal; white-space: pre;">Netload [kW]</text></g></g></svg>