<svg class="main-svg" xmlns="http://www.w3.org/2000/svg" xmlns:xlink="http://www.w3.org/1999/xlink" width="900" height="400" viewBox="0 0 900 400"><rect x="0" y="0" width="900" height="400" style="fill: rgb(255, 255, 255); fill-opacity: 1;"/><defs id="defs-3ced94"><g class="clips"><clipPath id="clip3ced94xyplot" class="plotclip"><rect width="775" height="260"/></clipPath><clipPath class="axesclip" id="clip3ced94x"><rect x="75" y="0" width="775" height="400"/></clipPath><clipPath class="axesclip" id="clip3ced94y"><rect x="0" y="50" width="900" height="260"/></clipPath><clipPath class="axesclip" id="clip3ced94xy"><rect x="75" y="50" width="775" height="260"/></clipPath></g><g class="gradients"/><g class="patterns"/></defs><g class="bglayer"/><g class="layer-below"><g class="imagelayer"/><g class="shapelayer"/></g><g class="cartesianlayer"><g class="subplot xy"><g class="layer-subplot"><g class="shapelayer"/><g class="imagelayer"/></g><g class="gridlayer"><g class="x"><path class="xgrid crisp" transform="translate(158.04000000000002,0)" d="M0,50v260" style="stroke: rgb(235, 240, 248); stroke-opacity: 1; stroke-width: 1px;"/><path class="xgrid crisp" transform="translate(268.75,0)" d="M0,50v260" style="stroke: rgb(235, 240, 248); stroke-opacity: 1; stroke-width: 1px;"/><path class="xgrid crisp" transform="translate(379.46,0)" d="M0,50v260" style="stroke: rgb(235, 240, 248); stroke-opacity: 1; stroke-width: 1px;"/><path class="xgrid crisp" transform="translate(490.18,0)" d="M0,50v260" style="stroke: rgb(235, 240, 248); stroke-opacity: 1; stroke-width: 1px;"/><path class="xgrid crisp" transform="translate(600.89,0)" d="M0,50v260" style="stroke: rgb(235, 240, 248); stroke-opacity: 1; stroke-width: 1px;"/><path class="xgrid crisp" transform="translate(711.61,0)" d="M0,50v260" style="stroke: rgb(235, 240, 248); stroke-opacity: 1; stroke-width: 1px;"/><path class="xgrid crisp" transform="translate(822.32,0)" d="M0,50v260" style="stroke: rgb(235, 240, 248); stroke-opacity: 1; stroke-width: 1px;"/></g><g class="y"><path class="ygrid crisp" transform="translate(0,275.37)" d="M75,0h775" style="stroke: rgb(235, 240, 248); stroke-opacity: 1; stroke-width: 1px;"/><path class="ygrid crisp" transform="translate(0,225.03)" d="M75,0h775" style="stroke: rgb(235, 240, 248); stroke-opacity: 1; stroke-width: 1px;"/><path class="ygrid crisp" transform="translate(0,124.33)" d="M75,0h775" style="stroke: rgb(235, 240, 248); stroke-opacity: 1; stroke-width: 1px;"/><path class="ygrid crisp" transform="translate(0,73.99)" d="M75,0h775" style="stroke: rgb(235, 240, 248); stroke-opacity: 1; stroke-width: 1px;"/></g></g><g class="zerolinelayer"><path class="yzl zl crisp" transform="translate(0,174.68)" d="M75,0h775" style="stroke: rgb(0, 0, 0); stroke-opacity: 1; stroke-width: 2px;"/></g><path class="xlines-below"/><path class="ylines-below"/><g class="overlines-below"/><g class="xaxislayer-below"/><g class="yaxislayer-below"/><g class="overaxes-below"/><g class="plot" transform="translate(75,50)" clip-path="url(#clip3ced94xyplot)"><g class="scatterlayer mlayer"><g class="trace scatter trace0cb167" style="stroke-miterlimit: 2; opacity: 1;"><g class="fills"/><g class="errorbars"/><g class="lines"><path class="js-line" d="M0,117.41L3.46,148.94L4.61,151.15L6.92,174.12L8.07,174.86L10.38,192.01L11.53,199.13L12.69,210.46L13.84,207.55L14.99,202.35L16.15,227.52L17.3,223.53L18.45,231.14L20.76,241.2L21.91,241.58L23.07,246.12L24.22,245.68L25.37,237L26.53,241.22L28.83,214.96L29.99,214L31.14,235.18L32.29,228.88L33.44,216.62L34.6,191.19L35.75,205.87L36.9,199.51L39.21,167.58L40.36,171.55L41.52,146.99L42.67,144.28L43.82,143.54L44.98,146.65L47.28,126.66L48.44,129.92L49.59,130.66L50.74,126.49L51.9,126.16L53.05,123.1L54.2,121.66L55.36,123.61L57.66,117.75L58.82,107.02L59.97,109.49L61.12,108.08L62.28,104.16L63.43,103.63L64.58,98.5L65.74,117.36L69.2,51.54L70.35,55.57L72.66,86.28L73.81,79.96L74.96,53.33L76.12,74.94L77.27,83.47L78.42,103.98L79.58,114.35L80.73,117.51L81.88,78.29L83.04,106.82L84.19,115.36L85.34,116.51L86.5,114.82L87.65,117.98L88.8,117.5L89.96,111.73L91.11,119.71L92.26,111.68L93.42,112.4L94.57,117.67L95.72,119.05L96.88,122.23L98.03,122L99.18,116.36L100.33,118.9L101.49,107.04L102.64,115.76L103.79,114.36L104.95,121.21L106.1,109.52L107.25,106.8L108.41,127.41L109.56,123.19L110.71,123.38L111.87,130.48L113.02,127.04L117.63,182.52L118.79,186.14L122.25,212.36L123.4,212.85L125.71,227.47L126.86,224.29L129.17,234.43L130.32,230.37L131.47,242.97L132.63,239.66L133.78,246.25L134.93,247L136.09,245.79L137.24,242.94L138.39,241.92L139.55,242.75L140.7,235.8L141.85,236.65L143.01,235.41L144.16,231.26L146.47,220.99L147.62,216.39L148.77,199.68L149.93,198.25L151.08,192.14L152.23,161.65L153.39,173.07L154.54,166.48L155.69,157.52L156.85,141.43L158,143.97L159.15,139.72L160.31,131.34L161.46,130.7L162.61,130.81L163.76,127.45L166.07,100.66L167.22,109.91L168.38,90.62L169.53,109.71L170.68,98.89L171.84,101.77L172.99,86.54L174.14,104L175.3,106.39L176.45,104.36L177.6,112.06L178.76,106.16L181.06,92.77L182.22,67.04L183.37,79.91L184.52,102.76L186.83,91.39L187.98,98.43L189.14,105.25L190.29,104.02L192.6,85.31L193.75,107.27L194.9,112.89L196.06,108.3L197.21,116.92L198.36,109.77L199.52,108.67L200.67,112.39L201.82,117.98L202.98,106.56L204.13,104.89L205.28,96.75L206.44,107.02L207.59,101.21L208.74,116.48L209.9,104.74L211.05,102.3L212.2,108.65L213.36,120.32L214.51,96.85L215.66,107.33L216.82,106.17L217.97,111.21L219.12,111.67L220.28,127.84L221.43,126.63L222.58,138.85L223.74,140.72L226.04,170.39L227.19,179.9L228.35,184.26L229.5,185.4L235.27,214.82L236.42,217.83L237.57,204.64L238.73,208.05L239.88,206.55L241.03,218.7L243.34,235.69L244.49,236.6L245.65,225.55L246.8,231.1L249.11,236.64L250.26,230.16L252.57,231.35L253.72,229.72L256.03,219.43L257.18,218.02L258.33,215.24L259.49,207.11L260.64,202.35L261.79,184.58L262.95,186.14L264.1,179.56L268.71,145.88L269.87,139.28L271.02,136.62L272.17,131.61L273.33,123.6L274.48,124.03L275.63,123.42L276.79,113.89L277.94,112.66L279.09,112.62L280.25,106.64L281.4,84.56L282.55,111.25L283.71,103.97L284.86,112.25L286.01,106.69L287.17,110.66L288.32,110.22L290.63,49.32L291.78,23.03L292.93,82.04L294.08,62.47L296.39,102.69L297.54,104.2L298.7,87.63L299.85,114.38L301,106.62L302.16,105.06L303.31,78.75L304.46,116.7L306.77,106.59L307.92,106.92L309.08,106.91L310.23,112.52L312.54,103.7L313.69,102.51L314.84,110.47L316,107.03L317.15,117.42L318.3,110.77L319.46,115.86L320.61,110.33L321.76,115.87L322.92,114.56L324.07,112.06L325.22,116.91L326.38,113.63L327.53,113.96L328.68,121.99L329.84,122.38L330.99,124.06L332.14,128.54L334.45,149.41L335.6,164.2L341.37,188.79L342.52,192.38L343.68,194.49L344.83,194.21L345.98,190.16L347.14,191.9L348.29,195.26L349.44,190.2L350.6,196.89L351.75,193.69L352.9,201.25L354.06,222.22L355.21,239.72L356.36,238.02L359.82,230.79L360.97,224.13L362.13,219.62L363.28,209.52L364.43,205.89L365.59,189.68L366.74,179.8L367.89,191.09L369.05,173.23L370.2,178.88L371.35,177.21L372.51,181.35L373.66,169.94L374.81,174.16L375.97,173.25L377.12,166.66L378.27,156.15L379.43,153.96L381.73,134.52L382.89,118.89L384.04,123.18L385.19,122.42L386.35,121.56L387.5,106.03L388.65,96.72L389.81,103.25L390.96,109.89L392.11,107.61L393.27,116.2L394.42,113.9L395.57,104.01L396.73,107.29L397.88,116.32L399.03,112.37L401.34,100.78L402.49,111.53L403.65,104.5L404.8,88.38L405.95,98.16L407.11,90.03L408.26,78.13L409.41,93.21L410.57,101.37L411.72,99.46L412.87,96.85L414.03,90.76L415.18,107.6L416.33,107.18L417.49,107.9L418.64,110.63L420.94,100.83L422.1,105.48L424.4,117.93L425.56,109.35L426.71,103.95L427.86,39.14L429.02,106.11L430.17,117.32L431.32,109.5L432.48,108L433.63,114.64L434.78,112.69L435.94,122.66L437.09,122.94L438.24,116.75L439.4,116.79L440.55,106.3L441.7,130.51L442.86,132.75L444.01,132.2L447.47,166.09L448.62,175.78L449.78,171.33L450.93,180.79L455.54,209.3L456.7,209.6L457.85,216.62L459,208.49L461.31,224.8L462.46,211.49L464.77,232.41L465.92,238.11L467.08,234.63L468.23,236.64L469.38,237.21L470.54,235.31L471.69,229.93L472.84,231.57L474,226.45L475.15,214.96L477.46,179.34L478.61,184.32L479.76,178.4L480.92,182.79L483.22,136.81L484.38,144.97L485.53,153.81L486.68,145.07L487.83,147.51L488.99,134.87L490.14,125.17L491.29,128.34L492.45,128.62L493.6,124.62L494.75,124.3L495.91,123.15L497.06,125.8L498.21,102.9L499.37,52.11L500.52,78.11L501.67,97.46L502.83,91.55L503.98,85.81L505.13,93.37L506.29,105.42L507.44,98.71L508.59,104.7L509.75,99.49L510.9,112.33L512.05,93.9L513.21,108.97L514.36,105.3L515.51,97.74L516.67,101.92L517.82,98.87L518.97,104.04L520.13,88.03L521.28,94.84L523.59,78.89L524.74,105.87L525.89,94.46L527.05,51.85L528.2,100.5L529.35,105.49L530.51,110.77L531.66,104.28L532.81,112.61L533.97,97.43L535.12,89.15L536.27,111.89L537.43,110.48L538.58,100.62L539.73,31.01L540.89,104.19L542.04,105.8L543.19,87.96L544.35,105.24L545.5,86.12L546.65,102.38L547.81,90.24L548.96,97.37L550.11,77.95L551.26,111.68L552.42,115.81L553.57,113.32L554.72,105.12L555.88,111.75L557.03,112.78L558.18,116.14L559.34,123.35L560.49,108.26L561.64,107.8L563.95,128.07L565.1,121.91L566.26,124.53L567.41,111.74L568.56,74.26L569.72,125.07L570.87,132.33L572.02,117.14L573.18,118.03L574.33,130.1L575.48,127.28L576.64,97.16L577.79,100.32L578.94,107.25L580.1,98.94L581.25,108.97L582.4,108.08L583.56,13L587.02,92.3L588.17,103.74L590.48,96.09L591.63,107.29L592.78,105.49L593.94,107.56L595.09,114.96L596.24,66.1L597.4,105.04L598.55,115.36L599.7,116.87L600.86,108.67L602.01,112.83L603.16,111L604.32,129.05L605.47,128.78L606.62,114.67L607.78,116.94L608.93,121.29L610.08,118.06L611.24,106.61L612.39,114.35L613.54,115.86L614.69,119.97L617,117.8L618.15,113.16L619.31,119.59L620.46,114.13L621.61,91.66L622.77,104.26L623.92,105.65L625.07,87.94L626.23,117.45L627.38,118.04L628.53,118.4L629.69,116.98L630.84,109.27L631.99,118.5L633.15,114.7L634.3,98.68L636.61,111.35L637.76,111.1L638.91,115.01L640.07,99.76L641.22,99.29L642.37,106.68L643.53,114.86L644.68,114.39L646.99,109.55L648.14,105.06L649.29,106.35L650.45,104.57L651.6,105.78L652.75,95.63L653.91,98.99L655.06,108.55L656.21,115.11L657.37,114.8L658.52,119.54L659.67,120.36L660.83,130.64L661.98,134L665.44,142.54L666.59,142.77L668.9,147.85L670.05,156.16L671.21,159L672.36,177.23L673.51,191.19L674.67,192.54L675.82,202.44L676.97,204.63L678.13,206.19L679.28,216.55L680.43,211.18L681.58,217.48L682.74,213.54L683.89,203.88L686.2,232.2L687.35,212.17L689.66,201.47L690.81,210.79L693.12,222.34L694.27,210.41L695.42,204.69L696.58,211.73L697.73,204.66L698.88,204.36L700.04,192.55L701.19,210.29L702.34,199.7L703.5,195.98L704.65,193.17L705.8,188.14L708.11,169.05L709.26,167.92L713.88,137.02L715.03,128.53L716.18,131.86L717.34,127.96L718.49,127.18L719.64,124.42L720.8,121.29L721.95,112.68L723.1,116.91L724.26,109.1L725.41,110.95L726.56,117.31L727.72,118.85L728.87,115.82L731.18,118.12L732.33,117.06L733.48,114.46L734.64,114.58L735.79,96.71L736.94,97.13L738.1,97.25L739.25,85.68L740.4,87.63L741.56,106.31L742.71,109.49L743.86,98.28L745.01,103.69L746.17,99.1L747.32,118.38L748.47,118.24L749.63,113.32L750.78,104.74L751.93,116.61L753.09,106.96L754.24,115.33L755.39,112.77L756.55,114.25L757.7,110.1L758.85,117.79L760.01,116.09L761.16,120.62L762.31,119.33L763.47,120.07L764.62,117.31L765.77,119.3L766.93,117.63L769.23,126.17L770.39,124.14L775,141.74" style="vector-effect: non-scaling-stroke; fill: none; stroke: rgb(76, 120, 168); stroke-opacity: 1; stroke-width: 3px; opacity: 1;"/></g><g class="points"/><g class="text"/></g><g class="trace scatter tracebfee75" style="stroke-miterlimit: 2; opacity: 1;"><g class="fills"/><g class="errorbars"/><g class="lines"><path class="js-line" d="M0,124.18L2.31,138.29L3.46,147.18L5.77,155.65L6.92,162.82L10.38,183.97L11.53,189.93L13.84,199.83L14.99,195.91L16.15,195.42L17.3,196.67L18.45,220.6L19.61,219.65L21.91,220.58L23.07,237.12L25.37,233.48L26.53,233.1L31.14,212.68L32.29,220.67L34.6,205.06L35.75,199.84L36.9,192.24L38.06,179.56L40.36,154.39L41.52,160.55L44.98,127.62L46.13,133.49L49.59,105.45L50.74,119.58L53.05,107.52L54.2,104.42L55.36,106.25L56.51,98.57L57.66,95.41L58.82,95.05L59.97,98.87L61.12,96.85L62.28,98.24L63.43,101.53L65.74,84.12L66.89,83.62L68.04,85.29L69.2,63.85L71.5,54.53L72.66,53.45L73.81,81.2L74.96,78.07L77.27,73.25L78.42,95.21L79.58,99.96L80.73,100.95L81.88,99.94L83.04,96.53L85.34,107.8L86.5,108.27L87.65,108.88L88.8,104.93L91.11,100.13L92.26,110.58L94.57,102.28L95.72,100.32L96.88,111.94L98.03,107.86L100.33,103.7L101.49,112.92L103.79,108.94L104.95,108.75L106.1,120.8L107.25,122.56L109.56,129.42L110.71,127.64L114.17,151.14L115.33,148.43L118.79,173.46L119.94,186.07L122.25,194.22L123.4,199.81L124.55,202.55L125.71,198.8L126.86,198.41L128.01,199.7L129.17,224.81L130.32,223.5L131.47,223.64L132.63,224.62L133.78,238.3L134.93,237.37L137.24,236.67L138.39,230.35L140.7,219.3L141.85,216.94L143.01,223.91L144.16,215.83L146.47,205.37L147.62,203.24L151.08,171L152.23,183.23L155.69,152.5L156.85,151.23L160.31,121.38L161.46,124.23L167.22,99.07L168.38,97.16L169.53,97.3L170.68,101.45L171.84,99.36L172.99,100.7L174.14,103.94L175.3,90.57L176.45,85.9L177.6,85.63L178.76,87.4L179.91,79.41L182.22,60.42L183.37,57.55L184.52,78.83L185.68,77.79L187.98,74.63L189.14,104.03L190.29,105.53L191.44,104.79L193.75,101.11L194.9,108.03L196.06,110.38L197.21,110.48L198.36,110.82L199.52,106.77L201.82,101.87L202.98,110.46L205.28,103.42L206.44,101.67L207.59,106.34L208.74,105.64L211.05,104.16L212.2,104.86L215.66,108.51L216.82,113.89L220.28,129.14L221.43,130.49L223.74,143.83L224.89,152.39L228.35,167.51L229.5,174.97L230.65,185.54L231.81,188.81L234.11,199.05L235.27,200.27L237.57,193.16L238.73,191.89L239.88,207.35L241.03,208.27L243.34,212.44L244.49,231.69L246.8,228.92L247.95,228.96L251.41,212.47L252.57,210.52L253.72,218.44L254.87,210.47L257.18,200.59L258.33,199.79L261.79,168.08L262.95,178.27L266.41,150.36L267.56,153.43L271.02,121.09L272.17,126.89L274.48,114.46L275.63,110.51L276.79,109.03L277.94,101.54L279.09,98.14L280.25,97.31L281.4,99.14L282.55,97.4L283.71,98.89L284.86,102.16L287.17,86.81L288.32,85.15L289.47,86.14L290.63,60.58L292.93,53.45L294.08,52.67L295.24,68.38L296.39,70.98L297.54,71.49L298.7,70.62L299.85,96.88L301,100.26L302.16,100.45L303.31,98.96L304.46,95.99L305.62,103.61L306.77,106.28L307.92,106.48L312.54,97.17L313.69,100.81L317.15,96.2L318.3,109.49L320.61,102.06L321.76,100.14L322.92,109.44L324.07,106.31L326.38,104.59L327.53,114.69L329.84,120.33L330.99,124.14L332.14,125.46L333.3,130.36L335.6,145.19L336.76,156.69L337.91,155.93L339.06,158.71L340.22,163.3L341.37,177.61L342.52,174.29L343.68,173.33L344.83,173.45L345.98,175L348.29,160.17L349.44,157.65L350.6,181.21L351.75,181.31L354.06,193.85L355.21,222.12L358.67,218.64L359.82,216.17L363.28,186.3L364.43,189.78L366.74,171.38L367.89,166.41L369.05,169.34L370.2,156.57L372.51,141.89L373.66,167.35L377.12,136.22L378.27,149.97L381.73,113.02L382.89,122.41L385.19,106.91L386.35,101.79L387.5,102.86L388.65,93.1L389.81,88.51L390.96,87.05L392.11,95.69L393.27,90.41L394.42,90.02L395.57,92.3L397.88,76.6L399.03,74.58L400.19,75.38L401.34,71.94L403.65,48.71L404.8,45.01L405.95,76.9L407.11,70.34L409.41,62.64L410.57,94.74L411.72,94.06L412.87,92.14L414.03,89.55L415.18,97.33L416.33,99.34L417.49,99.09L418.64,97.78L419.79,100.74L422.1,90.74L423.25,88.08L424.4,99.65L425.56,93.52L427.86,87.66L429.02,63.64L431.32,82.47L432.48,85.39L433.63,100.93L434.78,97.55L437.09,95.87L438.24,115.62L439.4,113.62L440.55,114.54L441.7,117.15L442.86,124.95L444.01,126.4L445.16,131.67L446.32,139.03L447.47,151.51L448.62,151.39L449.78,155.7L450.93,162.28L452.08,176.82L453.24,177.96L454.39,181.66L456.7,193.98L457.85,187.27L459,184.99L460.16,184.97L461.31,209.84L462.46,207.19L464.77,206.09L465.92,224.71L468.23,218.1L469.38,217L470.54,217.53L471.69,206.46L474,196.15L475.15,207.62L477.46,188.44L478.61,182.53L482.07,156.09L483.22,149.08L485.53,144.16L486.68,136.78L487.83,126.16L488.99,132.25L492.45,104.72L493.6,119.12L497.06,101.5L498.21,105.39L500.52,89.86L501.67,88.28L502.83,89.72L503.98,87.94L505.13,89.48L506.29,92.87L508.59,78.51L509.75,76.68L512.05,77.7L513.21,60.65L515.51,48.49L516.67,83.42L518.97,70.45L520.13,66.78L521.28,93.89L522.43,95.56L523.59,94.95L524.74,93.12L525.89,107.45L527.05,106.9L529.35,103.44L530.51,100.44L532.81,94.49L533.97,92.65L535.12,95.41L536.27,93.98L538.58,92.03L539.73,98.91L543.19,95.9L544.35,93.38L546.65,97.12L547.81,97.56L548.96,98.93L550.11,103.78L553.57,111.38L554.72,109.99L555.88,110.31L557.03,111.61L558.18,106.97L559.34,105.78L560.49,107L561.64,109.44L562.8,108.64L563.95,110.8L566.26,116.35L567.41,113.49L569.72,102.08L570.87,98.49L572.02,120.92L573.18,113.32L575.48,103.42L576.64,116.58L578.94,109.81L580.1,109.87L581.25,95.47L582.4,94.24L584.71,95.06L585.86,66.37L588.17,86.7L589.32,90.53L590.48,91.08L591.63,88L592.78,87.38L593.94,87.73L595.09,108.98L596.24,107.82L598.55,101.27L599.7,111.53L603.16,102.1L604.32,112.73L605.47,111.29L606.62,108.56L608.93,103.44L610.08,96.41L611.24,93.24L612.39,92.52L613.54,100.99L614.69,96.2L615.85,96.1L617,98.56L618.15,94.88L619.31,85.19L620.46,82.25L621.61,82.6L623.92,57.79L625.07,52.76L626.23,50.42L627.38,95.52L629.69,76.28L630.84,71.38L631.99,106.56L633.15,103.66L635.45,97.39L636.61,109.57L637.76,109.2L638.91,107.7L640.07,105.74L641.22,98.43L644.68,93.93L645.83,105.14L648.14,96.66L649.29,94.63L650.45,102.49L651.6,100.09L653.91,97.2L655.06,99.55L658.52,101.17L659.67,116.66L660.83,117.14L661.98,119.52L663.13,123.04L664.29,132.11L665.44,133.19L666.59,137.86L667.75,144.51L668.9,145.55L671.21,156.41L672.36,163.99L673.51,176.11L674.67,178.2L678.13,190.48L679.28,184.88L680.43,183.67L681.58,184.71L682.74,211.83L683.89,209.24L685.04,208.31L686.2,208.34L687.35,225.79L688.5,222.23L690.81,219.5L691.96,204.96L694.27,199.74L695.42,198.64L696.58,199.24L697.73,195.34L700.04,189.09L701.19,181.77L704.65,157.84L705.8,178.86L709.26,143.74L710.42,152.5L713.88,114.57L715.03,123.58L717.34,108.22L718.49,103.78L719.64,107.6L720.8,97.48L721.95,92.81L723.1,91.41L724.26,101.58L725.41,95.76L726.56,95.14L727.72,97.35L728.87,94.76L730.02,84.46L731.18,81.24L732.33,81.47L733.48,81.54L734.64,64L736.94,51.39L738.1,84.34L740.4,72.55L741.56,69.06L742.71,104.68L743.86,102.38L746.17,96.69L747.32,104.94L748.47,106.63L749.63,106.24L750.78,104.91L751.93,101.03L755.39,94.45L756.55,104.43L758.85,96.79L760.01,94.97L761.16,107.94L762.31,103.32L764.62,98.76L765.77,109.7L768.08,104.66L769.23,104.43L770.39,121.46L771.54,120.73L772.69,122.24L773.85,125.06L775,132.41" style="vector-effect: non-scaling-stroke; fill: none; stroke: rgb(255, 127, 14); stroke-opacity: 0.7; stroke-width: 3px; opacity: 1;"/></g><g class="points"/><g class="text"/></g></g></g><g class="overplot"/><path class="xlines-above crisp" d="M0,0" style="fill: none;"/><path class="ylines-above crisp" d="M74,50V310" style="fill: none; stroke-width: 2px; stroke: rgb(0, 0, 0); stroke-opacity: 1;"/><g class="overlines-above"/><g class="xaxislayer-above"><g class="xtick"><text text-anchor="middle" x="0" y="330" transform="translate(158.04000000000002,0)" style="font-family: 'Open Sans', verdana, arial, sans-serif; font-size: 19px; fill: rgb(42, 63, 95); fill-opacity: 1; white-space: pre; opacity: 1;"><tspan class="line" dy="0em" x="0" y="330">May 31</tspan><tspan class="line" dy="1.3em" x="0" y="330">2019</tspan></text></g><g class="xtick"><text text-anchor="middle" x="0" y="330" style="font-family: 'Open Sans', verdana, arial, sans-serif; font-size: 19px; fill: rgb(42, 63, 95); fill-opacity: 1; white-space: pre; opacity: 1;" transform="translate(268.75,0)">Jun 1</text></g><g class="xtick"><text text-anchor="middle" x="0" y="330" style="font-family: 'Open Sans', verdana, arial, sans-serif; font-size: 19px; fill: rgb(42, 63, 95); fill-opacity: 1; white-space: pre; opacity: 1;" transform="translate(379.46,0)">Jun 2</text></g><g class="xtick"><text text-anchor="middle" x="0" y="330" style="font-family: 'Open Sans', verdana, arial, sans-serif; font-size: 19px; fill: rgb(42, 63, 95); fill-opacity: 1; white-space: pre; opacity: 1;" transform="translate(490.18,0)">Jun 3</text></g><g class="xtick"><text text-anchor="middle" x="0" y="330" style="font-family: 'Open Sans', verdana, arial, sans-serif; font-size: 19px; fill: rgb(42, 63, 95); fill-opacity: 1; white-space: pre; opacity: 1;" transform="translate(600.89,0)">Jun 4</text></g><g class="xtick"><text text-anchor="middle" x="0" y="330" style="font-family: 'Open Sans', verdana, arial, sans-serif; font-size: 19px; fill: rgb(42, 63, 95); fill-opacity: 1; white-space: pre; opacity: 1;" transform="translate(711.61,0)">Jun 5</text></g><g class="xtick"><text text-anchor="middle" x="0" y="330" style="font-family: 'Open Sans', verdana, arial, sans-serif; font-size: 19px; fill: rgb(42, 63, 95); fill-opacity: 1; white-space: pre; opacity: 1;" transform="translate(822.32,0)">Jun 6</text></g></g><g class="yaxislayer-above"><g class="ytick"><text text-anchor="end" x="69.2" y="6.6499999999999995" transform="translate(0,275.37)" style="font-family: 'Open Sans', verdana, arial, sans-serif; font-size: 19px; fill: rgb(42, 63, 95); fill-opacity: 1; white-space: pre; opacity: 1;">−2</text></g><g class="ytick"><text text-anchor="end" x="69.2" y="6.6499999999999995" style="font-family: 'Open Sans', verdana, arial, sans-serif; font-size: 19px; fill: rgb(42, 63, 95); fill-opacity: 1; white-space: pre; opacity: 1;" transform="translate(0,225.03)">−1</text></g><g class="ytick"><text text-anchor="end" x="69.2" y="6.6499999999999995" style="font-family: 'Open Sans', verdana, arial, sans-serif; font-size: 19px; fill: rgb(42, 63, 95); fill-opacity: 1; white-space: pre; opacity: 1;" transform="translate(0,174.68)">0</text></g><g class="ytick"><text text-anchor="end" x="69.2" y="6.6499999999999995" style="font-family: 'Open Sans', verdana, arial, sans-serif; font-size: 19px; fill: rgb(42, 63, 95); fill-opacity: 1; white-space: pre; opacity: 1;" transform="translate(0,124.33)">1</text></g><g class="ytick"><text text-anchor="end" x="69.2" y="6.6499999999999995" style="font-family: 'Open Sans', verdana, arial, sans-serif; font-size: 19px; fill: rgb(42, 63, 95); fill-opacity: 1; white-space: pre; opacity: 1;" transform="translate(0,73.99)">2</text></g></g><g class="overaxes-above"/></g></g><g class="polarlayer"/><g class="ternarylayer"/><g class="geolayer"/><g class="funnelarealayer"/><g class="pielayer"/><g class="iciclelayer"/><g class="treemaplayer"/><g class="sunburstlayer"/><g class="glimages"/><defs id="topdefs-3ced94"><g class="clips"/></defs><g class="layer-above"><g class="imagelayer"/><g class="shapelayer"/></g><g class="infolayer"><g class="g-gtitle"/><g class="g-xtitle"/><g class="g-ytitle" transform="translate(12.537109375,0)"><text class="ytitle" transform="rotate(-90,10.462500000000006,180)" x="10.462500000000006" y="180" text-anchor="middle" style="font-family: 'Open Sans', verdana, arial, sans-serif; font-size: 23px; fill: rgb(42, 63, 95); opacity: 1; font-weight: normal; white-space: pre;">Netload [kW]</text></g></g></svg>