<svg class="main-svg" xmlns="http://www.w3.org/2000/svg" xmlns:xlink="http://www.w3.org/1999/xlink" width="900" height="400" viewBox="0 0 900 400"><rect x="0" y="0" width="900" height="400" style="fill: rgb(255, 255, 255); fill-opacity: 1;"/><defs id="defs-633452"><g class="clips"><clipPath id="clip633452xyplot" class="plotclip"><rect width="779" height="260"/></clipPath><clipPath class="axesclip" id="clip633452x"><rect x="71" y="0" width="779" height="400"/></clipPath><clipPath class="axesclip" id="clip633452y"><rect x="0" y="50" width="900" height="260"/></clipPath><clipPath class="axesclip" id="clip633452xy"><rect x="71" y="50" width="779" height="260"/></clipPath></g><g class="gradients"/><g class="patterns"/></defs><g class="bglayer"/><g class="layer-below"><g class="imagelayer"/><g class="shapelayer"/></g><g class="cartesianlayer"><g class="subplot xy"><g class="layer-subplot"><g class="shapelayer"/><g class="imagelayer"/></g><g class="gridlayer"><g class="x"><path class="xgrid crisp" transform="translate(154.45999999999998,0)" d="M0,50v260" style="stroke: rgb(235, 240, 248); stroke-opacity: 1; stroke-width: 1px;"/><path class="xgrid crisp" transform="translate(265.75,0)" d="M0,50v260" style="stroke: rgb(235, 240, 248); stroke-opacity: 1; stroke-width: 1px;"/><path class="xgrid crisp" transform="translate(377.04,0)" d="M0,50v260" style="stroke: rgb(235, 240, 248); stroke-opacity: 1; stroke-width: 1px;"/><path class="xgrid crisp" transform="translate(488.32,0)" d="M0,50v260" style="stroke: rgb(235, 240, 248); stroke-opacity: 1; stroke-width: 1px;"/><path class="xgrid crisp" transform="translate(599.61,0)" d="M0,50v260" style="stroke: rgb(235, 240, 248); stroke-opacity: 1; stroke-width: 1px;"/><path class="xgrid crisp" transform="translate(710.89,0)" d="M0,50v260" style="stroke: rgb(235, 240, 248); stroke-opacity: 1; stroke-width: 1px;"/><path class="xgrid crisp" transform="translate(822.18,0)" d="M0,50v260" style="stroke: rgb(235, 240, 248); stroke-opacity: 1; stroke-width: 1px;"/></g><g class="y"><path class="ygrid crisp" transform="translate(0,227.63)" d="M71,0h779" style="stroke: rgb(235, 240, 248); stroke-opacity: 1; stroke-width: 1px;"/><path class="ygrid crisp" transform="translate(0,180.06)" d="M71,0h779" style="stroke: rgb(235, 240, 248); stroke-opacity: 1; stroke-width: 1px;"/><path class="ygrid crisp" transform="translate(0,132.49)" d="M71,0h779" style="stroke: rgb(235, 240, 248); stroke-opacity: 1; stroke-width: 1px;"/><path class="ygrid crisp" transform="translate(0,84.93)" d="M71,0h779" style="stroke: rgb(235, 240, 248); stroke-opacity: 1; stroke-width: 1px;"/></g></g><g class="zerolinelayer"><path class="yzl zl crisp" transform="translate(0,275.19)" d="M71,0h779" style="stroke: rgb(0, 0, 0); stroke-opacity: 1; stroke-width: 2px;"/></g><path class="xlines-below"/><path class="ylines-below"/><g class="overlines-below"/><g class="xaxislayer-below"/><g class="yaxislayer-below"/><g class="overaxes-below"/><g class="plot" transform="translate(71,50)" clip-path="url(#clip633452xyplot)"><g class="scatterlayer mlayer"><g class="trace scatter trace21f25c" style="stroke-miterlimit: 2; opacity: 1;"><g class="fills"/><g class="errorbars"/><g class="lines"><path class="js-line" d="M0,226.63L1.16,225.44L2.32,231.13L3.48,231.86L4.64,226.78L6.96,237.14L8.11,236.74L10.43,241.16L11.59,241.46L12.75,240.31L13.91,243L17.39,241.34L18.55,240.73L19.71,243.68L20.87,243.07L22.03,241.2L23.18,242.57L24.34,247L25.5,238.29L26.66,238.7L27.82,193.96L28.98,222.36L30.14,206.65L31.3,214.43L32.46,210.94L33.62,218L34.78,146.42L35.94,215.18L37.1,237.22L39.41,229.77L40.57,232.95L41.73,233.75L42.89,231.99L44.05,230.77L45.21,228.37L46.37,228.34L47.53,226.13L48.69,226.01L49.85,224.81L53.32,224.58L54.48,223.97L55.64,209.76L56.8,213.68L57.96,215.05L59.12,209.68L60.28,213.76L61.44,213.26L62.6,218.68L63.76,210.62L64.92,220.12L66.08,222.01L67.24,221.85L68.39,215.23L69.55,216.42L70.71,223.49L73.03,217.76L74.19,216.5L75.35,217.07L76.51,207.52L77.67,219.69L78.83,221.92L79.99,222.45L81.15,218.35L82.31,217.98L83.46,219.61L84.62,223.31L85.78,223.3L86.94,222.68L88.1,216.53L89.26,216.43L90.42,219.01L91.58,217.91L92.74,164.55L93.9,161.81L95.06,156.61L96.22,159.74L97.38,136.63L98.53,123.94L99.69,183.66L100.85,193.94L102.01,219.32L103.17,203.05L104.33,209.69L106.65,224.06L107.81,222.61L108.97,225.7L110.13,225.62L111.29,222.35L112.44,223.85L114.76,228.98L115.92,227.42L117.08,234.06L118.24,234.56L119.4,234.76L120.56,234.17L121.72,232.81L122.88,211.88L124.04,236.57L125.2,241.63L126.36,241.44L127.51,237.23L128.67,239.62L129.83,237.38L130.99,230.58L132.15,228.55L133.31,240.85L134.47,242.25L135.63,245.05L136.79,244.65L137.95,243.86L139.11,238.34L140.27,230.39L141.43,188.62L144.9,228.76L146.06,211.06L148.38,230.66L149.54,230.38L151.86,236.55L153.02,233.69L154.18,230.81L155.34,224.28L157.65,229.17L158.81,226.52L159.97,225.27L161.13,226.1L163.45,218.13L164.61,169.27L165.77,170.46L166.93,205.3L168.09,200.89L169.25,200.87L170.41,184.31L171.57,222.74L172.72,222.25L173.88,217.16L175.04,212.31L176.2,222.38L177.36,214.47L178.52,222.32L179.68,221.08L180.84,222.52L182,222.33L183.16,218.7L184.32,222.41L185.48,221.92L186.64,223.24L187.79,222.49L190.11,224.04L191.27,223.36L192.43,217.44L193.59,221L194.75,224.46L195.91,224.01L198.23,222.63L199.39,218.85L201.71,223.75L202.86,222.46L204.02,211.4L205.18,216.64L207.5,164.05L208.66,210.85L209.82,214.22L210.98,209.08L212.14,208.12L213.3,218.05L214.46,219.14L215.62,217.24L217.93,224.36L219.09,225.17L220.25,226.25L221.41,222.36L223.73,227.95L224.89,225.53L227.21,233.56L228.37,233.61L229.53,233.88L230.69,236.22L231.85,235.95L233,234.89L234.16,231.86L235.32,238.02L236.48,235.07L237.64,241.27L239.96,233.99L241.12,242.69L243.44,243.67L244.6,245.12L245.76,245.62L246.92,238.18L248.07,243.86L249.23,242.35L251.55,198.58L252.71,233.13L253.87,238.1L255.03,239.57L256.19,238.75L257.35,228.08L259.67,241.38L260.83,238.69L261.99,239.38L263.14,238.36L264.3,237.78L265.46,235.5L267.78,231.67L268.94,227.76L270.1,209.31L271.26,222.11L272.42,224.94L273.58,216.43L274.74,205.76L275.9,224.55L277.06,220.85L278.21,145.1L280.53,212.87L281.69,211.58L282.85,211.68L284.01,215.05L285.17,221.95L286.33,222.47L288.65,223.42L289.81,222.14L290.97,219.91L292.13,222.98L293.28,224.17L294.44,215.2L295.6,223.6L296.76,224.43L300.24,224.25L301.4,223.93L303.72,211.79L304.88,221.09L306.04,223.11L307.19,221.55L308.35,221.37L309.51,223.62L310.67,222.07L311.83,222.47L314.15,224.45L315.31,217.48L317.63,211.01L318.79,218.09L321.11,218.22L322.26,205.79L323.42,208.39L324.58,221.99L325.74,223.61L326.9,220.84L328.06,216.4L329.22,221.6L330.38,224.7L331.54,223.7L332.7,222.34L333.86,222.51L335.02,224.4L336.18,229.92L338.49,233.4L339.65,232.81L341.97,234.92L343.13,234.72L346.61,237.92L347.77,233.78L348.93,236.69L350.09,235.27L351.25,234.57L352.4,221.73L353.56,217.97L354.72,235.39L357.04,242.83L358.2,241.28L359.36,240.63L360.52,242.64L361.68,235.23L362.84,234.61L364,215.21L365.16,219.49L367.47,230.47L368.63,234.83L369.79,230.54L370.95,234.88L372.11,236.5L373.27,236.37L374.43,232.23L375.59,233.12L376.75,233.26L377.91,231.85L379.07,231.22L380.23,227.5L382.54,227.24L383.7,216.71L384.86,214.3L386.02,223.84L387.18,225.31L388.34,222.13L389.5,219.11L390.66,224.91L391.82,223.34L392.98,219.95L394.14,219.74L395.3,222.49L396.46,223.02L397.61,220.56L399.93,222.4L401.09,223.74L403.41,215.19L404.57,213.18L405.73,221.52L406.89,222.58L410.37,222.35L411.53,219.53L412.68,214.52L413.84,222.32L415,221.87L416.16,215.87L418.48,223.9L419.64,224.06L421.96,221.71L423.12,223.83L424.28,221.59L425.44,222.3L426.6,194.72L427.75,129.68L428.91,133.36L430.07,149.87L431.23,163.62L432.39,205.74L433.55,203.73L434.71,216.24L435.87,221.9L437.03,220.67L438.19,215.8L439.35,196.05L440.51,222.34L441.67,225.87L443.98,225.32L445.14,226.43L446.3,229.31L447.46,219.37L448.62,222.6L449.78,232.17L450.94,232.97L452.1,234.78L453.26,237.41L454.42,234.76L455.58,234.14L456.74,237.07L459.05,242.71L460.21,243.5L462.53,240.07L463.69,240.57L466.01,243.34L467.17,242.09L468.33,238.14L469.49,193.76L470.65,234.18L471.81,238.79L474.12,179.33L475.28,154.48L476.44,210.7L477.6,211.39L478.76,226.81L479.92,229.95L481.08,237.36L482.24,236.76L483.4,230.99L484.56,233.87L485.72,229.44L486.88,230.95L489.19,233L490.35,222.14L491.51,227.35L492.67,227.71L493.83,225.06L494.99,212.75L498.47,225.74L499.63,221.18L500.79,221.53L501.94,220.82L503.1,220.2L504.26,222.68L505.42,222.85L506.58,221.57L507.74,222.56L508.9,220.32L510.06,217.85L511.22,202.8L512.38,219.11L513.54,215.96L514.7,195.71L515.86,198.67L518.17,221.85L519.33,221.28L520.49,200.91L521.65,222.08L522.81,221.84L523.97,222.77L526.29,223.14L527.45,224.6L528.61,223.23L529.77,210.71L530.93,220.56L532.08,222.1L533.24,219.18L534.4,205.53L536.72,223.34L537.88,198.98L539.04,13L540.2,121.97L541.36,208.43L542.52,220.32L544.84,186.61L546,185.16L547.15,210.4L548.31,197.39L549.47,219.33L550.63,205.65L551.79,222.8L552.95,223.95L556.43,224.59L557.59,223.78L558.75,225.3L559.91,225.56L561.07,224.82L562.22,225.19L563.38,224.07L564.54,226.63L565.7,225.57L566.86,220.27L568.02,218.3L569.18,225.38L570.34,226.28L571.5,215.47L572.66,224.34L573.82,210.96L574.98,209.53L576.14,217.8L577.29,218.47L578.45,216.51L579.61,218.29L580.77,215.93L581.93,220.57L583.09,214.16L584.25,150.48L585.41,203.28L586.57,210.71L587.73,208.78L588.89,224.97L590.05,222.43L591.21,219.03L592.36,223.65L593.52,225.54L594.68,225.33L598.16,227.88L599.32,227.11L600.48,226.5L601.64,226.99L603.96,226.67L605.12,225.34L606.28,226.88L607.43,224.71L609.75,225.94L610.91,224.97L614.39,221.87L615.55,218.9L616.71,221.54L617.87,222.21L619.03,221.19L620.19,218.54L621.35,222.08L622.5,221.61L623.66,221.9L624.82,223.14L625.98,212.65L627.14,222.68L629.46,222.34L630.62,223.94L632.94,222.72L634.1,222.92L635.26,224.21L636.42,224.35L637.57,224.29L638.73,223.45L639.89,224.48L641.05,223.87L642.21,224.69L643.37,223.76L644.53,222.46L645.69,223.86L646.85,223.37L648.01,205.17L649.17,153.57L650.33,177.57L651.49,141.21L652.64,193.36L653.8,197.37L654.96,87.01L656.12,186.45L657.28,185.59L658.44,219.95L659.6,216.71L660.76,206.9L661.92,219.73L663.08,225.01L664.24,226.09L667.71,228.64L668.87,228.5L671.19,232.04L672.35,233.54L674.67,235.79L675.83,237.25L678.15,240.09L679.31,240.79L685.1,244.54L686.26,242.61L688.58,244.99L689.74,244.61L690.9,245.98L692.06,241.36L694.38,245.34L695.54,241.61L696.69,240.7L697.85,231.74L699.01,228.98L700.17,239.12L701.33,230.81L702.49,241.77L703.65,240.88L704.81,241.78L708.29,236.08L709.45,234.93L710.61,229.05L711.76,232.49L714.08,227.09L715.24,227.79L716.4,223.99L717.56,224.07L718.72,215.69L719.88,224.58L721.04,221.49L722.2,212.73L723.36,212.32L724.52,223.17L725.68,216.41L726.83,218.5L727.99,209.71L729.15,217.22L730.31,221.42L731.47,221.51L732.63,220.6L733.79,223.32L734.95,224.27L736.11,220.79L737.27,200.98L738.43,217.68L739.59,220.14L740.75,213.39L741.9,221.92L743.06,223.68L744.22,224.42L745.38,222.98L746.54,224.32L747.7,223.39L748.86,224.43L750.02,224.34L753.5,224.9L754.66,224.42L756.97,224.33L758.13,224.83L759.29,222.53L760.45,213.18L761.61,217.07L762.77,212.31L765.09,190.06L766.25,204.09L767.41,216.24L768.57,209.76L769.73,222.38L770.89,223.91L772.04,222.76L773.2,225.41L774.36,225.14L775.52,225.68L777.84,228.02L779,228.27" style="vector-effect: non-scaling-stroke; fill: none; stroke: rgb(76, 120, 168); stroke-opacity: 1; stroke-width: 3px; opacity: 1;"/></g><g class="points"/><g class="text"/></g><g class="trace scatter traced45204" style="stroke-miterlimit: 2; opacity: 1;"><g class="fills"/><g class="errorbars"/><g class="lines"><path class="js-line" d="M0,229.29L2.32,230.36L3.48,230.43L5.8,236.47L6.96,237.17L8.11,237.55L9.27,239.49L11.59,240.36L12.75,240.12L15.07,235.95L16.23,235.18L17.39,234.47L18.55,234.86L22.03,236.01L23.18,236.9L26.66,241.06L27.82,216.63L28.98,208.19L30.14,206.09L31.3,204.82L32.46,218.17L33.62,223.17L34.78,224.72L35.94,226.8L37.1,234.57L38.25,235.94L39.41,235.26L40.57,233.26L41.73,235.85L42.89,234.99L44.05,232.56L46.37,228.72L47.53,227.6L49.85,224.76L51.01,220.51L52.17,219.44L53.32,219.7L54.48,220.5L55.64,213.09L56.8,211.89L57.96,213.26L59.12,215.36L60.28,214.73L62.6,218.47L63.76,221.12L64.92,219.08L66.08,218.87L68.39,219.78L69.55,221.59L70.71,221.49L71.87,220.63L73.03,219.68L74.19,221.78L76.51,220.3L77.67,219.15L78.83,221L79.99,221.37L82.31,221.67L83.46,220.16L84.62,220.58L85.78,221.83L86.94,223.31L88.1,216.02L89.26,214.66L90.42,215.48L91.58,216.57L92.74,171.08L95.06,147.52L96.22,142.76L97.38,164.34L98.53,170.45L99.69,170.71L100.85,172.31L102.01,199.18L103.17,207.08L104.33,208.93L105.49,208.83L106.65,217.26L107.81,219.73L108.97,219.64L110.13,218.2L113.6,222.58L114.76,222.47L117.08,228.68L118.24,229.76L119.4,230.19L120.56,232.03L122.88,233.06L124.04,232.78L126.36,228.35L127.51,227.54L128.67,226.78L129.83,227.08L133.31,228.09L134.47,228.95L137.95,232.82L139.11,208.28L140.27,199.78L141.43,197.63L142.58,196.32L143.74,209.65L144.9,214.61L146.06,216.13L147.22,218.19L148.38,225.94L149.54,227.61L150.7,227.36L151.86,225.84L153.02,228.96L154.18,228.33L155.34,226.03L157.65,222.36L158.81,220.96L161.13,217.26L162.29,212.52L163.45,211.13L164.61,211.12L165.77,211.67L166.93,204.03L168.09,202.7L169.25,203.97L170.41,205.97L171.57,205.25L173.88,208.89L175.04,211.5L176.2,209.42L177.36,209.18L179.68,210.08L180.84,211.89L183.16,210.95L184.32,210.01L185.48,212.15L186.64,211.82L188.95,209.63L190.11,211.52L193.59,212.35L194.75,210.91L195.91,211.39L197.07,212.72L198.23,214.27L199.39,207.06L200.55,205.79L201.71,206.69L202.86,207.88L204.02,162.48L206.34,139.12L207.5,134.46L208.66,156.15L209.82,162.38L210.98,162.75L212.14,164.46L213.3,191.45L214.46,199.47L215.62,201.43L216.78,201.45L217.93,209.99L219.09,212.59L220.25,212.64L221.41,211.33L222.57,221.11L223.73,222L226.05,221.12L227.21,224.61L229.53,226.64L230.69,226.86L233,229.16L234.16,229.2L235.32,228.89L236.48,225.86L239.96,221.94L241.12,221.93L243.44,222.38L244.6,223.15L248.07,226.95L249.23,228.76L250.39,204.45L251.55,196.16L253.87,193.11L255.03,206.65L257.35,213.58L258.51,215.87L259.67,223.86L260.83,225.79L261.99,225.79L263.14,224.53L264.3,227.91L265.46,227.52L268.94,222.22L270.1,221.05L272.42,217.81L273.58,213.3L274.74,212.13L275.9,212.32L277.06,213.08L278.21,205.64L279.37,204.47L280.53,205.89L281.69,208.03L282.85,207.45L285.17,211.39L286.33,214.15L287.49,212.23L288.65,212.14L290.97,213.33L292.13,215.28L294.44,214.63L295.6,213.83L296.76,216.09L297.92,215.89L300.24,213.96L301.4,215.98L304.88,217.16L306.04,215.83L308.35,217.85L309.51,219.51L310.67,212.4L311.83,211.23L314.15,213.5L315.31,168.19L317.63,145L318.79,140.42L319.95,162.18L321.11,168.48L322.26,168.92L323.42,170.7L324.58,197.75L325.74,205.84L326.9,207.87L328.06,207.96L329.22,216.57L330.38,219.21L331.54,219.3L332.7,218.02L336.18,222.86L337.33,222.89L339.65,229.22L340.81,230.21L341.97,230.53L343.13,232.24L345.45,232.51L346.61,231.77L348.93,226.49L350.09,225.36L351.25,224.27L352.4,224.26L354.72,226.09L355.88,227.75L360.52,234.48L361.68,210.02L362.84,201.24L364,198.69L365.16,196.91L366.32,209.74L367.47,214.63L368.63,216.23L369.79,218.42L370.95,226.36L372.11,228.51L373.27,228.84L374.43,227.94L375.59,231.7L376.75,231.59L377.91,229.77L379.07,227.43L380.23,227.01L383.7,223.02L384.86,218.64L386.02,217.44L387.18,217.54L388.34,218.18L389.5,210.62L390.66,209.38L391.82,210.73L392.98,212.8L394.14,212.15L396.46,215.97L397.61,218.65L398.77,216.65L399.93,216.49L402.25,217.51L403.41,219.38L404.57,219.34L405.73,218.54L406.89,217.66L408.05,219.83L410.37,218.5L411.53,217.43L412.68,219.36L413.84,219.81L416.16,220.27L417.32,218.86L418.48,219.36L419.64,220.7L420.8,222.27L421.96,215.07L423.12,213.81L424.28,214.72L425.44,215.9L426.6,170.51L428.91,147.14L430.07,142.48L431.23,164.16L432.39,170.38L433.55,170.74L434.71,172.44L435.87,199.41L437.03,207.43L438.19,209.39L439.35,209.41L440.51,217.96L441.67,220.53L442.82,220.53L443.98,219.17L445.14,225.49L446.3,225.71L447.46,227.53L448.62,226.56L450.94,232.29L452.1,232.94L453.26,233.16L454.42,234.54L456.74,235.79L457.89,235.58L460.21,231.17L461.37,230.32L462.53,229.57L463.69,229.84L467.17,230.69L468.33,231.49L471.81,235.48L472.96,211L474.12,202.53L475.28,200.4L476.44,199.1L477.6,212.44L478.76,217.42L479.92,218.97L481.08,221.05L482.24,228.83L483.4,230.69L484.56,230.68L485.72,229.43L486.88,232.84L488.03,232.18L489.19,229.73L491.51,225.61L492.67,224.54L494.99,221.99L496.15,217.94L497.31,216.86L498.47,217.03L499.63,217.73L500.79,210.18L501.94,208.92L503.1,210.26L504.26,212.31L505.42,211.65L507.74,215.45L508.9,218.15L510.06,216.17L511.22,216.02L513.54,217.08L514.7,218.96L515.86,218.93L517.01,218.15L518.17,217.28L519.33,219.47L521.65,218.16L522.81,217.11L523.97,219.06L525.13,219.53L527.45,220.03L528.61,218.63L529.77,219.15L530.93,220.5L532.08,222.1L533.24,214.92L534.4,213.67L535.56,214.6L536.72,215.81L537.88,170.43L540.2,147.11L541.36,142.47L542.52,164.16L543.68,170.4L544.84,170.78L546,172.5L547.15,199.49L548.31,207.43L549.47,209.26L550.63,209.15L551.79,217.54L552.95,219.79L554.11,219.41L555.27,217.63L557.59,220.32L558.75,220.25L559.91,219.32L561.07,222.27L562.22,223.92L563.38,224.26L564.54,223.95L565.7,225.06L568.02,224.99L569.18,224.21L571.5,218.63L572.66,217.11L574.98,215.16L576.14,214.57L578.45,214L579.61,214.14L581.93,216.23L583.09,217.88L584.25,193.47L585.41,185.18L587.73,182.28L588.89,195.91L591.21,203.3L592.36,205.88L593.52,214.18L594.68,216.87L595.84,217.84L597,217.64L598.16,222.13L599.32,222.71L601.64,219.9L602.8,220.16L606.28,219.11L607.43,215.8L608.59,215.15L609.75,215.63L610.91,216.57L612.07,209.25L613.23,208.18L614.39,209.66L615.55,211.84L616.71,211.3L619.03,215.31L620.19,218.08L621.35,216.16L622.5,216.08L624.82,217.21L625.98,219.12L628.3,218.35L629.46,217.49L630.62,219.69L631.78,219.42L634.1,217.35L635.26,219.29L638.73,220.26L639.89,218.86L641.05,219.38L642.21,220.74L643.37,222.33L644.53,215.15L645.69,213.9L646.85,214.83L648.01,216.04L649.17,170.66L651.49,147.34L652.64,142.7L653.8,164.39L654.96,170.64L656.12,171.02L657.28,172.74L658.44,199.74L659.6,207.76L660.76,209.71L661.92,209.73L663.08,218.28L664.24,220.87L665.4,220.93L666.56,219.63L667.71,226.66L668.87,228.08L670.03,224.69L671.19,225.5L673.51,232.16L674.67,232.73L675.83,232.95L676.99,235.07L679.31,235.95L680.47,235.46L682.78,231.09L683.94,230.35L685.1,229.58L686.26,229.99L689.74,231.15L690.9,232.02L694.38,236.22L695.54,211.79L696.69,203.44L697.85,201.47L699.01,200.33L700.17,213.83L701.33,219.01L702.49,220.75L703.65,223.04L704.81,231.02L705.97,232.94L707.13,232.94L708.29,231.68L709.45,235.06L710.61,234.66L711.76,232.58L712.92,229.99L714.08,229.32L717.56,224.81L718.72,220.27L719.88,219.06L721.04,219.22L722.2,219.93L723.36,212.46L724.52,211.27L725.68,212.66L726.83,214.78L727.99,214.18L730.31,218.06L731.47,220.79L732.63,218.82L733.79,218.7L736.11,219.82L737.27,221.74L739.59,221.01L740.75,220.18L741.9,222.41L743.06,222.17L745.38,220.16L746.54,222.15L750.02,223.22L751.18,221.86L753.5,223.81L754.66,225.44L755.82,218.29L756.97,217.08L759.29,219.29L760.45,173.94L762.77,150.68L763.93,146.07L765.09,167.8L766.25,174.07L767.41,174.47L768.57,176.22L769.73,203.24L770.89,211.31L772.04,213.32L773.2,213.39L774.36,222L775.52,224.58L776.68,224.6L777.84,223.25L779,225.16" style="vector-effect: non-scaling-stroke; fill: none; stroke: rgb(255, 127, 14); stroke-opacity: 0.7; stroke-width: 3px; opacity: 1;"/></g><g class="points"/><g class="text"/></g></g></g><g class="overplot"/><path class="xlines-above crisp" d="M0,0" style="fill: none;"/><path class="ylines-above crisp" d="M70,50V310" style="fill: none; stroke-width: 2px; stroke: rgb(0, 0, 0); stroke-opacity: 1;"/><g class="overlines-above"/><g class="xaxislayer-above"><g class="xtick"><text text-anchor="middle" x="0" y="330" transform="translate(154.45999999999998,0)" style="font-family: 'Open Sans', verdana, arial, sans-serif; font-size: 19px; fill: rgb(42, 63, 95); fill-opacity: 1; white-space: pre; opacity: 1;"><tspan class="line" dy="0em" x="0" y="330">May 31</tspan><tspan class="line" dy="1.3em" x="0" y="330">2019</tspan></text></g><g class="xtick"><text text-anchor="middle" x="0" y="330" style="font-family: 'Open Sans', verdana, arial, sans-serif; font-size: 19px; fill: rgb(42, 63, 95); fill-opacity: 1; white-space: pre; opacity: 1;" transform="translate(265.75,0)">Jun 1</text></g><g class="xtick"><text text-anchor="middle" x="0" y="330" style="font-family: 'Open Sans', verdana, arial, sans-serif; font-size: 19px; fill: rgb(42, 63, 95); fill-opacity: 1; white-space: pre; opacity: 1;" transform="translate(377.04,0)">Jun 2</text></g><g class="xtick"><text text-anchor="middle" x="0" y="330" style="font-family: 'Open Sans', verdana, arial, sans-serif; font-size: 19px; fill: rgb(42, 63, 95); fill-opacity: 1; white-space: pre; opacity: 1;" transform="translate(488.32,0)">Jun 3</text></g><g class="xtick"><text text-anchor="middle" x="0" y="330" style="font-family: 'Open Sans', verdana, arial, sans-serif; font-size: 19px; fill: rgb(42, 63, 95); fill-opacity: 1; white-space: pre; opacity: 1;" transform="translate(599.61,0)">Jun 4</text></g><g class="xtick"><text text-anchor="middle" x="0" y="330" style="font-family: 'Open Sans', verdana, arial, sans-serif; font-size: 19px; fill: rgb(42, 63, 95); fill-opacity: 1; white-space: pre; opacity: 1;" transform="translate(710.89,0)">Jun 5</text></g><g class="xtick"><text text-anchor="middle" x="0" y="330" style="font-family: 'Open Sans', verdana, arial, sans-serif; font-size: 19px; fill: rgb(42, 63, 95); fill-opacity: 1; white-space: pre; opacity: 1;" transform="translate(822.18,0)">Jun 6</text></g></g><g class="yaxislayer-above"><g class="ytick"><text text-anchor="end" x="65.2" y="6.6499999999999995" transform="translate(0,275.19)" style="font-family: 'Open Sans', verdana, arial, sans-serif; font-size: 19px; fill: rgb(42, 63, 95); fill-opacity: 1; white-space: pre; opacity: 1;">0</text></g><g class="ytick"><text text-anchor="end" x="65.2" y="6.6499999999999995" style="font-family: 'Open Sans', verdana, arial, sans-serif; font-size: 19px; fill: rgb(42, 63, 95); fill-opacity: 1; white-space: pre; opacity: 1;" transform="translate(0,227.63)">5</text></g><g class="ytick"><text text-anchor="end" x="65.2" y="6.6499999999999995" style="font-family: 'Open Sans', verdana, arial, sans-serif; font-size: 19px; fill: rgb(42, 63, 95); fill-opacity: 1; white-space: pre; opacity: 1;" transform="translate(0,180.06)">10</text></g><g class="ytick"><text text-anchor="end" x="65.2" y="6.6499999999999995" style="font-family: 'Open Sans', verdana, arial, sans-serif; font-size: 19px; fill: rgb(42, 63, 95); fill-opacity: 1; white-space: pre; opacity: 1;" transform="translate(0,132.49)">15</text></g><g class="ytick"><text text-anchor="end" x="65.2" y="6.6499999999999995" style="font-family: 'Open Sans', verdana, arial, sans-serif; font-size: 19px; fill: rgb(42, 63, 95); fill-opacity: 1; white-space: pre; opacity: 1;" transform="translate(0,84.93)">20</text></g></g><g class="overaxes-above"/></g></g><g class="polarlayer"/><g class="ternarylayer"/><g class="geolayer"/><g class="funnelarealayer"/><g class="pielayer"/><g class="iciclelayer"/><g class="treemaplayer"/><g class="sunburstlayer"/><g class="glimages"/><defs id="topdefs-633452"><g class="clips"/></defs><g class="layer-above"><g class="imagelayer"/><g class="shapelayer"/></g><g class="infolayer"><g class="g-gtitle"/><g class="g-xtitle"/><g class="g-ytitle" transform="translate(13.068359375,0)"><text class="ytitle" transform="rotate(-90,9.931250000000006,180)" x="9.931250000000006" y="180" text-anchor="middle" style="font-family: 'Open Sans', verdana, arial, sans-serif; font-size: 23px; fill: rgb(42, 63, 95); opacity: 1; font-weight: normal; white-space: pre;">Netload [kW]</text></g></g></svg>