<svg class="main-svg" xmlns="http://www.w3.org/2000/svg" xmlns:xlink="http://www.w3.org/1999/xlink" width="900" height="400" viewBox="0 0 900 400"><rect x="0" y="0" width="900" height="400" style="fill: rgb(255, 255, 255); fill-opacity: 1;"/><defs id="defs-9f61fa"><g class="clips"><clipPath id="clip9f61faxyplot" class="plotclip"><rect width="775" height="260"/></clipPath><clipPath class="axesclip" id="clip9f61fax"><rect x="75" y="0" width="775" height="400"/></clipPath><clipPath class="axesclip" id="clip9f61fay"><rect x="0" y="50" width="900" height="260"/></clipPath><clipPath class="axesclip" id="clip9f61faxy"><rect x="75" y="50" width="775" height="260"/></clipPath></g><g class="gradients"/><g class="patterns"/></defs><g class="bglayer"/><g class="layer-below"><g class="imagelayer"/><g class="shapelayer"/></g><g class="cartesianlayer"><g class="subplot xy"><g class="layer-subplot"><g class="shapelayer"/><g class="imagelayer"/></g><g class="gridlayer"><g class="x"><path class="xgrid crisp" transform="translate(158.04000000000002,0)" d="M0,50v260" style="stroke: rgb(235, 240, 248); stroke-opacity: 1; stroke-width: 1px;"/><path class="xgrid crisp" transform="translate(268.75,0)" d="M0,50v260" style="stroke: rgb(235, 240, 248); stroke-opacity: 1; stroke-width: 1px;"/><path class="xgrid crisp" transform="translate(379.46,0)" d="M0,50v260" style="stroke: rgb(235, 240, 248); stroke-opacity: 1; stroke-width: 1px;"/><path class="xgrid crisp" transform="translate(490.18,0)" d="M0,50v260" style="stroke: rgb(235, 240, 248); stroke-opacity: 1; stroke-width: 1px;"/><path class="xgrid crisp" transform="translate(600.89,0)" d="M0,50v260" style="stroke: rgb(235, 240, 248); stroke-opacity: 1; stroke-width: 1px;"/><path class="xgrid crisp" transform="translate(711.61,0)" d="M0,50v260" style="stroke: rgb(235, 240, 248); stroke-opacity: 1; stroke-width: 1px;"/><path class="xgrid crisp" transform="translate(822.32,0)" d="M0,50v260" style="stroke: rgb(235, 240, 248); stroke-opacity: 1; stroke-width: 1px;"/></g><g class="y"><path class="ygrid crisp" transform="translate(0,284.98)" d="M75,0h775" style="stroke: rgb(235, 240, 248); stroke-opacity: 1; stroke-width: 1px;"/><path class="ygrid crisp" transform="translate(0,161.53)" d="M75,0h775" style="stroke: rgb(235, 240, 248); stroke-opacity: 1; stroke-width: 1px;"/><path class="ygrid crisp" transform="translate(0,99.8)" d="M75,0h775" style="stroke: rgb(235, 240, 248); stroke-opacity: 1; stroke-width: 1px;"/></g></g><g class="zerolinelayer"><path class="yzl zl crisp" transform="translate(0,223.25)" d="M75,0h775" style="stroke: rgb(0, 0, 0); stroke-opacity: 1; stroke-width: 2px;"/></g><path class="xlines-below"/><path class="ylines-below"/><g class="overlines-below"/><g class="xaxislayer-below"/><g class="yaxislayer-below"/><g class="overaxes-below"/><g class="plot" transform="translate(75,50)" clip-path="url(#clip9f61faxyplot)"><g class="scatterlayer mlayer"><g class="trace scatter trace95783a" style="stroke-miterlimit: 2; opacity: 1;"><g class="fills"/><g class="errorbars"/><g class="lines"><path class="js-line" d="M0,178.07L1.15,174.34L2.31,192.57L3.46,194.98L4.61,189.97L6.92,213.05L8.07,214.22L10.38,225.65L11.53,227.48L12.69,226.19L13.84,233.91L14.99,233.56L16.15,234.23L17.3,234.14L18.45,236.37L19.61,241.04L20.76,240.84L21.91,238.9L23.07,240.2L24.22,247L25.37,233.26L26.53,233.78L27.68,227.26L28.83,237.15L29.99,229.43L31.14,231.1L32.29,227.03L33.44,227.63L34.6,194.13L35.75,221.48L36.9,225.24L39.21,208.55L40.36,207.17L47.28,179.35L48.44,178.2L49.59,174.95L50.74,173.95L51.9,174.16L53.05,172.98L54.2,171.52L55.36,162.72L56.51,165.4L57.66,166.12L59.97,158.85L61.12,158.22L62.28,165.04L63.43,154.89L65.74,166.53L66.89,166.2L68.04,152.22L69.2,148.62L70.35,168.48L71.5,157.9L73.81,143.51L74.96,145.46L76.12,112.77L77.27,154.41L78.42,163.16L79.58,164.78L80.73,152.12L81.88,150.98L83.04,156.86L84.19,167.72L85.34,167.7L86.5,165.88L87.65,162.27L88.8,162.14L89.96,165.42L91.11,164.01L92.26,160.5L93.42,159.92L94.57,158.83L95.72,159.48L98.03,151.82L99.18,164.46L101.49,170.12L102.64,162.09L106.1,172.66L107.25,171.19L108.41,177.77L109.56,178.72L110.71,164.4L111.87,169.26L114.17,185.8L115.33,190.91L116.48,205.14L117.63,207.97L118.79,210.22L119.94,209.34L121.09,207.61L122.25,164.21L123.4,218L124.55,231.26L125.71,231.97L126.86,225.83L128.01,230.94L129.17,231.46L130.32,222.9L131.47,220.89L132.63,238.53L133.78,239.94L134.93,244.12L136.09,243.3L137.24,241.87L138.39,244.92L139.55,240.54L140.7,222.65L141.85,227.08L143.01,227.36L144.16,233.33L145.31,223.37L146.47,226.61L147.62,219.86L148.77,216.85L149.93,218.53L151.08,217.62L152.23,208.64L153.39,201.64L154.54,188.5L155.69,191.97L156.85,191.35L159.15,180.08L160.31,179.85L162.61,160.74L163.76,58.4L164.92,60.43L166.07,159.82L167.22,155.97L168.38,155.49L169.53,142.32L170.68,170.17L171.84,169.55L172.99,163.13L174.14,157.02L175.3,167.32L176.45,150.63L177.6,167.18L178.76,164.58L179.91,165.76L181.06,165.22L182.22,155.04L183.37,165.44L184.52,162.05L185.68,166.59L186.83,164.01L189.14,169.7L190.29,167.59L191.44,149.32L192.6,160.3L193.75,168.4L194.9,165.47L197.21,156.32L198.36,155.13L200.67,169.14L201.82,165.44L202.98,166.72L204.13,169.2L206.44,144.28L207.59,166.41L208.74,168.02L209.9,165.57L212.2,164.67L213.36,166.43L214.51,164.59L215.66,171.17L216.82,169.27L217.97,171.95L219.12,175.7L220.28,159.61L221.43,163.27L222.58,172.01L223.74,148.87L224.89,178.3L226.04,199.09L227.19,198.04L228.35,197.95L229.5,206.51L231.81,194.91L232.96,178.74L234.11,206.69L235.27,199.82L236.42,223.54L237.57,210.99L238.73,195.48L239.88,230.33L241.03,231.31L242.19,233.55L243.34,238.11L244.49,239.09L245.65,212.91L246.8,232.89L247.95,227.57L249.11,213.14L250.26,200.22L251.41,230.43L252.57,234.04L253.72,234.01L254.87,231.55L256.03,219.47L257.18,226.8L258.33,227.21L259.49,220.01L260.64,220.5L262.95,213.77L264.1,205.87L266.41,192.81L267.56,175.61L268.71,96.36L269.87,153.96L271.02,167.89L272.17,128.6L273.33,79L274.48,167.78L275.63,150.94L276.79,36.16L279.09,152.67L280.25,150.08L281.4,134.89L282.55,144.46L283.71,164.06L284.86,165.52L286.01,163.61L287.17,164.84L288.32,158.74L289.47,148.16L291.78,166.81L292.93,110.07L294.08,163.19L295.24,167.34L296.39,168.62L297.54,165.41L298.7,165.98L299.85,164.5L302.16,80.04L303.31,144.7L304.46,159.47L305.62,149.15L306.77,147.97L307.92,162.86L310.23,165.46L311.38,169.66L312.54,171.12L313.69,169.6L316,166.53L317.15,169.89L319.46,169.93L320.61,164L321.76,165.24L322.92,169.4L324.07,171.86L325.22,169.03L327.53,158.19L328.68,170.02L330.99,159.5L332.14,138.71L333.3,146.75L334.45,180.87L335.6,187.41L336.76,198.67L337.91,195.3L339.06,200.34L340.22,202.32L341.37,198.35L343.68,211.28L344.83,212.76L345.98,197.88L347.14,208.93L349.44,200.58L350.6,164.83L351.75,153.52L352.9,207.64L355.21,229.1L356.36,223.74L357.51,221.56L358.67,228.73L359.82,232.06L360.97,228.36L362.13,207.78L363.28,208.48L366.74,215.78L367.89,210.16L369.05,208.24L370.2,211.48L371.35,210.74L372.51,200.88L373.66,197L374.81,198.06L377.12,191.4L378.27,174.67L380.58,176.15L381.73,131.37L382.89,117.7L384.04,163.25L385.19,170.92L386.35,156.74L388.65,173.83L389.81,170.75L392.11,157.77L393.27,165.59L394.42,167.09L395.57,160.1L396.73,154.8L397.88,160L399.03,166.34L400.19,141.42L402.49,97.33L403.65,150.05L404.8,156.71L405.95,153.18L407.11,153.8L408.26,151.33L410.57,99.05L411.72,153.3L412.87,150.18L414.03,108.4L416.33,164.81L417.49,165.8L418.64,154.14L419.79,163.27L420.94,169.34L422.1,162.91L423.25,164.94L424.4,160.62L425.56,133.66L426.71,135.18L429.02,145.04L430.17,164.34L431.32,163.42L432.48,169.15L433.63,169.58L434.78,168.76L435.94,163.88L437.09,142.4L439.4,174.1L440.55,170.09L441.7,169.83L442.86,168.5L444.01,182.53L445.16,112.25L446.32,128.67L447.47,188.92L448.62,190.1L449.78,197.11L450.93,208.83L452.08,196.26L453.24,191.89L454.39,204.08L455.54,222.1L456.7,225.6L457.85,228.75L459,213.02L460.16,206.44L461.31,212.56L462.46,217.14L463.62,225.51L464.77,218.9L465.92,221.94L467.08,108.97L468.23,211.68L469.38,223.32L470.54,202.9L472.84,163.09L474,209.64L475.15,201.65L476.3,216.17L477.46,217.6L478.61,223.57L480.92,200.18L482.07,206.28L484.38,185.16L485.53,189.64L486.68,197.6L487.83,153.45L488.99,176.15L490.14,178.58L491.29,166.85L492.45,109.75L495.91,173.68L497.06,155.07L498.21,163.65L499.37,161.56L500.52,159.76L501.67,166.46L502.83,166.12L503.98,162.24L505.13,165.24L506.29,158.43L507.44,142L508.59,77.92L509.75,147.34L510.9,133.92L512.05,13L513.21,29.1L515.51,155.06L516.67,151.13L517.82,36.09L518.97,155.68L520.13,154.33L521.28,158.41L522.43,160.52L523.59,160.67L524.74,169.63L525.89,160.41L527.05,78.34L528.2,142.91L529.35,153.01L530.51,155.99L531.66,116.8L532.81,151.88L533.97,167.93L535.12,162.39L536.27,85.29L537.43,130.46L538.58,166.3L539.73,171.02L542.04,155.57L543.19,154.91L544.35,156.75L545.5,142.27L546.65,166.77L547.81,151.55L550.11,167.43L551.26,168.64L553.57,167.72L554.72,161.87L555.88,171.33L557.03,172.49L558.18,168.28L559.34,169.39L560.49,161.85L561.64,175.62L562.8,171.08L563.95,145.63L565.1,135.73L566.26,168.19L567.41,168.06L568.56,107.01L569.72,158.53L570.87,82.87L572.02,89.73L573.18,131.66L574.33,135.75L575.48,126.84L576.64,156.7L577.79,150.85L578.94,162.8L580.1,146.65L581.25,115.14L582.4,159.94L583.56,166.13L584.71,164.37L585.86,177.51L587.02,174.43L588.17,170.44L589.32,175L591.63,175.2L592.78,178.33L593.94,181.16L595.09,181.24L597.4,175.88L598.55,178.18L600.86,176.4L602.01,169.96L603.16,176.96L604.32,168.36L606.62,174.46L607.78,170.88L608.93,170.93L610.08,168.57L611.24,164.36L612.39,156.07L613.54,162.15L614.69,164.19L615.85,161.08L617,153.03L618.15,160L619.31,158L620.46,159.22L621.61,164.52L622.77,105.05L623.92,159.57L625.07,159.8L626.23,157.73L627.38,166.17L628.53,162.31L629.69,159.29L630.84,160.4L631.99,167.22L633.15,168.08L634.3,167.76L635.45,162.59L636.61,168.56L637.76,164.61L638.91,169.94L640.07,163.83L641.22,165.42L642.37,169.44L643.53,168.03L644.68,115.76L646.99,153.51L648.14,138.44L649.29,160.06L650.45,160.5L651.6,109.93L652.75,155.5L653.91,155.11L655.06,167.4L656.21,164.24L657.37,153.75L658.52,168.52L659.67,171.37L663.13,180.94L664.29,182.79L665.44,177.51L666.59,190.07L667.75,191.98L668.9,198.13L670.05,205.02L671.21,204.47L674.67,221L675.82,223.06L680.43,233.79L681.58,234.23L682.74,223.91L683.89,232.11L685.04,234.82L686.2,232.46L687.35,241.48L688.5,229.66L690.81,239.64L691.96,238.72L693.12,237.08L694.27,228.58L695.42,225.36L696.58,231.79L697.73,221.43L698.88,231.64L701.19,227.68L702.34,221.36L704.65,211.31L705.8,201.57L706.96,177.92L708.11,193.81L710.42,170.87L711.57,176.14L712.72,160.28L713.88,162.65L715.03,131.28L716.18,168.87L717.34,156.25L718.49,119.94L720.8,167.99L721.95,149.29L723.1,154.95L724.26,126.18L726.56,161.78L727.72,162.05L728.87,153.71L730.02,165.29L731.18,169.31L732.33,154.51L733.48,41.64L734.64,132.42L735.79,145.8L736.94,109.1L738.1,154.77L739.25,164.69L740.4,168.86L741.56,160.77L742.71,167.94L743.86,162.21L745.01,168.6L746.17,168.02L747.32,168.91L748.47,171.79L749.63,171.33L750.78,168.22L753.09,170.78L754.24,172.21L755.39,165.62L756.55,168.27L757.7,169.88L758.85,167.91L761.16,157.15L762.31,163.58L763.47,169.15L764.62,166.18L766.93,172.4L768.08,171.71L769.23,175.24L770.39,171.62L771.54,173.2L772.69,178.28L773.85,182.09L775,180.99" style="vector-effect: non-scaling-stroke; fill: none; stroke: rgb(76, 120, 168); stroke-opacity: 1; stroke-width: 3px; opacity: 1;"/></g><g class="points"/><g class="text"/></g><g class="trace scatter trace9e737b" style="stroke-miterlimit: 2; opacity: 1;"><g class="fills"/><g class="errorbars"/><g class="lines"><path class="js-line" d="M0,174.36L1.15,173.48L2.31,176.32L3.46,179.93L4.61,198.94L9.23,215.66L10.38,217.15L13.84,221.87L14.99,220.24L17.3,217.75L18.45,232.65L21.91,228.33L23.07,237.89L26.53,233.51L27.68,237.32L28.83,237.88L29.99,235.97L31.14,234.47L32.29,235.04L33.44,236.6L34.6,233.82L35.75,231.83L36.9,225.37L38.06,221.56L39.21,214.81L40.36,210.74L41.52,202.85L42.67,199.41L43.82,192.94L44.98,188.98L46.13,180.69L48.44,172.87L49.59,170.85L51.9,158.54L53.05,157.68L54.2,157.71L55.36,167.12L56.51,166.14L57.66,167.42L58.82,169.56L59.97,158.69L62.28,162.25L63.43,165.35L64.58,151.19L65.74,152.11L68.04,156.05L69.2,151.14L72.66,153.5L73.81,150.81L74.96,151.26L76.12,150.42L77.27,150.24L78.42,158.45L79.58,157.9L80.73,155.63L81.88,157.14L83.04,156.95L84.19,160.68L85.34,157.36L86.5,156.96L87.65,165.43L91.11,160.31L92.26,161.41L95.72,157.5L96.88,162.2L99.18,163.71L100.33,164.18L102.64,164.93L103.79,166.53L104.95,168.07L106.1,167.44L107.25,166.47L108.41,169.32L109.56,172.03L110.71,170.62L111.87,168.86L113.02,171.43L114.17,174.91L115.33,191.63L119.94,210.56L121.09,211.89L123.4,213.47L124.55,217.85L126.86,209.17L128.01,211.35L129.17,226.86L130.32,226.23L131.47,221.36L132.63,221.43L133.78,234.85L134.93,228.96L137.24,226.22L138.39,236.9L141.85,229.17L143.01,231.09L144.16,230.44L145.31,228.17L148.77,220.9L149.93,215.58L153.39,204.48L154.54,199.23L155.69,194.63L156.85,185.68L159.15,174.83L160.31,171.69L163.76,154.18L164.92,153.55L166.07,113.75L167.22,138.08L169.53,152.51L170.68,146.15L171.84,151.45L172.99,152.93L174.14,151.54L175.3,151.35L176.45,144.64L177.6,144.16L178.76,145.49L179.91,151.05L181.06,145.86L182.22,146.81L183.37,146.96L184.52,155.21L185.68,147.4L186.83,145.38L187.98,145.19L189.14,159.32L192.6,152.29L193.75,159.76L197.21,153.18L198.36,158.26L199.52,158.72L200.67,156.41L201.82,154.68L202.98,159.52L205.28,153.94L206.44,152.02L207.59,151.6L208.74,155.7L209.9,156.67L211.05,156.61L212.2,162.14L213.36,161.02L215.66,162.03L216.82,165.31L217.97,163.36L219.12,164.2L220.28,167.45L221.43,157.67L224.89,168.29L226.04,187.88L229.5,199.1L230.65,206.22L231.81,207.5L232.96,206.24L235.27,208.17L236.42,203.94L237.57,201.32L238.73,201.51L239.88,202.54L241.03,209.16L242.19,208.01L243.34,209.02L244.49,228.86L245.65,222.74L246.8,221.16L247.95,217.12L249.11,226.06L250.26,223.48L252.57,220.9L253.72,229.69L254.87,224.68L256.03,224.48L257.18,222.1L258.33,222.06L260.64,211.42L261.79,207.64L262.95,207.97L264.1,202.27L271.02,171.35L272.17,156.55L273.33,149.25L274.48,152.16L276.79,151.12L277.94,149.84L279.09,158L280.25,160.24L281.4,141.1L282.55,142.76L284.86,155.93L286.01,145.83L287.17,142.51L288.32,145.84L289.47,145.13L290.63,143.35L291.78,143.02L292.93,143.51L294.08,144.84L295.24,156.63L297.54,144.15L298.7,146.13L299.85,159.37L301,159.33L302.16,153.56L303.31,153.45L304.46,156.3L305.62,152.02L306.77,150.95L307.92,153.31L309.08,162.35L310.23,161.64L311.38,156.53L312.54,156.79L313.69,163.51L314.84,157L317.15,153.48L318.3,164.92L319.46,162.45L320.61,162.23L321.76,162.34L322.92,164.02L325.22,165.03L326.38,166.92L327.53,163.72L328.68,165.79L330.99,170.94L332.14,160.57L335.6,172.16L336.76,189.55L339.06,198.33L340.22,200.6L341.37,203.82L342.52,202.41L343.68,202.74L344.83,200.68L345.98,203.63L347.14,198.41L349.44,193.29L350.6,200.9L354.06,209.62L355.21,217.9L357.51,220.72L358.67,219.59L359.82,228L360.97,221.44L362.13,218.94L363.28,214.45L364.43,212.23L365.59,212.89L367.89,209.29L369.05,207.97L370.2,207.03L371.35,204.7L377.12,191.68L378.27,184.96L381.73,174.24L382.89,141.25L384.04,150.52L385.19,152.64L386.35,152.78L387.5,156.61L389.81,164.08L390.96,165.36L392.11,157.2L393.27,157.83L395.57,160.47L396.73,152.02L397.88,150.74L399.03,151.63L400.19,154.02L401.34,143.41L403.65,150.62L404.8,150.97L407.11,146.14L408.26,148.92L409.41,148.28L410.57,143.61L412.87,152.44L414.03,151.57L415.18,131.02L416.33,148.69L417.49,151.34L418.64,151.52L420.94,160.53L422.1,161.21L423.25,155.96L424.4,162.24L427.86,155.6L429.02,153.06L431.32,159.87L432.48,161.71L433.63,167.35L434.78,166.16L435.94,166.59L437.09,168.86L438.24,152.14L439.4,161.52L441.7,168.91L442.86,167.05L444.01,167.8L445.16,171.71L446.32,174.76L447.47,167.92L448.62,187.64L449.78,192.44L452.08,210.46L453.24,213.17L455.54,212.04L456.7,218.38L457.85,212.28L459,210.27L460.16,211.16L461.31,214.47L462.46,218.34L463.62,218.65L464.77,218.61L465.92,222.63L467.08,225.09L468.23,224.99L469.38,223.26L470.54,224.12L471.69,220.22L472.84,226.49L474,222.29L475.15,225.63L476.3,218.35L477.46,218.57L478.61,221.31L479.76,215.21L480.92,214.8L482.07,208.67L483.22,206.78L484.38,197.07L485.53,195.86L486.68,193.08L487.83,187.63L488.99,161.62L490.14,168.21L491.29,170.39L492.45,168.77L493.6,132.53L495.91,152.24L497.06,150.02L499.37,160.52L500.52,164.71L501.67,164.17L502.83,160.7L503.98,157.56L505.13,159.26L506.29,161.82L507.44,151.46L508.59,150.7L509.75,151.85L510.9,154.39L512.05,137.99L513.21,141.66L514.36,149.39L515.51,149.58L516.67,146.59L517.82,140.54L518.97,144.35L520.13,149.81L521.28,146.33L522.43,143.61L523.59,151.98L524.74,146.82L525.89,167.72L527.05,154.74L528.2,155.6L529.35,155.7L530.51,153.03L532.81,158.43L533.97,156.53L535.12,166.24L536.27,156.17L537.43,158.23L538.58,157.44L539.73,164.11L540.89,157.73L543.19,162.01L544.35,161.33L545.5,160.76L546.65,162.42L547.81,165.43L548.96,153.88L551.26,162.7L552.42,163.38L553.57,161.95L554.72,157.4L555.88,158.27L557.03,157.68L558.18,172.89L559.34,174.39L561.64,175.44L562.8,177.14L565.1,174.97L566.26,175.03L569.72,162.24L570.87,160.62L572.02,122.35L573.18,144.47L574.33,151.65L575.48,148.12L576.64,145.26L577.79,148.87L578.94,154.89L580.1,153.41L581.25,152.22L582.4,158.76L583.56,159.05L584.71,155.88L585.86,164.48L587.02,165.14L588.17,164.22L589.32,165.67L590.48,167.67L591.63,166.25L592.78,166.35L593.94,165.16L595.09,175.19L596.24,170.83L597.4,168.46L598.55,168.06L599.7,168.93L600.86,164.19L602.01,163.39L603.16,163.97L604.32,164.24L605.47,157.47L606.62,155.24L607.78,155.61L608.93,164.29L610.08,163.57L611.24,164.31L612.39,166.73L613.54,154.79L614.69,156.41L617,162.12L618.15,150.11L619.31,150.63L620.46,152.46L622.77,156.54L623.92,152.77L626.23,153.03L627.38,149.92L628.53,150.72L629.69,148L630.84,150.62L631.99,156.8L634.3,157.62L635.45,154.46L636.61,163.09L637.76,161.6L640.07,158.1L641.22,164.6L643.53,163.15L644.68,160.82L645.83,137.65L646.99,151.15L648.14,154.34L649.29,152.83L650.45,164.34L651.6,162.87L652.75,164.18L653.91,163.19L655.06,157.59L656.21,160.47L659.67,168.86L660.83,163.73L663.13,171.6L664.29,170.35L665.44,169.67L666.59,170.53L667.75,174.13L668.9,194.76L672.36,204.65L673.51,211.21L675.82,212.1L676.97,212.6L678.13,217.79L679.28,213.93L681.58,210.62L682.74,228.6L685.04,222.69L686.2,221.11L687.35,229.6L688.5,228.26L690.81,225.32L691.96,235.27L694.27,230.12L695.42,227.45L696.58,230.04L697.73,230.03L701.19,224.93L702.34,221.07L705.8,210.02L706.96,205.75L709.26,197.97L710.42,182.26L712.72,178.74L713.88,175.24L715.03,159.95L716.18,156.85L717.34,156.39L718.49,157.56L719.64,138.14L720.8,155.47L723.1,163.32L724.26,154.13L727.72,161.03L728.87,151.64L730.02,152.1L731.18,151.35L732.33,154.86L733.48,149.44L734.64,150.18L735.79,152.17L736.94,152.56L738.1,122.26L739.25,140.47L740.4,143.01L741.56,147.89L742.71,156.45L745.01,160.57L746.17,153.28L747.32,166.4L748.47,162.74L750.78,158.97L751.93,167.88L755.39,164.06L756.55,164.2L758.85,162.32L760.01,160.68L761.16,165.63L762.31,167.14L764.62,167.6L765.77,166.59L769.23,172.09L770.39,171.93L771.54,171.7L772.69,173.95L773.85,176.42L775,174.01" style="vector-effect: non-scaling-stroke; fill: none; stroke: rgb(255, 127, 14); stroke-opacity: 0.7; stroke-width: 3px; opacity: 1;"/></g><g class="points"/><g class="text"/></g></g></g><g class="overplot"/><path class="xlines-above crisp" d="M0,0" style="fill: none;"/><path class="ylines-above crisp" d="M74,50V310" style="fill: none; stroke-width: 2px; stroke: rgb(0, 0, 0); stroke-opacity: 1;"/><g class="overlines-above"/><g class="xaxislayer-above"><g class="xtick"><text text-anchor="middle" x="0" y="330" transform="translate(158.04000000000002,0)" style="font-family: 'Open Sans', verdana, arial, sans-serif; font-size: 19px; fill: rgb(42, 63, 95); fill-opacity: 1; white-space: pre; opacity: 1;"><tspan class="line" dy="0em" x="0" y="330">May 31</tspan><tspan class="line" dy="1.3em" x="0" y="330">2019</tspan></text></g><g class="xtick"><text text-anchor="middle" x="0" y="330" style="font-family: 'Open Sans', verdana, arial, sans-serif; font-size: 19px; fill: rgb(42, 63, 95); fill-opacity: 1; white-space: pre; opacity: 1;" transform="translate(268.75,0)">Jun 1</text></g><g class="xtick"><text text-anchor="middle" x="0" y="330" style="font-family: 'Open Sans', verdana, arial, sans-serif; font-size: 19px; fill: rgb(42, 63, 95); fill-opacity: 1; white-space: pre; opacity: 1;" transform="translate(379.46,0)">Jun 2</text></g><g class="xtick"><text text-anchor="middle" x="0" y="330" style="font-family: 'Open Sans', verdana, arial, sans-serif; font-size: 19px; fill: rgb(42, 63, 95); fill-opacity: 1; white-space: pre; opacity: 1;" transform="translate(490.18,0)">Jun 3</text></g><g class="xtick"><text text-anchor="middle" x="0" y="330" style="font-family: 'Open Sans', verdana, arial, sans-serif; font-size: 19px; fill: rgb(42, 63, 95); fill-opacity: 1; white-space: pre; opacity: 1;" transform="translate(600.89,0)">Jun 4</text></g><g class="xtick"><text text-anchor="middle" x="0" y="330" style="font-family: 'Open Sans', verdana, arial, sans-serif; font-size: 19px; fill: rgb(42, 63, 95); fill-opacity: 1; white-space: pre; opacity: 1;" transform="translate(711.61,0)">Jun 5</text></g><g class="xtick"><text text-anchor="middle" x="0" y="330" style="font-family: 'Open Sans', verdana, arial, sans-serif; font-size: 19px; fill: rgb(42, 63, 95); fill-opacity: 1; white-space: pre; opacity: 1;" transform="translate(822.32,0)">Jun 6</text></g></g><g class="yaxislayer-above"><g class="ytick"><text text-anchor="end" x="69.2" y="6.6499999999999995" transform="translate(0,284.98)" style="font-family: 'Open Sans', verdana, arial, sans-serif; font-size: 19px; fill: rgb(42, 63, 95); fill-opacity: 1; white-space: pre; opacity: 1;">−2</text></g><g class="ytick"><text text-anchor="end" x="69.2" y="6.6499999999999995" style="font-family: 'Open Sans', verdana, arial, sans-serif; font-size: 19px; fill: rgb(42, 63, 95); fill-opacity: 1; white-space: pre; opacity: 1;" transform="translate(0,223.25)">0</text></g><g class="ytick"><text text-anchor="end" x="69.2" y="6.6499999999999995" style="font-family: 'Open Sans', verdana, arial, sans-serif; font-size: 19px; fill: rgb(42, 63, 95); fill-opacity: 1; white-space: pre; opacity: 1;" transform="translate(0,161.53)">2</text></g><g class="ytick"><text text-anchor="end" x="69.2" y="6.6499999999999995" style="font-family: 'Open Sans', verdana, arial, sans-serif; font-size: 19px; fill: rgb(42, 63, 95); fill-opacity: 1; white-space: pre; opacity: 1;" transform="translate(0,99.8)">4</text></g></g><g class="overaxes-above"/></g></g><g class="polarlayer"/><g class="ternarylayer"/><g class="geolayer"/><g class="funnelarealayer"/><g class="pielayer"/><g class="iciclelayer"/><g class="treemaplayer"/><g class="sunburstlayer"/><g class="glimages"/><defs id="topdefs-9f61fa"><g class="clips"/></defs><g class="layer-above"><g class="imagelayer"/><g class="shapelayer"/></g><g class="infolayer"><g class="g-gtitle"/><g class="g-xtitle"/><g class="g-ytitle" transform="translate(12.537109375,0)"><text class="ytitle" transform="rotate(-90,10.462500000000006,180)" x="10.462500000000006" y="180" text-anchor="middle" style="font-family: 'Open Sans', verdana, arial, sans-serif; font-size: 23px; fill: rgb(42, 63, 95); opacity: 1; font-weight: normal; white-space: pre;">Netload [kW]</text></g></g></svg>