<svg class="main-svg" xmlns="http://www.w3.org/2000/svg" xmlns:xlink="http://www.w3.org/1999/xlink" width="900" height="400" viewBox="0 0 900 400"><rect x="0" y="0" width="900" height="400" style="fill: rgb(255, 255, 255); fill-opacity: 1;"/><defs id="defs-f86ebe"><g class="clips"><clipPath id="clipf86ebexyplot" class="plotclip"><rect width="775" height="260"/></clipPath><clipPath class="axesclip" id="clipf86ebex"><rect x="75" y="0" width="775" height="400"/></clipPath><clipPath class="axesclip" id="clipf86ebey"><rect x="0" y="50" width="900" height="260"/></clipPath><clipPath class="axesclip" id="clipf86ebexy"><rect x="75" y="50" width="775" height="260"/></clipPath></g><g class="gradients"/><g class="patterns"/></defs><g class="bglayer"/><g class="layer-below"><g class="imagelayer"/><g class="shapelayer"/></g><g class="cartesianlayer"><g class="subplot xy"><g class="layer-subplot"><g class="shapelayer"/><g class="imagelayer"/></g><g class="gridlayer"><g class="x"><path class="xgrid crisp" transform="translate(158.04000000000002,0)" d="M0,50v260" style="stroke: rgb(235, 240, 248); stroke-opacity: 1; stroke-width: 1px;"/><path class="xgrid crisp" transform="translate(268.75,0)" d="M0,50v260" style="stroke: rgb(235, 240, 248); stroke-opacity: 1; stroke-width: 1px;"/><path class="xgrid crisp" transform="translate(379.46,0)" d="M0,50v260" style="stroke: rgb(235, 240, 248); stroke-opacity: 1; stroke-width: 1px;"/><path class="xgrid crisp" transform="translate(490.18,0)" d="M0,50v260" style="stroke: rgb(235, 240, 248); stroke-opacity: 1; stroke-width: 1px;"/><path class="xgrid crisp" transform="translate(600.89,0)" d="M0,50v260" style="stroke: rgb(235, 240, 248); stroke-opacity: 1; stroke-width: 1px;"/><path class="xgrid crisp" transform="translate(711.61,0)" d="M0,50v260" style="stroke: rgb(235, 240, 248); stroke-opacity: 1; stroke-width: 1px;"/><path class="xgrid crisp" transform="translate(822.32,0)" d="M0,50v260" style="stroke: rgb(235, 240, 248); stroke-opacity: 1; stroke-width: 1px;"/></g><g class="y"><path class="ygrid crisp" transform="translate(0,288.21000000000004)" d="M75,0h775" style="stroke: rgb(235, 240, 248); stroke-opacity: 1; stroke-width: 1px;"/><path class="ygrid crisp" transform="translate(0,153.95999999999998)" d="M75,0h775" style="stroke: rgb(235, 240, 248); stroke-opacity: 1; stroke-width: 1px;"/><path class="ygrid crisp" transform="translate(0,86.83)" d="M75,0h775" style="stroke: rgb(235, 240, 248); stroke-opacity: 1; stroke-width: 1px;"/></g></g><g class="zerolinelayer"><path class="yzl zl crisp" transform="translate(0,221.08)" d="M75,0h775" style="stroke: rgb(0, 0, 0); stroke-opacity: 1; stroke-width: 2px;"/></g><path class="xlines-below"/><path class="ylines-below"/><g class="overlines-below"/><g class="xaxislayer-below"/><g class="yaxislayer-below"/><g class="overaxes-below"/><g class="plot" transform="translate(75,50)" clip-path="url(#clipf86ebexyplot)"><g class="scatterlayer mlayer"><g class="trace scatter trace26316a" style="stroke-miterlimit: 2; opacity: 1;"><g class="fills"/><g class="errorbars"/><g class="lines"><path class="js-line" d="M0,123.58L2.31,163.76L3.46,159.15L4.61,99.9L5.77,189.45L8.07,212.77L9.23,204.74L10.38,211.05L11.53,204.78L13.84,216.61L14.99,212.42L16.15,218.79L17.3,239.62L18.45,228.32L19.61,230.56L20.76,219.89L21.91,232.38L23.07,243.98L24.22,241.64L26.53,245.37L27.68,216.34L29.99,243.45L31.14,231.22L32.29,228.1L33.44,231.71L34.6,226.04L35.75,227.73L40.36,207.73L41.52,194.97L43.82,185.37L44.98,184.67L46.13,182.82L47.28,179.46L49.59,170.45L50.74,162.98L51.9,166.11L53.05,161.33L54.2,162.17L55.36,164.97L56.51,154.13L57.66,151.45L58.82,148.61L59.97,151.66L61.12,150.85L62.28,147.26L63.43,135.69L64.58,152.31L65.74,151.41L66.89,146.57L68.04,148.03L69.2,152.51L70.35,144.51L71.5,154.39L72.66,155.3L73.81,147.24L74.96,141.6L76.12,144.91L78.42,162.69L79.58,158.05L80.73,159.03L81.88,152.92L84.19,161.69L85.34,162.71L86.5,159.29L87.65,162.11L88.8,147.53L89.96,163.99L94.57,165.67L95.72,162.46L96.88,163.37L98.03,165.46L99.18,165.76L100.33,161.36L101.49,160.4L102.64,167.54L103.79,168.24L104.95,172.01L106.1,169.33L107.25,171.48L108.41,171.78L109.56,173.91L110.71,155.39L111.87,161.71L114.17,185.42L115.33,197.61L116.48,199.36L117.63,197.39L118.79,198.5L119.94,210.53L121.09,218.9L122.25,212.54L124.55,226.11L125.71,225.57L126.86,217.19L128.01,223.65L130.32,229.33L131.47,214.21L133.78,244.74L134.93,245.74L136.09,236.93L137.24,238.63L138.39,232.98L139.55,247L141.85,226.43L143.01,218.29L145.31,221.63L146.47,217.7L147.62,218.49L148.77,215.53L151.08,214.17L152.23,211.29L154.54,187.25L155.69,187.55L156.85,188.13L158,186.21L159.15,184.8L160.31,179.46L161.46,174.3L162.61,163.79L164.92,173.13L166.07,166.19L167.22,156.77L168.38,153.51L169.53,147.63L170.68,146.55L172.99,160.27L174.14,162.81L177.6,130.05L178.76,123.29L179.91,139.99L181.06,141.7L182.22,134.26L183.37,81.76L184.52,81.52L185.68,132.19L186.83,131.29L187.98,87.16L190.29,150.01L191.44,154.22L192.6,159.32L193.75,160.32L194.9,157.22L196.06,158.94L197.21,163.4L198.36,160.76L199.52,166.98L200.67,166.15L201.82,168.49L202.98,163.97L205.28,168.54L206.44,165.36L208.74,157.81L209.9,156.9L211.05,163.18L212.2,159.2L213.36,160.98L214.51,166.61L215.66,162.96L216.82,162.47L217.97,164.03L219.12,173.39L220.28,175.95L221.43,173.34L222.58,171.26L223.74,172.02L224.89,184.46L226.04,181.64L227.19,109.58L228.35,173.57L230.65,214.2L231.81,216.54L232.96,214.64L234.11,214.85L235.27,220.29L236.42,212.23L237.57,218.04L238.73,179.11L239.88,188.73L241.03,179.1L242.19,209.88L243.34,197.34L244.49,226.36L245.65,223.52L246.8,235.5L247.95,234.33L250.26,202.51L251.41,205.56L253.72,230.32L254.87,215.04L256.03,214.57L257.18,207.51L259.49,215.4L260.64,205.23L261.79,210.92L262.95,209.55L268.71,185.74L269.87,186.01L271.02,180.68L272.17,170.08L273.33,163.04L274.48,161.04L275.63,166.94L276.79,163.9L277.94,153.1L279.09,150L280.25,150.71L281.4,150.32L282.55,158.71L283.71,160.77L284.86,140.64L286.01,143.07L287.17,144.2L288.32,150.11L289.47,151.89L290.63,135.67L291.78,133.86L292.93,134.33L295.24,147L296.39,143.53L297.54,143.9L298.7,142.94L301,168.5L302.16,165.6L303.31,160.21L304.46,159.31L305.62,162.52L306.77,160.47L307.92,161.74L309.08,165.61L310.23,168.47L311.38,168.3L312.54,166.57L313.69,160.87L314.84,166.12L316,161.81L319.46,151.66L320.61,153.56L321.76,145.92L322.92,159.4L324.07,162.53L325.22,162.45L326.38,153.22L327.53,162.33L328.68,158.02L329.84,167.62L330.99,176.51L332.14,172.56L333.3,176.54L334.45,174.3L335.6,178.23L336.76,195.27L337.91,188.26L339.06,188.72L340.22,185.16L341.37,204.75L342.52,203.24L343.68,204.05L344.83,214.87L345.98,213.86L348.29,195.28L349.44,196.18L350.6,197.2L351.75,208.83L352.9,212.93L354.06,231.14L355.21,236.03L356.36,232.48L357.51,233.97L358.67,238.62L359.82,229.56L360.97,207.45L362.13,204.53L363.28,198L364.43,196L365.59,198.2L366.74,201.99L367.89,194.91L369.05,192.06L370.2,195.45L372.51,206.35L373.66,193.55L374.81,200.37L375.97,198.21L377.12,197.85L378.27,191.48L379.43,187.7L380.58,180.95L381.73,176.07L382.89,166.24L384.04,164.69L385.19,165.2L387.5,169.89L388.65,164.11L392.11,149.56L393.27,134.07L394.42,133.89L395.57,28.47L396.73,114.02L397.88,139.31L399.03,132.83L400.19,13L401.34,117.52L402.49,145.25L403.65,161.28L404.8,160.47L405.95,147.59L407.11,152.77L408.26,159.04L409.41,134.26L410.57,158.89L411.72,156.68L412.87,153.84L414.03,155.46L415.18,157.25L416.33,169.29L417.49,168.79L418.64,160.15L419.79,158.29L420.94,163.33L422.1,162.01L423.25,163.84L424.4,158.77L425.56,158.17L426.71,163.37L427.86,160.98L429.02,162.32L430.17,161.98L431.32,156.66L432.48,158.55L434.78,167.92L435.94,167.81L437.09,165.98L438.24,167.19L441.7,170.92L442.86,164.69L444.01,164.68L445.16,168.85L446.32,194.47L447.47,198.02L448.62,197.11L449.78,173.63L450.93,174.33L452.08,204L453.24,202.47L454.39,213.7L455.54,216.91L456.7,213.5L460.16,232.84L461.31,232.84L462.46,225.14L463.62,231.87L464.77,243.23L465.92,235.87L467.08,236.25L468.23,232.83L469.38,230.92L470.54,221.67L472.84,232.52L474,232L475.15,217.19L476.3,218.71L477.46,230.41L478.61,225.8L479.76,213.35L480.92,165.23L483.22,199.48L484.38,203.88L485.53,201.05L486.68,189.84L487.83,174.42L488.99,177.99L490.14,175.99L491.29,180.36L493.6,172.72L494.75,158.63L495.91,160.34L497.06,158.76L498.21,164.89L499.37,155.3L500.52,103.43L501.67,92.66L502.83,140.89L503.98,155.4L506.29,129.82L507.44,122.64L508.59,145.07L509.75,61.94L510.9,129.24L512.05,134.22L513.21,149.32L514.36,153.26L515.51,154.83L516.67,148.04L517.82,158.46L518.97,151.88L520.13,150.17L521.28,151.54L522.43,107.17L523.59,147.84L524.74,151.53L525.89,160.09L528.2,165.13L529.35,161.26L530.51,161.58L531.66,157.85L533.97,164.92L535.12,165.69L537.43,158.1L538.58,137.05L540.89,157.47L542.04,159.98L544.35,157.05L545.5,160.49L546.65,158.55L547.81,159.42L550.11,161.42L551.26,160.51L552.42,156.67L553.57,143.46L557.03,153.47L558.18,156.59L559.34,154.86L560.49,150.37L561.64,165.18L562.8,166.37L563.95,163.85L565.1,178.46L568.56,168.87L569.72,140.28L570.87,165.89L572.02,124.11L573.18,163.31L574.33,175.84L576.64,164.9L577.79,162.83L578.94,162.1L580.1,164.79L582.4,155.52L583.56,154.05L584.71,146.32L585.86,145.16L587.02,102.49L588.17,149.43L589.32,164.25L590.48,165.18L591.63,163L592.78,154.27L593.94,150.72L595.09,169.37L596.24,164.34L597.4,167.36L598.55,169.63L599.7,170.14L600.86,166.31L602.01,173.94L604.32,172.63L605.47,175.27L606.62,162.06L607.78,164.27L608.93,158.36L610.08,162.16L611.24,157.78L612.39,149.82L613.54,129.41L614.69,149.45L615.85,156.74L617,152.11L618.15,156.45L619.31,143.79L620.46,102.62L621.61,132.34L622.77,160.92L623.92,158.62L625.07,147.92L626.23,152.23L627.38,141.31L628.53,144.98L629.69,153.85L630.84,148.21L633.15,160.75L634.3,159.72L636.61,163.24L637.76,147.49L640.07,161.16L641.22,156.9L642.37,157.15L643.53,153.46L644.68,153.36L645.83,159.07L646.99,154.98L648.14,157.99L649.29,159.57L650.45,154.83L651.6,153.07L652.75,159.32L655.06,166.32L656.21,162.17L657.37,160.83L658.52,163.66L659.67,165.38L660.83,174.12L663.13,168.31L664.29,157.31L665.44,175.11L666.59,179.43L667.75,189.1L668.9,185.84L670.05,185.08L671.21,193.13L672.36,205.69L673.51,208.9L674.67,217.92L675.82,215.83L676.97,225.93L678.13,228.87L680.43,229.03L681.58,216.71L682.74,218.34L683.89,228.18L685.04,229.91L686.2,235.52L687.35,233.73L688.5,241.91L689.66,244.92L690.81,241.36L691.96,231.44L693.12,228.77L694.27,232.56L695.42,232.98L697.73,207.78L698.88,208.45L700.04,224.39L701.19,224.39L702.34,211.61L703.5,210.53L704.65,212.18L705.8,210.29L706.96,210.97L708.11,206.72L710.42,195.57L711.57,188.94L715.03,165.34L716.18,164.74L717.34,162.33L718.49,161.87L719.64,164.37L720.8,150.29L721.95,156.98L723.1,153.05L726.56,138.01L727.72,149.11L728.87,103.06L730.02,146.73L733.48,167.84L734.64,154.74L735.79,146.59L736.94,145.2L738.1,140.95L739.25,153.33L740.4,159.58L741.56,146.73L742.71,129.78L743.86,148.3L746.17,142.19L747.32,132.06L748.47,158.57L749.63,159.05L751.93,150.08L753.09,161.71L754.24,162.46L755.39,160.34L756.55,164.03L757.7,163.87L758.85,162.05L760.01,158.28L761.16,165.75L762.31,165.23L763.47,151.58L764.62,155.92L765.77,161.03L766.93,160.24L769.23,164.57L770.39,161.63L772.69,172.19L773.85,173.53L775,172.4" style="vector-effect: non-scaling-stroke; fill: none; stroke: rgb(76, 120, 168); stroke-opacity: 1; stroke-width: 3px; opacity: 1;"/></g><g class="points"/><g class="text"/></g><g class="trace scatter trace508728" style="stroke-miterlimit: 2; opacity: 1;"><g class="fills"/><g class="errorbars"/><g class="lines"><path class="js-line" d="M0,162.49L3.46,177.71L4.61,176.45L9.23,208.04L10.38,204.43L12.69,216.42L13.84,220.08L14.99,220.35L16.15,224.86L17.3,223.27L18.45,238.94L20.76,236.14L21.91,234.75L23.07,239.5L24.22,240.82L26.53,238.23L27.68,236.23L29.99,227.9L31.14,224.04L32.29,230.57L33.44,227.04L36.9,221.97L38.06,213.78L40.36,199.46L41.52,198.2L44.98,177.57L46.13,179.63L49.59,165.6L50.74,163.95L53.05,157.05L54.2,154.55L55.36,155.9L56.51,152.69L58.82,151.63L59.97,144.36L61.12,143.31L62.28,143.93L63.43,145.35L64.58,139.61L68.04,151.61L69.2,144.94L71.5,149.7L72.66,152.78L73.81,148.78L74.96,147.66L76.12,147.35L77.27,149.24L78.42,160.13L79.58,160.2L80.73,158.88L81.88,158.99L83.04,159.91L84.19,162.69L85.34,162.24L86.5,160.14L88.8,161.36L89.96,161.11L91.11,160.09L92.26,163.56L94.57,160L95.72,159.87L96.88,162.56L98.03,162.73L99.18,161.45L100.33,161.59L101.49,161.69L102.64,163.43L106.1,167.83L107.25,167.54L109.56,172.18L110.71,168.68L111.87,168.92L113.02,172.17L114.17,176.58L115.33,189.03L116.48,191.85L117.63,196.73L118.79,202.57L119.94,203.92L125.71,222.62L126.86,224.69L129.17,229.04L130.32,231.89L131.47,233L132.63,232.97L134.93,239.29L136.09,239.49L137.24,237.44L138.39,232.26L141.85,223.1L143.01,228.67L145.31,227.27L146.47,224.56L148.77,213.57L149.93,210.62L151.08,206.3L152.23,207.84L155.69,189.24L156.85,188.3L158,185.19L159.15,179L161.46,169.81L162.61,164.57L164.92,157.82L166.07,161.49L168.38,152.46L169.53,152.5L170.68,144.43L171.84,143.77L172.99,143.83L174.14,145.49L175.3,151.04L176.45,148.24L177.6,150.17L178.76,153.65L179.91,135.73L181.06,142.49L183.37,149.65L184.52,115.58L186.83,143.58L187.98,144.99L189.14,121.74L190.29,140.44L192.6,156.49L193.75,157.82L194.9,157.77L196.06,159.08L197.21,159.86L198.36,164.54L199.52,163.8L200.67,160.68L201.82,159.17L202.98,167.19L206.44,161.72L207.59,164.04L208.74,162.69L209.9,162.56L211.05,162.14L212.2,164.12L214.51,164.39L215.66,165.02L216.82,164.22L217.97,166.25L220.28,171.46L221.43,169.14L222.58,168.56L223.74,172.04L224.89,177.32L226.04,189.17L230.65,204.57L231.81,206.22L232.96,205.73L234.11,211.28L236.42,221.79L237.57,219.6L238.73,220.73L239.88,201.25L242.19,224.23L243.34,226.76L244.49,217.19L245.65,225.5L247.95,231.4L249.11,225.94L250.26,223.69L251.41,219L252.57,219.05L253.72,222.35L254.87,224.43L256.03,220.57L257.18,219.47L258.33,212.24L259.49,212.97L260.64,209.08L261.79,204.15L262.95,203.81L266.41,189.68L267.56,190.51L274.48,161.33L275.63,158.69L276.79,159.79L277.94,155.07L279.09,152.38L280.25,151.81L281.4,145.49L282.55,143.92L283.71,143.83L284.86,145.07L286.01,141.25L287.17,144.42L289.47,152.68L290.63,146.7L291.78,146.33L292.93,149.04L294.08,152.97L295.24,142.46L297.54,144.74L298.7,146.32L301,157.36L302.16,158.86L303.31,157.86L304.46,161.49L306.77,163.15L307.92,161.99L309.08,162.55L310.23,161.98L312.54,159.77L313.69,165.1L317.15,160.65L318.3,160.45L320.61,161.37L321.76,161.17L322.92,155.64L324.07,160.02L326.38,163.55L327.53,158.98L330.99,170.89L332.14,168.22L333.3,168.14L334.45,170.63L339.06,194.53L340.22,198.54L341.37,193.74L342.52,199.13L343.68,201.91L344.83,202.5L345.98,207.25L347.14,205.38L348.29,204.19L349.44,204.8L350.6,203.12L351.75,209.8L354.06,219L355.21,234.27L356.36,234.28L357.51,233.47L358.67,232.11L359.82,228.66L363.28,209.13L364.43,207.36L365.59,209.08L366.74,207.3L367.89,204.47L369.05,196.96L370.2,197.03L371.35,196L372.51,194.49L373.66,198.38L375.97,188.35L377.12,185.26L378.27,191.86L379.43,185.84L384.04,166.33L385.19,163.11L386.35,159.11L387.5,159.96L389.81,153.48L390.96,152.83L393.27,145.3L394.42,145.42L395.57,146.7L396.73,92.05L399.03,141.16L400.19,146.53L401.34,78.24L402.49,118.2L404.8,149.03L405.95,139.64L408.26,144.17L409.41,153.37L410.57,147.67L411.72,157.81L412.87,155.8L414.03,160.2L416.33,165.52L417.49,164.55L419.79,161.42L420.94,163.15L423.25,161.53L424.4,164.11L427.86,161.88L429.02,162.96L433.63,162.45L434.78,164.52L437.09,166.55L438.24,166.17L441.7,173.78L442.86,167.87L444.01,169.39L445.16,173.38L446.32,178.54L447.47,194.37L448.62,196.07L449.78,199.17L450.93,204.35L452.08,194.89L454.39,212.52L455.54,214.47L459,225.15L460.16,226.68L461.31,232.37L462.46,231.7L463.62,231.38L464.77,233.34L465.92,242.94L467.08,241.09L469.38,237.18L470.54,228.7L474,219.72L475.15,228.99L478.61,219.88L479.76,218.63L482.07,208.01L483.22,204.99L484.38,202.53L485.53,197L487.83,180.98L488.99,177.86L490.14,179.68L491.29,176.19L494.75,165.28L495.91,163.62L497.06,161.93L498.21,157.49L500.52,153.38L501.67,153.46L502.83,121.12L503.98,136.81L505.13,142.34L506.29,142.64L507.44,134.22L508.59,143.23L510.9,153.63L512.05,137.74L514.36,146.7L515.51,148.75L516.67,150.45L517.82,149.03L518.97,152.08L520.13,149.31L521.28,159.27L522.43,158.31L523.59,162.31L524.74,162.45L525.89,162.08L527.05,162.97L529.35,160.48L530.51,164.13L531.66,165.3L532.81,162.33L533.97,162.01L535.12,163.28L536.27,164.12L537.43,163.41L538.58,163.14L539.73,152.64L540.89,159.75L542.04,161.83L543.19,161.72L544.35,160.37L547.81,165.81L548.96,161.21L551.26,163.47L552.42,164.87L553.57,155.56L554.72,155.7L557.03,156.79L558.18,159.43L561.64,167.36L562.8,166.14L566.26,168.79L567.41,172.48L570.87,168.52L572.02,168.99L573.18,168.21L574.33,165.24L575.48,161.87L576.64,166.83L577.79,164.53L578.94,165.97L580.1,165.57L581.25,161.1L582.4,154.35L583.56,154.1L584.71,151.74L585.86,156.72L587.02,160.53L588.17,160.85L589.32,159.45L590.48,160.77L592.78,155.79L593.94,158.79L595.09,159.87L596.24,164.06L598.55,160.66L599.7,166.39L600.86,167.92L602.01,168.12L603.16,167.18L604.32,168.07L607.78,159.18L608.93,158.98L611.24,154.5L612.39,153.52L613.54,144.68L614.69,143.88L617,147.03L618.15,146.93L619.31,145.09L620.46,148.69L621.61,152.88L622.77,141.09L625.07,148.07L626.23,148.35L627.38,147.64L628.53,149.52L629.69,150.72L630.84,149.23L631.99,154.77L633.15,156.37L636.61,164.07L637.76,163.42L640.07,161.16L641.22,163.21L642.37,162.92L643.53,160.59L644.68,159.02L645.83,159.46L646.99,161.41L648.14,160.56L649.29,159.61L650.45,160.61L652.75,161.46L653.91,161.23L655.06,163.92L656.21,163.7L657.37,163.82L658.52,165.33L659.67,165.02L660.83,167.1L663.13,171.5L664.29,165.76L665.44,168.11L666.59,172.32L667.75,176.51L668.9,189.18L670.05,191.28L671.21,196.47L673.51,206.39L674.67,206.64L676.97,211.49L678.13,221.02L679.28,219.88L680.43,220.83L682.74,223.83L683.89,227.42L685.04,229.61L686.2,229.27L687.35,236.06L688.5,235.19L690.81,234.23L691.96,230.45L694.27,220.96L695.42,218.77L696.58,230.04L697.73,226.04L700.04,220.6L701.19,219.98L704.65,203.81L705.8,206.72L709.26,188.6L710.42,194.02L716.18,164.83L717.34,161.43L720.8,154.34L721.95,152.88L723.1,152.28L724.26,146.51L725.41,144.09L726.56,144.31L727.72,146.22L728.87,146.36L731.18,148.43L732.33,152.04L734.64,146.26L735.79,149.66L736.94,153.55L738.1,147.17L739.25,146.72L740.4,149.25L741.56,147.82L742.71,154.77L745.01,161.3L746.17,161.5L747.32,154.31L748.47,157.81L749.63,159.8L750.78,159.54L751.93,159.06L753.09,159.65L754.24,160.69L755.39,159.05L756.55,162.23L757.7,161.21L758.85,161.78L760.01,160.66L762.31,162.51L763.47,162.68L765.77,160.73L766.93,164.04L769.23,165.8L770.39,165.11L773.85,172.03L775,168.27" style="vector-effect: non-scaling-stroke; fill: none; stroke: rgb(255, 127, 14); stroke-opacity: 0.7; stroke-width: 3px; opacity: 1;"/></g><g class="points"/><g class="text"/></g></g></g><g class="overplot"/><path class="xlines-above crisp" d="M0,0" style="fill: none;"/><path class="ylines-above crisp" d="M74,50V310" style="fill: none; stroke-width: 2px; stroke: rgb(0, 0, 0); stroke-opacity: 1;"/><g class="overlines-above"/><g class="xaxislayer-above"><g class="xtick"><text text-anchor="middle" x="0" y="330" transform="translate(158.04000000000002,0)" style="font-family: 'Open Sans', verdana, arial, sans-serif; font-size: 19px; fill: rgb(42, 63, 95); fill-opacity: 1; white-space: pre; opacity: 1;"><tspan class="line" dy="0em" x="0" y="330">May 31</tspan><tspan class="line" dy="1.3em" x="0" y="330">2019</tspan></text></g><g class="xtick"><text text-anchor="middle" x="0" y="330" style="font-family: 'Open Sans', verdana, arial, sans-serif; font-size: 19px; fill: rgb(42, 63, 95); fill-opacity: 1; white-space: pre; opacity: 1;" transform="translate(268.75,0)">Jun 1</text></g><g class="xtick"><text text-anchor="middle" x="0" y="330" style="font-family: 'Open Sans', verdana, arial, sans-serif; font-size: 19px; fill: rgb(42, 63, 95); fill-opacity: 1; white-space: pre; opacity: 1;" transform="translate(379.46,0)">Jun 2</text></g><g class="xtick"><text text-anchor="middle" x="0" y="330" style="font-family: 'Open Sans', verdana, arial, sans-serif; font-size: 19px; fill: rgb(42, 63, 95); fill-opacity: 1; white-space: pre; opacity: 1;" transform="translate(490.18,0)">Jun 3</text></g><g class="xtick"><text text-anchor="middle" x="0" y="330" style="font-family: 'Open Sans', verdana, arial, sans-serif; font-size: 19px; fill: rgb(42, 63, 95); fill-opacity: 1; white-space: pre; opacity: 1;" transform="translate(600.89,0)">Jun 4</text></g><g class="xtick"><text text-anchor="middle" x="0" y="330" style="font-family: 'Open Sans', verdana, arial, sans-serif; font-size: 19px; fill: rgb(42, 63, 95); fill-opacity: 1; white-space: pre; opacity: 1;" transform="translate(711.61,0)">Jun 5</text></g><g class="xtick"><text text-anchor="middle" x="0" y="330" style="font-family: 'Open Sans', verdana, arial, sans-serif; font-size: 19px; fill: rgb(42, 63, 95); fill-opacity: 1; white-space: pre; opacity: 1;" transform="translate(822.32,0)">Jun 6</text></g></g><g class="yaxislayer-above"><g class="ytick"><text text-anchor="end" x="69.2" y="6.6499999999999995" transform="translate(0,288.21000000000004)" style="font-family: 'Open Sans', verdana, arial, sans-serif; font-size: 19px; fill: rgb(42, 63, 95); fill-opacity: 1; white-space: pre; opacity: 1;">−2</text></g><g class="ytick"><text text-anchor="end" x="69.2" y="6.6499999999999995" style="font-family: 'Open Sans', verdana, arial, sans-serif; font-size: 19px; fill: rgb(42, 63, 95); fill-opacity: 1; white-space: pre; opacity: 1;" transform="translate(0,221.08)">0</text></g><g class="ytick"><text text-anchor="end" x="69.2" y="6.6499999999999995" style="font-family: 'Open Sans', verdana, arial, sans-serif; font-size: 19px; fill: rgb(42, 63, 95); fill-opacity: 1; white-space: pre; opacity: 1;" transform="translate(0,153.95999999999998)">2</text></g><g class="ytick"><text text-anchor="end" x="69.2" y="6.6499999999999995" style="font-family: 'Open Sans', verdana, arial, sans-serif; font-size: 19px; fill: rgb(42, 63, 95); fill-opacity: 1; white-space: pre; opacity: 1;" transform="translate(0,86.83)">4</text></g></g><g class="overaxes-above"/></g></g><g class="polarlayer"/><g class="ternarylayer"/><g class="geolayer"/><g class="funnelarealayer"/><g class="pielayer"/><g class="iciclelayer"/><g class="treemaplayer"/><g class="sunburstlayer"/><g class="glimages"/><defs id="topdefs-f86ebe"><g class="clips"/></defs><g class="layer-above"><g class="imagelayer"/><g class="shapelayer"/></g><g class="infolayer"><g class="g-gtitle"/><g class="g-xtitle"/><g class="g-ytitle" transform="translate(12.537109375,0)"><text class="ytitle" transform="rotate(-90,10.462500000000006,180)" x="10.462500000000006" y="180" text-anchor="middle" style="font-family: 'Open Sans', verdana, arial, sans-serif; font-size: 23px; fill: rgb(42, 63, 95); opacity: 1; font-weight: normal; white-space: pre;">Netload [kW]</text></g></g></svg>