<svg class="main-svg" xmlns="http://www.w3.org/2000/svg" xmlns:xlink="http://www.w3.org/1999/xlink" width="900" height="400" viewBox="0 0 900 400"><rect x="0" y="0" width="900" height="400" style="fill: rgb(255, 255, 255); fill-opacity: 1;"/><defs id="defs-bec547"><g class="clips"><clipPath id="clipbec547xyplot" class="plotclip"><rect width="775" height="260"/></clipPath><clipPath class="axesclip" id="clipbec547x"><rect x="75" y="0" width="775" height="400"/></clipPath><clipPath class="axesclip" id="clipbec547y"><rect x="0" y="50" width="900" height="260"/></clipPath><clipPath class="axesclip" id="clipbec547xy"><rect x="75" y="50" width="775" height="260"/></clipPath></g><g class="gradients"/><g class="patterns"/></defs><g class="bglayer"/><g class="layer-below"><g class="imagelayer"/><g class="shapelayer"/></g><g class="cartesianlayer"><g class="subplot xy"><g class="layer-subplot"><g class="shapelayer"/><g class="imagelayer"/></g><g class="gridlayer"><g class="x"><path class="xgrid crisp" transform="translate(158.04000000000002,0)" d="M0,50v260" style="stroke: rgb(235, 240, 248); stroke-opacity: 1; stroke-width: 1px;"/><path class="xgrid crisp" transform="translate(268.75,0)" d="M0,50v260" style="stroke: rgb(235, 240, 248); stroke-opacity: 1; stroke-width: 1px;"/><path class="xgrid crisp" transform="translate(379.46,0)" d="M0,50v260" style="stroke: rgb(235, 240, 248); stroke-opacity: 1; stroke-width: 1px;"/><path class="xgrid crisp" transform="translate(490.18,0)" d="M0,50v260" style="stroke: rgb(235, 240, 248); stroke-opacity: 1; stroke-width: 1px;"/><path class="xgrid crisp" transform="translate(600.89,0)" d="M0,50v260" style="stroke: rgb(235, 240, 248); stroke-opacity: 1; stroke-width: 1px;"/><path class="xgrid crisp" transform="translate(711.61,0)" d="M0,50v260" style="stroke: rgb(235, 240, 248); stroke-opacity: 1; stroke-width: 1px;"/><path class="xgrid crisp" transform="translate(822.32,0)" d="M0,50v260" style="stroke: rgb(235, 240, 248); stroke-opacity: 1; stroke-width: 1px;"/></g><g class="y"><path class="ygrid crisp" transform="translate(0,270.97)" d="M75,0h775" style="stroke: rgb(235, 240, 248); stroke-opacity: 1; stroke-width: 1px;"/><path class="ygrid crisp" transform="translate(0,211.05)" d="M75,0h775" style="stroke: rgb(235, 240, 248); stroke-opacity: 1; stroke-width: 1px;"/><path class="ygrid crisp" transform="translate(0,91.22)" d="M75,0h775" style="stroke: rgb(235, 240, 248); stroke-opacity: 1; stroke-width: 1px;"/></g></g><g class="zerolinelayer"><path class="yzl zl crisp" transform="translate(0,151.14)" d="M75,0h775" style="stroke: rgb(0, 0, 0); stroke-opacity: 1; stroke-width: 2px;"/></g><path class="xlines-below"/><path class="ylines-below"/><g class="overlines-below"/><g class="xaxislayer-below"/><g class="yaxislayer-below"/><g class="overaxes-below"/><g class="plot" transform="translate(75,50)" clip-path="url(#clipbec547xyplot)"><g class="scatterlayer mlayer"><g class="trace scatter tracee138a1" style="stroke-miterlimit: 2; opacity: 1;"><g class="fills"/><g class="errorbars"/><g class="lines"><path class="js-line" d="M0,102.1L1.15,108.39L2.31,120.76L3.46,121.52L4.61,99.52L8.07,182.64L9.23,178.48L11.53,191.37L12.69,180.48L13.84,198.49L14.99,192.39L16.15,221.62L17.3,219.32L18.45,233.88L19.61,219.95L20.76,222.85L21.91,222.41L23.07,210.54L24.22,218.92L25.37,218.03L26.53,228.73L27.68,242.8L28.83,211.84L29.99,225.99L31.14,226.95L32.29,196.16L33.44,210.44L35.75,186.61L36.9,201.71L38.06,158.69L39.21,177.67L41.52,137.92L42.67,136.16L43.82,129.01L44.98,130.48L47.28,111.51L48.44,116.49L49.59,94.5L50.74,88.43L51.9,101.74L53.05,97.58L54.2,101.17L55.36,39.74L56.51,95.27L57.66,95.11L58.82,93.14L59.97,83.21L61.12,46.5L62.28,53.02L63.43,13L64.58,21.63L65.74,60.53L66.89,29.47L69.2,82.43L70.35,47.98L71.5,92.29L72.66,84.96L73.81,72.78L74.96,91.7L76.12,93.97L77.27,89.56L78.42,98.01L79.58,96.03L81.88,88.09L83.04,97.07L84.19,95.67L85.34,91.53L86.5,82.88L87.65,91.36L88.8,32.75L89.96,82.15L92.26,87.84L93.42,96.28L94.57,70.58L95.72,68.56L96.88,77.92L98.03,76.73L99.18,43.64L100.33,80.27L101.49,68.37L102.64,67.91L104.95,84.18L106.1,67.53L107.25,89.99L108.41,95.3L109.56,113.77L110.71,93.97L111.87,105.42L113.02,127.26L114.17,145.79L115.33,129.05L116.48,144.25L117.63,138.65L118.79,144.91L119.94,165.38L122.25,182.7L123.4,184.29L124.55,211.15L125.71,207.68L126.86,212.05L128.01,225.65L129.17,191.72L130.32,193.56L132.63,235.81L133.78,208.21L134.93,242.98L136.09,247L137.24,243.26L138.39,246.38L139.55,231.48L140.7,231.6L141.85,229.2L143.01,208.25L144.16,197.84L145.31,206.63L147.62,189.9L148.77,193.26L153.39,135.31L154.54,82.78L155.69,98.28L156.85,127.45L158,94.07L159.15,91.5L160.31,98.35L161.46,80.17L162.61,45.9L163.76,51.61L164.92,90.91L166.07,13.62L167.22,63.06L168.38,70.99L169.53,23.66L170.68,29.85L172.99,56.35L174.14,50.79L175.3,16.06L176.45,67.69L177.6,82.06L178.76,37.27L179.91,71.29L181.06,76.67L182.22,75.1L183.37,88.06L185.68,76.43L186.83,66.56L187.98,60.94L189.14,88.29L190.29,92.11L191.44,81.83L192.6,82.87L193.75,97.28L194.9,91.88L196.06,95.3L197.21,97.79L198.36,96.44L200.67,97.85L201.82,91.11L202.98,94.62L204.13,94.55L205.28,95.43L206.44,98.79L207.59,96.32L208.74,96.88L209.9,94.15L211.05,96.54L212.2,96.9L213.36,94.52L214.51,101.8L215.66,102.95L217.97,109.84L219.12,110.72L220.28,116.7L221.43,111.83L223.74,125.13L224.89,144.69L226.04,143.91L227.19,157.57L228.35,161.07L229.5,178.74L230.65,176.56L231.81,158.9L232.96,201.77L234.11,211.93L235.27,215.08L236.42,210.4L237.57,221.76L238.73,222.47L239.88,214.87L241.03,224.87L242.19,227.61L243.34,234.49L244.49,238.01L245.65,235.34L246.8,231.16L247.95,235.52L250.26,233.52L251.41,234L252.57,231.7L253.72,225.29L254.87,224.98L256.03,217.33L257.18,209.93L258.33,207.73L261.79,182.01L262.95,168.23L264.1,163.8L265.25,151.8L266.41,132.97L267.56,145.42L269.87,131.42L271.02,117.36L272.17,91L273.33,102.97L275.63,105L276.79,105.11L279.09,79.05L280.25,96.63L281.4,85.22L282.55,86.42L283.71,90.49L284.86,88.19L286.01,89.47L287.17,88.42L288.32,98.58L289.47,97.95L291.78,93.86L292.93,98.73L294.08,98.73L295.24,84.75L296.39,61.49L297.54,89.35L298.7,79.53L299.85,85.56L301,95.34L302.16,98.58L303.31,96.78L304.46,86.89L305.62,78.88L306.77,97.05L307.92,83.8L309.08,98.48L310.23,98.66L311.38,97.18L313.69,83.81L314.84,89.66L317.15,99.99L318.3,99.15L319.46,92.96L320.61,92.71L324.07,96.1L325.22,94.52L328.68,104.66L329.84,111.85L330.99,114.46L332.14,120.08L336.76,159.7L337.91,155.39L339.06,162.22L340.22,164.56L341.37,173.83L342.52,174.03L343.68,178.75L344.83,177.85L347.14,188.44L348.29,176.78L349.44,191.94L350.6,192.81L354.06,229.04L355.21,228.65L356.36,228.74L357.51,231L358.67,220.88L359.82,224.9L360.97,224.16L362.13,216.44L363.28,199.4L364.43,196.33L365.59,194.5L366.74,189.11L367.89,187.83L369.05,176.65L372.51,175.35L373.66,172.37L374.81,159.39L375.97,156.64L378.27,148.22L379.43,125.88L381.73,122.74L382.89,114.07L384.04,105.7L385.19,112.38L386.35,108.57L387.5,96.41L388.65,87.67L389.81,89.16L390.96,63.35L392.11,72.08L393.27,70.48L394.42,71.52L395.57,74.6L396.73,46.74L399.03,91.47L400.19,79.38L401.34,93.39L402.49,90.18L403.65,74.91L404.8,90.58L407.11,71.41L408.26,92.07L409.41,93.17L410.57,86.57L411.72,94.55L412.87,94.76L414.03,97.53L415.18,93.35L416.33,92.58L417.49,96.26L418.64,95.74L419.79,97.26L423.25,93.67L424.4,97.09L427.86,94.14L429.02,99.85L430.17,98.57L431.32,100.59L432.48,97.9L433.63,99.14L434.78,102.23L435.94,100.9L437.09,101.93L438.24,105.81L441.7,120.03L442.86,124.9L447.47,155.69L448.62,151.04L449.78,176.96L450.93,185.52L453.24,199.56L454.39,204.35L456.7,221.68L457.85,220.85L461.31,235.22L462.46,229.85L463.62,224.74L464.77,238.12L465.92,241.59L467.08,237.65L468.23,237.19L469.38,235.33L470.54,237.95L471.69,227.98L472.84,218.64L474,218.15L475.15,205.89L476.3,205.35L477.46,208.52L478.61,204.47L479.76,198.65L480.92,187.59L483.22,183.56L484.38,171.45L485.53,166.59L486.68,153.26L488.99,126.55L490.14,124.81L491.29,125.2L492.45,114.79L493.6,113.86L494.75,106.21L495.91,109.54L497.06,107.62L499.37,92.21L500.52,97.76L501.67,100.17L502.83,97.04L503.98,93.49L505.13,99.01L506.29,96.77L507.44,90.28L508.59,83.39L509.75,91.03L510.9,91.56L512.05,98.56L513.21,97.87L514.36,98.56L515.51,94.38L516.67,75.64L517.82,99.12L518.97,88.47L520.13,97.29L521.28,99.95L530.51,100.58L531.66,97.19L533.97,100.58L535.12,100.57L538.58,100.1L539.73,99.71L542.04,100.59L543.19,97.93L544.35,98.16L545.5,100.69L546.65,93.52L547.81,97.59L548.96,95.99L550.11,92.99L551.26,101.6L552.42,98.97L554.72,103.62L555.88,102.65L557.03,102.06L558.18,104.61L559.34,109.45L560.49,109.13L561.64,110.76L562.8,108.49L566.26,126L567.41,128.98L569.72,124.34L570.87,118.41L572.02,117.76L573.18,109.07L574.33,106.85L575.48,99.45L576.64,109.06L577.79,108.15L578.94,106.39L580.1,111.28L581.25,113.93L582.4,113.61L583.56,106.75L584.71,112.94L587.02,108.77L588.17,108.83L589.32,98.61L590.48,106.69L595.09,121.67L596.24,120.26L597.4,118.75L598.55,114.81L600.86,108.86L602.01,117.23L603.16,115.62L604.32,108.38L605.47,104.34L606.62,89.5L607.78,96.43L608.93,90.49L610.08,99.78L611.24,100.35L612.39,58.38L613.54,66.88L614.69,92.29L615.85,49.62L618.15,97.31L619.31,79.61L620.46,90.26L621.61,91.25L622.77,52.28L623.92,85.38L626.23,78.23L627.38,92.98L628.53,88.47L629.69,92.67L630.84,96.57L631.99,93.03L633.15,90.37L634.3,98.28L635.45,96.35L636.61,98.75L638.91,97.77L640.07,98.91L641.22,100.58L642.37,99.82L644.68,100.58L645.83,100.44L648.14,96.87L649.29,95.27L650.45,99.47L651.6,94.66L653.91,100.06L655.06,95.55L656.21,97.95L657.37,102.26L659.67,105.97L660.83,110.83L664.29,124.41L665.44,133.62L668.9,153.21L670.05,160.69L675.82,201.59L676.97,206.88L679.28,216.16L680.43,221.6L682.74,230.73L683.89,231.43L685.04,231.53L686.2,233.84L687.35,238.02L688.5,237.4L691.96,235.11L693.12,232.83L696.58,225.95L697.73,221.63L702.34,202.2L703.5,195.45L708.11,165.77L709.26,157.49L712.72,128.75L713.88,121.24L715.03,101.12L716.18,107.31L717.34,109.65L718.49,101.84L719.64,93.31L720.8,98.06L721.95,101.4L723.1,87.1L724.26,89.3L725.41,96.21L726.56,99.01L727.72,99.01L728.87,95.12L730.02,98.34L736.94,98.57L738.1,99.24L746.17,99.95L747.32,100.36L751.93,100.58L753.09,99.63L755.39,99.69L756.55,100.57L757.7,99.79L758.85,100.57L762.31,98.17L763.47,100.09L764.62,100.59L765.77,98.77L770.39,107.4L771.54,111.54L775,124.09" style="vector-effect: non-scaling-stroke; fill: none; stroke: rgb(76, 120, 168); stroke-opacity: 1; stroke-width: 3px; opacity: 1;"/></g><g class="points"/><g class="text"/></g><g class="trace scatter tracee456ba" style="stroke-miterlimit: 2; opacity: 1;"><g class="fills"/><g class="errorbars"/><g class="lines"><path class="js-line" d="M0,102.05L2.31,115.84L3.46,124.59L4.61,123.13L5.77,127.64L8.07,139.22L9.23,175.87L10.38,175.19L11.53,177.85L12.69,182.71L13.84,180.92L16.15,192.62L17.3,202.38L19.61,194.95L20.76,201.68L21.91,213.71L23.07,188.87L24.22,180.82L25.37,184.88L27.68,203.63L28.83,195.93L29.99,195.37L31.14,196.84L32.29,216.77L33.44,209.6L38.06,183.54L39.21,168.93L44.98,82.48L46.13,119.21L49.59,96.3L50.74,74.28L53.05,62.18L54.2,62.11L55.36,71.18L56.51,57.93L58.82,49.72L59.97,75.39L62.28,59.27L63.43,53.5L64.58,30.1L65.74,34.57L66.89,32.62L68.04,27.46L69.2,54.67L70.35,48.81L72.66,36.89L73.81,77.65L76.12,70.08L77.27,68.96L78.42,86.63L79.58,86.51L81.88,90.4L83.04,83.46L84.19,82.5L85.34,82.85L86.5,83.27L87.65,90.61L88.8,93.24L89.96,92.72L91.11,90.06L92.26,91.75L93.42,91.3L94.57,87.6L95.72,82.31L96.88,81.57L98.03,84.85L99.18,83.9L100.33,81.5L101.49,84.53L104.95,90.46L106.1,88.79L115.33,138.06L116.48,137.81L118.79,145.37L119.94,159.86L123.4,183.84L124.55,184.15L125.71,188.05L126.86,194.91L128.01,204.25L129.17,201.54L130.32,197.24L131.47,203.31L132.63,215.02L133.78,195.84L134.93,184.35L136.09,186.42L137.24,194.53L138.39,209.83L139.55,198.12L140.7,195.62L141.85,196.17L143.01,217.08L146.47,192.48L147.62,196.09L149.93,173.78L151.08,158.4L153.39,129.45L154.54,112.15L155.69,95.9L156.85,110.59L158,110.38L159.15,105.11L160.31,98.33L161.46,74.61L163.76,58.1L164.92,56.32L166.07,61.66L167.22,48.49L169.53,39.66L170.68,36.2L171.84,41.09L172.99,41.49L174.14,38.95L175.3,42.28L178.76,18.06L179.91,37.85L182.22,29.05L183.37,23.75L184.52,72.51L185.68,63.71L187.98,56.82L189.14,66.03L192.6,76.36L193.75,74.1L194.9,71.13L196.06,70.53L197.21,70.5L198.36,91.01L201.82,78.54L202.98,87.6L206.44,70.59L207.59,89.7L211.05,71.63L212.2,86.22L214.51,79.68L215.66,80.21L216.82,91.82L217.97,90.06L219.12,93.02L220.28,98.29L221.43,108.39L222.58,109.8L224.89,123.02L226.04,132.69L227.19,130.37L228.35,132.43L229.5,136.44L230.65,171.35L231.81,170.24L232.96,172.57L234.11,177.13L235.27,192.96L236.42,186.42L237.57,186.9L238.73,191.83L239.88,190.11L241.03,182.53L242.19,187.74L243.34,199.75L244.49,188.17L245.65,174.16L246.8,175.56L247.95,183.89L249.11,201.25L250.26,189.48L251.41,187.31L252.57,188.37L253.72,214.85L257.18,188.12L258.33,200.02L261.79,157.8L262.95,155.44L266.41,98.26L267.56,128.65L271.02,104.15L272.17,86.56L274.48,65.65L275.63,63.53L276.79,72.29L277.94,57.47L280.25,47.52L281.4,75.35L283.71,56.83L284.86,50.77L286.01,64.91L287.17,49.94L289.47,29.08L290.63,72.31L292.93,45.09L294.08,37.08L295.24,83.37L296.39,74.78L298.7,68.34L299.85,81.19L303.31,89.12L304.46,87.4L305.62,84.24L306.77,83.63L307.92,83.67L309.08,91.18L310.23,93.73L311.38,93.27L312.54,90.73L313.69,94.65L314.84,93.31L316,89.27L317.15,83.92L318.3,97.65L321.76,85.3L322.92,92.48L324.07,91.9L325.22,92.44L327.53,96.93L328.68,100.26L334.45,127.62L335.6,135.71L336.76,141.91L337.91,140.44L339.06,141.88L340.22,144.55L341.37,166.99L342.52,168.3L344.83,171.12L345.98,169.65L347.14,168.41L348.29,171.53L349.44,177.82L350.6,168.86L351.75,169.37L352.9,182.08L354.06,201.29L355.21,193.41L356.36,183.45L357.51,185.69L359.82,197.59L360.97,188.36L363.28,182.2L364.43,191.6L367.89,172.95L369.05,182.25L372.51,150.71L373.66,151.88L377.12,100.87L378.27,140.19L381.73,112.42L382.89,93.84L385.19,72.82L386.35,69.89L387.5,76.32L388.65,61.59L390.96,51.4L392.11,61.08L394.42,55.81L395.57,51.63L396.73,59.56L397.88,48.43L400.19,29.97L401.34,64L404.8,36.69L405.95,79.55L408.26,69.19L409.41,67.58L410.57,87.38L411.72,85.84L412.87,86.63L414.03,88.65L415.18,86.91L416.33,83.04L418.64,81.7L419.79,95.67L420.94,94.52L422.1,92.18L423.25,88.65L424.4,94.38L426.71,86.57L427.86,80.73L429.02,92.87L430.17,89.28L432.48,81.12L433.63,92.14L434.78,89.51L435.94,89.04L437.09,90.21L438.24,96.88L439.4,97.89L440.55,102.02L446.32,131.92L447.47,141.16L448.62,139.23L449.78,141.58L450.93,145.83L452.08,179.69L453.24,179.29L454.39,181.92L455.54,186.59L456.7,199.38L457.85,195.55L459,198.45L460.16,205.67L461.31,204.11L462.46,197.62L463.62,202.29L464.77,212.98L465.92,195.06L467.08,182.19L468.23,183.7L470.54,204.54L471.69,193.93L472.84,191.81L474,192.37L475.15,209.62L476.3,203.14L478.61,187.75L479.76,196.77L483.22,158.46L484.38,157.56L487.83,94.28L488.99,127.76L491.29,110.45L492.45,105.34L494.75,77.33L495.91,71.65L497.06,69.38L498.21,76.05L500.52,55.32L501.67,52.08L502.83,79.41L503.98,68.35L506.29,55.1L507.44,71.25L509.75,43.33L510.9,33.43L512.05,71.29L513.21,57.71L515.51,40.37L516.67,83.2L518.97,72.99L520.13,71.52L521.28,91.58L522.43,90.17L523.59,91.11L524.74,93.29L527.05,87.48L528.2,86.85L529.35,86.86L530.51,100.78L531.66,99.94L532.81,97.82L533.97,94.46L535.12,100.86L537.43,92.9L538.58,87.11L539.73,99.11L540.89,95.71L543.19,87.78L544.35,95.69L546.65,93.52L547.81,93.98L551.26,99.12L552.42,102.33L553.57,99.1L554.72,100.99L557.03,105.61L558.18,96.97L559.34,95.47L560.49,95.42L561.64,95.9L562.8,113.33L566.26,120.45L567.41,119.66L568.56,117.93L569.72,119.43L570.87,123.53L572.02,102.84L573.18,100.29L574.33,104.86L575.48,113.47L576.64,73.63L577.79,69.91L578.94,76.65L581.25,93.44L582.4,90.3L584.71,97.08L585.86,112.45L587.02,111.68L588.17,109.34L589.32,104.93L590.48,106.6L591.63,107.02L592.78,103.19L593.94,97L595.09,101.91L598.55,64.97L599.7,108.33L602.01,99.95L603.16,98.32L606.62,70.65L607.78,67.99L608.93,69.54L610.08,57.27L612.39,48.5L613.54,57.22L615.85,52.53L617,48.33L618.15,59.9L619.31,46.69L621.61,26.51L622.77,67.54L625.07,41.12L626.23,32.93L627.38,71.01L628.53,66.12L630.84,61.75L631.99,86.02L633.15,82.08L634.3,81.6L635.45,82.9L636.61,82.91L638.91,75.67L640.07,74.89L641.22,93.31L642.37,89.39L644.68,81.24L645.83,93.36L649.29,72.66L650.45,88.59L653.91,71.85L655.06,87.88L657.37,79.57L658.52,79.59L659.67,91.41L660.83,89L661.98,91.53L663.13,96.47L664.29,109.01L665.44,108.32L667.75,118.65L668.9,131.93L670.05,126.38L671.21,126.73L672.36,129.75L673.51,168.24L674.67,163.95L675.82,164.04L676.97,166.84L678.13,183.65L679.28,176.6L680.43,178.38L682.74,191.27L683.89,181.34L685.04,184.34L686.2,194.22L688.5,166.2L689.66,165.84L690.81,172.86L691.96,194.77L693.12,179.42L694.27,175.4L695.42,175.43L696.58,205.87L700.04,174.5L701.19,194.14L704.65,144.58L705.8,151.4L709.26,85.16L710.42,133.07L713.88,91.4L715.03,80.52L717.34,52.29L718.49,48.91L719.64,62.5L720.8,44.48L723.1,32.25L724.26,62.5L726.56,41.48L727.72,34.96L728.87,61.69L730.02,39.92L732.33,14.1L733.48,63.94L735.79,30.4L736.94,21.38L738.1,74.68L739.25,61.98L741.56,52.6L742.71,82.11L743.86,75.23L745.01,73.58L746.17,74.55L747.32,80.42L749.63,69.46L750.78,68.43L751.93,90.81L753.09,85.24L755.39,76.56L756.55,90.78L760.01,69.79L761.16,89.67L764.62,71.22L765.77,88.11L766.93,82.41L768.08,80.65L769.23,81.37L770.39,93.85L771.54,91.84L772.69,94.53L773.85,99.52L775,110.33" style="vector-effect: non-scaling-stroke; fill: none; stroke: rgb(255, 127, 14); stroke-opacity: 0.7; stroke-width: 3px; opacity: 1;"/></g><g class="points"/><g class="text"/></g></g></g><g class="overplot"/><path class="xlines-above crisp" d="M0,0" style="fill: none;"/><path class="ylines-above crisp" d="M74,50V310" style="fill: none; stroke-width: 2px; stroke: rgb(0, 0, 0); stroke-opacity: 1;"/><g class="overlines-above"/><g class="xaxislayer-above"><g class="xtick"><text text-anchor="middle" x="0" y="330" transform="translate(158.04000000000002,0)" style="font-family: 'Open Sans', verdana, arial, sans-serif; font-size: 19px; fill: rgb(42, 63, 95); fill-opacity: 1; white-space: pre; opacity: 1;"><tspan class="line" dy="0em" x="0" y="330">May 31</tspan><tspan class="line" dy="1.3em" x="0" y="330">2019</tspan></text></g><g class="xtick"><text text-anchor="middle" x="0" y="330" style="font-family: 'Open Sans', verdana, arial, sans-serif; font-size: 19px; fill: rgb(42, 63, 95); fill-opacity: 1; white-space: pre; opacity: 1;" transform="translate(268.75,0)">Jun 1</text></g><g class="xtick"><text text-anchor="middle" x="0" y="330" style="font-family: 'Open Sans', verdana, arial, sans-serif; font-size: 19px; fill: rgb(42, 63, 95); fill-opacity: 1; white-space: pre; opacity: 1;" transform="translate(379.46,0)">Jun 2</text></g><g class="xtick"><text text-anchor="middle" x="0" y="330" style="font-family: 'Open Sans', verdana, arial, sans-serif; font-size: 19px; fill: rgb(42, 63, 95); fill-opacity: 1; white-space: pre; opacity: 1;" transform="translate(490.18,0)">Jun 3</text></g><g class="xtick"><text text-anchor="middle" x="0" y="330" style="font-family: 'Open Sans', verdana, arial, sans-serif; font-size: 19px; fill: rgb(42, 63, 95); fill-opacity: 1; white-space: pre; opacity: 1;" transform="translate(600.89,0)">Jun 4</text></g><g class="xtick"><text text-anchor="middle" x="0" y="330" style="font-family: 'Open Sans', verdana, arial, sans-serif; font-size: 19px; fill: rgb(42, 63, 95); fill-opacity: 1; white-space: pre; opacity: 1;" transform="translate(711.61,0)">Jun 5</text></g><g class="xtick"><text text-anchor="middle" x="0" y="330" style="font-family: 'Open Sans', verdana, arial, sans-serif; font-size: 19px; fill: rgb(42, 63, 95); fill-opacity: 1; white-space: pre; opacity: 1;" transform="translate(822.32,0)">Jun 6</text></g></g><g class="yaxislayer-above"><g class="ytick"><text text-anchor="end" x="69.2" y="6.6499999999999995" transform="translate(0,270.97)" style="font-family: 'Open Sans', verdana, arial, sans-serif; font-size: 19px; fill: rgb(42, 63, 95); fill-opacity: 1; white-space: pre; opacity: 1;">−2</text></g><g class="ytick"><text text-anchor="end" x="69.2" y="6.6499999999999995" style="font-family: 'Open Sans', verdana, arial, sans-serif; font-size: 19px; fill: rgb(42, 63, 95); fill-opacity: 1; white-space: pre; opacity: 1;" transform="translate(0,211.05)">−1</text></g><g class="ytick"><text text-anchor="end" x="69.2" y="6.6499999999999995" style="font-family: 'Open Sans', verdana, arial, sans-serif; font-size: 19px; fill: rgb(42, 63, 95); fill-opacity: 1; white-space: pre; opacity: 1;" transform="translate(0,151.14)">0</text></g><g class="ytick"><text text-anchor="end" x="69.2" y="6.6499999999999995" style="font-family: 'Open Sans', verdana, arial, sans-serif; font-size: 19px; fill: rgb(42, 63, 95); fill-opacity: 1; white-space: pre; opacity: 1;" transform="translate(0,91.22)">1</text></g></g><g class="overaxes-above"/></g></g><g class="polarlayer"/><g class="ternarylayer"/><g class="geolayer"/><g class="funnelarealayer"/><g class="pielayer"/><g class="iciclelayer"/><g class="treemaplayer"/><g class="sunburstlayer"/><g class="glimages"/><defs id="topdefs-bec547"><g class="clips"/></defs><g class="layer-above"><g class="imagelayer"/><g class="shapelayer"/></g><g class="infolayer"><g class="g-gtitle"/><g class="g-xtitle"/><g class="g-ytitle" transform="translate(12.537109375,0)"><text class="ytitle" transform="rotate(-90,10.462500000000006,180)" x="10.462500000000006" y="180" text-anchor="middle" style="font-family: 'Open Sans', verdana, arial, sans-serif; font-size: 23px; fill: rgb(42, 63, 95); opacity: 1; font-weight: normal; white-space: pre;">Netload [kW]</text></g></g></svg>