<svg class="main-svg" xmlns="http://www.w3.org/2000/svg" xmlns:xlink="http://www.w3.org/1999/xlink" width="900" height="400" viewBox="0 0 900 400"><rect x="0" y="0" width="900" height="400" style="fill: rgb(255, 255, 255); fill-opacity: 1;"/><defs id="defs-bf3c98"><g class="clips"><clipPath id="clipbf3c98xyplot" class="plotclip"><rect width="775" height="260"/></clipPath><clipPath class="axesclip" id="clipbf3c98x"><rect x="75" y="0" width="775" height="400"/></clipPath><clipPath class="axesclip" id="clipbf3c98y"><rect x="0" y="50" width="900" height="260"/></clipPath><clipPath class="axesclip" id="clipbf3c98xy"><rect x="75" y="50" width="775" height="260"/></clipPath></g><g class="gradients"/><g class="patterns"/></defs><g class="bglayer"/><g class="layer-below"><g class="imagelayer"/><g class="shapelayer"/></g><g class="cartesianlayer"><g class="subplot xy"><g class="layer-subplot"><g class="shapelayer"/><g class="imagelayer"/></g><g class="gridlayer"><g class="x"><path class="xgrid crisp" transform="translate(158.04000000000002,0)" d="M0,50v260" style="stroke: rgb(235, 240, 248); stroke-opacity: 1; stroke-width: 1px;"/><path class="xgrid crisp" transform="translate(268.75,0)" d="M0,50v260" style="stroke: rgb(235, 240, 248); stroke-opacity: 1; stroke-width: 1px;"/><path class="xgrid crisp" transform="translate(379.46,0)" d="M0,50v260" style="stroke: rgb(235, 240, 248); stroke-opacity: 1; stroke-width: 1px;"/><path class="xgrid crisp" transform="translate(490.18,0)" d="M0,50v260" style="stroke: rgb(235, 240, 248); stroke-opacity: 1; stroke-width: 1px;"/><path class="xgrid crisp" transform="translate(600.89,0)" d="M0,50v260" style="stroke: rgb(235, 240, 248); stroke-opacity: 1; stroke-width: 1px;"/><path class="xgrid crisp" transform="translate(711.61,0)" d="M0,50v260" style="stroke: rgb(235, 240, 248); stroke-opacity: 1; stroke-width: 1px;"/><path class="xgrid crisp" transform="translate(822.32,0)" d="M0,50v260" style="stroke: rgb(235, 240, 248); stroke-opacity: 1; stroke-width: 1px;"/></g><g class="y"><path class="ygrid crisp" transform="translate(0,284.98)" d="M75,0h775" style="stroke: rgb(235, 240, 248); stroke-opacity: 1; stroke-width: 1px;"/><path class="ygrid crisp" transform="translate(0,161.53)" d="M75,0h775" style="stroke: rgb(235, 240, 248); stroke-opacity: 1; stroke-width: 1px;"/><path class="ygrid crisp" transform="translate(0,99.8)" d="M75,0h775" style="stroke: rgb(235, 240, 248); stroke-opacity: 1; stroke-width: 1px;"/></g></g><g class="zerolinelayer"><path class="yzl zl crisp" transform="translate(0,223.25)" d="M75,0h775" style="stroke: rgb(0, 0, 0); stroke-opacity: 1; stroke-width: 2px;"/></g><path class="xlines-below"/><path class="ylines-below"/><g class="overlines-below"/><g class="xaxislayer-below"/><g class="yaxislayer-below"/><g class="overaxes-below"/><g class="plot" transform="translate(75,50)" clip-path="url(#clipbf3c98xyplot)"><g class="scatterlayer mlayer"><g class="trace scatter traced94803" style="stroke-miterlimit: 2; opacity: 1;"><g class="fills"/><g class="errorbars"/><g class="lines"><path class="js-line" d="M0,178.07L1.15,174.34L2.31,192.57L3.46,194.98L4.61,189.97L6.92,213.05L8.07,214.22L10.38,225.65L11.53,227.48L12.69,226.19L13.84,233.91L14.99,233.56L16.15,234.23L17.3,234.14L18.45,236.37L19.61,241.04L20.76,240.84L21.91,238.9L23.07,240.2L24.22,247L25.37,233.26L26.53,233.78L27.68,227.26L28.83,237.15L29.99,229.43L31.14,231.1L32.29,227.03L33.44,227.63L34.6,194.13L35.75,221.48L36.9,225.24L39.21,208.55L40.36,207.17L47.28,179.35L48.44,178.2L49.59,174.95L50.74,173.95L51.9,174.16L53.05,172.98L54.2,171.52L55.36,162.72L56.51,165.4L57.66,166.12L59.97,158.85L61.12,158.22L62.28,165.04L63.43,154.89L65.74,166.53L66.89,166.2L68.04,152.22L69.2,148.62L70.35,168.48L71.5,157.9L73.81,143.51L74.96,145.46L76.12,112.77L77.27,154.41L78.42,163.16L79.58,164.78L80.73,152.12L81.88,150.98L83.04,156.86L84.19,167.72L85.34,167.7L86.5,165.88L87.65,162.27L88.8,162.14L89.96,165.42L91.11,164.01L92.26,160.5L93.42,159.92L94.57,158.83L95.72,159.48L98.03,151.82L99.18,164.46L101.49,170.12L102.64,162.09L106.1,172.66L107.25,171.19L108.41,177.77L109.56,178.72L110.71,164.4L111.87,169.26L114.17,185.8L115.33,190.91L116.48,205.14L117.63,207.97L118.79,210.22L119.94,209.34L121.09,207.61L122.25,164.21L123.4,218L124.55,231.26L125.71,231.97L126.86,225.83L128.01,230.94L129.17,231.46L130.32,222.9L131.47,220.89L132.63,238.53L133.78,239.94L134.93,244.12L136.09,243.3L137.24,241.87L138.39,244.92L139.55,240.54L140.7,222.65L141.85,227.08L143.01,227.36L144.16,233.33L145.31,223.37L146.47,226.61L147.62,219.86L148.77,216.85L149.93,218.53L151.08,217.62L152.23,208.64L153.39,201.64L154.54,188.5L155.69,191.97L156.85,191.35L159.15,180.08L160.31,179.85L162.61,160.74L163.76,58.4L164.92,60.43L166.07,159.82L167.22,155.97L168.38,155.49L169.53,142.32L170.68,170.17L171.84,169.55L172.99,163.13L174.14,157.02L175.3,167.32L176.45,150.63L177.6,167.18L178.76,164.58L179.91,165.76L181.06,165.22L182.22,155.04L183.37,165.44L184.52,162.05L185.68,166.59L186.83,164.01L189.14,169.7L190.29,167.59L191.44,149.32L192.6,160.3L193.75,168.4L194.9,165.47L197.21,156.32L198.36,155.13L200.67,169.14L201.82,165.44L202.98,166.72L204.13,169.2L206.44,144.28L207.59,166.41L208.74,168.02L209.9,165.57L212.2,164.67L213.36,166.43L214.51,164.59L215.66,171.17L216.82,169.27L217.97,171.95L219.12,175.7L220.28,159.61L221.43,163.27L222.58,172.01L223.74,148.87L224.89,178.3L226.04,199.09L227.19,198.04L228.35,197.95L229.5,206.51L231.81,194.91L232.96,178.74L234.11,206.69L235.27,199.82L236.42,223.54L237.57,210.99L238.73,195.48L239.88,230.33L241.03,231.31L242.19,233.55L243.34,238.11L244.49,239.09L245.65,212.91L246.8,232.89L247.95,227.57L249.11,213.14L250.26,200.22L251.41,230.43L252.57,234.04L253.72,234.01L254.87,231.55L256.03,219.47L257.18,226.8L258.33,227.21L259.49,220.01L260.64,220.5L262.95,213.77L264.1,205.87L266.41,192.81L267.56,175.61L268.71,96.36L269.87,153.96L271.02,167.89L272.17,128.6L273.33,79L274.48,167.78L275.63,150.94L276.79,36.16L279.09,152.67L280.25,150.08L281.4,134.89L282.55,144.46L283.71,164.06L284.86,165.52L286.01,163.61L287.17,164.84L288.32,158.74L289.47,148.16L291.78,166.81L292.93,110.07L294.08,163.19L295.24,167.34L296.39,168.62L297.54,165.41L298.7,165.98L299.85,164.5L302.16,80.04L303.31,144.7L304.46,159.47L305.62,149.15L306.77,147.97L307.92,162.86L310.23,165.46L311.38,169.66L312.54,171.12L313.69,169.6L316,166.53L317.15,169.89L319.46,169.93L320.61,164L321.76,165.24L322.92,169.4L324.07,171.86L325.22,169.03L327.53,158.19L328.68,170.02L330.99,159.5L332.14,138.71L333.3,146.75L334.45,180.87L335.6,187.41L336.76,198.67L337.91,195.3L339.06,200.34L340.22,202.32L341.37,198.35L343.68,211.28L344.83,212.76L345.98,197.88L347.14,208.93L349.44,200.58L350.6,164.83L351.75,153.52L352.9,207.64L355.21,229.1L356.36,223.74L357.51,221.56L358.67,228.73L359.82,232.06L360.97,228.36L362.13,207.78L363.28,208.48L366.74,215.78L367.89,210.16L369.05,208.24L370.2,211.48L371.35,210.74L372.51,200.88L373.66,197L374.81,198.06L377.12,191.4L378.27,174.67L380.58,176.15L381.73,131.37L382.89,117.7L384.04,163.25L385.19,170.92L386.35,156.74L388.65,173.83L389.81,170.75L392.11,157.77L393.27,165.59L394.42,167.09L395.57,160.1L396.73,154.8L397.88,160L399.03,166.34L400.19,141.42L402.49,97.33L403.65,150.05L404.8,156.71L405.95,153.18L407.11,153.8L408.26,151.33L410.57,99.05L411.72,153.3L412.87,150.18L414.03,108.4L416.33,164.81L417.49,165.8L418.64,154.14L419.79,163.27L420.94,169.34L422.1,162.91L423.25,164.94L424.4,160.62L425.56,133.66L426.71,135.18L429.02,145.04L430.17,164.34L431.32,163.42L432.48,169.15L433.63,169.58L434.78,168.76L435.94,163.88L437.09,142.4L439.4,174.1L440.55,170.09L441.7,169.83L442.86,168.5L444.01,182.53L445.16,112.25L446.32,128.67L447.47,188.92L448.62,190.1L449.78,197.11L450.93,208.83L452.08,196.26L453.24,191.89L454.39,204.08L455.54,222.1L456.7,225.6L457.85,228.75L459,213.02L460.16,206.44L461.31,212.56L462.46,217.14L463.62,225.51L464.77,218.9L465.92,221.94L467.08,108.97L468.23,211.68L469.38,223.32L470.54,202.9L472.84,163.09L474,209.64L475.15,201.65L476.3,216.17L477.46,217.6L478.61,223.57L480.92,200.18L482.07,206.28L484.38,185.16L485.53,189.64L486.68,197.6L487.83,153.45L488.99,176.15L490.14,178.58L491.29,166.85L492.45,109.75L495.91,173.68L497.06,155.07L498.21,163.65L499.37,161.56L500.52,159.76L501.67,166.46L502.83,166.12L503.98,162.24L505.13,165.24L506.29,158.43L507.44,142L508.59,77.92L509.75,147.34L510.9,133.92L512.05,13L513.21,29.1L515.51,155.06L516.67,151.13L517.82,36.09L518.97,155.68L520.13,154.33L521.28,158.41L522.43,160.52L523.59,160.67L524.74,169.63L525.89,160.41L527.05,78.34L528.2,142.91L529.35,153.01L530.51,155.99L531.66,116.8L532.81,151.88L533.97,167.93L535.12,162.39L536.27,85.29L537.43,130.46L538.58,166.3L539.73,171.02L542.04,155.57L543.19,154.91L544.35,156.75L545.5,142.27L546.65,166.77L547.81,151.55L550.11,167.43L551.26,168.64L553.57,167.72L554.72,161.87L555.88,171.33L557.03,172.49L558.18,168.28L559.34,169.39L560.49,161.85L561.64,175.62L562.8,171.08L563.95,145.63L565.1,135.73L566.26,168.19L567.41,168.06L568.56,107.01L569.72,158.53L570.87,82.87L572.02,89.73L573.18,131.66L574.33,135.75L575.48,126.84L576.64,156.7L577.79,150.85L578.94,162.8L580.1,146.65L581.25,115.14L582.4,159.94L583.56,166.13L584.71,164.37L585.86,177.51L587.02,174.43L588.17,170.44L589.32,175L591.63,175.2L592.78,178.33L593.94,181.16L595.09,181.24L597.4,175.88L598.55,178.18L600.86,176.4L602.01,169.96L603.16,176.96L604.32,168.36L606.62,174.46L607.78,170.88L608.93,170.93L610.08,168.57L611.24,164.36L612.39,156.07L613.54,162.15L614.69,164.19L615.85,161.08L617,153.03L618.15,160L619.31,158L620.46,159.22L621.61,164.52L622.77,105.05L623.92,159.57L625.07,159.8L626.23,157.73L627.38,166.17L628.53,162.31L629.69,159.29L630.84,160.4L631.99,167.22L633.15,168.08L634.3,167.76L635.45,162.59L636.61,168.56L637.76,164.61L638.91,169.94L640.07,163.83L641.22,165.42L642.37,169.44L643.53,168.03L644.68,115.76L646.99,153.51L648.14,138.44L649.29,160.06L650.45,160.5L651.6,109.93L652.75,155.5L653.91,155.11L655.06,167.4L656.21,164.24L657.37,153.75L658.52,168.52L659.67,171.37L663.13,180.94L664.29,182.79L665.44,177.51L666.59,190.07L667.75,191.98L668.9,198.13L670.05,205.02L671.21,204.47L674.67,221L675.82,223.06L680.43,233.79L681.58,234.23L682.74,223.91L683.89,232.11L685.04,234.82L686.2,232.46L687.35,241.48L688.5,229.66L690.81,239.64L691.96,238.72L693.12,237.08L694.27,228.58L695.42,225.36L696.58,231.79L697.73,221.43L698.88,231.64L701.19,227.68L702.34,221.36L704.65,211.31L705.8,201.57L706.96,177.92L708.11,193.81L710.42,170.87L711.57,176.14L712.72,160.28L713.88,162.65L715.03,131.28L716.18,168.87L717.34,156.25L718.49,119.94L720.8,167.99L721.95,149.29L723.1,154.95L724.26,126.18L726.56,161.78L727.72,162.05L728.87,153.71L730.02,165.29L731.18,169.31L732.33,154.51L733.48,41.64L734.64,132.42L735.79,145.8L736.94,109.1L738.1,154.77L739.25,164.69L740.4,168.86L741.56,160.77L742.71,167.94L743.86,162.21L745.01,168.6L746.17,168.02L747.32,168.91L748.47,171.79L749.63,171.33L750.78,168.22L753.09,170.78L754.24,172.21L755.39,165.62L756.55,168.27L757.7,169.88L758.85,167.91L761.16,157.15L762.31,163.58L763.47,169.15L764.62,166.18L766.93,172.4L768.08,171.71L769.23,175.24L770.39,171.62L771.54,173.2L772.69,178.28L773.85,182.09L775,180.99" style="vector-effect: non-scaling-stroke; fill: none; stroke: rgb(76, 120, 168); stroke-opacity: 1; stroke-width: 3px; opacity: 1;"/></g><g class="points"/><g class="text"/></g><g class="trace scatter trace3c863b" style="stroke-miterlimit: 2; opacity: 1;"><g class="fills"/><g class="errorbars"/><g class="lines"><path class="js-line" d="M0,174.36L2.31,176.52L3.46,188.4L4.61,198.94L5.77,198.55L8.07,213.11L9.23,215.66L11.53,222.86L12.69,224.11L13.84,221.87L14.99,226.45L17.3,225.03L18.45,232.65L19.61,232.79L20.76,234.67L21.91,233.55L23.07,237.89L24.22,237.75L25.37,240.14L26.53,232.05L27.68,237.32L28.83,232.68L29.99,236.27L31.14,230.77L32.29,235.04L34.6,229.72L35.75,211.65L36.9,225.37L38.06,221.49L40.36,207.9L41.52,202.85L42.67,199.32L43.82,191.97L44.98,189.27L46.13,180.69L48.44,174.65L49.59,173.48L50.74,163.63L51.9,163.87L53.05,165.05L54.2,164.93L55.36,167.12L56.51,163.87L58.82,168.78L59.97,158.69L62.28,161.34L63.43,166.91L64.58,151.19L65.74,157.98L66.89,161.26L68.04,161.5L69.2,151.14L70.35,150.63L71.5,162.24L72.66,154.55L74.96,147.49L76.12,147.92L77.27,130.92L78.42,158.45L79.58,160.34L80.73,158.86L81.88,155.03L83.04,156.95L84.19,160.63L85.34,161L86.5,161.82L87.65,165.43L88.8,162.12L89.96,161.64L91.11,161.93L92.26,161.41L94.57,158.83L95.72,157.47L96.88,162.2L98.03,159.23L99.18,158.35L100.33,165.05L101.49,164.69L102.64,167.73L103.79,164.7L104.95,168.33L106.1,167.44L107.25,169.17L108.41,171.41L109.56,176.26L111.87,165.65L113.02,172.06L114.17,179.26L115.33,191.63L116.48,196.52L117.63,205.46L119.94,210.56L121.09,211.26L122.25,210.84L123.4,188.54L124.55,217.85L125.71,219.54L126.86,218.26L128.01,219.14L129.17,226.86L130.32,228.6L131.47,219.33L132.63,221.58L133.78,234.85L134.93,231.59L136.09,234.68L137.24,233.71L139.55,238.02L140.7,233.77L141.85,224.77L143.01,231.09L144.16,228.52L145.31,229.92L146.47,223.06L147.62,224.07L149.93,213.77L151.08,213.57L152.23,210.16L153.39,203.7L156.85,185.68L158,182.32L160.31,174.27L161.46,164.57L163.76,155.61L164.92,104.09L166.07,113.75L167.22,161.87L168.38,150.14L169.53,158.93L170.68,146.15L171.84,163.85L174.14,156.47L175.3,151.35L176.45,152.89L177.6,146.18L178.76,157.56L179.91,151.05L182.22,155.82L183.37,150.44L184.52,155.21L185.68,150.93L186.83,154.83L187.98,153.76L190.29,161.76L191.44,158.44L192.6,149.83L193.75,159.76L194.9,161.56L196.06,158.29L197.21,155.87L198.36,158.26L199.52,157.1L200.67,157.81L201.82,160.99L202.98,159.52L204.13,159.55L205.28,160.36L206.44,153.62L207.59,151.6L208.74,163.35L209.9,162.03L211.05,160.92L212.2,162.14L213.36,162.33L214.51,164.49L215.66,163.16L216.82,165.31L217.97,165.41L219.12,168.37L220.28,172.95L221.43,157.67L223.74,170.04L224.89,159.54L226.04,187.88L227.19,197.17L228.35,197.5L229.5,200.68L230.65,206.22L231.81,205.12L234.11,193.58L235.27,208.17L236.42,199.63L237.57,212L238.73,204.87L239.88,202.54L241.03,223.51L242.19,217.57L243.34,221.74L244.49,228.86L245.65,228.02L246.8,215.39L247.95,224.22L249.11,226.06L251.41,211.37L252.57,226.08L253.72,229.69L254.87,226.91L256.03,227.74L257.18,219.2L258.33,222.06L259.49,218.27L260.64,213.34L261.79,212.22L265.25,198.23L266.41,193.2L268.71,174.06L269.87,132.93L271.02,165.67L272.17,156.55L274.48,117.76L275.63,163.45L276.79,151.12L277.94,90.48L280.25,157.77L281.4,141.1L282.55,139.56L283.71,151.22L284.86,162.88L286.01,145.83L288.32,156.18L289.47,150.94L290.63,143.35L291.78,151.23L292.93,154.73L294.08,126.55L295.24,156.63L296.39,153.89L297.54,153.89L298.7,156.14L301,161.98L302.16,138.84L303.31,117.55L304.46,156.3L306.77,149.26L307.92,152.09L309.08,162.35L310.23,162.65L311.38,158.38L312.54,163.38L313.69,163.51L314.84,160.14L317.15,159.01L318.3,164.92L320.61,165.74L321.76,162.94L322.92,164.02L324.07,166.98L325.22,168.62L326.38,168.66L327.53,163.72L328.68,162.94L329.84,170.74L330.99,169.05L333.3,153.3L334.45,160.35L336.76,189.55L337.91,199.04L339.06,198.22L340.22,201.91L341.37,203.82L342.52,199.59L343.68,204.06L344.83,204.77L345.98,203.63L347.14,195.44L348.29,201.05L349.44,196.59L350.6,200.9L351.75,185.28L352.9,182.57L354.06,212.46L356.36,225.05L357.51,222.28L358.67,220.14L359.82,228L360.97,223.54L362.13,222.24L363.28,208.37L364.43,212.23L365.59,212.25L366.74,210.32L367.89,212.12L369.05,207.97L371.35,206.98L372.51,205.11L374.81,196.39L375.97,195.5L378.27,184.96L379.43,175.13L380.58,175.33L381.73,173.69L382.89,141.25L384.04,138.36L385.19,160.8L386.35,160.5L387.5,156.61L388.65,164.46L389.81,170.42L390.96,168.19L392.11,157.2L393.27,158.12L394.42,163.29L395.57,163.98L396.73,152.02L397.88,152.18L400.19,161.09L401.34,143.41L402.49,130.8L403.65,126.69L404.8,152.86L405.95,148.7L407.11,148.45L408.26,152.57L410.57,143.61L411.72,126.77L412.87,157.26L414.03,148.53L415.18,131.02L416.33,154.11L417.49,158.96L418.64,158.29L419.79,157.08L420.94,163.72L422.1,165.35L423.25,156.47L424.4,162.24L425.56,158.53L426.71,143.35L427.86,146.26L429.02,153.06L430.17,153.42L431.32,163.91L432.48,162.79L433.63,167.35L434.78,167.31L435.94,167.79L437.09,167.37L438.24,152.14L439.4,165.09L440.55,171.93L441.7,170.48L442.86,167.05L444.01,168.55L445.16,179.22L446.32,143.11L448.62,198.49L449.78,192.3L452.08,210.46L453.24,205.84L454.39,202.77L455.54,208.45L456.7,218.38L457.85,216.01L459,218.29L460.16,211.73L462.46,217.35L463.62,218.16L464.77,222.17L465.92,222.63L467.08,224.73L468.23,165.07L469.38,224.18L470.54,224.12L471.69,209.26L472.84,210.01L474,191.11L475.15,225.63L476.3,205.97L477.46,219.06L478.61,220.08L479.76,215.21L480.92,214.57L482.07,201.15L483.22,206.51L484.38,197.07L485.53,189.71L486.68,190.67L487.83,189.95L488.99,161.62L490.14,175.71L491.29,174.77L492.45,166.77L493.6,132.53L494.75,148.56L495.91,153.91L497.06,160.99L498.21,157.17L499.37,163.87L500.52,164.81L502.83,160.7L503.98,160.36L505.13,161.31L506.29,164.79L508.59,145.82L509.75,114.9L510.9,156.62L512.05,137.99L513.21,77.11L514.36,99.69L516.67,146.59L517.82,142.89L518.97,90.11L520.13,162.87L521.28,146.33L522.43,149.85L523.59,159.9L524.74,150.62L525.89,167.72L527.05,150.97L528.2,116.64L529.35,154.03L530.51,153.03L531.66,156.52L532.81,138.51L533.97,155.82L535.12,166.24L536.27,154.17L537.43,121.89L538.58,147.74L539.73,164.11L540.89,161.3L542.04,162.66L543.19,159.2L544.35,161.33L545.5,158.39L546.65,153.19L547.81,168.75L548.96,153.88L550.11,163.02L551.26,166.67L552.42,166.17L554.72,160.37L555.88,160.19L557.03,164.34L558.18,172.89L559.34,172.01L560.49,172.89L561.64,168.73L562.8,177.14L563.95,172.64L565.1,159.81L566.26,156.57L567.41,169.73L568.56,165.12L569.72,131.91L570.87,162.61L572.02,122.35L573.18,127.62L574.33,147.24L575.48,139.58L576.64,145.26L577.79,154.77L578.94,155.14L580.1,157.78L581.25,152.22L582.4,139.61L583.56,162.15L584.71,158.09L585.86,164.48L587.02,171.87L588.17,168.14L589.32,168.73L590.48,167.67L591.63,170.17L592.78,170.46L593.94,171.02L595.09,175.19L598.55,171.61L599.7,168.93L600.86,168.26L602.01,169.17L604.32,164.24L605.47,159.6L607.78,164.73L608.93,164.29L610.08,167L611.24,166.44L612.39,166.66L613.54,154.79L615.85,163.04L617,162.67L618.15,150.11L619.31,155.74L620.46,155.6L621.61,157.38L622.77,156.54L623.92,126.19L625.07,159.7L626.23,154.34L627.38,149.92L628.53,159.11L629.69,152.88L630.84,156.27L631.99,156.8L633.15,162.84L634.3,162.4L635.45,159.37L637.76,164.42L638.91,160.85L641.22,164.6L642.37,164.42L643.53,165.9L644.68,163L645.83,137.65L646.99,154.2L648.14,155.17L649.29,144.67L650.45,164.34L651.6,160.89L652.75,137.1L653.91,162.14L655.06,157.59L656.21,165.53L657.37,164.35L658.52,160.04L659.67,168.86L660.83,165.03L663.13,176.4L664.29,170.35L665.44,176.1L666.59,173.74L670.05,199.52L671.21,205.5L672.36,205.57L673.51,211.21L675.82,216.64L676.97,217.86L678.13,217.79L679.28,219.33L681.58,221.13L682.74,228.6L683.89,222.43L685.04,226.75L686.2,226.72L687.35,229.6L688.5,234.4L689.66,226.44L691.96,235.27L693.12,233.25L694.27,232.78L695.42,226.41L696.58,230.04L697.73,230.94L698.88,223.39L700.04,228.91L705.8,210.02L706.96,201.38L708.11,188.15L709.26,195.34L711.57,174.5L712.72,177.31L716.18,142.04L717.34,164.53L718.49,155.63L719.64,138.14L721.95,165.6L723.1,157.39L724.26,154.13L725.41,142.25L726.56,157.58L727.72,161.62L728.87,151.64L730.02,153.18L732.33,163.33L733.48,149.44L734.64,94.51L735.79,150.27L736.94,146.5L738.1,122.26L739.25,157.26L740.4,153.32L741.56,160.81L742.71,156.45L743.86,163.96L745.01,161.95L746.17,157.57L747.32,166.4L748.47,164.04L749.63,164.45L750.78,164.33L751.93,167.88L755.39,167.38L756.55,164.2L757.7,165.54L758.85,165.38L760.01,163.28L761.16,165.63L762.31,162.77L763.47,166.42L764.62,168.28L765.77,166.59L768.08,172.03L769.23,172.69L771.54,171.54L772.69,174.74L773.85,178.54L775,174.01" style="vector-effect: non-scaling-stroke; fill: none; stroke: rgb(255, 127, 14); stroke-opacity: 0.7; stroke-width: 3px; opacity: 1;"/></g><g class="points"/><g class="text"/></g></g></g><g class="overplot"/><path class="xlines-above crisp" d="M0,0" style="fill: none;"/><path class="ylines-above crisp" d="M74,50V310" style="fill: none; stroke-width: 2px; stroke: rgb(0, 0, 0); stroke-opacity: 1;"/><g class="overlines-above"/><g class="xaxislayer-above"><g class="xtick"><text text-anchor="middle" x="0" y="330" transform="translate(158.04000000000002,0)" style="font-family: 'Open Sans', verdana, arial, sans-serif; font-size: 19px; fill: rgb(42, 63, 95); fill-opacity: 1; white-space: pre; opacity: 1;"><tspan class="line" dy="0em" x="0" y="330">May 31</tspan><tspan class="line" dy="1.3em" x="0" y="330">2019</tspan></text></g><g class="xtick"><text text-anchor="middle" x="0" y="330" style="font-family: 'Open Sans', verdana, arial, sans-serif; font-size: 19px; fill: rgb(42, 63, 95); fill-opacity: 1; white-space: pre; opacity: 1;" transform="translate(268.75,0)">Jun 1</text></g><g class="xtick"><text text-anchor="middle" x="0" y="330" style="font-family: 'Open Sans', verdana, arial, sans-serif; font-size: 19px; fill: rgb(42, 63, 95); fill-opacity: 1; white-space: pre; opacity: 1;" transform="translate(379.46,0)">Jun 2</text></g><g class="xtick"><text text-anchor="middle" x="0" y="330" style="font-family: 'Open Sans', verdana, arial, sans-serif; font-size: 19px; fill: rgb(42, 63, 95); fill-opacity: 1; white-space: pre; opacity: 1;" transform="translate(490.18,0)">Jun 3</text></g><g class="xtick"><text text-anchor="middle" x="0" y="330" style="font-family: 'Open Sans', verdana, arial, sans-serif; font-size: 19px; fill: rgb(42, 63, 95); fill-opacity: 1; white-space: pre; opacity: 1;" transform="translate(600.89,0)">Jun 4</text></g><g class="xtick"><text text-anchor="middle" x="0" y="330" style="font-family: 'Open Sans', verdana, arial, sans-serif; font-size: 19px; fill: rgb(42, 63, 95); fill-opacity: 1; white-space: pre; opacity: 1;" transform="translate(711.61,0)">Jun 5</text></g><g class="xtick"><text text-anchor="middle" x="0" y="330" style="font-family: 'Open Sans', verdana, arial, sans-serif; font-size: 19px; fill: rgb(42, 63, 95); fill-opacity: 1; white-space: pre; opacity: 1;" transform="translate(822.32,0)">Jun 6</text></g></g><g class="yaxislayer-above"><g class="ytick"><text text-anchor="end" x="69.2" y="6.6499999999999995" transform="translate(0,284.98)" style="font-family: 'Open Sans', verdana, arial, sans-serif; font-size: 19px; fill: rgb(42, 63, 95); fill-opacity: 1; white-space: pre; opacity: 1;">−2</text></g><g class="ytick"><text text-anchor="end" x="69.2" y="6.6499999999999995" style="font-family: 'Open Sans', verdana, arial, sans-serif; font-size: 19px; fill: rgb(42, 63, 95); fill-opacity: 1; white-space: pre; opacity: 1;" transform="translate(0,223.25)">0</text></g><g class="ytick"><text text-anchor="end" x="69.2" y="6.6499999999999995" style="font-family: 'Open Sans', verdana, arial, sans-serif; font-size: 19px; fill: rgb(42, 63, 95); fill-opacity: 1; white-space: pre; opacity: 1;" transform="translate(0,161.53)">2</text></g><g class="ytick"><text text-anchor="end" x="69.2" y="6.6499999999999995" style="font-family: 'Open Sans', verdana, arial, sans-serif; font-size: 19px; fill: rgb(42, 63, 95); fill-opacity: 1; white-space: pre; opacity: 1;" transform="translate(0,99.8)">4</text></g></g><g class="overaxes-above"/></g></g><g class="polarlayer"/><g class="ternarylayer"/><g class="geolayer"/><g class="funnelarealayer"/><g class="pielayer"/><g class="iciclelayer"/><g class="treemaplayer"/><g class="sunburstlayer"/><g class="glimages"/><defs id="topdefs-bf3c98"><g class="clips"/></defs><g class="layer-above"><g class="imagelayer"/><g class="shapelayer"/></g><g class="infolayer"><g class="g-gtitle"/><g class="g-xtitle"/><g class="g-ytitle" transform="translate(12.537109375,0)"><text class="ytitle" transform="rotate(-90,10.462500000000006,180)" x="10.462500000000006" y="180" text-anchor="middle" style="font-family: 'Open Sans', verdana, arial, sans-serif; font-size: 23px; fill: rgb(42, 63, 95); opacity: 1; font-weight: normal; white-space: pre;">Netload [kW]</text></g></g></svg>