<svg class="main-svg" xmlns="http://www.w3.org/2000/svg" xmlns:xlink="http://www.w3.org/1999/xlink" width="800" height="500" viewBox="0 0 800 500"><rect x="0" y="0" width="800" height="500" style="fill: rgb(255, 255, 255); fill-opacity: 1;"/><defs id="defs-a5d53a"><g class="clips"><clipPath id="clipa5d53axyplot" class="plotclip"><rect width="684" height="385"/></clipPath><clipPath class="axesclip" id="clipa5d53ax"><rect x="66" y="0" width="684" height="500"/></clipPath><clipPath class="axesclip" id="clipa5d53ay"><rect x="0" y="50" width="800" height="385"/></clipPath><clipPath class="axesclip" id="clipa5d53axy"><rect x="66" y="50" width="684" height="385"/></clipPath></g><g class="gradients"/><g class="patterns"/></defs><g class="bglayer"/><g class="layer-below"><g class="imagelayer"/><g class="shapelayer"/></g><g class="cartesianlayer"><g class="subplot xy"><g class="layer-subplot"><g class="shapelayer"/><g class="imagelayer"/></g><g class="gridlayer"><g class="x"><path class="xgrid crisp" transform="translate(180,0)" d="M0,50v385" style="stroke: rgb(235, 240, 248); stroke-opacity: 1; stroke-width: 1px;"/><path class="xgrid crisp" transform="translate(294,0)" d="M0,50v385" style="stroke: rgb(235, 240, 248); stroke-opacity: 1; stroke-width: 1px;"/><path class="xgrid crisp" transform="translate(408,0)" d="M0,50v385" style="stroke: rgb(235, 240, 248); stroke-opacity: 1; stroke-width: 1px;"/><path class="xgrid crisp" transform="translate(522,0)" d="M0,50v385" style="stroke: rgb(235, 240, 248); stroke-opacity: 1; stroke-width: 1px;"/><path class="xgrid crisp" transform="translate(636,0)" d="M0,50v385" style="stroke: rgb(235, 240, 248); stroke-opacity: 1; stroke-width: 1px;"/></g><g class="y"><path class="ygrid crisp" transform="translate(0,405.83)" d="M66,0h684" style="stroke: rgb(235, 240, 248); stroke-opacity: 1; stroke-width: 1px;"/><path class="ygrid crisp" transform="translate(0,376.67)" d="M66,0h684" style="stroke: rgb(235, 240, 248); stroke-opacity: 1; stroke-width: 1px;"/><path class="ygrid crisp" transform="translate(0,347.5)" d="M66,0h684" style="stroke: rgb(235, 240, 248); stroke-opacity: 1; stroke-width: 1px;"/><path class="ygrid crisp" transform="translate(0,318.33)" d="M66,0h684" style="stroke: rgb(235, 240, 248); stroke-opacity: 1; stroke-width: 1px;"/><path class="ygrid crisp" transform="translate(0,289.16999999999996)" d="M66,0h684" style="stroke: rgb(235, 240, 248); stroke-opacity: 1; stroke-width: 1px;"/><path class="ygrid crisp" transform="translate(0,260)" d="M66,0h684" style="stroke: rgb(235, 240, 248); stroke-opacity: 1; stroke-width: 1px;"/><path class="ygrid crisp" transform="translate(0,230.83)" d="M66,0h684" style="stroke: rgb(235, 240, 248); stroke-opacity: 1; stroke-width: 1px;"/><path class="ygrid crisp" transform="translate(0,201.67)" d="M66,0h684" style="stroke: rgb(235, 240, 248); stroke-opacity: 1; stroke-width: 1px;"/><path class="ygrid crisp" transform="translate(0,172.5)" d="M66,0h684" style="stroke: rgb(235, 240, 248); stroke-opacity: 1; stroke-width: 1px;"/><path class="ygrid crisp" transform="translate(0,143.32999999999998)" d="M66,0h684" style="stroke: rgb(235, 240, 248); stroke-opacity: 1; stroke-width: 1px;"/><path class="ygrid crisp" transform="translate(0,114.17)" d="M66,0h684" style="stroke: rgb(235, 240, 248); stroke-opacity: 1; stroke-width: 1px;"/><path class="ygrid crisp" transform="translate(0,85)" d="M66,0h684" style="stroke: rgb(235, 240, 248); stroke-opacity: 1; stroke-width: 1px;"/><path class="ygrid crisp" transform="translate(0,55.83)" d="M66,0h684" style="stroke: rgb(235, 240, 248); stroke-opacity: 1; stroke-width: 1px;"/></g></g><g class="zerolinelayer"><path class="xzl zl crisp" transform="translate(66,0)" d="M0,50v385" style="stroke: rgb(0, 0, 0); stroke-opacity: 1; stroke-width: 2px;"/><path class="yzl zl crisp" transform="translate(0,435)" d="M66,0h684" style="stroke: rgb(0, 0, 0); stroke-opacity: 1; stroke-width: 2px;"/></g><path class="xlines-below"/><path class="ylines-below"/><g class="overlines-below"/><g class="xaxislayer-below"/><g class="yaxislayer-below"/><g class="overaxes-below"/><g class="plot" transform="translate(66,50)" clip-path="url(#clipa5d53axyplot)"><g class="scatterlayer mlayer"><g class="trace scatter trace9489d4" style="stroke-miterlimit: 2;"><g class="fills"><g><path class="js-fill" d="M11.4,206.49L17.1,206.29L22.8,283.78L28.5,232.92L34.2,302.4L39.9,281.1L45.6,308.9L51.3,203.93L57,267.15L62.7,332.16L68.4,262.81L74.1,232.43L79.8,247.22L85.5,253.26L91.2,304.45L96.9,244.67L102.6,295.88L108.3,181.1L114,151.06L119.7,300.04L125.4,338.54L136.8,300.09L142.5,287.24L148.2,205.72L153.9,246.53L159.6,259.94L165.3,282.6L171,286.06L176.7,325.95L182.4,296.07L188.1,278.6L193.8,233.43L199.5,271.02L205.2,285.26L210.9,282.05L216.6,239.23L222.3,272L228,260.09L233.7,233.49L239.4,318.54L245.1,306.02L250.8,234.74L256.5,243.27L262.2,255.11L267.9,311.94L273.6,263.98L279.3,287.91L285,312.94L290.7,231.07L296.4,299.83L302.1,271.81L307.8,258.62L313.5,257.55L319.2,283.17L324.9,282.35L330.6,303.75L336.3,249.06L342,278.96L347.7,220.8L353.4,315.71L359.1,255.42L364.8,283.56L370.5,257.43L376.2,306.19L381.9,285.71L387.6,304.97L393.3,254.5L399,285.09L404.7,257.19L410.4,269.36L416.1,311.29L421.8,271.36L427.5,272.11L433.2,255.56L438.9,250.01L444.6,277.35L450.3,279.47L456,304.97L461.7,290.29L467.4,294.86L473.1,279.21L478.8,258.66L484.5,278.81L490.2,273.03L495.9,291.55L501.6,293.65L507.3,291.75L513,273.91L518.7,267.64L524.4,240.83L530.1,285.79L535.8,245.04L541.5,244.2L547.2,279.34L552.9,259.17L558.6,284.09L564.3,294.56L570,251.57L575.7,287.21L581.4,273.99L587.1,240.65L592.8,274.14L598.5,265.73L604.2,279.89L609.9,268.84L615.6,274.13L621.3,291.96L627,270.39L632.7,283.27L638.4,255.59L644.1,276.59L649.8,258.04L655.5,259.01L661.2,271.65L666.9,273.27L672.6,264.75L678.3,265.3L684,275.52L684,264.19L678.3,255.87L672.6,254.36L666.9,263.38L661.2,261.53L655.5,248.72L649.8,247.31L644.1,266.65L638.4,245.91L632.7,272.19L627,260.73L621.3,280.11L615.6,263.91L609.9,258.14L604.2,268.99L598.5,255.96L592.8,262.57L587.1,230.41L581.4,263.25L575.7,276.11L570,242.15L564.3,283.25L558.6,273.14L552.9,249.59L547.2,269.04L541.5,234.73L535.8,235.35L530.1,274.2L524.4,231.09L518.7,257.32L513,264.43L507.3,281L501.6,283.07L495.9,280.55L490.2,263.19L484.5,267.66L478.8,248.29L473.1,268.84L467.4,282.67L461.7,277.8L456,292.44L450.3,269.19L444.6,266.24L438.9,239.9L433.2,243.33L427.5,261.39L421.8,259.72L416.1,298.05L410.4,258.67L404.7,247.39L399,274.36L393.3,245.49L387.6,293.56L381.9,275.22L376.2,291.42L370.5,248.98L364.8,272.02L359.1,246.12L353.4,301.99L347.7,210.93L342,268.9L336.3,237.42L330.6,292.34L324.9,269.55L319.2,270.76L313.5,247.69L307.8,248.26L302.1,261.47L296.4,289.54L290.7,219.97L285,298.1L273.6,253.84L267.9,300.54L262.2,243.13L256.5,233.08L250.8,225.34L245.1,293.28L239.4,304.41L233.7,223.09L228,250.38L222.3,261.06L216.6,229.88L210.9,268.4L205.2,271.4L199.5,260.46L193.8,221.46L188.1,267.04L182.4,277.31L176.7,311.82L171,276.09L165.3,272.69L159.6,248.48L153.9,237.21L148.2,193.89L142.5,271.51L136.8,282.65L131.1,305.82L125.4,325.56L119.7,286.18L114,139.55L108.3,164.39L102.6,281.9L96.9,233.71L91.2,290.88L85.5,234.72L79.8,231.72L74.1,223.57L68.4,248.07L62.7,317.04L57,249.8L51.3,176.79L45.6,289.37L39.9,268.25L34.2,280.81L28.5,216.06L22.8,264.62L17.1,190.76L11.4,192.33Z" style="fill: rgb(55, 128, 191); fill-opacity: 0.2; stroke-width: 0;"/></g></g><g class="errorbars"/><g class="lines"><path class="js-line" d="M11.4,192.33L17.1,190.76L22.8,264.62L28.5,216.06L34.2,280.81L39.9,268.25L45.6,289.37L51.3,176.79L57,249.8L62.7,317.04L68.4,248.07L74.1,223.57L79.8,231.72L85.5,234.72L91.2,290.88L96.9,233.71L102.6,281.9L108.3,164.39L114,139.55L119.7,286.18L125.4,325.56L131.1,305.82L136.8,282.65L142.5,271.51L148.2,193.89L153.9,237.21L159.6,248.48L165.3,272.69L171,276.09L176.7,311.82L182.4,277.31L188.1,267.04L193.8,221.46L199.5,260.46L205.2,271.4L210.9,268.4L216.6,229.88L222.3,261.06L228,250.38L233.7,223.09L239.4,304.41L245.1,293.28L250.8,225.34L256.5,233.08L262.2,243.13L267.9,300.54L273.6,253.84L285,298.1L290.7,219.97L296.4,289.54L302.1,261.47L307.8,248.26L313.5,247.69L319.2,270.76L324.9,269.55L330.6,292.34L336.3,237.42L342,268.9L347.7,210.93L353.4,301.99L359.1,246.12L364.8,272.02L370.5,248.98L376.2,291.42L381.9,275.22L387.6,293.56L393.3,245.49L399,274.36L404.7,247.39L410.4,258.67L416.1,298.05L421.8,259.72L427.5,261.39L433.2,243.33L438.9,239.9L444.6,266.24L450.3,269.19L456,292.44L461.7,277.8L467.4,282.67L473.1,268.84L478.8,248.29L484.5,267.66L490.2,263.19L495.9,280.55L501.6,283.07L507.3,281L513,264.43L518.7,257.32L524.4,231.09L530.1,274.2L535.8,235.35L541.5,234.73L547.2,269.04L552.9,249.59L558.6,273.14L564.3,283.25L570,242.15L575.7,276.11L581.4,263.25L587.1,230.41L592.8,262.57L598.5,255.96L604.2,268.99L609.9,258.14L615.6,263.91L621.3,280.11L627,260.73L632.7,272.19L638.4,245.91L644.1,266.65L649.8,247.31L655.5,248.72L661.2,261.53L666.9,263.38L672.6,254.36L678.3,255.87L684,264.19" style="vector-effect: non-scaling-stroke; fill: none; stroke: rgb(76, 120, 168); stroke-opacity: 1; stroke-width: 2px; opacity: 1;"/></g><g class="points"/><g class="text"/></g><g class="trace scatter trace3891ee" style="stroke-miterlimit: 2;"><g class="fills"><g><path class="js-fill" d="M11.4,65.8L17.1,66.58L22.8,146.54L28.5,88.54L34.2,168.64L39.9,144.63L45.6,172.07L51.3,65.73L57,125.99L62.7,207.76L68.4,124.86L74.1,90.55L79.8,105.96L85.5,116.29L91.2,165.87L96.9,106.67L102.6,157.8L108.3,43.79L114,11.12L119.7,162.69L125.4,213.06L131.1,183.53L136.8,162.14L142.5,151.38L148.2,66.26L153.9,108.82L159.6,120.71L165.3,144.92L171,147.07L176.7,191.88L182.4,159.04L188.1,140.76L193.8,95.66L199.5,132.6L205.2,149.52L210.9,143.69L216.6,100.56L222.3,135.64L228,121.15L233.7,94.71L239.4,181.11L245.1,168.76L250.8,95.21L256.5,102.9L262.2,117.62L267.9,174.78L273.6,126.26L285,176.45L290.7,93.6L296.4,162.33L302.1,134.84L307.8,120.42L313.5,120.52L319.2,145.64L324.9,144.57L330.6,166.55L336.3,111.23L342,141.71L347.7,83.01L353.4,179.8L359.1,116.61L364.8,146.43L370.5,119.31L376.2,170L381.9,148.12L387.6,167.49L393.3,116.51L399,146.56L404.7,119.29L410.4,132.23L416.1,174.22L421.8,133.73L427.5,135.47L433.2,118.31L438.9,113.28L444.6,139.59L450.3,142.12L456,167.56L461.7,153.56L467.4,157.92L473.1,142.12L478.8,122.25L484.5,140.42L490.2,134.78L495.9,154.86L501.6,156.36L507.3,153.57L513,135.63L518.7,130.78L524.4,103.55L530.1,148.32L535.8,107.41L541.5,105.77L547.2,141.67L552.9,121.36L558.6,147.79L564.3,157.76L570,113.69L575.7,150.66L581.4,136.53L587.1,103.04L592.8,136.6L598.5,128.81L604.2,141.77L609.9,131.6L615.6,136.74L621.3,155.4L627,132.57L632.7,146.71L638.4,118.11L644.1,139.6L649.8,120.22L655.5,121.44L661.2,133.69L666.9,135.64L672.6,127.66L678.3,127.76L684,138.18L684,275.52L678.3,265.3L672.6,264.75L666.9,273.27L661.2,271.65L655.5,259.01L649.8,258.04L644.1,276.59L638.4,255.59L632.7,283.27L627,270.39L621.3,291.96L615.6,274.13L609.9,268.84L604.2,279.89L598.5,265.73L592.8,274.14L587.1,240.65L581.4,273.99L575.7,287.21L570,251.57L564.3,294.56L558.6,284.09L552.9,259.17L547.2,279.34L541.5,244.2L535.8,245.04L530.1,285.79L524.4,240.83L518.7,267.64L513,273.91L507.3,291.75L501.6,293.65L495.9,291.55L490.2,273.03L484.5,278.81L478.8,258.66L473.1,279.21L467.4,294.86L461.7,290.29L456,304.97L450.3,279.47L444.6,277.35L438.9,250.01L433.2,255.56L427.5,272.11L421.8,271.36L416.1,311.29L410.4,269.36L404.7,257.19L399,285.09L393.3,254.5L387.6,304.97L381.9,285.71L376.2,306.19L370.5,257.43L364.8,283.56L359.1,255.42L353.4,315.71L347.7,220.8L342,278.96L336.3,249.06L330.6,303.75L324.9,282.35L319.2,283.17L313.5,257.55L307.8,258.62L302.1,271.81L296.4,299.83L290.7,231.07L285,312.94L279.3,287.91L273.6,263.98L267.9,311.94L262.2,255.11L256.5,243.27L250.8,234.74L245.1,306.02L239.4,318.54L233.7,233.49L228,260.09L222.3,272L216.6,239.23L210.9,282.05L205.2,285.26L199.5,271.02L193.8,233.43L188.1,278.6L182.4,296.07L176.7,325.95L171,286.06L165.3,282.6L159.6,259.94L153.9,246.53L148.2,205.72L142.5,287.24L136.8,300.09L125.4,338.54L119.7,300.04L114,151.06L108.3,181.1L102.6,295.88L96.9,244.67L91.2,304.45L85.5,253.26L79.8,247.22L74.1,232.43L68.4,262.81L62.7,332.16L57,267.15L51.3,203.93L45.6,308.9L39.9,281.1L34.2,302.4L28.5,232.92L22.8,283.78L17.1,206.29L11.4,206.49Z" style="fill: rgb(214, 39, 40); fill-opacity: 0.05; stroke-width: 0;"/></g></g><g class="errorbars"/><g class="lines"><path class="js-line" d="M11.4,206.49L17.1,206.29L22.8,283.78L28.5,232.92L34.2,302.4L39.9,281.1L45.6,308.9L51.3,203.93L57,267.15L62.7,332.16L68.4,262.81L74.1,232.43L79.8,247.22L85.5,253.26L91.2,304.45L96.9,244.67L102.6,295.88L108.3,181.1L114,151.06L119.7,300.04L125.4,338.54L136.8,300.09L142.5,287.24L148.2,205.72L153.9,246.53L159.6,259.94L165.3,282.6L171,286.06L176.7,325.95L182.4,296.07L188.1,278.6L193.8,233.43L199.5,271.02L205.2,285.26L210.9,282.05L216.6,239.23L222.3,272L228,260.09L233.7,233.49L239.4,318.54L245.1,306.02L250.8,234.74L256.5,243.27L262.2,255.11L267.9,311.94L273.6,263.98L279.3,287.91L285,312.94L290.7,231.07L296.4,299.83L302.1,271.81L307.8,258.62L313.5,257.55L319.2,283.17L324.9,282.35L330.6,303.75L336.3,249.06L342,278.96L347.7,220.8L353.4,315.71L359.1,255.42L364.8,283.56L370.5,257.43L376.2,306.19L381.9,285.71L387.6,304.97L393.3,254.5L399,285.09L404.7,257.19L410.4,269.36L416.1,311.29L421.8,271.36L427.5,272.11L433.2,255.56L438.9,250.01L444.6,277.35L450.3,279.47L456,304.97L461.7,290.29L467.4,294.86L473.1,279.21L478.8,258.66L484.5,278.81L490.2,273.03L495.9,291.55L501.6,293.65L507.3,291.75L513,273.91L518.7,267.64L524.4,240.83L530.1,285.79L535.8,245.04L541.5,244.2L547.2,279.34L552.9,259.17L558.6,284.09L564.3,294.56L570,251.57L575.7,287.21L581.4,273.99L587.1,240.65L592.8,274.14L598.5,265.73L604.2,279.89L609.9,268.84L615.6,274.13L621.3,291.96L627,270.39L632.7,283.27L638.4,255.59L644.1,276.59L649.8,258.04L655.5,259.01L661.2,271.65L666.9,273.27L672.6,264.75L678.3,265.3L684,275.52" style="vector-effect: non-scaling-stroke; fill: none; stroke: rgb(245, 133, 24); stroke-opacity: 1; stroke-width: 2px; opacity: 1;"/></g><g class="points"/><g class="text"/></g><g class="trace scatter traceafccb7" style="stroke-miterlimit: 2;"><g class="fills"/><g class="errorbars"/><g class="lines"><path class="js-line" d="M11.4,65.8L17.1,66.58L22.8,146.54L28.5,88.54L34.2,168.64L39.9,144.63L45.6,172.07L51.3,65.73L57,125.99L62.7,207.76L68.4,124.86L74.1,90.55L79.8,105.96L85.5,116.29L91.2,165.87L96.9,106.67L102.6,157.8L108.3,43.79L114,11.12L119.7,162.69L125.4,213.06L131.1,183.53L136.8,162.14L142.5,151.38L148.2,66.26L153.9,108.82L159.6,120.71L165.3,144.92L171,147.07L176.7,191.88L182.4,159.04L188.1,140.76L193.8,95.66L199.5,132.6L205.2,149.52L210.9,143.69L216.6,100.56L222.3,135.64L228,121.15L233.7,94.71L239.4,181.11L245.1,168.76L250.8,95.21L256.5,102.9L262.2,117.62L267.9,174.78L273.6,126.26L285,176.45L290.7,93.6L296.4,162.33L302.1,134.84L307.8,120.42L313.5,120.52L319.2,145.64L324.9,144.57L330.6,166.55L336.3,111.23L342,141.71L347.7,83.01L353.4,179.8L359.1,116.61L364.8,146.43L370.5,119.31L376.2,170L381.9,148.12L387.6,167.49L393.3,116.51L399,146.56L404.7,119.29L410.4,132.23L416.1,174.22L421.8,133.73L427.5,135.47L433.2,118.31L438.9,113.28L444.6,139.59L450.3,142.12L456,167.56L461.7,153.56L467.4,157.92L473.1,142.12L478.8,122.25L484.5,140.42L490.2,134.78L495.9,154.86L501.6,156.36L507.3,153.57L513,135.63L518.7,130.78L524.4,103.55L530.1,148.32L535.8,107.41L541.5,105.77L547.2,141.67L552.9,121.36L558.6,147.79L564.3,157.76L570,113.69L575.7,150.66L581.4,136.53L587.1,103.04L592.8,136.6L598.5,128.81L604.2,141.77L609.9,131.6L615.6,136.74L621.3,155.4L627,132.57L632.7,146.71L638.4,118.11L644.1,139.6L649.8,120.22L655.5,121.44L661.2,133.69L666.9,135.64L672.6,127.66L678.3,127.76L684,138.18" style="vector-effect: non-scaling-stroke; fill: none; stroke: rgb(228, 87, 86); stroke-opacity: 1; stroke-width: 2px; opacity: 1;"/></g><g class="points"/><g class="text"/></g></g></g><g class="overplot"/><path class="xlines-above crisp" d="M0,0" style="fill: none;"/><path class="ylines-above crisp" d="M0,0" style="fill: none;"/><g class="overlines-above"/><g class="xaxislayer-above"><g class="xtick"><text text-anchor="middle" x="0" y="455" transform="translate(66,0)" style="font-family: 'Open Sans', verdana, arial, sans-serif; font-size: 19px; fill: rgb(42, 63, 95); fill-opacity: 1; white-space: pre; opacity: 1;">0</text></g><g class="xtick"><text text-anchor="middle" x="0" y="455" style="font-family: 'Open Sans', verdana, arial, sans-serif; font-size: 19px; fill: rgb(42, 63, 95); fill-opacity: 1; white-space: pre; opacity: 1;" transform="translate(180,0)">20</text></g><g class="xtick"><text text-anchor="middle" x="0" y="455" style="font-family: 'Open Sans', verdana, arial, sans-serif; font-size: 19px; fill: rgb(42, 63, 95); fill-opacity: 1; white-space: pre; opacity: 1;" transform="translate(294,0)">40</text></g><g class="xtick"><text text-anchor="middle" x="0" y="455" style="font-family: 'Open Sans', verdana, arial, sans-serif; font-size: 19px; fill: rgb(42, 63, 95); fill-opacity: 1; white-space: pre; opacity: 1;" transform="translate(408,0)">60</text></g><g class="xtick"><text text-anchor="middle" x="0" y="455" style="font-family: 'Open Sans', verdana, arial, sans-serif; font-size: 19px; fill: rgb(42, 63, 95); fill-opacity: 1; white-space: pre; opacity: 1;" transform="translate(522,0)">80</text></g><g class="xtick"><text text-anchor="middle" x="0" y="455" style="font-family: 'Open Sans', verdana, arial, sans-serif; font-size: 19px; fill: rgb(42, 63, 95); fill-opacity: 1; white-space: pre; opacity: 1;" transform="translate(636,0)">100</text></g><g class="xtick"><text text-anchor="middle" x="0" y="455" style="font-family: 'Open Sans', verdana, arial, sans-serif; font-size: 19px; fill: rgb(42, 63, 95); fill-opacity: 1; white-space: pre; opacity: 1;" transform="translate(750,0)">120</text></g></g><g class="yaxislayer-above"><g class="ytick"><text text-anchor="end" x="65" y="6.6499999999999995" transform="translate(0,435)" style="font-family: 'Open Sans', verdana, arial, sans-serif; font-size: 19px; fill: rgb(42, 63, 95); fill-opacity: 1; white-space: pre; opacity: 1;">0</text></g><g class="ytick"><text text-anchor="end" x="65" y="6.6499999999999995" style="font-family: 'Open Sans', verdana, arial, sans-serif; font-size: 19px; fill: rgb(42, 63, 95); fill-opacity: 1; white-space: pre; opacity: 1;" transform="translate(0,405.83)">1</text></g><g class="ytick"><text text-anchor="end" x="65" y="6.6499999999999995" style="font-family: 'Open Sans', verdana, arial, sans-serif; font-size: 19px; fill: rgb(42, 63, 95); fill-opacity: 1; white-space: pre; opacity: 1;" transform="translate(0,376.67)">2</text></g><g class="ytick"><text text-anchor="end" x="65" y="6.6499999999999995" style="font-family: 'Open Sans', verdana, arial, sans-serif; font-size: 19px; fill: rgb(42, 63, 95); fill-opacity: 1; white-space: pre; opacity: 1;" transform="translate(0,347.5)">3</text></g><g class="ytick"><text text-anchor="end" x="65" y="6.6499999999999995" style="font-family: 'Open Sans', verdana, arial, sans-serif; font-size: 19px; fill: rgb(42, 63, 95); fill-opacity: 1; white-space: pre; opacity: 1;" transform="translate(0,318.33)">4</text></g><g class="ytick"><text text-anchor="end" x="65" y="6.6499999999999995" style="font-family: 'Open Sans', verdana, arial, sans-serif; font-size: 19px; fill: rgb(42, 63, 95); fill-opacity: 1; white-space: pre; opacity: 1;" transform="translate(0,289.16999999999996)">5</text></g><g class="ytick"><text text-anchor="end" x="65" y="6.6499999999999995" style="font-family: 'Open Sans', verdana, arial, sans-serif; font-size: 19px; fill: rgb(42, 63, 95); fill-opacity: 1; white-space: pre; opacity: 1;" transform="translate(0,260)">6</text></g><g class="ytick"><text text-anchor="end" x="65" y="6.6499999999999995" style="font-family: 'Open Sans', verdana, arial, sans-serif; font-size: 19px; fill: rgb(42, 63, 95); fill-opacity: 1; white-space: pre; opacity: 1;" transform="translate(0,230.83)">7</text></g><g class="ytick"><text text-anchor="end" x="65" y="6.6499999999999995" style="font-family: 'Open Sans', verdana, arial, sans-serif; font-size: 19px; fill: rgb(42, 63, 95); fill-opacity: 1; white-space: pre; opacity: 1;" transform="translate(0,201.67)">8</text></g><g class="ytick"><text text-anchor="end" x="65" y="6.6499999999999995" style="font-family: 'Open Sans', verdana, arial, sans-serif; font-size: 19px; fill: rgb(42, 63, 95); fill-opacity: 1; white-space: pre; opacity: 1;" transform="translate(0,172.5)">9</text></g><g class="ytick"><text text-anchor="end" x="65" y="6.6499999999999995" style="font-family: 'Open Sans', verdana, arial, sans-serif; font-size: 19px; fill: rgb(42, 63, 95); fill-opacity: 1; white-space: pre; opacity: 1;" transform="translate(0,143.32999999999998)">10</text></g><g class="ytick"><text text-anchor="end" x="65" y="6.6499999999999995" style="font-family: 'Open Sans', verdana, arial, sans-serif; font-size: 19px; fill: rgb(42, 63, 95); fill-opacity: 1; white-space: pre; opacity: 1;" transform="translate(0,114.17)">11</text></g><g class="ytick"><text text-anchor="end" x="65" y="6.6499999999999995" style="font-family: 'Open Sans', verdana, arial, sans-serif; font-size: 19px; fill: rgb(42, 63, 95); fill-opacity: 1; white-space: pre; opacity: 1;" transform="translate(0,85)">12</text></g><g class="ytick"><text text-anchor="end" x="65" y="6.6499999999999995" style="font-family: 'Open Sans', verdana, arial, sans-serif; font-size: 19px; fill: rgb(42, 63, 95); fill-opacity: 1; white-space: pre; opacity: 1;" transform="translate(0,55.83)">13</text></g></g><g class="overaxes-above"/></g></g><g class="polarlayer"/><g class="ternarylayer"/><g class="geolayer"/><g class="funnelarealayer"/><g class="pielayer"/><g class="iciclelayer"/><g class="treemaplayer"/><g class="sunburstlayer"/><g class="glimages"/><defs id="topdefs-a5d53a"><g class="clips"/></defs><g class="layer-above"><g class="imagelayer"/><g class="shapelayer"/></g><g class="infolayer"><g class="g-gtitle"/><g class="g-xtitle"><text class="xtitle" x="408" y="490.1" text-anchor="middle" style="font-family: 'Open Sans', verdana, arial, sans-serif; font-size: 23px; fill: rgb(42, 63, 95); opacity: 1; font-weight: normal; white-space: pre;">Community sizes [kWh]</text></g><g class="g-ytitle" transform="translate(13.271484375,0)"><text class="ytitle" transform="rotate(-90,9.728125000000006,242.5)" x="9.728125000000006" y="242.5" text-anchor="middle" style="font-family: 'Open Sans', verdana, arial, sans-serif; font-size: 23px; fill: rgb(42, 63, 95); opacity: 1; font-weight: normal; white-space: pre;">Cost [€/member]</text></g></g></svg>