<svg class="main-svg" xmlns="http://www.w3.org/2000/svg" xmlns:xlink="http://www.w3.org/1999/xlink" width="800" height="500" viewBox="0 0 800 500"><rect x="0" y="0" width="800" height="500" style="fill: rgb(255, 255, 255); fill-opacity: 1;"/><defs id="defs-66cf09"><g class="clips"><clipPath id="clip66cf09xyplot" class="plotclip"><rect width="684" height="385"/></clipPath><clipPath class="axesclip" id="clip66cf09x"><rect x="66" y="0" width="684" height="500"/></clipPath><clipPath class="axesclip" id="clip66cf09y"><rect x="0" y="50" width="800" height="385"/></clipPath><clipPath class="axesclip" id="clip66cf09xy"><rect x="66" y="50" width="684" height="385"/></clipPath></g><g class="gradients"/><g class="patterns"/></defs><g class="bglayer"/><g class="layer-below"><g class="imagelayer"/><g class="shapelayer"/></g><g class="cartesianlayer"><g class="subplot xy"><g class="layer-subplot"><g class="shapelayer"/><g class="imagelayer"/></g><g class="gridlayer"><g class="x"><path class="xgrid crisp" transform="translate(201.45,0)" d="M0,50v385" style="stroke: rgb(235, 240, 248); stroke-opacity: 1; stroke-width: 1px;"/><path class="xgrid crisp" transform="translate(336.89,0)" d="M0,50v385" style="stroke: rgb(235, 240, 248); stroke-opacity: 1; stroke-width: 1px;"/><path class="xgrid crisp" transform="translate(472.34,0)" d="M0,50v385" style="stroke: rgb(235, 240, 248); stroke-opacity: 1; stroke-width: 1px;"/><path class="xgrid crisp" transform="translate(607.78,0)" d="M0,50v385" style="stroke: rgb(235, 240, 248); stroke-opacity: 1; stroke-width: 1px;"/><path class="xgrid crisp" transform="translate(743.23,0)" d="M0,50v385" style="stroke: rgb(235, 240, 248); stroke-opacity: 1; stroke-width: 1px;"/></g><g class="y"><path class="ygrid crisp" transform="translate(0,405.83)" d="M66,0h684" style="stroke: rgb(235, 240, 248); stroke-opacity: 1; stroke-width: 1px;"/><path class="ygrid crisp" transform="translate(0,376.67)" d="M66,0h684" style="stroke: rgb(235, 240, 248); stroke-opacity: 1; stroke-width: 1px;"/><path class="ygrid crisp" transform="translate(0,347.5)" d="M66,0h684" style="stroke: rgb(235, 240, 248); stroke-opacity: 1; stroke-width: 1px;"/><path class="ygrid crisp" transform="translate(0,318.33)" d="M66,0h684" style="stroke: rgb(235, 240, 248); stroke-opacity: 1; stroke-width: 1px;"/><path class="ygrid crisp" transform="translate(0,289.16999999999996)" d="M66,0h684" style="stroke: rgb(235, 240, 248); stroke-opacity: 1; stroke-width: 1px;"/><path class="ygrid crisp" transform="translate(0,260)" d="M66,0h684" style="stroke: rgb(235, 240, 248); stroke-opacity: 1; stroke-width: 1px;"/><path class="ygrid crisp" transform="translate(0,230.83)" d="M66,0h684" style="stroke: rgb(235, 240, 248); stroke-opacity: 1; stroke-width: 1px;"/><path class="ygrid crisp" transform="translate(0,201.67)" d="M66,0h684" style="stroke: rgb(235, 240, 248); stroke-opacity: 1; stroke-width: 1px;"/><path class="ygrid crisp" transform="translate(0,172.5)" d="M66,0h684" style="stroke: rgb(235, 240, 248); stroke-opacity: 1; stroke-width: 1px;"/><path class="ygrid crisp" transform="translate(0,143.32999999999998)" d="M66,0h684" style="stroke: rgb(235, 240, 248); stroke-opacity: 1; stroke-width: 1px;"/><path class="ygrid crisp" transform="translate(0,114.17)" d="M66,0h684" style="stroke: rgb(235, 240, 248); stroke-opacity: 1; stroke-width: 1px;"/><path class="ygrid crisp" transform="translate(0,85)" d="M66,0h684" style="stroke: rgb(235, 240, 248); stroke-opacity: 1; stroke-width: 1px;"/><path class="ygrid crisp" transform="translate(0,55.83)" d="M66,0h684" style="stroke: rgb(235, 240, 248); stroke-opacity: 1; stroke-width: 1px;"/></g></g><g class="zerolinelayer"><path class="xzl zl crisp" transform="translate(66,0)" d="M0,50v385" style="stroke: rgb(0, 0, 0); stroke-opacity: 1; stroke-width: 2px;"/><path class="yzl zl crisp" transform="translate(0,435)" d="M66,0h684" style="stroke: rgb(0, 0, 0); stroke-opacity: 1; stroke-width: 2px;"/></g><path class="xlines-below"/><path class="ylines-below"/><g class="overlines-below"/><g class="xaxislayer-below"/><g class="yaxislayer-below"/><g class="overaxes-below"/><g class="plot" transform="translate(66,50)" clip-path="url(#clip66cf09xyplot)"><g class="scatterlayer mlayer"><g class="trace scatter trace31f000" style="stroke-miterlimit: 2; opacity: 1;"><g class="fills"/><g class="errorbars"/><g class="lines"><path class="js-line" d="M13.54,192.33L20.32,190.76L27.09,264.62L33.86,216.06L40.63,280.81L47.41,268.25L54.18,289.37L60.95,176.79L67.72,249.8L74.5,317.04L81.27,248.07L88.04,223.57L94.81,231.72L101.58,234.72L108.36,290.88L115.13,233.71L121.9,281.9L128.67,164.39L135.45,139.55L142.22,286.18L148.99,325.56L155.76,305.82L162.53,282.65L169.31,271.51L176.08,193.89L182.85,237.21L189.62,248.48L196.4,272.69L203.17,276.09L209.94,311.82L216.71,277.31L223.49,267.04L230.26,221.46L237.03,260.46L243.8,271.4L250.57,268.4L257.35,229.88L264.12,261.06L270.89,250.38L277.66,223.09L284.44,304.41L291.21,293.28L297.98,225.34L304.75,233.08L311.52,243.13L318.3,300.54L325.07,253.84L338.61,298.1L345.39,219.97L352.16,289.54L358.93,261.47L365.7,248.26L372.48,247.69L379.25,270.76L386.02,269.55L392.79,292.34L399.56,237.42L406.34,268.9L413.11,210.93L419.88,301.99L426.65,246.12L433.43,272.02L440.2,248.98L446.97,291.42L453.74,275.22L460.51,293.56L467.29,245.49L474.06,274.36L480.83,247.39L487.6,258.67L494.38,298.05L501.15,259.72L507.92,261.39L514.69,243.33L521.47,239.9L528.24,266.24L535.01,269.19L541.78,292.44L548.55,277.8L555.33,282.67L562.1,268.84L568.87,248.29L575.64,267.66L582.42,263.19L589.19,280.55L595.96,283.07L602.73,281L609.5,264.43L616.28,257.32L623.05,231.09L629.82,274.2L636.59,235.35L643.37,234.73L650.14,269.04L656.91,249.59L663.68,273.14L670.46,283.25L677.23,242.15L684,276.11L690.77,263.25L697.54,230.41L704.32,262.57L711.09,255.96L717.86,268.99L724.63,258.14L731.41,263.91L738.18,280.11L744.95,260.73L751.72,272.19L758.5,245.91L765.27,266.65L772.04,247.31L778.81,248.72L785.58,261.53L792.36,263.38L799.13,254.36L805.9,255.87L812.67,264.19" style="vector-effect: non-scaling-stroke; fill: none; stroke: rgb(76, 120, 168); stroke-opacity: 1; stroke-width: 3px; opacity: 1;"/></g><g class="points"/><g class="text"/></g><g class="trace scatter trace56fe6c" style="stroke-miterlimit: 2; opacity: 1;"><g class="fills"/><g class="errorbars"/><g class="lines"><path class="js-line" d="M13.54,206.49L20.32,206.29L27.09,283.78L33.86,232.92L40.63,302.4L47.41,281.1L54.18,308.9L60.95,203.93L67.72,267.15L74.5,332.16L81.27,262.81L88.04,232.43L94.81,247.22L101.58,253.26L108.36,304.45L115.13,244.67L121.9,295.88L128.67,181.1L135.45,151.06L142.22,300.04L148.99,338.54L155.76,320.46L162.53,300.09L169.31,287.24L176.08,205.72L182.85,246.53L189.62,259.94L196.4,282.6L203.17,286.06L209.94,325.95L216.71,296.07L223.49,278.6L230.26,233.43L237.03,271.02L243.8,285.26L250.57,282.05L257.35,239.23L264.12,272L270.89,260.09L277.66,233.49L284.44,318.54L291.21,306.02L297.98,234.74L304.75,243.27L311.52,255.11L318.3,311.94L325.07,263.98L338.61,312.94L345.39,231.07L352.16,299.83L358.93,271.81L365.7,258.62L372.48,257.55L379.25,283.17L386.02,282.35L392.79,303.75L399.56,249.06L406.34,278.96L413.11,220.8L419.88,315.71L426.65,255.42L433.43,283.56L440.2,257.43L446.97,306.19L453.74,285.71L460.51,304.97L467.29,254.5L474.06,285.09L480.83,257.19L487.6,269.36L494.38,311.29L501.15,271.36L507.92,272.11L514.69,255.56L521.47,250.01L528.24,277.35L535.01,279.47L541.78,304.97L548.55,290.29L555.33,294.86L562.1,279.21L568.87,258.66L575.64,278.81L582.42,273.03L589.19,291.55L595.96,293.65L602.73,291.75L609.5,273.91L616.28,267.64L623.05,240.83L629.82,285.79L636.59,245.04L643.37,244.2L650.14,279.34L656.91,259.17L663.68,284.09L670.46,294.56L677.23,251.57L684,287.21L690.77,273.99L697.54,240.65L704.32,274.14L711.09,265.73L717.86,279.89L724.63,268.84L731.41,274.13L738.18,291.96L744.95,270.39L751.72,283.27L758.5,255.59L765.27,276.59L772.04,258.04L778.81,259.01L785.58,271.65L792.36,273.27L799.13,264.75L805.9,265.3L812.67,275.52" style="vector-effect: non-scaling-stroke; fill: none; stroke: rgb(245, 133, 24); stroke-opacity: 1; stroke-width: 3px; opacity: 1;"/></g><g class="points"/><g class="text"/></g><g class="trace scatter trace8154b1" style="stroke-miterlimit: 2; opacity: 1;"><g class="fills"/><g class="errorbars"/><g class="lines"><path class="js-line" d="M13.54,65.8L20.32,66.58L27.09,146.54L33.86,88.54L40.63,168.64L47.41,144.63L54.18,172.07L60.95,65.73L67.72,125.99L74.5,207.76L81.27,124.86L88.04,90.55L94.81,105.96L101.58,116.29L108.36,165.87L115.13,106.67L121.9,157.8L128.67,43.79L135.45,11.12L142.22,162.69L148.99,213.06L155.76,183.53L162.53,162.14L169.31,151.38L176.08,66.26L182.85,108.82L189.62,120.71L196.4,144.92L203.17,147.07L209.94,191.88L216.71,159.04L223.49,140.76L230.26,95.66L237.03,132.6L243.8,149.52L250.57,143.69L257.35,100.56L264.12,135.64L270.89,121.15L277.66,94.71L284.44,181.11L291.21,168.76L297.98,95.21L304.75,102.9L311.52,117.62L318.3,174.78L325.07,126.26L338.61,176.45L345.39,93.6L352.16,162.33L358.93,134.84L365.7,120.42L372.48,120.52L379.25,145.64L386.02,144.57L392.79,166.55L399.56,111.23L406.34,141.71L413.11,83.01L419.88,179.8L426.65,116.61L433.43,146.43L440.2,119.31L446.97,170L453.74,148.12L460.51,167.49L467.29,116.51L474.06,146.56L480.83,119.29L487.6,132.23L494.38,174.22L501.15,133.73L507.92,135.47L514.69,118.31L521.47,113.28L528.24,139.59L535.01,142.12L541.78,167.56L548.55,153.56L555.33,157.92L562.1,142.12L568.87,122.25L575.64,140.42L582.42,134.78L589.19,154.86L595.96,156.36L602.73,153.57L609.5,135.63L616.28,130.78L623.05,103.55L629.82,148.32L636.59,107.41L643.37,105.77L650.14,141.67L656.91,121.36L663.68,147.79L670.46,157.76L677.23,113.69L684,150.66L690.77,136.53L697.54,103.04L704.32,136.6L711.09,128.81L717.86,141.77L724.63,131.6L731.41,136.74L738.18,155.4L744.95,132.57L751.72,146.71L758.5,118.11L765.27,139.6L772.04,120.22L778.81,121.44L785.58,133.69L792.36,135.64L799.13,127.66L805.9,127.76L812.67,138.18" style="vector-effect: non-scaling-stroke; fill: none; stroke: rgb(228, 87, 86); stroke-opacity: 1; stroke-width: 3px; opacity: 1;"/></g><g class="points"/><g class="text"/></g></g></g><g class="overplot"/><path class="xlines-above crisp" d="M0,0" style="fill: none;"/><path class="ylines-above crisp" d="M0,0" style="fill: none;"/><g class="overlines-above"/><g class="xaxislayer-above"><g class="xtick"><text text-anchor="middle" x="0" y="455" transform="translate(66,0)" style="font-family: 'Open Sans', verdana, arial, sans-serif; font-size: 19px; fill: rgb(42, 63, 95); fill-opacity: 1; white-space: pre; opacity: 1;">0</text></g><g class="xtick"><text text-anchor="middle" x="0" y="455" style="font-family: 'Open Sans', verdana, arial, sans-serif; font-size: 19px; fill: rgb(42, 63, 95); fill-opacity: 1; white-space: pre; opacity: 1;" transform="translate(201.45,0)">20</text></g><g class="xtick"><text text-anchor="middle" x="0" y="455" style="font-family: 'Open Sans', verdana, arial, sans-serif; font-size: 19px; fill: rgb(42, 63, 95); fill-opacity: 1; white-space: pre; opacity: 1;" transform="translate(336.89,0)">40</text></g><g class="xtick"><text text-anchor="middle" x="0" y="455" style="font-family: 'Open Sans', verdana, arial, sans-serif; font-size: 19px; fill: rgb(42, 63, 95); fill-opacity: 1; white-space: pre; opacity: 1;" transform="translate(472.34,0)">60</text></g><g class="xtick"><text text-anchor="middle" x="0" y="455" style="font-family: 'Open Sans', verdana, arial, sans-serif; font-size: 19px; fill: rgb(42, 63, 95); fill-opacity: 1; white-space: pre; opacity: 1;" transform="translate(607.78,0)">80</text></g><g class="xtick"><text text-anchor="middle" x="0" y="455" style="font-family: 'Open Sans', verdana, arial, sans-serif; font-size: 19px; fill: rgb(42, 63, 95); fill-opacity: 1; white-space: pre; opacity: 1;" transform="translate(743.23,0)">100</text></g></g><g class="yaxislayer-above"><g class="ytick"><text text-anchor="end" x="65" y="6.6499999999999995" transform="translate(0,435)" style="font-family: 'Open Sans', verdana, arial, sans-serif; font-size: 19px; fill: rgb(42, 63, 95); fill-opacity: 1; white-space: pre; opacity: 1;">0</text></g><g class="ytick"><text text-anchor="end" x="65" y="6.6499999999999995" style="font-family: 'Open Sans', verdana, arial, sans-serif; font-size: 19px; fill: rgb(42, 63, 95); fill-opacity: 1; white-space: pre; opacity: 1;" transform="translate(0,405.83)">1</text></g><g class="ytick"><text text-anchor="end" x="65" y="6.6499999999999995" style="font-family: 'Open Sans', verdana, arial, sans-serif; font-size: 19px; fill: rgb(42, 63, 95); fill-opacity: 1; white-space: pre; opacity: 1;" transform="translate(0,376.67)">2</text></g><g class="ytick"><text text-anchor="end" x="65" y="6.6499999999999995" style="font-family: 'Open Sans', verdana, arial, sans-serif; font-size: 19px; fill: rgb(42, 63, 95); fill-opacity: 1; white-space: pre; opacity: 1;" transform="translate(0,347.5)">3</text></g><g class="ytick"><text text-anchor="end" x="65" y="6.6499999999999995" style="font-family: 'Open Sans', verdana, arial, sans-serif; font-size: 19px; fill: rgb(42, 63, 95); fill-opacity: 1; white-space: pre; opacity: 1;" transform="translate(0,318.33)">4</text></g><g class="ytick"><text text-anchor="end" x="65" y="6.6499999999999995" style="font-family: 'Open Sans', verdana, arial, sans-serif; font-size: 19px; fill: rgb(42, 63, 95); fill-opacity: 1; white-space: pre; opacity: 1;" transform="translate(0,289.16999999999996)">5</text></g><g class="ytick"><text text-anchor="end" x="65" y="6.6499999999999995" style="font-family: 'Open Sans', verdana, arial, sans-serif; font-size: 19px; fill: rgb(42, 63, 95); fill-opacity: 1; white-space: pre; opacity: 1;" transform="translate(0,260)">6</text></g><g class="ytick"><text text-anchor="end" x="65" y="6.6499999999999995" style="font-family: 'Open Sans', verdana, arial, sans-serif; font-size: 19px; fill: rgb(42, 63, 95); fill-opacity: 1; white-space: pre; opacity: 1;" transform="translate(0,230.83)">7</text></g><g class="ytick"><text text-anchor="end" x="65" y="6.6499999999999995" style="font-family: 'Open Sans', verdana, arial, sans-serif; font-size: 19px; fill: rgb(42, 63, 95); fill-opacity: 1; white-space: pre; opacity: 1;" transform="translate(0,201.67)">8</text></g><g class="ytick"><text text-anchor="end" x="65" y="6.6499999999999995" style="font-family: 'Open Sans', verdana, arial, sans-serif; font-size: 19px; fill: rgb(42, 63, 95); fill-opacity: 1; white-space: pre; opacity: 1;" transform="translate(0,172.5)">9</text></g><g class="ytick"><text text-anchor="end" x="65" y="6.6499999999999995" style="font-family: 'Open Sans', verdana, arial, sans-serif; font-size: 19px; fill: rgb(42, 63, 95); fill-opacity: 1; white-space: pre; opacity: 1;" transform="translate(0,143.32999999999998)">10</text></g><g class="ytick"><text text-anchor="end" x="65" y="6.6499999999999995" style="font-family: 'Open Sans', verdana, arial, sans-serif; font-size: 19px; fill: rgb(42, 63, 95); fill-opacity: 1; white-space: pre; opacity: 1;" transform="translate(0,114.17)">11</text></g><g class="ytick"><text text-anchor="end" x="65" y="6.6499999999999995" style="font-family: 'Open Sans', verdana, arial, sans-serif; font-size: 19px; fill: rgb(42, 63, 95); fill-opacity: 1; white-space: pre; opacity: 1;" transform="translate(0,85)">12</text></g><g class="ytick"><text text-anchor="end" x="65" y="6.6499999999999995" style="font-family: 'Open Sans', verdana, arial, sans-serif; font-size: 19px; fill: rgb(42, 63, 95); fill-opacity: 1; white-space: pre; opacity: 1;" transform="translate(0,55.83)">13</text></g></g><g class="overaxes-above"/></g></g><g class="polarlayer"/><g class="ternarylayer"/><g class="geolayer"/><g class="funnelarealayer"/><g class="pielayer"/><g class="iciclelayer"/><g class="treemaplayer"/><g class="sunburstlayer"/><g class="glimages"/><defs id="topdefs-66cf09"><g class="clips"/></defs><g class="layer-above"><g class="imagelayer"/><g class="shapelayer"/></g><g class="infolayer"><g class="g-gtitle"/><g class="g-xtitle"><text class="xtitle" x="408" y="490.1" text-anchor="middle" style="font-family: 'Open Sans', verdana, arial, sans-serif; font-size: 23px; fill: rgb(42, 63, 95); opacity: 1; font-weight: normal; white-space: pre;">Community sizes [kWh]</text></g><g class="g-ytitle" transform="translate(13.271484375,0)"><text class="ytitle" transform="rotate(-90,9.728125000000006,242.5)" x="9.728125000000006" y="242.5" text-anchor="middle" style="font-family: 'Open Sans', verdana, arial, sans-serif; font-size: 23px; fill: rgb(42, 63, 95); opacity: 1; font-weight: normal; white-space: pre;">Cost [€]</text></g></g></svg>