<svg class="main-svg" xmlns="http://www.w3.org/2000/svg" xmlns:xlink="http://www.w3.org/1999/xlink" width="800" height="600" viewBox="0 0 800 600"><rect x="0" y="0" width="800" height="600" style="fill: rgb(255, 255, 255); fill-opacity: 1;"/><defs id="defs-497332"><g class="clips"><clipPath id="clip497332xyplot" class="plotclip"><rect width="574" height="460"/></clipPath><clipPath class="axesclip" id="clip497332x"><rect x="83" y="0" width="574" height="600"/></clipPath><clipPath class="axesclip" id="clip497332y"><rect x="0" y="50" width="800" height="460"/></clipPath><clipPath class="axesclip" id="clip497332xy"><rect x="83" y="50" width="574" height="460"/></clipPath></g><g class="gradients"/><g class="patterns"/></defs><g class="bglayer"/><g class="layer-below"><g class="imagelayer"/><g class="shapelayer"/></g><g class="cartesianlayer"><g class="subplot xy"><g class="layer-subplot"><g class="shapelayer"/><g class="imagelayer"/></g><g class="gridlayer"><g class="x"><path class="xgrid crisp" transform="translate(144.5,0)" d="M0,50v460" style="stroke: rgb(235, 240, 248); stroke-opacity: 1; stroke-width: 1px;"/><path class="xgrid crisp" transform="translate(226.5,0)" d="M0,50v460" style="stroke: rgb(235, 240, 248); stroke-opacity: 1; stroke-width: 1px;"/><path class="xgrid crisp" transform="translate(308.5,0)" d="M0,50v460" style="stroke: rgb(235, 240, 248); stroke-opacity: 1; stroke-width: 1px;"/><path class="xgrid crisp" transform="translate(390.5,0)" d="M0,50v460" style="stroke: rgb(235, 240, 248); stroke-opacity: 1; stroke-width: 1px;"/><path class="xgrid crisp" transform="translate(472.5,0)" d="M0,50v460" style="stroke: rgb(235, 240, 248); stroke-opacity: 1; stroke-width: 1px;"/><path class="xgrid crisp" transform="translate(554.5,0)" d="M0,50v460" style="stroke: rgb(235, 240, 248); stroke-opacity: 1; stroke-width: 1px;"/><path class="xgrid crisp" transform="translate(636.5,0)" d="M0,50v460" style="stroke: rgb(235, 240, 248); stroke-opacity: 1; stroke-width: 1px;"/></g><g class="y"><path class="ygrid crisp" transform="translate(0,384.09)" d="M83,0h574" style="stroke: rgb(235, 240, 248); stroke-opacity: 1; stroke-width: 1px;"/><path class="ygrid crisp" transform="translate(0,280.64)" d="M83,0h574" style="stroke: rgb(235, 240, 248); stroke-opacity: 1; stroke-width: 1px;"/><path class="ygrid crisp" transform="translate(0,177.19)" d="M83,0h574" style="stroke: rgb(235, 240, 248); stroke-opacity: 1; stroke-width: 1px;"/><path class="ygrid crisp" transform="translate(0,73.74)" d="M83,0h574" style="stroke: rgb(235, 240, 248); stroke-opacity: 1; stroke-width: 1px;"/></g></g><g class="zerolinelayer"><path class="yzl zl crisp" transform="translate(0,487.54)" d="M83,0h574" style="stroke: rgb(0, 0, 0); stroke-opacity: 1; stroke-width: 2px;"/></g><path class="xlines-below"/><path class="ylines-below"/><g class="overlines-below"/><g class="xaxislayer-below"/><g class="yaxislayer-below"/><g class="overaxes-below"/><g class="plot" transform="translate(83,50)" clip-path="url(#clip497332xyplot)"><g class="scatterlayer mlayer"><g class="trace scatter trace57e8f7" style="stroke-miterlimit: 2; opacity: 1;"><g class="fills"/><g class="errorbars"/><g class="lines"><path class="js-line" d="M0,437L34.17,436.8L37.58,435.44L41,431.84L44.42,425.4L54.67,405.46L58.08,401.99L75.17,388.28L78.58,387.26L88.83,386.79L92.25,386.79L116.17,386.75L119.58,380.9L133.25,355.23L136.67,347.56L140.08,342.52L143.5,339.57L157.17,330.34L160.58,329.85L198.17,329.29L201.58,325.07L205,317.79L208.42,313.42L211.83,306.24L215.25,296.56L222.08,285.28L225.5,281.06L232.33,276.53L235.75,273.59L242.58,270.86L246,270.65L280.17,270.44L283.58,268.52L287,265.92L290.42,259.24L297.25,243.75L300.67,237.65L304.08,231.76L307.5,228.69L310.92,226L314.33,221.31L321.17,217.47L324.58,217.13L338.25,216.83L341.67,216.83L358.75,216.59L362.17,214.77L365.58,212.57L369,206.04L372.42,199.46L375.83,189.28L382.67,172.23L386.08,167.58L389.5,162.6L392.92,159.4L403.17,146.76L406.58,143.95L413.42,138.99L416.83,138.04L423.67,130.16L427.08,125.62L430.5,120.05L433.92,116.48L447.58,113.08L451,109.24L464.67,87.35L468.08,83.86L474.92,77.62L478.33,74.09L481.75,70.19L485.17,68.32L498.83,68.05L502.25,68.05L526.17,68.05L529.58,65.45L539.83,49.72L543.25,41.22L550.08,32.9L553.5,30.69L563.75,24.32L567.17,23.19L574,23" style="vector-effect: non-scaling-stroke; fill: none; stroke: rgb(76, 120, 168); stroke-opacity: 1; stroke-width: 4px; opacity: 1;"/></g><g class="points"/><g class="text"/></g><g class="trace scatter trace85a37f" style="stroke-miterlimit: 2; opacity: 1;"><g class="fills"/><g class="errorbars"/><g class="lines"><path class="js-line" d="M0,437L54.67,436.48L58.08,435.49L71.75,435.21L75.17,435.21L116.17,435.21L119.58,433.01L129.83,432.79L133.25,431.42L136.67,427.95L140.08,426.92L198.17,426.43L201.58,424.86L205,421.09L208.42,421.09L218.67,420.51L222.08,418.74L225.5,416.78L228.92,415.98L242.58,415.71L246,415.71L287,415.37L290.42,412.92L293.83,411.02L297.25,410.95L307.5,410.47L310.92,410.47L372.42,410.34L375.83,408.07L379.25,403.45L382.67,401.15L386.08,400.21L389.5,397.83L392.92,395L396.33,390.48L403.17,383.62L406.58,381.67L413.42,376.99L416.83,375.9L423.67,367.64L427.08,363.1L430.5,357.67L433.92,354.2L447.58,350.37L451,347.15L464.67,328.74L468.08,325.47L474.92,319.36L478.33,315.93L481.75,312.14L485.17,310.35L498.83,310.08L502.25,310.08L574,310.08" style="vector-effect: non-scaling-stroke; fill: none; stroke: rgb(245, 133, 24); stroke-opacity: 1; stroke-width: 4px; opacity: 1;"/></g><g class="points"/><g class="text"/></g><g class="trace scatter trace6e73b3" style="stroke-miterlimit: 2; opacity: 1;"><g class="fills"/><g class="errorbars"/><g class="lines"><path class="js-line" d="M0,437L41,436.68L44.42,431.9L47.83,426.89L51.25,426.89L58.08,426.11L61.5,426.11L71.75,424.95L75.17,424.67L85.42,423.64L88.83,423.64L116.17,423.2L119.58,421.15L133.25,420.39L136.67,418.26L140.08,415.25L143.5,413.32L153.75,406.4L157.17,405.78L181.08,405.78L184.5,404.43L194.75,404.43L198.17,403.32L201.58,402.32L205,400.53L215.25,399.94L218.67,398.83L225.5,391.21L228.92,389.82L235.75,385.85L239.17,384.91L280.17,384.59L283.58,383.49L287,383.19L290.42,378.54L293.83,373.36L297.25,371.32L300.67,371.32L304.08,370.56L310.92,370.36L314.33,368.31L321.17,367.83L324.58,367.83L334.83,367.53L338.25,367.53L341.67,367.53L345.08,366.51L355.33,366.48L358.75,365.65L362.17,364.06L365.58,363.99L372.42,360.28L375.83,353.69L379.25,346.47L382.67,341.99L389.5,334.14L392.92,331.72L403.17,319.08L406.58,316.44L410,313.91L413.42,313.21L416.83,311.8L420.25,308.37L423.67,305.22L427.08,304.1L433.92,296.81L437.33,296.27L447.58,295.44L451,293.35L457.83,284.81L461.25,281.8L481.75,261.32L485.17,259.46L495.42,259.19L498.83,259.19L539.83,258.99L543.25,257.39L550.08,256.21L553.5,255.91L560.33,253.84L563.75,251.78L574,251.41" style="vector-effect: non-scaling-stroke; fill: none; stroke: rgb(228, 87, 86); stroke-opacity: 1; stroke-width: 2px; opacity: 1;"/></g><g class="points"/><g class="text"/></g><g class="trace scatter trace97dea1" style="stroke-miterlimit: 2; opacity: 1;"><g class="fills"/><g class="errorbars"/><g class="lines"><path class="js-line" d="M0,436.99L10.25,436.72L13.67,436.72L41,436.72L44.42,435.17L51.25,434.94L54.67,433.91L68.33,430.1L71.75,428.3L78.58,426.13L82,425.64L116.17,425.61L119.58,421.61L123,419.69L126.42,419.15L136.67,418.17L140.08,416.64L150.33,414.94L153.75,414.29L160.58,413.28L164,413.28L198.17,412.66L201.58,410.47L205,407.6L208.42,407.34L211.83,407.33L215.25,406.51L218.67,406.51L222.08,404.19L225.5,401.96L228.92,401.52L232.33,401.09L235.75,399.75L242.58,398.34L246,398.17L280.17,398.01L283.58,397.24L287,397.24L290.42,395.43L293.83,393.24L297.25,393.05L300.67,392.73L304.08,390.44L310.92,388.78L314.33,386.38L321.17,385.2L324.58,385.05L334.83,384.7L338.25,384.7L358.75,384.45L362.17,382.65L365.58,381.13L369,376.47L372.42,372.31L375.83,365.51L379.25,359.66L382.67,355.77L406.58,331.93L410,329.54L416.83,326.27L420.25,322.59L430.5,310.14L433.92,307.55L444.17,307.01L447.58,306.74L451,304.9L454.42,301.55L464.67,296.76L468.08,294.63L474.92,289.93L478.33,287.28L481.75,284.09L485.17,282.72L502.25,282.54L505.67,282.54L526.17,282.54L529.58,281.39L543.25,278.47L546.67,278.47L560.33,277.86L563.75,277.34L574,276.97" style="vector-effect: non-scaling-stroke; fill: none; stroke: rgb(114, 183, 178); stroke-opacity: 1; stroke-width: 2px; opacity: 1;"/></g><g class="points"/><g class="text"/></g></g></g><g class="overplot"/><path class="xlines-above crisp" d="M0,0" style="fill: none;"/><path class="ylines-above crisp" d="M82,50V510" style="fill: none; stroke-width: 2px; stroke: rgb(0, 0, 0); stroke-opacity: 1;"/><g class="overlines-above"/><g class="xaxislayer-above"><g class="xtick"><text text-anchor="middle" x="0" y="530" transform="translate(144.5,0)" style="font-family: 'Open Sans', verdana, arial, sans-serif; font-size: 19px; fill: rgb(42, 63, 95); fill-opacity: 1; white-space: pre; opacity: 1;"><tspan class="line" dy="0em" x="0" y="530">May 31</tspan><tspan class="line" dy="1.3em" x="0" y="530">2019</tspan></text></g><g class="xtick"><text text-anchor="middle" x="0" y="530" style="font-family: 'Open Sans', verdana, arial, sans-serif; font-size: 19px; fill: rgb(42, 63, 95); fill-opacity: 1; white-space: pre; opacity: 1;" transform="translate(226.5,0)">Jun 1</text></g><g class="xtick"><text text-anchor="middle" x="0" y="530" style="font-family: 'Open Sans', verdana, arial, sans-serif; font-size: 19px; fill: rgb(42, 63, 95); fill-opacity: 1; white-space: pre; opacity: 1;" transform="translate(308.5,0)">Jun 2</text></g><g class="xtick"><text text-anchor="middle" x="0" y="530" style="font-family: 'Open Sans', verdana, arial, sans-serif; font-size: 19px; fill: rgb(42, 63, 95); fill-opacity: 1; white-space: pre; opacity: 1;" transform="translate(390.5,0)">Jun 3</text></g><g class="xtick"><text text-anchor="middle" x="0" y="530" style="font-family: 'Open Sans', verdana, arial, sans-serif; font-size: 19px; fill: rgb(42, 63, 95); fill-opacity: 1; white-space: pre; opacity: 1;" transform="translate(472.5,0)">Jun 4</text></g><g class="xtick"><text text-anchor="middle" x="0" y="530" style="font-family: 'Open Sans', verdana, arial, sans-serif; font-size: 19px; fill: rgb(42, 63, 95); fill-opacity: 1; white-space: pre; opacity: 1;" transform="translate(554.5,0)">Jun 5</text></g><g class="xtick"><text text-anchor="middle" x="0" y="530" style="font-family: 'Open Sans', verdana, arial, sans-serif; font-size: 19px; fill: rgb(42, 63, 95); fill-opacity: 1; white-space: pre; opacity: 1;" transform="translate(636.5,0)">Jun 6</text></g></g><g class="yaxislayer-above"><g class="ytick"><text text-anchor="end" x="77.2" y="6.6499999999999995" transform="translate(0,487.54)" style="font-family: 'Open Sans', verdana, arial, sans-serif; font-size: 19px; fill: rgb(42, 63, 95); fill-opacity: 1; white-space: pre; opacity: 1;">0</text></g><g class="ytick"><text text-anchor="end" x="77.2" y="6.6499999999999995" style="font-family: 'Open Sans', verdana, arial, sans-serif; font-size: 19px; fill: rgb(42, 63, 95); fill-opacity: 1; white-space: pre; opacity: 1;" transform="translate(0,384.09)">50</text></g><g class="ytick"><text text-anchor="end" x="77.2" y="6.6499999999999995" style="font-family: 'Open Sans', verdana, arial, sans-serif; font-size: 19px; fill: rgb(42, 63, 95); fill-opacity: 1; white-space: pre; opacity: 1;" transform="translate(0,280.64)">100</text></g><g class="ytick"><text text-anchor="end" x="77.2" y="6.6499999999999995" style="font-family: 'Open Sans', verdana, arial, sans-serif; font-size: 19px; fill: rgb(42, 63, 95); fill-opacity: 1; white-space: pre; opacity: 1;" transform="translate(0,177.19)">150</text></g><g class="ytick"><text text-anchor="end" x="77.2" y="6.6499999999999995" style="font-family: 'Open Sans', verdana, arial, sans-serif; font-size: 19px; fill: rgb(42, 63, 95); fill-opacity: 1; white-space: pre; opacity: 1;" transform="translate(0,73.74)">200</text></g></g><g class="overaxes-above"/></g></g><g class="polarlayer"/><g class="ternarylayer"/><g class="geolayer"/><g class="funnelarealayer"/><g class="pielayer"/><g class="iciclelayer"/><g class="treemaplayer"/><g class="sunburstlayer"/><g class="glimages"/><defs id="topdefs-497332"><g class="clips"/><clipPath id="legend497332"><rect width="122" height="151" x="0" y="0"/></clipPath></defs><g class="layer-above"><g class="imagelayer"/><g class="shapelayer"/></g><g class="infolayer"><g class="legend" pointer-events="all" transform="translate(668.48,50)"><rect class="bg" shape-rendering="crispEdges" style="stroke: rgb(68, 68, 68); stroke-opacity: 1; fill: rgb(255, 255, 255); fill-opacity: 1; stroke-width: 0px;" width="122" height="151" x="0" y="0"/><g class="scrollbox" transform="" clip-path="url(#legend497332)"><text class="legendtitletext" text-anchor="start" x="2" y="29.900000000000002" style="font-family: 'Open Sans', verdana, arial, sans-serif; font-size: 23px; fill: rgb(42, 63, 95); fill-opacity: 1; white-space: pre;">variable</text><g class="groups" transform=""><g class="traces" transform="translate(0,48.75)" style="opacity: 1;"><text class="legendtext" text-anchor="start" x="40" y="7.409999999999999" style="font-family: 'Open Sans', verdana, arial, sans-serif; font-size: 19px; fill: rgb(42, 63, 95); fill-opacity: 1; white-space: pre;">PV_only</text><g class="layers" style="opacity: 1;"><g class="legendfill"/><g class="legendlines"><path class="js-line" d="M5,0h30" style="fill: none; stroke: rgb(76, 120, 168); stroke-opacity: 1; stroke-width: 4px;"/></g><g class="legendsymbols"><g class="legendpoints"/></g></g><rect class="legendtoggle" x="0" y="-13.85" width="116.53125" height="27.7" style="fill: rgb(0, 0, 0); fill-opacity: 0;"/></g></g><g class="groups" transform=""><g class="traces" transform="translate(0,76.45)" style="opacity: 1;"><text class="legendtext" text-anchor="start" x="40" y="7.409999999999999" style="font-family: 'Open Sans', verdana, arial, sans-serif; font-size: 19px; fill: rgb(42, 63, 95); fill-opacity: 1; white-space: pre;">Perfect</text><g class="layers" style="opacity: 1;"><g class="legendfill"/><g class="legendlines"><path class="js-line" d="M5,0h30" style="fill: none; stroke: rgb(245, 133, 24); stroke-opacity: 1; stroke-width: 4px;"/></g><g class="legendsymbols"><g class="legendpoints"/></g></g><rect class="legendtoggle" x="0" y="-13.85" width="116.53125" height="27.7" style="fill: rgb(0, 0, 0); fill-opacity: 0;"/></g></g><g class="groups" transform=""><g class="traces" transform="translate(0,104.14999999999999)" style="opacity: 1;"><text class="legendtext" text-anchor="start" x="40" y="7.409999999999999" style="font-family: 'Open Sans', verdana, arial, sans-serif; font-size: 19px; fill: rgb(42, 63, 95); fill-opacity: 1; white-space: pre;">0</text><g class="layers" style="opacity: 1;"><g class="legendfill"/><g class="legendlines"><path class="js-line" d="M5,0h30" style="fill: none; stroke: rgb(228, 87, 86); stroke-opacity: 1; stroke-width: 2px;"/></g><g class="legendsymbols"><g class="legendpoints"/></g></g><rect class="legendtoggle" x="0" y="-13.85" width="116.53125" height="27.7" style="fill: rgb(0, 0, 0); fill-opacity: 0;"/></g></g><g class="groups" transform=""><g class="traces" transform="translate(0,131.85)" style="opacity: 1;"><text class="legendtext" text-anchor="start" x="40" y="7.409999999999999" style="font-family: 'Open Sans', verdana, arial, sans-serif; font-size: 19px; fill: rgb(42, 63, 95); fill-opacity: 1; white-space: pre;">1e-06</text><g class="layers" style="opacity: 1;"><g class="legendfill"/><g class="legendlines"><path class="js-line" d="M5,0h30" style="fill: none; stroke: rgb(114, 183, 178); stroke-opacity: 1; stroke-width: 2px;"/></g><g class="legendsymbols"><g class="legendpoints"/></g></g><rect class="legendtoggle" x="0" y="-13.85" width="116.53125" height="27.7" style="fill: rgb(0, 0, 0); fill-opacity: 0;"/></g></g></g><rect class="scrollbar" rx="20" ry="3" width="0" height="0" style="fill: rgb(128, 139, 164); fill-opacity: 1;" x="0" y="0"/></g><g class="g-gtitle"/><g class="g-xtitle"/><g class="g-ytitle" transform="translate(13.146484375,0)"><text class="ytitle" transform="rotate(-90,9.853125000000006,280)" x="9.853125000000006" y="280" text-anchor="middle" style="font-family: 'Open Sans', verdana, arial, sans-serif; font-size: 23px; fill: rgb(42, 63, 95); opacity: 1; font-weight: normal; white-space: pre;">Community import [kWh]</text></g></g></svg>