<svg class="main-svg" xmlns="http://www.w3.org/2000/svg" xmlns:xlink="http://www.w3.org/1999/xlink" width="1100" height="600" viewBox="0 0 1100 600"><rect x="0" y="0" width="1100" height="600" style="fill: rgb(255, 255, 255); fill-opacity: 1;"/><defs id="defs-ba5c24"><g class="clips"><clipPath id="clipba5c24xyplot" class="plotclip"><rect width="687" height="460"/></clipPath><clipPath class="axesclip" id="clipba5c24x"><rect x="75" y="0" width="687" height="600"/></clipPath><clipPath class="axesclip" id="clipba5c24y"><rect x="0" y="50" width="1100" height="460"/></clipPath><clipPath class="axesclip" id="clipba5c24xy"><rect x="75" y="50" width="687" height="460"/></clipPath></g><g class="gradients"/><g class="patterns"/></defs><g class="bglayer"/><g class="layer-below"><g class="imagelayer"/><g class="shapelayer"/></g><g class="cartesianlayer"><g class="subplot xy"><g class="layer-subplot"><g class="shapelayer"/><g class="imagelayer"/></g><g class="gridlayer"><g class="x"><path class="xgrid crisp" transform="translate(92.53,0)" d="M0,50v460" style="stroke: rgb(235, 240, 248); stroke-opacity: 1; stroke-width: 1px;"/><path class="xgrid crisp" transform="translate(176.65,0)" d="M0,50v460" style="stroke: rgb(235, 240, 248); stroke-opacity: 1; stroke-width: 1px;"/><path class="xgrid crisp" transform="translate(260.77,0)" d="M0,50v460" style="stroke: rgb(235, 240, 248); stroke-opacity: 1; stroke-width: 1px;"/><path class="xgrid crisp" transform="translate(344.89,0)" d="M0,50v460" style="stroke: rgb(235, 240, 248); stroke-opacity: 1; stroke-width: 1px;"/><path class="xgrid crisp" transform="translate(429.02,0)" d="M0,50v460" style="stroke: rgb(235, 240, 248); stroke-opacity: 1; stroke-width: 1px;"/><path class="xgrid crisp" transform="translate(513.14,0)" d="M0,50v460" style="stroke: rgb(235, 240, 248); stroke-opacity: 1; stroke-width: 1px;"/><path class="xgrid crisp" transform="translate(597.26,0)" d="M0,50v460" style="stroke: rgb(235, 240, 248); stroke-opacity: 1; stroke-width: 1px;"/><path class="xgrid crisp" transform="translate(681.38,0)" d="M0,50v460" style="stroke: rgb(235, 240, 248); stroke-opacity: 1; stroke-width: 1px;"/></g><g class="y"><path class="ygrid crisp" transform="translate(0,455.42)" d="M75,0h687" style="stroke: rgb(235, 240, 248); stroke-opacity: 1; stroke-width: 1px;"/><path class="ygrid crisp" transform="translate(0,321.97)" d="M75,0h687" style="stroke: rgb(235, 240, 248); stroke-opacity: 1; stroke-width: 1px;"/><path class="ygrid crisp" transform="translate(0,255.25)" d="M75,0h687" style="stroke: rgb(235, 240, 248); stroke-opacity: 1; stroke-width: 1px;"/><path class="ygrid crisp" transform="translate(0,188.53)" d="M75,0h687" style="stroke: rgb(235, 240, 248); stroke-opacity: 1; stroke-width: 1px;"/><path class="ygrid crisp" transform="translate(0,121.81)" d="M75,0h687" style="stroke: rgb(235, 240, 248); stroke-opacity: 1; stroke-width: 1px;"/><path class="ygrid crisp" transform="translate(0,55.08)" d="M75,0h687" style="stroke: rgb(235, 240, 248); stroke-opacity: 1; stroke-width: 1px;"/></g></g><g class="zerolinelayer"><path class="yzl zl crisp" transform="translate(0,388.69)" d="M75,0h687" style="stroke: rgb(0, 0, 0); stroke-opacity: 1; stroke-width: 2px;"/></g><path class="xlines-below"/><path class="ylines-below"/><g class="overlines-below"/><g class="xaxislayer-below"/><g class="yaxislayer-below"/><g class="overaxes-below"/><g class="plot" transform="translate(75,50)" clip-path="url(#clipba5c24xyplot)"><g class="scatterlayer mlayer"><g class="trace scatter trace88eb52" style="stroke-miterlimit: 2; opacity: 1;"><g class="fills"/><g class="errorbars"/><g class="lines"><path class="js-line" d="M0,250.28L3.51,201.69L7.01,286.94L10.52,287.34L14.02,268.57L17.53,259.04L21.03,280.48L24.54,282.4L28.04,282.5L31.55,253.7L35.05,260.18L38.56,270.62L42.06,270.41L45.57,272.01L49.07,264.82L52.58,220.23L56.08,260.76L59.59,264.43L63.09,262.75L66.6,261.56L70.1,257.01L73.61,229.25L77.11,234.61L80.62,257.04L84.12,254.52L87.63,250.57L91.13,252.33L94.64,258.24L98.14,258.47L101.65,215.32L105.15,259.2L108.66,267.67L112.16,286.24L115.67,287.98L119.17,292.84L122.68,321.3L126.18,338.36L129.69,303.77L133.19,291.83L136.7,322.45L140.2,336.99L143.71,349.89L147.21,397.05L150.72,397.66L154.22,388.38L157.73,343.94L161.23,346.72L164.74,314.51L168.24,334.26L171.75,321.26L175.26,381.95L178.76,345.7L182.27,406.48L185.77,370.74L189.28,354.44L192.78,391.95L196.29,387.77L199.79,368.75L203.3,341.91L206.8,378.37L210.31,357.23L213.81,401.88L217.32,357.16L220.82,339.79L224.33,361L227.83,337.43L231.34,398.51L234.84,409.21L238.35,393.76L241.85,345.97L245.36,310.74L252.37,353.85L255.87,338.07L259.38,318.53L262.88,307.44L266.39,307.05L269.89,303.93L273.4,290.78L276.9,229.55L280.41,289.05L283.91,286.74L287.42,283.55L290.92,286.67L297.93,288.68L301.44,287.9L304.94,285.07L308.45,226.69L311.95,280L315.46,285.73L318.96,238.75L322.47,231.97L325.97,278.73L329.48,279.46L332.98,277.2L336.49,246.63L339.99,239.32L343.5,272.21L347.01,268.18L350.51,228.5L354.02,240.87L357.52,261.26L361.03,261.28L364.53,255.76L368.04,250.6L371.54,228.18L375.05,213.08L378.55,251.58L382.06,250.26L385.56,244.43L392.57,249.66L396.08,229.55L399.58,217.6L403.09,248.78L406.59,256.71L410.1,254.52L413.6,254.11L417.11,249.46L420.61,249.86L424.12,204.91L427.62,251.78L431.13,258.2L434.63,258.84L438.14,263.72L445.15,269.61L448.65,267.42L452.16,230.07L455.66,244.86L459.17,272.27L462.67,278.32L466.18,282.59L469.68,296.12L473.19,301.77L476.69,298.73L480.2,292.24L483.7,292.26L487.21,261.74L490.71,341.48L494.22,373.26L497.72,382.33L501.23,353.45L504.73,374.28L508.24,368.34L511.74,384.4L515.25,407.21L518.76,390.03L522.26,318L525.77,313.37L529.27,384.49L532.78,417.48L536.28,411.38L539.79,379.92L543.29,421.59L546.8,428.67L550.3,429.18L553.81,418.25L557.31,380.31L560.82,422.64L564.32,422.92L567.83,415.02L571.33,373.99L574.84,205.44L578.34,339.37L581.85,329.41L585.35,361.85L588.86,303.2L592.36,194.5L595.87,120.34L599.37,121.89L602.88,247.45L606.38,174.31L609.89,203.99L613.39,86.6L616.9,62.53L620.4,189.06L623.91,185.39L627.41,81.63L630.92,23L634.42,52.37L637.93,107.29L641.43,235.14L644.94,223.09L648.44,202.09L651.95,245L655.45,175.18L658.96,259.87L662.46,295.11L665.97,286.67L669.47,307.14L672.98,291.63L676.48,288.45L679.99,301.52L683.49,278.5L687,288.16" style="vector-effect: non-scaling-stroke; fill: none; stroke: rgb(76, 120, 168); stroke-opacity: 1; stroke-width: 3px; opacity: 1;"/></g><g class="points"/><g class="text"/></g><g class="trace scatter tracec58c56" style="stroke-miterlimit: 2; opacity: 1;"><g class="fills"/><g class="errorbars"/><g class="lines"><path class="js-line" d="M17.53,217.85L28.04,221.22L31.55,222.78L45.57,228.38L49.07,229.09L56.08,229.18L59.59,228.56L70.1,224.76L73.61,223.23L84.12,220.04L87.63,219.95L94.64,221.99L98.14,224.26L105.15,231.28L108.66,235.94L122.68,259.19L126.18,265.34L136.7,282.04L140.2,286.63L150.72,296.79L154.22,299.03L164.74,303.32L168.24,304.22L189.28,307.65L192.78,307.63L199.79,306.2L203.3,304.5L210.31,298.46L213.81,293.93L220.82,281.61L224.33,273.87L234.84,245.72L238.35,235.33L252.37,195.66L255.87,187.52L262.88,174.88L266.39,170.61L273.4,166.34L276.9,166.23L283.91,169.37L287.42,172.23L311.95,195.34L315.46,197.05L322.47,198.67L325.97,198.7L354.02,195.97L357.52,196.72L371.54,202.23L375.05,203.75L385.56,206.83L389.07,207.1L399.58,205.31L403.09,204.02L420.61,198L424.12,197.97L431.13,200.14L434.63,202.48L441.64,209.67L445.15,214.41L459.17,238.08L462.67,244.35L476.69,266.14L480.2,270.27L490.71,279.12L494.22,281.06L504.73,284.95L508.24,285.89L525.77,289.41L529.27,289.57L536.28,288.5L539.79,286.99L546.8,281.33L550.3,276.98L557.31,265.04L560.82,257.49L571.33,229.91L574.84,219.72L588.86,180.8L592.36,172.85L599.37,160.57L602.88,156.48L609.89,152.58L613.39,152.65L620.4,156.13L623.91,159.16L648.44,183.39L651.95,185.24L658.96,187.14L662.46,187.31L687,185.02" style="vector-effect: non-scaling-stroke; fill: none; stroke: rgb(255, 127, 14); stroke-opacity: 0.7; stroke-width: 5px; opacity: 1;"/></g><g class="points"/><g class="text"/></g><g class="trace scatter traceed1364" style="stroke-miterlimit: 2; opacity: 1;"><g class="fills"/><g class="errorbars"/><g class="lines"><path class="js-line" d="M17.53,256.77L31.55,263.35L35.05,265.3L49.07,271.69L52.58,272.55L63.09,272.77L66.6,272.13L84.12,268.13L87.63,268.63L94.64,271.49L98.14,274.61L105.15,284.05L108.66,290.54L119.17,316.7L122.68,326.16L133.19,354.96L136.7,362.75L143.71,377.21L147.21,382.58L157.73,394.88L161.23,396.86L175.26,401.77L178.76,401.6L189.28,401.14L192.78,399.29L199.79,392.02L203.3,387.76L227.83,354.1L231.34,347.33L241.85,320.52L245.36,310.51L262.88,259.71L266.39,251.66L273.4,241.92L276.9,239.98L280.41,238.95L283.91,239.8L290.92,246.25L294.43,250.03L308.45,263.52L311.95,265.75L318.96,268.61L322.47,269.31L332.98,269.53L336.49,269.33L350.51,269.84L354.02,270.61L364.53,274.49L368.04,276.14L382.06,282.28L385.56,283.26L396.08,283.97L399.58,283.44L417.11,279.59L420.61,280.78L427.62,286.55L431.13,291.14L438.14,305.11L441.64,313.06L459.17,357.63L462.67,366.6L476.69,397.57L480.2,403.97L490.71,418.11L494.22,421.77L508.24,431.01L511.74,432.05L518.76,433.7L522.26,435.04L529.27,437L532.78,436.15L539.79,432.03L543.29,428.67L550.3,418.17L553.81,411.21L560.82,392.78L564.32,381.85L581.85,320.52L585.35,308.46L595.87,277.24L599.37,268.5L606.38,254.7L609.89,251.13L616.9,248.34L620.4,249.29L627.41,255.98L630.92,259.9L644.94,274.03L648.44,276.45L655.45,279.67L658.96,280.55L669.47,281.32L672.98,281.31L687,282.59" style="vector-effect: non-scaling-stroke; fill: none; stroke: rgb(44, 160, 44); stroke-opacity: 0.7; stroke-width: 5px; opacity: 1;"/></g><g class="points"/><g class="text"/></g><g class="trace scatter trace1a5e91" style="stroke-miterlimit: 2; opacity: 1;"><g class="fills"/><g class="errorbars"/><g class="lines"><path class="js-line" d="M17.53,261.07L21.03,260.05L24.54,277.5L31.55,273.65L35.05,255.28L38.56,266.44L42.06,271.31L45.57,265.67L49.07,271.1L52.58,266.03L56.08,232.54L59.59,268.09L63.09,261.1L66.6,259.64L70.1,261.36L73.61,256.75L77.11,235.95L80.62,241.99L84.12,257.53L87.63,252.09L91.13,252.52L94.64,254.94L98.14,261.46L101.65,261.54L105.15,230.59L108.66,274.52L112.16,274.23L115.67,289.83L119.17,293.93L122.68,302.35L126.18,327.68L129.69,336.86L133.19,312.91L136.7,313.68L140.2,340L143.71,343.27L147.21,354.21L150.72,392.37L154.22,389.19L157.73,385.02L161.23,353.37L164.74,362.63L168.24,335.21L171.75,352.46L175.26,338.53L178.76,387.73L182.27,351.12L185.77,404.7L189.28,369.6L192.78,362.45L196.29,394.31L206.8,346.63L210.31,378.12L213.81,349.63L217.32,387.15L220.82,343.78L224.33,339.18L227.83,353.88L231.34,323.74L234.84,374.82L238.35,369.41L241.85,357.98L245.36,322.96L248.86,300.19L252.37,315.81L255.87,322.57L259.38,306.7L262.88,296.34L266.39,291.28L273.4,284.17L276.9,275.8L280.41,232.97L283.91,287.58L287.42,271.71L290.92,272.32L294.43,280.74L297.93,281.53L301.44,283.21L304.94,280.1L308.45,280.35L311.95,236.36L315.46,286.2L318.96,275.63L322.47,240.52L325.97,245.47L329.48,278.56L332.98,269.15L336.49,267.21L339.99,247.76L343.5,247.47L347.01,270.75L350.51,257.42L354.02,232.93L357.52,251.54L361.03,261.91L364.53,256.49L368.04,255.45L371.54,255.02L375.05,239.31L378.55,228.43L382.06,258.03L385.56,250.51L389.07,248.5L392.57,251.71L396.08,252.27L399.58,235.59L403.09,228.1L406.59,253.27L410.1,252.59L413.6,250.36L417.11,251.88L420.61,250.45L424.12,251.8L427.62,217.05L431.13,262.58L434.63,260.35L438.14,263.04L441.64,271.95L445.15,277.38L448.65,282.84L452.16,281.83L455.66,257.77L459.17,277.68L462.67,296.63L466.18,296.57L469.68,304.77L473.19,317.97L476.69,322.31L480.2,319.69L483.7,316.79L487.21,319.23L490.71,296.19L494.22,360.99L501.23,378.63L504.73,361.81L508.24,384.02L511.74,375.15L515.25,386.27L518.76,404.48L522.26,389.94L525.77,341.08L529.27,345.48L532.78,396.73L536.28,406.63L539.79,401.46L543.29,382.71L546.8,419.59L550.3,410.52L553.81,406.94L557.31,400.91L560.82,372.15L564.32,404.68L567.83,388.93L571.33,382.89L574.84,352.79L578.34,225.8L581.85,347.29L585.35,301.59L588.86,327.97L592.36,283.7L595.87,209.38L599.37,165L602.88,159.46L606.38,249.17L609.89,171.15L613.39,218.16L616.9,119.39L620.4,118.59L623.91,211.02L627.41,181.95L630.92,117.34L634.42,91.73L637.93,116.62L641.43,140.56L644.94,231.34L648.44,210.08L651.95,211.33L655.45,247L658.96,178.38L662.46,259.1L665.97,271.67L669.47,264.35L672.98,287.18L676.48,271.81L679.99,275L683.49,286.06L687,267.61" style="vector-effect: non-scaling-stroke; fill: none; stroke: rgb(23, 190, 207); stroke-opacity: 0.7; stroke-width: 5px; opacity: 1;"/></g><g class="points"/><g class="text"/></g></g></g><g class="overplot"/><path class="xlines-above crisp" d="M0,0" style="fill: none;"/><path class="ylines-above crisp" d="M74,50V510" style="fill: none; stroke-width: 2px; stroke: rgb(0, 0, 0); stroke-opacity: 1;"/><g class="overlines-above"/><g class="xaxislayer-above"><g class="xtick"><text text-anchor="middle" x="0" y="530" transform="translate(92.53,0)" style="font-family: 'Open Sans', verdana, arial, sans-serif; font-size: 19px; fill: rgb(42, 63, 95); fill-opacity: 1; white-space: pre; opacity: 1;"><tspan class="line" dy="0em" x="0" y="530">00:00</tspan><tspan class="line" dy="1.3em" x="0" y="530">Apr 26, 2022</tspan></text></g><g class="xtick"><text text-anchor="middle" x="0" y="530" style="font-family: 'Open Sans', verdana, arial, sans-serif; font-size: 19px; fill: rgb(42, 63, 95); fill-opacity: 1; white-space: pre; opacity: 1;" transform="translate(176.65,0)">06:00</text></g><g class="xtick"><text text-anchor="middle" x="0" y="530" style="font-family: 'Open Sans', verdana, arial, sans-serif; font-size: 19px; fill: rgb(42, 63, 95); fill-opacity: 1; white-space: pre; opacity: 1;" transform="translate(260.77,0)">12:00</text></g><g class="xtick"><text text-anchor="middle" x="0" y="530" style="font-family: 'Open Sans', verdana, arial, sans-serif; font-size: 19px; fill: rgb(42, 63, 95); fill-opacity: 1; white-space: pre; opacity: 1;" transform="translate(344.89,0)">18:00</text></g><g class="xtick"><text text-anchor="middle" x="0" y="530" style="font-family: 'Open Sans', verdana, arial, sans-serif; font-size: 19px; fill: rgb(42, 63, 95); fill-opacity: 1; white-space: pre; opacity: 1;" transform="translate(429.02,0)"><tspan class="line" dy="0em" x="0" y="530">00:00</tspan><tspan class="line" dy="1.3em" x="0" y="530">Apr 27, 2022</tspan></text></g><g class="xtick"><text text-anchor="middle" x="0" y="530" style="font-family: 'Open Sans', verdana, arial, sans-serif; font-size: 19px; fill: rgb(42, 63, 95); fill-opacity: 1; white-space: pre; opacity: 1;" transform="translate(513.14,0)">06:00</text></g><g class="xtick"><text text-anchor="middle" x="0" y="530" style="font-family: 'Open Sans', verdana, arial, sans-serif; font-size: 19px; fill: rgb(42, 63, 95); fill-opacity: 1; white-space: pre; opacity: 1;" transform="translate(597.26,0)">12:00</text></g><g class="xtick"><text text-anchor="middle" x="0" y="530" style="font-family: 'Open Sans', verdana, arial, sans-serif; font-size: 19px; fill: rgb(42, 63, 95); fill-opacity: 1; white-space: pre; opacity: 1;" transform="translate(681.38,0)">18:00</text></g></g><g class="yaxislayer-above"><g class="ytick"><text text-anchor="end" x="69.2" y="6.6499999999999995" transform="translate(0,455.42)" style="font-family: 'Open Sans', verdana, arial, sans-serif; font-size: 19px; fill: rgb(42, 63, 95); fill-opacity: 1; white-space: pre; opacity: 1;">−1</text></g><g class="ytick"><text text-anchor="end" x="69.2" y="6.6499999999999995" style="font-family: 'Open Sans', verdana, arial, sans-serif; font-size: 19px; fill: rgb(42, 63, 95); fill-opacity: 1; white-space: pre; opacity: 1;" transform="translate(0,388.69)">0</text></g><g class="ytick"><text text-anchor="end" x="69.2" y="6.6499999999999995" style="font-family: 'Open Sans', verdana, arial, sans-serif; font-size: 19px; fill: rgb(42, 63, 95); fill-opacity: 1; white-space: pre; opacity: 1;" transform="translate(0,321.97)">1</text></g><g class="ytick"><text text-anchor="end" x="69.2" y="6.6499999999999995" style="font-family: 'Open Sans', verdana, arial, sans-serif; font-size: 19px; fill: rgb(42, 63, 95); fill-opacity: 1; white-space: pre; opacity: 1;" transform="translate(0,255.25)">2</text></g><g class="ytick"><text text-anchor="end" x="69.2" y="6.6499999999999995" style="font-family: 'Open Sans', verdana, arial, sans-serif; font-size: 19px; fill: rgb(42, 63, 95); fill-opacity: 1; white-space: pre; opacity: 1;" transform="translate(0,188.53)">3</text></g><g class="ytick"><text text-anchor="end" x="69.2" y="6.6499999999999995" style="font-family: 'Open Sans', verdana, arial, sans-serif; font-size: 19px; fill: rgb(42, 63, 95); fill-opacity: 1; white-space: pre; opacity: 1;" transform="translate(0,121.81)">4</text></g><g class="ytick"><text text-anchor="end" x="69.2" y="6.6499999999999995" style="font-family: 'Open Sans', verdana, arial, sans-serif; font-size: 19px; fill: rgb(42, 63, 95); fill-opacity: 1; white-space: pre; opacity: 1;" transform="translate(0,55.08)">5</text></g></g><g class="overaxes-above"/></g></g><g class="polarlayer"/><g class="ternarylayer"/><g class="geolayer"/><g class="funnelarealayer"/><g class="pielayer"/><g class="iciclelayer"/><g class="treemaplayer"/><g class="sunburstlayer"/><g class="glimages"/><defs id="topdefs-ba5c24"><g class="clips"/><clipPath id="legendba5c24"><rect width="314" height="121" x="0" y="0"/></clipPath></defs><g class="layer-above"><g class="imagelayer"/><g class="shapelayer"/></g><g class="infolayer"><g class="legend" pointer-events="all" transform="translate(775.74,50)"><rect class="bg" shape-rendering="crispEdges" style="stroke: rgb(68, 68, 68); stroke-opacity: 1; fill: rgb(255, 255, 255); fill-opacity: 1; stroke-width: 0px;" width="314" height="121" x="0" y="0"/><g class="scrollbox" transform="" clip-path="url(#legendba5c24)"><g class="groups" transform=""><g class="traces" transform="translate(0,18.85)" style="opacity: 1;"><text class="legendtext" text-anchor="start" x="40" y="7.409999999999999" style="font-family: 'Open Sans', verdana, arial, sans-serif; font-size: 19px; fill: rgb(42, 63, 95); fill-opacity: 1; white-space: pre;">Reference</text><g class="layers" style="opacity: 1;"><g class="legendfill"/><g class="legendlines"><path class="js-line" d="M5,0h30" style="fill: none; stroke: rgb(76, 120, 168); stroke-opacity: 1; stroke-width: 3px;"/></g><g class="legendsymbols"><g class="legendpoints"/></g></g><rect class="legendtoggle" x="0" y="-13.85" width="308.46875" height="27.7" style="fill: rgb(0, 0, 0); fill-opacity: 0;"/></g></g><g class="groups" transform=""><g class="traces" transform="translate(0,46.55)" style="opacity: 1;"><text class="legendtext" text-anchor="start" x="40" y="7.409999999999999" style="font-family: 'Open Sans', verdana, arial, sans-serif; font-size: 19px; fill: rgb(42, 63, 95); fill-opacity: 1; white-space: pre;">Forecast gof=0.0</text><g class="layers" style="opacity: 1;"><g class="legendfill"/><g class="legendlines"><path class="js-line" d="M5,0h30" style="fill: none; stroke: rgb(255, 127, 14); stroke-opacity: 0.7; stroke-width: 5px;"/></g><g class="legendsymbols"><g class="legendpoints"/></g></g><rect class="legendtoggle" x="0" y="-13.85" width="308.46875" height="27.7" style="fill: rgb(0, 0, 0); fill-opacity: 0;"/></g></g><g class="groups" transform=""><g class="traces" transform="translate(0,74.25)" style="opacity: 1;"><text class="legendtext" text-anchor="start" x="40" y="7.409999999999999" style="font-family: 'Open Sans', verdana, arial, sans-serif; font-size: 19px; fill: rgb(42, 63, 95); fill-opacity: 1; white-space: pre;">Forecast reg gof=18.76</text><g class="layers" style="opacity: 1;"><g class="legendfill"/><g class="legendlines"><path class="js-line" d="M5,0h30" style="fill: none; stroke: rgb(44, 160, 44); stroke-opacity: 0.7; stroke-width: 5px;"/></g><g class="legendsymbols"><g class="legendpoints"/></g></g><rect class="legendtoggle" x="0" y="-13.85" width="308.46875" height="27.7" style="fill: rgb(0, 0, 0); fill-opacity: 0;"/></g></g><g class="groups" transform=""><g class="traces" transform="translate(0,101.94999999999999)" style="opacity: 1;"><text class="legendtext" text-anchor="start" x="40" y="7.409999999999999" style="font-family: 'Open Sans', verdana, arial, sans-serif; font-size: 19px; fill: rgb(42, 63, 95); fill-opacity: 1; white-space: pre;">Forecast autoreg gof=52.07</text><g class="layers" style="opacity: 1;"><g class="legendfill"/><g class="legendlines"><path class="js-line" d="M5,0h30" style="fill: none; stroke: rgb(23, 190, 207); stroke-opacity: 0.7; stroke-width: 5px;"/></g><g class="legendsymbols"><g class="legendpoints"/></g></g><rect class="legendtoggle" x="0" y="-13.85" width="308.46875" height="27.7" style="fill: rgb(0, 0, 0); fill-opacity: 0;"/></g></g></g><rect class="scrollbar" rx="20" ry="3" width="0" height="0" style="fill: rgb(128, 139, 164); fill-opacity: 1;" x="0" y="0"/></g><g class="g-gtitle"/><g class="g-xtitle"/><g class="g-ytitle" transform="translate(12.537109375,0)"><text class="ytitle" transform="rotate(-90,10.462500000000006,280)" x="10.462500000000006" y="280" text-anchor="middle" style="font-family: 'Open Sans', verdana, arial, sans-serif; font-size: 23px; fill: rgb(42, 63, 95); opacity: 1; font-weight: normal; white-space: pre;">Power [kW]</text></g></g></svg>