<svg class="main-svg" xmlns="http://www.w3.org/2000/svg" xmlns:xlink="http://www.w3.org/1999/xlink" width="1100" height="600" viewBox="0 0 1100 600"><rect x="0" y="0" width="1100" height="600" style="fill: rgb(255, 255, 255); fill-opacity: 1;"/><defs id="defs-9b7481"><g class="clips"><clipPath id="clip9b7481xyplot" class="plotclip"><rect width="687" height="460"/></clipPath><clipPath class="axesclip" id="clip9b7481x"><rect x="75" y="0" width="687" height="600"/></clipPath><clipPath class="axesclip" id="clip9b7481y"><rect x="0" y="50" width="1100" height="460"/></clipPath><clipPath class="axesclip" id="clip9b7481xy"><rect x="75" y="50" width="687" height="460"/></clipPath></g><g class="gradients"/><g class="patterns"/></defs><g class="bglayer"/><g class="layer-below"><g class="imagelayer"/><g class="shapelayer"/></g><g class="cartesianlayer"><g class="subplot xy"><g class="layer-subplot"><g class="shapelayer"/><g class="imagelayer"/></g><g class="gridlayer"><g class="x"><path class="xgrid crisp" transform="translate(92.53,0)" d="M0,50v460" style="stroke: rgb(235, 240, 248); stroke-opacity: 1; stroke-width: 1px;"/><path class="xgrid crisp" transform="translate(176.65,0)" d="M0,50v460" style="stroke: rgb(235, 240, 248); stroke-opacity: 1; stroke-width: 1px;"/><path class="xgrid crisp" transform="translate(260.77,0)" d="M0,50v460" style="stroke: rgb(235, 240, 248); stroke-opacity: 1; stroke-width: 1px;"/><path class="xgrid crisp" transform="translate(344.89,0)" d="M0,50v460" style="stroke: rgb(235, 240, 248); stroke-opacity: 1; stroke-width: 1px;"/><path class="xgrid crisp" transform="translate(429.02,0)" d="M0,50v460" style="stroke: rgb(235, 240, 248); stroke-opacity: 1; stroke-width: 1px;"/><path class="xgrid crisp" transform="translate(513.14,0)" d="M0,50v460" style="stroke: rgb(235, 240, 248); stroke-opacity: 1; stroke-width: 1px;"/><path class="xgrid crisp" transform="translate(597.26,0)" d="M0,50v460" style="stroke: rgb(235, 240, 248); stroke-opacity: 1; stroke-width: 1px;"/><path class="xgrid crisp" transform="translate(681.38,0)" d="M0,50v460" style="stroke: rgb(235, 240, 248); stroke-opacity: 1; stroke-width: 1px;"/></g><g class="y"><path class="ygrid crisp" transform="translate(0,456.83)" d="M75,0h687" style="stroke: rgb(235, 240, 248); stroke-opacity: 1; stroke-width: 1px;"/><path class="ygrid crisp" transform="translate(0,322.89)" d="M75,0h687" style="stroke: rgb(235, 240, 248); stroke-opacity: 1; stroke-width: 1px;"/><path class="ygrid crisp" transform="translate(0,255.92)" d="M75,0h687" style="stroke: rgb(235, 240, 248); stroke-opacity: 1; stroke-width: 1px;"/><path class="ygrid crisp" transform="translate(0,188.95)" d="M75,0h687" style="stroke: rgb(235, 240, 248); stroke-opacity: 1; stroke-width: 1px;"/><path class="ygrid crisp" transform="translate(0,121.99)" d="M75,0h687" style="stroke: rgb(235, 240, 248); stroke-opacity: 1; stroke-width: 1px;"/><path class="ygrid crisp" transform="translate(0,55.019999999999996)" d="M75,0h687" style="stroke: rgb(235, 240, 248); stroke-opacity: 1; stroke-width: 1px;"/></g></g><g class="zerolinelayer"><path class="yzl zl crisp" transform="translate(0,389.86)" d="M75,0h687" style="stroke: rgb(0, 0, 0); stroke-opacity: 1; stroke-width: 2px;"/></g><path class="xlines-below"/><path class="ylines-below"/><g class="overlines-below"/><g class="xaxislayer-below"/><g class="yaxislayer-below"/><g class="overaxes-below"/><g class="plot" transform="translate(75,50)" clip-path="url(#clip9b7481xyplot)"><g class="scatterlayer mlayer"><g class="trace scatter tracebe9b9e" style="stroke-miterlimit: 2; opacity: 1;"><g class="fills"/><g class="errorbars"/><g class="lines"><path class="js-line" d="M0,251.12L3.51,202.35L7.01,287.91L10.52,288.32L14.02,269.48L17.53,259.91L21.03,281.43L24.54,283.36L28.04,283.46L31.55,254.55L35.05,261.05L38.56,271.53L42.06,271.32L45.57,272.93L49.07,265.71L52.58,220.96L56.08,261.64L59.59,265.32L63.09,263.64L66.6,262.44L70.1,257.87L73.61,230.01L77.11,235.39L80.62,257.91L84.12,255.37L87.63,251.41L91.13,253.18L94.64,259.11L98.14,259.34L101.65,216.03L105.15,260.07L108.66,268.57L112.16,287.21L115.67,288.96L119.17,293.84L122.68,322.41L126.18,339.53L129.69,304.8L133.19,292.82L136.7,323.56L140.2,338.15L143.71,351.09L147.21,398.44L150.72,399.05L154.22,389.74L157.73,345.13L161.23,347.92L164.74,315.59L168.24,335.41L171.75,322.36L175.26,383.27L178.76,346.9L182.27,407.9L185.77,372.02L189.28,355.67L192.78,393.31L196.29,389.11L199.79,370.02L203.3,343.09L206.8,379.68L210.31,358.47L213.81,403.28L217.32,358.4L220.82,340.97L224.33,362.25L227.83,338.6L231.34,399.9L234.84,410.63L238.35,395.13L241.85,347.16L245.36,311.81L252.37,355.08L255.87,339.24L259.38,319.63L262.88,308.49L266.39,308.1L269.89,304.97L273.4,291.77L276.9,230.32L280.41,290.04L283.91,287.71L287.42,284.52L290.92,287.64L297.93,289.66L301.44,288.88L304.94,286.04L308.45,227.44L311.95,280.95L315.46,286.7L318.96,239.55L322.47,232.75L325.97,279.68L329.48,280.41L332.98,278.14L336.49,247.46L339.99,240.12L343.5,273.13L347.01,269.08L350.51,229.26L354.02,241.68L357.52,262.14L361.03,262.16L364.53,256.62L368.04,251.44L371.54,228.94L375.05,213.78L378.55,252.43L382.06,251.1L385.56,245.25L392.57,250.5L396.08,230.32L399.58,218.32L403.09,249.61L406.59,257.58L410.1,255.37L413.6,254.96L417.11,250.3L420.61,250.69L424.12,205.58L427.62,252.62L431.13,259.07L434.63,259.71L438.14,264.61L445.15,270.52L448.65,268.32L452.16,230.84L455.66,245.68L459.17,273.2L462.67,279.27L466.18,283.55L469.68,297.13L473.19,302.8L476.69,299.75L480.2,293.23L483.7,293.25L487.21,262.63L490.71,342.66L494.22,374.56L497.72,383.66L501.23,354.67L504.73,375.58L508.24,369.62L511.74,385.73L515.25,408.63L518.76,391.39L522.26,319.09L525.77,314.45L529.27,385.83L532.78,418.94L536.28,412.81L539.79,381.24L543.29,423.06L546.8,430.17L550.3,430.68L553.81,419.71L557.31,381.63L560.82,424.12L564.32,424.4L567.83,416.47L571.33,375.29L574.84,206.12L578.34,340.54L581.85,330.55L585.35,363.1L588.86,304.23L592.36,195.13L595.87,120.7L599.37,122.26L602.88,248.28L606.38,174.87L609.89,204.66L613.39,86.83L616.9,62.67L620.4,189.67L623.91,185.99L627.41,81.84L630.92,23L634.42,52.48L637.93,107.6L641.43,235.93L644.94,223.83L648.44,202.75L651.95,245.82L655.45,175.74L658.96,260.74L662.46,296.12L665.97,287.64L669.47,308.19L672.98,292.62L676.48,289.43L679.99,302.55L683.49,279.45L687,289.14" style="vector-effect: non-scaling-stroke; fill: none; stroke: rgb(76, 120, 168); stroke-opacity: 1; stroke-width: 3px; opacity: 1;"/></g><g class="points"/><g class="text"/></g><g class="trace scatter trace0f761a" style="stroke-miterlimit: 2; opacity: 1;"><g class="fills"/><g class="errorbars"/><g class="lines"><path class="js-line" d="M17.53,217.79L28.04,221.1L31.55,222.65L45.57,228.2L49.07,228.9L56.08,228.97L59.59,228.33L70.1,224.48L73.61,222.94L84.12,219.69L87.63,219.59L94.64,221.61L98.14,223.87L105.15,230.89L108.66,235.54L122.68,258.82L126.18,264.98L136.7,281.69L140.2,286.28L150.72,296.43L154.22,298.67L164.74,302.92L168.24,303.81L189.28,307.13L192.78,307.1L199.79,305.62L203.3,303.89L210.31,297.8L213.81,293.23L220.82,280.83L224.33,273.04L234.84,244.72L238.35,234.28L252.37,194.38L255.87,186.19L262.88,173.45L266.39,169.15L273.4,164.82L276.9,164.69L283.91,167.8L287.42,170.65L311.95,193.73L315.46,195.42L322.47,197L325.97,197.01L354.02,194.03L357.52,194.76L371.54,200.17L375.05,201.67L385.56,204.69L389.07,204.94L399.58,203.09L403.09,201.78L420.61,195.64L424.12,195.6L431.13,197.74L434.63,200.07L441.64,207.24L445.15,211.98L459.17,235.66L462.67,241.93L476.69,263.74L480.2,267.86L490.71,276.7L494.22,278.62L504.73,282.47L508.24,283.39L525.77,286.83L529.27,286.98L536.28,285.87L539.79,284.33L546.8,278.61L550.3,274.23L557.31,262.22L560.82,254.62L571.33,226.89L574.84,216.64L588.86,177.5L592.36,169.51L599.37,157.15L602.88,153.03L609.89,149.07L613.39,149.12L620.4,152.59L623.91,155.61L648.44,179.84L651.95,181.68L658.96,183.55L662.46,183.7L687,181.23" style="vector-effect: non-scaling-stroke; fill: none; stroke: rgb(255, 127, 14); stroke-opacity: 0.7; stroke-width: 5px; opacity: 1;"/></g><g class="points"/><g class="text"/></g><g class="trace scatter tracee5981f" style="stroke-miterlimit: 2; opacity: 1;"><g class="fills"/><g class="errorbars"/><g class="lines"><path class="js-line" d="M17.53,257.1L31.55,263.67L35.05,265.62L49.07,272L52.58,272.85L63.09,273.05L66.6,272.41L84.12,268.35L87.63,268.85L94.64,271.71L98.14,274.83L105.15,284.28L108.66,290.78L119.17,317L122.68,326.47L133.19,355.33L136.7,363.13L143.71,377.62L147.21,383L157.73,395.3L161.23,397.29L175.26,402.2L178.76,402.02L189.28,401.55L192.78,399.7L199.79,392.41L203.3,388.14L227.83,354.31L231.34,347.5L241.85,320.57L245.36,310.52L262.88,259.54L266.39,251.47L273.4,241.71L276.9,239.76L280.41,238.74L283.91,239.58L290.92,246.05L294.43,249.85L308.45,263.38L311.95,265.62L318.96,268.48L322.47,269.18L332.98,269.39L336.49,269.18L350.51,269.67L354.02,270.44L364.53,274.32L368.04,275.97L382.06,282.11L385.56,283.09L396.08,283.8L399.58,283.26L417.11,279.37L420.61,280.55L427.62,286.31L431.13,290.91L438.14,304.89L441.64,312.86L459.17,357.51L462.67,366.51L476.69,397.55L480.2,403.96L490.71,418.12L494.22,421.78L508.24,431.02L511.74,432.06L518.76,433.71L522.26,435.05L529.27,437L532.78,436.14L539.79,432.01L543.29,428.63L550.3,418.09L553.81,411.1L560.82,392.62L564.32,381.65L581.85,320.1L585.35,307.99L595.87,276.67L599.37,267.9L606.38,254.06L609.89,250.48L616.9,247.68L620.4,248.64L627.41,255.33L630.92,259.26L644.94,273.43L648.44,275.85L655.45,279.06L658.96,279.94L669.47,280.69L672.98,280.67L687,281.91" style="vector-effect: non-scaling-stroke; fill: none; stroke: rgb(44, 160, 44); stroke-opacity: 0.7; stroke-width: 5px; opacity: 1;"/></g><g class="points"/><g class="text"/></g><g class="trace scatter traced2cf53" style="stroke-miterlimit: 2; opacity: 1;"><g class="fills"/><g class="errorbars"/><g class="lines"><path class="js-line" d="M17.53,255.98L21.03,255.74L24.54,258.37L28.04,260.53L31.55,255.66L35.05,254.01L38.56,255.91L42.06,259.24L45.57,257.02L49.07,255.78L52.58,255.98L56.08,256.34L59.59,270.4L70.1,258.24L73.61,258.53L77.11,256.57L80.62,252.69L84.12,248.32L87.63,252.77L91.13,255.5L94.64,255.79L98.14,255.51L101.65,263.93L112.16,277.06L115.67,284.31L126.18,302.71L129.69,319.73L133.19,333.19L136.7,341.56L140.2,347.14L143.71,347.58L150.72,357.3L154.22,360.45L161.23,363.73L164.74,363.84L168.24,364.08L171.75,372.83L178.76,386.35L182.27,392.27L185.77,400.2L189.28,389.11L192.78,386.38L196.29,392.07L203.3,367.22L206.8,363.99L210.31,364.61L213.81,355.7L217.32,349.64L220.82,347.56L224.33,347.27L227.83,349.54L234.84,320.39L238.35,313.26L266.39,229.11L269.89,287.23L273.4,269.01L276.9,257.54L280.41,250.18L283.91,252.75L287.42,254.36L290.92,254.33L294.43,253.71L297.93,247.86L308.45,232.92L311.95,235.55L315.46,248.02L318.96,249.46L322.47,242.72L325.97,247.31L329.48,250.42L332.98,249.7L339.99,245.5L343.5,244.44L350.51,243.74L354.02,228.79L361.03,244.16L364.53,247.06L368.04,243.66L371.54,243.84L378.55,251.36L382.06,249.78L385.56,249.06L389.07,249.66L392.57,250.29L396.08,253.59L399.58,254.37L403.09,253.47L406.59,251.41L410.1,251.09L417.11,246.18L420.61,242.7L427.62,252.27L431.13,254.24L434.63,256.03L438.14,263.95L459.17,309.75L462.67,315.77L469.68,346.24L473.19,354.51L476.69,359.95L480.2,322.97L483.7,341.52L487.21,351.2L497.72,365.03L501.23,367.84L504.73,370.2L508.24,380.72L515.25,397.16L518.76,404.45L522.26,385.98L525.77,390.34L532.78,405.35L536.28,392.24L539.79,384.91L543.29,385.01L546.8,388.01L550.3,380.31L553.81,374.56L557.31,371.91L560.82,370.1L564.32,400.44L571.33,350.5L574.84,338.23L592.36,263.58L595.87,249.68L602.88,228.65L606.38,244.76L609.89,217.94L613.39,206.85L616.9,210.55L620.4,222.16L623.91,228.56L627.41,231.66L630.92,234.12L634.42,231.12L644.94,221.76L648.44,211.22L651.95,213.41L655.45,221.91L658.96,223.8L662.46,231.96L665.97,236.37L669.47,237.22L676.48,236.45L679.99,236.55L687,237.6" style="vector-effect: non-scaling-stroke; fill: none; stroke: rgb(23, 190, 207); stroke-opacity: 0.7; stroke-width: 5px; opacity: 1;"/></g><g class="points"/><g class="text"/></g></g></g><g class="overplot"/><path class="xlines-above crisp" d="M0,0" style="fill: none;"/><path class="ylines-above crisp" d="M74,50V510" style="fill: none; stroke-width: 2px; stroke: rgb(0, 0, 0); stroke-opacity: 1;"/><g class="overlines-above"/><g class="xaxislayer-above"><g class="xtick"><text text-anchor="middle" x="0" y="530" transform="translate(92.53,0)" style="font-family: 'Open Sans', verdana, arial, sans-serif; font-size: 19px; fill: rgb(42, 63, 95); fill-opacity: 1; white-space: pre; opacity: 1;"><tspan class="line" dy="0em" x="0" y="530">00:00</tspan><tspan class="line" dy="1.3em" x="0" y="530">Apr 26, 2022</tspan></text></g><g class="xtick"><text text-anchor="middle" x="0" y="530" style="font-family: 'Open Sans', verdana, arial, sans-serif; font-size: 19px; fill: rgb(42, 63, 95); fill-opacity: 1; white-space: pre; opacity: 1;" transform="translate(176.65,0)">06:00</text></g><g class="xtick"><text text-anchor="middle" x="0" y="530" style="font-family: 'Open Sans', verdana, arial, sans-serif; font-size: 19px; fill: rgb(42, 63, 95); fill-opacity: 1; white-space: pre; opacity: 1;" transform="translate(260.77,0)">12:00</text></g><g class="xtick"><text text-anchor="middle" x="0" y="530" style="font-family: 'Open Sans', verdana, arial, sans-serif; font-size: 19px; fill: rgb(42, 63, 95); fill-opacity: 1; white-space: pre; opacity: 1;" transform="translate(344.89,0)">18:00</text></g><g class="xtick"><text text-anchor="middle" x="0" y="530" style="font-family: 'Open Sans', verdana, arial, sans-serif; font-size: 19px; fill: rgb(42, 63, 95); fill-opacity: 1; white-space: pre; opacity: 1;" transform="translate(429.02,0)"><tspan class="line" dy="0em" x="0" y="530">00:00</tspan><tspan class="line" dy="1.3em" x="0" y="530">Apr 27, 2022</tspan></text></g><g class="xtick"><text text-anchor="middle" x="0" y="530" style="font-family: 'Open Sans', verdana, arial, sans-serif; font-size: 19px; fill: rgb(42, 63, 95); fill-opacity: 1; white-space: pre; opacity: 1;" transform="translate(513.14,0)">06:00</text></g><g class="xtick"><text text-anchor="middle" x="0" y="530" style="font-family: 'Open Sans', verdana, arial, sans-serif; font-size: 19px; fill: rgb(42, 63, 95); fill-opacity: 1; white-space: pre; opacity: 1;" transform="translate(597.26,0)">12:00</text></g><g class="xtick"><text text-anchor="middle" x="0" y="530" style="font-family: 'Open Sans', verdana, arial, sans-serif; font-size: 19px; fill: rgb(42, 63, 95); fill-opacity: 1; white-space: pre; opacity: 1;" transform="translate(681.38,0)">18:00</text></g></g><g class="yaxislayer-above"><g class="ytick"><text text-anchor="end" x="69.2" y="6.6499999999999995" transform="translate(0,456.83)" style="font-family: 'Open Sans', verdana, arial, sans-serif; font-size: 19px; fill: rgb(42, 63, 95); fill-opacity: 1; white-space: pre; opacity: 1;">−1</text></g><g class="ytick"><text text-anchor="end" x="69.2" y="6.6499999999999995" style="font-family: 'Open Sans', verdana, arial, sans-serif; font-size: 19px; fill: rgb(42, 63, 95); fill-opacity: 1; white-space: pre; opacity: 1;" transform="translate(0,389.86)">0</text></g><g class="ytick"><text text-anchor="end" x="69.2" y="6.6499999999999995" style="font-family: 'Open Sans', verdana, arial, sans-serif; font-size: 19px; fill: rgb(42, 63, 95); fill-opacity: 1; white-space: pre; opacity: 1;" transform="translate(0,322.89)">1</text></g><g class="ytick"><text text-anchor="end" x="69.2" y="6.6499999999999995" style="font-family: 'Open Sans', verdana, arial, sans-serif; font-size: 19px; fill: rgb(42, 63, 95); fill-opacity: 1; white-space: pre; opacity: 1;" transform="translate(0,255.92)">2</text></g><g class="ytick"><text text-anchor="end" x="69.2" y="6.6499999999999995" style="font-family: 'Open Sans', verdana, arial, sans-serif; font-size: 19px; fill: rgb(42, 63, 95); fill-opacity: 1; white-space: pre; opacity: 1;" transform="translate(0,188.95)">3</text></g><g class="ytick"><text text-anchor="end" x="69.2" y="6.6499999999999995" style="font-family: 'Open Sans', verdana, arial, sans-serif; font-size: 19px; fill: rgb(42, 63, 95); fill-opacity: 1; white-space: pre; opacity: 1;" transform="translate(0,121.99)">4</text></g><g class="ytick"><text text-anchor="end" x="69.2" y="6.6499999999999995" style="font-family: 'Open Sans', verdana, arial, sans-serif; font-size: 19px; fill: rgb(42, 63, 95); fill-opacity: 1; white-space: pre; opacity: 1;" transform="translate(0,55.019999999999996)">5</text></g></g><g class="overaxes-above"/></g></g><g class="polarlayer"/><g class="ternarylayer"/><g class="geolayer"/><g class="funnelarealayer"/><g class="pielayer"/><g class="iciclelayer"/><g class="treemaplayer"/><g class="sunburstlayer"/><g class="glimages"/><defs id="topdefs-9b7481"><g class="clips"/><clipPath id="legend9b7481"><rect width="314" height="121" x="0" y="0"/></clipPath></defs><g class="layer-above"><g class="imagelayer"/><g class="shapelayer"/></g><g class="infolayer"><g class="legend" pointer-events="all" transform="translate(775.74,50)"><rect class="bg" shape-rendering="crispEdges" style="stroke: rgb(68, 68, 68); stroke-opacity: 1; fill: rgb(255, 255, 255); fill-opacity: 1; stroke-width: 0px;" width="314" height="121" x="0" y="0"/><g class="scrollbox" transform="" clip-path="url(#legend9b7481)"><g class="groups" transform=""><g class="traces" transform="translate(0,18.85)" style="opacity: 1;"><text class="legendtext" text-anchor="start" x="40" y="7.409999999999999" style="font-family: 'Open Sans', verdana, arial, sans-serif; font-size: 19px; fill: rgb(42, 63, 95); fill-opacity: 1; white-space: pre;">Reference</text><g class="layers" style="opacity: 1;"><g class="legendfill"/><g class="legendlines"><path class="js-line" d="M5,0h30" style="fill: none; stroke: rgb(76, 120, 168); stroke-opacity: 1; stroke-width: 3px;"/></g><g class="legendsymbols"><g class="legendpoints"/></g></g><rect class="legendtoggle" x="0" y="-13.85" width="308.46875" height="27.7" style="fill: rgb(0, 0, 0); fill-opacity: 0;"/></g></g><g class="groups" transform=""><g class="traces" transform="translate(0,46.55)" style="opacity: 1;"><text class="legendtext" text-anchor="start" x="40" y="7.409999999999999" style="font-family: 'Open Sans', verdana, arial, sans-serif; font-size: 19px; fill: rgb(42, 63, 95); fill-opacity: 1; white-space: pre;">Forecast gof=0.0</text><g class="layers" style="opacity: 1;"><g class="legendfill"/><g class="legendlines"><path class="js-line" d="M5,0h30" style="fill: none; stroke: rgb(255, 127, 14); stroke-opacity: 0.7; stroke-width: 5px;"/></g><g class="legendsymbols"><g class="legendpoints"/></g></g><rect class="legendtoggle" x="0" y="-13.85" width="308.46875" height="27.7" style="fill: rgb(0, 0, 0); fill-opacity: 0;"/></g></g><g class="groups" transform=""><g class="traces" transform="translate(0,74.25)" style="opacity: 1;"><text class="legendtext" text-anchor="start" x="40" y="7.409999999999999" style="font-family: 'Open Sans', verdana, arial, sans-serif; font-size: 19px; fill: rgb(42, 63, 95); fill-opacity: 1; white-space: pre;">Forecast reg gof=19.61</text><g class="layers" style="opacity: 1;"><g class="legendfill"/><g class="legendlines"><path class="js-line" d="M5,0h30" style="fill: none; stroke: rgb(44, 160, 44); stroke-opacity: 0.7; stroke-width: 5px;"/></g><g class="legendsymbols"><g class="legendpoints"/></g></g><rect class="legendtoggle" x="0" y="-13.85" width="308.46875" height="27.7" style="fill: rgb(0, 0, 0); fill-opacity: 0;"/></g></g><g class="groups" transform=""><g class="traces" transform="translate(0,101.94999999999999)" style="opacity: 1;"><text class="legendtext" text-anchor="start" x="40" y="7.409999999999999" style="font-family: 'Open Sans', verdana, arial, sans-serif; font-size: 19px; fill: rgb(42, 63, 95); fill-opacity: 1; white-space: pre;">Forecast autoreg gof=36.63</text><g class="layers" style="opacity: 1;"><g class="legendfill"/><g class="legendlines"><path class="js-line" d="M5,0h30" style="fill: none; stroke: rgb(23, 190, 207); stroke-opacity: 0.7; stroke-width: 5px;"/></g><g class="legendsymbols"><g class="legendpoints"/></g></g><rect class="legendtoggle" x="0" y="-13.85" width="308.46875" height="27.7" style="fill: rgb(0, 0, 0); fill-opacity: 0;"/></g></g></g><rect class="scrollbar" rx="20" ry="3" width="0" height="0" style="fill: rgb(128, 139, 164); fill-opacity: 1;" x="0" y="0"/></g><g class="g-gtitle"/><g class="g-xtitle"/><g class="g-ytitle" transform="translate(12.537109375,0)"><text class="ytitle" transform="rotate(-90,10.462500000000006,280)" x="10.462500000000006" y="280" text-anchor="middle" style="font-family: 'Open Sans', verdana, arial, sans-serif; font-size: 23px; fill: rgb(42, 63, 95); opacity: 1; font-weight: normal; white-space: pre;">Power [kW]</text></g></g></svg>