<svg class="main-svg" xmlns="http://www.w3.org/2000/svg" xmlns:xlink="http://www.w3.org/1999/xlink" width="1100" height="600" viewBox="0 0 1100 600"><rect x="0" y="0" width="1100" height="600" style="fill: rgb(255, 255, 255); fill-opacity: 1;"/><defs id="defs-53eb1b"><g class="clips"><clipPath id="clip53eb1bxyplot" class="plotclip"><rect width="687" height="460"/></clipPath><clipPath class="axesclip" id="clip53eb1bx"><rect x="75" y="0" width="687" height="600"/></clipPath><clipPath class="axesclip" id="clip53eb1by"><rect x="0" y="50" width="1100" height="460"/></clipPath><clipPath class="axesclip" id="clip53eb1bxy"><rect x="75" y="50" width="687" height="460"/></clipPath></g><g class="gradients"/><g class="patterns"/></defs><g class="bglayer"/><g class="layer-below"><g class="imagelayer"/><g class="shapelayer"/></g><g class="cartesianlayer"><g class="subplot xy"><g class="layer-subplot"><g class="shapelayer"/><g class="imagelayer"/></g><g class="gridlayer"><g class="x"><path class="xgrid crisp" transform="translate(92.53,0)" d="M0,50v460" style="stroke: rgb(235, 240, 248); stroke-opacity: 1; stroke-width: 1px;"/><path class="xgrid crisp" transform="translate(176.65,0)" d="M0,50v460" style="stroke: rgb(235, 240, 248); stroke-opacity: 1; stroke-width: 1px;"/><path class="xgrid crisp" transform="translate(260.77,0)" d="M0,50v460" style="stroke: rgb(235, 240, 248); stroke-opacity: 1; stroke-width: 1px;"/><path class="xgrid crisp" transform="translate(344.89,0)" d="M0,50v460" style="stroke: rgb(235, 240, 248); stroke-opacity: 1; stroke-width: 1px;"/><path class="xgrid crisp" transform="translate(429.02,0)" d="M0,50v460" style="stroke: rgb(235, 240, 248); stroke-opacity: 1; stroke-width: 1px;"/><path class="xgrid crisp" transform="translate(513.14,0)" d="M0,50v460" style="stroke: rgb(235, 240, 248); stroke-opacity: 1; stroke-width: 1px;"/><path class="xgrid crisp" transform="translate(597.26,0)" d="M0,50v460" style="stroke: rgb(235, 240, 248); stroke-opacity: 1; stroke-width: 1px;"/><path class="xgrid crisp" transform="translate(681.38,0)" d="M0,50v460" style="stroke: rgb(235, 240, 248); stroke-opacity: 1; stroke-width: 1px;"/></g><g class="y"><path class="ygrid crisp" transform="translate(0,462.78)" d="M75,0h687" style="stroke: rgb(235, 240, 248); stroke-opacity: 1; stroke-width: 1px;"/><path class="ygrid crisp" transform="translate(0,326.76)" d="M75,0h687" style="stroke: rgb(235, 240, 248); stroke-opacity: 1; stroke-width: 1px;"/><path class="ygrid crisp" transform="translate(0,258.76)" d="M75,0h687" style="stroke: rgb(235, 240, 248); stroke-opacity: 1; stroke-width: 1px;"/><path class="ygrid crisp" transform="translate(0,190.75)" d="M75,0h687" style="stroke: rgb(235, 240, 248); stroke-opacity: 1; stroke-width: 1px;"/><path class="ygrid crisp" transform="translate(0,122.74)" d="M75,0h687" style="stroke: rgb(235, 240, 248); stroke-opacity: 1; stroke-width: 1px;"/><path class="ygrid crisp" transform="translate(0,54.74)" d="M75,0h687" style="stroke: rgb(235, 240, 248); stroke-opacity: 1; stroke-width: 1px;"/></g></g><g class="zerolinelayer"><path class="yzl zl crisp" transform="translate(0,394.77)" d="M75,0h687" style="stroke: rgb(0, 0, 0); stroke-opacity: 1; stroke-width: 2px;"/></g><path class="xlines-below"/><path class="ylines-below"/><g class="overlines-below"/><g class="xaxislayer-below"/><g class="yaxislayer-below"/><g class="overaxes-below"/><g class="plot" transform="translate(75,50)" clip-path="url(#clip53eb1bxyplot)"><g class="scatterlayer mlayer"><g class="trace scatter tracec1ad0d" style="stroke-miterlimit: 2; opacity: 1;"><g class="fills"/><g class="errorbars"/><g class="lines"><path class="js-line" d="M0,254.66L3.51,205.13L7.01,292.02L10.52,292.43L14.02,273.3L17.53,263.58L21.03,285.43L24.54,287.39L28.04,287.5L31.55,258.14L35.05,264.74L38.56,275.39L42.06,275.17L45.57,276.8L49.07,269.47L52.58,224.03L56.08,265.34L59.59,269.08L63.09,267.37L66.6,266.16L70.1,261.51L73.61,233.22L77.11,238.68L80.62,261.55L84.12,258.97L87.63,254.95L91.13,256.74L94.64,262.76L98.14,263L101.65,219.02L105.15,263.74L108.66,272.38L112.16,291.31L115.67,293.09L119.17,298.04L122.68,327.05L126.18,344.43L129.69,309.17L133.19,297L136.7,328.21L140.2,343.03L143.71,356.18L147.21,404.25L150.72,404.87L154.22,395.42L157.73,350.12L161.23,352.95L164.74,320.12L168.24,340.26L171.75,327L175.26,388.86L178.76,351.92L182.27,413.87L185.77,377.43L189.28,360.82L192.78,399.05L196.29,394.79L199.79,375.4L203.3,348.05L206.8,385.21L210.31,363.67L213.81,409.17L217.32,363.6L220.82,345.89L224.33,367.51L227.83,343.49L231.34,405.74L234.84,416.64L238.35,400.9L241.85,352.19L245.36,316.28L252.37,360.22L255.87,344.14L259.38,324.22L262.88,312.92L266.39,312.52L269.89,309.34L273.4,295.93L276.9,233.53L280.41,294.17L283.91,291.82L287.42,288.57L290.92,291.74L297.93,293.79L301.44,293L304.94,290.11L308.45,230.61L311.95,284.94L315.46,290.78L318.96,242.91L322.47,236L325.97,283.66L329.48,284.4L332.98,282.1L336.49,250.94L339.99,243.49L343.5,277L347.01,272.9L350.51,232.46L354.02,245.06L357.52,265.85L361.03,265.87L364.53,260.24L368.04,254.98L371.54,232.13L375.05,216.74L378.55,255.98L382.06,254.64L385.56,248.69L392.57,254.03L396.08,233.53L399.58,221.34L403.09,253.13L406.59,261.21L410.1,258.97L413.6,258.56L417.11,253.82L420.61,254.22L424.12,208.41L427.62,256.18L431.13,262.73L434.63,263.38L438.14,268.35L445.15,274.35L448.65,272.12L452.16,234.06L455.66,249.13L459.17,277.07L462.67,283.24L466.18,287.59L469.68,301.37L473.19,307.14L476.69,304.04L480.2,297.42L483.7,297.44L487.21,266.34L490.71,347.62L494.22,380.01L497.72,389.25L501.23,359.81L504.73,381.04L508.24,374.99L511.74,391.35L515.25,414.6L518.76,397.1L522.26,323.68L525.77,318.97L529.27,391.45L532.78,425.08L536.28,418.85L539.79,386.79L543.29,429.26L546.8,436.48L550.3,437L553.81,425.86L557.31,387.19L560.82,430.33L564.32,430.62L567.83,422.57L571.33,380.75L574.84,208.95L578.34,345.46L581.85,335.31L585.35,368.37L588.86,308.59L592.36,197.8L595.87,122.22L599.37,123.8L602.88,251.77L606.38,177.22L609.89,207.47L613.39,87.82L616.9,63.29L620.4,192.26L623.91,188.52L627.41,82.76L630.92,23L634.42,52.94L637.93,108.91L641.43,239.22L644.94,226.94L648.44,205.54L651.95,249.27L655.45,178.11L658.96,264.43L662.46,300.35L665.97,291.75L669.47,312.61L672.98,296.8L676.48,293.56L679.99,306.89L683.49,283.42L687,293.27" style="vector-effect: non-scaling-stroke; fill: none; stroke: rgb(76, 120, 168); stroke-opacity: 1; stroke-width: 3px; opacity: 1;"/></g><g class="points"/><g class="text"/></g><g class="trace scatter trace59f211" style="stroke-miterlimit: 2; opacity: 1;"><g class="fills"/><g class="errorbars"/><g class="lines"><path class="js-line" d="M17.53,244.22L31.55,249.78L35.05,251.32L45.57,254.71L49.07,255.17L59.59,254.12L63.09,253.09L80.62,247.62L84.12,247.44L91.13,249.02L94.64,250.9L101.65,256.98L105.15,261.09L115.67,276.52L119.17,282.24L136.7,308.68L140.2,312.79L150.72,322.07L154.22,324.28L168.24,330.46L171.75,331.67L189.28,336.21L192.78,336.32L199.79,334.81L203.3,332.92L210.31,326.27L213.81,321.38L220.82,308.4L224.33,300.42L238.35,262.14L241.85,252.09L252.37,224.83L255.87,217.49L262.88,206.42L266.39,202.87L273.4,199.72L276.9,199.95L283.91,203.32L287.42,206.06L308.45,224.22L311.95,226.08L318.96,228.22L322.47,228.58L336.49,227.46L339.99,227.12L350.51,227.5L354.02,228.24L368.04,233.5L371.54,234.99L382.06,238.29L385.56,238.73L396.08,237.69L399.58,236.69L417.11,231.44L420.61,231.34L427.62,233.08L431.13,235.07L438.14,241.36L441.64,245.58L452.16,261.41L455.66,267.28L473.19,294.55L476.69,298.84L487.21,308.71L490.71,311.12L504.73,318.16L508.24,319.6L525.77,325.31L529.27,325.67L536.28,324.65L539.79,323.01L546.8,316.86L550.3,312.23L557.31,299.75L560.82,292.03L574.84,254.76L578.34,244.95L588.86,218.44L592.36,211.34L599.37,200.76L602.88,197.44L609.89,194.75L613.39,195.22L620.4,199.03L623.91,201.98L644.94,221.33L648.44,223.37L655.45,225.86L658.96,226.38L672.98,225.86L676.48,225.65L687,226.38" style="vector-effect: non-scaling-stroke; fill: none; stroke: rgb(255, 127, 14); stroke-opacity: 0.7; stroke-width: 5px; opacity: 1;"/></g><g class="points"/><g class="text"/></g><g class="trace scatter tracebbc160" style="stroke-miterlimit: 2; opacity: 1;"><g class="fills"/><g class="errorbars"/><g class="lines"><path class="js-line" d="M17.53,255.32L49.07,267.91L52.58,268.31L63.09,267.49L66.6,266.67L80.62,263.01L84.12,263.02L91.13,264.99L94.64,267.09L101.65,274.79L105.15,279.92L112.16,294.19L115.67,302.87L136.7,354.95L140.2,362.17L147.21,373.6L150.72,377.77L157.73,385.65L161.23,387.78L175.26,393.83L178.76,393.95L185.77,394.26L189.28,393.87L192.78,391.93L196.29,388.54L206.8,373.93L210.31,368.32L224.33,347.51L227.83,341.13L234.84,325.41L238.35,316.27L262.88,247.6L266.39,239.94L273.4,230.73L276.9,228.9L280.41,227.85L283.91,228.54L290.92,234.28L294.43,237.55L304.94,246.31L308.45,248.41L315.46,251.13L318.96,251.8L329.48,251.99L332.98,251.77L347.01,251.88L350.51,252.45L364.53,257L368.04,258.44L382.06,263.05L385.56,263.58L396.08,263.12L399.58,262.33L417.11,258.57L420.61,260.01L427.62,266.34L431.13,271.19L441.64,293.53L445.15,301.85L466.18,353.43L469.68,360.77L483.7,385.52L487.21,389.85L494.22,398.06L497.72,400.84L511.74,409.99L515.25,410.82L529.27,415.9L532.78,414.89L539.79,410.09L543.29,406.23L550.3,394.51L553.81,386.9L560.82,367.29L564.32,355.87L592.36,261.18L595.87,252.29L602.88,236.6L606.38,231.03L613.39,226.04L616.9,225.14L620.4,225.98L623.91,228.53L641.43,244.84L644.94,247.15L655.45,251.15L658.96,251.66L687,253.55" style="vector-effect: non-scaling-stroke; fill: none; stroke: rgb(44, 160, 44); stroke-opacity: 0.7; stroke-width: 5px; opacity: 1;"/></g><g class="points"/><g class="text"/></g><g class="trace scatter trace44b707" style="stroke-miterlimit: 2; opacity: 1;"><g class="fills"/><g class="errorbars"/><g class="lines"><path class="js-line" d="M17.53,265.25L24.54,270.04L28.04,270.38L35.05,271.26L38.56,272.28L49.07,273.96L52.58,273.95L59.59,274.34L63.09,270.56L66.6,266.23L70.1,266.16L77.11,266.65L80.62,266.29L87.63,267.45L91.13,269.03L98.14,274.44L101.65,269.33L119.17,308.4L122.68,317.2L140.2,358.92L143.71,352.16L157.73,380.24L161.23,385.01L171.75,395.57L175.26,398.21L182.27,401.75L185.77,415.27L189.28,407.02L192.78,402L196.29,401.72L199.79,400.01L206.8,390.55L210.31,384.54L224.33,356.36L227.83,361.13L234.84,334.01L238.35,324.95L262.88,263.78L266.39,257.52L269.89,295.07L273.4,279.84L276.9,270.66L280.41,265.29L287.42,258.89L290.92,257.94L297.93,258.78L301.44,259.75L308.45,261.61L311.95,237.95L315.46,252.65L318.96,258.06L325.97,256L329.48,256.63L339.99,257.48L343.5,257.77L350.51,259.16L354.02,237.79L357.52,250.51L361.03,256.86L368.04,260.23L371.54,262.99L378.55,267.4L382.06,268.7L392.57,270.01L396.08,257.78L403.09,260.43L406.59,260.81L420.61,263.2L424.12,265.39L431.13,272.65L434.63,278.06L438.14,270.66L441.64,282.19L459.17,333.47L462.67,343.08L473.19,368.57L476.69,375.9L480.2,328.38L483.7,349.85L490.71,373.06L494.22,382.01L501.23,396.99L504.73,402.86L511.74,412.34L515.25,415.87L518.76,418.94L522.26,401.4L529.27,416.51L532.78,418.47L539.79,418.38L543.29,416.68L550.3,408.43L553.81,402.06L560.82,385.06L564.32,414.42L571.33,367.31L574.84,353.19L592.36,287.42L595.87,277.61L606.38,254.18L609.89,231.81L613.39,224.25L616.9,230.16L620.4,235.42L623.91,238L630.92,243.89L634.42,247.53L644.94,256.08L648.44,215.86L651.95,221.96L655.45,234.82L658.96,242.04L662.46,245.15L676.48,253.78L679.99,255.31L687,258.56" style="vector-effect: non-scaling-stroke; fill: none; stroke: rgb(23, 190, 207); stroke-opacity: 0.7; stroke-width: 5px; opacity: 1;"/></g><g class="points"/><g class="text"/></g></g></g><g class="overplot"/><path class="xlines-above crisp" d="M0,0" style="fill: none;"/><path class="ylines-above crisp" d="M74,50V510" style="fill: none; stroke-width: 2px; stroke: rgb(0, 0, 0); stroke-opacity: 1;"/><g class="overlines-above"/><g class="xaxislayer-above"><g class="xtick"><text text-anchor="middle" x="0" y="530" transform="translate(92.53,0)" style="font-family: 'Open Sans', verdana, arial, sans-serif; font-size: 19px; fill: rgb(42, 63, 95); fill-opacity: 1; white-space: pre; opacity: 1;"><tspan class="line" dy="0em" x="0" y="530">00:00</tspan><tspan class="line" dy="1.3em" x="0" y="530">Apr 26, 2022</tspan></text></g><g class="xtick"><text text-anchor="middle" x="0" y="530" style="font-family: 'Open Sans', verdana, arial, sans-serif; font-size: 19px; fill: rgb(42, 63, 95); fill-opacity: 1; white-space: pre; opacity: 1;" transform="translate(176.65,0)">06:00</text></g><g class="xtick"><text text-anchor="middle" x="0" y="530" style="font-family: 'Open Sans', verdana, arial, sans-serif; font-size: 19px; fill: rgb(42, 63, 95); fill-opacity: 1; white-space: pre; opacity: 1;" transform="translate(260.77,0)">12:00</text></g><g class="xtick"><text text-anchor="middle" x="0" y="530" style="font-family: 'Open Sans', verdana, arial, sans-serif; font-size: 19px; fill: rgb(42, 63, 95); fill-opacity: 1; white-space: pre; opacity: 1;" transform="translate(344.89,0)">18:00</text></g><g class="xtick"><text text-anchor="middle" x="0" y="530" style="font-family: 'Open Sans', verdana, arial, sans-serif; font-size: 19px; fill: rgb(42, 63, 95); fill-opacity: 1; white-space: pre; opacity: 1;" transform="translate(429.02,0)"><tspan class="line" dy="0em" x="0" y="530">00:00</tspan><tspan class="line" dy="1.3em" x="0" y="530">Apr 27, 2022</tspan></text></g><g class="xtick"><text text-anchor="middle" x="0" y="530" style="font-family: 'Open Sans', verdana, arial, sans-serif; font-size: 19px; fill: rgb(42, 63, 95); fill-opacity: 1; white-space: pre; opacity: 1;" transform="translate(513.14,0)">06:00</text></g><g class="xtick"><text text-anchor="middle" x="0" y="530" style="font-family: 'Open Sans', verdana, arial, sans-serif; font-size: 19px; fill: rgb(42, 63, 95); fill-opacity: 1; white-space: pre; opacity: 1;" transform="translate(597.26,0)">12:00</text></g><g class="xtick"><text text-anchor="middle" x="0" y="530" style="font-family: 'Open Sans', verdana, arial, sans-serif; font-size: 19px; fill: rgb(42, 63, 95); fill-opacity: 1; white-space: pre; opacity: 1;" transform="translate(681.38,0)">18:00</text></g></g><g class="yaxislayer-above"><g class="ytick"><text text-anchor="end" x="69.2" y="6.6499999999999995" transform="translate(0,462.78)" style="font-family: 'Open Sans', verdana, arial, sans-serif; font-size: 19px; fill: rgb(42, 63, 95); fill-opacity: 1; white-space: pre; opacity: 1;">−1</text></g><g class="ytick"><text text-anchor="end" x="69.2" y="6.6499999999999995" style="font-family: 'Open Sans', verdana, arial, sans-serif; font-size: 19px; fill: rgb(42, 63, 95); fill-opacity: 1; white-space: pre; opacity: 1;" transform="translate(0,394.77)">0</text></g><g class="ytick"><text text-anchor="end" x="69.2" y="6.6499999999999995" style="font-family: 'Open Sans', verdana, arial, sans-serif; font-size: 19px; fill: rgb(42, 63, 95); fill-opacity: 1; white-space: pre; opacity: 1;" transform="translate(0,326.76)">1</text></g><g class="ytick"><text text-anchor="end" x="69.2" y="6.6499999999999995" style="font-family: 'Open Sans', verdana, arial, sans-serif; font-size: 19px; fill: rgb(42, 63, 95); fill-opacity: 1; white-space: pre; opacity: 1;" transform="translate(0,258.76)">2</text></g><g class="ytick"><text text-anchor="end" x="69.2" y="6.6499999999999995" style="font-family: 'Open Sans', verdana, arial, sans-serif; font-size: 19px; fill: rgb(42, 63, 95); fill-opacity: 1; white-space: pre; opacity: 1;" transform="translate(0,190.75)">3</text></g><g class="ytick"><text text-anchor="end" x="69.2" y="6.6499999999999995" style="font-family: 'Open Sans', verdana, arial, sans-serif; font-size: 19px; fill: rgb(42, 63, 95); fill-opacity: 1; white-space: pre; opacity: 1;" transform="translate(0,122.74)">4</text></g><g class="ytick"><text text-anchor="end" x="69.2" y="6.6499999999999995" style="font-family: 'Open Sans', verdana, arial, sans-serif; font-size: 19px; fill: rgb(42, 63, 95); fill-opacity: 1; white-space: pre; opacity: 1;" transform="translate(0,54.74)">5</text></g></g><g class="overaxes-above"/></g></g><g class="polarlayer"/><g class="ternarylayer"/><g class="geolayer"/><g class="funnelarealayer"/><g class="pielayer"/><g class="iciclelayer"/><g class="treemaplayer"/><g class="sunburstlayer"/><g class="glimages"/><defs id="topdefs-53eb1b"><g class="clips"/><clipPath id="legend53eb1b"><rect width="314" height="121" x="0" y="0"/></clipPath></defs><g class="layer-above"><g class="imagelayer"/><g class="shapelayer"/></g><g class="infolayer"><g class="legend" pointer-events="all" transform="translate(775.74,50)"><rect class="bg" shape-rendering="crispEdges" style="stroke: rgb(68, 68, 68); stroke-opacity: 1; fill: rgb(255, 255, 255); fill-opacity: 1; stroke-width: 0px;" width="314" height="121" x="0" y="0"/><g class="scrollbox" transform="" clip-path="url(#legend53eb1b)"><g class="groups" transform=""><g class="traces" transform="translate(0,18.85)" style="opacity: 1;"><text class="legendtext" text-anchor="start" x="40" y="7.409999999999999" style="font-family: 'Open Sans', verdana, arial, sans-serif; font-size: 19px; fill: rgb(42, 63, 95); fill-opacity: 1; white-space: pre;">Reference</text><g class="layers" style="opacity: 1;"><g class="legendfill"/><g class="legendlines"><path class="js-line" d="M5,0h30" style="fill: none; stroke: rgb(76, 120, 168); stroke-opacity: 1; stroke-width: 3px;"/></g><g class="legendsymbols"><g class="legendpoints"/></g></g><rect class="legendtoggle" x="0" y="-13.85" width="308.46875" height="27.7" style="fill: rgb(0, 0, 0); fill-opacity: 0;"/></g></g><g class="groups" transform=""><g class="traces" transform="translate(0,46.55)" style="opacity: 1;"><text class="legendtext" text-anchor="start" x="40" y="7.409999999999999" style="font-family: 'Open Sans', verdana, arial, sans-serif; font-size: 19px; fill: rgb(42, 63, 95); fill-opacity: 1; white-space: pre;">Forecast gof=14.64</text><g class="layers" style="opacity: 1;"><g class="legendfill"/><g class="legendlines"><path class="js-line" d="M5,0h30" style="fill: none; stroke: rgb(255, 127, 14); stroke-opacity: 0.7; stroke-width: 5px;"/></g><g class="legendsymbols"><g class="legendpoints"/></g></g><rect class="legendtoggle" x="0" y="-13.85" width="308.46875" height="27.7" style="fill: rgb(0, 0, 0); fill-opacity: 0;"/></g></g><g class="groups" transform=""><g class="traces" transform="translate(0,74.25)" style="opacity: 1;"><text class="legendtext" text-anchor="start" x="40" y="7.409999999999999" style="font-family: 'Open Sans', verdana, arial, sans-serif; font-size: 19px; fill: rgb(42, 63, 95); fill-opacity: 1; white-space: pre;">Forecast reg gof=30.6</text><g class="layers" style="opacity: 1;"><g class="legendfill"/><g class="legendlines"><path class="js-line" d="M5,0h30" style="fill: none; stroke: rgb(44, 160, 44); stroke-opacity: 0.7; stroke-width: 5px;"/></g><g class="legendsymbols"><g class="legendpoints"/></g></g><rect class="legendtoggle" x="0" y="-13.85" width="308.46875" height="27.7" style="fill: rgb(0, 0, 0); fill-opacity: 0;"/></g></g><g class="groups" transform=""><g class="traces" transform="translate(0,101.94999999999999)" style="opacity: 1;"><text class="legendtext" text-anchor="start" x="40" y="7.409999999999999" style="font-family: 'Open Sans', verdana, arial, sans-serif; font-size: 19px; fill: rgb(42, 63, 95); fill-opacity: 1; white-space: pre;">Forecast autoreg gof=33.65</text><g class="layers" style="opacity: 1;"><g class="legendfill"/><g class="legendlines"><path class="js-line" d="M5,0h30" style="fill: none; stroke: rgb(23, 190, 207); stroke-opacity: 0.7; stroke-width: 5px;"/></g><g class="legendsymbols"><g class="legendpoints"/></g></g><rect class="legendtoggle" x="0" y="-13.85" width="308.46875" height="27.7" style="fill: rgb(0, 0, 0); fill-opacity: 0;"/></g></g></g><rect class="scrollbar" rx="20" ry="3" width="0" height="0" style="fill: rgb(128, 139, 164); fill-opacity: 1;" x="0" y="0"/></g><g class="g-gtitle"/><g class="g-xtitle"/><g class="g-ytitle" transform="translate(12.537109375,0)"><text class="ytitle" transform="rotate(-90,10.462500000000006,280)" x="10.462500000000006" y="280" text-anchor="middle" style="font-family: 'Open Sans', verdana, arial, sans-serif; font-size: 23px; fill: rgb(42, 63, 95); opacity: 1; font-weight: normal; white-space: pre;">Power [kW]</text></g></g></svg>