<svg class="main-svg" xmlns="http://www.w3.org/2000/svg" xmlns:xlink="http://www.w3.org/1999/xlink" width="850" height="600" viewBox="0 0 850 600"><rect x="0" y="0" width="850" height="600" style="fill: rgb(255, 255, 255); fill-opacity: 1;"/><defs id="defs-6e17eb"><g class="clips"><clipPath id="clip6e17ebxyplot" class="plotclip"><rect width="702" height="460"/></clipPath><clipPath class="axesclip" id="clip6e17ebx"><rect x="75" y="0" width="702" height="600"/></clipPath><clipPath class="axesclip" id="clip6e17eby"><rect x="0" y="50" width="850" height="460"/></clipPath><clipPath class="axesclip" id="clip6e17ebxy"><rect x="75" y="50" width="702" height="460"/></clipPath></g><g class="gradients"/><g class="patterns"/></defs><g class="bglayer"/><g class="layer-below"><g class="imagelayer"/><g class="shapelayer"/></g><g class="cartesianlayer"><g class="subplot xy"><g class="layer-subplot"><g class="shapelayer"/><g class="imagelayer"/></g><g class="gridlayer"><g class="x"><path class="xgrid crisp" transform="translate(162.75,0)" d="M0,50v460" style="stroke: rgb(235, 240, 248); stroke-opacity: 1; stroke-width: 1px;"/><path class="xgrid crisp" transform="translate(250.5,0)" d="M0,50v460" style="stroke: rgb(235, 240, 248); stroke-opacity: 1; stroke-width: 1px;"/><path class="xgrid crisp" transform="translate(338.25,0)" d="M0,50v460" style="stroke: rgb(235, 240, 248); stroke-opacity: 1; stroke-width: 1px;"/><path class="xgrid crisp" transform="translate(426,0)" d="M0,50v460" style="stroke: rgb(235, 240, 248); stroke-opacity: 1; stroke-width: 1px;"/><path class="xgrid crisp" transform="translate(513.75,0)" d="M0,50v460" style="stroke: rgb(235, 240, 248); stroke-opacity: 1; stroke-width: 1px;"/><path class="xgrid crisp" transform="translate(601.5,0)" d="M0,50v460" style="stroke: rgb(235, 240, 248); stroke-opacity: 1; stroke-width: 1px;"/><path class="xgrid crisp" transform="translate(689.25,0)" d="M0,50v460" style="stroke: rgb(235, 240, 248); stroke-opacity: 1; stroke-width: 1px;"/></g><g class="y"><path class="ygrid crisp" transform="translate(0,496.03)" d="M75,0h702" style="stroke: rgb(235, 240, 248); stroke-opacity: 1; stroke-width: 1px;"/><path class="ygrid crisp" transform="translate(0,335.33)" d="M75,0h702" style="stroke: rgb(235, 240, 248); stroke-opacity: 1; stroke-width: 1px;"/><path class="ygrid crisp" transform="translate(0,254.98)" d="M75,0h702" style="stroke: rgb(235, 240, 248); stroke-opacity: 1; stroke-width: 1px;"/><path class="ygrid crisp" transform="translate(0,174.63)" d="M75,0h702" style="stroke: rgb(235, 240, 248); stroke-opacity: 1; stroke-width: 1px;"/><path class="ygrid crisp" transform="translate(0,94.28999999999999)" d="M75,0h702" style="stroke: rgb(235, 240, 248); stroke-opacity: 1; stroke-width: 1px;"/></g></g><g class="zerolinelayer"><path class="yzl zl crisp" transform="translate(0,415.68)" d="M75,0h702" style="stroke: rgb(0, 0, 0); stroke-opacity: 1; stroke-width: 2px;"/></g><path class="xlines-below"/><path class="ylines-below"/><g class="overlines-below"/><g class="xaxislayer-below"/><g class="yaxislayer-below"/><g class="overaxes-below"/><g class="plot" transform="translate(75,50)" clip-path="url(#clip6e17ebxyplot)"><g class="scatterlayer mlayer"><g class="trace scatter tracedd7168" style="stroke-miterlimit: 2; opacity: 1;"><g class="fills"/><g class="errorbars"/><g class="lines"><path class="js-line" d="M0,292.17L1.83,300.04L3.66,287.06L5.48,312.43L7.31,287.76L9.14,315.01L10.97,299.12L12.8,298.8L14.63,317.02L16.45,298.05L18.28,304.29L20.11,314.27L21.94,313.39L23.77,289.93L25.59,317.97L27.42,317.57L29.25,315.49L31.08,290.08L32.91,315.67L36.56,318.58L38.39,302.59L40.22,292.98L42.05,317.56L43.88,318.78L45.7,318.98L47.53,314.18L49.36,285.44L51.19,316.47L53.02,318.1L54.84,316.78L56.67,318.92L58.5,319.14L60.33,304.71L62.16,313.11L63.98,339.57L65.81,357.2L67.64,356.92L69.47,333.3L71.3,295.38L73.13,279.18L74.95,316.41L80.44,360.35L82.27,369.84L84.09,368.7L85.92,397.74L87.75,385.76L89.58,420.73L91.41,408.5L93.23,369.5L95.06,356.04L96.89,351.8L98.72,344.02L100.55,306.91L102.38,306.93L104.2,238.04L106.03,298.65L107.86,254.95L109.69,219.59L111.52,240.67L113.34,317.02L115.17,325.83L117,304.98L118.83,218.83L120.66,242.9L122.48,298.3L124.31,338.45L126.14,351.08L127.97,331.68L129.8,355.22L131.63,347.36L133.45,279.16L135.28,262.55L137.11,257.04L138.94,314.16L140.77,314.85L142.59,334.69L144.42,308.66L146.25,338.43L148.08,334.6L149.91,313.2L151.73,338.67L153.56,339.06L155.39,323.56L159.05,336.2L160.88,333.02L162.7,318.5L164.53,324.75L166.36,312.45L168.19,283.19L170.02,334.52L171.84,334.76L173.67,323.46L175.5,317.72L177.33,330.63L179.16,331.79L180.98,331.85L182.81,314.51L184.64,318.4L186.47,324.69L188.3,324.57L190.13,325.53L191.95,321.2L193.78,294.35L195.61,318.76L197.44,320.97L201.09,319.24L202.92,316.5L204.75,299.79L206.58,303.01L208.41,316.52L210.23,315L212.06,312.62L213.89,313.68L215.72,317.24L217.55,317.38L219.38,291.4L221.2,317.82L223.03,322.91L224.86,334.1L226.69,335.15L228.52,338.07L232.17,365.48L234,344.65L235.83,337.46L237.66,355.9L241.31,372.42L243.14,400.82L244.97,401.19L246.8,395.6L248.63,368.84L250.45,370.52L252.28,351.12L254.11,363.01L255.94,355.18L257.77,391.73L259.59,369.9L261.42,406.5L263.25,384.98L265.08,375.16L266.91,397.75L268.73,395.23L272.39,367.62L274.22,389.57L276.05,376.85L277.88,403.72L279.7,376.8L281.53,366.34L283.36,379.11L285.19,364.92L287.02,401.7L288.84,408.14L290.67,398.84L292.5,370.06L294.33,348.85L296.16,361.89L297.98,374.81L299.81,365.31L301.64,353.54L303.47,346.87L305.3,346.63L307.13,344.75L308.95,336.83L310.78,299.97L312.61,335.79L314.44,334.4L316.27,332.48L318.09,334.36L321.75,335.57L323.58,335.1L325.41,333.39L327.23,298.24L329.06,330.34L330.89,333.79L332.72,305.51L334.55,301.42L336.38,329.58L338.2,330.02L340.03,328.66L341.86,310.25L343.69,305.85L345.52,325.65L347.34,323.22L349.17,299.34L351,306.78L352.83,319.06L354.66,319.07L356.48,315.75L358.31,312.64L360.14,299.14L361.97,290.05L363.8,313.23L365.63,312.44L367.45,308.92L371.11,312.07L372.94,299.97L374.77,292.77L376.59,311.54L378.42,316.32L380.25,315L382.08,314.75L383.91,311.96L385.73,312.19L387.56,285.13L389.39,313.35L391.22,317.22L393.05,317.6L394.88,320.54L398.53,324.08L400.36,322.76L402.19,300.28L404.02,309.18L405.84,325.69L407.67,329.33L409.5,331.9L411.33,340.05L413.16,343.45L414.98,341.62L416.81,337.71L418.64,337.72L420.47,319.35L422.3,367.36L424.13,386.5L425.95,391.96L427.78,374.57L429.61,387.11L431.44,383.53L433.27,393.2L435.09,406.93L436.92,396.59L438.75,353.22L440.58,350.44L442.41,393.26L444.23,413.12L446.06,409.45L447.89,390.5L449.72,415.59L451.55,419.86L453.38,420.17L455.2,413.58L457.03,390.74L458.86,416.23L460.69,416.4L462.52,411.64L464.34,386.94L466.17,285.45L468,366.09L469.83,360.09L471.66,379.62L473.48,344.31L477.14,234.21L478.97,235.14L480.8,310.74L482.63,266.7L484.45,284.57L486.28,213.89L488.11,199.4L489.94,275.58L491.77,273.38L493.59,210.9L495.42,175.6L497.25,193.28L499.08,226.35L500.91,303.33L502.73,296.07L504.56,283.43L506.39,309.27L508.22,267.23L510.05,318.22L511.88,339.44L513.7,334.36L515.53,346.69L517.36,337.34L519.19,335.43L521.02,343.3L522.84,329.44L524.67,335.26L526.5,350.02L528.33,349.33L530.16,322.55L531.98,341.67L533.81,346.17L535.64,343.47L537.47,331.72L539.3,320.05L541.13,340.78L544.78,336.31L546.61,336.04L548.44,309.13L550.27,331.58L553.92,333.22L555.75,333.31L557.58,331.19L559.41,317.11L561.23,306.91L563.06,326.78L564.89,325.72L566.72,319.87L568.55,317.04L570.38,321.55L572.2,316.08L574.03,304.56L575.86,331.08L577.69,339.51L581.34,357.91L583.17,361.7L586.83,311.08L588.66,379.02L590.48,387.77L592.31,391.38L594.14,395.2L595.97,400.95L597.8,405.55L599.63,400.62L603.28,330.13L605.11,360.03L608.77,433.38L610.59,390.99L612.42,310.21L614.25,310.78L616.08,411.97L617.91,399.11L619.73,363.51L621.56,349.8L623.39,380.8L625.22,437L627.05,418.92L628.88,357.29L630.7,389.32L632.53,333.85L634.36,402.29L636.19,417.84L638.02,402.2L639.84,418.37L641.67,393.07L643.5,404.51L645.33,407.68L647.16,378.81L648.98,387.52L650.81,383.34L652.64,374.54L654.47,350.39L656.3,366.52L658.13,360.84L659.95,356.66L661.78,319.99L663.61,300.42L665.44,317.44L667.27,337.53L669.09,327.98L670.92,346.67L672.75,343.27L674.58,319.41L676.41,345.33L678.23,346.45L680.06,344.02L681.89,324.11L683.72,322.11L685.55,340.82L687.38,339.43L689.2,339.8L691.03,341.05L692.86,330.8L694.69,316.19L696.52,337.67L698.34,339.68L700.17,339.43L702,338.18" style="vector-effect: non-scaling-stroke; fill: none; stroke: rgb(76, 120, 168); stroke-opacity: 1; stroke-width: 2px; opacity: 1;"/></g><g class="points"/><g class="text"/></g><g class="trace scatter tracec9a5c4" style="stroke-miterlimit: 2;"><g class="fills"><g><path class="js-fill" d="M702,365.68L0,365.68L0,365.68L31.08,365.2L32.91,364.59L36.56,361.5L38.39,359.36L42.05,352.38L43.88,347.57L49.36,330.28L51.19,323.25L54.84,307.78L56.67,298.31L67.64,240.91L69.47,234.73L73.13,222.69L74.95,219.46L76.78,217.35L78.61,213.82L80.44,212.2L82.27,212.7L87.75,223.26L89.58,227.81L93.23,245.77L95.06,255.65L100.55,277.16L102.38,282.86L106.03,291.3L107.86,294.35L111.52,301.42L113.34,306.89L118.83,321.52L120.66,326.5L131.63,355.96L133.45,358.91L137.11,363.21L138.94,364.5L142.59,365.36L144.42,365.54L159.05,365.68L160.88,365.68L206.58,364.95L208.41,363.99L212.06,359.01L213.89,355.43L217.55,343.93L219.38,335.5L223.03,314.19L224.86,299.7L232.17,230.54L234,211.43L241.31,144.57L243.14,130.96L248.63,96.44L250.45,89.16L255.94,74.12L257.77,72.18L261.42,73.24L263.25,75.42L265.08,78.55L266.91,84.68L272.39,114.19L274.22,125.06L277.88,143.66L279.7,150.75L287.02,178.4L288.84,188.02L294.33,223.03L296.16,237.29L307.13,328.75L308.95,339.18L312.61,355.63L314.44,360.99L316.27,363.56L318.09,364.4L321.75,365.54L323.58,365.68L378.42,365.16L380.25,364.48L382.08,363.59L383.91,361.14L385.73,356.34L387.56,349.33L391.22,331.39L393.05,318.58L402.19,240.45L404.02,223.87L418.64,96.11L420.47,83.83L424.13,60.79L425.95,52.38L431.44,32.87L433.27,30.18L440.58,27.46L442.41,29.35L446.06,40.21L447.89,47.2L451.55,65.34L453.38,76.61L458.86,117.98L460.69,134.16L480.8,314.85L482.63,328.19L486.28,347.31L488.11,355.31L489.94,360.75L491.77,363.4L497.25,365.53L499.08,365.68L553.92,365.07L555.75,364.29L557.58,363.27L559.41,360.53L561.23,355.24L563.06,347.6L566.72,328.09L568.55,314.24L577.69,229.7L579.52,212.05L590.48,113.43L592.31,99.54L599.63,53.95L601.45,45.88L606.94,26.29L608.77,24.02L614.25,23L616.08,23.18L617.91,25.29L619.73,30.13L625.22,52.04L627.05,61.7L632.53,96.91L634.36,110.77L641.67,173.89L643.5,191.28L658.13,326.67L659.95,337.6L663.61,354.78L665.44,360.38L667.27,363.15L669.09,364.15L672.75,365.52L674.58,365.68L702,365.68" style="fill: rgb(255, 127, 14); fill-opacity: 0.05; stroke-width: 0;"/></g></g><g class="errorbars"/><g class="lines"><path class="js-line" d="M0,365.68L31.08,365.2L32.91,364.59L36.56,361.5L38.39,359.36L42.05,352.38L43.88,347.57L49.36,330.28L51.19,323.25L54.84,307.78L56.67,298.31L67.64,240.91L69.47,234.73L73.13,222.69L74.95,219.46L76.78,217.35L78.61,213.82L80.44,212.2L82.27,212.7L87.75,223.26L89.58,227.81L93.23,245.77L95.06,255.65L100.55,277.16L102.38,282.86L106.03,291.3L107.86,294.35L111.52,301.42L113.34,306.89L118.83,321.52L120.66,326.5L131.63,355.96L133.45,358.91L137.11,363.21L138.94,364.5L142.59,365.36L144.42,365.54L159.05,365.68L160.88,365.68L206.58,364.95L208.41,363.99L212.06,359.01L213.89,355.43L217.55,343.93L219.38,335.5L223.03,314.19L224.86,299.7L232.17,230.54L234,211.43L241.31,144.57L243.14,130.96L248.63,96.44L250.45,89.16L255.94,74.12L257.77,72.18L261.42,73.24L263.25,75.42L265.08,78.55L266.91,84.68L272.39,114.19L274.22,125.06L277.88,143.66L279.7,150.75L287.02,178.4L288.84,188.02L294.33,223.03L296.16,237.29L307.13,328.75L308.95,339.18L312.61,355.63L314.44,360.99L316.27,363.56L318.09,364.4L321.75,365.54L323.58,365.68L378.42,365.16L380.25,364.48L382.08,363.59L383.91,361.14L385.73,356.34L387.56,349.33L391.22,331.39L393.05,318.58L402.19,240.45L404.02,223.87L418.64,96.11L420.47,83.83L424.13,60.79L425.95,52.38L431.44,32.87L433.27,30.18L440.58,27.46L442.41,29.35L446.06,40.21L447.89,47.2L451.55,65.34L453.38,76.61L458.86,117.98L460.69,134.16L480.8,314.85L482.63,328.19L486.28,347.31L488.11,355.31L489.94,360.75L491.77,363.4L497.25,365.53L499.08,365.68L553.92,365.07L555.75,364.29L557.58,363.27L559.41,360.53L561.23,355.24L563.06,347.6L566.72,328.09L568.55,314.24L577.69,229.7L579.52,212.05L590.48,113.43L592.31,99.54L599.63,53.95L601.45,45.88L606.94,26.29L608.77,24.02L614.25,23L616.08,23.18L617.91,25.29L619.73,30.13L625.22,52.04L627.05,61.7L632.53,96.91L634.36,110.77L641.67,173.89L643.5,191.28L658.13,326.67L659.95,337.6L663.61,354.78L665.44,360.38L667.27,363.15L669.09,364.15L672.75,365.52L674.58,365.68L702,365.68" style="vector-effect: non-scaling-stroke; fill: none; stroke: rgb(245, 133, 24); stroke-opacity: 1; stroke-width: 3px; opacity: 1;"/></g><g class="points"/><g class="text"/></g></g></g><g class="overplot"/><path class="xlines-above crisp" d="M0,0" style="fill: none;"/><path class="ylines-above crisp" d="M74,50V510" style="fill: none; stroke-width: 2px; stroke: rgb(0, 0, 0); stroke-opacity: 1;"/><g class="overlines-above"/><g class="xaxislayer-above"><g class="xtick"><text text-anchor="middle" x="0" y="530" transform="translate(75,0)" style="font-family: 'Open Sans', verdana, arial, sans-serif; font-size: 19px; fill: rgb(42, 63, 95); fill-opacity: 1; white-space: pre; opacity: 1;"><tspan class="line" dy="0em" x="0" y="530">00:00</tspan><tspan class="line" dy="1.3em" x="0" y="530">Apr 25, 2022</tspan></text></g><g class="xtick"><text text-anchor="middle" x="0" y="530" style="font-family: 'Open Sans', verdana, arial, sans-serif; font-size: 19px; fill: rgb(42, 63, 95); fill-opacity: 1; white-space: pre; opacity: 1;" transform="translate(162.75,0)">12:00</text></g><g class="xtick"><text text-anchor="middle" x="0" y="530" style="font-family: 'Open Sans', verdana, arial, sans-serif; font-size: 19px; fill: rgb(42, 63, 95); fill-opacity: 1; white-space: pre; opacity: 1;" transform="translate(250.5,0)"><tspan class="line" dy="0em" x="0" y="530">00:00</tspan><tspan class="line" dy="1.3em" x="0" y="530">Apr 26, 2022</tspan></text></g><g class="xtick"><text text-anchor="middle" x="0" y="530" style="font-family: 'Open Sans', verdana, arial, sans-serif; font-size: 19px; fill: rgb(42, 63, 95); fill-opacity: 1; white-space: pre; opacity: 1;" transform="translate(338.25,0)">12:00</text></g><g class="xtick"><text text-anchor="middle" x="0" y="530" style="font-family: 'Open Sans', verdana, arial, sans-serif; font-size: 19px; fill: rgb(42, 63, 95); fill-opacity: 1; white-space: pre; opacity: 1;" transform="translate(426,0)"><tspan class="line" dy="0em" x="0" y="530">00:00</tspan><tspan class="line" dy="1.3em" x="0" y="530">Apr 27, 2022</tspan></text></g><g class="xtick"><text text-anchor="middle" x="0" y="530" style="font-family: 'Open Sans', verdana, arial, sans-serif; font-size: 19px; fill: rgb(42, 63, 95); fill-opacity: 1; white-space: pre; opacity: 1;" transform="translate(513.75,0)">12:00</text></g><g class="xtick"><text text-anchor="middle" x="0" y="530" style="font-family: 'Open Sans', verdana, arial, sans-serif; font-size: 19px; fill: rgb(42, 63, 95); fill-opacity: 1; white-space: pre; opacity: 1;" transform="translate(601.5,0)"><tspan class="line" dy="0em" x="0" y="530">00:00</tspan><tspan class="line" dy="1.3em" x="0" y="530">Apr 28, 2022</tspan></text></g><g class="xtick"><text text-anchor="middle" x="0" y="530" style="font-family: 'Open Sans', verdana, arial, sans-serif; font-size: 19px; fill: rgb(42, 63, 95); fill-opacity: 1; white-space: pre; opacity: 1;" transform="translate(689.25,0)">12:00</text></g><g class="xtick"><text text-anchor="middle" x="0" y="530" style="font-family: 'Open Sans', verdana, arial, sans-serif; font-size: 19px; fill: rgb(42, 63, 95); fill-opacity: 1; white-space: pre; opacity: 1;" transform="translate(777,0)"><tspan class="line" dy="0em" x="0" y="530">00:00</tspan><tspan class="line" dy="1.3em" x="0" y="530">Apr 29, 2022</tspan></text></g></g><g class="yaxislayer-above"><g class="ytick"><text text-anchor="end" x="69.2" y="6.6499999999999995" transform="translate(0,496.03)" style="font-family: 'Open Sans', verdana, arial, sans-serif; font-size: 19px; fill: rgb(42, 63, 95); fill-opacity: 1; white-space: pre; opacity: 1;">−2</text></g><g class="ytick"><text text-anchor="end" x="69.2" y="6.6499999999999995" style="font-family: 'Open Sans', verdana, arial, sans-serif; font-size: 19px; fill: rgb(42, 63, 95); fill-opacity: 1; white-space: pre; opacity: 1;" transform="translate(0,415.68)">0</text></g><g class="ytick"><text text-anchor="end" x="69.2" y="6.6499999999999995" style="font-family: 'Open Sans', verdana, arial, sans-serif; font-size: 19px; fill: rgb(42, 63, 95); fill-opacity: 1; white-space: pre; opacity: 1;" transform="translate(0,335.33)">2</text></g><g class="ytick"><text text-anchor="end" x="69.2" y="6.6499999999999995" style="font-family: 'Open Sans', verdana, arial, sans-serif; font-size: 19px; fill: rgb(42, 63, 95); fill-opacity: 1; white-space: pre; opacity: 1;" transform="translate(0,254.98)">4</text></g><g class="ytick"><text text-anchor="end" x="69.2" y="6.6499999999999995" style="font-family: 'Open Sans', verdana, arial, sans-serif; font-size: 19px; fill: rgb(42, 63, 95); fill-opacity: 1; white-space: pre; opacity: 1;" transform="translate(0,174.63)">6</text></g><g class="ytick"><text text-anchor="end" x="69.2" y="6.6499999999999995" style="font-family: 'Open Sans', verdana, arial, sans-serif; font-size: 19px; fill: rgb(42, 63, 95); fill-opacity: 1; white-space: pre; opacity: 1;" transform="translate(0,94.28999999999999)">8</text></g></g><g class="overaxes-above"/></g></g><g class="polarlayer"/><g class="ternarylayer"/><g class="geolayer"/><g class="funnelarealayer"/><g class="pielayer"/><g class="iciclelayer"/><g class="treemaplayer"/><g class="sunburstlayer"/><g class="glimages"/><defs id="topdefs-6e17eb"><g class="clips"/></defs><g class="layer-above"><g class="imagelayer"/><g class="shapelayer"><path data-index="0" fill-rule="evenodd" d="M250.5,496.03L250.5,94.28999999999999" clip-path="url(#clip6e17ebxy)" style="opacity: 1; stroke: rgb(214, 39, 40); stroke-opacity: 0.7; fill: rgb(0, 0, 0); fill-opacity: 0; stroke-dasharray: 12px, 12px; stroke-width: 4px;"/><path data-index="1" fill-rule="evenodd" d="M601.5,496.03L601.5,94.28999999999999" clip-path="url(#clip6e17ebxy)" style="opacity: 1; stroke: rgb(214, 39, 40); stroke-opacity: 0.7; fill: rgb(0, 0, 0); fill-opacity: 0; stroke-dasharray: 12px, 12px; stroke-width: 4px;"/></g></g><g class="infolayer"><g class="g-gtitle"/><g class="g-xtitle"/><g class="g-ytitle" transform="translate(12.537109375,0)"><text class="ytitle" transform="rotate(-90,10.462500000000006,280)" x="10.462500000000006" y="280" text-anchor="middle" style="font-family: 'Open Sans', verdana, arial, sans-serif; font-size: 23px; fill: rgb(42, 63, 95); opacity: 1; font-weight: normal; white-space: pre;">Power [kW] &amp; Temp. °C &amp; GHI/100</text></g></g></svg>