<svg class="main-svg" xmlns="http://www.w3.org/2000/svg" xmlns:xlink="http://www.w3.org/1999/xlink" width="850" height="600" viewBox="0 0 850 600"><rect x="0" y="0" width="850" height="600" style="fill: rgb(255, 255, 255); fill-opacity: 1;"/><defs id="defs-fe8f56"><g class="clips"><clipPath id="clipfe8f56xyplot" class="plotclip"><rect width="725" height="460"/></clipPath><clipPath class="axesclip" id="clipfe8f56x"><rect x="75" y="0" width="725" height="600"/></clipPath><clipPath class="axesclip" id="clipfe8f56y"><rect x="0" y="50" width="850" height="460"/></clipPath><clipPath class="axesclip" id="clipfe8f56xy"><rect x="75" y="50" width="725" height="460"/></clipPath></g><g class="gradients"/><g class="patterns"/></defs><g class="bglayer"/><g class="layer-below"><g class="imagelayer"/><g class="shapelayer"/></g><g class="cartesianlayer"><g class="subplot xy"><g class="layer-subplot"><g class="shapelayer"/><g class="imagelayer"/></g><g class="gridlayer"><g class="x"><path class="xgrid crisp" transform="translate(76.89,0)" d="M0,50v460" style="stroke: rgb(235, 240, 248); stroke-opacity: 1; stroke-width: 1px;"/><path class="xgrid crisp" transform="translate(167.51,0)" d="M0,50v460" style="stroke: rgb(235, 240, 248); stroke-opacity: 1; stroke-width: 1px;"/><path class="xgrid crisp" transform="translate(258.14,0)" d="M0,50v460" style="stroke: rgb(235, 240, 248); stroke-opacity: 1; stroke-width: 1px;"/><path class="xgrid crisp" transform="translate(348.76,0)" d="M0,50v460" style="stroke: rgb(235, 240, 248); stroke-opacity: 1; stroke-width: 1px;"/><path class="xgrid crisp" transform="translate(439.39,0)" d="M0,50v460" style="stroke: rgb(235, 240, 248); stroke-opacity: 1; stroke-width: 1px;"/><path class="xgrid crisp" transform="translate(530.01,0)" d="M0,50v460" style="stroke: rgb(235, 240, 248); stroke-opacity: 1; stroke-width: 1px;"/><path class="xgrid crisp" transform="translate(620.64,0)" d="M0,50v460" style="stroke: rgb(235, 240, 248); stroke-opacity: 1; stroke-width: 1px;"/><path class="xgrid crisp" transform="translate(711.26,0)" d="M0,50v460" style="stroke: rgb(235, 240, 248); stroke-opacity: 1; stroke-width: 1px;"/></g><g class="y"><path class="ygrid crisp" transform="translate(0,496.03)" d="M75,0h725" style="stroke: rgb(235, 240, 248); stroke-opacity: 1; stroke-width: 1px;"/><path class="ygrid crisp" transform="translate(0,335.33)" d="M75,0h725" style="stroke: rgb(235, 240, 248); stroke-opacity: 1; stroke-width: 1px;"/><path class="ygrid crisp" transform="translate(0,254.98)" d="M75,0h725" style="stroke: rgb(235, 240, 248); stroke-opacity: 1; stroke-width: 1px;"/><path class="ygrid crisp" transform="translate(0,174.63)" d="M75,0h725" style="stroke: rgb(235, 240, 248); stroke-opacity: 1; stroke-width: 1px;"/><path class="ygrid crisp" transform="translate(0,94.28999999999999)" d="M75,0h725" style="stroke: rgb(235, 240, 248); stroke-opacity: 1; stroke-width: 1px;"/></g></g><g class="zerolinelayer"><path class="yzl zl crisp" transform="translate(0,415.68)" d="M75,0h725" style="stroke: rgb(0, 0, 0); stroke-opacity: 1; stroke-width: 2px;"/></g><path class="xlines-below"/><path class="ylines-below"/><g class="overlines-below"/><g class="xaxislayer-below"/><g class="yaxislayer-below"/><g class="overaxes-below"/><g class="plot" transform="translate(75,50)" clip-path="url(#clipfe8f56xyplot)"><g class="scatterlayer mlayer"><g class="trace scatter traceb54b33" style="stroke-miterlimit: 2; opacity: 1;"><g class="fills"/><g class="errorbars"/><g class="lines"><path class="js-line" d="M0,218.96L1.89,292.17L3.78,300.04L5.66,287.06L7.55,312.43L9.44,287.76L11.33,315.01L13.22,299.12L15.1,298.8L16.99,317.02L18.88,298.05L20.77,304.29L22.66,314.27L24.54,313.39L26.43,289.93L28.32,317.97L30.21,317.57L32.1,315.49L33.98,290.08L35.87,315.67L37.76,316.97L39.65,318.58L41.54,302.59L43.42,292.98L45.31,317.56L47.2,318.78L49.09,318.98L50.98,314.18L52.86,285.44L54.75,316.47L56.64,318.1L58.53,316.78L60.42,318.92L62.3,319.14L64.19,304.71L66.08,313.11L67.97,339.57L69.86,357.2L71.74,356.92L73.63,333.3L75.52,295.38L77.41,279.18L79.3,316.41L84.96,360.35L86.85,369.84L88.74,368.7L90.63,397.74L92.51,385.76L94.4,420.73L96.29,408.5L98.18,369.5L100.07,356.04L101.95,351.8L103.84,344.02L105.73,306.91L107.62,306.93L109.51,238.04L111.39,298.65L113.28,254.95L115.17,219.59L117.06,240.67L118.95,317.02L120.83,325.83L122.72,304.98L124.61,218.83L126.5,242.9L128.39,298.3L130.27,338.45L132.16,351.08L134.05,331.68L135.94,355.22L137.83,347.36L139.71,279.16L141.6,262.55L143.49,257.04L145.38,314.16L147.27,314.85L149.15,334.69L151.04,308.66L152.93,338.43L154.82,334.6L156.71,313.2L158.59,338.67L160.48,339.06L162.37,323.56L166.15,336.2L168.03,333.02L169.92,318.5L171.81,324.75L173.7,312.45L175.59,283.19L177.47,334.52L179.36,334.76L181.25,323.46L183.14,317.72L185.03,330.63L186.91,331.79L188.8,331.85L190.69,314.51L192.58,318.4L194.47,324.69L196.35,324.57L198.24,325.53L200.13,321.2L202.02,294.35L203.91,318.76L205.79,320.97L209.57,319.24L211.46,316.5L213.35,299.79L215.23,303.01L217.12,316.52L219.01,315L220.9,312.62L222.79,313.68L224.67,317.24L226.56,317.38L228.45,291.4L230.34,317.82L232.23,322.91L234.11,334.1L236,335.15L237.89,338.07L239.78,355.21L241.67,365.48L243.55,344.65L245.44,337.46L247.33,355.9L249.22,364.65L251.11,372.42L252.99,400.82L254.88,401.19L256.77,395.6L258.66,368.84L260.55,370.52L262.43,351.12L264.32,363.01L266.21,355.18L268.1,391.73L269.99,369.9L271.88,406.5L273.76,384.98L275.65,375.16L277.54,397.75L279.43,395.23L281.32,383.78L283.2,367.62L285.09,389.57L286.98,376.85L288.87,403.72L290.76,376.8L292.64,366.34L294.53,379.11L296.42,364.92L298.31,401.7L300.2,408.14L302.08,398.84L305.86,348.85L307.75,361.89L309.64,374.81L311.52,365.31L313.41,353.54L315.3,346.87L317.19,346.63L319.08,344.75L320.96,336.83L322.85,299.97L324.74,335.79L326.63,334.4L328.52,332.48L330.4,334.36L334.18,335.57L336.07,335.1L337.96,333.39L339.84,298.24L341.73,330.34L343.62,333.79L345.51,305.51L347.4,301.42L349.28,329.58L351.17,330.02L353.06,328.66L354.95,310.25L356.84,305.85L358.72,325.65L360.61,323.22L362.5,299.34L364.39,306.78L366.28,319.06L368.16,319.07L370.05,315.75L371.94,312.64L373.83,299.14L375.72,290.05L377.6,313.23L379.49,312.44L381.38,308.92L385.16,312.07L387.04,299.97L388.93,292.77L390.82,311.54L392.71,316.32L394.6,315L396.48,314.75L398.37,311.96L400.26,312.19L402.15,285.13L404.04,313.35L405.92,317.22L407.81,317.6L409.7,320.54L413.48,324.08L415.36,322.76L417.25,300.28L419.14,309.18L421.03,325.69L422.92,329.33L424.8,331.9L426.69,340.05L428.58,343.45L430.47,341.62L432.36,337.71L434.24,337.72L436.13,319.35L438.02,367.36L439.91,386.5L441.8,391.96L443.68,374.57L445.57,387.11L447.46,383.53L449.35,393.2L451.24,406.93L453.13,396.59L455.01,353.22L456.9,350.44L458.79,393.26L460.68,413.12L462.57,409.45L464.45,390.5L466.34,415.59L468.23,419.86L470.12,420.17L472.01,413.58L473.89,390.74L475.78,416.23L477.67,416.4L479.56,411.64L481.45,386.94L483.33,285.45L485.22,366.09L487.11,360.09L489,379.62L490.89,344.31L494.66,234.21L496.55,235.14L498.44,310.74L500.33,266.7L502.21,284.57L504.1,213.89L505.99,199.4L507.88,275.58L509.77,273.38L511.65,210.9L513.54,175.6L515.43,193.28L517.32,226.35L519.21,303.33L521.09,296.07L522.98,283.43L524.87,309.27L526.76,267.23L528.65,318.22L530.53,339.44L532.42,334.36L534.31,346.69L536.2,337.34L538.09,335.43L539.97,343.3L541.86,329.44L543.75,335.26L545.64,350.02L547.53,349.33L549.41,322.55L551.3,341.67L553.19,346.17L555.08,343.47L556.97,331.72L558.85,320.05L560.74,340.78L564.52,336.31L566.41,336.04L568.29,309.13L570.18,331.58L573.96,333.22L575.85,333.31L577.73,331.19L579.62,317.11L581.51,306.91L583.4,326.78L585.29,325.72L587.17,319.87L589.06,317.04L590.95,321.55L592.84,316.08L594.73,304.56L596.61,331.08L598.5,339.51L602.28,357.91L604.17,361.7L607.94,311.08L609.83,379.02L611.72,387.77L613.61,391.38L615.49,395.2L617.38,400.95L619.27,405.55L621.16,400.62L624.93,330.13L626.82,360.03L630.6,433.38L632.49,390.99L634.38,310.21L636.26,310.78L638.15,411.97L640.04,399.11L641.93,363.51L643.82,349.8L645.7,380.8L647.59,437L649.48,418.92L651.37,357.29L653.26,389.32L655.14,333.85L657.03,402.29L658.92,417.84L660.81,402.2L662.7,418.37L664.58,393.07L666.47,404.51L668.36,407.68L670.25,378.81L672.14,387.52L674.02,383.34L675.91,374.54L677.8,350.39L679.69,366.52L681.58,360.84L683.46,356.66L685.35,319.99L687.24,300.42L689.13,317.44L691.02,337.53L692.9,327.98L694.79,346.67L696.68,343.27L698.57,319.41L700.46,345.33L702.34,346.45L704.23,344.02L706.12,324.11L708.01,322.11L709.9,340.82L711.78,339.43L713.67,339.8L715.56,341.05L717.45,330.8L719.34,316.19L721.22,337.67L723.11,339.68L725,339.43" style="vector-effect: non-scaling-stroke; fill: none; stroke: rgb(76, 120, 168); stroke-opacity: 1; stroke-width: 2px; opacity: 1;"/></g><g class="points"/><g class="text"/></g><g class="trace scatter trace92907c" style="stroke-miterlimit: 2;"><g class="fills"><g><path class="js-fill" d="M725,365.68L0,365.68L0,365.68L33.98,365.2L35.87,364.59L39.65,361.5L41.54,359.36L45.31,352.38L47.2,347.57L52.86,330.28L54.75,323.25L58.53,307.78L60.42,298.31L71.74,240.91L73.63,234.73L77.41,222.69L79.3,219.46L81.18,217.35L83.07,213.82L84.96,212.2L86.85,212.7L92.51,223.26L94.4,227.81L98.18,245.77L100.07,255.65L105.73,277.16L107.62,282.86L111.39,291.3L113.28,294.35L117.06,301.42L118.95,306.89L122.72,317.02L124.61,321.52L137.83,355.96L139.71,358.91L143.49,363.21L145.38,364.5L149.15,365.36L151.04,365.54L166.15,365.68L168.03,365.68L215.23,364.95L217.12,363.99L219.01,362.04L220.9,359.01L224.67,350.59L226.56,343.93L230.34,325.95L232.23,314.19L237.89,267.07L239.78,249.64L249.22,160.28L251.11,144.57L256.77,106.58L258.66,96.44L262.43,83.98L264.32,78.42L266.21,74.12L268.1,72.18L271.88,73.24L273.76,75.42L275.65,78.55L277.54,84.68L283.2,114.19L285.09,125.06L288.87,143.66L290.76,150.75L298.31,178.4L300.2,188.02L305.86,223.03L307.75,237.29L319.08,328.75L320.96,339.18L324.74,355.63L326.63,360.99L328.52,363.56L330.4,364.4L334.18,365.54L336.07,365.68L392.71,365.16L394.6,364.48L396.48,363.59L398.37,361.14L400.26,356.34L402.15,349.33L405.92,331.39L407.81,318.58L417.25,240.45L419.14,223.87L434.24,96.11L436.13,83.83L439.91,60.79L441.8,52.38L447.46,32.87L449.35,30.18L456.9,27.46L458.79,29.35L462.57,40.21L464.45,47.2L468.23,65.34L470.12,76.61L473.89,102.65L475.78,117.98L500.33,328.19L502.21,338.66L505.99,355.31L507.88,360.75L509.77,363.4L511.65,364.31L515.43,365.53L517.32,365.68L573.96,365.07L575.85,364.29L577.73,363.27L579.62,360.53L581.51,355.24L583.4,347.6L587.17,328.09L589.06,314.24L598.5,229.7L600.39,212.05L611.72,113.43L613.61,99.54L621.16,53.95L623.05,45.88L628.71,26.29L630.6,24.02L636.26,23L638.15,23.18L640.04,25.29L641.93,30.13L647.59,52.04L649.48,61.7L655.14,96.91L657.03,110.77L664.58,173.89L666.47,191.28L681.58,326.67L683.46,337.6L687.24,354.78L689.13,360.38L691.02,363.15L692.9,364.15L696.68,365.52L698.57,365.68L725,365.68" style="fill: rgb(255, 127, 14); fill-opacity: 0.05; stroke-width: 0;"/></g></g><g class="errorbars"/><g class="lines"><path class="js-line" d="M0,365.68L33.98,365.2L35.87,364.59L39.65,361.5L41.54,359.36L45.31,352.38L47.2,347.57L52.86,330.28L54.75,323.25L58.53,307.78L60.42,298.31L71.74,240.91L73.63,234.73L77.41,222.69L79.3,219.46L81.18,217.35L83.07,213.82L84.96,212.2L86.85,212.7L92.51,223.26L94.4,227.81L98.18,245.77L100.07,255.65L105.73,277.16L107.62,282.86L111.39,291.3L113.28,294.35L117.06,301.42L118.95,306.89L122.72,317.02L124.61,321.52L137.83,355.96L139.71,358.91L143.49,363.21L145.38,364.5L149.15,365.36L151.04,365.54L166.15,365.68L168.03,365.68L215.23,364.95L217.12,363.99L219.01,362.04L220.9,359.01L224.67,350.59L226.56,343.93L230.34,325.95L232.23,314.19L237.89,267.07L239.78,249.64L249.22,160.28L251.11,144.57L256.77,106.58L258.66,96.44L262.43,83.98L264.32,78.42L266.21,74.12L268.1,72.18L271.88,73.24L273.76,75.42L275.65,78.55L277.54,84.68L283.2,114.19L285.09,125.06L288.87,143.66L290.76,150.75L298.31,178.4L300.2,188.02L305.86,223.03L307.75,237.29L319.08,328.75L320.96,339.18L324.74,355.63L326.63,360.99L328.52,363.56L330.4,364.4L334.18,365.54L336.07,365.68L392.71,365.16L394.6,364.48L396.48,363.59L398.37,361.14L400.26,356.34L402.15,349.33L405.92,331.39L407.81,318.58L417.25,240.45L419.14,223.87L434.24,96.11L436.13,83.83L439.91,60.79L441.8,52.38L447.46,32.87L449.35,30.18L456.9,27.46L458.79,29.35L462.57,40.21L464.45,47.2L468.23,65.34L470.12,76.61L473.89,102.65L475.78,117.98L500.33,328.19L502.21,338.66L505.99,355.31L507.88,360.75L509.77,363.4L511.65,364.31L515.43,365.53L517.32,365.68L573.96,365.07L575.85,364.29L577.73,363.27L579.62,360.53L581.51,355.24L583.4,347.6L587.17,328.09L589.06,314.24L598.5,229.7L600.39,212.05L611.72,113.43L613.61,99.54L621.16,53.95L623.05,45.88L628.71,26.29L630.6,24.02L636.26,23L638.15,23.18L640.04,25.29L641.93,30.13L647.59,52.04L649.48,61.7L655.14,96.91L657.03,110.77L664.58,173.89L666.47,191.28L681.58,326.67L683.46,337.6L687.24,354.78L689.13,360.38L691.02,363.15L692.9,364.15L696.68,365.52L698.57,365.68L725,365.68" style="vector-effect: non-scaling-stroke; fill: none; stroke: rgb(245, 133, 24); stroke-opacity: 1; stroke-width: 3px; opacity: 1;"/></g><g class="points"/><g class="text"/></g></g></g><g class="overplot"/><path class="xlines-above crisp" d="M0,0" style="fill: none;"/><path class="ylines-above crisp" d="M74,50V510" style="fill: none; stroke-width: 2px; stroke: rgb(0, 0, 0); stroke-opacity: 1;"/><g class="overlines-above"/><g class="xaxislayer-above"><g class="xtick"><text text-anchor="middle" x="0" y="530" transform="translate(76.89,0)" style="font-family: 'Open Sans', verdana, arial, sans-serif; font-size: 19px; fill: rgb(42, 63, 95); fill-opacity: 1; white-space: pre; opacity: 1;"><tspan class="line" dy="0em" x="0" y="530">00:00</tspan><tspan class="line" dy="1.3em" x="0" y="530">Apr 25, 2022</tspan></text></g><g class="xtick"><text text-anchor="middle" x="0" y="530" style="font-family: 'Open Sans', verdana, arial, sans-serif; font-size: 19px; fill: rgb(42, 63, 95); fill-opacity: 1; white-space: pre; opacity: 1;" transform="translate(167.51,0)">12:00</text></g><g class="xtick"><text text-anchor="middle" x="0" y="530" style="font-family: 'Open Sans', verdana, arial, sans-serif; font-size: 19px; fill: rgb(42, 63, 95); fill-opacity: 1; white-space: pre; opacity: 1;" transform="translate(258.14,0)"><tspan class="line" dy="0em" x="0" y="530">00:00</tspan><tspan class="line" dy="1.3em" x="0" y="530">Apr 26, 2022</tspan></text></g><g class="xtick"><text text-anchor="middle" x="0" y="530" style="font-family: 'Open Sans', verdana, arial, sans-serif; font-size: 19px; fill: rgb(42, 63, 95); fill-opacity: 1; white-space: pre; opacity: 1;" transform="translate(348.76,0)">12:00</text></g><g class="xtick"><text text-anchor="middle" x="0" y="530" style="font-family: 'Open Sans', verdana, arial, sans-serif; font-size: 19px; fill: rgb(42, 63, 95); fill-opacity: 1; white-space: pre; opacity: 1;" transform="translate(439.39,0)"><tspan class="line" dy="0em" x="0" y="530">00:00</tspan><tspan class="line" dy="1.3em" x="0" y="530">Apr 27, 2022</tspan></text></g><g class="xtick"><text text-anchor="middle" x="0" y="530" style="font-family: 'Open Sans', verdana, arial, sans-serif; font-size: 19px; fill: rgb(42, 63, 95); fill-opacity: 1; white-space: pre; opacity: 1;" transform="translate(530.01,0)">12:00</text></g><g class="xtick"><text text-anchor="middle" x="0" y="530" style="font-family: 'Open Sans', verdana, arial, sans-serif; font-size: 19px; fill: rgb(42, 63, 95); fill-opacity: 1; white-space: pre; opacity: 1;" transform="translate(620.64,0)"><tspan class="line" dy="0em" x="0" y="530">00:00</tspan><tspan class="line" dy="1.3em" x="0" y="530">Apr 28, 2022</tspan></text></g><g class="xtick"><text text-anchor="middle" x="0" y="530" style="font-family: 'Open Sans', verdana, arial, sans-serif; font-size: 19px; fill: rgb(42, 63, 95); fill-opacity: 1; white-space: pre; opacity: 1;" transform="translate(711.26,0)">12:00</text></g></g><g class="yaxislayer-above"><g class="ytick"><text text-anchor="end" x="69.2" y="6.6499999999999995" transform="translate(0,496.03)" style="font-family: 'Open Sans', verdana, arial, sans-serif; font-size: 19px; fill: rgb(42, 63, 95); fill-opacity: 1; white-space: pre; opacity: 1;">−2</text></g><g class="ytick"><text text-anchor="end" x="69.2" y="6.6499999999999995" style="font-family: 'Open Sans', verdana, arial, sans-serif; font-size: 19px; fill: rgb(42, 63, 95); fill-opacity: 1; white-space: pre; opacity: 1;" transform="translate(0,415.68)">0</text></g><g class="ytick"><text text-anchor="end" x="69.2" y="6.6499999999999995" style="font-family: 'Open Sans', verdana, arial, sans-serif; font-size: 19px; fill: rgb(42, 63, 95); fill-opacity: 1; white-space: pre; opacity: 1;" transform="translate(0,335.33)">2</text></g><g class="ytick"><text text-anchor="end" x="69.2" y="6.6499999999999995" style="font-family: 'Open Sans', verdana, arial, sans-serif; font-size: 19px; fill: rgb(42, 63, 95); fill-opacity: 1; white-space: pre; opacity: 1;" transform="translate(0,254.98)">4</text></g><g class="ytick"><text text-anchor="end" x="69.2" y="6.6499999999999995" style="font-family: 'Open Sans', verdana, arial, sans-serif; font-size: 19px; fill: rgb(42, 63, 95); fill-opacity: 1; white-space: pre; opacity: 1;" transform="translate(0,174.63)">6</text></g><g class="ytick"><text text-anchor="end" x="69.2" y="6.6499999999999995" style="font-family: 'Open Sans', verdana, arial, sans-serif; font-size: 19px; fill: rgb(42, 63, 95); fill-opacity: 1; white-space: pre; opacity: 1;" transform="translate(0,94.28999999999999)">8</text></g></g><g class="overaxes-above"/></g></g><g class="polarlayer"/><g class="ternarylayer"/><g class="geolayer"/><g class="funnelarealayer"/><g class="pielayer"/><g class="iciclelayer"/><g class="treemaplayer"/><g class="sunburstlayer"/><g class="glimages"/><defs id="topdefs-fe8f56"><g class="clips"/></defs><g class="layer-above"><g class="imagelayer"/><g class="shapelayer"/></g><g class="infolayer"><g class="g-gtitle"/><g class="g-xtitle"/><g class="g-ytitle" transform="translate(12.537109375,0)"><text class="ytitle" transform="rotate(-90,10.462500000000006,280)" x="10.462500000000006" y="280" text-anchor="middle" style="font-family: 'Open Sans', verdana, arial, sans-serif; font-size: 23px; fill: rgb(42, 63, 95); opacity: 1; font-weight: normal; white-space: pre;">Power [kW] &amp; Temp. °C &amp; GHI/100</text></g></g></svg>