<svg class="main-svg" xmlns="http://www.w3.org/2000/svg" xmlns:xlink="http://www.w3.org/1999/xlink" width="900" height="400" viewBox="0 0 900 400"><rect x="0" y="0" width="900" height="400" style="fill: rgb(255, 255, 255); fill-opacity: 1;"/><defs id="defs-4adfe3"><g class="clips"><clipPath id="clip4adfe3xyplot" class="plotclip"><rect width="775" height="260"/></clipPath><clipPath class="axesclip" id="clip4adfe3x"><rect x="75" y="0" width="775" height="400"/></clipPath><clipPath class="axesclip" id="clip4adfe3y"><rect x="0" y="50" width="900" height="260"/></clipPath><clipPath class="axesclip" id="clip4adfe3xy"><rect x="75" y="50" width="775" height="260"/></clipPath></g><g class="gradients"/><g class="patterns"/></defs><g class="bglayer"/><g class="layer-below"><g class="imagelayer"/><g class="shapelayer"/></g><g class="cartesianlayer"><g class="subplot xy"><g class="layer-subplot"><g class="shapelayer"/><g class="imagelayer"/></g><g class="gridlayer"><g class="x"><path class="xgrid crisp" transform="translate(158.04000000000002,0)" d="M0,50v260" style="stroke: rgb(235, 240, 248); stroke-opacity: 1; stroke-width: 1px;"/><path class="xgrid crisp" transform="translate(268.75,0)" d="M0,50v260" style="stroke: rgb(235, 240, 248); stroke-opacity: 1; stroke-width: 1px;"/><path class="xgrid crisp" transform="translate(379.46,0)" d="M0,50v260" style="stroke: rgb(235, 240, 248); stroke-opacity: 1; stroke-width: 1px;"/><path class="xgrid crisp" transform="translate(490.18,0)" d="M0,50v260" style="stroke: rgb(235, 240, 248); stroke-opacity: 1; stroke-width: 1px;"/><path class="xgrid crisp" transform="translate(600.89,0)" d="M0,50v260" style="stroke: rgb(235, 240, 248); stroke-opacity: 1; stroke-width: 1px;"/><path class="xgrid crisp" transform="translate(711.61,0)" d="M0,50v260" style="stroke: rgb(235, 240, 248); stroke-opacity: 1; stroke-width: 1px;"/><path class="xgrid crisp" transform="translate(822.32,0)" d="M0,50v260" style="stroke: rgb(235, 240, 248); stroke-opacity: 1; stroke-width: 1px;"/></g><g class="y"><path class="ygrid crisp" transform="translate(0,281.61)" d="M75,0h775" style="stroke: rgb(235, 240, 248); stroke-opacity: 1; stroke-width: 1px;"/><path class="ygrid crisp" transform="translate(0,241.43)" d="M75,0h775" style="stroke: rgb(235, 240, 248); stroke-opacity: 1; stroke-width: 1px;"/><path class="ygrid crisp" transform="translate(0,161.06)" d="M75,0h775" style="stroke: rgb(235, 240, 248); stroke-opacity: 1; stroke-width: 1px;"/><path class="ygrid crisp" transform="translate(0,120.88)" d="M75,0h775" style="stroke: rgb(235, 240, 248); stroke-opacity: 1; stroke-width: 1px;"/><path class="ygrid crisp" transform="translate(0,80.69)" d="M75,0h775" style="stroke: rgb(235, 240, 248); stroke-opacity: 1; stroke-width: 1px;"/></g></g><g class="zerolinelayer"><path class="yzl zl crisp" transform="translate(0,201.25)" d="M75,0h775" style="stroke: rgb(0, 0, 0); stroke-opacity: 1; stroke-width: 2px;"/></g><path class="xlines-below"/><path class="ylines-below"/><g class="overlines-below"/><g class="xaxislayer-below"/><g class="yaxislayer-below"/><g class="overaxes-below"/><g class="plot" transform="translate(75,50)" clip-path="url(#clip4adfe3xyplot)"><g class="scatterlayer mlayer"><g class="trace scatter traced8c02c" style="stroke-miterlimit: 2; opacity: 1;"><g class="fills"/><g class="errorbars"/><g class="lines"><path class="js-line" d="M0,164.56L1.15,169.08L2.31,176.76L3.46,184.26L4.61,183.94L6.92,194.49L8.07,204.87L11.53,216.62L12.69,216.99L13.84,222.54L14.99,216.66L16.15,233.04L17.3,232.72L18.45,239.12L19.61,240.95L20.76,242.06L21.91,244.97L23.07,241.79L24.22,244.41L25.37,240.54L26.53,246.97L27.68,247L28.83,242.5L29.99,242.38L31.14,240.12L32.29,239.52L33.44,236.21L36.9,221.26L38.06,205.01L39.21,186.64L40.36,185.06L42.67,182.87L43.82,174.55L46.13,162.85L47.28,159.78L49.59,149.65L50.74,151.66L51.9,147.57L53.05,151.91L55.36,142.27L56.51,147.58L57.66,140.28L58.82,143.36L59.97,135.76L61.12,140.43L62.28,136.73L63.43,141.8L64.58,138.7L65.74,138.98L66.89,140.85L68.04,136.15L69.2,125.7L70.35,103.38L71.5,13L72.66,129.5L73.81,81.43L74.96,128.79L76.12,130.97L77.27,140.52L80.73,145.83L81.88,148.77L84.19,148.89L85.34,150.29L87.65,149.77L88.8,150.63L92.26,148.75L93.42,149.03L95.72,144.51L96.88,144.25L98.03,149.69L99.18,149.94L100.33,143.41L101.49,142L102.64,142.87L103.79,145.69L106.1,148.79L107.25,155.7L108.41,160.25L109.56,160.71L110.71,164.18L111.87,172.1L113.02,174.09L114.17,184.25L117.63,202.45L118.79,207.44L121.09,216.09L122.25,217.47L123.4,219.79L124.55,211.84L125.71,224.81L126.86,216.76L129.17,238.96L130.32,235.53L131.47,225.68L132.63,231.17L133.78,230.02L134.93,239.44L137.24,241.76L138.39,244.76L139.55,238.63L140.7,240.66L141.85,231.14L143.01,231.86L144.16,221.46L145.31,230.03L146.47,222.22L147.62,226.66L149.93,208L151.08,207.16L152.23,203.8L153.39,195.77L156.85,183.06L158,172.05L161.46,150.45L162.61,115.73L163.76,151.39L164.92,149.39L166.07,140.69L167.22,144.47L168.38,146.68L169.53,124.5L170.68,119.1L171.84,138.5L172.99,140.62L174.14,138.38L175.3,137.46L176.45,129.04L177.6,125.47L178.76,72.45L179.91,115.54L181.06,130.34L183.37,143.02L184.52,139.23L186.83,123.15L187.98,127.01L189.14,123.62L190.29,141.83L191.44,143.17L192.6,147.39L193.75,148.31L194.9,142.86L196.06,147.89L197.21,148.14L198.36,150.38L199.52,149.95L202.98,149.96L204.13,150.69L207.59,149.63L208.74,147.49L209.9,147.63L211.05,119.46L212.2,143.05L213.36,140.48L214.51,135.1L215.66,146.47L216.82,148.09L217.97,141.17L220.28,160.81L221.43,157.18L223.74,178.06L224.89,185.18L235.27,230.56L236.42,229.89L237.57,227.97L238.73,228.96L239.88,227.63L241.03,231.61L242.19,231.39L243.34,232.59L245.65,240.62L246.8,232.85L247.95,236.46L249.11,225.97L250.26,235.96L251.41,230.15L252.57,236.35L253.72,235.71L254.87,226.88L256.03,229.22L260.64,207.57L261.79,205.04L265.25,191.66L266.41,183L267.56,178.42L268.71,168.76L269.87,166.15L271.02,160.15L272.17,159.4L273.33,155.63L274.48,153.11L275.63,153.33L276.79,147.33L277.94,129.05L279.09,146.43L280.25,144.95L281.4,142.52L282.55,146.03L284.86,139.65L286.01,141.68L287.17,140.71L288.32,126.16L289.47,134.69L290.63,81.91L292.93,130.48L294.08,137.62L295.24,142.88L296.39,140.96L297.54,137.73L298.7,143.01L299.85,127.89L301,130.47L302.16,125.32L303.31,134.13L304.46,146.48L305.62,144.16L306.77,148.35L307.92,148.99L310.23,149.67L311.38,149.92L313.69,147.43L314.84,147.36L316,148.43L317.15,143.24L318.3,147.61L319.46,146.92L320.61,146.2L321.76,147.67L322.92,146.06L324.07,146.21L325.22,148.24L326.38,146.64L327.53,148.75L328.68,153.54L330.99,162.37L332.14,156.74L333.3,168.02L334.45,169.38L336.76,189.16L337.91,191.63L339.06,193.58L340.22,199.98L341.37,206.27L342.52,202.65L343.68,205.8L344.83,203.02L345.98,206.03L347.14,204.52L348.29,201.29L349.44,201.86L350.6,206.11L351.75,216.34L355.21,238.81L356.36,237.83L357.51,235.56L358.67,230.6L359.82,231.26L360.97,224.92L364.43,204.14L365.59,206.51L366.74,210.25L367.89,207.68L369.05,206.05L370.2,202.11L371.35,201.81L372.51,200.04L374.81,194.93L375.97,189.93L379.43,176.67L380.58,166.57L381.73,162.89L382.89,161.7L385.19,156.04L386.35,152.22L387.5,145.44L388.65,144.8L390.96,149.17L392.11,142.53L394.42,149.58L395.57,147.76L396.73,149.95L397.88,146.96L399.03,146.31L400.19,148.49L404.8,138.25L405.95,98.6L407.11,138.33L408.26,119.19L409.41,142.75L410.57,139.07L411.72,146.75L412.87,147.02L414.03,147.38L415.18,144.74L416.33,145.74L417.49,148.16L420.94,150.48L422.1,150.45L424.4,149.46L425.56,150.1L427.86,146.17L429.02,147.44L430.17,149.89L431.32,148.64L432.48,147.31L433.63,148.66L435.94,147.83L437.09,138.71L438.24,151.53L439.4,152.1L440.55,150.72L441.7,158L445.16,174.99L446.32,180.66L448.62,189.63L449.78,200.7L450.93,200.98L452.08,211.38L453.24,211.13L454.39,218.23L455.54,219.53L456.7,223.97L457.85,218.26L459,229.79L461.31,241.25L462.46,239.76L463.62,237.64L464.77,238.85L467.08,243.85L468.23,242.07L469.38,235.29L470.54,237.47L471.69,229.72L472.84,231.22L474,228.81L475.15,231.54L476.3,228.64L477.46,220.46L479.76,217.61L480.92,210.55L482.07,210.64L483.22,203.38L484.38,201.33L485.53,194.52L488.99,168.69L490.14,164.18L491.29,160.68L492.45,164.8L494.75,157.31L495.91,156.49L498.21,149.3L499.37,149.6L500.52,147.59L501.67,142.06L502.83,149.7L503.98,149.55L505.13,149.38L506.29,148.15L507.44,146.7L508.59,141.7L510.9,149.56L512.05,145.69L513.21,148.39L514.36,144.8L515.51,139.75L516.67,147.04L517.82,145.58L518.97,148.09L520.13,147.52L521.28,135.94L523.59,146.02L524.74,147.98L525.89,150.14L527.05,149.05L528.2,149.73L529.35,148.36L531.66,150.02L532.81,146.42L533.97,146.88L535.12,149.92L536.27,145.99L537.43,148.1L538.58,145.06L539.73,147.4L540.89,146.22L542.04,147.43L543.19,147.35L544.35,149.7L545.5,149.58L546.65,147.01L547.81,149.41L548.96,149.81L550.11,145.98L551.26,147.53L552.42,147.16L553.57,145.25L554.72,134.29L555.88,152.38L558.18,153.2L559.34,156.36L561.64,153.36L562.8,159.7L563.95,157.36L565.1,163.61L567.41,161.45L568.56,148.12L569.72,153.58L570.87,141.4L572.02,155.05L573.18,147.85L574.33,150.93L575.48,148.94L576.64,155.12L577.79,144.82L578.94,144.4L580.1,148.3L581.25,152.77L582.4,142.75L583.56,146.89L584.71,142.13L585.86,128.68L587.02,149.07L588.17,152.04L589.32,149.89L591.63,147.66L592.78,143.31L593.94,154.12L595.09,151.95L596.24,162.74L597.4,156.53L598.55,157.14L599.7,153.36L600.86,157.6L602.01,156.84L603.16,154.76L604.32,158.03L605.47,149.37L606.62,152.5L610.08,147.43L611.24,150.65L612.39,142.73L613.54,142.28L614.69,143.75L615.85,149.61L617,145.8L618.15,147.03L619.31,148.73L620.46,147.1L621.61,145.78L622.77,137.53L623.92,137.93L625.07,142.2L626.23,142.3L627.38,137L628.53,137.39L629.69,135.09L630.84,78.72L631.99,129.32L633.15,118.44L634.3,134.04L635.45,143.84L636.61,145L638.91,145.81L640.07,143.49L641.22,148.5L642.37,145.55L643.53,144.17L644.68,147.24L645.83,145.26L646.99,145.04L648.14,146.54L649.29,146.68L650.45,148.35L651.6,144.83L653.91,136.58L655.06,144.93L656.21,145.49L657.37,139.73L658.52,132.97L659.67,147.53L660.83,148.78L661.98,157.12L663.13,154.83L664.29,155.83L666.59,169.52L667.75,175.26L672.36,198.42L673.51,208.18L674.67,210.39L675.82,214.3L676.97,218.44L678.13,219.05L680.43,223.54L681.58,230.55L682.74,235.42L683.89,235.63L685.04,234.69L686.2,230.21L687.35,235.55L688.5,237.05L689.66,237.44L690.81,217.15L691.96,214.17L693.12,216.01L694.27,223.97L695.42,226.57L697.73,228.23L698.88,224.07L702.34,214.96L703.5,207.51L704.65,198.03L705.8,203.44L706.96,198.37L708.11,187.29L710.42,182.13L711.57,177.48L715.03,153.24L716.18,148.75L717.34,151.99L718.49,152.24L719.64,149.12L720.8,150.99L721.95,148.33L723.1,150.19L724.26,142.07L725.41,144.11L726.56,144.12L727.72,142.02L728.87,141.72L730.02,142.21L731.18,145.63L732.33,143.34L733.48,139.32L734.64,141.44L735.79,145.83L736.94,143.97L738.1,134.52L739.25,142.5L741.56,146.09L742.71,142.34L743.86,141.85L745.01,144.01L746.17,138.67L747.32,149.24L748.47,149.03L749.63,145.17L751.93,149.75L753.09,149.73L758.85,148.53L760.01,146.67L761.16,150.14L762.31,150L763.47,149.81L764.62,150.42L769.23,147.09L770.39,149.27L771.54,148.2L772.69,155L775,159.32" style="vector-effect: non-scaling-stroke; fill: none; stroke: rgb(76, 120, 168); stroke-opacity: 1; stroke-width: 3px; opacity: 1;"/></g><g class="points"/><g class="text"/></g><g class="trace scatter tracec05831" style="stroke-miterlimit: 2; opacity: 1;"><g class="fills"/><g class="errorbars"/><g class="lines"><path class="js-line" d="M0,158.24L2.31,169.01L3.46,175.32L5.77,187.09L6.92,193.32L12.69,220.21L13.84,220.07L17.3,224.75L18.45,231.99L21.91,240.77L23.07,238.97L25.37,239.36L26.53,240.02L28.83,233.15L29.99,231.65L31.14,229.94L32.29,231.16L34.6,226.1L35.75,222.37L36.9,218.99L38.06,211.54L43.82,170.46L44.98,162.86L48.44,151.65L49.59,148.12L51.9,143.91L53.05,142.73L54.2,141.95L55.36,142.61L58.82,141.6L59.97,139.06L63.43,135.67L64.58,135.71L68.04,133.71L69.2,131.47L71.5,129.96L72.66,129.87L73.81,124.24L74.96,122.98L77.27,124.02L78.42,130.21L81.88,139.1L83.04,139.76L88.8,145.16L89.96,145.23L93.42,144.42L94.57,143.29L95.72,142.07L96.88,142.07L101.49,139.08L102.64,139.46L106.1,143.2L107.25,146.5L111.87,162.23L113.02,168.83L121.09,212.09L122.25,216.35L123.4,220.18L124.55,220.11L128.01,224.73L129.17,231.98L132.63,241.45L133.78,239.96L136.09,240.28L137.24,240.82L139.55,233.9L140.7,232.63L141.85,231.19L143.01,232.71L145.31,228.21L146.47,224.75L148.77,216.39L149.93,210.32L155.69,180.18L156.85,177.37L162.61,149.42L163.76,146.74L164.92,144.65L166.07,144.15L169.53,141.75L170.68,138.99L174.14,135.54L175.3,135.65L178.76,133.93L179.91,131.76L182.22,130.37L183.37,130.31L184.52,124.72L185.68,123.49L187.98,124.58L189.14,130.79L192.6,139.74L193.75,140.41L199.52,145.94L200.67,146.03L204.13,145.31L205.28,144.22L206.44,143.03L207.59,143.06L212.2,140.21L213.36,140.57L216.82,144.16L217.97,147.47L222.58,163.72L223.74,170.45L232.96,217.12L234.11,221L237.57,220.09L238.73,219.72L241.03,228L242.19,231.01L243.34,234.47L244.49,233.67L246.8,235.47L247.95,236.71L250.26,230.93L251.41,230.04L252.57,228.94L253.72,230.78L254.87,229.54L256.03,227.11L259.49,216.49L260.64,210.84L266.41,182.27L267.56,179.66L273.33,152.96L274.48,150.44L275.63,148.5L276.79,148.14L280.25,145.31L281.4,142.33L284.86,138.7L286.01,138.79L289.47,137.07L290.63,134.9L292.93,133.5L294.08,133.45L295.24,127.85L296.39,126.62L298.7,127.7L299.85,133.91L303.31,142.82L304.46,143.48L310.23,148.91L311.38,148.97L314.84,148.17L316,147.04L317.15,145.83L318.3,145.82L322.92,142.83L324.07,143.21L327.53,147L328.68,150.24L333.3,165.53L334.45,171.92L337.91,188.52L339.06,192.96L340.22,196.82L341.37,203.32L343.68,206.59L344.83,206.88L347.14,201.5L348.29,200.65L349.44,200.07L350.6,205.11L355.21,233.28L356.36,235.36L358.67,237.12L359.82,231.66L364.43,214.75L365.59,211.94L372.51,192.79L373.66,192.62L375.97,184.01L377.12,178.92L378.27,177.98L379.43,173.62L384.04,155.15L385.19,152.14L387.5,148.42L388.65,147.14L390.96,144.66L392.11,141.54L395.57,137.62L396.73,137.65L400.19,135.74L401.34,133.52L403.65,132.07L404.8,131.98L405.95,126.35L407.11,125.09L409.41,126.1L410.57,132.26L414.03,141.08L415.18,141.71L420.94,146.99L422.1,147.04L425.56,146.18L426.71,145.04L427.86,143.8L429.02,143.78L433.63,140.76L434.78,141.18L438.24,145.12L439.4,148.35L444.01,163.64L445.16,169.91L449.78,194.11L450.93,199.49L453.24,213.41L454.39,217.46L455.54,221.48L456.7,221.26L460.16,224.63L461.31,231.36L464.77,238.75L465.92,236.55L467.08,236.02L468.23,236.33L469.38,236.78L470.54,231.76L474,226.03L475.15,227.12L477.46,221.95L478.61,218.18L480.92,210.18L482.07,205.11L485.53,190.7L486.68,182.2L488.99,168.49L490.14,164.09L492.45,157.17L493.6,155.28L497.06,148.85L498.21,148.12L501.67,144.68L502.83,141.58L506.29,138.02L507.44,138.1L510.9,136.19L512.05,134L514.36,132.61L515.51,132.57L516.67,126.99L517.82,125.77L520.13,126.88L521.28,133.1L524.74,142.05L525.89,142.73L531.66,148.23L532.81,148.32L536.27,147.56L537.43,146.46L538.58,145.26L539.73,145.27L545.5,142.17L546.65,142.49L550.11,144.64L551.26,146.38L552.42,148.3L553.57,147.18L557.03,151.19L558.18,151.18L561.64,155.31L562.8,159.43L565.1,163.05L566.26,164.25L570.87,155.07L572.02,158.28L573.18,158.2L574.33,157.23L575.48,156.42L576.64,151.2L577.79,150.45L578.94,151.43L580.1,152.92L581.25,149.3L582.4,148.98L583.56,149.45L584.71,149.78L585.86,153.08L587.02,153.89L588.17,153.72L590.48,152.65L591.63,153.08L593.94,153.97L595.09,157.8L596.24,157.64L597.4,156.03L598.55,154.13L599.7,156.3L603.16,156.04L604.32,156.9L606.62,153.7L607.78,151.69L610.08,149.25L611.24,147.68L612.39,146.19L613.54,142.74L617,138.3L618.15,138.21L621.61,135.86L622.77,133.58L625.07,132.05L626.23,131.95L627.38,126.3L628.53,125.03L630.84,126.01L631.99,132.17L635.45,140.92L636.61,141.52L641.22,146.05L642.37,146.67L645.83,146.55L646.99,145.72L649.29,143.27L650.45,143.21L655.06,140.03L656.21,140.3L659.67,143.59L660.83,146.85L666.59,168.24L667.75,174.32L675.82,212.02L676.97,214.66L678.13,213.81L679.28,214.77L681.58,218.31L682.74,225.81L686.2,234.11L687.35,232.08L688.5,231.67L689.66,232.06L690.81,232.56L691.96,227.64L695.42,223.59L696.58,225.36L698.88,221.73L700.04,218.77L701.19,216.16L702.34,211.51L716.18,148.54L717.34,145.94L718.49,143.93L719.64,143.5L723.1,140.74L724.26,137.81L727.72,134.15L728.87,134.21L732.33,132.4L733.48,130.2L735.79,128.76L736.94,128.68L738.1,123.06L739.25,121.81L741.56,122.85L742.71,129.04L746.17,137.92L747.32,138.58L753.09,143.99L754.24,144.05L757.7,143.26L758.85,142.15L760.01,140.94L761.16,140.94L765.77,138.01L766.93,138.48L770.39,142.65L771.54,145.8L775,155.21" style="vector-effect: non-scaling-stroke; fill: none; stroke: rgb(255, 127, 14); stroke-opacity: 0.7; stroke-width: 3px; opacity: 1;"/></g><g class="points"/><g class="text"/></g></g></g><g class="overplot"/><path class="xlines-above crisp" d="M0,0" style="fill: none;"/><path class="ylines-above crisp" d="M74,50V310" style="fill: none; stroke-width: 2px; stroke: rgb(0, 0, 0); stroke-opacity: 1;"/><g class="overlines-above"/><g class="xaxislayer-above"><g class="xtick"><text text-anchor="middle" x="0" y="330" transform="translate(158.04000000000002,0)" style="font-family: 'Open Sans', verdana, arial, sans-serif; font-size: 19px; fill: rgb(42, 63, 95); fill-opacity: 1; white-space: pre; opacity: 1;"><tspan class="line" dy="0em" x="0" y="330">May 31</tspan><tspan class="line" dy="1.3em" x="0" y="330">2019</tspan></text></g><g class="xtick"><text text-anchor="middle" x="0" y="330" style="font-family: 'Open Sans', verdana, arial, sans-serif; font-size: 19px; fill: rgb(42, 63, 95); fill-opacity: 1; white-space: pre; opacity: 1;" transform="translate(268.75,0)">Jun 1</text></g><g class="xtick"><text text-anchor="middle" x="0" y="330" style="font-family: 'Open Sans', verdana, arial, sans-serif; font-size: 19px; fill: rgb(42, 63, 95); fill-opacity: 1; white-space: pre; opacity: 1;" transform="translate(379.46,0)">Jun 2</text></g><g class="xtick"><text text-anchor="middle" x="0" y="330" style="font-family: 'Open Sans', verdana, arial, sans-serif; font-size: 19px; fill: rgb(42, 63, 95); fill-opacity: 1; white-space: pre; opacity: 1;" transform="translate(490.18,0)">Jun 3</text></g><g class="xtick"><text text-anchor="middle" x="0" y="330" style="font-family: 'Open Sans', verdana, arial, sans-serif; font-size: 19px; fill: rgb(42, 63, 95); fill-opacity: 1; white-space: pre; opacity: 1;" transform="translate(600.89,0)">Jun 4</text></g><g class="xtick"><text text-anchor="middle" x="0" y="330" style="font-family: 'Open Sans', verdana, arial, sans-serif; font-size: 19px; fill: rgb(42, 63, 95); fill-opacity: 1; white-space: pre; opacity: 1;" transform="translate(711.61,0)">Jun 5</text></g><g class="xtick"><text text-anchor="middle" x="0" y="330" style="font-family: 'Open Sans', verdana, arial, sans-serif; font-size: 19px; fill: rgb(42, 63, 95); fill-opacity: 1; white-space: pre; opacity: 1;" transform="translate(822.32,0)">Jun 6</text></g></g><g class="yaxislayer-above"><g class="ytick"><text text-anchor="end" x="69.2" y="6.6499999999999995" transform="translate(0,281.61)" style="font-family: 'Open Sans', verdana, arial, sans-serif; font-size: 19px; fill: rgb(42, 63, 95); fill-opacity: 1; white-space: pre; opacity: 1;">−2</text></g><g class="ytick"><text text-anchor="end" x="69.2" y="6.6499999999999995" style="font-family: 'Open Sans', verdana, arial, sans-serif; font-size: 19px; fill: rgb(42, 63, 95); fill-opacity: 1; white-space: pre; opacity: 1;" transform="translate(0,241.43)">−1</text></g><g class="ytick"><text text-anchor="end" x="69.2" y="6.6499999999999995" style="font-family: 'Open Sans', verdana, arial, sans-serif; font-size: 19px; fill: rgb(42, 63, 95); fill-opacity: 1; white-space: pre; opacity: 1;" transform="translate(0,201.25)">0</text></g><g class="ytick"><text text-anchor="end" x="69.2" y="6.6499999999999995" style="font-family: 'Open Sans', verdana, arial, sans-serif; font-size: 19px; fill: rgb(42, 63, 95); fill-opacity: 1; white-space: pre; opacity: 1;" transform="translate(0,161.06)">1</text></g><g class="ytick"><text text-anchor="end" x="69.2" y="6.6499999999999995" style="font-family: 'Open Sans', verdana, arial, sans-serif; font-size: 19px; fill: rgb(42, 63, 95); fill-opacity: 1; white-space: pre; opacity: 1;" transform="translate(0,120.88)">2</text></g><g class="ytick"><text text-anchor="end" x="69.2" y="6.6499999999999995" style="font-family: 'Open Sans', verdana, arial, sans-serif; font-size: 19px; fill: rgb(42, 63, 95); fill-opacity: 1; white-space: pre; opacity: 1;" transform="translate(0,80.69)">3</text></g></g><g class="overaxes-above"/></g></g><g class="polarlayer"/><g class="ternarylayer"/><g class="geolayer"/><g class="funnelarealayer"/><g class="pielayer"/><g class="iciclelayer"/><g class="treemaplayer"/><g class="sunburstlayer"/><g class="glimages"/><defs id="topdefs-4adfe3"><g class="clips"/></defs><g class="layer-above"><g class="imagelayer"/><g class="shapelayer"/></g><g class="infolayer"><g class="g-gtitle"/><g class="g-xtitle"/><g class="g-ytitle" transform="translate(12.537109375,0)"><text class="ytitle" transform="rotate(-90,10.462500000000006,180)" x="10.462500000000006" y="180" text-anchor="middle" style="font-family: 'Open Sans', verdana, arial, sans-serif; font-size: 23px; fill: rgb(42, 63, 95); opacity: 1; font-weight: normal; white-space: pre;">Netload [kW]</text></g></g></svg>