<svg class="main-svg" xmlns="http://www.w3.org/2000/svg" xmlns:xlink="http://www.w3.org/1999/xlink" width="900" height="400" viewBox="0 0 900 400"><rect x="0" y="0" width="900" height="400" style="fill: rgb(255, 255, 255); fill-opacity: 1;"/><defs id="defs-a62c74"><g class="clips"><clipPath id="clipa62c74xyplot" class="plotclip"><rect width="775" height="260"/></clipPath><clipPath class="axesclip" id="clipa62c74x"><rect x="75" y="0" width="775" height="400"/></clipPath><clipPath class="axesclip" id="clipa62c74y"><rect x="0" y="50" width="900" height="260"/></clipPath><clipPath class="axesclip" id="clipa62c74xy"><rect x="75" y="50" width="775" height="260"/></clipPath></g><g class="gradients"/><g class="patterns"/></defs><g class="bglayer"/><g class="layer-below"><g class="imagelayer"/><g class="shapelayer"/></g><g class="cartesianlayer"><g class="subplot xy"><g class="layer-subplot"><g class="shapelayer"/><g class="imagelayer"/></g><g class="gridlayer"><g class="x"><path class="xgrid crisp" transform="translate(158.04000000000002,0)" d="M0,50v260" style="stroke: rgb(235, 240, 248); stroke-opacity: 1; stroke-width: 1px;"/><path class="xgrid crisp" transform="translate(268.75,0)" d="M0,50v260" style="stroke: rgb(235, 240, 248); stroke-opacity: 1; stroke-width: 1px;"/><path class="xgrid crisp" transform="translate(379.46,0)" d="M0,50v260" style="stroke: rgb(235, 240, 248); stroke-opacity: 1; stroke-width: 1px;"/><path class="xgrid crisp" transform="translate(490.18,0)" d="M0,50v260" style="stroke: rgb(235, 240, 248); stroke-opacity: 1; stroke-width: 1px;"/><path class="xgrid crisp" transform="translate(600.89,0)" d="M0,50v260" style="stroke: rgb(235, 240, 248); stroke-opacity: 1; stroke-width: 1px;"/><path class="xgrid crisp" transform="translate(711.61,0)" d="M0,50v260" style="stroke: rgb(235, 240, 248); stroke-opacity: 1; stroke-width: 1px;"/><path class="xgrid crisp" transform="translate(822.32,0)" d="M0,50v260" style="stroke: rgb(235, 240, 248); stroke-opacity: 1; stroke-width: 1px;"/></g><g class="y"><path class="ygrid crisp" transform="translate(0,275.37)" d="M75,0h775" style="stroke: rgb(235, 240, 248); stroke-opacity: 1; stroke-width: 1px;"/><path class="ygrid crisp" transform="translate(0,225.03)" d="M75,0h775" style="stroke: rgb(235, 240, 248); stroke-opacity: 1; stroke-width: 1px;"/><path class="ygrid crisp" transform="translate(0,124.33)" d="M75,0h775" style="stroke: rgb(235, 240, 248); stroke-opacity: 1; stroke-width: 1px;"/><path class="ygrid crisp" transform="translate(0,73.99)" d="M75,0h775" style="stroke: rgb(235, 240, 248); stroke-opacity: 1; stroke-width: 1px;"/></g></g><g class="zerolinelayer"><path class="yzl zl crisp" transform="translate(0,174.68)" d="M75,0h775" style="stroke: rgb(0, 0, 0); stroke-opacity: 1; stroke-width: 2px;"/></g><path class="xlines-below"/><path class="ylines-below"/><g class="overlines-below"/><g class="xaxislayer-below"/><g class="yaxislayer-below"/><g class="overaxes-below"/><g class="plot" transform="translate(75,50)" clip-path="url(#clipa62c74xyplot)"><g class="scatterlayer mlayer"><g class="trace scatter tracee12dbe" style="stroke-miterlimit: 2; opacity: 1;"><g class="fills"/><g class="errorbars"/><g class="lines"><path class="js-line" d="M0,117.41L3.46,148.94L4.61,151.15L6.92,174.12L8.07,174.86L10.38,192.01L11.53,199.13L12.69,210.46L13.84,207.55L14.99,202.35L16.15,227.52L17.3,223.53L18.45,231.14L20.76,241.2L21.91,241.58L23.07,246.12L24.22,245.68L25.37,237L26.53,241.22L28.83,214.96L29.99,214L31.14,235.18L32.29,228.88L33.44,216.62L34.6,191.19L35.75,205.87L36.9,199.51L39.21,167.58L40.36,171.55L41.52,146.99L42.67,144.28L43.82,143.54L44.98,146.65L47.28,126.66L48.44,129.92L49.59,130.66L50.74,126.49L51.9,126.16L53.05,123.1L54.2,121.66L55.36,123.61L57.66,117.75L58.82,107.02L59.97,109.49L61.12,108.08L62.28,104.16L63.43,103.63L64.58,98.5L65.74,117.36L69.2,51.54L70.35,55.57L72.66,86.28L73.81,79.96L74.96,53.33L76.12,74.94L77.27,83.47L78.42,103.98L79.58,114.35L80.73,117.51L81.88,78.29L83.04,106.82L84.19,115.36L85.34,116.51L86.5,114.82L87.65,117.98L88.8,117.5L89.96,111.73L91.11,119.71L92.26,111.68L93.42,112.4L94.57,117.67L95.72,119.05L96.88,122.23L98.03,122L99.18,116.36L100.33,118.9L101.49,107.04L102.64,115.76L103.79,114.36L104.95,121.21L106.1,109.52L107.25,106.8L108.41,127.41L109.56,123.19L110.71,123.38L111.87,130.48L113.02,127.04L117.63,182.52L118.79,186.14L122.25,212.36L123.4,212.85L125.71,227.47L126.86,224.29L129.17,234.43L130.32,230.37L131.47,242.97L132.63,239.66L133.78,246.25L134.93,247L136.09,245.79L137.24,242.94L138.39,241.92L139.55,242.75L140.7,235.8L141.85,236.65L143.01,235.41L144.16,231.26L146.47,220.99L147.62,216.39L148.77,199.68L149.93,198.25L151.08,192.14L152.23,161.65L153.39,173.07L154.54,166.48L155.69,157.52L156.85,141.43L158,143.97L159.15,139.72L160.31,131.34L161.46,130.7L162.61,130.81L163.76,127.45L166.07,100.66L167.22,109.91L168.38,90.62L169.53,109.71L170.68,98.89L171.84,101.77L172.99,86.54L174.14,104L175.3,106.39L176.45,104.36L177.6,112.06L178.76,106.16L181.06,92.77L182.22,67.04L183.37,79.91L184.52,102.76L186.83,91.39L187.98,98.43L189.14,105.25L190.29,104.02L192.6,85.31L193.75,107.27L194.9,112.89L196.06,108.3L197.21,116.92L198.36,109.77L199.52,108.67L200.67,112.39L201.82,117.98L202.98,106.56L204.13,104.89L205.28,96.75L206.44,107.02L207.59,101.21L208.74,116.48L209.9,104.74L211.05,102.3L212.2,108.65L213.36,120.32L214.51,96.85L215.66,107.33L216.82,106.17L217.97,111.21L219.12,111.67L220.28,127.84L221.43,126.63L222.58,138.85L223.74,140.72L226.04,170.39L227.19,179.9L228.35,184.26L229.5,185.4L235.27,214.82L236.42,217.83L237.57,204.64L238.73,208.05L239.88,206.55L241.03,218.7L243.34,235.69L244.49,236.6L245.65,225.55L246.8,231.1L249.11,236.64L250.26,230.16L252.57,231.35L253.72,229.72L256.03,219.43L257.18,218.02L258.33,215.24L259.49,207.11L260.64,202.35L261.79,184.58L262.95,186.14L264.1,179.56L268.71,145.88L269.87,139.28L271.02,136.62L272.17,131.61L273.33,123.6L274.48,124.03L275.63,123.42L276.79,113.89L277.94,112.66L279.09,112.62L280.25,106.64L281.4,84.56L282.55,111.25L283.71,103.97L284.86,112.25L286.01,106.69L287.17,110.66L288.32,110.22L290.63,49.32L291.78,23.03L292.93,82.04L294.08,62.47L296.39,102.69L297.54,104.2L298.7,87.63L299.85,114.38L301,106.62L302.16,105.06L303.31,78.75L304.46,116.7L306.77,106.59L307.92,106.92L309.08,106.91L310.23,112.52L312.54,103.7L313.69,102.51L314.84,110.47L316,107.03L317.15,117.42L318.3,110.77L319.46,115.86L320.61,110.33L321.76,115.87L322.92,114.56L324.07,112.06L325.22,116.91L326.38,113.63L327.53,113.96L328.68,121.99L329.84,122.38L330.99,124.06L332.14,128.54L334.45,149.41L335.6,164.2L341.37,188.79L342.52,192.38L343.68,194.49L344.83,194.21L345.98,190.16L347.14,191.9L348.29,195.26L349.44,190.2L350.6,196.89L351.75,193.69L352.9,201.25L354.06,222.22L355.21,239.72L356.36,238.02L359.82,230.79L360.97,224.13L362.13,219.62L363.28,209.52L364.43,205.89L365.59,189.68L366.74,179.8L367.89,191.09L369.05,173.23L370.2,178.88L371.35,177.21L372.51,181.35L373.66,169.94L374.81,174.16L375.97,173.25L377.12,166.66L378.27,156.15L379.43,153.96L381.73,134.52L382.89,118.89L384.04,123.18L385.19,122.42L386.35,121.56L387.5,106.03L388.65,96.72L389.81,103.25L390.96,109.89L392.11,107.61L393.27,116.2L394.42,113.9L395.57,104.01L396.73,107.29L397.88,116.32L399.03,112.37L401.34,100.78L402.49,111.53L403.65,104.5L404.8,88.38L405.95,98.16L407.11,90.03L408.26,78.13L409.41,93.21L410.57,101.37L411.72,99.46L412.87,96.85L414.03,90.76L415.18,107.6L416.33,107.18L417.49,107.9L418.64,110.63L420.94,100.83L422.1,105.48L424.4,117.93L425.56,109.35L426.71,103.95L427.86,39.14L429.02,106.11L430.17,117.32L431.32,109.5L432.48,108L433.63,114.64L434.78,112.69L435.94,122.66L437.09,122.94L438.24,116.75L439.4,116.79L440.55,106.3L441.7,130.51L442.86,132.75L444.01,132.2L447.47,166.09L448.62,175.78L449.78,171.33L450.93,180.79L455.54,209.3L456.7,209.6L457.85,216.62L459,208.49L461.31,224.8L462.46,211.49L464.77,232.41L465.92,238.11L467.08,234.63L468.23,236.64L469.38,237.21L470.54,235.31L471.69,229.93L472.84,231.57L474,226.45L475.15,214.96L477.46,179.34L478.61,184.32L479.76,178.4L480.92,182.79L483.22,136.81L484.38,144.97L485.53,153.81L486.68,145.07L487.83,147.51L488.99,134.87L490.14,125.17L491.29,128.34L492.45,128.62L493.6,124.62L494.75,124.3L495.91,123.15L497.06,125.8L498.21,102.9L499.37,52.11L500.52,78.11L501.67,97.46L502.83,91.55L503.98,85.81L505.13,93.37L506.29,105.42L507.44,98.71L508.59,104.7L509.75,99.49L510.9,112.33L512.05,93.9L513.21,108.97L514.36,105.3L515.51,97.74L516.67,101.92L517.82,98.87L518.97,104.04L520.13,88.03L521.28,94.84L523.59,78.89L524.74,105.87L525.89,94.46L527.05,51.85L528.2,100.5L529.35,105.49L530.51,110.77L531.66,104.28L532.81,112.61L533.97,97.43L535.12,89.15L536.27,111.89L537.43,110.48L538.58,100.62L539.73,31.01L540.89,104.19L542.04,105.8L543.19,87.96L544.35,105.24L545.5,86.12L546.65,102.38L547.81,90.24L548.96,97.37L550.11,77.95L551.26,111.68L552.42,115.81L553.57,113.32L554.72,105.12L555.88,111.75L557.03,112.78L558.18,116.14L559.34,123.35L560.49,108.26L561.64,107.8L563.95,128.07L565.1,121.91L566.26,124.53L567.41,111.74L568.56,74.26L569.72,125.07L570.87,132.33L572.02,117.14L573.18,118.03L574.33,130.1L575.48,127.28L576.64,97.16L577.79,100.32L578.94,107.25L580.1,98.94L581.25,108.97L582.4,108.08L583.56,13L587.02,92.3L588.17,103.74L590.48,96.09L591.63,107.29L592.78,105.49L593.94,107.56L595.09,114.96L596.24,66.1L597.4,105.04L598.55,115.36L599.7,116.87L600.86,108.67L602.01,112.83L603.16,111L604.32,129.05L605.47,128.78L606.62,114.67L607.78,116.94L608.93,121.29L610.08,118.06L611.24,106.61L612.39,114.35L613.54,115.86L614.69,119.97L617,117.8L618.15,113.16L619.31,119.59L620.46,114.13L621.61,91.66L622.77,104.26L623.92,105.65L625.07,87.94L626.23,117.45L627.38,118.04L628.53,118.4L629.69,116.98L630.84,109.27L631.99,118.5L633.15,114.7L634.3,98.68L636.61,111.35L637.76,111.1L638.91,115.01L640.07,99.76L641.22,99.29L642.37,106.68L643.53,114.86L644.68,114.39L646.99,109.55L648.14,105.06L649.29,106.35L650.45,104.57L651.6,105.78L652.75,95.63L653.91,98.99L655.06,108.55L656.21,115.11L657.37,114.8L658.52,119.54L659.67,120.36L660.83,130.64L661.98,134L665.44,142.54L666.59,142.77L668.9,147.85L670.05,156.16L671.21,159L672.36,177.23L673.51,191.19L674.67,192.54L675.82,202.44L676.97,204.63L678.13,206.19L679.28,216.55L680.43,211.18L681.58,217.48L682.74,213.54L683.89,203.88L686.2,232.2L687.35,212.17L689.66,201.47L690.81,210.79L693.12,222.34L694.27,210.41L695.42,204.69L696.58,211.73L697.73,204.66L698.88,204.36L700.04,192.55L701.19,210.29L702.34,199.7L703.5,195.98L704.65,193.17L705.8,188.14L708.11,169.05L709.26,167.92L713.88,137.02L715.03,128.53L716.18,131.86L717.34,127.96L718.49,127.18L719.64,124.42L720.8,121.29L721.95,112.68L723.1,116.91L724.26,109.1L725.41,110.95L726.56,117.31L727.72,118.85L728.87,115.82L731.18,118.12L732.33,117.06L733.48,114.46L734.64,114.58L735.79,96.71L736.94,97.13L738.1,97.25L739.25,85.68L740.4,87.63L741.56,106.31L742.71,109.49L743.86,98.28L745.01,103.69L746.17,99.1L747.32,118.38L748.47,118.24L749.63,113.32L750.78,104.74L751.93,116.61L753.09,106.96L754.24,115.33L755.39,112.77L756.55,114.25L757.7,110.1L758.85,117.79L760.01,116.09L761.16,120.62L762.31,119.33L763.47,120.07L764.62,117.31L765.77,119.3L766.93,117.63L769.23,126.17L770.39,124.14L775,141.74" style="vector-effect: non-scaling-stroke; fill: none; stroke: rgb(76, 120, 168); stroke-opacity: 1; stroke-width: 3px; opacity: 1;"/></g><g class="points"/><g class="text"/></g><g class="trace scatter tracef16e9e" style="stroke-miterlimit: 2; opacity: 1;"><g class="fills"/><g class="errorbars"/><g class="lines"><path class="js-line" d="M0,124.85L2.31,137.2L3.46,145.49L4.61,146.82L5.77,153.12L10.38,180.39L11.53,187.76L12.69,195.07L13.84,189.72L14.99,190.58L16.15,192.59L17.3,194.4L18.45,205.21L24.22,228.61L25.37,231.23L26.53,233.59L27.68,222.62L29.99,215.14L31.14,212.39L35.75,200.94L36.9,190.99L40.36,162.67L41.52,159.85L49.59,107.22L50.74,108.66L54.2,101.27L55.36,95.22L57.66,91.72L58.82,91.96L59.97,91.09L61.12,93.02L63.43,100.57L64.58,87.15L65.74,84.51L66.89,84.5L68.04,84.77L69.2,68.22L72.66,52.63L73.81,64.87L74.96,67.68L76.12,67.86L77.27,67.15L78.42,87L80.73,95.69L81.88,96.94L83.04,106.87L84.19,109.87L86.5,111.2L87.65,106.81L91.11,100.77L92.26,100.38L95.72,98.95L96.88,100.08L100.33,100.45L101.49,103.25L104.95,106.8L106.1,113.08L111.87,134.73L113.02,141.84L114.17,149.87L115.33,150.97L122.25,191.25L123.4,198.51L124.55,193.14L125.71,193.97L128.01,197.78L129.17,208.58L134.93,232.93L136.09,235.56L137.24,237.87L138.39,226.81L140.7,219.61L141.85,217.1L146.47,206.78L147.62,197.14L151.08,176.17L152.23,176.72L154.54,164.34L155.69,156.15L156.85,153.11L158,145.46L160.31,126.44L161.46,125.42L164.92,112.65L166.07,104.94L168.38,99.15L169.53,98.48L170.68,96.82L171.84,98.15L174.14,104.85L175.3,91.12L176.45,88.23L177.6,88.02L178.76,88.12L179.91,71.43L183.37,55.52L184.52,67.69L185.68,70.43L186.83,70.54L187.98,69.77L189.14,89.57L191.44,98.16L192.6,99.36L193.75,109.24L194.9,112.2L197.21,113.44L198.36,109.01L201.82,102.85L202.98,102.41L206.44,100.85L207.59,101.94L211.05,102.18L212.2,104.93L215.66,108.16L216.82,114.3L220.28,127.56L221.43,127.93L223.74,141.25L224.89,149.7L226.04,150.97L227.19,157.18L230.65,177.01L231.81,183.52L234.11,197.72L235.27,192.14L237.57,191.98L238.73,191.75L241.03,204.65L242.19,208.17L243.34,211.7L244.49,219.01L247.95,228.41L249.11,217.78L251.41,211.26L252.57,209.07L257.18,200.18L258.33,190.92L261.79,171.26L262.95,172.28L265.25,160.56L266.41,152.65L267.56,149.86L268.71,142.5L271.02,124.04L272.17,123.3L275.63,111.12L276.79,103.56L279.09,97.62L280.25,96.77L281.4,94.89L282.55,96.06L284.86,102.48L286.01,88.61L287.17,85.59L288.32,85.26L289.47,85.25L290.63,68.45L294.08,52.22L295.24,64.28L296.39,66.92L297.54,66.93L298.7,66.05L299.85,85.74L302.16,94.12L303.31,95.21L304.46,104.99L305.62,107.84L307.92,108.87L309.08,104.34L312.54,97.85L313.69,97.31L317.15,95.43L318.3,96.41L321.76,96.33L322.92,98.98L326.38,102.12L327.53,108.27L333.3,128.78L334.45,135.56L335.6,143.25L336.76,143.98L341.37,164.13L342.52,167.86L344.83,175.17L345.98,165.66L348.29,161.34L349.44,159.7L354.06,187.73L355.21,199.98L357.51,210.05L358.67,213.3L360.97,196.86L362.13,191.76L366.74,172.02L367.89,168.78L370.2,152.94L371.35,148.01L372.51,142.94L373.66,146.28L374.81,143.52L375.97,138.72L377.12,132.94L378.27,132.28L380.58,119.44L381.73,111.5L382.89,112.25L384.04,108.78L386.35,101.15L387.5,93.44L389.81,87.53L390.96,86.69L392.11,84.83L393.27,86.01L395.57,92.46L396.73,78.61L397.88,75.61L399.03,75.3L400.19,75.31L401.34,58.53L404.8,42.39L405.95,54.48L407.11,57.16L408.26,57.21L409.41,56.37L410.57,76.11L412.87,84.59L414.03,85.74L415.18,95.57L416.33,98.48L418.64,99.64L419.79,95.17L423.25,88.91L424.4,88.45L427.86,86.83L429.02,87.9L432.48,88.11L433.63,90.86L437.09,94.45L438.24,100.77L441.7,113.94L442.86,124.69L444.01,127.38L445.16,133.63L446.32,140.87L447.47,141L449.78,153.77L450.93,161.74L452.08,165.39L453.24,171.76L455.54,185.82L456.7,180.22L457.85,180.65L459,182.17L460.16,183.46L461.31,193.7L463.62,201.79L464.77,204.77L467.08,214.34L468.23,216.52L469.38,218.47L470.54,207.1L472.84,198.97L474,195.95L478.61,183.7L479.76,173.62L483.22,154.47L484.38,156.09L486.68,142.35L487.83,132.8L490.14,121.29L491.29,113.99L492.45,106.78L493.6,108.98L497.06,99.82L498.21,92.62L500.52,87.45L501.67,86.91L502.83,85.3L503.98,86.72L506.29,93.59L507.44,79.93L508.59,77.11L509.75,76.98L510.9,77.15L512.05,60.53L515.51,44.84L516.67,57.07L517.82,59.89L518.97,60.07L520.13,59.37L521.28,79.24L523.59,87.97L524.74,89.24L525.89,99.2L527.05,102.22L529.35,103.61L530.51,99.25L533.97,93.3L535.12,92.94L538.58,91.6L539.73,92.76L543.19,93.21L544.35,96.04L546.65,97.47L547.81,97.8L550.11,105.82L551.26,107.88L552.42,110.07L553.57,109.69L555.88,113.12L557.03,115.59L558.18,110.68L559.34,111.16L561.64,115.96L562.8,114.25L565.1,118.61L566.26,121.42L568.56,107.72L569.72,104.61L570.87,101.16L572.02,106.57L573.18,106.74L574.33,105.56L575.48,104.07L576.64,106.08L580.1,109L581.25,97.49L583.56,91.09L584.71,89.54L587.02,87.28L588.17,87.28L589.32,87.49L590.48,80.78L592.78,78.85L593.94,78.58L595.09,86.92L596.24,88.9L597.4,88.78L598.55,87.64L599.7,91.59L600.86,91.74L603.16,89.19L604.32,96.72L605.47,97.67L606.62,97.07L607.78,96.39L608.93,90.97L611.24,88.16L612.39,88.39L613.54,87.34L614.69,89.2L617,96.62L618.15,83.13L619.31,80.42L620.46,80.34L621.61,80.55L622.77,63.93L626.23,48.15L627.38,60.32L628.53,63.07L629.69,63.19L630.84,62.41L631.99,82.2L634.3,90.76L635.45,91.94L636.61,101.81L637.76,104.74L640.07,105.94L641.22,101.49L644.68,95.27L645.83,94.81L649.29,93.19L650.45,94.26L653.91,94.45L655.06,97.19L658.52,100.35L659.67,106.47L663.13,119.82L664.29,134.26L666.59,142.03L667.75,147.94L668.9,147.16L670.05,151.87L673.51,168.85L674.67,174.41L676.97,186.61L678.13,179.99L679.28,180.14L680.43,181.7L681.58,183.22L682.74,193.88L687.35,212.32L688.5,215.64L690.81,220.09L691.96,208.88L694.27,201.74L695.42,199.35L698.88,192.45L700.04,190.48L702.34,175.17L703.5,169.12L704.65,162.45L705.8,163.77L708.11,152.58L709.26,144.92L710.42,142.38L711.57,135.19L713.88,117L715.03,116.36L718.49,104.44L719.64,96.97L721.95,91.34L723.1,90.67L724.26,88.97L725.41,90.3L727.72,97.01L728.87,83.28L730.02,80.4L731.18,80.19L732.33,80.31L733.48,63.63L736.94,47.79L738.1,59.97L739.25,62.74L740.4,62.88L741.56,62.14L742.71,81.97L745.01,90.61L746.17,91.85L747.32,101.77L748.47,104.76L750.78,106.08L751.93,101.69L755.39,95.66L756.55,95.26L760.01,93.85L761.16,94.99L764.62,95.39L765.77,98.21L769.23,102.08L770.39,108.52L775,123.71" style="vector-effect: non-scaling-stroke; fill: none; stroke: rgb(255, 127, 14); stroke-opacity: 0.7; stroke-width: 3px; opacity: 1;"/></g><g class="points"/><g class="text"/></g></g></g><g class="overplot"/><path class="xlines-above crisp" d="M0,0" style="fill: none;"/><path class="ylines-above crisp" d="M74,50V310" style="fill: none; stroke-width: 2px; stroke: rgb(0, 0, 0); stroke-opacity: 1;"/><g class="overlines-above"/><g class="xaxislayer-above"><g class="xtick"><text text-anchor="middle" x="0" y="330" transform="translate(158.04000000000002,0)" style="font-family: 'Open Sans', verdana, arial, sans-serif; font-size: 19px; fill: rgb(42, 63, 95); fill-opacity: 1; white-space: pre; opacity: 1;"><tspan class="line" dy="0em" x="0" y="330">May 31</tspan><tspan class="line" dy="1.3em" x="0" y="330">2019</tspan></text></g><g class="xtick"><text text-anchor="middle" x="0" y="330" style="font-family: 'Open Sans', verdana, arial, sans-serif; font-size: 19px; fill: rgb(42, 63, 95); fill-opacity: 1; white-space: pre; opacity: 1;" transform="translate(268.75,0)">Jun 1</text></g><g class="xtick"><text text-anchor="middle" x="0" y="330" style="font-family: 'Open Sans', verdana, arial, sans-serif; font-size: 19px; fill: rgb(42, 63, 95); fill-opacity: 1; white-space: pre; opacity: 1;" transform="translate(379.46,0)">Jun 2</text></g><g class="xtick"><text text-anchor="middle" x="0" y="330" style="font-family: 'Open Sans', verdana, arial, sans-serif; font-size: 19px; fill: rgb(42, 63, 95); fill-opacity: 1; white-space: pre; opacity: 1;" transform="translate(490.18,0)">Jun 3</text></g><g class="xtick"><text text-anchor="middle" x="0" y="330" style="font-family: 'Open Sans', verdana, arial, sans-serif; font-size: 19px; fill: rgb(42, 63, 95); fill-opacity: 1; white-space: pre; opacity: 1;" transform="translate(600.89,0)">Jun 4</text></g><g class="xtick"><text text-anchor="middle" x="0" y="330" style="font-family: 'Open Sans', verdana, arial, sans-serif; font-size: 19px; fill: rgb(42, 63, 95); fill-opacity: 1; white-space: pre; opacity: 1;" transform="translate(711.61,0)">Jun 5</text></g><g class="xtick"><text text-anchor="middle" x="0" y="330" style="font-family: 'Open Sans', verdana, arial, sans-serif; font-size: 19px; fill: rgb(42, 63, 95); fill-opacity: 1; white-space: pre; opacity: 1;" transform="translate(822.32,0)">Jun 6</text></g></g><g class="yaxislayer-above"><g class="ytick"><text text-anchor="end" x="69.2" y="6.6499999999999995" transform="translate(0,275.37)" style="font-family: 'Open Sans', verdana, arial, sans-serif; font-size: 19px; fill: rgb(42, 63, 95); fill-opacity: 1; white-space: pre; opacity: 1;">−2</text></g><g class="ytick"><text text-anchor="end" x="69.2" y="6.6499999999999995" style="font-family: 'Open Sans', verdana, arial, sans-serif; font-size: 19px; fill: rgb(42, 63, 95); fill-opacity: 1; white-space: pre; opacity: 1;" transform="translate(0,225.03)">−1</text></g><g class="ytick"><text text-anchor="end" x="69.2" y="6.6499999999999995" style="font-family: 'Open Sans', verdana, arial, sans-serif; font-size: 19px; fill: rgb(42, 63, 95); fill-opacity: 1; white-space: pre; opacity: 1;" transform="translate(0,174.68)">0</text></g><g class="ytick"><text text-anchor="end" x="69.2" y="6.6499999999999995" style="font-family: 'Open Sans', verdana, arial, sans-serif; font-size: 19px; fill: rgb(42, 63, 95); fill-opacity: 1; white-space: pre; opacity: 1;" transform="translate(0,124.33)">1</text></g><g class="ytick"><text text-anchor="end" x="69.2" y="6.6499999999999995" style="font-family: 'Open Sans', verdana, arial, sans-serif; font-size: 19px; fill: rgb(42, 63, 95); fill-opacity: 1; white-space: pre; opacity: 1;" transform="translate(0,73.99)">2</text></g></g><g class="overaxes-above"/></g></g><g class="polarlayer"/><g class="ternarylayer"/><g class="geolayer"/><g class="funnelarealayer"/><g class="pielayer"/><g class="iciclelayer"/><g class="treemaplayer"/><g class="sunburstlayer"/><g class="glimages"/><defs id="topdefs-a62c74"><g class="clips"/></defs><g class="layer-above"><g class="imagelayer"/><g class="shapelayer"/></g><g class="infolayer"><g class="g-gtitle"/><g class="g-xtitle"/><g class="g-ytitle" transform="translate(12.537109375,0)"><text class="ytitle" transform="rotate(-90,10.462500000000006,180)" x="10.462500000000006" y="180" text-anchor="middle" style="font-family: 'Open Sans', verdana, arial, sans-serif; font-size: 23px; fill: rgb(42, 63, 95); opacity: 1; font-weight: normal; white-space: pre;">Netload [kW]</text></g></g></svg>