<svg class="main-svg" xmlns="http://www.w3.org/2000/svg" xmlns:xlink="http://www.w3.org/1999/xlink" width="900" height="400" viewBox="0 0 900 400"><rect x="0" y="0" width="900" height="400" style="fill: rgb(255, 255, 255); fill-opacity: 1;"/><defs id="defs-fbf8df"><g class="clips"><clipPath id="clipfbf8dfxyplot" class="plotclip"><rect width="775" height="260"/></clipPath><clipPath class="axesclip" id="clipfbf8dfx"><rect x="75" y="0" width="775" height="400"/></clipPath><clipPath class="axesclip" id="clipfbf8dfy"><rect x="0" y="50" width="900" height="260"/></clipPath><clipPath class="axesclip" id="clipfbf8dfxy"><rect x="75" y="50" width="775" height="260"/></clipPath></g><g class="gradients"/><g class="patterns"/></defs><g class="bglayer"/><g class="layer-below"><g class="imagelayer"/><g class="shapelayer"/></g><g class="cartesianlayer"><g class="subplot xy"><g class="layer-subplot"><g class="shapelayer"/><g class="imagelayer"/></g><g class="gridlayer"><g class="x"><path class="xgrid crisp" transform="translate(158.04000000000002,0)" d="M0,50v260" style="stroke: rgb(235, 240, 248); stroke-opacity: 1; stroke-width: 1px;"/><path class="xgrid crisp" transform="translate(268.75,0)" d="M0,50v260" style="stroke: rgb(235, 240, 248); stroke-opacity: 1; stroke-width: 1px;"/><path class="xgrid crisp" transform="translate(379.46,0)" d="M0,50v260" style="stroke: rgb(235, 240, 248); stroke-opacity: 1; stroke-width: 1px;"/><path class="xgrid crisp" transform="translate(490.18,0)" d="M0,50v260" style="stroke: rgb(235, 240, 248); stroke-opacity: 1; stroke-width: 1px;"/><path class="xgrid crisp" transform="translate(600.89,0)" d="M0,50v260" style="stroke: rgb(235, 240, 248); stroke-opacity: 1; stroke-width: 1px;"/><path class="xgrid crisp" transform="translate(711.61,0)" d="M0,50v260" style="stroke: rgb(235, 240, 248); stroke-opacity: 1; stroke-width: 1px;"/><path class="xgrid crisp" transform="translate(822.32,0)" d="M0,50v260" style="stroke: rgb(235, 240, 248); stroke-opacity: 1; stroke-width: 1px;"/></g><g class="y"><path class="ygrid crisp" transform="translate(0,277.95)" d="M75,0h775" style="stroke: rgb(235, 240, 248); stroke-opacity: 1; stroke-width: 1px;"/><path class="ygrid crisp" transform="translate(0,226.91)" d="M75,0h775" style="stroke: rgb(235, 240, 248); stroke-opacity: 1; stroke-width: 1px;"/><path class="ygrid crisp" transform="translate(0,124.84)" d="M75,0h775" style="stroke: rgb(235, 240, 248); stroke-opacity: 1; stroke-width: 1px;"/><path class="ygrid crisp" transform="translate(0,73.8)" d="M75,0h775" style="stroke: rgb(235, 240, 248); stroke-opacity: 1; stroke-width: 1px;"/></g></g><g class="zerolinelayer"><path class="yzl zl crisp" transform="translate(0,175.88)" d="M75,0h775" style="stroke: rgb(0, 0, 0); stroke-opacity: 1; stroke-width: 2px;"/></g><path class="xlines-below"/><path class="ylines-below"/><g class="overlines-below"/><g class="xaxislayer-below"/><g class="yaxislayer-below"/><g class="overaxes-below"/><g class="plot" transform="translate(75,50)" clip-path="url(#clipfbf8dfxyplot)"><g class="scatterlayer mlayer"><g class="trace scatter trace42727d" style="stroke-miterlimit: 2; opacity: 1;"><g class="fills"/><g class="errorbars"/><g class="lines"><path class="js-line" d="M0,143.73L2.31,161L3.46,163.95L6.92,191.45L8.07,197.11L10.38,212.63L11.53,208.77L12.69,218.32L13.84,209.22L14.99,192.79L16.15,228.75L18.45,237.86L19.61,238.53L21.91,228.71L23.07,196.21L24.22,242.26L25.37,247L26.53,242.72L27.68,229.72L28.83,227.92L29.99,240.21L32.29,225.35L33.44,229.08L34.6,188.68L35.75,206.73L36.9,208.2L38.06,193.05L40.36,174.79L41.52,164.52L42.67,150.54L43.82,153.73L48.44,99.59L49.59,109.03L50.74,104.01L51.9,102.99L54.2,115.66L55.36,103.49L56.51,91.49L57.66,101.45L58.82,112.15L59.97,102.58L61.12,103.62L62.28,91.91L63.43,65.06L64.58,82.72L66.89,92.32L68.04,117.63L69.2,117.1L70.35,121.42L71.5,114.77L72.66,94.83L73.81,108.82L74.96,75.24L77.27,114.69L78.42,117.51L79.58,114.14L80.73,108.18L81.88,114.79L83.04,110.85L84.19,108.26L85.34,112.89L86.5,107.94L87.65,114.39L88.8,123.41L89.96,123.79L91.11,124L92.26,120.98L93.42,110.93L94.57,111.84L95.72,117.73L96.88,110.18L98.03,109.94L99.18,113.12L102.64,124.56L103.79,118.31L104.95,118.86L106.1,114.48L107.25,114.71L108.41,118.83L109.56,128.46L110.71,126.62L113.02,149.56L114.17,151.42L115.33,164.68L116.48,164.01L117.63,178.14L118.79,182.58L121.09,201.02L122.25,209.64L123.4,195.03L124.55,206.98L125.71,208.95L126.86,215.23L128.01,222.28L129.17,236.4L133.78,174.93L134.93,184.61L136.09,185.98L137.24,236.24L138.39,232.43L139.55,232.31L141.85,197.8L143.01,196.42L144.16,208.52L145.31,207.33L147.62,199.29L148.77,182.01L149.93,177.29L151.08,186.89L152.23,188.58L153.39,181.23L154.54,160.61L155.69,153.63L156.85,132.36L158,129.11L159.15,125.22L160.31,94.77L161.46,97.19L162.61,108.41L163.76,111.35L164.92,128.32L167.22,88.88L168.38,95.93L169.53,98.88L170.68,112.12L172.99,93.58L174.14,88.98L175.3,88.57L176.45,107.88L177.6,74.24L178.76,96.55L179.91,116.91L181.06,110.57L183.37,88.49L184.52,110.5L186.83,87.76L187.98,95.93L189.14,107.03L190.29,82.97L192.6,117.59L193.75,101.22L194.9,104.28L196.06,104.08L197.21,114.54L198.36,117.86L199.52,113.52L200.67,101.99L201.82,115.45L202.98,119.72L204.13,117.9L205.28,121.28L206.44,115.63L207.59,117.37L209.9,121.66L211.05,117.45L212.2,115.49L213.36,124.89L215.66,116.39L216.82,126.78L217.97,130.98L219.12,121.97L222.58,149.2L223.74,158.13L224.89,159.25L226.04,173.26L227.19,176.22L228.35,176.63L229.5,190.26L230.65,188.73L232.96,208.68L234.11,206.91L235.27,211.34L236.42,190.77L238.73,199.61L239.88,223.31L241.03,229.12L242.19,214.69L243.34,232.51L244.49,193.06L245.65,191.75L246.8,196.72L247.95,168.61L249.11,85.13L251.41,192.82L252.57,194.37L253.72,206.21L254.87,184.69L256.03,178.97L257.18,189.15L258.33,198.46L259.49,197.44L260.64,194.03L261.79,193.57L262.95,191.86L264.1,187.02L266.41,167.16L267.56,139.64L268.71,123L269.87,124.25L271.02,97.87L272.17,101.76L273.33,127.97L274.48,71.12L275.63,94.51L276.79,98.8L277.94,104.75L279.09,102.83L281.4,120.54L282.55,113.92L283.71,122.13L284.86,101.32L286.01,50.83L287.17,38.69L288.32,13L289.47,58.35L290.63,92.73L291.78,46.88L292.93,23.26L294.08,55.09L295.24,81.77L296.39,87.7L297.54,73.74L298.7,84.42L299.85,111.09L301,105.24L302.16,100.75L303.31,111.43L305.62,83.33L306.77,95.32L307.92,99.6L309.08,117.82L310.23,101.38L311.38,120.62L312.54,101.93L313.69,111.92L314.84,107L316,114.21L317.15,112.11L318.3,87.2L319.46,114.46L320.61,117.85L321.76,119.13L322.92,116.86L324.07,119.76L325.22,125.93L327.53,121.62L328.68,124.12L330.99,132.1L332.14,139.75L336.76,167.1L337.91,165.06L339.06,160.75L340.22,178.58L341.37,176.65L342.52,184.89L343.68,188.36L344.83,174.16L347.14,187.67L348.29,178.26L349.44,186.3L350.6,157.19L355.21,237.43L356.36,206.8L357.51,126.2L358.67,211.82L359.82,203.38L360.97,218.97L363.28,182.2L364.43,185.03L365.59,159.28L366.74,160.89L367.89,159.53L369.05,152.62L370.2,89.6L371.35,164.03L372.51,168.87L373.66,148.85L374.81,163.73L375.97,136.18L377.12,145.94L378.27,129.15L379.43,143.48L380.58,144.21L381.73,138.36L382.89,123.84L384.04,113.45L385.19,110.69L386.35,119.66L387.5,121.29L388.65,124.84L389.81,121.66L390.96,108.55L392.11,109.55L393.27,107.8L394.42,109.64L395.57,107.44L396.73,86.47L397.88,94.61L399.03,80.78L400.19,115.41L401.34,112.19L402.49,91.47L403.65,104.54L404.8,83.84L405.95,110.61L407.11,87.06L408.26,111.95L409.41,101.4L410.57,109.91L411.72,120.26L412.87,111.47L414.03,110.79L415.18,119.53L416.33,92.89L417.49,112.71L418.64,118.59L419.79,119.46L420.94,107.96L422.1,108.63L423.25,110.58L424.4,116.67L425.56,116.16L426.71,104.3L427.86,118.25L429.02,111.93L430.17,118.46L431.32,120.15L432.48,123.91L433.63,123.84L435.94,128.15L437.09,127.41L438.24,128.39L439.4,128.18L441.7,140.76L442.86,144.05L444.01,149.07L445.16,144.05L448.62,173.96L449.78,179.37L450.93,183.55L452.08,199.44L453.24,196.01L454.39,213.81L455.54,207.6L456.7,213.48L457.85,212.12L459,180.16L461.31,207.2L462.46,198.98L463.62,208.42L464.77,225.43L465.92,231.12L467.08,217.02L468.23,190.78L469.38,225.51L470.54,217.41L471.69,220.96L472.84,223.19L474,228.43L475.15,199.89L476.3,209.56L477.46,213.58L478.61,213.69L482.07,153.58L483.22,170.39L484.38,163.03L485.53,135.45L487.83,73.47L488.99,66.26L490.14,104.11L491.29,38.65L492.45,98.19L493.6,103.17L494.75,108.67L495.91,122.63L498.21,91.57L499.37,98.27L500.52,107.6L501.67,70.53L502.83,53.45L503.98,52.39L505.13,76.49L506.29,59.93L507.44,64.61L508.59,84.64L509.75,59.03L510.9,76.02L512.05,79.12L513.21,103.08L514.36,113.96L515.51,106.41L516.67,116.62L517.82,77.79L518.97,87.5L520.13,116.85L522.43,120.06L523.59,107.55L524.74,98.56L525.89,112.45L528.2,123.02L529.35,123.81L530.51,120.24L531.66,124.09L532.81,124.88L533.97,123.34L536.27,121.57L537.43,118.23L538.58,124.37L539.73,120.25L540.89,119.94L542.04,101.41L543.19,102.42L544.35,112.72L545.5,110.96L546.65,107.39L547.81,112.31L548.96,113.71L550.11,106.98L551.26,119.39L552.42,108L553.57,108.86L554.72,105.98L555.88,110.29L558.18,114.33L559.34,112.98L560.49,95.4L561.64,116.98L565.1,128.08L566.26,123.11L567.41,123.76L568.56,120.89L569.72,118.58L570.87,141.39L572.02,120.85L573.18,118.67L574.33,104.05L575.48,112.23L576.64,106.26L577.79,81.1L578.94,92.85L580.1,17.3L582.4,109.01L583.56,75.69L584.71,129.95L585.86,114.07L587.02,115.06L588.17,101.33L589.32,125.04L590.48,130.08L591.63,129.22L592.78,131.95L593.94,137.57L595.09,134.79L596.24,111.24L597.4,121.78L598.55,110.9L599.7,108.46L600.86,125.17L602.01,99.86L604.32,115.15L605.47,85.42L606.62,110.66L607.78,104.02L608.93,113.67L610.08,99.18L612.39,63.63L613.54,80.21L614.69,90.41L615.85,66.69L617,43.09L618.15,86.9L619.31,108.75L620.46,114.61L621.61,120.98L622.77,65.28L623.92,90.48L625.07,92.36L626.23,72.37L627.38,112.46L629.69,64.84L630.84,65.89L631.99,96.87L633.15,97.65L634.3,84.55L635.45,82.16L636.61,109.27L637.76,91.45L638.91,114.81L640.07,116.92L641.22,111.37L642.37,112.2L643.53,111.22L644.68,115.43L645.83,116.06L646.99,123.02L648.14,114.53L649.29,120.18L650.45,119.52L651.6,123.53L652.75,123.92L653.91,122.28L655.06,117.69L656.21,120.75L657.37,116.28L658.52,122.72L659.67,111.11L660.83,114.97L661.98,116.69L663.13,122.61L664.29,115L665.44,74.63L666.59,111L667.75,110.81L670.05,156.64L671.21,155.18L673.51,188.76L674.67,186.14L675.82,185.96L676.97,191.06L678.13,205.26L679.28,193.21L680.43,211.76L681.58,214.71L682.74,197.73L683.89,215.24L685.04,212.62L686.2,165.97L687.35,201.03L688.5,176.68L689.66,184.94L690.81,212.64L691.96,220.61L693.12,134.8L695.42,208.37L696.58,187.45L697.73,181.29L698.88,159.93L700.04,170.55L701.19,158.73L702.34,154.2L703.5,157.47L704.65,182.66L705.8,174.25L706.96,165.08L708.11,147.03L709.26,130.78L710.42,146.94L712.72,136.3L713.88,111.09L715.03,121.93L716.18,119.3L717.34,129.29L718.49,84.83L719.64,91.12L720.8,15.17L723.1,84.11L724.26,94.78L725.41,97.28L726.56,24.74L727.72,101.27L728.87,80.07L730.02,93.81L731.18,74.83L732.33,102.6L733.48,65.19L734.64,79.1L735.79,69.2L736.94,80.07L738.1,56.3L740.4,107.17L741.56,116.39L742.71,116.4L743.86,110.73L746.17,123.19L747.32,123.95L748.47,122.39L749.63,113.17L750.78,116.78L751.93,109.59L753.09,117.9L754.24,102.96L756.55,112.27L757.7,114.62L758.85,101.9L760.01,106.23L762.31,114.63L763.47,109.66L764.62,122.73L765.77,119.77L766.93,122.29L768.08,113.44L769.23,110.13L770.39,119.01L771.54,121.68L772.69,102.43L773.85,125.21L775,131.34" style="vector-effect: non-scaling-stroke; fill: none; stroke: rgb(76, 120, 168); stroke-opacity: 1; stroke-width: 3px; opacity: 1;"/></g><g class="points"/><g class="text"/></g><g class="trace scatter traceb7444b" style="stroke-miterlimit: 2; opacity: 1;"><g class="fills"/><g class="errorbars"/><g class="lines"><path class="js-line" d="M0,138.75L3.46,155.62L4.61,164.43L11.53,201.57L12.69,205.19L17.3,212.89L18.45,211.51L20.76,213.32L21.91,215.31L23.07,214.33L24.22,214.93L26.53,216.79L27.68,213.67L31.14,207.31L32.29,199.12L35.75,178.94L36.9,180.97L39.21,167.14L40.36,157.38L42.67,145.23L43.82,138.22L48.44,109.18L49.59,106.73L50.74,100L51.9,98.65L53.05,99.07L54.2,101.18L55.36,94.01L56.51,92.76L57.66,92.09L58.82,92.41L61.12,95.57L62.28,95.45L63.43,94.64L64.58,92.13L66.89,84.34L68.04,78.98L69.2,82.01L70.35,79.43L72.66,70.81L73.81,89.24L76.12,97.06L77.27,97.34L78.42,98.18L79.58,97.49L81.88,96.46L83.04,100.06L86.5,106.28L87.65,106.04L89.96,108.68L91.11,110.47L92.26,106.27L93.42,105.82L94.57,106.17L95.72,107.52L98.03,111.29L99.18,113.85L100.33,117.03L101.49,114.39L103.79,118.25L104.95,121.59L106.1,119.91L107.25,122.76L111.87,139.5L113.02,145.33L122.25,197.62L123.4,201.31L128.01,209.34L129.17,208.06L131.47,210.43L132.63,212.78L133.78,212.2L134.93,212.96L137.24,214.89L138.39,211.71L141.85,206.12L143.01,198.33L146.47,179.37L147.62,181.81L149.93,172.99L151.08,166.73L152.23,165.7L153.39,160.85L155.69,149.7L156.85,139.28L161.46,111.05L162.61,107.55L163.76,106.14L164.92,106.6L166.07,97.95L167.22,95.75L169.53,94.14L170.68,95.81L171.84,96.46L172.99,96.03L174.14,94.99L175.3,92.29L177.6,84.2L178.76,78.73L179.91,81.67L181.06,79.03L183.37,70.32L184.52,88.71L186.83,96.49L187.98,96.75L189.14,97.57L190.29,96.87L191.44,96.72L192.6,95.81L194.9,101.15L196.06,103.47L197.21,105.58L198.36,105.32L200.67,107.93L201.82,109.7L202.98,105.48L204.13,105.01L205.28,105.33L206.44,106.66L208.74,110.37L209.9,112.9L211.05,116.05L212.2,113.38L214.51,117.04L215.66,120.25L216.82,118.42L217.97,121.18L222.58,138.34L223.74,144.62L232.96,194.55L234.11,197.96L235.27,199.84L236.42,200.26L238.73,199.93L239.88,196.01L241.03,195.68L242.19,196.7L243.34,199L244.49,198.7L247.95,202.91L249.11,200.32L252.57,195.63L253.72,188.07L257.18,170.07L258.33,172.88L260.64,164.95L261.79,159.15L262.95,158.6L264.1,154.1L266.41,143.5L267.56,133.31L272.17,106.19L273.33,102.92L274.48,101.7L275.63,102.34L276.79,93.84L277.94,91.59L280.25,89.63L281.4,91.03L282.55,91.51L283.71,90.94L284.86,89.78L286.01,87L288.32,78.76L289.47,73.23L290.63,76.12L291.78,73.41L294.08,64.56L295.24,82.89L297.54,90.55L298.7,90.76L299.85,91.52L301,90.77L302.16,90.57L303.31,89.61L305.62,94.86L306.77,97.14L307.92,99.21L309.08,98.92L311.38,101.45L312.54,103.19L313.69,98.94L314.84,98.44L316,98.74L317.15,100.04L319.46,103.71L320.61,106.23L321.76,109.36L322.92,106.68L325.22,110.48L326.38,113.8L327.53,112.09L328.68,114.87L333.3,131.03L334.45,136.62L339.06,161.15L340.22,164.65L341.37,171.88L342.52,174.29L343.68,175.21L344.83,174.81L348.29,169.28L349.44,168.04L350.6,163.61L351.75,165.97L356.36,188.36L357.51,190.9L358.67,192.78L359.82,189.65L362.13,180.83L363.28,174.93L365.59,154.93L366.74,147.5L367.89,140.74L369.05,143.37L371.35,139.02L372.51,135.98L373.66,138.52L374.81,136.54L377.12,130.56L378.27,122.59L384.04,99.07L385.19,98.1L386.35,98.67L387.5,89.9L389.81,86.17L390.96,85.84L393.27,88.03L394.42,87.66L395.57,86.69L396.73,84.07L399.03,76.1L400.19,70.69L401.34,73.69L402.49,71.1L404.8,62.48L405.95,80.93L408.26,88.83L409.41,89.16L410.57,90.04L411.72,89.41L414.03,88.49L415.18,92.15L418.64,98.55L419.79,98.37L423.25,102.99L424.4,98.86L425.56,98.47L426.71,98.88L430.17,104.18L431.32,106.81L432.48,110.05L433.63,107.48L435.94,111.56L437.09,115.04L438.24,113.5L439.4,116.38L441.7,124.79L442.86,137.26L445.16,143.94L446.32,149.03L449.78,168.19L450.93,173.23L453.24,188.07L454.39,192.42L456.7,197.74L457.85,199.2L460.16,202.15L461.31,200.24L463.62,201.06L464.77,202.56L465.92,201.1L467.08,201.33L469.38,202.59L470.54,199.22L474,192.31L475.15,183.97L478.61,163.57L479.76,165.56L482.07,157.96L483.22,152.79L484.38,153.06L485.53,147.79L487.83,133.83L488.99,121.33L491.29,110.93L492.45,108.97L493.6,103.02L494.75,101.52L495.91,101.4L497.06,102.61L498.21,94.26L499.37,92.09L501.67,90.13L502.83,91.56L503.98,92.2L505.13,91.85L506.29,90.92L507.44,88.35L509.75,80.48L510.9,75.11L512.05,78.14L513.21,75.55L515.51,66.93L516.67,85.38L518.97,93.26L520.13,93.59L521.28,94.46L522.43,93.82L523.59,93.73L524.74,92.88L527.05,98.34L528.2,100.72L529.35,102.89L530.51,102.7L532.81,105.44L533.97,107.27L535.12,103.12L536.27,102.71L537.43,103.1L538.58,104.5L540.89,108.35L542.04,110.95L543.19,114.17L544.35,111.58L546.65,114.28L547.81,116.75L548.96,114.08L550.11,114.92L552.42,118.07L553.57,117.67L555.88,118.83L557.03,119.12L559.34,122.09L560.49,122.19L561.64,121.76L562.8,125.34L565.1,126.29L566.26,125.86L568.56,121.12L569.72,117.99L570.87,114.69L572.02,107.89L576.64,90.49L577.79,88.71L578.94,88.22L580.1,88.99L581.25,86.11L582.4,85.31L584.71,83.93L585.86,77.73L589.32,66.4L590.48,71.94L593.94,77.34L595.09,84.84L597.4,89.74L598.55,91.03L599.7,87.63L600.86,88.05L603.16,93.55L604.32,92.48L606.62,96.33L607.78,99.18L608.93,92.08L610.08,90.95L611.24,90.29L612.39,90.5L614.69,93.6L615.85,93.71L617,93.16L618.15,90.91L620.46,83.48L621.61,78.27L622.77,81.43L623.92,78.96L626.23,70.51L627.38,89.02L629.69,97.02L630.84,97.39L631.99,98.32L633.15,97.72L635.45,96.85L636.61,100.54L640.07,106.99L641.22,106.83L644.68,111.48L645.83,107.35L646.99,106.97L648.14,107.39L651.6,112.72L652.75,115.35L653.91,118.59L655.06,116.02L657.37,119.87L658.52,123.17L659.67,121.42L660.83,124.31L663.13,133.02L664.29,129.55L673.51,185.81L674.67,190.68L676.97,197.37L678.13,198.52L681.58,204.02L682.74,202.93L685.04,204.73L686.2,206.6L687.35,205.45L688.5,205.9L690.81,207.5L691.96,204.28L695.42,199.3L696.58,191.81L700.04,174.46L701.19,177.54L703.5,170.21L704.65,164.74L705.8,164.54L706.96,160.34L709.26,150.31L710.42,140.39L715.03,113.79L716.18,110.61L717.34,109.48L718.49,110.2L719.64,101.79L720.8,99.68L723.1,98.08L724.26,99.69L725.41,100.32L726.56,99.89L727.72,98.85L728.87,96.16L731.18,88.1L732.33,82.66L733.48,85.62L734.64,83L736.94,74.3L738.1,92.71L740.4,100.5L741.56,100.78L742.71,101.6L743.86,100.91L745.01,100.77L746.17,99.87L748.47,105.23L749.63,107.56L750.78,109.68L751.93,109.43L754.24,112.06L755.39,113.83L756.55,109.62L757.7,109.16L758.85,109.5L760.01,110.83L762.31,114.56L763.47,117.1L764.62,120.26L765.77,117.6L768.08,121.6L769.23,125.05L770.39,123.48L771.54,126.21L775,136.47" style="vector-effect: non-scaling-stroke; fill: none; stroke: rgb(255, 127, 14); stroke-opacity: 0.7; stroke-width: 3px; opacity: 1;"/></g><g class="points"/><g class="text"/></g></g></g><g class="overplot"/><path class="xlines-above crisp" d="M0,0" style="fill: none;"/><path class="ylines-above crisp" d="M74,50V310" style="fill: none; stroke-width: 2px; stroke: rgb(0, 0, 0); stroke-opacity: 1;"/><g class="overlines-above"/><g class="xaxislayer-above"><g class="xtick"><text text-anchor="middle" x="0" y="330" transform="translate(158.04000000000002,0)" style="font-family: 'Open Sans', verdana, arial, sans-serif; font-size: 19px; fill: rgb(42, 63, 95); fill-opacity: 1; white-space: pre; opacity: 1;"><tspan class="line" dy="0em" x="0" y="330">May 31</tspan><tspan class="line" dy="1.3em" x="0" y="330">2019</tspan></text></g><g class="xtick"><text text-anchor="middle" x="0" y="330" style="font-family: 'Open Sans', verdana, arial, sans-serif; font-size: 19px; fill: rgb(42, 63, 95); fill-opacity: 1; white-space: pre; opacity: 1;" transform="translate(268.75,0)">Jun 1</text></g><g class="xtick"><text text-anchor="middle" x="0" y="330" style="font-family: 'Open Sans', verdana, arial, sans-serif; font-size: 19px; fill: rgb(42, 63, 95); fill-opacity: 1; white-space: pre; opacity: 1;" transform="translate(379.46,0)">Jun 2</text></g><g class="xtick"><text text-anchor="middle" x="0" y="330" style="font-family: 'Open Sans', verdana, arial, sans-serif; font-size: 19px; fill: rgb(42, 63, 95); fill-opacity: 1; white-space: pre; opacity: 1;" transform="translate(490.18,0)">Jun 3</text></g><g class="xtick"><text text-anchor="middle" x="0" y="330" style="font-family: 'Open Sans', verdana, arial, sans-serif; font-size: 19px; fill: rgb(42, 63, 95); fill-opacity: 1; white-space: pre; opacity: 1;" transform="translate(600.89,0)">Jun 4</text></g><g class="xtick"><text text-anchor="middle" x="0" y="330" style="font-family: 'Open Sans', verdana, arial, sans-serif; font-size: 19px; fill: rgb(42, 63, 95); fill-opacity: 1; white-space: pre; opacity: 1;" transform="translate(711.61,0)">Jun 5</text></g><g class="xtick"><text text-anchor="middle" x="0" y="330" style="font-family: 'Open Sans', verdana, arial, sans-serif; font-size: 19px; fill: rgb(42, 63, 95); fill-opacity: 1; white-space: pre; opacity: 1;" transform="translate(822.32,0)">Jun 6</text></g></g><g class="yaxislayer-above"><g class="ytick"><text text-anchor="end" x="69.2" y="6.6499999999999995" transform="translate(0,277.95)" style="font-family: 'Open Sans', verdana, arial, sans-serif; font-size: 19px; fill: rgb(42, 63, 95); fill-opacity: 1; white-space: pre; opacity: 1;">−2</text></g><g class="ytick"><text text-anchor="end" x="69.2" y="6.6499999999999995" style="font-family: 'Open Sans', verdana, arial, sans-serif; font-size: 19px; fill: rgb(42, 63, 95); fill-opacity: 1; white-space: pre; opacity: 1;" transform="translate(0,226.91)">−1</text></g><g class="ytick"><text text-anchor="end" x="69.2" y="6.6499999999999995" style="font-family: 'Open Sans', verdana, arial, sans-serif; font-size: 19px; fill: rgb(42, 63, 95); fill-opacity: 1; white-space: pre; opacity: 1;" transform="translate(0,175.88)">0</text></g><g class="ytick"><text text-anchor="end" x="69.2" y="6.6499999999999995" style="font-family: 'Open Sans', verdana, arial, sans-serif; font-size: 19px; fill: rgb(42, 63, 95); fill-opacity: 1; white-space: pre; opacity: 1;" transform="translate(0,124.84)">1</text></g><g class="ytick"><text text-anchor="end" x="69.2" y="6.6499999999999995" style="font-family: 'Open Sans', verdana, arial, sans-serif; font-size: 19px; fill: rgb(42, 63, 95); fill-opacity: 1; white-space: pre; opacity: 1;" transform="translate(0,73.8)">2</text></g></g><g class="overaxes-above"/></g></g><g class="polarlayer"/><g class="ternarylayer"/><g class="geolayer"/><g class="funnelarealayer"/><g class="pielayer"/><g class="iciclelayer"/><g class="treemaplayer"/><g class="sunburstlayer"/><g class="glimages"/><defs id="topdefs-fbf8df"><g class="clips"/></defs><g class="layer-above"><g class="imagelayer"/><g class="shapelayer"/></g><g class="infolayer"><g class="g-gtitle"/><g class="g-xtitle"/><g class="g-ytitle" transform="translate(12.537109375,0)"><text class="ytitle" transform="rotate(-90,10.462500000000006,180)" x="10.462500000000006" y="180" text-anchor="middle" style="font-family: 'Open Sans', verdana, arial, sans-serif; font-size: 23px; fill: rgb(42, 63, 95); opacity: 1; font-weight: normal; white-space: pre;">Netload [kW]</text></g></g></svg>