<svg class="main-svg" xmlns="http://www.w3.org/2000/svg" xmlns:xlink="http://www.w3.org/1999/xlink" width="900" height="400" viewBox="0 0 900 400"><rect x="0" y="0" width="900" height="400" style="fill: rgb(255, 255, 255); fill-opacity: 1;"/><defs id="defs-6cd424"><g class="clips"><clipPath id="clip6cd424xyplot" class="plotclip"><rect width="779" height="260"/></clipPath><clipPath class="axesclip" id="clip6cd424x"><rect x="71" y="0" width="779" height="400"/></clipPath><clipPath class="axesclip" id="clip6cd424y"><rect x="0" y="50" width="900" height="260"/></clipPath><clipPath class="axesclip" id="clip6cd424xy"><rect x="71" y="50" width="779" height="260"/></clipPath></g><g class="gradients"/><g class="patterns"/></defs><g class="bglayer"/><g class="layer-below"><g class="imagelayer"/><g class="shapelayer"/></g><g class="cartesianlayer"><g class="subplot xy"><g class="layer-subplot"><g class="shapelayer"/><g class="imagelayer"/></g><g class="gridlayer"><g class="x"><path class="xgrid crisp" transform="translate(154.45999999999998,0)" d="M0,50v260" style="stroke: rgb(235, 240, 248); stroke-opacity: 1; stroke-width: 1px;"/><path class="xgrid crisp" transform="translate(265.75,0)" d="M0,50v260" style="stroke: rgb(235, 240, 248); stroke-opacity: 1; stroke-width: 1px;"/><path class="xgrid crisp" transform="translate(377.04,0)" d="M0,50v260" style="stroke: rgb(235, 240, 248); stroke-opacity: 1; stroke-width: 1px;"/><path class="xgrid crisp" transform="translate(488.32,0)" d="M0,50v260" style="stroke: rgb(235, 240, 248); stroke-opacity: 1; stroke-width: 1px;"/><path class="xgrid crisp" transform="translate(599.61,0)" d="M0,50v260" style="stroke: rgb(235, 240, 248); stroke-opacity: 1; stroke-width: 1px;"/><path class="xgrid crisp" transform="translate(710.89,0)" d="M0,50v260" style="stroke: rgb(235, 240, 248); stroke-opacity: 1; stroke-width: 1px;"/><path class="xgrid crisp" transform="translate(822.18,0)" d="M0,50v260" style="stroke: rgb(235, 240, 248); stroke-opacity: 1; stroke-width: 1px;"/></g><g class="y"><path class="ygrid crisp" transform="translate(0,227.63)" d="M71,0h779" style="stroke: rgb(235, 240, 248); stroke-opacity: 1; stroke-width: 1px;"/><path class="ygrid crisp" transform="translate(0,180.06)" d="M71,0h779" style="stroke: rgb(235, 240, 248); stroke-opacity: 1; stroke-width: 1px;"/><path class="ygrid crisp" transform="translate(0,132.49)" d="M71,0h779" style="stroke: rgb(235, 240, 248); stroke-opacity: 1; stroke-width: 1px;"/><path class="ygrid crisp" transform="translate(0,84.93)" d="M71,0h779" style="stroke: rgb(235, 240, 248); stroke-opacity: 1; stroke-width: 1px;"/></g></g><g class="zerolinelayer"><path class="yzl zl crisp" transform="translate(0,275.19)" d="M71,0h779" style="stroke: rgb(0, 0, 0); stroke-opacity: 1; stroke-width: 2px;"/></g><path class="xlines-below"/><path class="ylines-below"/><g class="overlines-below"/><g class="xaxislayer-below"/><g class="yaxislayer-below"/><g class="overaxes-below"/><g class="plot" transform="translate(71,50)" clip-path="url(#clip6cd424xyplot)"><g class="scatterlayer mlayer"><g class="trace scatter tracef04082" style="stroke-miterlimit: 2; opacity: 1;"><g class="fills"/><g class="errorbars"/><g class="lines"><path class="js-line" d="M0,226.63L1.16,225.44L2.32,231.13L3.48,231.86L4.64,226.78L6.96,237.14L8.11,236.74L10.43,241.16L11.59,241.46L12.75,240.31L13.91,243L17.39,241.34L18.55,240.73L19.71,243.68L20.87,243.07L22.03,241.2L23.18,242.57L24.34,247L25.5,238.29L26.66,238.7L27.82,193.96L28.98,222.36L30.14,206.65L31.3,214.43L32.46,210.94L33.62,218L34.78,146.42L35.94,215.18L37.1,237.22L39.41,229.77L40.57,232.95L41.73,233.75L42.89,231.99L44.05,230.77L45.21,228.37L46.37,228.34L47.53,226.13L48.69,226.01L49.85,224.81L53.32,224.58L54.48,223.97L55.64,209.76L56.8,213.68L57.96,215.05L59.12,209.68L60.28,213.76L61.44,213.26L62.6,218.68L63.76,210.62L64.92,220.12L66.08,222.01L67.24,221.85L68.39,215.23L69.55,216.42L70.71,223.49L73.03,217.76L74.19,216.5L75.35,217.07L76.51,207.52L77.67,219.69L78.83,221.92L79.99,222.45L81.15,218.35L82.31,217.98L83.46,219.61L84.62,223.31L85.78,223.3L86.94,222.68L88.1,216.53L89.26,216.43L90.42,219.01L91.58,217.91L92.74,164.55L93.9,161.81L95.06,156.61L96.22,159.74L97.38,136.63L98.53,123.94L99.69,183.66L100.85,193.94L102.01,219.32L103.17,203.05L104.33,209.69L106.65,224.06L107.81,222.61L108.97,225.7L110.13,225.62L111.29,222.35L112.44,223.85L114.76,228.98L115.92,227.42L117.08,234.06L118.24,234.56L119.4,234.76L120.56,234.17L121.72,232.81L122.88,211.88L124.04,236.57L125.2,241.63L126.36,241.44L127.51,237.23L128.67,239.62L129.83,237.38L130.99,230.58L132.15,228.55L133.31,240.85L134.47,242.25L135.63,245.05L136.79,244.65L137.95,243.86L139.11,238.34L140.27,230.39L141.43,188.62L144.9,228.76L146.06,211.06L148.38,230.66L149.54,230.38L151.86,236.55L153.02,233.69L154.18,230.81L155.34,224.28L157.65,229.17L158.81,226.52L159.97,225.27L161.13,226.1L163.45,218.13L164.61,169.27L165.77,170.46L166.93,205.3L168.09,200.89L169.25,200.87L170.41,184.31L171.57,222.74L172.72,222.25L173.88,217.16L175.04,212.31L176.2,222.38L177.36,214.47L178.52,222.32L179.68,221.08L180.84,222.52L182,222.33L183.16,218.7L184.32,222.41L185.48,221.92L186.64,223.24L187.79,222.49L190.11,224.04L191.27,223.36L192.43,217.44L193.59,221L194.75,224.46L195.91,224.01L198.23,222.63L199.39,218.85L201.71,223.75L202.86,222.46L204.02,211.4L205.18,216.64L207.5,164.05L208.66,210.85L209.82,214.22L210.98,209.08L212.14,208.12L213.3,218.05L214.46,219.14L215.62,217.24L217.93,224.36L219.09,225.17L220.25,226.25L221.41,222.36L223.73,227.95L224.89,225.53L227.21,233.56L228.37,233.61L229.53,233.88L230.69,236.22L231.85,235.95L233,234.89L234.16,231.86L235.32,238.02L236.48,235.07L237.64,241.27L239.96,233.99L241.12,242.69L243.44,243.67L244.6,245.12L245.76,245.62L246.92,238.18L248.07,243.86L249.23,242.35L251.55,198.58L252.71,233.13L253.87,238.1L255.03,239.57L256.19,238.75L257.35,228.08L259.67,241.38L260.83,238.69L261.99,239.38L263.14,238.36L264.3,237.78L265.46,235.5L267.78,231.67L268.94,227.76L270.1,209.31L271.26,222.11L272.42,224.94L273.58,216.43L274.74,205.76L275.9,224.55L277.06,220.85L278.21,145.1L280.53,212.87L281.69,211.58L282.85,211.68L284.01,215.05L285.17,221.95L286.33,222.47L288.65,223.42L289.81,222.14L290.97,219.91L292.13,222.98L293.28,224.17L294.44,215.2L295.6,223.6L296.76,224.43L300.24,224.25L301.4,223.93L303.72,211.79L304.88,221.09L306.04,223.11L307.19,221.55L308.35,221.37L309.51,223.62L310.67,222.07L311.83,222.47L314.15,224.45L315.31,217.48L317.63,211.01L318.79,218.09L321.11,218.22L322.26,205.79L323.42,208.39L324.58,221.99L325.74,223.61L326.9,220.84L328.06,216.4L329.22,221.6L330.38,224.7L331.54,223.7L332.7,222.34L333.86,222.51L335.02,224.4L336.18,229.92L338.49,233.4L339.65,232.81L341.97,234.92L343.13,234.72L346.61,237.92L347.77,233.78L348.93,236.69L350.09,235.27L351.25,234.57L352.4,221.73L353.56,217.97L354.72,235.39L357.04,242.83L358.2,241.28L359.36,240.63L360.52,242.64L361.68,235.23L362.84,234.61L364,215.21L365.16,219.49L367.47,230.47L368.63,234.83L369.79,230.54L370.95,234.88L372.11,236.5L373.27,236.37L374.43,232.23L375.59,233.12L376.75,233.26L377.91,231.85L379.07,231.22L380.23,227.5L382.54,227.24L383.7,216.71L384.86,214.3L386.02,223.84L387.18,225.31L388.34,222.13L389.5,219.11L390.66,224.91L391.82,223.34L392.98,219.95L394.14,219.74L395.3,222.49L396.46,223.02L397.61,220.56L399.93,222.4L401.09,223.74L403.41,215.19L404.57,213.18L405.73,221.52L406.89,222.58L410.37,222.35L411.53,219.53L412.68,214.52L413.84,222.32L415,221.87L416.16,215.87L418.48,223.9L419.64,224.06L421.96,221.71L423.12,223.83L424.28,221.59L425.44,222.3L426.6,194.72L427.75,129.68L428.91,133.36L430.07,149.87L431.23,163.62L432.39,205.74L433.55,203.73L434.71,216.24L435.87,221.9L437.03,220.67L438.19,215.8L439.35,196.05L440.51,222.34L441.67,225.87L443.98,225.32L445.14,226.43L446.3,229.31L447.46,219.37L448.62,222.6L449.78,232.17L450.94,232.97L452.1,234.78L453.26,237.41L454.42,234.76L455.58,234.14L456.74,237.07L459.05,242.71L460.21,243.5L462.53,240.07L463.69,240.57L466.01,243.34L467.17,242.09L468.33,238.14L469.49,193.76L470.65,234.18L471.81,238.79L474.12,179.33L475.28,154.48L476.44,210.7L477.6,211.39L478.76,226.81L479.92,229.95L481.08,237.36L482.24,236.76L483.4,230.99L484.56,233.87L485.72,229.44L486.88,230.95L489.19,233L490.35,222.14L491.51,227.35L492.67,227.71L493.83,225.06L494.99,212.75L498.47,225.74L499.63,221.18L500.79,221.53L501.94,220.82L503.1,220.2L504.26,222.68L505.42,222.85L506.58,221.57L507.74,222.56L508.9,220.32L510.06,217.85L511.22,202.8L512.38,219.11L513.54,215.96L514.7,195.71L515.86,198.67L518.17,221.85L519.33,221.28L520.49,200.91L521.65,222.08L522.81,221.84L523.97,222.77L526.29,223.14L527.45,224.6L528.61,223.23L529.77,210.71L530.93,220.56L532.08,222.1L533.24,219.18L534.4,205.53L536.72,223.34L537.88,198.98L539.04,13L540.2,121.97L541.36,208.43L542.52,220.32L544.84,186.61L546,185.16L547.15,210.4L548.31,197.39L549.47,219.33L550.63,205.65L551.79,222.8L552.95,223.95L556.43,224.59L557.59,223.78L558.75,225.3L559.91,225.56L561.07,224.82L562.22,225.19L563.38,224.07L564.54,226.63L565.7,225.57L566.86,220.27L568.02,218.3L569.18,225.38L570.34,226.28L571.5,215.47L572.66,224.34L573.82,210.96L574.98,209.53L576.14,217.8L577.29,218.47L578.45,216.51L579.61,218.29L580.77,215.93L581.93,220.57L583.09,214.16L584.25,150.48L585.41,203.28L586.57,210.71L587.73,208.78L588.89,224.97L590.05,222.43L591.21,219.03L592.36,223.65L593.52,225.54L594.68,225.33L598.16,227.88L599.32,227.11L600.48,226.5L601.64,226.99L603.96,226.67L605.12,225.34L606.28,226.88L607.43,224.71L609.75,225.94L610.91,224.97L614.39,221.87L615.55,218.9L616.71,221.54L617.87,222.21L619.03,221.19L620.19,218.54L621.35,222.08L622.5,221.61L623.66,221.9L624.82,223.14L625.98,212.65L627.14,222.68L629.46,222.34L630.62,223.94L632.94,222.72L634.1,222.92L635.26,224.21L636.42,224.35L637.57,224.29L638.73,223.45L639.89,224.48L641.05,223.87L642.21,224.69L643.37,223.76L644.53,222.46L645.69,223.86L646.85,223.37L648.01,205.17L649.17,153.57L650.33,177.57L651.49,141.21L652.64,193.36L653.8,197.37L654.96,87.01L656.12,186.45L657.28,185.59L658.44,219.95L659.6,216.71L660.76,206.9L661.92,219.73L663.08,225.01L664.24,226.09L667.71,228.64L668.87,228.5L671.19,232.04L672.35,233.54L674.67,235.79L675.83,237.25L678.15,240.09L679.31,240.79L685.1,244.54L686.26,242.61L688.58,244.99L689.74,244.61L690.9,245.98L692.06,241.36L694.38,245.34L695.54,241.61L696.69,240.7L697.85,231.74L699.01,228.98L700.17,239.12L701.33,230.81L702.49,241.77L703.65,240.88L704.81,241.78L708.29,236.08L709.45,234.93L710.61,229.05L711.76,232.49L714.08,227.09L715.24,227.79L716.4,223.99L717.56,224.07L718.72,215.69L719.88,224.58L721.04,221.49L722.2,212.73L723.36,212.32L724.52,223.17L725.68,216.41L726.83,218.5L727.99,209.71L729.15,217.22L730.31,221.42L731.47,221.51L732.63,220.6L733.79,223.32L734.95,224.27L736.11,220.79L737.27,200.98L738.43,217.68L739.59,220.14L740.75,213.39L741.9,221.92L743.06,223.68L744.22,224.42L745.38,222.98L746.54,224.32L747.7,223.39L748.86,224.43L750.02,224.34L753.5,224.9L754.66,224.42L756.97,224.33L758.13,224.83L759.29,222.53L760.45,213.18L761.61,217.07L762.77,212.31L765.09,190.06L766.25,204.09L767.41,216.24L768.57,209.76L769.73,222.38L770.89,223.91L772.04,222.76L773.2,225.41L774.36,225.14L775.52,225.68L777.84,228.02L779,228.27" style="vector-effect: non-scaling-stroke; fill: none; stroke: rgb(76, 120, 168); stroke-opacity: 1; stroke-width: 3px; opacity: 1;"/></g><g class="points"/><g class="text"/></g><g class="trace scatter tracef64d7e" style="stroke-miterlimit: 2; opacity: 1;"><g class="fills"/><g class="errorbars"/><g class="lines"><path class="js-line" d="M0,228.69L3.48,229.28L4.64,233.19L6.96,235.76L8.11,236.54L10.43,239.42L11.59,239.96L12.75,240.37L13.91,236.86L16.23,235.01L17.39,234.72L20.87,235.05L22.03,235.7L25.5,238.95L26.66,240.55L27.82,215.7L28.98,206.96L31.3,203.32L32.46,218.53L33.62,223.89L34.78,225.53L35.94,226.47L37.1,233.94L38.25,235.83L39.41,234.92L40.57,233.02L41.73,235.68L42.89,234.86L44.05,232.38L45.21,229.54L46.37,229.01L49.85,224.31L51.01,220.01L52.17,218.71L53.32,219.01L54.48,220.16L55.64,212.19L56.8,210.91L57.96,212.62L59.12,215.09L60.28,214.27L62.6,218.7L63.76,221.41L64.92,218.81L66.08,218.82L68.39,219.9L69.55,221.79L70.71,221.9L71.87,221.09L73.03,219.84L74.19,221.9L75.35,221.58L76.51,220.34L77.67,219.08L78.83,220.87L82.31,221.77L83.46,219.99L84.62,220.32L85.78,221.69L86.94,223.5L88.1,216.07L89.26,214.62L90.42,215.56L91.58,216.74L92.74,171.75L95.06,148.36L96.22,143.48L97.38,163.94L98.53,169.49L99.69,169.59L100.85,168.89L102.01,197.92L103.17,208.03L104.33,210.01L105.49,210.49L106.65,218.55L107.81,221.17L110.13,220.44L111.29,222.42L113.6,222.92L114.76,222.87L117.08,228.26L118.24,228.99L119.4,229.61L120.56,231.36L122.88,232.62L124.04,232.9L126.36,227.76L127.51,227.15L130.99,226.55L132.15,226.8L135.63,229.13L136.79,230.36L137.95,231.84L139.11,206.87L140.27,198.06L141.43,195.74L142.58,194.33L143.74,209.51L144.9,214.83L146.06,216.44L147.22,217.35L148.38,224.8L149.54,227.01L150.7,226.55L151.86,225.16L153.02,228.36L154.18,227.78L155.34,225.44L156.5,222.7L157.65,222.25L161.13,216.4L162.29,211.6L163.45,209.95L164.61,209.96L165.77,210.84L166.93,202.61L168.09,201.15L169.25,202.74L170.41,205.12L171.57,204.21L173.88,208.57L175.04,211.28L176.2,208.68L177.36,208.7L179.68,209.83L180.84,211.75L182,211.9L183.16,211.13L184.32,209.93L185.48,212.04L186.64,211.78L187.79,210.59L188.95,209.4L190.11,211.26L193.59,212.38L194.75,210.69L195.91,211.1L197.07,212.56L198.23,214.47L199.39,207.13L200.55,205.78L201.71,206.83L202.86,208.12L204.02,163.24L206.34,140.08L207.5,135.32L208.66,155.91L209.82,161.58L210.98,161.82L212.14,161.25L213.3,190.41L214.46,200.65L216.78,203.36L217.93,211.56L219.09,214.32L220.25,214.39L221.41,213.89L222.57,220.78L226.05,218.8L227.21,222.16L229.53,224.15L230.69,224.74L233,227.39L234.16,227.88L235.32,228.26L236.48,224.74L238.8,222.35L239.96,221.73L242.28,221.38L243.44,221.81L246.92,224.86L248.07,226.36L249.23,228.12L250.39,203.43L251.55,194.88L252.71,192.81L253.87,191.64L255.03,207.06L256.19,212.64L257.35,214.5L258.51,215.66L259.67,223.36L260.83,225.83L261.99,225.63L263.14,224.49L264.3,227.95L265.46,227.61L266.62,225.5L267.78,222.98L268.94,222.75L272.42,217.56L273.58,212.98L274.74,211.54L275.9,211.75L277.06,212.82L278.21,204.78L279.37,203.47L280.53,205.2L281.69,207.69L282.85,206.91L285.17,211.54L286.33,214.39L287.49,211.92L288.65,212.08L290.97,213.47L292.13,215.53L293.28,215.8L294.44,215.16L295.6,214.08L296.76,216.31L297.92,216.17L299.08,215.1L300.24,214.02L301.4,215.98L304.88,217.41L306.04,215.82L307.19,216.32L308.35,217.87L309.51,219.87L310.67,212.62L311.83,211.35L312.99,212.47L314.15,213.84L315.31,169.03L317.63,146L318.79,141.3L319.95,161.95L321.11,167.68L322.26,167.96L323.42,167.44L324.58,196.65L325.74,206.94L328.06,209.76L329.22,218.01L330.38,220.8L331.54,220.88L332.7,220.39L333.86,222.54L336.18,223.32L337.33,223.4L339.65,228.9L340.81,229.53L341.97,230.04L343.13,231.64L345.45,232.1L346.61,231.89L348.93,225.86L350.09,224.9L352.4,223.69L353.56,224.22L355.88,227.03L357.04,228.97L360.52,233.63L361.68,208.81L362.84,199.78L364,197.07L365.16,195.2L366.32,209.86L367.47,215.09L368.63,216.75L369.79,217.76L370.95,225.34L372.11,227.98L373.27,228.08L374.43,227.3L375.59,231.16L376.75,231.12L377.91,229.28L379.07,227.05L380.23,227.09L383.7,222.39L384.86,217.94L386.02,216.46L387.18,216.56L388.34,217.49L389.5,209.3L390.66,207.89L391.82,209.52L392.98,211.92L394.14,211.05L396.46,215.5L397.61,218.26L398.77,215.71L399.93,215.78L402.25,217L403.41,218.97L404.57,219.15L405.73,218.43L406.89,217.27L408.05,219.41L409.21,219.18L410.37,218.03L411.53,216.86L412.68,218.75L416.16,219.93L417.32,218.25L418.48,218.68L419.64,220.15L420.8,222.07L421.96,214.74L423.12,213.39L424.28,214.43L425.44,215.73L426.6,170.84L427.75,153.73L428.91,147.67L430.07,142.89L431.23,163.47L432.39,169.13L433.55,169.35L434.71,168.76L435.87,197.9L437.03,208.14L438.19,210.25L439.35,210.85L440.51,219.05L441.67,221.78L442.82,221.79L443.98,221.24L445.14,225.3L448.62,224.86L449.78,228.54L452.1,230.84L453.26,231.52L455.58,234.27L456.74,234.76L457.89,235.13L459.05,231.57L461.37,229.55L462.53,229.17L466.01,229.24L467.17,229.8L470.65,232.87L471.81,234.43L472.96,209.54L474.12,200.77L476.44,197.1L477.6,212.3L478.76,217.66L479.92,219.32L481.08,220.26L482.24,227.75L483.4,230.16L484.56,229.96L485.72,228.85L486.88,232.35L488.03,231.74L489.19,229.25L490.35,226.31L491.51,225.63L494.99,221.31L496.15,217.2L497.31,215.86L498.47,216.05L499.63,217.06L500.79,208.93L501.94,207.57L503.1,209.22L504.26,211.65L505.42,210.79L507.74,215.27L508.9,218.05L510.06,215.5L511.22,215.59L513.54,216.83L514.7,218.81L515.86,219.01L517.01,218.29L518.17,217.14L519.33,219.3L520.49,219.08L521.65,217.94L522.81,216.79L523.97,218.68L527.45,219.9L528.61,218.24L529.77,218.67L530.93,220.16L532.08,222.08L533.24,214.76L534.4,213.43L535.56,214.49L536.72,215.79L537.88,170.91L540.2,147.76L541.36,142.99L542.52,163.58L543.68,169.25L544.84,169.47L546,168.9L547.15,198.04L548.31,208.18L549.47,210.15L550.63,210.6L551.79,218.62L552.95,221.01L555.27,219.62L556.43,221.24L558.75,220.27L559.91,219.36L561.07,222.27L562.22,223.09L564.54,222.93L565.7,223.93L568.02,224.08L569.18,223.87L571.5,217.62L572.66,216.33L576.14,213.64L577.29,213.22L579.61,213.23L580.77,214.04L583.09,216.94L584.25,192.15L585.41,183.62L586.57,181.63L587.73,180.57L588.89,196.12L591.21,204.13L592.36,205.63L594.68,216.98L595.84,217.8L597,217.76L598.16,222.38L599.32,223.02L600.48,221.85L601.64,220.27L602.8,220.97L606.28,219.17L607.43,215.76L608.59,214.8L609.75,215.22L610.91,216.4L612.07,208.4L613.23,207.11L614.39,208.81L615.55,211.26L616.71,210.41L619.03,214.9L620.19,217.66L621.35,215.11L622.5,215.19L624.82,216.42L625.98,218.38L627.14,218.57L628.3,217.85L629.46,216.69L630.62,218.84L631.78,218.61L632.94,217.46L634.1,216.3L635.26,218.19L638.73,219.4L639.89,217.74L641.05,218.17L642.21,219.65L643.37,221.58L644.53,214.27L645.69,212.93L646.85,213.99L648.01,215.3L649.17,170.43L651.49,147.3L652.64,142.54L653.8,163.13L654.96,168.82L656.12,169.05L657.28,168.49L658.44,197.65L659.6,207.89L661.92,210.6L663.08,218.79L664.24,221.56L665.4,221.62L666.56,221.13L667.71,226.54L671.19,225.15L672.35,228.61L674.67,230.69L675.83,231.33L678.15,233.92L679.31,234.3L680.47,234.55L681.63,230.88L683.94,229.01L685.1,228.76L688.58,229.18L689.74,229.83L693.22,233.14L694.38,234.77L696.69,201.33L697.85,199.2L699.01,197.99L700.17,213.37L701.33,218.93L702.49,220.79L703.65,221.95L704.81,229.66L705.97,232.14L707.13,231.96L708.29,230.84L709.45,234.31L710.61,233.98L711.76,231.87L712.92,229.37L714.08,229.14L717.56,223.9L718.72,219.29L719.88,217.83L721.04,218.01L722.2,219.06L723.36,211L724.52,209.68L725.68,211.4L726.83,213.89L727.99,213.1L730.31,217.71L731.47,220.54L732.63,218.06L733.79,218.2L736.11,219.56L737.27,221.59L738.43,221.85L739.59,221.19L740.75,220.1L741.9,222.31L743.06,222.15L744.22,221.06L745.38,219.97L746.54,221.92L750.02,223.3L751.18,221.69L752.34,222.18L753.5,223.72L754.66,225.7L755.82,218.43L756.97,217.14L758.13,218.25L759.29,219.61L760.45,174.78L762.77,151.73L763.93,147.01L765.09,167.64L766.25,173.36L767.41,173.63L768.57,173.09L769.73,202.28L770.89,212.57L773.2,215.4L774.36,223.65L775.52,226.41L776.68,226.44L777.84,225.9L779,227.98" style="vector-effect: non-scaling-stroke; fill: none; stroke: rgb(255, 127, 14); stroke-opacity: 0.7; stroke-width: 3px; opacity: 1;"/></g><g class="points"/><g class="text"/></g></g></g><g class="overplot"/><path class="xlines-above crisp" d="M0,0" style="fill: none;"/><path class="ylines-above crisp" d="M70,50V310" style="fill: none; stroke-width: 2px; stroke: rgb(0, 0, 0); stroke-opacity: 1;"/><g class="overlines-above"/><g class="xaxislayer-above"><g class="xtick"><text text-anchor="middle" x="0" y="330" transform="translate(154.45999999999998,0)" style="font-family: 'Open Sans', verdana, arial, sans-serif; font-size: 19px; fill: rgb(42, 63, 95); fill-opacity: 1; white-space: pre; opacity: 1;"><tspan class="line" dy="0em" x="0" y="330">May 31</tspan><tspan class="line" dy="1.3em" x="0" y="330">2019</tspan></text></g><g class="xtick"><text text-anchor="middle" x="0" y="330" style="font-family: 'Open Sans', verdana, arial, sans-serif; font-size: 19px; fill: rgb(42, 63, 95); fill-opacity: 1; white-space: pre; opacity: 1;" transform="translate(265.75,0)">Jun 1</text></g><g class="xtick"><text text-anchor="middle" x="0" y="330" style="font-family: 'Open Sans', verdana, arial, sans-serif; font-size: 19px; fill: rgb(42, 63, 95); fill-opacity: 1; white-space: pre; opacity: 1;" transform="translate(377.04,0)">Jun 2</text></g><g class="xtick"><text text-anchor="middle" x="0" y="330" style="font-family: 'Open Sans', verdana, arial, sans-serif; font-size: 19px; fill: rgb(42, 63, 95); fill-opacity: 1; white-space: pre; opacity: 1;" transform="translate(488.32,0)">Jun 3</text></g><g class="xtick"><text text-anchor="middle" x="0" y="330" style="font-family: 'Open Sans', verdana, arial, sans-serif; font-size: 19px; fill: rgb(42, 63, 95); fill-opacity: 1; white-space: pre; opacity: 1;" transform="translate(599.61,0)">Jun 4</text></g><g class="xtick"><text text-anchor="middle" x="0" y="330" style="font-family: 'Open Sans', verdana, arial, sans-serif; font-size: 19px; fill: rgb(42, 63, 95); fill-opacity: 1; white-space: pre; opacity: 1;" transform="translate(710.89,0)">Jun 5</text></g><g class="xtick"><text text-anchor="middle" x="0" y="330" style="font-family: 'Open Sans', verdana, arial, sans-serif; font-size: 19px; fill: rgb(42, 63, 95); fill-opacity: 1; white-space: pre; opacity: 1;" transform="translate(822.18,0)">Jun 6</text></g></g><g class="yaxislayer-above"><g class="ytick"><text text-anchor="end" x="65.2" y="6.6499999999999995" transform="translate(0,275.19)" style="font-family: 'Open Sans', verdana, arial, sans-serif; font-size: 19px; fill: rgb(42, 63, 95); fill-opacity: 1; white-space: pre; opacity: 1;">0</text></g><g class="ytick"><text text-anchor="end" x="65.2" y="6.6499999999999995" style="font-family: 'Open Sans', verdana, arial, sans-serif; font-size: 19px; fill: rgb(42, 63, 95); fill-opacity: 1; white-space: pre; opacity: 1;" transform="translate(0,227.63)">5</text></g><g class="ytick"><text text-anchor="end" x="65.2" y="6.6499999999999995" style="font-family: 'Open Sans', verdana, arial, sans-serif; font-size: 19px; fill: rgb(42, 63, 95); fill-opacity: 1; white-space: pre; opacity: 1;" transform="translate(0,180.06)">10</text></g><g class="ytick"><text text-anchor="end" x="65.2" y="6.6499999999999995" style="font-family: 'Open Sans', verdana, arial, sans-serif; font-size: 19px; fill: rgb(42, 63, 95); fill-opacity: 1; white-space: pre; opacity: 1;" transform="translate(0,132.49)">15</text></g><g class="ytick"><text text-anchor="end" x="65.2" y="6.6499999999999995" style="font-family: 'Open Sans', verdana, arial, sans-serif; font-size: 19px; fill: rgb(42, 63, 95); fill-opacity: 1; white-space: pre; opacity: 1;" transform="translate(0,84.93)">20</text></g></g><g class="overaxes-above"/></g></g><g class="polarlayer"/><g class="ternarylayer"/><g class="geolayer"/><g class="funnelarealayer"/><g class="pielayer"/><g class="iciclelayer"/><g class="treemaplayer"/><g class="sunburstlayer"/><g class="glimages"/><defs id="topdefs-6cd424"><g class="clips"/></defs><g class="layer-above"><g class="imagelayer"/><g class="shapelayer"/></g><g class="infolayer"><g class="g-gtitle"/><g class="g-xtitle"/><g class="g-ytitle" transform="translate(13.068359375,0)"><text class="ytitle" transform="rotate(-90,9.931250000000006,180)" x="9.931250000000006" y="180" text-anchor="middle" style="font-family: 'Open Sans', verdana, arial, sans-serif; font-size: 23px; fill: rgb(42, 63, 95); opacity: 1; font-weight: normal; white-space: pre;">Netload [kW]</text></g></g></svg>