<svg class="main-svg" xmlns="http://www.w3.org/2000/svg" xmlns:xlink="http://www.w3.org/1999/xlink" width="900" height="500" viewBox="0 0 900 500"><rect x="0" y="0" width="900" height="500" style="fill: rgb(255, 255, 255); fill-opacity: 1;"/><defs id="defs-9873ee"><g class="clips"><clipPath id="clip9873eexyplot" class="plotclip"><rect width="746" height="360"/></clipPath><clipPath class="axesclip" id="clip9873eex"><rect x="87" y="0" width="746" height="500"/></clipPath><clipPath class="axesclip" id="clip9873eey"><rect x="0" y="50" width="900" height="360"/></clipPath><clipPath class="axesclip" id="clip9873eexy"><rect x="87" y="50" width="746" height="360"/></clipPath></g><g class="gradients"/><g class="patterns"/></defs><g class="bglayer"/><g class="layer-below"><g class="imagelayer"/><g class="shapelayer"/></g><g class="cartesianlayer"><g class="subplot xy"><g class="layer-subplot"><g class="shapelayer"/><g class="imagelayer"/></g><g class="gridlayer"><g class="x"><path class="xgrid crisp" transform="translate(180.25,0)" d="M0,50v360" style="stroke: rgb(235, 240, 248); stroke-opacity: 1; stroke-width: 1px;"/><path class="xgrid crisp" transform="translate(273.5,0)" d="M0,50v360" style="stroke: rgb(235, 240, 248); stroke-opacity: 1; stroke-width: 1px;"/><path class="xgrid crisp" transform="translate(366.75,0)" d="M0,50v360" style="stroke: rgb(235, 240, 248); stroke-opacity: 1; stroke-width: 1px;"/><path class="xgrid crisp" transform="translate(460,0)" d="M0,50v360" style="stroke: rgb(235, 240, 248); stroke-opacity: 1; stroke-width: 1px;"/><path class="xgrid crisp" transform="translate(553.25,0)" d="M0,50v360" style="stroke: rgb(235, 240, 248); stroke-opacity: 1; stroke-width: 1px;"/><path class="xgrid crisp" transform="translate(646.5,0)" d="M0,50v360" style="stroke: rgb(235, 240, 248); stroke-opacity: 1; stroke-width: 1px;"/><path class="xgrid crisp" transform="translate(739.75,0)" d="M0,50v360" style="stroke: rgb(235, 240, 248); stroke-opacity: 1; stroke-width: 1px;"/></g><g class="y"><path class="ygrid crisp" transform="translate(0,403.86)" d="M87,0h746" style="stroke: rgb(235, 240, 248); stroke-opacity: 1; stroke-width: 1px;"/><path class="ygrid crisp" transform="translate(0,290.97)" d="M87,0h746" style="stroke: rgb(235, 240, 248); stroke-opacity: 1; stroke-width: 1px;"/><path class="ygrid crisp" transform="translate(0,234.52)" d="M87,0h746" style="stroke: rgb(235, 240, 248); stroke-opacity: 1; stroke-width: 1px;"/><path class="ygrid crisp" transform="translate(0,178.07)" d="M87,0h746" style="stroke: rgb(235, 240, 248); stroke-opacity: 1; stroke-width: 1px;"/><path class="ygrid crisp" transform="translate(0,121.63)" d="M87,0h746" style="stroke: rgb(235, 240, 248); stroke-opacity: 1; stroke-width: 1px;"/><path class="ygrid crisp" transform="translate(0,65.18)" d="M87,0h746" style="stroke: rgb(235, 240, 248); stroke-opacity: 1; stroke-width: 1px;"/></g></g><g class="zerolinelayer"><path class="yzl zl crisp" transform="translate(0,347.42)" d="M87,0h746" style="stroke: rgb(0, 0, 0); stroke-opacity: 1; stroke-width: 2px;"/></g><path class="xlines-below"/><path class="ylines-below"/><g class="overlines-below"/><g class="xaxislayer-below"/><g class="yaxislayer-below"/><g class="overaxes-below"/><g class="plot" transform="translate(87,50)" clip-path="url(#clip9873eexyplot)"><g class="scatterlayer mlayer"><g class="trace scatter traced38d22" style="stroke-miterlimit: 2; opacity: 1;"><g class="fills"/><g class="errorbars"/><g class="lines"><path class="js-line" d="M0,270.35L3.89,264.05L7.77,270.73L11.66,268.94L15.54,274.34L19.43,282.52L23.31,278.24L27.2,274.32L31.08,256.38L34.97,256.59L38.85,250.61L42.74,269.36L46.63,271.73L50.51,271.4L54.4,269.37L58.28,276.78L62.17,282.11L66.05,279.3L69.94,278.75L73.82,273.3L77.71,284.88L85.48,282.78L89.36,284.56L93.25,276.23L97.14,278.49L104.91,279.09L108.79,258.41L112.68,272.29L116.56,269.46L120.45,273L124.33,263.81L128.22,260.85L132.1,271.38L135.99,271.64L139.88,275.31L143.76,269.81L147.65,274.56L151.53,270.02L155.42,267.57L159.3,270.06L163.19,266.14L167.07,269.11L170.96,250.4L178.73,265.74L182.61,215.95L186.5,238.83L190.39,125.09L194.27,236.15L198.16,256.67L202.04,249.01L205.93,249.64L209.81,187.02L213.7,231.51L217.58,259.87L221.47,263.99L225.35,238.75L229.24,269.85L237.01,271.48L240.9,273.71L244.78,268.64L248.67,242.06L252.55,272.83L256.44,265.24L260.32,268.48L264.21,268.52L268.09,278.77L271.98,275.92L275.86,278.43L279.75,264.82L283.64,256.75L287.52,257.33L291.41,259.1L295.29,258.94L299.18,241.19L303.06,266.99L306.95,261.74L310.83,267.49L314.72,272.08L318.6,268.9L322.49,258.55L326.38,258.77L330.26,250.48L334.15,255.09L338.03,258.99L341.92,236.63L345.8,246.38L349.69,215.41L353.57,226.06L357.46,265.36L361.34,254.39L365.23,252.24L369.11,246.57L373,270.22L376.89,270.55L380.77,267.43L384.66,265.56L388.54,275.53L392.43,273.27L396.31,279.81L400.2,281.41L404.08,263.24L411.85,254.1L415.74,254.16L423.51,243.06L427.4,221.19L431.28,272.07L435.17,281.47L439.05,277.84L442.94,281.67L450.71,282.98L454.59,276.43L458.48,282.28L462.36,279.27L466.25,272.07L470.14,275.82L474.02,278.84L477.91,276.38L481.79,272.69L485.68,263.9L489.56,272.2L493.45,271.29L497.33,253.62L501.22,268.28L505.1,254.21L508.99,258.38L512.88,259.15L516.76,251.34L520.65,254.39L524.53,264.93L528.42,257.37L532.3,237.54L536.19,259.71L540.07,269.03L543.96,256.61L547.84,268.55L551.73,266.45L555.61,273.64L563.39,246.52L567.27,247.23L571.16,234.8L575.04,249.59L578.93,250.94L582.81,237.58L586.7,249.98L590.58,251.84L594.47,264.16L598.35,256.51L602.24,261.83L606.13,261.95L610.01,252.77L613.9,268.08L617.78,241.52L621.67,272.86L625.55,256.94L629.44,273.29L633.32,275.53L637.21,272.28L641.09,268.21L644.98,249.27L648.86,250.83L652.75,260.67L656.64,265.27L660.52,250.13L664.41,256.23L668.29,264.77L672.18,265.65L676.06,262.62L679.95,257.96L683.83,266.61L687.72,262.33L691.6,267.58L695.49,261.05L699.38,257.52L703.26,258.77L707.15,263.6L711.03,254.64L714.92,251.23L718.8,257.13L722.69,253.72L726.57,259.61L730.46,251.44L734.34,250.96L738.23,229.09L742.11,246.97L746,250.31" style="vector-effect: non-scaling-stroke; fill: none; stroke: rgb(76, 120, 168); stroke-opacity: 1; stroke-width: 2px; opacity: 1;"/></g><g class="points"/><g class="text"/></g><g class="trace scatter trace81e58f" style="stroke-miterlimit: 2; opacity: 1;"><g class="fills"/><g class="errorbars"/><g class="lines"><path class="js-line" d="M0,297.42L62.17,297.42L66.05,296.19L77.71,292.51L81.59,287.9L93.25,274.07L97.14,265.14L116.56,222.05L120.45,213.89L124.33,205.73L128.22,199.47L139.88,180.67L143.76,176.73L155.42,164.94L159.3,162.95L170.96,156.98L174.84,157.43L186.5,158.78L190.39,161.79L202.04,170.83L205.93,176.03L217.58,191.64L221.47,203.81L233.13,240.33L237.01,248.68L248.67,273.74L252.55,277.91L264.21,290.41L268.09,291.37L295.29,297.42L299.18,297.42L435.17,297.42L439.05,295.99L450.71,291.73L454.59,287.29L466.25,273.95L470.14,265.34L493.45,215.21L497.33,207.11L512.88,181.86L516.76,177.88L528.42,165.94L532.3,163.5L543.96,156.16L547.84,156.84L559.5,158.89L563.39,161.42L575.04,169L578.93,173.84L590.58,188.34L594.47,195.58L610.01,225.5L613.9,233.7L637.21,283.77L641.09,286.08L652.75,292.99L656.64,294.09L668.29,297.42L672.18,297.42L746,297.42" style="vector-effect: non-scaling-stroke; fill: none; stroke: rgb(245, 133, 24); stroke-opacity: 1; stroke-width: 2px; opacity: 1;"/></g><g class="points"/><g class="text"/></g><g class="trace scatter trace5db013" style="stroke-miterlimit: 2; opacity: 1;"><g class="fills"/><g class="errorbars"/><g class="lines"><path class="js-line" d="M0,316.32L3.89,309.79L7.77,316.55L11.66,322.47L15.54,310.76L19.43,312.31L23.31,310.66L27.2,320.52L31.08,321.68L34.97,325.63L38.85,323.29L42.74,323.92L46.63,323.1L50.51,313.29L54.4,323.99L66.05,306.49L69.94,313.62L73.82,317.73L77.71,305.04L85.48,297.93L89.36,291.54L93.25,295.26L97.14,285.82L101.02,274.5L104.91,266.34L108.79,277.71L112.68,268.06L116.56,250.06L120.45,238.31L124.33,239.34L128.22,236.03L132.1,219.23L135.99,212.71L139.88,202.77L143.76,204.34L147.65,195.66L151.53,196.26L159.3,210.51L163.19,268.74L167.07,277.5L170.96,296.38L174.84,290.34L178.73,290.04L182.61,289.4L186.5,301.95L190.39,334.12L194.27,281.85L198.16,287.05L202.04,295.67L205.93,299.65L209.81,291.63L213.7,287.85L217.58,290.57L221.47,292.43L225.35,297.91L229.24,294.22L233.13,293.73L237.01,295.12L240.9,294.23L244.78,296.47L248.67,322.32L252.55,298.45L256.44,303.14L260.32,300.76L264.21,306.94L268.09,304.28L271.98,310.47L275.86,310.33L279.75,320.84L283.64,319.36L287.52,327.61L291.41,333.68L295.29,320.12L299.18,342L303.06,318.73L306.95,316.08L310.83,310.64L314.72,311.56L318.6,322.59L322.49,326.9L326.38,324.05L334.15,327.12L338.03,316L341.92,334.96L345.8,330.17L349.69,331.46L353.57,315.14L357.46,309.74L361.34,310.9L365.23,312.11L369.11,322.92L373,313.21L376.89,313.32L380.77,307.66L384.66,316.42L388.54,311.61L392.43,313.86L396.31,311.68L400.2,311.91L404.08,313.6L407.97,319.96L411.85,320.39L415.74,327.99L423.51,321.43L427.4,321.61L431.28,322.61L435.17,313.37L439.05,314.21L442.94,310.32L446.82,305.5L450.71,303.97L454.59,304.09L458.48,297.98L462.36,296.55L466.25,299.3L470.14,286.94L474.02,280.03L477.91,270.33L481.79,266.3L485.68,264.91L489.56,248.52L493.45,241.34L497.33,250.91L501.22,229.93L505.1,237.7L508.99,227.21L512.88,220.13L516.76,223.96L520.65,216.92L524.53,202.41L528.42,205.98L540.07,255.47L543.96,269.53L551.73,282.53L555.61,290.73L559.5,295.36L563.39,297.42L567.27,304.47L571.16,304.46L575.04,292.6L578.93,295.78L582.81,300.17L586.7,290.36L590.58,295.79L594.47,291.69L598.35,294.5L602.24,295.16L606.13,294.06L610.01,296.39L613.9,295.69L617.78,297.8L621.67,274.66L625.55,299L629.44,291.06L633.32,297.24L644.98,322.23L648.86,311.14L652.75,314.96L656.64,316.29L660.52,324.25L664.41,328.16L668.29,316.56L672.18,320.54L676.06,329.94L679.95,327.25L683.83,322.86L687.72,316.71L691.6,315.15L695.49,320.98L699.38,321.69L703.26,316.93L707.15,307.52L711.03,336.39L714.92,334.48L718.8,325.8L722.69,336L726.57,319.74L734.34,331.6L738.23,319.22L746,319.84" style="vector-effect: non-scaling-stroke; fill: none; stroke: rgb(228, 87, 86); stroke-opacity: 1; stroke-width: 4px; opacity: 1;"/></g><g class="points"/><g class="text"/></g><g class="trace scatter trace93655e" style="stroke-miterlimit: 2; opacity: 1;"><g class="fills"/><g class="errorbars"/><g class="lines"><path class="js-line" d="M0,187.47L3.89,192.45L7.77,195.7L19.43,210.85L23.31,214.77L27.2,218.25L31.08,224.33L42.74,244.95L46.63,251.92L50.51,258.68L54.4,262.86L62.17,275.28L66.05,279.31L69.94,281.7L73.82,285.96L77.71,291.31L81.59,293.32L89.36,294.59L93.25,293.29L97.14,292.79L101.02,290.1L104.91,284.66L108.79,277.44L112.68,272.89L116.56,266.23L124.33,241.33L128.22,227.64L135.99,194.63L139.88,174.62L163.19,39.19L167.07,32.38L170.96,27.65L174.84,27.57L186.5,22.23L190.39,23.49L194.27,33.2L198.16,29.65L202.04,27.22L205.93,26.81L209.81,27.42L213.7,26.05L221.47,22.18L225.35,21L233.13,20.4L237.01,19.53L248.67,18L252.55,24.55L256.44,24.83L260.32,26.34L264.21,27.21L268.09,29.72L271.98,31.53L275.86,34.96L279.75,38.36L283.64,44.53L287.52,50.3L291.41,58.25L295.29,67.79L299.18,73.77L303.06,85.5L306.95,91.11L314.72,99.5L318.6,103.23L330.26,124.62L334.15,131.98L338.03,139.8L341.92,144.69L353.57,172.15L357.46,176.81L369.11,187.47L373,194.18L380.77,202.53L384.66,205.22L392.43,213.96L396.31,218.29L407.97,230.11L411.85,236.05L415.74,242.09L419.63,250.14L435.17,276.51L439.05,280.71L446.82,288.53L450.71,290.66L458.48,294.14L462.36,294.3L470.14,294.59L474.02,292.1L477.91,288.12L481.79,281.69L489.56,266.83L493.45,255.51L505.1,215.4L508.99,201.34L520.65,148.87L524.53,129.75L536.19,67.89L540.07,54.55L543.96,44.58L547.84,37.96L551.73,32.74L555.61,29.21L559.5,27.62L563.39,27.13L567.27,27.13L571.16,28.99L575.04,30.84L578.93,29.76L582.81,29.37L586.7,30.1L590.58,28.42L594.47,28.03L602.24,25.98L606.13,25.49L617.78,24.11L621.67,24.38L625.55,19.11L629.44,19.55L633.32,18.04L637.21,18L641.09,20.1L644.98,24.8L648.86,31.33L652.75,34.95L660.52,44.53L664.41,51.59L668.29,59.68L672.18,64.72L676.06,70.81L679.95,79.37L687.72,93.91L691.6,98.99L699.38,109.86L703.26,116.24L707.15,121.38L711.03,124.04L718.8,144.05L722.69,151.52L726.57,161.67L730.46,167.55L742.11,189.94L746,195.86" style="vector-effect: non-scaling-stroke; fill: none; stroke: rgb(114, 183, 178); stroke-opacity: 1; stroke-width: 4px; opacity: 1; stroke-dasharray: 4px, 4px;"/></g><g class="points"/><g class="text"/></g></g></g><g class="overplot"/><path class="xlines-above crisp" d="M0,0" style="fill: none;"/><path class="ylines-above crisp" d="M86,50V410" style="fill: none; stroke-width: 2px; stroke: rgb(0, 0, 0); stroke-opacity: 1;"/><g class="overlines-above"/><g class="xaxislayer-above"><g class="xtick"><text text-anchor="middle" x="0" y="430" transform="translate(87,0)" style="font-family: 'Open Sans', verdana, arial, sans-serif; font-size: 19px; fill: rgb(42, 63, 95); fill-opacity: 1; white-space: pre; opacity: 1;"><tspan class="line" dy="0em" x="0" y="430">00:00</tspan><tspan class="line" dy="1.3em" x="0" y="430">May 30, 2019</tspan></text></g><g class="xtick"><text text-anchor="middle" x="0" y="430" style="font-family: 'Open Sans', verdana, arial, sans-serif; font-size: 19px; fill: rgb(42, 63, 95); fill-opacity: 1; white-space: pre; opacity: 1;" transform="translate(180.25,0)">06:00</text></g><g class="xtick"><text text-anchor="middle" x="0" y="430" style="font-family: 'Open Sans', verdana, arial, sans-serif; font-size: 19px; fill: rgb(42, 63, 95); fill-opacity: 1; white-space: pre; opacity: 1;" transform="translate(273.5,0)">12:00</text></g><g class="xtick"><text text-anchor="middle" x="0" y="430" style="font-family: 'Open Sans', verdana, arial, sans-serif; font-size: 19px; fill: rgb(42, 63, 95); fill-opacity: 1; white-space: pre; opacity: 1;" transform="translate(366.75,0)">18:00</text></g><g class="xtick"><text text-anchor="middle" x="0" y="430" style="font-family: 'Open Sans', verdana, arial, sans-serif; font-size: 19px; fill: rgb(42, 63, 95); fill-opacity: 1; white-space: pre; opacity: 1;" transform="translate(460,0)"><tspan class="line" dy="0em" x="0" y="430">00:00</tspan><tspan class="line" dy="1.3em" x="0" y="430">May 31, 2019</tspan></text></g><g class="xtick"><text text-anchor="middle" x="0" y="430" style="font-family: 'Open Sans', verdana, arial, sans-serif; font-size: 19px; fill: rgb(42, 63, 95); fill-opacity: 1; white-space: pre; opacity: 1;" transform="translate(553.25,0)">06:00</text></g><g class="xtick"><text text-anchor="middle" x="0" y="430" style="font-family: 'Open Sans', verdana, arial, sans-serif; font-size: 19px; fill: rgb(42, 63, 95); fill-opacity: 1; white-space: pre; opacity: 1;" transform="translate(646.5,0)">12:00</text></g><g class="xtick"><text text-anchor="middle" x="0" y="430" style="font-family: 'Open Sans', verdana, arial, sans-serif; font-size: 19px; fill: rgb(42, 63, 95); fill-opacity: 1; white-space: pre; opacity: 1;" transform="translate(739.75,0)">18:00</text></g><g class="xtick"><text text-anchor="middle" x="0" y="430" style="font-family: 'Open Sans', verdana, arial, sans-serif; font-size: 19px; fill: rgb(42, 63, 95); fill-opacity: 1; white-space: pre; opacity: 1;" transform="translate(833,0)"><tspan class="line" dy="0em" x="0" y="430">00:00</tspan><tspan class="line" dy="1.3em" x="0" y="430">Jun 1, 2019</tspan></text></g></g><g class="yaxislayer-above"><g class="ytick"><text text-anchor="end" x="81.2" y="6.6499999999999995" transform="translate(0,403.86)" style="font-family: 'Open Sans', verdana, arial, sans-serif; font-size: 19px; fill: rgb(42, 63, 95); fill-opacity: 1; white-space: pre; opacity: 1;">−20</text></g><g class="ytick"><text text-anchor="end" x="81.2" y="6.6499999999999995" style="font-family: 'Open Sans', verdana, arial, sans-serif; font-size: 19px; fill: rgb(42, 63, 95); fill-opacity: 1; white-space: pre; opacity: 1;" transform="translate(0,347.42)">0</text></g><g class="ytick"><text text-anchor="end" x="81.2" y="6.6499999999999995" style="font-family: 'Open Sans', verdana, arial, sans-serif; font-size: 19px; fill: rgb(42, 63, 95); fill-opacity: 1; white-space: pre; opacity: 1;" transform="translate(0,290.97)">20</text></g><g class="ytick"><text text-anchor="end" x="81.2" y="6.6499999999999995" style="font-family: 'Open Sans', verdana, arial, sans-serif; font-size: 19px; fill: rgb(42, 63, 95); fill-opacity: 1; white-space: pre; opacity: 1;" transform="translate(0,234.52)">40</text></g><g class="ytick"><text text-anchor="end" x="81.2" y="6.6499999999999995" style="font-family: 'Open Sans', verdana, arial, sans-serif; font-size: 19px; fill: rgb(42, 63, 95); fill-opacity: 1; white-space: pre; opacity: 1;" transform="translate(0,178.07)">60</text></g><g class="ytick"><text text-anchor="end" x="81.2" y="6.6499999999999995" style="font-family: 'Open Sans', verdana, arial, sans-serif; font-size: 19px; fill: rgb(42, 63, 95); fill-opacity: 1; white-space: pre; opacity: 1;" transform="translate(0,121.63)">80</text></g><g class="ytick"><text text-anchor="end" x="81.2" y="6.6499999999999995" style="font-family: 'Open Sans', verdana, arial, sans-serif; font-size: 19px; fill: rgb(42, 63, 95); fill-opacity: 1; white-space: pre; opacity: 1;" transform="translate(0,65.18)">100</text></g></g><g class="overaxes-above"/></g></g><g class="polarlayer"/><g class="ternarylayer"/><g class="geolayer"/><g class="funnelarealayer"/><g class="pielayer"/><g class="iciclelayer"/><g class="treemaplayer"/><g class="sunburstlayer"/><g class="glimages"/><defs id="topdefs-9873ee"><g class="clips"/></defs><g class="layer-above"><g class="imagelayer"/><g class="shapelayer"/></g><g class="infolayer"><g class="g-gtitle"/><g class="g-xtitle"/><g class="g-ytitle" transform="translate(12.615234375,0)"><text class="ytitle" transform="rotate(-90,10.384375000000006,230)" x="10.384375000000006" y="230" text-anchor="middle" style="font-family: 'Open Sans', verdana, arial, sans-serif; font-size: 23px; fill: rgb(42, 63, 95); opacity: 1; font-weight: normal; white-space: pre;">Power [kW] &amp; SO [kWh]</text></g></g></svg>