<svg class="main-svg" xmlns="http://www.w3.org/2000/svg" xmlns:xlink="http://www.w3.org/1999/xlink" width="800" height="600" viewBox="0 0 800 600"><rect x="0" y="0" width="800" height="600" style="fill: rgb(255, 255, 255); fill-opacity: 1;"/><defs id="defs-83a158"><g class="clips"><clipPath id="clip83a158xyplot" class="plotclip"><rect width="667" height="460"/></clipPath><clipPath class="axesclip" id="clip83a158x"><rect x="83" y="0" width="667" height="600"/></clipPath><clipPath class="axesclip" id="clip83a158y"><rect x="0" y="50" width="800" height="460"/></clipPath><clipPath class="axesclip" id="clip83a158xy"><rect x="83" y="50" width="667" height="460"/></clipPath></g><g class="gradients"/><g class="patterns"/></defs><g class="bglayer"/><g class="layer-below"><g class="imagelayer"/><g class="shapelayer"/></g><g class="cartesianlayer"><g class="subplot xy"><g class="layer-subplot"><g class="shapelayer"/><g class="imagelayer"/></g><g class="gridlayer"><g class="x"><path class="xgrid crisp" transform="translate(154.89,0)" d="M0,50v460" style="stroke: rgb(235, 240, 248); stroke-opacity: 1; stroke-width: 1px;"/><path class="xgrid crisp" transform="translate(250.75,0)" d="M0,50v460" style="stroke: rgb(235, 240, 248); stroke-opacity: 1; stroke-width: 1px;"/><path class="xgrid crisp" transform="translate(346.6,0)" d="M0,50v460" style="stroke: rgb(235, 240, 248); stroke-opacity: 1; stroke-width: 1px;"/><path class="xgrid crisp" transform="translate(442.46,0)" d="M0,50v460" style="stroke: rgb(235, 240, 248); stroke-opacity: 1; stroke-width: 1px;"/><path class="xgrid crisp" transform="translate(538.3199999999999,0)" d="M0,50v460" style="stroke: rgb(235, 240, 248); stroke-opacity: 1; stroke-width: 1px;"/><path class="xgrid crisp" transform="translate(634.17,0)" d="M0,50v460" style="stroke: rgb(235, 240, 248); stroke-opacity: 1; stroke-width: 1px;"/><path class="xgrid crisp" transform="translate(730.03,0)" d="M0,50v460" style="stroke: rgb(235, 240, 248); stroke-opacity: 1; stroke-width: 1px;"/></g><g class="y"><path class="ygrid crisp" transform="translate(0,384.09)" d="M83,0h667" style="stroke: rgb(235, 240, 248); stroke-opacity: 1; stroke-width: 1px;"/><path class="ygrid crisp" transform="translate(0,280.64)" d="M83,0h667" style="stroke: rgb(235, 240, 248); stroke-opacity: 1; stroke-width: 1px;"/><path class="ygrid crisp" transform="translate(0,177.19)" d="M83,0h667" style="stroke: rgb(235, 240, 248); stroke-opacity: 1; stroke-width: 1px;"/><path class="ygrid crisp" transform="translate(0,73.74)" d="M83,0h667" style="stroke: rgb(235, 240, 248); stroke-opacity: 1; stroke-width: 1px;"/></g></g><g class="zerolinelayer"><path class="yzl zl crisp" transform="translate(0,487.54)" d="M83,0h667" style="stroke: rgb(0, 0, 0); stroke-opacity: 1; stroke-width: 2px;"/></g><path class="xlines-below"/><path class="ylines-below"/><g class="overlines-below"/><g class="xaxislayer-below"/><g class="yaxislayer-below"/><g class="overaxes-below"/><g class="plot" transform="translate(83,50)" clip-path="url(#clip83a158xyplot)"><g class="scatterlayer mlayer"><g class="trace scatter traceb73716" style="stroke-miterlimit: 2; opacity: 1;"><g class="fills"/><g class="errorbars"/><g class="lines"><path class="js-line" d="M0,437L39.94,436.8L43.93,435.44L47.93,431.84L51.92,425.4L63.9,405.46L67.9,401.99L87.87,388.28L91.86,387.26L103.84,386.79L107.84,386.79L135.8,386.75L139.79,380.9L155.77,355.23L159.76,347.56L163.75,342.52L167.75,339.57L183.72,330.34L187.72,329.85L231.65,329.29L235.65,325.07L239.64,317.79L243.63,313.42L247.63,306.24L251.62,296.56L259.61,285.28L263.6,281.06L271.59,276.53L275.59,273.59L283.57,270.86L287.57,270.65L327.51,270.44L331.5,268.52L335.5,265.92L339.49,259.24L347.48,243.75L351.47,237.65L355.47,231.76L359.46,228.69L363.46,226L367.45,221.31L371.44,218.8L375.44,217.47L391.41,216.83L395.41,216.83L419.37,216.59L423.37,214.77L427.36,212.57L431.35,206.04L435.35,199.46L439.34,189.28L443.34,179.21L447.33,172.23L459.31,159.4L463.31,154.85L471.29,146.76L475.29,143.95L483.28,138.99L487.27,138.04L495.26,130.16L499.25,125.62L503.25,120.05L507.24,116.48L523.22,113.08L527.21,109.24L543.19,87.35L547.18,83.86L555.17,77.62L559.16,74.09L563.16,70.19L567.15,68.32L583.13,68.05L587.12,68.05L615.08,68.05L619.07,65.45L631.05,49.72L635.05,41.22L643.04,32.9L647.03,30.69L659.01,24.32L663.01,23.19L667,23" style="vector-effect: non-scaling-stroke; fill: none; stroke: rgb(76, 120, 168); stroke-opacity: 1; stroke-width: 4px; opacity: 1;"/></g><g class="points"/><g class="text"/></g><g class="trace scatter trace6a353a" style="stroke-miterlimit: 2; opacity: 1;"><g class="fills"/><g class="errorbars"/><g class="lines"><path class="js-line" d="M0,437L55.92,436.19L59.91,435.93L135.8,435.21L139.79,433.99L147.78,432.13L151.77,429.92L183.72,426.43L187.72,426.43L231.65,426.17L235.65,424.48L239.64,422.34L243.63,422.1L251.62,419.46L255.62,418.85L267.6,416.34L271.59,416.34L299.55,415.71L303.54,415.71L335.5,415.22L339.49,413.38L355.47,410.76L359.46,410.76L419.37,410.34L423.37,408.93L427.36,407.86L431.35,404.1L435.35,399.43L439.34,391.68L443.34,384.31L447.33,379.38L451.32,376.1L455.32,371.45L463.31,366.95L467.3,363.13L471.29,359.86L475.29,357.96L479.28,355.51L483.28,354.43L487.27,353.37L491.26,350L499.25,342.15L503.25,339.29L507.24,336.57L511.23,335.71L523.22,333.93L527.21,331.32L535.2,322.98L539.19,320.83L563.16,310.97L567.15,310.23L595.11,310.08L599.1,310.08L667,310.08" style="vector-effect: non-scaling-stroke; fill: none; stroke: rgb(245, 133, 24); stroke-opacity: 1; stroke-width: 4px; opacity: 1;"/></g><g class="points"/><g class="text"/></g><g class="trace scatter tracedb777d" style="stroke-miterlimit: 2; opacity: 1;"><g class="fills"/><g class="errorbars"/><g class="lines"><path class="js-line" d="M0,437L87.87,436.49L91.86,435.47L107.84,435.23L111.83,435.23L167.75,435.23L171.74,433.87L183.72,426.94L187.72,426.44L263.6,426.09L267.6,423.99L279.58,416.8L283.57,415.89L299.55,415.7L303.54,415.7L363.46,415.6L367.45,414.5L371.44,412L375.44,410.66L387.42,410.32L391.41,410.32L447.33,409.65L451.32,409.33L455.32,404.36L459.31,401.15L471.29,388.52L475.29,385.7L483.28,380.75L487.27,379.8L491.26,376.67L495.26,372.08L507.24,358.4L511.23,357.71L519.22,356.57L523.22,355.25L527.21,351.4L531.2,345.5L535.2,340.59L539.19,334.11L547.18,326.02L551.17,323.23L563.16,312.35L567.15,310.49L579.13,310.22L583.13,310.22L667,310.22" style="vector-effect: non-scaling-stroke; fill: none; stroke: rgb(228, 87, 86); stroke-opacity: 1; stroke-width: 2px; opacity: 1;"/></g><g class="points"/><g class="text"/></g></g></g><g class="overplot"/><path class="xlines-above crisp" d="M0,0" style="fill: none;"/><path class="ylines-above crisp" d="M82,50V510" style="fill: none; stroke-width: 2px; stroke: rgb(0, 0, 0); stroke-opacity: 1;"/><g class="overlines-above"/><g class="xaxislayer-above"><g class="xtick"><text text-anchor="middle" x="0" y="530" transform="translate(154.89,0)" style="font-family: 'Open Sans', verdana, arial, sans-serif; font-size: 19px; fill: rgb(42, 63, 95); fill-opacity: 1; white-space: pre; opacity: 1;"><tspan class="line" dy="0em" x="0" y="530">May 31</tspan><tspan class="line" dy="1.3em" x="0" y="530">2019</tspan></text></g><g class="xtick"><text text-anchor="middle" x="0" y="530" style="font-family: 'Open Sans', verdana, arial, sans-serif; font-size: 19px; fill: rgb(42, 63, 95); fill-opacity: 1; white-space: pre; opacity: 1;" transform="translate(250.75,0)">Jun 1</text></g><g class="xtick"><text text-anchor="middle" x="0" y="530" style="font-family: 'Open Sans', verdana, arial, sans-serif; font-size: 19px; fill: rgb(42, 63, 95); fill-opacity: 1; white-space: pre; opacity: 1;" transform="translate(346.6,0)">Jun 2</text></g><g class="xtick"><text text-anchor="middle" x="0" y="530" style="font-family: 'Open Sans', verdana, arial, sans-serif; font-size: 19px; fill: rgb(42, 63, 95); fill-opacity: 1; white-space: pre; opacity: 1;" transform="translate(442.46,0)">Jun 3</text></g><g class="xtick"><text text-anchor="middle" x="0" y="530" style="font-family: 'Open Sans', verdana, arial, sans-serif; font-size: 19px; fill: rgb(42, 63, 95); fill-opacity: 1; white-space: pre; opacity: 1;" transform="translate(538.3199999999999,0)">Jun 4</text></g><g class="xtick"><text text-anchor="middle" x="0" y="530" style="font-family: 'Open Sans', verdana, arial, sans-serif; font-size: 19px; fill: rgb(42, 63, 95); fill-opacity: 1; white-space: pre; opacity: 1;" transform="translate(634.17,0)">Jun 5</text></g><g class="xtick"><text text-anchor="middle" x="0" y="530" style="font-family: 'Open Sans', verdana, arial, sans-serif; font-size: 19px; fill: rgb(42, 63, 95); fill-opacity: 1; white-space: pre; opacity: 1;" transform="translate(730.03,0)">Jun 6</text></g></g><g class="yaxislayer-above"><g class="ytick"><text text-anchor="end" x="77.2" y="6.6499999999999995" transform="translate(0,487.54)" style="font-family: 'Open Sans', verdana, arial, sans-serif; font-size: 19px; fill: rgb(42, 63, 95); fill-opacity: 1; white-space: pre; opacity: 1;">0</text></g><g class="ytick"><text text-anchor="end" x="77.2" y="6.6499999999999995" style="font-family: 'Open Sans', verdana, arial, sans-serif; font-size: 19px; fill: rgb(42, 63, 95); fill-opacity: 1; white-space: pre; opacity: 1;" transform="translate(0,384.09)">50</text></g><g class="ytick"><text text-anchor="end" x="77.2" y="6.6499999999999995" style="font-family: 'Open Sans', verdana, arial, sans-serif; font-size: 19px; fill: rgb(42, 63, 95); fill-opacity: 1; white-space: pre; opacity: 1;" transform="translate(0,280.64)">100</text></g><g class="ytick"><text text-anchor="end" x="77.2" y="6.6499999999999995" style="font-family: 'Open Sans', verdana, arial, sans-serif; font-size: 19px; fill: rgb(42, 63, 95); fill-opacity: 1; white-space: pre; opacity: 1;" transform="translate(0,177.19)">150</text></g><g class="ytick"><text text-anchor="end" x="77.2" y="6.6499999999999995" style="font-family: 'Open Sans', verdana, arial, sans-serif; font-size: 19px; fill: rgb(42, 63, 95); fill-opacity: 1; white-space: pre; opacity: 1;" transform="translate(0,73.74)">200</text></g></g><g class="overaxes-above"/></g></g><g class="polarlayer"/><g class="ternarylayer"/><g class="geolayer"/><g class="funnelarealayer"/><g class="pielayer"/><g class="iciclelayer"/><g class="treemaplayer"/><g class="sunburstlayer"/><g class="glimages"/><defs id="topdefs-83a158"><g class="clips"/></defs><g class="layer-above"><g class="imagelayer"/><g class="shapelayer"/></g><g class="infolayer"><g class="g-gtitle"/><g class="g-xtitle"/><g class="g-ytitle" transform="translate(13.146484375,0)"><text class="ytitle" transform="rotate(-90,9.853125000000006,280)" x="9.853125000000006" y="280" text-anchor="middle" style="font-family: 'Open Sans', verdana, arial, sans-serif; font-size: 23px; fill: rgb(42, 63, 95); opacity: 1; font-weight: normal; white-space: pre;">Community import [kWh]</text></g></g></svg>