<svg class="main-svg" xmlns="http://www.w3.org/2000/svg" xmlns:xlink="http://www.w3.org/1999/xlink" width="900" height="500" viewBox="0 0 900 500"><rect x="0" y="0" width="900" height="500" style="fill: rgb(255, 255, 255); fill-opacity: 1;"/><defs id="defs-da3657"><g class="clips"><clipPath id="clipda3657xyplot" class="plotclip"><rect width="772" height="385"/></clipPath><clipPath class="axesclip" id="clipda3657x"><rect x="78" y="0" width="772" height="500"/></clipPath><clipPath class="axesclip" id="clipda3657y"><rect x="0" y="50" width="900" height="385"/></clipPath><clipPath class="axesclip" id="clipda3657xy"><rect x="78" y="50" width="772" height="385"/></clipPath></g><g class="gradients"/><g class="patterns"/></defs><g class="bglayer"/><g class="layer-below"><g class="imagelayer"/><g class="shapelayer"/></g><g class="cartesianlayer"><g class="subplot xy"><g class="layer-subplot"><g class="shapelayer"/><g class="imagelayer"/></g><g class="gridlayer"><g class="x"><path class="xgrid crisp" transform="translate(86.48,0)" d="M0,50v385" style="stroke: rgb(235, 240, 248); stroke-opacity: 1; stroke-width: 1px;"/><path class="xgrid crisp" transform="translate(171.32,0)" d="M0,50v385" style="stroke: rgb(235, 240, 248); stroke-opacity: 1; stroke-width: 1px;"/><path class="xgrid crisp" transform="translate(256.15,0)" d="M0,50v385" style="stroke: rgb(235, 240, 248); stroke-opacity: 1; stroke-width: 1px;"/><path class="xgrid crisp" transform="translate(340.99,0)" d="M0,50v385" style="stroke: rgb(235, 240, 248); stroke-opacity: 1; stroke-width: 1px;"/><path class="xgrid crisp" transform="translate(425.82,0)" d="M0,50v385" style="stroke: rgb(235, 240, 248); stroke-opacity: 1; stroke-width: 1px;"/><path class="xgrid crisp" transform="translate(510.66,0)" d="M0,50v385" style="stroke: rgb(235, 240, 248); stroke-opacity: 1; stroke-width: 1px;"/><path class="xgrid crisp" transform="translate(595.49,0)" d="M0,50v385" style="stroke: rgb(235, 240, 248); stroke-opacity: 1; stroke-width: 1px;"/><path class="xgrid crisp" transform="translate(680.33,0)" d="M0,50v385" style="stroke: rgb(235, 240, 248); stroke-opacity: 1; stroke-width: 1px;"/><path class="xgrid crisp" transform="translate(765.16,0)" d="M0,50v385" style="stroke: rgb(235, 240, 248); stroke-opacity: 1; stroke-width: 1px;"/></g><g class="y"><path class="ygrid crisp" transform="translate(0,396.94)" d="M78,0h772" style="stroke: rgb(235, 240, 248); stroke-opacity: 1; stroke-width: 1px;"/><path class="ygrid crisp" transform="translate(0,358.88)" d="M78,0h772" style="stroke: rgb(235, 240, 248); stroke-opacity: 1; stroke-width: 1px;"/><path class="ygrid crisp" transform="translate(0,320.82)" d="M78,0h772" style="stroke: rgb(235, 240, 248); stroke-opacity: 1; stroke-width: 1px;"/><path class="ygrid crisp" transform="translate(0,282.76)" d="M78,0h772" style="stroke: rgb(235, 240, 248); stroke-opacity: 1; stroke-width: 1px;"/><path class="ygrid crisp" transform="translate(0,244.7)" d="M78,0h772" style="stroke: rgb(235, 240, 248); stroke-opacity: 1; stroke-width: 1px;"/><path class="ygrid crisp" transform="translate(0,206.64)" d="M78,0h772" style="stroke: rgb(235, 240, 248); stroke-opacity: 1; stroke-width: 1px;"/><path class="ygrid crisp" transform="translate(0,168.57999999999998)" d="M78,0h772" style="stroke: rgb(235, 240, 248); stroke-opacity: 1; stroke-width: 1px;"/><path class="ygrid crisp" transform="translate(0,130.53)" d="M78,0h772" style="stroke: rgb(235, 240, 248); stroke-opacity: 1; stroke-width: 1px;"/><path class="ygrid crisp" transform="translate(0,92.47)" d="M78,0h772" style="stroke: rgb(235, 240, 248); stroke-opacity: 1; stroke-width: 1px;"/><path class="ygrid crisp" transform="translate(0,54.41)" d="M78,0h772" style="stroke: rgb(235, 240, 248); stroke-opacity: 1; stroke-width: 1px;"/></g></g><g class="zerolinelayer"><path class="yzl zl crisp" transform="translate(0,435)" d="M78,0h772" style="stroke: rgb(0, 0, 0); stroke-opacity: 1; stroke-width: 2px;"/></g><path class="xlines-below"/><path class="ylines-below"/><g class="overlines-below"/><g class="xaxislayer-below"/><g class="yaxislayer-below"/><g class="overaxes-below"/><g class="plot" transform="translate(78,50)" clip-path="url(#clipda3657xyplot)"><g class="scatterlayer mlayer"><g class="trace scatter traceaa3294" style="stroke-miterlimit: 2;"><g class="fills"><g><path class="js-fill" d="M754.78,385L161.44,385L161.44,384.62H163.56V384.24H164.24V383.86H164.33V383.48H165.43V383.1H165.51V382.72H166.53V382.34H166.87V381.96H166.87V381.57H167.21V381.19H167.46V380.81H167.55V380.43H167.55V380.05H167.72V379.67H167.8V379.29H167.97V378.91H168.23V378.53H168.57V378.15H168.82V377.77H168.91V377.39H168.99V377.01H169.42V376.63H169.5V376.25H169.5V375.87H169.67V375.49H169.76V375.1H169.76V374.72H170.6V374.34H170.6V373.96H170.86V373.58H170.94V373.2H171.03V372.82H171.2V372.44H171.54V372.06H171.62V371.68H171.79V371.3H171.96V370.92H172.05V370.54H172.13V370.16H172.39V369.78H172.47V369.4H172.55V369.02H172.72V368.63H172.72V368.25H172.81V367.87H173.06V367.49H173.57V367.11H173.83V366.73H173.83V366.35H173.91V365.97H173.91V365.59H174.17V365.21H174.17V364.83H174.25V364.45H174.25V364.07H174.34V363.69H174.42V363.31H174.68V362.93H174.76V362.55H174.85V362.16H174.85V361.78H175.1V361.4H175.18V361.02H175.27V360.64H175.44V360.26H175.52V359.88H175.61V359.5H175.78V359.12H175.86V358.74H175.86V358.36H176.03V357.98H176.2V357.6H176.29V357.22H176.29V356.84H176.29V356.46H176.37V356.07H176.37V355.69H176.37V355.31H176.46V354.93H176.54V354.55H176.63V354.17H176.63V353.79H176.63V353.41H176.8V353.03H176.88V352.65H176.97V352.27H176.97V351.89H177.22V351.51H177.39V351.13H177.39V350.75H177.48V350.37H177.56V349.99H177.64V349.6H177.64V349.22H177.73V348.84H177.81V348.46H177.81V348.08H177.9V347.7H177.9V347.32H178.15V346.94H178.24V346.56H178.41V346.18H178.41V345.8H178.41V345.42H178.49V345.04H178.58V344.66H178.75V344.28H178.75V343.9H178.75V343.52H178.92V343.13H179V342.75H179.17V342.37H179.26V341.99H179.51V341.61H179.51V341.23H179.6V340.85H179.77V340.47H180.19V340.09H180.27V339.71H180.36V339.33H180.36V338.95H180.44V338.57H180.53V338.19H180.87V337.81H180.87V337.43H180.87V337.05H180.87V336.66H180.87V336.28H180.87V335.9H180.95V335.52H181.04V335.14H181.12V334.76H181.21V334.38H181.29V334H181.46V333.62H181.46V333.24H181.46V332.86H181.55V332.48H181.63V332.1H181.63V331.72H181.72V331.34H181.72V330.96H181.72V330.58H181.8V330.19H181.8V329.81H181.97V329.43H181.97V329.05H182.06V328.67H182.14V328.29H182.31V327.91H182.4V327.53H182.4V327.15H182.48V326.77H182.57V326.39H182.57V326.01H182.65V325.63H182.82V325.25H182.99V324.87H182.99V324.49H182.99V324.11H183.16V323.72H183.16V323.34H183.24V322.96H183.33V322.58H183.33V322.2H183.41V321.82H183.5V321.44H183.67V321.06H183.67V320.68H183.67V320.3H183.67V319.92H183.84V319.54H183.84V319.16H183.84V318.78H183.84V318.4H184.01V318.02H184.09V317.64H184.18V317.25H184.26V316.87H184.26V316.49H184.6V316.11H184.6V315.73H184.6V315.35H184.69V314.97H184.86V314.59H184.86V314.21H184.86V313.83H184.94V313.45H184.94V313.07H184.94V312.69H185.03V312.31H185.03V311.93H185.11V311.55H185.45V311.16H185.53V310.78H185.62V310.4H185.79V310.02H185.79V309.64H185.87V309.26H185.87V308.88H185.96V308.5H185.96V308.12H185.96V307.74H186.04V307.36H186.04V306.98H186.13V306.6H186.21V306.22H186.21V305.84H186.38V305.46H186.38V305.08H186.38V304.69H186.47V304.31H186.47V303.93H186.47V303.55H186.64V303.17H186.64V302.79H186.81V302.41H186.89V302.03H186.89V301.65H186.89V301.27H186.89V300.89H186.89V300.51H186.89V300.13H186.98V299.75H187.06V299.37H187.06V298.99H187.15V298.61H187.23V298.22H187.4V297.84H187.49V297.46H187.49V297.08H187.49V296.7H187.66V296.32H187.74V295.94H187.91V295.56H187.99V295.18H187.99V294.8H188.08V294.42H188.25V294.04H188.25V293.66H188.5V293.28H188.59V292.9H188.67V292.52H188.67V292.14H188.76V291.75H188.84V291.37H188.84V290.99H188.93V290.61H189.01V290.23H189.18V289.85H189.27V289.47H189.27V289.09H189.27V288.71H189.35V288.33H189.35V287.95H189.35V287.57H189.52V287.19H189.52V286.81H189.61V286.43H189.78V286.05H189.86V285.67H189.95V285.28H190.12V284.9H190.12V284.52H190.12V284.14H190.12V283.76H190.2V283.38H190.29V283H190.29V282.62H190.62V282.24H190.62V281.86H190.71V281.48H190.79V281.1H190.79V280.72H190.96V280.34H190.96V279.96H191.05V279.58H191.05V279.2H191.13V278.81H191.39V278.43H191.56V278.05H191.56V277.67H191.64V277.29H191.9V276.91H191.98V276.53H192.07V276.15H192.07V275.77H192.24V275.39H192.24V275.01H192.41V274.63H192.49V274.25H192.58V273.87H192.66V273.49H192.75V273.11H192.92V272.73H192.92V272.34H193V271.96H193.08V271.58H193.17V271.2H193.25V270.82H193.34V270.44H193.34V270.06H193.42V269.68H193.51V269.3H193.51V268.92H193.68V268.54H193.85V268.16H193.85V267.78H193.93V267.4H193.93V267.02H194.02V266.64H194.02V266.25H194.1V265.87H194.19V265.49H194.27V265.11H194.36V264.73H194.44V264.35H194.44V263.97H194.7V263.59H194.95V263.21H195.12V262.83H195.21V262.45H195.21V262.07H195.29V261.69H195.38V261.31H195.46V260.93H195.46V260.55H195.55V260.17H195.8V259.78H195.97V259.4H195.97V259.02H196.05V258.64H196.22V258.26H196.31V257.88H196.56V257.5H196.56V257.12H196.9V256.74H196.99V256.36H197.07V255.98H197.07V255.6H197.24V255.22H197.24V254.84H197.24V254.46H197.33V254.08H197.33V253.7H197.33V253.31H197.5V252.93H197.5V252.55H197.58V252.17H197.67V251.79H197.75V251.41H197.75V251.03H197.75V250.65H197.84V250.27H198.01V249.89H198.01V249.51H198.26V249.13H198.26V248.75H198.34V248.37H198.51V247.99H198.51V247.61H198.51V247.23H198.68V246.84H198.68V246.46H198.77V246.08H198.85V245.7H198.85V245.32H199.02V244.94H199.11V244.56H199.19V244.18H199.19V243.8H199.28V243.42H199.28V243.04H199.36V242.66H199.45V242.28H199.53V241.9H199.62V241.52H199.62V241.14H199.87V240.76H199.87V240.37H199.96V239.99H200.21V239.61H200.38V239.23H200.38V238.85H200.64V238.47H200.8V238.09H200.89V237.71H200.97V237.33H201.14V236.95H201.23V236.57H201.23V236.19H201.31V235.81H201.31V235.43H201.31V235.05H201.4V234.67H201.48V234.29H201.65V233.9H201.82V233.52H201.82V233.14H201.82V232.76H201.91V232.38H201.91V232H202.08V231.62H202.33V231.24H202.59V230.86H202.67V230.48H202.76V230.1H202.84V229.72H203.01V229.34H203.01V228.96H203.18V228.58H203.18V228.2H203.43V227.82H203.52V227.43H203.6V227.05H204.11V226.67H204.11V226.29H204.11V225.91H204.2V225.53H204.37V225.15H204.45V224.77H204.45V224.39H204.45V224.01H204.62V223.63H204.71V223.25H204.79V222.87H204.96V222.49H205.05V222.11H205.05V221.73H205.05V221.34H205.13V220.96H205.22V220.58H205.47V220.2H205.47V219.82H205.56V219.44H205.64V219.06H205.64V218.68H205.98V218.3H205.98V217.92H206.06V217.54H206.06V217.16H206.15V216.78H206.15V216.4H206.49V216.02H206.49V215.64H206.57V215.26H206.66V214.87H206.66V214.49H207V214.11H207.25V213.73H207.25V213.35H207.42V212.97H207.42V212.59H207.59V212.21H207.59V211.83H207.68V211.45H207.85V211.07H207.85V210.69H208.02V210.31H208.1V209.93H208.19V209.55H208.61V209.17H208.78V208.79H208.86V208.4H209.03V208.02H209.8V207.64H209.88V207.26H209.88V206.88H209.97V206.5H209.97V206.12H210.14V205.74H210.22V205.36H210.39V204.98H210.56V204.6H210.82V204.22H210.9V203.84H211.07V203.46H211.07V203.08H211.24V202.7H211.32V202.32H211.58V201.93H211.83V201.55H211.83V201.17H211.83V200.79H212.34V200.41H212.34V200.03H212.34V199.65H212.6V199.27H212.77V198.89H212.77V198.51H213.02V198.13H213.11V197.75H213.11V197.37H213.28V196.99H213.28V196.61H213.36V196.23H213.45V195.85H213.53V195.46H213.7V195.08H213.78V194.7H214.21V194.32H214.21V193.94H214.29V193.56H214.29V193.18H214.97V192.8H215.14V192.42H215.4V192.04H215.48V191.66H215.48V191.28H215.57V190.9H215.91V190.52H215.99V190.14H215.99V189.76H216.08V189.38H216.08V188.99H216.16V188.61H216.24V188.23H216.33V187.85H216.33V187.47H216.41V187.09H216.5V186.71H216.67V186.33H216.67V185.95H216.67V185.57H216.84V185.19H216.84V184.81H217.09V184.43H217.09V184.05H217.18V183.67H217.52V183.29H217.69V182.91H217.77V182.52H217.77V182.14H217.94V181.76H218.28V181.38H218.54V181H218.79V180.62H218.96V180.24H219.04V179.86H219.13V179.48H219.89V179.1H220.32V178.72H220.66V178.34H221V177.96H221.17V177.58H221.25V177.2H221.33V176.82H221.42V176.43H221.67V176.05H221.76V175.67H221.76V175.29H221.76V174.91H221.76V174.53H222.1V174.15H222.27V173.77H222.27V173.39H222.35V173.01H222.44V172.63H222.44V172.25H222.52V171.87H222.95V171.49H222.95V171.11H223.03V170.73H223.12V170.35H223.2V169.96H223.29V169.58H223.63V169.2H223.88V168.82H223.88V168.44H224.05V168.06H224.05V167.68H224.05V167.3H224.13V166.92H224.3V166.54H224.39V166.16H224.47V165.78H224.56V165.4H224.81V165.02H224.9V164.64H225.15V164.26H225.32V163.88H225.92V163.49H226V163.11H226.17V162.73H226.51V162.35H226.59V161.97H226.68V161.59H227.1V161.21H227.1V160.83H227.19V160.45H227.19V160.07H227.36V159.69H227.36V159.31H227.44V158.93H227.44V158.55H227.44V158.17H227.61V157.79H227.7V157.41H227.87V157.02H228.29V156.64H228.38V156.26H228.46V155.88H228.55V155.5H229.22V155.12H229.22V154.74H229.48V154.36H229.65V153.98H230.16V153.6H230.58V153.22H230.58V152.84H230.58V152.46H230.84V152.08H230.84V151.7H230.84V151.32H230.92V150.94H231.6V150.55H231.85V150.17H231.85V149.79H231.94V149.41H232.02V149.03H232.11V148.65H232.62V148.27H232.7V147.89H232.7V147.51H232.79V147.13H232.87V146.75H233.13V146.37H233.21V145.99H233.21V145.61H234.06V145.23H234.82V144.85H235.08V144.47H235.08V144.08H235.16V143.7H235.25V143.32H235.42V142.94H235.42V142.56H235.42V142.18H235.84V141.8H236.01V141.42H236.61V141.04H236.69V140.66H237.54V140.28H238.22V139.9H238.64V139.52H238.64V139.14H238.73V138.76H238.81V138.38H238.9V138H238.98V137.61H239.57V137.23H239.57V136.85H239.66V136.47H239.91V136.09H240.51V135.71H240.59V135.33H240.59V134.95H241.7V134.57H241.87V134.19H242.12V133.81H242.46V133.43H242.88V133.05H243.14V132.67H243.22V132.29H243.31V131.91H243.39V131.52H243.48V131.14H243.56V130.76H243.56V130.38H243.99V130H244.07V129.62H244.33V129.24H244.66V128.86H244.92V128.48H245.34V128.1H245.77V127.72H245.77V127.34H246.19V126.96H246.28V126.58H246.45V126.2H246.87V125.82H247.04V125.44H247.72V125.05H247.8V124.67H248.06V124.29H248.23V123.91H248.91V123.53H249.16V123.15H249.5V122.77H249.59V122.39H249.92V122.01H250.43V121.63H250.6V121.25H250.77V120.87H250.77V120.49H251.11V120.11H251.2V119.73H251.37V119.35H251.45V118.97H251.79V118.58H252.81V118.2H253.15V117.82H253.49V117.44H253.66V117.06H254.25V116.68H254.34V116.3H254.34V115.92H255.86V115.54H255.95V115.16H256.2V114.78H256.54V114.4H256.97V114.02H257.05V113.64H257.47V113.26H257.9V112.88H258.15V112.5H258.15V112.11H258.49V111.73H258.58V111.35H258.75V110.97H259.09V110.59H259.34V110.21H260.27V109.83H260.61V109.45H260.95V109.07H261.55V108.69H261.8V108.31H262.31V107.93H262.9V107.55H263.16V107.17H263.41V106.79H263.58V106.41H264.52V106.03H264.52V105.64H265.11V105.26H265.79V104.88H265.79V104.5H266.55V104.12H266.98V103.74H267.15V103.36H267.15V102.98H267.74V102.6H268.42V102.22H268.84V101.84H268.93V101.46H269.01V101.08H269.52V100.7H269.86V100.32H270.12V99.94H270.12V99.56H270.62V99.17H270.62V98.79H272.24V98.41H272.49V98.03H272.58V97.65H273.08V97.27H273.25V96.89H273.34V96.51H273.59V96.13H273.76V95.75H274.19V95.37H274.53V94.99H274.61V94.61H274.95V94.23H275.29V93.85H275.46V93.47H275.46V93.09H275.88V92.7H275.88V92.32H276.56V91.94H276.56V91.56H276.73V91.18H277.16V90.8H277.5V90.42H277.75V90.04H278.68V89.66H279.02V89.28H279.36V88.9H279.79V88.52H280.04V88.14H280.72V87.76H281.65V87.38H282.59V87H283.26V86.61H283.35V86.23H285.39V85.85H286.4V85.47H287.59V85.09H289.03V84.71H289.46V84.33H290.39V83.95H290.73V83.57H290.73V83.19H291.75V82.81H292V82.43H293.11V82.05H293.87V81.67H294.55V81.29H295.82V80.91H296.24V80.53H296.92V80.14H297.26V79.76H298.45V79.38H298.53V79H299.04V78.62H300.06V78.24H300.91V77.86H301.5V77.48H302.44V77.1H302.95V76.72H303.46V76.34H303.96V75.96H305.15V75.58H305.49V75.2H305.66V74.82H305.66V74.44H306.09V74.06H307.02V73.67H307.1V73.29H307.1V72.91H307.78V72.53H308.46V72.15H308.72V71.77H309.05V71.39H310.41V71.01H310.5V70.63H312.53V70.25H313.89V69.87H314.91V69.49H315.42V69.11H315.67V68.73H316.01V68.35H316.27V67.97H317.79V67.59H318.13V67.2H319.4V66.82H320.42V66.44H322.37V66.06H322.54V65.68H326.62V65.3H327.04V64.92H328.23V64.54H328.48V64.16H328.48V63.78H328.99V63.4H333.23V63.02H333.4V62.64H334.17V62.26H337.81V61.88H339.17V61.5H339.93V61.12H341.89V60.73H342.31V60.35H344.85V59.97H347.74V59.59H348.08V59.21H348.59V58.83H351.64V58.45H351.98V58.07H353.93V57.69H354.7V57.31H355.8V56.93H358V56.55H358.85V56.17H359.28V55.79H364.54V55.41H366.06V55.03H368.69V54.65H368.69V54.26H370.98V53.88H372.85V53.5H373.11V53.12H373.95V52.74H374.46V52.36H374.63V51.98H377.01V51.6H378.45V51.22H380.23V50.84H380.57V50.46H382.27V50.08H382.61V49.7H384.9V49.32H388.46V48.94H394.65V48.56H397.96V48.18H398.39V47.79H399.32V47.41H399.74V47.03H401.95V46.65H402.63V46.27H408.57V45.89H409.58V45.51H410.26V45.13H410.6V44.75H411.2V44.37H415.86V43.99H418.83V43.61H420.19V43.23H420.44V42.85H422.65V42.47H428.59V42.09H440.12V41.7H442.84V41.32H458.03V40.94H458.11V40.56H462.18V40.18H463.79V39.8H464.47V39.42H469.56V39.04H471.26V38.66H472.28V38.28H474.65V37.9H477.88V37.52H479.49V37.14H481.1V36.76H485.85V36.38H490.94V36H494V35.62H508.33V35.23H510.96V34.85H515.29V34.47H518.77V34.09H519.95V33.71H520.21V33.33H522.25V32.95H525.04V32.57H528.86V32.19H537.35V31.81H543.45V31.43H544.05V31.05H545.57V30.67H546.59V30.29H561.27V29.91H562.46V29.53H568.4V29.15H569.92V28.76H574.33V28.38H580.27V28H585.87V27.62H586.8V27.24H593V26.86H595.71V26.48H596.99V26.1H600.29V25.72H612.17V25.34H617.18V24.96H660.36V24.58H662.82V24.2H665.02V23.82H675.8V23.44H685.81V23.06H689.96V22.68H706.08V22.29H715.92V21.91H724.32V21.53H733.15V21.15H734.76V20.77H744.26V20.39H745.36V20.01H745.87V19.63H754.78V19.25" style="fill: rgb(55, 128, 191); fill-opacity: 0.2; stroke-width: 0;"/></g></g><g class="errorbars"/><g class="lines"><path class="js-line" d="M161.44,384.62H163.56V384.24H164.24V383.86H164.33V383.48H165.43V383.1H165.51V382.72H166.53V382.34H166.87V381.96H166.87V381.57H167.21V381.19H167.46V380.81H167.55V380.43H167.55V380.05H167.72V379.67H167.8V379.29H167.97V378.91H168.23V378.53H168.57V378.15H168.82V377.77H168.91V377.39H168.99V377.01H169.42V376.63H169.5V376.25H169.5V375.87H169.67V375.49H169.76V375.1H169.76V374.72H170.6V374.34H170.6V373.96H170.86V373.58H170.94V373.2H171.03V372.82H171.2V372.44H171.54V372.06H171.62V371.68H171.79V371.3H171.96V370.92H172.05V370.54H172.13V370.16H172.39V369.78H172.47V369.4H172.55V369.02H172.72V368.63H172.72V368.25H172.81V367.87H173.06V367.49H173.57V367.11H173.83V366.73H173.83V366.35H173.91V365.97H173.91V365.59H174.17V365.21H174.17V364.83H174.25V364.45H174.25V364.07H174.34V363.69H174.42V363.31H174.68V362.93H174.76V362.55H174.85V362.16H174.85V361.78H175.1V361.4H175.18V361.02H175.27V360.64H175.44V360.26H175.52V359.88H175.61V359.5H175.78V359.12H175.86V358.74H175.86V358.36H176.03V357.98H176.2V357.6H176.29V357.22H176.29V356.84H176.29V356.46H176.37V356.07H176.37V355.69H176.37V355.31H176.46V354.93H176.54V354.55H176.63V354.17H176.63V353.79H176.63V353.41H176.8V353.03H176.88V352.65H176.97V352.27H176.97V351.89H177.22V351.51H177.39V351.13H177.39V350.75H177.48V350.37H177.56V349.99H177.64V349.6H177.64V349.22H177.73V348.84H177.81V348.46H177.81V348.08H177.9V347.7H177.9V347.32H178.15V346.94H178.24V346.56H178.41V346.18H178.41V345.8H178.41V345.42H178.49V345.04H178.58V344.66H178.75V344.28H178.75V343.9H178.75V343.52H178.92V343.13H179V342.75H179.17V342.37H179.26V341.99H179.51V341.61H179.51V341.23H179.6V340.85H179.77V340.47H180.19V340.09H180.27V339.71H180.36V339.33H180.36V338.95H180.44V338.57H180.53V338.19H180.87V337.81H180.87V337.43H180.87V337.05H180.87V336.66H180.87V336.28H180.87V335.9H180.95V335.52H181.04V335.14H181.12V334.76H181.21V334.38H181.29V334H181.46V333.62H181.46V333.24H181.46V332.86H181.55V332.48H181.63V332.1H181.63V331.72H181.72V331.34H181.72V330.96H181.72V330.58H181.8V330.19H181.8V329.81H181.97V329.43H181.97V329.05H182.06V328.67H182.14V328.29H182.31V327.91H182.4V327.53H182.4V327.15H182.48V326.77H182.57V326.39H182.57V326.01H182.65V325.63H182.82V325.25H182.99V324.87H182.99V324.49H182.99V324.11H183.16V323.72H183.16V323.34H183.24V322.96H183.33V322.58H183.33V322.2H183.41V321.82H183.5V321.44H183.67V321.06H183.67V320.68H183.67V320.3H183.67V319.92H183.84V319.54H183.84V319.16H183.84V318.78H183.84V318.4H184.01V318.02H184.09V317.64H184.18V317.25H184.26V316.87H184.26V316.49H184.6V316.11H184.6V315.73H184.6V315.35H184.69V314.97H184.86V314.59H184.86V314.21H184.86V313.83H184.94V313.45H184.94V313.07H184.94V312.69H185.03V312.31H185.03V311.93H185.11V311.55H185.45V311.16H185.53V310.78H185.62V310.4H185.79V310.02H185.79V309.64H185.87V309.26H185.87V308.88H185.96V308.5H185.96V308.12H185.96V307.74H186.04V307.36H186.04V306.98H186.13V306.6H186.21V306.22H186.21V305.84H186.38V305.46H186.38V305.08H186.38V304.69H186.47V304.31H186.47V303.93H186.47V303.55H186.64V303.17H186.64V302.79H186.81V302.41H186.89V302.03H186.89V301.65H186.89V301.27H186.89V300.89H186.89V300.51H186.89V300.13H186.98V299.75H187.06V299.37H187.06V298.99H187.15V298.61H187.23V298.22H187.4V297.84H187.49V297.46H187.49V297.08H187.49V296.7H187.66V296.32H187.74V295.94H187.91V295.56H187.99V295.18H187.99V294.8H188.08V294.42H188.25V294.04H188.25V293.66H188.5V293.28H188.59V292.9H188.67V292.52H188.67V292.14H188.76V291.75H188.84V291.37H188.84V290.99H188.93V290.61H189.01V290.23H189.18V289.85H189.27V289.47H189.27V289.09H189.27V288.71H189.35V288.33H189.35V287.95H189.35V287.57H189.52V287.19H189.52V286.81H189.61V286.43H189.78V286.05H189.86V285.67H189.95V285.28H190.12V284.9H190.12V284.52H190.12V284.14H190.12V283.76H190.2V283.38H190.29V283H190.29V282.62H190.62V282.24H190.62V281.86H190.71V281.48H190.79V281.1H190.79V280.72H190.96V280.34H190.96V279.96H191.05V279.58H191.05V279.2H191.13V278.81H191.39V278.43H191.56V278.05H191.56V277.67H191.64V277.29H191.9V276.91H191.98V276.53H192.07V276.15H192.07V275.77H192.24V275.39H192.24V275.01H192.41V274.63H192.49V274.25H192.58V273.87H192.66V273.49H192.75V273.11H192.92V272.73H192.92V272.34H193V271.96H193.08V271.58H193.17V271.2H193.25V270.82H193.34V270.44H193.34V270.06H193.42V269.68H193.51V269.3H193.51V268.92H193.68V268.54H193.85V268.16H193.85V267.78H193.93V267.4H193.93V267.02H194.02V266.64H194.02V266.25H194.1V265.87H194.19V265.49H194.27V265.11H194.36V264.73H194.44V264.35H194.44V263.97H194.7V263.59H194.95V263.21H195.12V262.83H195.21V262.45H195.21V262.07H195.29V261.69H195.38V261.31H195.46V260.93H195.46V260.55H195.55V260.17H195.8V259.78H195.97V259.4H195.97V259.02H196.05V258.64H196.22V258.26H196.31V257.88H196.56V257.5H196.56V257.12H196.9V256.74H196.99V256.36H197.07V255.98H197.07V255.6H197.24V255.22H197.24V254.84H197.24V254.46H197.33V254.08H197.33V253.7H197.33V253.31H197.5V252.93H197.5V252.55H197.58V252.17H197.67V251.79H197.75V251.41H197.75V251.03H197.75V250.65H197.84V250.27H198.01V249.89H198.01V249.51H198.26V249.13H198.26V248.75H198.34V248.37H198.51V247.99H198.51V247.61H198.51V247.23H198.68V246.84H198.68V246.46H198.77V246.08H198.85V245.7H198.85V245.32H199.02V244.94H199.11V244.56H199.19V244.18H199.19V243.8H199.28V243.42H199.28V243.04H199.36V242.66H199.45V242.28H199.53V241.9H199.62V241.52H199.62V241.14H199.87V240.76H199.87V240.37H199.96V239.99H200.21V239.61H200.38V239.23H200.38V238.85H200.64V238.47H200.8V238.09H200.89V237.71H200.97V237.33H201.14V236.95H201.23V236.57H201.23V236.19H201.31V235.81H201.31V235.43H201.31V235.05H201.4V234.67H201.48V234.29H201.65V233.9H201.82V233.52H201.82V233.14H201.82V232.76H201.91V232.38H201.91V232H202.08V231.62H202.33V231.24H202.59V230.86H202.67V230.48H202.76V230.1H202.84V229.72H203.01V229.34H203.01V228.96H203.18V228.58H203.18V228.2H203.43V227.82H203.52V227.43H203.6V227.05H204.11V226.67H204.11V226.29H204.11V225.91H204.2V225.53H204.37V225.15H204.45V224.77H204.45V224.39H204.45V224.01H204.62V223.63H204.71V223.25H204.79V222.87H204.96V222.49H205.05V222.11H205.05V221.73H205.05V221.34H205.13V220.96H205.22V220.58H205.47V220.2H205.47V219.82H205.56V219.44H205.64V219.06H205.64V218.68H205.98V218.3H205.98V217.92H206.06V217.54H206.06V217.16H206.15V216.78H206.15V216.4H206.49V216.02H206.49V215.64H206.57V215.26H206.66V214.87H206.66V214.49H207V214.11H207.25V213.73H207.25V213.35H207.42V212.97H207.42V212.59H207.59V212.21H207.59V211.83H207.68V211.45H207.85V211.07H207.85V210.69H208.02V210.31H208.1V209.93H208.19V209.55H208.61V209.17H208.78V208.79H208.86V208.4H209.03V208.02H209.8V207.64H209.88V207.26H209.88V206.88H209.97V206.5H209.97V206.12H210.14V205.74H210.22V205.36H210.39V204.98H210.56V204.6H210.82V204.22H210.9V203.84H211.07V203.46H211.07V203.08H211.24V202.7H211.32V202.32H211.58V201.93H211.83V201.55H211.83V201.17H211.83V200.79H212.34V200.41H212.34V200.03H212.34V199.65H212.6V199.27H212.77V198.89H212.77V198.51H213.02V198.13H213.11V197.75H213.11V197.37H213.28V196.99H213.28V196.61H213.36V196.23H213.45V195.85H213.53V195.46H213.7V195.08H213.78V194.7H214.21V194.32H214.21V193.94H214.29V193.56H214.29V193.18H214.97V192.8H215.14V192.42H215.4V192.04H215.48V191.66H215.48V191.28H215.57V190.9H215.91V190.52H215.99V190.14H215.99V189.76H216.08V189.38H216.08V188.99H216.16V188.61H216.24V188.23H216.33V187.85H216.33V187.47H216.41V187.09H216.5V186.71H216.67V186.33H216.67V185.95H216.67V185.57H216.84V185.19H216.84V184.81H217.09V184.43H217.09V184.05H217.18V183.67H217.52V183.29H217.69V182.91H217.77V182.52H217.77V182.14H217.94V181.76H218.28V181.38H218.54V181H218.79V180.62H218.96V180.24H219.04V179.86H219.13V179.48H219.89V179.1H220.32V178.72H220.66V178.34H221V177.96H221.17V177.58H221.25V177.2H221.33V176.82H221.42V176.43H221.67V176.05H221.76V175.67H221.76V175.29H221.76V174.91H221.76V174.53H222.1V174.15H222.27V173.77H222.27V173.39H222.35V173.01H222.44V172.63H222.44V172.25H222.52V171.87H222.95V171.49H222.95V171.11H223.03V170.73H223.12V170.35H223.2V169.96H223.29V169.58H223.63V169.2H223.88V168.82H223.88V168.44H224.05V168.06H224.05V167.68H224.05V167.3H224.13V166.92H224.3V166.54H224.39V166.16H224.47V165.78H224.56V165.4H224.81V165.02H224.9V164.64H225.15V164.26H225.32V163.88H225.92V163.49H226V163.11H226.17V162.73H226.51V162.35H226.59V161.97H226.68V161.59H227.1V161.21H227.1V160.83H227.19V160.45H227.19V160.07H227.36V159.69H227.36V159.31H227.44V158.93H227.44V158.55H227.44V158.17H227.61V157.79H227.7V157.41H227.87V157.02H228.29V156.64H228.38V156.26H228.46V155.88H228.55V155.5H229.22V155.12H229.22V154.74H229.48V154.36H229.65V153.98H230.16V153.6H230.58V153.22H230.58V152.84H230.58V152.46H230.84V152.08H230.84V151.7H230.84V151.32H230.92V150.94H231.6V150.55H231.85V150.17H231.85V149.79H231.94V149.41H232.02V149.03H232.11V148.65H232.62V148.27H232.7V147.89H232.7V147.51H232.79V147.13H232.87V146.75H233.13V146.37H233.21V145.99H233.21V145.61H234.06V145.23H234.82V144.85H235.08V144.47H235.08V144.08H235.16V143.7H235.25V143.32H235.42V142.94H235.42V142.56H235.42V142.18H235.84V141.8H236.01V141.42H236.61V141.04H236.69V140.66H237.54V140.28H238.22V139.9H238.64V139.52H238.64V139.14H238.73V138.76H238.81V138.38H238.9V138H238.98V137.61H239.57V137.23H239.57V136.85H239.66V136.47H239.91V136.09H240.51V135.71H240.59V135.33H240.59V134.95H241.7V134.57H241.87V134.19H242.12V133.81H242.46V133.43H242.88V133.05H243.14V132.67H243.22V132.29H243.31V131.91H243.39V131.52H243.48V131.14H243.56V130.76H243.56V130.38H243.99V130H244.07V129.62H244.33V129.24H244.66V128.86H244.92V128.48H245.34V128.1H245.77V127.72H245.77V127.34H246.19V126.96H246.28V126.58H246.45V126.2H246.87V125.82H247.04V125.44H247.72V125.05H247.8V124.67H248.06V124.29H248.23V123.91H248.91V123.53H249.16V123.15H249.5V122.77H249.59V122.39H249.92V122.01H250.43V121.63H250.6V121.25H250.77V120.87H250.77V120.49H251.11V120.11H251.2V119.73H251.37V119.35H251.45V118.97H251.79V118.58H252.81V118.2H253.15V117.82H253.49V117.44H253.66V117.06H254.25V116.68H254.34V116.3H254.34V115.92H255.86V115.54H255.95V115.16H256.2V114.78H256.54V114.4H256.97V114.02H257.05V113.64H257.47V113.26H257.9V112.88H258.15V112.5H258.15V112.11H258.49V111.73H258.58V111.35H258.75V110.97H259.09V110.59H259.34V110.21H260.27V109.83H260.61V109.45H260.95V109.07H261.55V108.69H261.8V108.31H262.31V107.93H262.9V107.55H263.16V107.17H263.41V106.79H263.58V106.41H264.52V106.03H264.52V105.64H265.11V105.26H265.79V104.88H265.79V104.5H266.55V104.12H266.98V103.74H267.15V103.36H267.15V102.98H267.74V102.6H268.42V102.22H268.84V101.84H268.93V101.46H269.01V101.08H269.52V100.7H269.86V100.32H270.12V99.94H270.12V99.56H270.62V99.17H270.62V98.79H272.24V98.41H272.49V98.03H272.58V97.65H273.08V97.27H273.25V96.89H273.34V96.51H273.59V96.13H273.76V95.75H274.19V95.37H274.53V94.99H274.61V94.61H274.95V94.23H275.29V93.85H275.46V93.47H275.46V93.09H275.88V92.7H275.88V92.32H276.56V91.94H276.56V91.56H276.73V91.18H277.16V90.8H277.5V90.42H277.75V90.04H278.68V89.66H279.02V89.28H279.36V88.9H279.79V88.52H280.04V88.14H280.72V87.76H281.65V87.38H282.59V87H283.26V86.61H283.35V86.23H285.39V85.85H286.4V85.47H287.59V85.09H289.03V84.71H289.46V84.33H290.39V83.95H290.73V83.57H290.73V83.19H291.75V82.81H292V82.43H293.11V82.05H293.87V81.67H294.55V81.29H295.82V80.91H296.24V80.53H296.92V80.14H297.26V79.76H298.45V79.38H298.53V79H299.04V78.62H300.06V78.24H300.91V77.86H301.5V77.48H302.44V77.1H302.95V76.72H303.46V76.34H303.96V75.96H305.15V75.58H305.49V75.2H305.66V74.82H305.66V74.44H306.09V74.06H307.02V73.67H307.1V73.29H307.1V72.91H307.78V72.53H308.46V72.15H308.72V71.77H309.05V71.39H310.41V71.01H310.5V70.63H312.53V70.25H313.89V69.87H314.91V69.49H315.42V69.11H315.67V68.73H316.01V68.35H316.27V67.97H317.79V67.59H318.13V67.2H319.4V66.82H320.42V66.44H322.37V66.06H322.54V65.68H326.62V65.3H327.04V64.92H328.23V64.54H328.48V64.16H328.48V63.78H328.99V63.4H333.23V63.02H333.4V62.64H334.17V62.26H337.81V61.88H339.17V61.5H339.93V61.12H341.89V60.73H342.31V60.35H344.85V59.97H347.74V59.59H348.08V59.21H348.59V58.83H351.64V58.45H351.98V58.07H353.93V57.69H354.7V57.31H355.8V56.93H358V56.55H358.85V56.17H359.28V55.79H364.54V55.41H366.06V55.03H368.69V54.65H368.69V54.26H370.98V53.88H372.85V53.5H373.11V53.12H373.95V52.74H374.46V52.36H374.63V51.98H377.01V51.6H378.45V51.22H380.23V50.84H380.57V50.46H382.27V50.08H382.61V49.7H384.9V49.32H388.46V48.94H394.65V48.56H397.96V48.18H398.39V47.79H399.32V47.41H399.74V47.03H401.95V46.65H402.63V46.27H408.57V45.89H409.58V45.51H410.26V45.13H410.6V44.75H411.2V44.37H415.86V43.99H418.83V43.61H420.19V43.23H420.44V42.85H422.65V42.47H428.59V42.09H440.12V41.7H442.84V41.32H458.03V40.94H458.11V40.56H462.18V40.18H463.79V39.8H464.47V39.42H469.56V39.04H471.26V38.66H472.28V38.28H474.65V37.9H477.88V37.52H479.49V37.14H481.1V36.76H485.85V36.38H490.94V36H494V35.62H508.33V35.23H510.96V34.85H515.29V34.47H518.77V34.09H519.95V33.71H520.21V33.33H522.25V32.95H525.04V32.57H528.86V32.19H537.35V31.81H543.45V31.43H544.05V31.05H545.57V30.67H546.59V30.29H561.27V29.91H562.46V29.53H568.4V29.15H569.92V28.76H574.33V28.38H580.27V28H585.87V27.62H586.8V27.24H593V26.86H595.71V26.48H596.99V26.1H600.29V25.72H612.17V25.34H617.18V24.96H660.36V24.58H662.82V24.2H665.02V23.82H675.8V23.44H685.81V23.06H689.96V22.68H706.08V22.29H715.92V21.91H724.32V21.53H733.15V21.15H734.76V20.77H744.26V20.39H745.36V20.01H745.87V19.63H754.78V19.25" style="vector-effect: non-scaling-stroke; fill: none; stroke: rgb(76, 120, 168); stroke-opacity: 1; stroke-width: 3px; opacity: 1;"/></g><g class="points"/><g class="text"/></g></g></g><g class="overplot"/><path class="xlines-above crisp" d="M0,0" style="fill: none;"/><path class="ylines-above crisp" d="M0,0" style="fill: none;"/><g class="overlines-above"/><g class="xaxislayer-above"><g class="xtick"><text text-anchor="middle" x="0" y="455" transform="translate(86.48,0)" style="font-family: 'Open Sans', verdana, arial, sans-serif; font-size: 19px; fill: rgb(42, 63, 95); fill-opacity: 1; white-space: pre; opacity: 1;">11</text></g><g class="xtick"><text text-anchor="middle" x="0" y="455" style="font-family: 'Open Sans', verdana, arial, sans-serif; font-size: 19px; fill: rgb(42, 63, 95); fill-opacity: 1; white-space: pre; opacity: 1;" transform="translate(171.32,0)">12</text></g><g class="xtick"><text text-anchor="middle" x="0" y="455" style="font-family: 'Open Sans', verdana, arial, sans-serif; font-size: 19px; fill: rgb(42, 63, 95); fill-opacity: 1; white-space: pre; opacity: 1;" transform="translate(256.15,0)">13</text></g><g class="xtick"><text text-anchor="middle" x="0" y="455" style="font-family: 'Open Sans', verdana, arial, sans-serif; font-size: 19px; fill: rgb(42, 63, 95); fill-opacity: 1; white-space: pre; opacity: 1;" transform="translate(340.99,0)">14</text></g><g class="xtick"><text text-anchor="middle" x="0" y="455" style="font-family: 'Open Sans', verdana, arial, sans-serif; font-size: 19px; fill: rgb(42, 63, 95); fill-opacity: 1; white-space: pre; opacity: 1;" transform="translate(425.82,0)">15</text></g><g class="xtick"><text text-anchor="middle" x="0" y="455" style="font-family: 'Open Sans', verdana, arial, sans-serif; font-size: 19px; fill: rgb(42, 63, 95); fill-opacity: 1; white-space: pre; opacity: 1;" transform="translate(510.66,0)">16</text></g><g class="xtick"><text text-anchor="middle" x="0" y="455" style="font-family: 'Open Sans', verdana, arial, sans-serif; font-size: 19px; fill: rgb(42, 63, 95); fill-opacity: 1; white-space: pre; opacity: 1;" transform="translate(595.49,0)">17</text></g><g class="xtick"><text text-anchor="middle" x="0" y="455" style="font-family: 'Open Sans', verdana, arial, sans-serif; font-size: 19px; fill: rgb(42, 63, 95); fill-opacity: 1; white-space: pre; opacity: 1;" transform="translate(680.33,0)">18</text></g><g class="xtick"><text text-anchor="middle" x="0" y="455" style="font-family: 'Open Sans', verdana, arial, sans-serif; font-size: 19px; fill: rgb(42, 63, 95); fill-opacity: 1; white-space: pre; opacity: 1;" transform="translate(765.16,0)">19</text></g><g class="xtick"><text text-anchor="middle" x="0" y="455" style="font-family: 'Open Sans', verdana, arial, sans-serif; font-size: 19px; fill: rgb(42, 63, 95); fill-opacity: 1; white-space: pre; opacity: 1;" transform="translate(850,0)">20</text></g></g><g class="yaxislayer-above"><g class="ytick"><text text-anchor="end" x="77" y="6.6499999999999995" transform="translate(0,435)" style="font-family: 'Open Sans', verdana, arial, sans-serif; font-size: 19px; fill: rgb(42, 63, 95); fill-opacity: 1; white-space: pre; opacity: 1;">0</text></g><g class="ytick"><text text-anchor="end" x="77" y="6.6499999999999995" style="font-family: 'Open Sans', verdana, arial, sans-serif; font-size: 19px; fill: rgb(42, 63, 95); fill-opacity: 1; white-space: pre; opacity: 1;" transform="translate(0,396.94)">10</text></g><g class="ytick"><text text-anchor="end" x="77" y="6.6499999999999995" style="font-family: 'Open Sans', verdana, arial, sans-serif; font-size: 19px; fill: rgb(42, 63, 95); fill-opacity: 1; white-space: pre; opacity: 1;" transform="translate(0,358.88)">20</text></g><g class="ytick"><text text-anchor="end" x="77" y="6.6499999999999995" style="font-family: 'Open Sans', verdana, arial, sans-serif; font-size: 19px; fill: rgb(42, 63, 95); fill-opacity: 1; white-space: pre; opacity: 1;" transform="translate(0,320.82)">30</text></g><g class="ytick"><text text-anchor="end" x="77" y="6.6499999999999995" style="font-family: 'Open Sans', verdana, arial, sans-serif; font-size: 19px; fill: rgb(42, 63, 95); fill-opacity: 1; white-space: pre; opacity: 1;" transform="translate(0,282.76)">40</text></g><g class="ytick"><text text-anchor="end" x="77" y="6.6499999999999995" style="font-family: 'Open Sans', verdana, arial, sans-serif; font-size: 19px; fill: rgb(42, 63, 95); fill-opacity: 1; white-space: pre; opacity: 1;" transform="translate(0,244.7)">50</text></g><g class="ytick"><text text-anchor="end" x="77" y="6.6499999999999995" style="font-family: 'Open Sans', verdana, arial, sans-serif; font-size: 19px; fill: rgb(42, 63, 95); fill-opacity: 1; white-space: pre; opacity: 1;" transform="translate(0,206.64)">60</text></g><g class="ytick"><text text-anchor="end" x="77" y="6.6499999999999995" style="font-family: 'Open Sans', verdana, arial, sans-serif; font-size: 19px; fill: rgb(42, 63, 95); fill-opacity: 1; white-space: pre; opacity: 1;" transform="translate(0,168.57999999999998)">70</text></g><g class="ytick"><text text-anchor="end" x="77" y="6.6499999999999995" style="font-family: 'Open Sans', verdana, arial, sans-serif; font-size: 19px; fill: rgb(42, 63, 95); fill-opacity: 1; white-space: pre; opacity: 1;" transform="translate(0,130.53)">80</text></g><g class="ytick"><text text-anchor="end" x="77" y="6.6499999999999995" style="font-family: 'Open Sans', verdana, arial, sans-serif; font-size: 19px; fill: rgb(42, 63, 95); fill-opacity: 1; white-space: pre; opacity: 1;" transform="translate(0,92.47)">90</text></g><g class="ytick"><text text-anchor="end" x="77" y="6.6499999999999995" style="font-family: 'Open Sans', verdana, arial, sans-serif; font-size: 19px; fill: rgb(42, 63, 95); fill-opacity: 1; white-space: pre; opacity: 1;" transform="translate(0,54.41)">100</text></g></g><g class="overaxes-above"/></g></g><g class="polarlayer"/><g class="ternarylayer"/><g class="geolayer"/><g class="funnelarealayer"/><g class="pielayer"/><g class="iciclelayer"/><g class="treemaplayer"/><g class="sunburstlayer"/><g class="glimages"/><defs id="topdefs-da3657"><g class="clips"/></defs><g class="layer-above"><g class="imagelayer"/><g class="shapelayer"><path data-index="0" fill-rule="evenodd" d="M138.23,435L138.23,54.41" clip-path="url(#clipda3657xy)" style="opacity: 1; stroke: rgb(214, 39, 40); stroke-opacity: 0.7; fill: rgb(0, 0, 0); fill-opacity: 0; stroke-dasharray: 12px, 12px; stroke-width: 4px;"/><path data-index="1" fill-rule="evenodd" d="M187.44,435L187.44,54.41" clip-path="url(#clipda3657xy)" style="opacity: 1; stroke: rgb(214, 39, 40); stroke-opacity: 0.7; fill: rgb(0, 0, 0); fill-opacity: 0; stroke-dasharray: 12px, 12px; stroke-width: 4px;"/><path data-index="2" fill-rule="evenodd" d="M425.82,435L425.82,54.41" clip-path="url(#clipda3657xy)" style="opacity: 1; stroke: rgb(214, 39, 40); stroke-opacity: 0.7; fill: rgb(0, 0, 0); fill-opacity: 0; stroke-dasharray: 12px, 12px; stroke-width: 4px;"/></g></g><g class="infolayer"><g class="g-gtitle"/><g class="g-xtitle"><text class="xtitle" x="464" y="490.1" text-anchor="middle" style="font-family: 'Open Sans', verdana, arial, sans-serif; font-size: 23px; fill: rgb(42, 63, 95); opacity: 1; font-weight: normal; white-space: pre;">Costs [€]</text></g><g class="g-ytitle" transform="translate(13.349609375,0)"><text class="ytitle" transform="rotate(-90,9.650000000000006,242.5)" x="9.650000000000006" y="242.5" text-anchor="middle" style="font-family: 'Open Sans', verdana, arial, sans-serif; font-size: 23px; fill: rgb(42, 63, 95); opacity: 1; font-weight: normal; white-space: pre;">Cummulative distribution [%]</text></g></g></svg>