<svg class="main-svg" xmlns="http://www.w3.org/2000/svg" xmlns:xlink="http://www.w3.org/1999/xlink" width="750" height="600" viewBox="0 0 750 600"><rect x="0" y="0" width="750" height="600" style="fill: rgb(255, 255, 255); fill-opacity: 1;"/><defs id="defs-1d955d"><g class="clips"><clipPath id="clip1d955dxyplot" class="plotclip"><rect width="618" height="485"/></clipPath><clipPath class="axesclip" id="clip1d955dx"><rect x="82" y="0" width="618" height="600"/></clipPath><clipPath class="axesclip" id="clip1d955dy"><rect x="0" y="50" width="750" height="485"/></clipPath><clipPath class="axesclip" id="clip1d955dxy"><rect x="82" y="50" width="618" height="485"/></clipPath></g><g class="gradients"/><g class="patterns"/></defs><g class="bglayer"/><g class="layer-below"><g class="imagelayer"/><g class="shapelayer"/></g><g class="cartesianlayer"><g class="subplot xy"><g class="layer-subplot"><g class="shapelayer"/><g class="imagelayer"/></g><g class="gridlayer"><g class="x"><path class="xgrid crisp" transform="translate(182.45,0)" d="M0,50v485" style="stroke: rgb(235, 240, 248); stroke-opacity: 1; stroke-width: 1px;"/><path class="xgrid crisp" transform="translate(286.3,0)" d="M0,50v485" style="stroke: rgb(235, 240, 248); stroke-opacity: 1; stroke-width: 1px;"/><path class="xgrid crisp" transform="translate(390.15,0)" d="M0,50v485" style="stroke: rgb(235, 240, 248); stroke-opacity: 1; stroke-width: 1px;"/><path class="xgrid crisp" transform="translate(495.7,0)" d="M0,50v485" style="stroke: rgb(235, 240, 248); stroke-opacity: 1; stroke-width: 1px;"/><path class="xgrid crisp" transform="translate(599.55,0)" d="M0,50v485" style="stroke: rgb(235, 240, 248); stroke-opacity: 1; stroke-width: 1px;"/></g><g class="y"><path class="ygrid crisp" transform="translate(0,475.12)" d="M82,0h618" style="stroke: rgb(235, 240, 248); stroke-opacity: 1; stroke-width: 1px;"/><path class="ygrid crisp" transform="translate(0,415.25)" d="M82,0h618" style="stroke: rgb(235, 240, 248); stroke-opacity: 1; stroke-width: 1px;"/><path class="ygrid crisp" transform="translate(0,355.37)" d="M82,0h618" style="stroke: rgb(235, 240, 248); stroke-opacity: 1; stroke-width: 1px;"/><path class="ygrid crisp" transform="translate(0,295.49)" d="M82,0h618" style="stroke: rgb(235, 240, 248); stroke-opacity: 1; stroke-width: 1px;"/><path class="ygrid crisp" transform="translate(0,235.62)" d="M82,0h618" style="stroke: rgb(235, 240, 248); stroke-opacity: 1; stroke-width: 1px;"/><path class="ygrid crisp" transform="translate(0,175.74)" d="M82,0h618" style="stroke: rgb(235, 240, 248); stroke-opacity: 1; stroke-width: 1px;"/><path class="ygrid crisp" transform="translate(0,115.86)" d="M82,0h618" style="stroke: rgb(235, 240, 248); stroke-opacity: 1; stroke-width: 1px;"/><path class="ygrid crisp" transform="translate(0,55.99)" d="M82,0h618" style="stroke: rgb(235, 240, 248); stroke-opacity: 1; stroke-width: 1px;"/></g></g><g class="zerolinelayer"><path class="yzl zl crisp" transform="translate(0,535)" d="M82,0h618" style="stroke: rgb(0, 0, 0); stroke-opacity: 1; stroke-width: 2px;"/></g><path class="xlines-below"/><path class="ylines-below"/><g class="overlines-below"/><g class="xaxislayer-below"/><g class="yaxislayer-below"/><g class="overaxes-below"/><g class="plot" transform="translate(82,50)" clip-path="url(#clip1d955dxyplot)"><g class="scatterlayer mlayer"><g class="trace scatter trace5ab403" style="stroke-miterlimit: 2; opacity: 1;"><g class="fills"/><g class="errorbars"/><g class="lines"><path class="js-line" d="M0,477.51L10.21,464.16L15.32,459.17L30.64,442.08L35.75,436.19L40.86,431.29L45.97,424.92L81.72,384.78L86.83,379.84L97.04,368.87L102.15,364L112.36,355.08L117.47,350L143.01,329.38L148.12,324.79L194.08,289.76L199.19,286.01L214.51,276.65L219.62,273.51L229.83,267.78L234.94,264.35L250.26,254.19L255.37,251.93L331.98,216.59L337.09,214.16L434.13,173.88L439.24,171.17L495.42,140.79L500.53,138.4L515.85,129.78L520.96,125.31L531.17,117.35L536.28,113.4L561.82,93.15L566.93,87.82L582.25,73.49L587.36,68.54L618,40.9" style="vector-effect: non-scaling-stroke; fill: none; stroke: rgb(76, 120, 168); stroke-opacity: 1; stroke-width: 4px; opacity: 1;"/></g><g class="points"/><g class="text"/></g><g class="trace scatter trace11f703" style="stroke-miterlimit: 2; opacity: 1;"><g class="fills"/><g class="errorbars"/><g class="lines"><path class="js-line" d="M0,477.56L10.21,465.92L15.32,461.42L25.54,451.42L30.64,445.53L35.75,440.42L40.86,436.77L76.61,399.02L81.72,395.54L86.83,391.82L91.93,386.72L102.15,378.85L107.26,376.08L122.58,367.11L127.69,364.78L132.79,361.27L137.9,359.08L148.12,353.5L153.22,350.69L168.55,343.98L173.65,342.26L194.08,330.99L199.19,328.76L204.3,325.87L209.4,324.33L224.73,320.22L229.83,318.69L245.16,312.3L250.26,310.73L291.12,304.92L296.23,304.22L316.66,300.97L321.77,298.62L342.2,294.58L347.31,294.12L362.63,290.58L367.74,289.99L434.13,283.87L439.24,282.35L459.67,276.84L464.78,275.8L474.99,272.82L480.1,270.54L495.42,266.53L500.53,265.6L510.74,263.04L515.85,261.15L520.96,257.05L526.07,254.71L561.82,229.64L566.93,224.7L592.46,202.89L597.57,199.12L602.68,196.06L607.79,191.18L612.89,187.04L618,184.56" style="vector-effect: non-scaling-stroke; fill: none; stroke: rgb(245, 133, 24); stroke-opacity: 1; stroke-width: 4px; opacity: 1;"/></g><g class="points"/><g class="text"/></g><g class="trace scatter trace7f4a8f" style="stroke-miterlimit: 2; opacity: 1;"><g class="fills"/><g class="errorbars"/><g class="lines"><path class="js-line" d="M0,477.79L10.21,466.09L15.32,461.74L25.54,451.77L30.64,445.53L35.75,440.55L40.86,436.98L51.07,426.14L56.18,421.13L71.5,404.39L76.61,399.3L86.83,391.99L91.93,386.65L102.15,378.72L107.26,376.17L122.58,367.18L127.69,364.85L132.79,361.23L137.9,358.88L143.01,356.7L148.12,353.52L158.33,348.3L163.44,345.99L178.76,339.22L183.87,335.99L194.08,330.99L199.19,328.63L204.3,325.72L209.4,324.05L234.94,316.46L240.05,314.06L250.26,310.6L255.37,309.85L260.48,308.62L265.59,308.51L275.8,307.39L280.91,306.61L291.12,304.92L296.23,304.25L316.66,300.96L321.77,298.91L342.2,294.84L347.31,294.41L357.52,291.73L362.63,290.92L393.27,288.74L398.38,288.6L403.49,287.28L408.6,287.06L434.13,284.69L439.24,283.33L449.45,280.04L454.56,279.25L459.67,277.46L464.78,276.58L474.99,273.74L480.1,271.48L495.42,267.11L500.53,266.39L510.74,263.83L515.85,262.12L520.96,257.65L526.07,255.67L536.28,248.21L541.39,244.45L551.6,237.79L556.71,233.91L561.82,230.48L566.93,225.26L582.25,212.08L587.36,207.14L607.79,192.06L612.89,187.91L618,185.09" style="vector-effect: non-scaling-stroke; fill: none; stroke: rgb(228, 87, 86); stroke-opacity: 1; stroke-width: 2px; opacity: 1;"/></g><g class="points"/><g class="text"/></g></g></g><g class="overplot"/><path class="xlines-above crisp" d="M0,0" style="fill: none;"/><path class="ylines-above crisp" d="M81,50V535" style="fill: none; stroke-width: 2px; stroke: rgb(0, 0, 0); stroke-opacity: 1;"/><g class="overlines-above"/><g class="xaxislayer-above"><g class="xtick"><text text-anchor="middle" x="0" y="555" transform="translate(82,0)" style="font-family: 'Open Sans', verdana, arial, sans-serif; font-size: 19px; fill: rgb(42, 63, 95); fill-opacity: 1; white-space: pre; opacity: 1;">Jan 2019</text></g><g class="xtick"><text text-anchor="middle" x="0" y="555" style="font-family: 'Open Sans', verdana, arial, sans-serif; font-size: 19px; fill: rgb(42, 63, 95); fill-opacity: 1; white-space: pre; opacity: 1;" transform="translate(182.45,0)">Mar 2019</text></g><g class="xtick"><text text-anchor="middle" x="0" y="555" style="font-family: 'Open Sans', verdana, arial, sans-serif; font-size: 19px; fill: rgb(42, 63, 95); fill-opacity: 1; white-space: pre; opacity: 1;" transform="translate(286.3,0)">May 2019</text></g><g class="xtick"><text text-anchor="middle" x="0" y="555" style="font-family: 'Open Sans', verdana, arial, sans-serif; font-size: 19px; fill: rgb(42, 63, 95); fill-opacity: 1; white-space: pre; opacity: 1;" transform="translate(390.15,0)">Jul 2019</text></g><g class="xtick"><text text-anchor="middle" x="0" y="555" style="font-family: 'Open Sans', verdana, arial, sans-serif; font-size: 19px; fill: rgb(42, 63, 95); fill-opacity: 1; white-space: pre; opacity: 1;" transform="translate(495.7,0)">Sep 2019</text></g><g class="xtick"><text text-anchor="middle" x="0" y="555" style="font-family: 'Open Sans', verdana, arial, sans-serif; font-size: 19px; fill: rgb(42, 63, 95); fill-opacity: 1; white-space: pre; opacity: 1;" transform="translate(599.55,0)">Nov 2019</text></g></g><g class="yaxislayer-above"><g class="ytick"><text text-anchor="end" x="76.2" y="6.6499999999999995" transform="translate(0,535)" style="font-family: 'Open Sans', verdana, arial, sans-serif; font-size: 19px; fill: rgb(42, 63, 95); fill-opacity: 1; white-space: pre; opacity: 1;">0</text></g><g class="ytick"><text text-anchor="end" x="76.2" y="6.6499999999999995" style="font-family: 'Open Sans', verdana, arial, sans-serif; font-size: 19px; fill: rgb(42, 63, 95); fill-opacity: 1; white-space: pre; opacity: 1;" transform="translate(0,475.12)">10k</text></g><g class="ytick"><text text-anchor="end" x="76.2" y="6.6499999999999995" style="font-family: 'Open Sans', verdana, arial, sans-serif; font-size: 19px; fill: rgb(42, 63, 95); fill-opacity: 1; white-space: pre; opacity: 1;" transform="translate(0,415.25)">20k</text></g><g class="ytick"><text text-anchor="end" x="76.2" y="6.6499999999999995" style="font-family: 'Open Sans', verdana, arial, sans-serif; font-size: 19px; fill: rgb(42, 63, 95); fill-opacity: 1; white-space: pre; opacity: 1;" transform="translate(0,355.37)">30k</text></g><g class="ytick"><text text-anchor="end" x="76.2" y="6.6499999999999995" style="font-family: 'Open Sans', verdana, arial, sans-serif; font-size: 19px; fill: rgb(42, 63, 95); fill-opacity: 1; white-space: pre; opacity: 1;" transform="translate(0,295.49)">40k</text></g><g class="ytick"><text text-anchor="end" x="76.2" y="6.6499999999999995" style="font-family: 'Open Sans', verdana, arial, sans-serif; font-size: 19px; fill: rgb(42, 63, 95); fill-opacity: 1; white-space: pre; opacity: 1;" transform="translate(0,235.62)">50k</text></g><g class="ytick"><text text-anchor="end" x="76.2" y="6.6499999999999995" style="font-family: 'Open Sans', verdana, arial, sans-serif; font-size: 19px; fill: rgb(42, 63, 95); fill-opacity: 1; white-space: pre; opacity: 1;" transform="translate(0,175.74)">60k</text></g><g class="ytick"><text text-anchor="end" x="76.2" y="6.6499999999999995" style="font-family: 'Open Sans', verdana, arial, sans-serif; font-size: 19px; fill: rgb(42, 63, 95); fill-opacity: 1; white-space: pre; opacity: 1;" transform="translate(0,115.86)">70k</text></g><g class="ytick"><text text-anchor="end" x="76.2" y="6.6499999999999995" style="font-family: 'Open Sans', verdana, arial, sans-serif; font-size: 19px; fill: rgb(42, 63, 95); fill-opacity: 1; white-space: pre; opacity: 1;" transform="translate(0,55.99)">80k</text></g></g><g class="overaxes-above"/></g></g><g class="polarlayer"/><g class="ternarylayer"/><g class="geolayer"/><g class="funnelarealayer"/><g class="pielayer"/><g class="iciclelayer"/><g class="treemaplayer"/><g class="sunburstlayer"/><g class="glimages"/><defs id="topdefs-1d955d"><g class="clips"/></defs><g class="layer-above"><g class="imagelayer"/><g class="shapelayer"/></g><g class="infolayer"><g class="g-gtitle"/><g class="g-xtitle"/><g class="g-ytitle" transform="translate(13.302734375,0)"><text class="ytitle" transform="rotate(-90,9.696875000000006,292.5)" x="9.696875000000006" y="292.5" text-anchor="middle" style="font-family: 'Open Sans', verdana, arial, sans-serif; font-size: 23px; fill: rgb(42, 63, 95); opacity: 1; font-weight: normal; white-space: pre;">Community import [kWh]</text></g></g></svg>