<svg class="main-svg" xmlns="http://www.w3.org/2000/svg" xmlns:xlink="http://www.w3.org/1999/xlink" width="800" height="600" viewBox="0 0 800 600"><rect x="0" y="0" width="800" height="600" style="fill: rgb(255, 255, 255); fill-opacity: 1;"/><defs id="defs-761a78"><g class="clips"><clipPath id="clip761a78xyplot" class="plotclip"><rect width="675" height="460"/></clipPath><clipPath class="axesclip" id="clip761a78x"><rect x="75" y="0" width="675" height="600"/></clipPath><clipPath class="axesclip" id="clip761a78y"><rect x="0" y="50" width="800" height="460"/></clipPath><clipPath class="axesclip" id="clip761a78xy"><rect x="75" y="50" width="675" height="460"/></clipPath></g><g class="gradients"/><g class="patterns"/></defs><g class="bglayer"/><g class="layer-below"><g class="imagelayer"/><g class="shapelayer"/></g><g class="cartesianlayer"><g class="subplot xy"><g class="layer-subplot"><g class="shapelayer"/><g class="imagelayer"/></g><g class="gridlayer"><g class="x"><path class="xgrid crisp" transform="translate(92.22,0)" d="M0,50v460" style="stroke: rgb(235, 240, 248); stroke-opacity: 1; stroke-width: 1px;"/><path class="xgrid crisp" transform="translate(174.87,0)" d="M0,50v460" style="stroke: rgb(235, 240, 248); stroke-opacity: 1; stroke-width: 1px;"/><path class="xgrid crisp" transform="translate(257.53,0)" d="M0,50v460" style="stroke: rgb(235, 240, 248); stroke-opacity: 1; stroke-width: 1px;"/><path class="xgrid crisp" transform="translate(340.18,0)" d="M0,50v460" style="stroke: rgb(235, 240, 248); stroke-opacity: 1; stroke-width: 1px;"/><path class="xgrid crisp" transform="translate(422.83,0)" d="M0,50v460" style="stroke: rgb(235, 240, 248); stroke-opacity: 1; stroke-width: 1px;"/><path class="xgrid crisp" transform="translate(505.48,0)" d="M0,50v460" style="stroke: rgb(235, 240, 248); stroke-opacity: 1; stroke-width: 1px;"/><path class="xgrid crisp" transform="translate(588.14,0)" d="M0,50v460" style="stroke: rgb(235, 240, 248); stroke-opacity: 1; stroke-width: 1px;"/><path class="xgrid crisp" transform="translate(670.79,0)" d="M0,50v460" style="stroke: rgb(235, 240, 248); stroke-opacity: 1; stroke-width: 1px;"/></g><g class="y"><path class="ygrid crisp" transform="translate(0,488.82)" d="M75,0h675" style="stroke: rgb(235, 240, 248); stroke-opacity: 1; stroke-width: 1px;"/><path class="ygrid crisp" transform="translate(0,427.05)" d="M75,0h675" style="stroke: rgb(235, 240, 248); stroke-opacity: 1; stroke-width: 1px;"/><path class="ygrid crisp" transform="translate(0,303.5)" d="M75,0h675" style="stroke: rgb(235, 240, 248); stroke-opacity: 1; stroke-width: 1px;"/><path class="ygrid crisp" transform="translate(0,241.73)" d="M75,0h675" style="stroke: rgb(235, 240, 248); stroke-opacity: 1; stroke-width: 1px;"/><path class="ygrid crisp" transform="translate(0,179.96)" d="M75,0h675" style="stroke: rgb(235, 240, 248); stroke-opacity: 1; stroke-width: 1px;"/><path class="ygrid crisp" transform="translate(0,118.18)" d="M75,0h675" style="stroke: rgb(235, 240, 248); stroke-opacity: 1; stroke-width: 1px;"/><path class="ygrid crisp" transform="translate(0,56.41)" d="M75,0h675" style="stroke: rgb(235, 240, 248); stroke-opacity: 1; stroke-width: 1px;"/></g></g><g class="zerolinelayer"><path class="yzl zl crisp" transform="translate(0,365.27)" d="M75,0h675" style="stroke: rgb(0, 0, 0); stroke-opacity: 1; stroke-width: 2px;"/></g><path class="xlines-below"/><path class="ylines-below"/><g class="overlines-below"/><g class="xaxislayer-below"/><g class="yaxislayer-below"/><g class="overaxes-below"/><g class="plot" transform="translate(75,50)" clip-path="url(#clip761a78xyplot)"><g class="scatterlayer mlayer"><g class="trace scatter tracea4e5ef" style="stroke-miterlimit: 2; opacity: 0.9;"><g class="fills"/><g class="errorbars"/><g class="lines"><path class="js-line" d="M0,233.42L3.44,188.44L6.89,267.36L10.33,267.73L13.78,250.36L17.22,241.53L20.66,261.38L24.11,263.16L27.55,263.25L30.99,236.58L34.44,242.58L37.88,252.25L41.33,252.05L44.77,253.53L48.21,246.88L51.66,205.6L55.1,243.12L58.55,246.52L61.99,244.97L65.43,243.87L68.88,239.65L72.32,213.95L75.77,218.91L79.21,239.68L82.65,237.34L86.1,233.69L89.54,235.32L92.98,240.79L96.43,241L99.87,201.05L103.32,241.67L106.76,249.52L110.2,266.71L113.65,268.33L117.09,272.82L120.54,299.18L123.98,314.97L127.42,282.94L130.87,271.89L134.31,300.24L137.76,313.69L141.2,325.64L144.64,369.31L148.09,369.87L151.53,361.28L154.97,320.13L158.42,322.71L161.86,292.89L165.31,311.17L168.75,299.13L172.19,355.32L175.64,321.77L179.08,378.04L182.53,344.94L185.97,329.85L189.41,364.58L192.86,360.71L196.3,343.1L199.74,318.26L203.19,352.01L206.63,332.44L210.08,373.77L213.52,332.38L216.96,316.29L220.41,335.93L223.85,314.11L227.3,370.66L230.74,380.56L234.18,366.26L237.63,322.01L241.07,289.4L247.96,329.31L251.4,314.7L254.85,296.61L258.29,286.34L261.73,285.98L265.18,283.09L268.62,270.91L272.07,214.23L275.51,269.32L278.95,267.17L282.4,264.23L285.84,267.11L292.73,268.97L296.17,268.25L299.62,265.63L303.06,211.58L306.51,260.93L309.95,266.24L313.39,222.75L316.84,216.47L320.28,259.76L323.72,260.44L327.17,258.35L330.61,230.05L334.06,223.27L337.5,253.72L340.94,249.99L344.39,213.26L347.83,224.71L351.28,243.59L354.72,243.6L358.16,238.5L361.61,233.72L365.05,212.96L368.49,198.98L371.94,234.62L375.38,233.41L378.83,228L385.71,232.85L389.16,214.23L392.6,203.16L396.05,232.03L399.49,239.38L402.93,237.34L406.38,236.96L409.82,232.66L413.27,233.03L416.71,191.42L420.15,234.81L423.6,240.75L427.04,241.35L430.48,245.86L437.37,251.31L440.82,249.29L444.26,214.71L447.7,228.4L451.15,253.78L454.59,259.38L458.04,263.34L461.48,275.86L464.92,281.09L468.37,278.28L471.81,272.26L475.26,272.28L478.7,244.03L482.14,317.86L485.59,347.28L489.03,355.68L492.47,328.94L495.92,348.22L499.36,342.72L502.81,357.59L506.25,378.7L509.69,362.8L513.14,296.12L516.58,291.83L520.03,357.67L523.47,388.22L526.91,382.57L530.36,353.44L533.8,392.02L537.24,398.58L540.69,399.05L544.13,388.93L547.58,353.8L551.02,392.99L554.46,393.26L557.91,385.94L561.35,347.96L564.8,191.91L568.24,315.9L571.68,306.68L575.13,336.71L578.57,282.41L582.02,181.78L585.46,113.12L588.9,114.56L592.35,230.8L595.79,163.08L599.23,190.56L602.68,81.88L606.12,59.6L609.57,176.74L613.01,173.35L616.45,77.28L619.9,23L623.34,50.19L626.79,101.04L630.23,219.4L633.67,208.24L637.12,188.81L640.56,228.53L644.01,163.89L647.45,242.29L650.89,274.93L654.34,267.11L657.78,286.07L661.22,271.7L664.67,268.76L668.11,280.86L671.56,259.55L675,268.49" style="vector-effect: non-scaling-stroke; fill: none; stroke: rgb(76, 120, 168); stroke-opacity: 1; stroke-width: 3px; opacity: 1;"/></g><g class="points"/><g class="text"/></g><g class="trace scatter tracea386d2" style="stroke-miterlimit: 2;"><g class="fills"><g><path class="js-fill" d="M17.22,194.69L20.66,193.16L24.11,196.75L27.55,199.84L30.99,200.19L34.44,191.61L37.88,194.4L44.77,198.91L48.21,198.44L51.66,200.19L55.1,198.52L58.55,206.39L61.99,201.88L68.88,197.31L72.32,197.77L75.77,200.85L79.21,194.9L82.65,187.06L86.1,194.19L89.54,199.14L92.98,200.3L96.43,194.99L99.87,199.49L106.76,216.19L110.2,217.36L117.09,229.49L120.54,232.64L127.42,254.58L130.87,268.72L134.31,282.7L137.76,280.25L141.2,274.97L144.64,281.08L148.09,284.22L151.53,291.29L158.42,289.89L161.86,293.85L165.31,293.1L168.75,304.6L175.64,320.37L179.08,328.93L185.97,317.84L189.41,314.94L192.86,321.02L196.3,311.94L199.74,303.45L203.19,299.43L206.63,298.99L210.08,290.43L213.52,288.04L216.96,282.06L220.41,275.4L223.85,276.32L230.74,254.82L234.18,248.13L241.07,229.84L244.52,217.56L247.96,211.89L251.4,200.29L254.85,194.73L258.29,187.35L261.73,178.93L265.18,218.53L268.62,204.05L272.07,197.79L275.51,199.62L278.95,192.52L282.4,197.46L285.84,195.58L289.29,198.12L292.73,191.53L299.62,180.22L303.06,177.07L306.51,174.04L309.95,184.24L313.39,191.32L316.84,183.64L323.72,197.21L327.17,190.26L330.61,195.6L334.06,189.85L337.5,190.83L340.94,193.58L344.39,191.49L347.83,166.37L351.28,176.23L354.72,183.17L358.16,189.76L361.61,187.76L365.05,184L368.49,190.36L375.38,192.7L378.83,193.64L382.27,197.89L385.71,197.28L389.16,187.9L392.6,197.51L396.05,192.87L399.49,190.29L402.93,194.9L406.38,194.3L409.82,192.23L413.27,186.8L423.6,197.76L427.04,200.59L430.48,203.59L433.93,212.46L437.37,221.42L440.82,227.55L444.26,233.06L447.7,240.69L451.15,250.65L454.59,251.64L461.48,284.97L464.92,292.39L468.37,301.13L471.81,252.41L475.26,278.23L478.7,284.33L485.59,296.8L489.03,296.89L492.47,302.64L495.92,305.7L499.36,312.94L502.81,325.18L506.25,337.79L509.69,342.79L513.14,314.91L516.58,318.6L520.03,331.31L523.47,337.51L530.36,316.62L533.8,319.46L537.24,324.77L540.69,317.87L544.13,311.1L547.58,309.6L551.02,307.61L554.46,325.88L561.35,284.04L564.8,274.58L571.68,246.77L575.13,234.19L585.46,200.59L588.9,194.45L595.79,178.36L599.23,158.81L602.68,158.3L606.12,161.89L616.45,180.67L619.9,181.88L623.34,183.35L626.79,179.28L630.23,174.75L633.67,171.8L637.12,147.06L640.56,159.92L644.01,168.55L647.45,168.37L650.89,182.05L654.34,182.4L657.78,182.24L661.22,184.04L664.67,186.21L668.11,186.95L671.56,187.88L675,186.3L675,286.08L671.56,287.99L668.11,284.82L664.67,283.18L661.22,284.62L654.34,279.59L650.89,279.01L647.45,269.12L644.01,266.24L640.56,257.13L637.12,250.74L633.67,271.31L630.23,273.78L626.79,270.32L623.34,280.67L619.9,281.79L616.45,277L613.01,269.67L609.57,268.7L606.12,259.96L602.68,256.05L599.23,260.27L595.79,283.31L592.35,286.97L588.9,289.08L585.46,297.26L582.02,308.76L578.57,325.16L575.13,331.94L571.68,342.24L568.24,355.9L564.8,373.65L561.35,380.46L554.46,425.41L551.02,404.94L544.13,410.53L540.69,418.19L537.24,422.84L533.8,418.37L530.36,423.1L526.91,423.58L523.47,435.29L520.03,425.48L516.58,418.11L513.14,415.58L509.69,437L506.25,433.73L502.81,423.84L499.36,415.07L495.92,400.74L492.47,397.09L489.03,396.34L485.59,395.84L482.14,387.96L478.7,384.03L475.26,374.31L471.81,354.05L468.37,397.53L464.92,394.46L461.48,380.5L458.04,369.08L454.59,351.28L451.15,349.47L447.7,341.44L444.26,334.88L440.82,330.35L437.37,319.83L433.93,312.95L430.48,301.56L423.6,298.37L420.15,299.1L416.71,289.87L413.27,281.69L409.82,290.39L406.38,289.99L402.93,294.78L399.49,288.02L396.05,290.22L392.6,292L389.16,290.79L385.71,293.12L382.27,293.96L378.83,293.03L375.38,288.51L371.94,291.41L368.49,291.15L365.05,284.23L361.61,287.78L358.16,286.69L354.72,286.43L351.28,275.08L347.83,266.98L344.39,288.87L340.94,286.34L337.5,287.43L334.06,289.72L330.61,289.05L327.17,292.45L323.72,291L316.84,283.37L313.39,289.56L309.95,285.78L306.51,267L303.06,278.26L299.62,280.74L289.29,293.22L285.84,295.05L282.4,294.36L278.95,293.69L275.51,296.87L272.07,297.6L268.62,302.85L265.18,322.1L261.73,284.89L258.29,285.24L254.85,290.42L251.4,298.32L247.96,312.18L244.52,316.78L241.07,326.71L237.63,336.79L234.18,351.55L230.74,354.82L227.3,364.96L223.85,375.21L220.41,381.12L216.96,379.78L213.52,386.74L210.08,389.17L206.63,396.28L203.19,396.31L199.74,403.29L196.3,408.62L192.86,422.08L189.41,414.88L185.97,415.57L182.53,426.41L179.08,427.33L175.64,421.4L168.75,404.94L165.31,390.08L161.86,393.83L158.42,388.24L154.97,391.4L151.53,393.8L148.09,387.83L144.64,384.03L141.2,371.05L137.76,381.66L134.31,380.37L130.87,371.8L123.98,339.76L120.54,336.41L117.09,326.29L113.65,323.3L110.2,319.09L106.76,316.74L99.87,300.84L96.43,298.54L92.98,293.79L89.54,297.35L86.1,291.15L82.65,292.07L79.21,296.06L75.77,295.68L72.32,299.11L68.88,294.85L65.43,299.35L61.99,301.91L58.55,301.54L55.1,302.56L51.66,296.13L48.21,295.65L44.77,296.49L41.33,292.82L37.88,292.79L34.44,296.52L30.99,294.81L27.55,300.61L24.11,299.87L20.66,292.23L17.22,290.17Z" style="fill: rgb(214, 39, 40); fill-opacity: 0.02; stroke-width: 0;"/></g></g><g class="errorbars"/><g class="lines"><path class="js-line" d="M17.22,290.17L20.66,292.23L24.11,299.87L27.55,300.61L30.99,294.81L34.44,296.52L37.88,292.79L41.33,292.82L44.77,296.49L48.21,295.65L51.66,296.13L55.1,302.56L58.55,301.54L61.99,301.91L65.43,299.35L68.88,294.85L72.32,299.11L75.77,295.68L79.21,296.06L82.65,292.07L86.1,291.15L89.54,297.35L92.98,293.79L96.43,298.54L99.87,300.84L106.76,316.74L110.2,319.09L113.65,323.3L117.09,326.29L120.54,336.41L123.98,339.76L130.87,371.8L134.31,380.37L137.76,381.66L141.2,371.05L144.64,384.03L148.09,387.83L151.53,393.8L154.97,391.4L158.42,388.24L161.86,393.83L165.31,390.08L168.75,404.94L175.64,421.4L179.08,427.33L182.53,426.41L185.97,415.57L189.41,414.88L192.86,422.08L196.3,408.62L199.74,403.29L203.19,396.31L206.63,396.28L210.08,389.17L213.52,386.74L216.96,379.78L220.41,381.12L223.85,375.21L227.3,364.96L230.74,354.82L234.18,351.55L237.63,336.79L241.07,326.71L244.52,316.78L247.96,312.18L251.4,298.32L254.85,290.42L258.29,285.24L261.73,284.89L265.18,322.1L268.62,302.85L272.07,297.6L275.51,296.87L278.95,293.69L282.4,294.36L285.84,295.05L289.29,293.22L299.62,280.74L303.06,278.26L306.51,267L309.95,285.78L313.39,289.56L316.84,283.37L323.72,291L327.17,292.45L330.61,289.05L334.06,289.72L337.5,287.43L340.94,286.34L344.39,288.87L347.83,266.98L351.28,275.08L354.72,286.43L358.16,286.69L361.61,287.78L365.05,284.23L368.49,291.15L371.94,291.41L375.38,288.51L378.83,293.03L382.27,293.96L385.71,293.12L389.16,290.79L392.6,292L396.05,290.22L399.49,288.02L402.93,294.78L406.38,289.99L409.82,290.39L413.27,281.69L416.71,289.87L420.15,299.1L423.6,298.37L430.48,301.56L433.93,312.95L437.37,319.83L440.82,330.35L444.26,334.88L447.7,341.44L451.15,349.47L454.59,351.28L458.04,369.08L461.48,380.5L464.92,394.46L468.37,397.53L471.81,354.05L475.26,374.31L478.7,384.03L482.14,387.96L485.59,395.84L489.03,396.34L492.47,397.09L495.92,400.74L499.36,415.07L502.81,423.84L506.25,433.73L509.69,437L513.14,415.58L516.58,418.11L520.03,425.48L523.47,435.29L526.91,423.58L530.36,423.1L533.8,418.37L537.24,422.84L540.69,418.19L544.13,410.53L551.02,404.94L554.46,425.41L561.35,380.46L564.8,373.65L568.24,355.9L571.68,342.24L575.13,331.94L578.57,325.16L582.02,308.76L585.46,297.26L588.9,289.08L592.35,286.97L595.79,283.31L599.23,260.27L602.68,256.05L606.12,259.96L609.57,268.7L613.01,269.67L616.45,277L619.9,281.79L623.34,280.67L626.79,270.32L630.23,273.78L633.67,271.31L637.12,250.74L640.56,257.13L644.01,266.24L647.45,269.12L650.89,279.01L654.34,279.59L661.22,284.62L664.67,283.18L668.11,284.82L671.56,287.99L675,286.08" style="vector-effect: non-scaling-stroke; fill: none; stroke: rgb(214, 39, 40); stroke-opacity: 0.5; stroke-width: 3px; opacity: 1;"/></g><g class="points"/><g class="text"/></g><g class="trace scatter traced5e600" style="stroke-miterlimit: 2;"><g class="fills"/><g class="errorbars"/><g class="lines"><path class="js-line" d="M17.22,194.69L20.66,193.16L24.11,196.75L27.55,199.84L30.99,200.19L34.44,191.61L37.88,194.4L44.77,198.91L48.21,198.44L51.66,200.19L55.1,198.52L58.55,206.39L61.99,201.88L68.88,197.31L72.32,197.77L75.77,200.85L79.21,194.9L82.65,187.06L86.1,194.19L89.54,199.14L92.98,200.3L96.43,194.99L99.87,199.49L106.76,216.19L110.2,217.36L117.09,229.49L120.54,232.64L127.42,254.58L130.87,268.72L134.31,282.7L137.76,280.25L141.2,274.97L144.64,281.08L148.09,284.22L151.53,291.29L158.42,289.89L161.86,293.85L165.31,293.1L168.75,304.6L175.64,320.37L179.08,328.93L185.97,317.84L189.41,314.94L192.86,321.02L196.3,311.94L199.74,303.45L203.19,299.43L206.63,298.99L210.08,290.43L213.52,288.04L216.96,282.06L220.41,275.4L223.85,276.32L230.74,254.82L234.18,248.13L241.07,229.84L244.52,217.56L247.96,211.89L251.4,200.29L254.85,194.73L258.29,187.35L261.73,178.93L265.18,218.53L268.62,204.05L272.07,197.79L275.51,199.62L278.95,192.52L282.4,197.46L285.84,195.58L289.29,198.12L292.73,191.53L299.62,180.22L303.06,177.07L306.51,174.04L309.95,184.24L313.39,191.32L316.84,183.64L323.72,197.21L327.17,190.26L330.61,195.6L334.06,189.85L337.5,190.83L340.94,193.58L344.39,191.49L347.83,166.37L351.28,176.23L354.72,183.17L358.16,189.76L361.61,187.76L365.05,184L368.49,190.36L375.38,192.7L378.83,193.64L382.27,197.89L385.71,197.28L389.16,187.9L392.6,197.51L396.05,192.87L399.49,190.29L402.93,194.9L406.38,194.3L409.82,192.23L413.27,186.8L423.6,197.76L427.04,200.59L430.48,203.59L433.93,212.46L437.37,221.42L440.82,227.55L444.26,233.06L447.7,240.69L451.15,250.65L454.59,251.64L461.48,284.97L464.92,292.39L468.37,301.13L471.81,252.41L475.26,278.23L478.7,284.33L485.59,296.8L489.03,296.89L492.47,302.64L495.92,305.7L499.36,312.94L502.81,325.18L506.25,337.79L509.69,342.79L513.14,314.91L516.58,318.6L520.03,331.31L523.47,337.51L530.36,316.62L533.8,319.46L537.24,324.77L540.69,317.87L544.13,311.1L547.58,309.6L551.02,307.61L554.46,325.88L561.35,284.04L564.8,274.58L571.68,246.77L575.13,234.19L585.46,200.59L588.9,194.45L595.79,178.36L599.23,158.81L602.68,158.3L606.12,161.89L616.45,180.67L619.9,181.88L623.34,183.35L626.79,179.28L630.23,174.75L633.67,171.8L637.12,147.06L640.56,159.92L644.01,168.55L647.45,168.37L650.89,182.05L654.34,182.4L657.78,182.24L661.22,184.04L664.67,186.21L668.11,186.95L671.56,187.88L675,186.3" style="vector-effect: non-scaling-stroke; fill: none; stroke: rgb(214, 39, 40); stroke-opacity: 0.5; stroke-width: 3px; opacity: 1;"/></g><g class="points"/><g class="text"/></g><g class="trace scatter trace29fc06" style="stroke-miterlimit: 2; opacity: 1;"><g class="fills"/><g class="errorbars"/><g class="lines"><path class="js-line" d="M17.22,241.18L20.66,243.23L24.11,246.96L27.55,249.97L30.99,245.02L34.44,243.28L37.88,245.17L41.33,248.47L44.77,247.38L51.66,247.62L55.1,248.26L58.55,254.17L61.99,252.48L65.43,248.28L68.88,246.71L72.32,248.04L75.77,246.92L82.65,239.22L86.1,244.39L89.54,247.37L92.98,247.27L96.43,246.15L99.87,250.28L106.76,262.88L110.2,266.9L120.54,284.29L123.98,288.51L130.87,319.16L134.31,327.23L137.76,332.55L141.2,324.74L148.09,337.3L151.53,341.49L165.31,343.01L168.75,354.32L175.64,370.76L179.08,377.05L182.53,375.51L185.97,367.74L189.41,365.99L192.86,370.72L199.74,351.12L203.19,347.49L206.63,346.37L210.08,340.22L216.96,332.84L220.41,331.14L223.85,327.84L227.3,314.29L230.74,304.62L234.18,298.85L244.52,268.8L247.96,261.96L254.85,242.78L258.29,236.97L261.73,233.02L265.18,268.79L268.62,254.99L272.07,247.86L275.51,244.7L278.95,244.22L285.84,245.42L289.29,246.58L296.17,234.74L299.62,230.68L306.51,221.82L309.95,235.73L313.39,238.33L316.84,233L323.72,241.94L327.17,241.68L330.61,239.38L334.06,239.04L344.39,238.86L347.83,216.34L354.72,234.92L358.16,238.89L361.61,235.47L365.05,235.54L371.94,243.04L375.38,242.61L382.27,243.8L385.71,244.74L389.16,239.1L392.6,242.41L396.05,242.94L399.49,241.76L402.93,242.75L406.38,241.98L413.27,236.05L416.71,242.33L420.15,246.67L423.6,248.26L430.48,251.27L433.93,262.57L447.7,292.84L451.15,298.76L454.59,303.58L458.04,320.95L461.48,334.4L464.92,342.46L468.37,347.72L471.81,303.01L475.26,322.96L478.7,333.83L482.14,340.12L485.59,343.33L495.92,352.19L499.36,365.28L506.25,384.67L509.69,392.33L513.14,363.05L516.58,370.67L523.47,385.82L526.91,376.55L530.36,371.19L533.8,370.91L537.24,372.24L540.69,367.41L547.58,360L551.02,356.92L554.46,376.12L557.91,352.04L561.35,334.84L564.8,324.53L575.13,281.88L578.57,272.07L585.46,248.97L588.9,241.74L595.79,231.42L599.23,210.91L602.68,204.93L606.12,212.11L613.01,225.06L616.45,229.1L619.9,233.23L623.34,229.55L633.67,221.13L637.12,201.33L640.56,207.09L644.01,216.53L647.45,219.21L650.89,228.07L654.34,233.24L657.78,234.65L661.22,234.18L664.67,235.37L675,238.06" style="vector-effect: non-scaling-stroke; fill: none; stroke: rgb(255, 127, 14); stroke-opacity: 0.8; stroke-width: 5px; opacity: 1;"/></g><g class="points"/><g class="text"/></g></g></g><g class="overplot"/><path class="xlines-above crisp" d="M0,0" style="fill: none;"/><path class="ylines-above crisp" d="M74,50V510" style="fill: none; stroke-width: 2px; stroke: rgb(0, 0, 0); stroke-opacity: 1;"/><g class="overlines-above"/><g class="xaxislayer-above"><g class="xtick"><text text-anchor="middle" x="0" y="530" transform="translate(92.22,0)" style="font-family: 'Open Sans', verdana, arial, sans-serif; font-size: 19px; fill: rgb(42, 63, 95); fill-opacity: 1; white-space: pre; opacity: 1;"><tspan class="line" dy="0em" x="0" y="530">00:00</tspan><tspan class="line" dy="1.3em" x="0" y="530">Apr 26, 2022</tspan></text></g><g class="xtick"><text text-anchor="middle" x="0" y="530" style="font-family: 'Open Sans', verdana, arial, sans-serif; font-size: 19px; fill: rgb(42, 63, 95); fill-opacity: 1; white-space: pre; opacity: 1;" transform="translate(174.87,0)">06:00</text></g><g class="xtick"><text text-anchor="middle" x="0" y="530" style="font-family: 'Open Sans', verdana, arial, sans-serif; font-size: 19px; fill: rgb(42, 63, 95); fill-opacity: 1; white-space: pre; opacity: 1;" transform="translate(257.53,0)">12:00</text></g><g class="xtick"><text text-anchor="middle" x="0" y="530" style="font-family: 'Open Sans', verdana, arial, sans-serif; font-size: 19px; fill: rgb(42, 63, 95); fill-opacity: 1; white-space: pre; opacity: 1;" transform="translate(340.18,0)">18:00</text></g><g class="xtick"><text text-anchor="middle" x="0" y="530" style="font-family: 'Open Sans', verdana, arial, sans-serif; font-size: 19px; fill: rgb(42, 63, 95); fill-opacity: 1; white-space: pre; opacity: 1;" transform="translate(422.83,0)"><tspan class="line" dy="0em" x="0" y="530">00:00</tspan><tspan class="line" dy="1.3em" x="0" y="530">Apr 27, 2022</tspan></text></g><g class="xtick"><text text-anchor="middle" x="0" y="530" style="font-family: 'Open Sans', verdana, arial, sans-serif; font-size: 19px; fill: rgb(42, 63, 95); fill-opacity: 1; white-space: pre; opacity: 1;" transform="translate(505.48,0)">06:00</text></g><g class="xtick"><text text-anchor="middle" x="0" y="530" style="font-family: 'Open Sans', verdana, arial, sans-serif; font-size: 19px; fill: rgb(42, 63, 95); fill-opacity: 1; white-space: pre; opacity: 1;" transform="translate(588.14,0)">12:00</text></g><g class="xtick"><text text-anchor="middle" x="0" y="530" style="font-family: 'Open Sans', verdana, arial, sans-serif; font-size: 19px; fill: rgb(42, 63, 95); fill-opacity: 1; white-space: pre; opacity: 1;" transform="translate(670.79,0)">18:00</text></g></g><g class="yaxislayer-above"><g class="ytick"><text text-anchor="end" x="69.2" y="6.6499999999999995" transform="translate(0,488.82)" style="font-family: 'Open Sans', verdana, arial, sans-serif; font-size: 19px; fill: rgb(42, 63, 95); fill-opacity: 1; white-space: pre; opacity: 1;">−2</text></g><g class="ytick"><text text-anchor="end" x="69.2" y="6.6499999999999995" style="font-family: 'Open Sans', verdana, arial, sans-serif; font-size: 19px; fill: rgb(42, 63, 95); fill-opacity: 1; white-space: pre; opacity: 1;" transform="translate(0,427.05)">−1</text></g><g class="ytick"><text text-anchor="end" x="69.2" y="6.6499999999999995" style="font-family: 'Open Sans', verdana, arial, sans-serif; font-size: 19px; fill: rgb(42, 63, 95); fill-opacity: 1; white-space: pre; opacity: 1;" transform="translate(0,365.27)">0</text></g><g class="ytick"><text text-anchor="end" x="69.2" y="6.6499999999999995" style="font-family: 'Open Sans', verdana, arial, sans-serif; font-size: 19px; fill: rgb(42, 63, 95); fill-opacity: 1; white-space: pre; opacity: 1;" transform="translate(0,303.5)">1</text></g><g class="ytick"><text text-anchor="end" x="69.2" y="6.6499999999999995" style="font-family: 'Open Sans', verdana, arial, sans-serif; font-size: 19px; fill: rgb(42, 63, 95); fill-opacity: 1; white-space: pre; opacity: 1;" transform="translate(0,241.73)">2</text></g><g class="ytick"><text text-anchor="end" x="69.2" y="6.6499999999999995" style="font-family: 'Open Sans', verdana, arial, sans-serif; font-size: 19px; fill: rgb(42, 63, 95); fill-opacity: 1; white-space: pre; opacity: 1;" transform="translate(0,179.96)">3</text></g><g class="ytick"><text text-anchor="end" x="69.2" y="6.6499999999999995" style="font-family: 'Open Sans', verdana, arial, sans-serif; font-size: 19px; fill: rgb(42, 63, 95); fill-opacity: 1; white-space: pre; opacity: 1;" transform="translate(0,118.18)">4</text></g><g class="ytick"><text text-anchor="end" x="69.2" y="6.6499999999999995" style="font-family: 'Open Sans', verdana, arial, sans-serif; font-size: 19px; fill: rgb(42, 63, 95); fill-opacity: 1; white-space: pre; opacity: 1;" transform="translate(0,56.41)">5</text></g></g><g class="overaxes-above"/></g></g><g class="polarlayer"/><g class="ternarylayer"/><g class="geolayer"/><g class="funnelarealayer"/><g class="pielayer"/><g class="iciclelayer"/><g class="treemaplayer"/><g class="sunburstlayer"/><g class="glimages"/><defs id="topdefs-761a78"><g class="clips"/></defs><g class="layer-above"><g class="imagelayer"/><g class="shapelayer"/></g><g class="infolayer"><g class="g-gtitle"/><g class="g-xtitle"/><g class="g-ytitle" transform="translate(12.537109375,0)"><text class="ytitle" transform="rotate(-90,10.462500000000006,280)" x="10.462500000000006" y="280" text-anchor="middle" style="font-family: 'Open Sans', verdana, arial, sans-serif; font-size: 23px; fill: rgb(42, 63, 95); opacity: 1; font-weight: normal; white-space: pre;">Power [kW]</text></g></g></svg>