<svg class="main-svg" xmlns="http://www.w3.org/2000/svg" xmlns:xlink="http://www.w3.org/1999/xlink" width="800" height="600" viewBox="0 0 800 600"><rect x="0" y="0" width="800" height="600" style="fill: rgb(255, 255, 255); fill-opacity: 1;"/><defs id="defs-c6e591"><g class="clips"><clipPath id="clipc6e591xyplot" class="plotclip"><rect width="675" height="460"/></clipPath><clipPath class="axesclip" id="clipc6e591x"><rect x="75" y="0" width="675" height="600"/></clipPath><clipPath class="axesclip" id="clipc6e591y"><rect x="0" y="50" width="800" height="460"/></clipPath><clipPath class="axesclip" id="clipc6e591xy"><rect x="75" y="50" width="675" height="460"/></clipPath></g><g class="gradients"/><g class="patterns"/></defs><g class="bglayer"/><g class="layer-below"><g class="imagelayer"/><g class="shapelayer"/></g><g class="cartesianlayer"><g class="subplot xy"><g class="layer-subplot"><g class="shapelayer"/><g class="imagelayer"/></g><g class="gridlayer"><g class="x"><path class="xgrid crisp" transform="translate(92.22,0)" d="M0,50v460" style="stroke: rgb(235, 240, 248); stroke-opacity: 1; stroke-width: 1px;"/><path class="xgrid crisp" transform="translate(174.87,0)" d="M0,50v460" style="stroke: rgb(235, 240, 248); stroke-opacity: 1; stroke-width: 1px;"/><path class="xgrid crisp" transform="translate(257.53,0)" d="M0,50v460" style="stroke: rgb(235, 240, 248); stroke-opacity: 1; stroke-width: 1px;"/><path class="xgrid crisp" transform="translate(340.18,0)" d="M0,50v460" style="stroke: rgb(235, 240, 248); stroke-opacity: 1; stroke-width: 1px;"/><path class="xgrid crisp" transform="translate(422.83,0)" d="M0,50v460" style="stroke: rgb(235, 240, 248); stroke-opacity: 1; stroke-width: 1px;"/><path class="xgrid crisp" transform="translate(505.48,0)" d="M0,50v460" style="stroke: rgb(235, 240, 248); stroke-opacity: 1; stroke-width: 1px;"/><path class="xgrid crisp" transform="translate(588.14,0)" d="M0,50v460" style="stroke: rgb(235, 240, 248); stroke-opacity: 1; stroke-width: 1px;"/><path class="xgrid crisp" transform="translate(670.79,0)" d="M0,50v460" style="stroke: rgb(235, 240, 248); stroke-opacity: 1; stroke-width: 1px;"/></g><g class="y"><path class="ygrid crisp" transform="translate(0,474.15)" d="M75,0h675" style="stroke: rgb(235, 240, 248); stroke-opacity: 1; stroke-width: 1px;"/><path class="ygrid crisp" transform="translate(0,414.55)" d="M75,0h675" style="stroke: rgb(235, 240, 248); stroke-opacity: 1; stroke-width: 1px;"/><path class="ygrid crisp" transform="translate(0,295.37)" d="M75,0h675" style="stroke: rgb(235, 240, 248); stroke-opacity: 1; stroke-width: 1px;"/><path class="ygrid crisp" transform="translate(0,235.78)" d="M75,0h675" style="stroke: rgb(235, 240, 248); stroke-opacity: 1; stroke-width: 1px;"/><path class="ygrid crisp" transform="translate(0,176.18)" d="M75,0h675" style="stroke: rgb(235, 240, 248); stroke-opacity: 1; stroke-width: 1px;"/><path class="ygrid crisp" transform="translate(0,116.59)" d="M75,0h675" style="stroke: rgb(235, 240, 248); stroke-opacity: 1; stroke-width: 1px;"/><path class="ygrid crisp" transform="translate(0,57)" d="M75,0h675" style="stroke: rgb(235, 240, 248); stroke-opacity: 1; stroke-width: 1px;"/></g></g><g class="zerolinelayer"><path class="yzl zl crisp" transform="translate(0,354.96)" d="M75,0h675" style="stroke: rgb(0, 0, 0); stroke-opacity: 1; stroke-width: 2px;"/></g><path class="xlines-below"/><path class="ylines-below"/><g class="overlines-below"/><g class="xaxislayer-below"/><g class="yaxislayer-below"/><g class="overaxes-below"/><g class="plot" transform="translate(75,50)" clip-path="url(#clipc6e591xyplot)"><g class="scatterlayer mlayer"><g class="trace scatter traceba5760" style="stroke-miterlimit: 2; opacity: 1;"><g class="fills"/><g class="errorbars"/><g class="lines"><path class="js-line" d="M0,226L3.44,182.6L6.89,258.73L10.33,259.1L13.78,242.33L17.22,233.82L20.66,252.96L24.11,254.68L27.55,254.78L30.99,229.05L34.44,234.83L37.88,244.16L41.33,243.97L44.77,245.4L48.21,238.98L51.66,199.16L55.1,235.36L58.55,238.63L61.99,237.14L65.43,236.07L68.88,232L72.32,207.21L75.77,212L79.21,232.04L82.65,229.78L86.1,226.25L89.54,227.82L92.98,233.1L96.43,233.31L99.87,194.77L103.32,233.96L106.76,241.52L110.2,258.11L113.65,259.67L117.09,264.01L120.54,289.43L123.98,304.66L127.42,273.77L130.87,263.1L134.31,290.45L137.76,303.44L141.2,314.96L144.64,357.08L148.09,357.63L151.53,349.34L154.97,309.65L158.42,312.13L161.86,283.36L165.31,301L168.75,289.39L172.19,343.59L175.64,311.22L179.08,365.51L182.53,333.58L185.97,319.02L189.41,352.52L192.86,348.79L196.3,331.8L199.74,307.84L203.19,340.4L206.63,321.52L210.08,361.39L213.52,321.46L216.96,305.94L220.41,324.89L223.85,303.83L227.3,358.39L230.74,367.94L234.18,354.14L237.63,311.46L241.07,280L247.96,318.5L251.4,304.4L254.85,286.96L258.29,277.05L261.73,276.7L265.18,273.91L268.62,262.17L272.07,207.48L275.51,260.62L278.95,258.56L282.4,255.71L285.84,258.49L292.73,260.29L296.17,259.59L299.62,257.06L303.06,204.92L306.51,252.54L309.95,257.65L313.39,215.7L316.84,209.64L320.28,251.41L323.72,252.06L327.17,250.04L330.61,222.74L334.06,216.21L337.5,245.58L340.94,241.98L344.39,206.55L347.83,217.59L351.28,235.8L354.72,235.82L358.16,230.89L361.61,226.28L365.05,206.26L368.49,192.77L371.94,227.16L375.38,225.98L378.83,220.77L385.71,225.44L389.16,207.48L392.6,196.8L396.05,224.65L399.49,231.74L402.93,229.78L406.38,229.41L409.82,225.27L413.27,225.62L416.71,185.47L420.15,227.33L423.6,233.07L427.04,233.64L430.48,237.99L437.37,243.25L440.82,241.3L444.26,207.94L447.7,221.15L451.15,245.64L454.59,251.04L458.04,254.86L461.48,266.93L464.92,271.99L468.37,269.27L471.81,263.47L475.26,263.48L478.7,236.23L482.14,307.45L485.59,335.84L489.03,343.94L492.47,318.14L495.92,336.74L499.36,331.44L502.81,345.78L506.25,366.15L509.69,350.81L513.14,286.48L516.58,282.35L520.03,345.86L523.47,375.33L526.91,369.88L530.36,341.78L533.8,379L537.24,385.32L540.69,385.78L544.13,376.02L547.58,342.13L551.02,379.94L554.46,380.19L557.91,373.13L561.35,336.49L564.8,185.95L568.24,305.56L571.68,296.67L575.13,325.64L578.57,273.26L582.02,176.17L585.46,109.94L588.9,111.33L592.35,223.47L595.79,158.14L599.23,184.65L602.68,79.8L606.12,58.3L609.57,171.31L613.01,168.04L616.45,75.36L619.9,23L623.34,49.23L626.79,98.28L630.23,212.47L633.67,201.71L637.12,182.95L640.56,221.28L644.01,158.92L647.45,234.56L650.89,266.04L654.34,258.5L657.78,276.78L661.22,262.93L664.67,260.08L668.11,271.76L671.56,251.2L675,259.83" style="vector-effect: non-scaling-stroke; fill: none; stroke: rgb(76, 120, 168); stroke-opacity: 1; stroke-width: 3px; opacity: 1;"/></g><g class="points"/><g class="text"/></g><g class="trace scatter trace802c19" style="stroke-miterlimit: 2;"><g class="fills"><g><path class="js-fill" d="M17.22,155.31L20.66,167.31L24.11,158.53L27.55,160.02L30.99,159.38L34.44,155.09L37.88,156.81L41.33,164.24L44.77,163.94L51.66,152.37L55.1,154.81L58.55,168.87L61.99,170L68.88,159.05L72.32,161.37L75.77,158.68L79.21,152.78L82.65,156.04L86.1,156.91L92.98,149.71L96.43,154.27L99.87,162.87L103.32,165.27L110.2,176.08L113.65,182.56L117.09,184.66L120.54,192.35L123.98,190.07L127.42,212.61L130.87,218.99L134.31,238.2L137.76,236.17L141.2,237.42L148.09,244.03L151.53,251.22L154.97,258.41L158.42,253.13L161.86,257.14L165.31,255.64L168.75,266.04L172.19,268.39L182.53,289.19L185.97,272.69L189.41,277.7L192.86,278.57L203.19,250.45L206.63,256.85L210.08,246.79L213.52,243.06L216.96,235.5L220.41,237.81L223.85,239.95L227.3,227.16L230.74,215.82L234.18,212.36L244.52,176.42L247.96,172.01L254.85,149.17L258.29,143.07L261.73,134.51L265.18,183.68L268.62,164.17L272.07,158.35L275.51,151.35L278.95,151.76L282.4,159.15L285.84,156.92L289.29,155.34L292.73,149.64L296.17,147.85L299.62,141.21L303.06,136.57L306.51,138.36L309.95,151.92L313.39,151.12L316.84,146.64L320.28,150.6L323.72,153.28L327.17,159.75L330.61,153.59L334.06,151.8L337.5,149.65L340.94,144.47L344.39,147.43L347.83,136.28L351.28,141.53L354.72,150.63L358.16,146.35L361.61,154.66L365.05,147.59L368.49,153.01L371.94,148.56L375.38,153.35L378.83,151.48L382.27,156.68L385.71,148.49L389.16,157.04L392.6,155.82L396.05,157.61L399.49,158.18L402.93,152.85L406.38,153.53L409.82,148.86L413.27,148.3L416.71,150.58L420.15,153.68L423.6,161.36L430.48,169.79L433.93,170.13L447.7,194.49L451.15,206.3L454.59,216.85L458.04,219.62L461.48,240.84L464.92,245.33L468.37,249.83L471.81,217.63L475.26,236.08L478.7,244.28L482.14,245.41L485.59,253.87L492.47,262.29L495.92,256.81L499.36,268.29L502.81,273.51L509.69,290.25L513.14,275.84L516.58,279.32L520.03,287.33L523.47,287.04L526.91,275.09L530.36,274.61L533.8,270.03L537.24,278.08L540.69,269.5L544.13,262.75L547.58,260.95L551.02,260.84L554.46,283.25L557.91,256.13L561.35,243.15L564.8,233.73L568.24,217.37L575.13,189.84L578.57,180.72L585.46,149.38L588.9,146.51L592.35,134.61L595.79,149.04L599.23,125.36L602.68,115.24L606.12,121.51L609.57,122.63L613.01,131.26L616.45,135.68L619.9,137.15L623.34,136.29L626.79,131.82L630.23,136.11L637.12,115.42L640.56,117.57L644.01,120.45L647.45,131.24L650.89,135.8L654.34,142.95L661.22,144.66L664.67,138.4L668.11,142.62L671.56,133.27L675,143.03L675,292.68L671.56,284.04L668.11,283.35L664.67,288.02L661.22,282.52L657.78,285.73L654.34,284.76L650.89,285.6L647.45,281.67L644.01,272.75L640.56,267.01L637.12,261.58L633.67,274.55L630.23,273.67L623.34,281.55L619.9,286.37L616.45,278.56L613.01,273.69L609.57,271.47L606.12,265.91L602.68,262.28L599.23,265.64L595.79,293.1L592.35,280.58L588.9,294.66L585.46,291.86L582.02,307.95L578.57,323.84L575.13,332.47L571.68,353.3L564.8,374.04L561.35,388.12L554.46,427.65L551.02,405.36L547.58,405.76L544.13,412.78L540.69,414.99L537.24,420.66L533.8,418.7L530.36,415.55L523.47,435.55L520.03,429.18L516.58,424.83L513.14,417.15L509.69,437L506.25,422.82L502.81,418.35L499.36,418.65L495.92,404.39L492.47,402.2L489.03,391.29L485.59,387.65L482.14,390.2L478.7,387.25L475.26,377.26L471.81,364.02L468.37,389.09L464.92,389.41L458.04,372.08L454.59,353.52L451.15,348.96L447.7,344.65L444.26,337.27L440.82,328.76L433.93,315.48L430.48,306.43L427.04,306.11L423.6,298.42L420.15,297.92L416.71,293.26L413.27,293.06L409.82,290.26L406.38,297.85L402.93,299.74L399.49,298.62L396.05,306.19L392.6,302.33L389.16,302.26L385.71,298.14L382.27,303.93L378.83,296.76L375.38,290.75L371.94,301.3L368.49,287.17L361.61,292.64L358.16,298.16L351.28,289.72L347.83,285.14L344.39,289.44L340.94,290.83L337.5,294.88L334.06,291.58L327.17,296.63L323.72,296.63L320.28,294.33L316.84,291.08L313.39,298.14L309.95,291.73L306.51,294.27L303.06,282.88L299.62,289.46L296.17,298.36L292.73,298.66L289.29,303.19L285.84,305.41L282.4,299.39L278.95,306.53L275.51,297.63L272.07,306.77L268.62,314.25L265.18,330.18L261.73,276.94L258.29,286.34L254.85,291.6L247.96,320.75L244.52,329.97L241.07,334.51L237.63,339.89L234.18,359.08L230.74,360.86L227.3,371.76L223.85,386.64L216.96,381.92L213.52,386.23L210.08,394.52L206.63,396.18L203.19,395.33L199.74,410.55L196.3,414.25L192.86,416.89L185.97,417.98L182.53,429.66L179.08,420.22L175.64,419.85L172.19,413.73L168.75,410.18L165.31,393.19L161.86,400.68L158.42,399.69L154.97,397L151.53,402.75L148.09,392.86L144.64,394.45L141.2,384.34L134.31,380.8L130.87,366.98L127.42,357.04L123.98,337.96L120.54,344.1L117.09,330.35L113.65,331.27L110.2,318.57L106.76,315.83L103.32,311.5L99.87,316.9L96.43,300.61L92.98,301.52L89.54,303.98L82.65,293.7L79.21,303.97L75.77,301.21L72.32,304.82L68.88,303.53L65.43,308.48L61.99,311.44L58.55,313.01L55.1,302.16L51.66,299.18L48.21,299.61L44.77,312.87L41.33,303.47L37.88,303.56L34.44,296.52L30.99,305.67L27.55,302.22L24.11,304.58L17.22,299.48Z" style="fill: rgb(214, 39, 40); fill-opacity: 0.05; stroke-width: 0;"/></g></g><g class="errorbars"/><g class="lines"><path class="js-line" d="M17.22,299.48L24.11,304.58L27.55,302.22L30.99,305.67L34.44,296.52L37.88,303.56L41.33,303.47L44.77,312.87L48.21,299.61L51.66,299.18L55.1,302.16L58.55,313.01L61.99,311.44L65.43,308.48L68.88,303.53L72.32,304.82L75.77,301.21L79.21,303.97L82.65,293.7L89.54,303.98L92.98,301.52L96.43,300.61L99.87,316.9L103.32,311.5L106.76,315.83L110.2,318.57L113.65,331.27L117.09,330.35L120.54,344.1L123.98,337.96L127.42,357.04L130.87,366.98L134.31,380.8L141.2,384.34L144.64,394.45L148.09,392.86L151.53,402.75L154.97,397L158.42,399.69L161.86,400.68L165.31,393.19L168.75,410.18L172.19,413.73L175.64,419.85L179.08,420.22L182.53,429.66L185.97,417.98L192.86,416.89L196.3,414.25L199.74,410.55L203.19,395.33L206.63,396.18L210.08,394.52L213.52,386.23L216.96,381.92L223.85,386.64L227.3,371.76L230.74,360.86L234.18,359.08L237.63,339.89L241.07,334.51L244.52,329.97L247.96,320.75L254.85,291.6L258.29,286.34L261.73,276.94L265.18,330.18L268.62,314.25L272.07,306.77L275.51,297.63L278.95,306.53L282.4,299.39L285.84,305.41L289.29,303.19L292.73,298.66L296.17,298.36L299.62,289.46L303.06,282.88L306.51,294.27L309.95,291.73L313.39,298.14L316.84,291.08L320.28,294.33L323.72,296.63L327.17,296.63L334.06,291.58L337.5,294.88L340.94,290.83L344.39,289.44L347.83,285.14L351.28,289.72L358.16,298.16L361.61,292.64L368.49,287.17L371.94,301.3L375.38,290.75L378.83,296.76L382.27,303.93L385.71,298.14L389.16,302.26L392.6,302.33L396.05,306.19L399.49,298.62L402.93,299.74L406.38,297.85L409.82,290.26L413.27,293.06L416.71,293.26L420.15,297.92L423.6,298.42L427.04,306.11L430.48,306.43L433.93,315.48L440.82,328.76L444.26,337.27L447.7,344.65L451.15,348.96L454.59,353.52L458.04,372.08L464.92,389.41L468.37,389.09L471.81,364.02L475.26,377.26L478.7,387.25L482.14,390.2L485.59,387.65L489.03,391.29L492.47,402.2L495.92,404.39L499.36,418.65L502.81,418.35L506.25,422.82L509.69,437L513.14,417.15L516.58,424.83L520.03,429.18L523.47,435.55L530.36,415.55L533.8,418.7L537.24,420.66L540.69,414.99L544.13,412.78L547.58,405.76L551.02,405.36L554.46,427.65L561.35,388.12L564.8,374.04L571.68,353.3L575.13,332.47L578.57,323.84L582.02,307.95L585.46,291.86L588.9,294.66L592.35,280.58L595.79,293.1L599.23,265.64L602.68,262.28L606.12,265.91L609.57,271.47L613.01,273.69L616.45,278.56L619.9,286.37L623.34,281.55L630.23,273.67L633.67,274.55L637.12,261.58L640.56,267.01L644.01,272.75L647.45,281.67L650.89,285.6L654.34,284.76L657.78,285.73L661.22,282.52L664.67,288.02L668.11,283.35L671.56,284.04L675,292.68" style="vector-effect: non-scaling-stroke; fill: none; stroke: rgb(214, 39, 40); stroke-opacity: 1; stroke-width: 5px; opacity: 1;"/></g><g class="points"/><g class="text"/></g><g class="trace scatter trace1db0fa" style="stroke-miterlimit: 2;"><g class="fills"/><g class="errorbars"/><g class="lines"><path class="js-line" d="M17.22,155.31L20.66,167.31L24.11,158.53L27.55,160.02L30.99,159.38L34.44,155.09L37.88,156.81L41.33,164.24L44.77,163.94L51.66,152.37L55.1,154.81L58.55,168.87L61.99,170L68.88,159.05L72.32,161.37L75.77,158.68L79.21,152.78L82.65,156.04L86.1,156.91L92.98,149.71L96.43,154.27L99.87,162.87L103.32,165.27L110.2,176.08L113.65,182.56L117.09,184.66L120.54,192.35L123.98,190.07L127.42,212.61L130.87,218.99L134.31,238.2L137.76,236.17L141.2,237.42L148.09,244.03L151.53,251.22L154.97,258.41L158.42,253.13L161.86,257.14L165.31,255.64L168.75,266.04L172.19,268.39L182.53,289.19L185.97,272.69L189.41,277.7L192.86,278.57L203.19,250.45L206.63,256.85L210.08,246.79L213.52,243.06L216.96,235.5L220.41,237.81L223.85,239.95L227.3,227.16L230.74,215.82L234.18,212.36L244.52,176.42L247.96,172.01L254.85,149.17L258.29,143.07L261.73,134.51L265.18,183.68L268.62,164.17L272.07,158.35L275.51,151.35L278.95,151.76L282.4,159.15L285.84,156.92L289.29,155.34L292.73,149.64L296.17,147.85L299.62,141.21L303.06,136.57L306.51,138.36L309.95,151.92L313.39,151.12L316.84,146.64L320.28,150.6L323.72,153.28L327.17,159.75L330.61,153.59L334.06,151.8L337.5,149.65L340.94,144.47L344.39,147.43L347.83,136.28L351.28,141.53L354.72,150.63L358.16,146.35L361.61,154.66L365.05,147.59L368.49,153.01L371.94,148.56L375.38,153.35L378.83,151.48L382.27,156.68L385.71,148.49L389.16,157.04L392.6,155.82L396.05,157.61L399.49,158.18L402.93,152.85L406.38,153.53L409.82,148.86L413.27,148.3L416.71,150.58L420.15,153.68L423.6,161.36L430.48,169.79L433.93,170.13L447.7,194.49L451.15,206.3L454.59,216.85L458.04,219.62L461.48,240.84L464.92,245.33L468.37,249.83L471.81,217.63L475.26,236.08L478.7,244.28L482.14,245.41L485.59,253.87L492.47,262.29L495.92,256.81L499.36,268.29L502.81,273.51L509.69,290.25L513.14,275.84L516.58,279.32L520.03,287.33L523.47,287.04L526.91,275.09L530.36,274.61L533.8,270.03L537.24,278.08L540.69,269.5L544.13,262.75L547.58,260.95L551.02,260.84L554.46,283.25L557.91,256.13L561.35,243.15L564.8,233.73L568.24,217.37L575.13,189.84L578.57,180.72L585.46,149.38L588.9,146.51L592.35,134.61L595.79,149.04L599.23,125.36L602.68,115.24L606.12,121.51L609.57,122.63L613.01,131.26L616.45,135.68L619.9,137.15L623.34,136.29L626.79,131.82L630.23,136.11L637.12,115.42L640.56,117.57L644.01,120.45L647.45,131.24L650.89,135.8L654.34,142.95L661.22,144.66L664.67,138.4L668.11,142.62L671.56,133.27L675,143.03" style="vector-effect: non-scaling-stroke; fill: none; stroke: rgb(214, 39, 40); stroke-opacity: 1; stroke-width: 5px; opacity: 1;"/></g><g class="points"/><g class="text"/></g><g class="trace scatter trace2e7530" style="stroke-miterlimit: 2; opacity: 1;"><g class="fills"/><g class="errorbars"/><g class="lines"><path class="js-line" d="M17.22,230.32L20.66,230.1L24.11,232.45L27.55,234.37L30.99,230.03L34.44,228.57L37.88,230.26L41.33,233.22L44.77,231.24L51.66,230.32L55.1,230.64L58.55,243.15L61.99,239.56L65.43,234.35L68.88,232.33L72.32,232.59L75.77,230.84L82.65,223.51L86.1,227.46L89.54,229.89L92.98,230.15L96.43,229.9L99.87,237.39L110.2,249.07L113.65,255.53L123.98,271.9L127.42,287.05L134.31,306.47L137.76,311.43L141.2,311.83L144.64,316.56L151.53,323.28L154.97,325.36L161.86,326.3L165.31,326.51L172.19,341.11L175.64,346.33L182.53,358.65L185.97,348.79L189.41,346.36L192.86,351.42L199.74,329.31L203.19,326.43L206.63,326.99L210.08,319.05L213.52,313.67L216.96,311.81L220.41,311.56L223.85,313.57L230.74,287.63L234.18,281.29L261.73,206.4L265.18,258.13L268.62,241.91L272.07,231.71L275.51,225.16L278.95,227.44L282.4,228.88L285.84,228.85L289.29,228.3L292.73,223.09L303.06,209.8L306.51,212.14L309.95,223.24L313.39,224.52L316.84,218.52L320.28,222.6L323.72,225.37L327.17,224.73L334.06,220.99L337.5,220.05L344.39,219.42L347.83,206.12L354.72,219.8L358.16,222.38L361.61,219.35L365.05,219.52L371.94,226.21L375.38,224.8L382.27,224.69L385.71,225.26L389.16,228.2L392.6,228.88L402.93,225.97L406.38,224.39L413.27,218.5L416.71,223.4L420.15,227.02L423.6,228.77L427.04,230.36L430.48,237.41L451.15,278.17L454.59,283.53L461.48,310.64L464.92,318L468.37,322.84L471.81,289.93L475.26,306.44L478.7,315.05L489.03,327.35L492.47,329.86L495.92,331.96L499.36,341.32L506.25,355.95L509.69,362.44L513.14,346L516.58,349.88L523.47,363.24L526.91,351.57L530.36,345.05L533.8,345.14L537.24,347.81L540.69,340.96L544.13,335.84L547.58,333.48L551.02,331.87L554.46,358.87L561.35,314.43L564.8,303.51L582.02,237.08L585.46,224.71L592.35,206L595.79,220.33L599.23,196.47L602.68,186.6L606.12,189.9L609.57,200.23L613.01,205.92L616.45,208.68L619.9,210.87L623.34,208.19L633.67,199.87L637.12,190.49L640.56,192.44L644.01,200L647.45,201.68L650.89,208.95L654.34,212.87L657.78,213.63L664.67,212.94L668.11,213.03L675,213.96" style="vector-effect: non-scaling-stroke; fill: none; stroke: rgb(255, 127, 14); stroke-opacity: 1; stroke-width: 5px; opacity: 1;"/></g><g class="points"/><g class="text"/></g></g></g><g class="overplot"/><path class="xlines-above crisp" d="M0,0" style="fill: none;"/><path class="ylines-above crisp" d="M74,50V510" style="fill: none; stroke-width: 2px; stroke: rgb(0, 0, 0); stroke-opacity: 1;"/><g class="overlines-above"/><g class="xaxislayer-above"><g class="xtick"><text text-anchor="middle" x="0" y="530" transform="translate(92.22,0)" style="font-family: 'Open Sans', verdana, arial, sans-serif; font-size: 19px; fill: rgb(42, 63, 95); fill-opacity: 1; white-space: pre; opacity: 1;"><tspan class="line" dy="0em" x="0" y="530">00:00</tspan><tspan class="line" dy="1.3em" x="0" y="530">Apr 26, 2022</tspan></text></g><g class="xtick"><text text-anchor="middle" x="0" y="530" style="font-family: 'Open Sans', verdana, arial, sans-serif; font-size: 19px; fill: rgb(42, 63, 95); fill-opacity: 1; white-space: pre; opacity: 1;" transform="translate(174.87,0)">06:00</text></g><g class="xtick"><text text-anchor="middle" x="0" y="530" style="font-family: 'Open Sans', verdana, arial, sans-serif; font-size: 19px; fill: rgb(42, 63, 95); fill-opacity: 1; white-space: pre; opacity: 1;" transform="translate(257.53,0)">12:00</text></g><g class="xtick"><text text-anchor="middle" x="0" y="530" style="font-family: 'Open Sans', verdana, arial, sans-serif; font-size: 19px; fill: rgb(42, 63, 95); fill-opacity: 1; white-space: pre; opacity: 1;" transform="translate(340.18,0)">18:00</text></g><g class="xtick"><text text-anchor="middle" x="0" y="530" style="font-family: 'Open Sans', verdana, arial, sans-serif; font-size: 19px; fill: rgb(42, 63, 95); fill-opacity: 1; white-space: pre; opacity: 1;" transform="translate(422.83,0)"><tspan class="line" dy="0em" x="0" y="530">00:00</tspan><tspan class="line" dy="1.3em" x="0" y="530">Apr 27, 2022</tspan></text></g><g class="xtick"><text text-anchor="middle" x="0" y="530" style="font-family: 'Open Sans', verdana, arial, sans-serif; font-size: 19px; fill: rgb(42, 63, 95); fill-opacity: 1; white-space: pre; opacity: 1;" transform="translate(505.48,0)">06:00</text></g><g class="xtick"><text text-anchor="middle" x="0" y="530" style="font-family: 'Open Sans', verdana, arial, sans-serif; font-size: 19px; fill: rgb(42, 63, 95); fill-opacity: 1; white-space: pre; opacity: 1;" transform="translate(588.14,0)">12:00</text></g><g class="xtick"><text text-anchor="middle" x="0" y="530" style="font-family: 'Open Sans', verdana, arial, sans-serif; font-size: 19px; fill: rgb(42, 63, 95); fill-opacity: 1; white-space: pre; opacity: 1;" transform="translate(670.79,0)">18:00</text></g></g><g class="yaxislayer-above"><g class="ytick"><text text-anchor="end" x="69.2" y="6.6499999999999995" transform="translate(0,474.15)" style="font-family: 'Open Sans', verdana, arial, sans-serif; font-size: 19px; fill: rgb(42, 63, 95); fill-opacity: 1; white-space: pre; opacity: 1;">−2</text></g><g class="ytick"><text text-anchor="end" x="69.2" y="6.6499999999999995" style="font-family: 'Open Sans', verdana, arial, sans-serif; font-size: 19px; fill: rgb(42, 63, 95); fill-opacity: 1; white-space: pre; opacity: 1;" transform="translate(0,414.55)">−1</text></g><g class="ytick"><text text-anchor="end" x="69.2" y="6.6499999999999995" style="font-family: 'Open Sans', verdana, arial, sans-serif; font-size: 19px; fill: rgb(42, 63, 95); fill-opacity: 1; white-space: pre; opacity: 1;" transform="translate(0,354.96)">0</text></g><g class="ytick"><text text-anchor="end" x="69.2" y="6.6499999999999995" style="font-family: 'Open Sans', verdana, arial, sans-serif; font-size: 19px; fill: rgb(42, 63, 95); fill-opacity: 1; white-space: pre; opacity: 1;" transform="translate(0,295.37)">1</text></g><g class="ytick"><text text-anchor="end" x="69.2" y="6.6499999999999995" style="font-family: 'Open Sans', verdana, arial, sans-serif; font-size: 19px; fill: rgb(42, 63, 95); fill-opacity: 1; white-space: pre; opacity: 1;" transform="translate(0,235.78)">2</text></g><g class="ytick"><text text-anchor="end" x="69.2" y="6.6499999999999995" style="font-family: 'Open Sans', verdana, arial, sans-serif; font-size: 19px; fill: rgb(42, 63, 95); fill-opacity: 1; white-space: pre; opacity: 1;" transform="translate(0,176.18)">3</text></g><g class="ytick"><text text-anchor="end" x="69.2" y="6.6499999999999995" style="font-family: 'Open Sans', verdana, arial, sans-serif; font-size: 19px; fill: rgb(42, 63, 95); fill-opacity: 1; white-space: pre; opacity: 1;" transform="translate(0,116.59)">4</text></g><g class="ytick"><text text-anchor="end" x="69.2" y="6.6499999999999995" style="font-family: 'Open Sans', verdana, arial, sans-serif; font-size: 19px; fill: rgb(42, 63, 95); fill-opacity: 1; white-space: pre; opacity: 1;" transform="translate(0,57)">5</text></g></g><g class="overaxes-above"/></g></g><g class="polarlayer"/><g class="ternarylayer"/><g class="geolayer"/><g class="funnelarealayer"/><g class="pielayer"/><g class="iciclelayer"/><g class="treemaplayer"/><g class="sunburstlayer"/><g class="glimages"/><defs id="topdefs-c6e591"><g class="clips"/></defs><g class="layer-above"><g class="imagelayer"/><g class="shapelayer"/></g><g class="infolayer"><g class="g-gtitle"/><g class="g-xtitle"/><g class="g-ytitle" transform="translate(12.537109375,0)"><text class="ytitle" transform="rotate(-90,10.462500000000006,280)" x="10.462500000000006" y="280" text-anchor="middle" style="font-family: 'Open Sans', verdana, arial, sans-serif; font-size: 23px; fill: rgb(42, 63, 95); opacity: 1; font-weight: normal; white-space: pre;">Power [kW]</text></g></g></svg>