<svg class="main-svg" xmlns="http://www.w3.org/2000/svg" xmlns:xlink="http://www.w3.org/1999/xlink" width="1100" height="600" viewBox="0 0 1100 600"><rect x="0" y="0" width="1100" height="600" style="fill: rgb(255, 255, 255); fill-opacity: 1;"/><defs id="defs-c025e3"><g class="clips"><clipPath id="clipc025e3xyplot" class="plotclip"><rect width="826" height="460"/></clipPath><clipPath class="axesclip" id="clipc025e3x"><rect x="78" y="0" width="826" height="600"/></clipPath><clipPath class="axesclip" id="clipc025e3y"><rect x="0" y="50" width="1100" height="460"/></clipPath><clipPath class="axesclip" id="clipc025e3xy"><rect x="78" y="50" width="826" height="460"/></clipPath></g><g class="gradients"/><g class="patterns"/></defs><g class="bglayer"/><g class="layer-below"><g class="imagelayer"/><g class="shapelayer"/></g><g class="cartesianlayer"><g class="subplot xy"><g class="layer-subplot"><g class="shapelayer"/><g class="imagelayer"/></g><g class="gridlayer"><g class="x"><path class="xgrid crisp" transform="translate(196,0)" d="M0,50v460" style="stroke: rgb(235, 240, 248); stroke-opacity: 1; stroke-width: 1px;"/><path class="xgrid crisp" transform="translate(314,0)" d="M0,50v460" style="stroke: rgb(235, 240, 248); stroke-opacity: 1; stroke-width: 1px;"/><path class="xgrid crisp" transform="translate(432,0)" d="M0,50v460" style="stroke: rgb(235, 240, 248); stroke-opacity: 1; stroke-width: 1px;"/><path class="xgrid crisp" transform="translate(550,0)" d="M0,50v460" style="stroke: rgb(235, 240, 248); stroke-opacity: 1; stroke-width: 1px;"/><path class="xgrid crisp" transform="translate(668,0)" d="M0,50v460" style="stroke: rgb(235, 240, 248); stroke-opacity: 1; stroke-width: 1px;"/><path class="xgrid crisp" transform="translate(786,0)" d="M0,50v460" style="stroke: rgb(235, 240, 248); stroke-opacity: 1; stroke-width: 1px;"/></g><g class="y"><path class="ygrid crisp" transform="translate(0,435.4)" d="M78,0h826" style="stroke: rgb(235, 240, 248); stroke-opacity: 1; stroke-width: 1px;"/><path class="ygrid crisp" transform="translate(0,383.79)" d="M78,0h826" style="stroke: rgb(235, 240, 248); stroke-opacity: 1; stroke-width: 1px;"/><path class="ygrid crisp" transform="translate(0,332.19)" d="M78,0h826" style="stroke: rgb(235, 240, 248); stroke-opacity: 1; stroke-width: 1px;"/><path class="ygrid crisp" transform="translate(0,280.58000000000004)" d="M78,0h826" style="stroke: rgb(235, 240, 248); stroke-opacity: 1; stroke-width: 1px;"/><path class="ygrid crisp" transform="translate(0,228.98)" d="M78,0h826" style="stroke: rgb(235, 240, 248); stroke-opacity: 1; stroke-width: 1px;"/><path class="ygrid crisp" transform="translate(0,177.37)" d="M78,0h826" style="stroke: rgb(235, 240, 248); stroke-opacity: 1; stroke-width: 1px;"/><path class="ygrid crisp" transform="translate(0,125.77)" d="M78,0h826" style="stroke: rgb(235, 240, 248); stroke-opacity: 1; stroke-width: 1px;"/><path class="ygrid crisp" transform="translate(0,74.16)" d="M78,0h826" style="stroke: rgb(235, 240, 248); stroke-opacity: 1; stroke-width: 1px;"/></g></g><g class="zerolinelayer"><path class="yzl zl crisp" transform="translate(0,487)" d="M78,0h826" style="stroke: rgb(0, 0, 0); stroke-opacity: 1; stroke-width: 2px;"/></g><path class="xlines-below"/><path class="ylines-below"/><g class="overlines-below"/><g class="xaxislayer-below"/><g class="yaxislayer-below"/><g class="overaxes-below"/><g class="plot" transform="translate(78,50)" clip-path="url(#clipc025e3xyplot)"><g class="scatterlayer mlayer"><g class="trace scatter trace8e3897" style="stroke-miterlimit: 2; opacity: 1;"><g class="fills"/><g class="errorbars"/><g class="lines"><path class="js-line" d="M0,437L826,437" style="vector-effect: non-scaling-stroke; fill: none; stroke: rgb(214, 39, 40); stroke-opacity: 1; stroke-width: 2px; opacity: 1;"/></g><g class="points"/><g class="text"/></g><g class="trace scatter trace25c09b" style="stroke-miterlimit: 2; opacity: 1;"><g class="fills"/><g class="errorbars"/><g class="lines"><path class="js-line" d="M0,437L20.9,437L22.13,435.96L24.58,434.71L25.81,437L27.04,437L28.27,432.16L29.5,431.29L30.73,437L31.96,431.88L33.19,437L34.42,437L35.65,421.52L36.88,437L38.1,421.21L39.33,437L40.56,437L41.79,416.8L43.02,437L44.25,412.47L45.48,413.29L47.94,421.19L49.17,437L51.63,437L52.85,410.25L54.08,437L55.31,437L56.54,437L57.77,407.72L59,437L60.23,413.16L61.46,416.97L62.69,437L67.6,437L68.83,381.81L70.06,437L71.29,437L72.52,437L73.75,408.03L74.98,437L76.21,418.42L77.44,412.75L78.67,437L81.13,426.69L82.35,437L83.58,416.38L84.81,437L86.04,429.95L87.27,437L88.5,431.18L89.73,433.3L90.96,437L92.19,437L138.9,436.56L140.13,435.9L142.58,434.57L143.81,437L145.04,432.41L146.27,431.24L147.5,430.07L148.73,433.57L149.96,437L151.19,420.67L152.42,437L153.65,419.53L156.1,413.27L157.33,437L158.56,407.19L159.79,437L161.02,402.31L162.25,437L163.48,437L164.71,396.69L165.94,437L167.17,395.81L168.4,396.15L169.63,437L170.85,395.63L172.08,437L173.31,395.83L174.54,397.22L175.77,437L177,403.08L178.23,398.5L179.46,437L180.69,397.75L181.92,437L183.15,397.34L184.38,437L185.6,399.09L186.83,437L188.06,437L189.29,401.79L190.52,437L191.75,403.81L192.98,437L194.21,409.94L196.67,422.63L197.9,437L199.13,437L200.35,418.21L201.58,437L202.81,430.54L204.04,437L205.27,437L206.5,433.5L207.73,434.94L208.96,437L210.19,437L213.88,437L215.1,437L261.81,437L263.04,433.07L264.27,430.95L265.5,434.91L266.73,432.06L267.96,432.07L269.19,423.98L270.42,437L271.65,429.94L272.88,430.33L274.1,437L275.33,421.96L276.56,437L277.79,437L280.25,410.98L281.48,437L282.71,414.79L283.94,437L285.17,414.85L286.4,437L287.63,437L288.85,410.87L290.08,437L291.31,410.79L292.54,414.63L293.77,409.78L295,437L296.23,422.31L297.46,437L298.69,412.94L299.92,437L301.15,405.56L302.38,437L303.6,437L304.83,401.26L306.06,437L308.52,437L309.75,384.46L310.98,437L312.21,437L313.44,410.86L314.67,421.52L315.9,437L317.13,427.47L318.35,422.55L319.58,437L320.81,433.1L322.04,436L323.27,437L324.5,432.75L325.73,433.99L326.96,437L382.27,436.33L383.5,436.09L388.42,432.22L389.65,437L390.88,431.3L392.1,437L393.33,430.61L394.56,437L395.79,427.03L397.02,437L398.25,422.87L399.48,427.09L400.71,437L401.94,437L403.17,437L404.4,412.76L405.63,437L406.85,437L408.08,437L409.31,396.5L410.54,437L411.77,437L420.38,437L421.6,408.15L422.83,437L424.06,425.22L425.29,437L426.52,429.74L427.75,429.49L428.98,437L430.21,422.81L431.44,437L433.9,437L435.13,431.88L436.35,425.99L437.58,437L441.27,437L442.5,433.28L443.73,437L444.96,437L497.81,437L499.04,433.74L500.27,432.15L501.5,437L503.96,431.61L505.19,422.95L506.42,437L507.65,437L508.88,437L510.1,409.09L511.33,437L512.56,437L513.79,397.98L515.02,437L516.25,395.12L517.48,437L518.71,437L519.94,399.35L522.4,411.26L523.63,408.05L524.85,437L526.08,423.68L527.31,437L528.54,427.72L529.77,437L531,416.28L532.23,410.41L533.46,437L537.15,437L538.38,393.25L539.6,437L540.83,386.54L542.06,437L543.29,437L544.52,399.38L545.75,437L546.98,410.31L548.21,437L549.44,414.18L550.67,437L551.9,418.34L553.13,437L554.35,412.48L555.58,437L556.81,437L558.04,430.79L559.27,437L560.5,431.98L562.96,437L564.19,437L610.9,436.56L612.13,435.9L614.58,434.59L615.81,437L617.04,432.93L618.27,432.07L619.5,431.21L620.73,433.26L621.96,429.39L623.19,437L624.42,421.85L625.65,437L626.88,437L628.1,407.51L629.33,437L630.56,437L631.79,437L633.02,397.69L634.25,396.64L635.48,437L636.71,414.17L637.94,425.1L639.17,437L640.4,433.41L641.63,415.55L642.85,437L649,437L650.23,410.82L652.69,437L653.92,437L655.15,415L656.38,422.16L657.6,437L658.83,437L660.06,417.06L661.29,437L662.52,437L663.75,426.32L664.98,437L666.21,437L667.44,416.92L668.67,437L669.9,437L671.13,413.14L672.35,419.82L673.58,437L674.81,431.83L676.04,436.88L677.27,437L678.5,432.13L679.73,437L680.96,437L728.9,436.58L730.13,435.96L733.81,433.49L735.04,431.97L736.27,430.46L737.5,434.64L738.73,427.78L739.96,437L741.19,425.82L742.42,424.84L743.65,437L744.88,427.49L746.1,420.34L747.33,437L748.56,416.37L749.79,437L751.02,409.32L752.25,437L755.94,437L757.17,381.76L759.63,437L760.85,437L762.08,437L763.31,377.54L764.54,437L765.77,437L768.23,437L769.46,407.25L771.92,434.48L773.15,437L776.83,437L778.06,429.8L779.29,437L780.52,437L782.98,437L784.21,433.87L785.44,434.16L786.67,437L787.9,433.94L789.13,437L790.35,432.1L791.58,437L792.81,431.83L794.04,437L795.27,437L796.5,436.08L797.73,437L798.96,436.74L810.02,437L811.25,437L826,437" style="vector-effect: non-scaling-stroke; fill: none; stroke: rgb(255, 127, 14); stroke-opacity: 1; stroke-width: 2px; opacity: 1;"/></g><g class="points"/><g class="text"/></g><g class="trace scatter trace8ffa69" style="stroke-miterlimit: 2; opacity: 1;"><g class="fills"/><g class="errorbars"/><g class="lines"><path class="js-line" d="M0,343.5L7.38,357.95L8.6,359.89L17.21,374.61L18.44,376.59L25.81,388.25L27.04,389.7L28.27,390.21L29.5,391.97L30.73,393.85L31.96,393.35L33.19,393.35L34.42,390.97L35.65,387.32L36.88,387.32L38.1,383.57L39.33,383.57L41.79,375.6L43.02,375.6L44.25,369.93L45.48,369.93L49.17,369.93L50.4,366.63L52.85,358.2L54.08,358.2L56.54,345.42L57.77,338.34L59,338.34L60.23,332.05L62.69,332.05L63.92,328.8L65.15,326.37L66.38,317.83L68.83,295.77L70.06,295.77L73.75,261.8L74.98,261.8L76.21,255.56L77.44,255.56L78.67,257.8L79.9,255.18L82.35,255.18L83.58,252.81L84.81,254.46L86.04,251.9L88.5,251.25L89.73,253.27L92.19,257.03L93.42,258.48L95.88,264.06L97.1,268.68L100.79,280.6L102.02,283.46L103.25,285.9L104.48,292.46L109.4,312.22L110.63,315.44L114.31,324.73L115.54,326.63L126.6,344.74L127.83,346.15L129.06,348.16L130.29,351.93L143.81,371.81L145.04,372.62L148.73,377.39L149.96,377.39L151.19,375.84L152.42,377.52L153.65,374.4L154.88,374.4L157.33,374.4L158.56,367.7L159.79,367.7L161.02,359.88L162.25,359.88L163.48,351.39L164.71,343.52L165.94,343.52L167.17,334.14L168.4,334.14L169.63,334.14L170.85,324.49L172.08,324.49L173.31,314.61L175.77,314.61L177,305.37L179.46,305.37L180.69,296.46L181.92,296.46L183.15,286.95L184.38,286.95L185.6,277.46L186.83,277.46L188.06,268.64L189.29,260.55L190.52,260.55L191.75,252.2L192.98,252.2L194.21,245.02L195.44,245.02L197.9,245.02L199.13,242.29L200.35,240.01L201.58,243.07L202.81,240.87L204.04,240.87L206.5,241.5L207.73,245.08L212.65,256.6L213.88,258.77L218.79,272.3L220.02,277.44L222.48,283.89L223.71,289.39L226.17,295.75L227.4,301.85L233.54,322.05L234.77,325.32L242.15,340.43L243.38,342.12L247.06,347.41L248.29,349.43L253.21,356.33L254.44,358.12L258.13,363.31L259.35,364.73L265.5,371.79L266.73,371.79L269.19,371.79L270.42,373.55L271.65,371.23L272.88,371.23L274.1,371.23L275.33,369.14L276.56,372.23L277.79,369.47L279.02,365.51L280.25,365.51L281.48,365.51L282.71,359.22L283.94,359.22L285.17,353.06L286.4,353.06L287.63,347.4L288.85,341.57L290.08,341.57L291.31,335.62L292.54,335.62L293.77,335.62L295,337.91L296.23,334.88L297.46,334.88L298.69,330.67L299.92,330.67L301.15,324.5L302.38,324.5L306.06,298.85L307.29,284.42L309.75,257.13L310.98,257.13L313.44,238.22L314.67,238.22L315.9,238.22L317.13,235.63L318.35,235.63L319.58,238L320.81,236.24L322.04,236.24L324.5,236.6L325.73,238.28L330.65,245.2L331.88,248.15L336.79,259.44L338.02,263.58L344.17,281.68L345.4,285.87L347.85,296.32L349.08,302.61L352.77,312.21L354,314.86L363.83,329.37L365.06,332.14L379.81,354.54L381.04,355.78L383.5,359.32L384.73,361.52L385.96,362.93L387.19,365.88L389.65,372.26L390.88,373.54L392.1,376.37L393.33,377.3L397.02,384.3L398.25,382.97L399.48,386.01L400.71,386.01L401.94,383.47L403.17,379.08L404.4,374L405.63,374L409.31,352.78L410.54,352.78L414.23,316.76L415.46,302.48L421.6,238.82L422.83,238.82L424.06,234.99L425.29,234.99L426.52,233.11L427.75,233.11L428.98,233.11L430.21,231.78L431.44,234.57L432.67,234.09L436.35,231.93L437.58,234.78L440.04,233.54L441.27,233.48L442.5,234.05L443.73,236.46L446.19,240.87L447.42,243.51L452.33,260.37L453.56,265.14L458.48,279.99L459.71,283.94L463.4,298.01L464.63,306.47L468.31,323.38L469.54,328.47L478.15,354.98L479.38,356.83L481.83,359.87L483.06,362.5L489.21,373.05L490.44,375.97L492.9,380.67L494.13,382.39L497.81,387.51L499.04,388.34L500.27,389.36L501.5,391.41L503.96,392.1L505.19,392.1L506.42,393.85L507.65,392.06L510.1,382.94L511.33,382.94L513.79,366.4L515.02,366.4L516.25,356.63L517.48,356.63L519.94,338L521.17,338L523.63,338L524.85,341.33L526.08,338.98L527.31,342.21L529.77,341.4L531,337.39L533.46,337.39L534.69,330.55L538.38,301.44L539.6,301.44L540.83,290.38L542.06,290.38L544.52,269.42L545.75,269.42L546.98,261.51L548.21,261.51L549.44,255.49L550.67,255.49L551.9,250.63L553.13,250.63L554.35,246.11L555.58,248.6L558.04,243.54L559.27,243.54L560.5,243.1L561.73,245.78L567.88,258.71L569.1,260.65L571.56,265.56L572.79,269.06L576.48,278.37L577.71,283.34L580.17,290.8L581.4,294.21L585.08,303.89L586.31,307.08L590,315.37L591.23,316.97L597.38,325.62L598.6,327.23L602.29,332.7L603.52,334.15L615.81,349.51L617.04,349.8L620.73,354.41L621.96,354.41L623.19,354.41L624.42,351.62L625.65,351.62L626.88,346.96L628.1,340.97L629.33,340.97L633.02,315.25L634.25,315.25L635.48,315.25L636.71,307.78L639.17,307.78L640.4,305.95L641.63,305.95L642.85,309.91L644.08,308L645.31,303.7L649,287.4L650.23,286.26L652.69,286.26L653.92,282.29L655.15,279.42L656.38,279.42L657.6,279.42L658.83,275.93L660.06,273.11L661.29,275.64L662.52,274.69L663.75,274.83L664.98,278.25L666.21,277.3L667.44,273.71L668.67,273.71L671.13,259.28L672.35,259.28L673.58,259.28L674.81,257.11L678.5,257.23L679.73,259.55L683.42,265.69L684.65,268.55L687.1,274.24L688.33,279.83L700.63,313.6L701.85,317.75L708,333.04L709.23,335.39L714.15,344.12L715.38,345.45L717.83,347.95L719.06,350L723.98,358.39L725.21,359.4L737.5,374.03L738.73,374.03L739.96,376.08L741.19,375.18L742.42,376.75L743.65,380.58L744.88,378.42L746.1,378.42L747.33,378.42L748.56,374.05L749.79,374.05L751.02,368.45L752.25,368.45L753.48,361.11L757.17,330.94L758.4,330.94L759.63,322.7L760.85,308.62L763.31,280.5L764.54,280.5L769.46,229.66L770.69,229.66L774.38,230.01L775.6,232.16L778.06,234.57L779.29,237.81L784.21,243.71L785.44,246.17L789.13,253.29L790.35,254.15L794.04,260.37L795.27,261.45L797.73,265.01L798.96,266.92L801.42,271.81L802.65,275.9L806.33,286.45L807.56,290.98L812.48,306.06L813.71,309.65L817.4,321.32L818.63,324.3L822.31,335.09L823.54,337.96L826,343.5" style="vector-effect: non-scaling-stroke; fill: none; stroke: rgb(44, 160, 44); stroke-opacity: 1; stroke-width: 2px; opacity: 1;"/></g><g class="points"/><g class="text"/></g><g class="trace scatter tracef9a902" style="stroke-miterlimit: 2; opacity: 1;"><g class="fills"/><g class="errorbars"/><g class="lines"><path class="js-line" d="M0,103.44L7.38,105.97L8.6,106.17L12.29,106.22L13.52,106.15L15.98,106.55L17.21,107.02L19.67,107.97L20.9,110.28L24.58,117.2L25.81,124.07L35.65,175.88L36.88,181.03L40.56,193.69L41.79,196.05L45.48,201.99L46.71,203.19L54.08,211.11L55.31,209.04L60.23,199.85L61.46,196.87L65.15,185.98L66.38,181.05L70.06,164.63L71.29,158.07L83.58,95.84L84.81,91.65L88.5,79.09L89.73,78.36L93.42,76.19L94.65,73.78L108.17,48.43L109.4,49.22L114.31,52.93L115.54,54.28L118,56.97L119.23,56.99L124.15,57.49L125.38,57.91L129.06,58.42L130.29,58.07L132.75,57.39L133.98,59.49L137.67,65.79L138.9,70.75L152.42,128.13L153.65,133.72L162.25,171.65L163.48,174L167.17,181.03L168.4,181.36L172.08,182.36L173.31,181.19L177,177.67L178.23,175L181.92,166.97L183.15,161.88L190.52,128.9L191.75,122.99L201.58,79L202.81,76.3L206.5,68.2L207.73,70.12L211.42,75.88L212.65,79.82L217.56,97.19L218.79,102.71L222.48,121.89L223.71,130.01L227.4,151.48L228.63,156.71L232.31,170.32L233.54,173.48L236,179.82L237.23,179.3L240.92,177.75L242.15,176.31L247.06,169.85L248.29,167.7L250.75,163.41L251.98,158.83L255.67,145.11L256.9,144.3L260.58,141.88L261.81,144.52L266.73,156.74L267.96,161.03L277.79,192.61L279.02,195.9L283.94,207.38L285.17,210.12L290.08,214.56L291.31,213.61L295,210.76L296.23,207.05L301.15,190.37L302.38,184.82L308.52,153.59L309.75,146.88L317.13,105.84L318.35,100.46L322.04,87.13L323.27,83.16L324.5,79.19L325.73,77.78L330.65,73.07L331.88,72.57L339.25,69.99L340.48,71.83L344.17,77.33L345.4,77.58L350.31,78.18L351.54,78.03L361.38,77.13L362.6,77.33L365.06,77.01L366.29,76.51L368.75,75.49L369.98,76.35L373.67,78.92L374.9,81.99L379.81,93.21L381.04,95.24L383.5,99.3L384.73,103.2L394.56,134.31L395.79,136.09L404.4,148.9L405.63,151.35L408.08,156.25L409.31,156.77L413,158.34L414.23,158.03L417.92,157.12L419.15,155.67L422.83,151.35L424.06,148.61L427.75,140.38L428.98,134.11L442.5,66.02L443.73,61.9L448.65,47.67L449.88,45.78L452.33,42.01L453.56,41.71L457.25,40.8L458.48,42.44L462.17,47.37L463.4,50.36L469.54,63.81L470.77,66.04L473.23,69.2L474.46,70.12L476.92,71.96L478.15,69.54L481.83,62.28L483.06,57.15L486.75,41.76L487.98,40.53L491.67,36.86L492.9,40.46L500.27,64.34L501.5,68.7L512.56,100.67L513.79,102.58L517.48,106.94L518.71,107.5L523.63,109.19L524.85,109.47L526.08,109.75L527.31,108.17L545.75,84.46L546.98,81.09L559.27,46.91L560.5,42.93L567.88,37.44L569.1,36.3L571.56,33.2L572.79,31.24L575.25,27.32L576.48,27.26L580.17,27.1L581.4,29.95L593.69,56.69L594.92,59.3L599.83,51.91L601.06,48.35L604.75,37.66L605.98,38.68L609.67,41.74L610.9,45.81L625.65,92.92L626.88,96.03L631.79,106.9L633.02,109.23L634.25,111.56L635.48,111.71L641.63,111.7L642.85,111.48L646.54,111.55L647.77,111.7L649,111.84L650.23,110.58L655.15,104.64L656.38,102.5L658.83,98.21L660.06,94.42L668.67,66.17L669.9,61.56L678.5,31.36L679.73,30.27L688.33,23L689.56,25.5L693.25,33.01L694.48,41.56L699.4,72.27L700.63,77.31L703.08,87.38L704.31,96.84L709.23,129.82L710.46,134.43L712.92,143.64L714.15,144.38L717.83,146.59L719.06,145.03L723.98,137.74L725.21,135.13L727.67,129.91L728.9,130.99L732.58,134.22L733.81,137.74L737.5,148.28L738.73,154.37L743.65,180.76L744.88,188.91L749.79,217.22L751.02,223.23L752.25,229.24L753.48,230.96L757.17,236.13L758.4,235.09L763.31,230.17L764.54,228.35L771.92,216.65L773.15,209.52L776.83,188.14L778.06,176.67L787.9,88.92L789.13,82.41L791.58,69.39L792.81,67.27L796.5,60.9L797.73,60.56L801.42,59.54L802.65,60.72L807.56,64.88L808.79,65.5L811.25,66.73L812.48,72.19L823.54,120.98L824.77,124.81L826,128.64" style="vector-effect: non-scaling-stroke; fill: none; stroke: rgb(188, 189, 34); stroke-opacity: 1; stroke-width: 2px; opacity: 1;"/></g><g class="points"/><g class="text"/></g><g class="trace scatter traceb513c1" style="stroke-miterlimit: 2; opacity: 1;"><g class="fills"/><g class="errorbars"/><g class="lines"><path class="js-line" d="M0,437L29.5,437L30.73,434.9L31.96,437L33.19,426.98L34.42,421.64L35.65,437L36.88,421.19L38.1,437L39.33,422.03L40.56,418.41L41.79,437L43.02,413.13L44.25,437L45.48,437L47.94,437L49.17,423.13L50.4,421.25L51.63,417.24L52.85,437L54.08,415.18L55.31,405L56.54,407.19L57.77,437L59,410.52L60.23,437L61.46,437L62.69,423.35L63.92,426.74L65.15,401.03L66.38,392.57L67.6,388.57L68.83,437L70.06,382.46L71.29,389.44L72.52,396.08L73.75,437L74.98,410.71L76.21,437L77.44,437L78.67,426L79.9,437L81.13,437L82.35,427.01L83.58,437L84.81,426.22L86.04,437L87.27,434.3L88.5,437L148.73,437L149.96,430.48L151.19,437L152.42,423.84L153.65,437L154.88,437L156.1,437L157.33,408.81L158.56,437L159.79,404.08L161.02,437L162.25,401.26L163.48,403.83L164.71,437L165.94,397.51L167.17,437L168.4,437L169.63,385.66L170.85,437L172.08,395.39L173.31,437L174.54,437L175.77,398.1L177,437L178.23,437L179.46,399.48L180.69,437L181.92,387.34L183.15,437L184.38,397.02L185.6,437L186.83,399.86L188.06,392.35L189.29,437L190.52,401.85L191.75,437L192.98,406.75L194.21,437L196.67,437L197.9,425.52L199.13,427.41L200.35,437L201.58,427.75L202.81,437L269.19,437L270.42,427.25L271.65,437L272.88,437L275.33,421.96L276.56,425.39L277.79,420.35L279.02,437L280.25,437L281.48,410.51L282.71,437L283.94,411.05L285.17,437L286.4,413.17L287.63,412.44L288.85,437L290.08,411.95L291.31,437L293.77,437L295,424.24L296.23,437L297.46,419.27L298.69,437L299.92,411L301.15,437L302.38,400.69L303.6,388.33L304.83,413.97L306.06,376.25L307.29,378.72L308.52,380.37L309.75,437L310.98,391.23L312.21,403.19L313.44,437L314.67,437L315.9,426.09L317.13,437L318.35,437L319.58,429.6L320.81,437L322.04,437L393.33,437L394.56,429.1L395.79,437L397.02,431.42L398.25,437L399.48,437L401.94,418.53L403.17,415.62L404.4,437L405.63,408.34L406.85,408.31L408.08,404.99L409.31,437L410.54,392.24L411.77,384.41L413,382.68L414.23,376.89L415.46,380.31L416.69,382.43L417.92,376.02L420.38,394.48L421.6,437L422.83,420.88L424.06,437L425.29,429.08L426.52,437L427.75,437L428.98,431.44L430.21,437L431.44,434.97L433.9,431.77L435.13,437L436.35,437L437.58,433.82L441.27,437L442.5,437L505.19,437L506.42,429.48L508.88,414.89L510.1,437L511.33,403.92L512.56,400.41L513.79,437L515.02,395.86L516.25,437L517.48,397.35L518.71,398.24L519.94,437L523.63,437L524.85,427.1L526.08,437L527.31,433.57L528.54,437L529.77,420.13L531,437L532.23,437L533.46,408.21L534.69,401.98L537.15,390.53L538.38,437L539.6,390.4L540.83,437L542.06,380.97L543.29,395.12L544.52,437L545.75,403.68L546.98,437L548.21,411.66L549.44,437L550.67,416.53L551.9,437L553.13,417.94L554.35,437L555.58,425.86L556.81,426.83L558.04,437L559.27,435.12L560.5,437L562.96,437L564.19,435.84L565.42,437L566.65,437L621.96,437L623.19,419.51L624.42,437L625.65,417.39L626.88,411.75L628.1,437L629.33,403.42L630.56,400.93L631.79,398.39L633.02,437L634.25,437L635.48,405.52L636.71,437L637.94,437L639.17,429.32L640.4,437L641.63,437L642.85,428.93L644.08,418.89L645.31,417.4L646.54,413.2L647.77,411.79L649,432.2L650.23,437L651.46,437L652.69,420.27L653.92,424.94L655.15,437L656.38,437L657.6,422.31L658.83,425.12L660.06,437L661.29,432.97L662.52,437L663.75,437L664.98,433.02L666.21,421.87L667.44,437L668.67,405.46L669.9,407.78L671.13,437L672.35,437L673.58,427.89L674.81,437L738.73,437L739.96,433.18L741.19,437L742.42,437L743.65,427.91L744.88,437L746.1,437L747.33,418.57L748.56,437L749.79,413.42L751.02,437L752.25,406.09L755.94,388.34L757.17,437L759.63,377.7L760.85,376.76L762.08,378.85L763.31,437L764.54,377.84L765.77,378.73L767,382.41L768.23,394.96L769.46,437L770.69,437L826,437" style="vector-effect: non-scaling-stroke; fill: none; stroke: rgb(227, 119, 194); stroke-opacity: 1; stroke-width: 2px; opacity: 1;"/></g><g class="points"/><g class="text"/></g><g class="trace scatter trace5e71d9" style="stroke-miterlimit: 2; opacity: 1;"><g class="fills"/><g class="errorbars"/><g class="lines"><path class="js-line" d="M0,427.28L1.23,427.27L2.46,425.63L6.15,430.52L7.38,429.62L8.6,428.33L9.83,428.62L11.06,428.88L12.29,430L13.52,427.5L14.75,430.59L15.98,429.15L17.21,429.49L18.44,428.66L19.67,430.62L20.9,430.57L22.13,429.09L24.58,429.23L25.81,431.48L27.04,435.06L28.27,430.31L29.5,429.87L30.73,437L76.21,437L77.44,428.5L78.67,437L79.9,437L82.35,437L83.58,430.74L84.81,437L86.04,437L87.27,437L88.5,429.33L89.73,427.87L90.96,431.84L92.19,431.5L93.42,427.69L94.65,425.11L95.88,419.42L97.1,419L98.33,421.82L100.79,426.13L102.02,427.72L103.25,412.07L104.48,415.35L105.71,419.12L106.94,418.04L108.17,420.42L109.4,424.77L110.63,423.27L111.85,423.7L113.08,428.74L114.31,429.76L115.54,428.74L116.77,429.01L118,429.4L119.23,428.62L120.46,428.86L121.69,427.58L122.92,430.93L124.15,429.61L125.38,431.42L126.6,431.64L127.83,429.35L129.06,422.68L130.29,429.95L131.52,430.06L132.75,431.14L133.98,429.26L136.44,428.66L137.67,430.21L138.9,431.84L140.13,430.5L141.35,431.22L142.58,429.68L143.81,433.91L145.04,430.33L146.27,432.22L147.5,430.32L148.73,437L149.96,437L151.19,430.62L152.42,437L168.4,437L169.63,427.32L170.85,437L172.08,437L180.69,437L181.92,428.29L183.15,437L184.38,437L186.83,437L188.06,427.44L189.29,437L190.52,437L199.13,437L200.35,425.4L201.58,437L202.81,437L204.04,436.81L205.27,434.81L206.5,423.37L207.73,424.47L208.96,429.06L210.19,424.58L211.42,425.93L212.65,428.76L215.1,421.47L216.33,425.94L217.56,424.11L218.79,417.44L220.02,426.97L221.25,422.53L222.48,416.12L223.71,426.56L224.94,423.26L226.17,413.83L227.4,419.47L228.63,420.35L229.85,422.69L231.08,420.3L232.31,425.41L233.54,424.56L236,429.75L237.23,425.38L238.46,424.95L239.69,427.37L240.92,430.09L242.15,430.57L243.38,428.54L244.6,431.86L247.06,429.33L248.29,429.11L251.98,431.9L253.21,430.19L254.44,429.22L255.67,432.65L256.9,429.33L258.13,431.47L259.35,431.12L260.58,429.95L261.81,433.53L263.04,432.01L264.27,431.23L265.5,437L267.96,437L269.19,430.31L270.42,437L271.65,437L274.1,437L275.33,411.7L276.56,437L277.79,437L292.54,437L293.77,428.27L295,437L296.23,437L317.13,437L318.35,428L319.58,437L320.81,437L322.04,437L323.27,435.64L324.5,430.62L325.73,430.83L326.96,430.98L328.19,430.12L329.42,429.78L330.65,425.76L331.88,426.92L333.1,425.8L334.33,425.55L335.56,426.86L336.79,421.26L338.02,424.64L339.25,424.2L340.48,425.66L341.71,423.52L342.94,418.19L344.17,421.09L345.4,419.94L346.63,414.35L347.85,413.1L350.31,426.54L351.54,425.97L352.77,426.96L354,430.59L355.23,429.75L356.46,429.97L357.69,429.44L358.92,431.79L360.15,428.96L361.38,429.79L362.6,430.55L363.83,426.47L366.29,430.96L367.52,428.08L368.75,431.23L369.98,431.61L371.21,429.14L372.44,428.81L373.67,429.5L374.9,428.02L376.13,429.91L377.35,430.28L379.81,432.1L381.04,431.12L382.27,429.03L383.5,428.65L384.73,431.63L385.96,425.78L387.19,423.77L388.42,426L389.65,432.14L390.88,426.22L392.1,433.49L393.33,428.68L394.56,417.86L395.79,430.73L397.02,437L398.25,425.46L399.48,437L400.71,437L428.98,437L430.21,426.42L431.44,437L432.67,437L435.13,437L436.35,426.16L437.58,437L438.81,437L440.04,437L441.27,434.86L442.5,427.85L443.73,430L444.96,427.21L446.19,427L448.65,420.8L449.88,425.36L451.1,414.88L452.33,418.89L453.56,424.37L454.79,422.32L456.02,422.83L457.25,422.04L458.48,421.97L459.71,418.25L460.94,418.62L462.17,420.68L463.4,404.84L464.63,411.86L467.08,419.04L468.31,417.65L469.54,421.52L470.77,419.74L472,421.64L473.23,426.15L474.46,420.86L475.69,425.22L476.92,423.16L478.15,429.95L479.38,431.47L480.6,431L481.83,427.01L483.06,429.5L484.29,430.18L485.52,428.5L486.75,427.16L487.98,429.56L489.21,425.92L490.44,424.68L491.67,431.42L492.9,430.4L494.13,430.13L495.35,428.82L497.81,433.83L499.04,433.11L500.27,429.22L501.5,434.38L502.73,437L503.96,437L505.19,430.36L506.42,437L522.4,437L523.63,424.37L524.85,437L526.08,424.71L527.31,437L528.54,437L540.83,437L542.06,428.25L543.29,437L544.52,437L553.13,437L554.35,427.51L555.58,437L556.81,437L559.27,437L560.5,426.82L561.73,425.71L562.96,429.96L565.42,425.28L566.65,427.03L567.88,429.64L569.1,428.79L571.56,423.72L572.79,426.32L574.02,427.32L575.25,421.97L576.48,418.12L577.71,418.72L578.94,426.94L580.17,424.03L581.4,422.23L582.63,426.27L586.31,425.02L587.54,427.25L588.77,427.22L590,430.94L592.46,428.24L593.69,430.96L594.92,432.18L596.15,430.96L597.38,430.85L598.6,428.72L599.83,430.91L601.06,430.6L602.29,431.5L603.52,431.1L604.75,432.06L605.98,427.92L607.21,431.99L608.44,432.08L610.9,431.34L612.13,430.27L614.58,431.95L615.81,435.87L617.04,431.84L618.27,430.41L619.5,431.26L620.73,437L621.96,437L623.19,431.8L624.42,437L625.65,437L640.4,437L641.63,421.95L642.85,437L644.08,437L658.83,437L660.06,427.37L661.29,437L662.52,436.47L663.75,424.01L664.98,437L677.27,436.56L678.5,428.19L679.73,430.06L680.96,429.28L682.19,428.3L683.42,426.15L685.88,426.08L687.1,415.75L688.33,424.05L689.56,425.58L690.79,425.99L692.02,428.9L693.25,419.56L694.48,425L695.71,421.65L696.94,423.42L698.17,424.5L699.4,423.01L700.63,421.25L701.85,423.72L704.31,426.98L705.54,422.89L706.77,427.26L708,428.07L709.23,428.33L710.46,426.22L712.92,431.82L714.15,431.93L715.38,432.69L716.6,431.83L719.06,428.21L720.29,429.33L721.52,428.14L722.75,430.41L723.98,433.15L725.21,431.58L727.67,432.08L728.9,430.87L730.13,430.14L731.35,432.44L732.58,431.02L733.81,431.53L736.27,431.37L737.5,437L738.73,429.2L739.96,437L742.42,422.41L743.65,437L771.92,437L773.15,435.69L774.38,428.81L775.6,431.88L776.83,432.97L778.06,424.7L779.29,431.77L780.52,432.26L781.75,431.97L782.98,429.58L785.44,425.97L786.67,429.72L787.9,428.27L789.13,433.71L790.35,426.95L791.58,433.27L792.81,427.16L794.04,432.88L795.27,431.75L796.5,428.74L797.73,429.74L798.96,428.07L800.19,427.2L801.42,421.44L802.65,425.69L803.88,424.95L805.1,420.26L806.33,419.79L807.56,420.49L808.79,422.95L810.02,422.45L811.25,424.8L812.48,423.35L813.71,419.78L817.4,425.65L818.63,421.2L821.08,425.11L822.31,426.1L823.54,427.6L824.77,425.36L826,432.77" style="vector-effect: non-scaling-stroke; fill: none; stroke: rgb(23, 190, 207); stroke-opacity: 1; stroke-width: 2px; opacity: 1;"/></g><g class="points"/><g class="text"/></g></g></g><g class="overplot"/><path class="xlines-above crisp" d="M0,0" style="fill: none;"/><path class="ylines-above crisp" d="M0,0" style="fill: none;"/><g class="overlines-above"/><g class="xaxislayer-above"><g class="xtick"><text text-anchor="middle" x="0" y="530" transform="translate(78,0)" style="font-family: 'Open Sans', verdana, arial, sans-serif; font-size: 19px; fill: rgb(42, 63, 95); fill-opacity: 1; white-space: pre; opacity: 1;"><tspan class="line" dy="0em" x="0" y="530">Jul 30</tspan><tspan class="line" dy="1.3em" x="0" y="530">2019</tspan></text></g><g class="xtick"><text text-anchor="middle" x="0" y="530" style="font-family: 'Open Sans', verdana, arial, sans-serif; font-size: 19px; fill: rgb(42, 63, 95); fill-opacity: 1; white-space: pre; opacity: 1;" transform="translate(196,0)">Jul 31</text></g><g class="xtick"><text text-anchor="middle" x="0" y="530" style="font-family: 'Open Sans', verdana, arial, sans-serif; font-size: 19px; fill: rgb(42, 63, 95); fill-opacity: 1; white-space: pre; opacity: 1;" transform="translate(314,0)">Aug 1</text></g><g class="xtick"><text text-anchor="middle" x="0" y="530" style="font-family: 'Open Sans', verdana, arial, sans-serif; font-size: 19px; fill: rgb(42, 63, 95); fill-opacity: 1; white-space: pre; opacity: 1;" transform="translate(432,0)">Aug 2</text></g><g class="xtick"><text text-anchor="middle" x="0" y="530" style="font-family: 'Open Sans', verdana, arial, sans-serif; font-size: 19px; fill: rgb(42, 63, 95); fill-opacity: 1; white-space: pre; opacity: 1;" transform="translate(550,0)">Aug 3</text></g><g class="xtick"><text text-anchor="middle" x="0" y="530" style="font-family: 'Open Sans', verdana, arial, sans-serif; font-size: 19px; fill: rgb(42, 63, 95); fill-opacity: 1; white-space: pre; opacity: 1;" transform="translate(668,0)">Aug 4</text></g><g class="xtick"><text text-anchor="middle" x="0" y="530" style="font-family: 'Open Sans', verdana, arial, sans-serif; font-size: 19px; fill: rgb(42, 63, 95); fill-opacity: 1; white-space: pre; opacity: 1;" transform="translate(786,0)">Aug 5</text></g><g class="xtick"><text text-anchor="middle" x="0" y="530" style="font-family: 'Open Sans', verdana, arial, sans-serif; font-size: 19px; fill: rgb(42, 63, 95); fill-opacity: 1; white-space: pre; opacity: 1;" transform="translate(904,0)">Aug 6</text></g></g><g class="yaxislayer-above"><g class="ytick"><text text-anchor="end" x="77" y="6.6499999999999995" transform="translate(0,487)" style="font-family: 'Open Sans', verdana, arial, sans-serif; font-size: 19px; fill: rgb(42, 63, 95); fill-opacity: 1; white-space: pre; opacity: 1;">0</text></g><g class="ytick"><text text-anchor="end" x="77" y="6.6499999999999995" style="font-family: 'Open Sans', verdana, arial, sans-serif; font-size: 19px; fill: rgb(42, 63, 95); fill-opacity: 1; white-space: pre; opacity: 1;" transform="translate(0,435.4)">50</text></g><g class="ytick"><text text-anchor="end" x="77" y="6.6499999999999995" style="font-family: 'Open Sans', verdana, arial, sans-serif; font-size: 19px; fill: rgb(42, 63, 95); fill-opacity: 1; white-space: pre; opacity: 1;" transform="translate(0,383.79)">100</text></g><g class="ytick"><text text-anchor="end" x="77" y="6.6499999999999995" style="font-family: 'Open Sans', verdana, arial, sans-serif; font-size: 19px; fill: rgb(42, 63, 95); fill-opacity: 1; white-space: pre; opacity: 1;" transform="translate(0,332.19)">150</text></g><g class="ytick"><text text-anchor="end" x="77" y="6.6499999999999995" style="font-family: 'Open Sans', verdana, arial, sans-serif; font-size: 19px; fill: rgb(42, 63, 95); fill-opacity: 1; white-space: pre; opacity: 1;" transform="translate(0,280.58000000000004)">200</text></g><g class="ytick"><text text-anchor="end" x="77" y="6.6499999999999995" style="font-family: 'Open Sans', verdana, arial, sans-serif; font-size: 19px; fill: rgb(42, 63, 95); fill-opacity: 1; white-space: pre; opacity: 1;" transform="translate(0,228.98)">250</text></g><g class="ytick"><text text-anchor="end" x="77" y="6.6499999999999995" style="font-family: 'Open Sans', verdana, arial, sans-serif; font-size: 19px; fill: rgb(42, 63, 95); fill-opacity: 1; white-space: pre; opacity: 1;" transform="translate(0,177.37)">300</text></g><g class="ytick"><text text-anchor="end" x="77" y="6.6499999999999995" style="font-family: 'Open Sans', verdana, arial, sans-serif; font-size: 19px; fill: rgb(42, 63, 95); fill-opacity: 1; white-space: pre; opacity: 1;" transform="translate(0,125.77)">350</text></g><g class="ytick"><text text-anchor="end" x="77" y="6.6499999999999995" style="font-family: 'Open Sans', verdana, arial, sans-serif; font-size: 19px; fill: rgb(42, 63, 95); fill-opacity: 1; white-space: pre; opacity: 1;" transform="translate(0,74.16)">400</text></g></g><g class="overaxes-above"/></g></g><g class="polarlayer"/><g class="ternarylayer"/><g class="geolayer"/><g class="funnelarealayer"/><g class="pielayer"/><g class="iciclelayer"/><g class="treemaplayer"/><g class="sunburstlayer"/><g class="glimages"/><defs id="topdefs-c025e3"><g class="clips"/><clipPath id="legendc025e3"><rect width="169" height="207" x="0" y="0"/></clipPath></defs><g class="layer-above"><g class="imagelayer"/><g class="shapelayer"/></g><g class="infolayer"><g class="legend" pointer-events="all" transform="translate(920.52,50)"><rect class="bg" shape-rendering="crispEdges" width="169" height="207" x="0" y="0" style="stroke: rgb(68, 68, 68); stroke-opacity: 1; fill: rgb(255, 255, 255); fill-opacity: 1; stroke-width: 0px;"/><g class="scrollbox" transform="" clip-path="url(#legendc025e3)"><text class="legendtitletext" text-anchor="start" x="2" y="29.900000000000002" style="font-family: 'Open Sans', verdana, arial, sans-serif; font-size: 23px; fill: rgb(42, 63, 95); fill-opacity: 1; white-space: pre;">variable</text><g class="groups" transform=""><g class="traces" transform="translate(0,48.75)" style="opacity: 1;"><text class="legendtext" text-anchor="start" x="40" y="7.409999999999999" style="font-family: 'Open Sans', verdana, arial, sans-serif; font-size: 19px; fill: rgb(42, 63, 95); fill-opacity: 1; white-space: pre;">grid_kw</text><g class="layers" style="opacity: 1;"><g class="legendfill"/><g class="legendlines"><path class="js-line" d="M5,0h30" style="fill: none; stroke: rgb(214, 39, 40); stroke-opacity: 1; stroke-width: 2px;"/></g><g class="legendsymbols"><g class="legendpoints"/></g></g><rect class="legendtoggle" x="0" y="-13.85" width="163.015625" height="27.7" style="fill: rgb(0, 0, 0); fill-opacity: 0;"/></g><g class="traces" transform="translate(0,76.45)" style="opacity: 1;"><text class="legendtext" text-anchor="start" x="40" y="7.409999999999999" style="font-family: 'Open Sans', verdana, arial, sans-serif; font-size: 19px; fill: rgb(42, 63, 95); fill-opacity: 1; white-space: pre;">battery_kWh</text><g class="layers" style="opacity: 1;"><g class="legendfill"/><g class="legendlines"><path class="js-line" d="M5,0h30" style="fill: none; stroke: rgb(44, 160, 44); stroke-opacity: 1; stroke-width: 2px;"/></g><g class="legendsymbols"><g class="legendpoints"/></g></g><rect class="legendtoggle" x="0" y="-13.85" width="163.015625" height="27.7" style="fill: rgb(0, 0, 0); fill-opacity: 0;"/></g></g><g class="groups" transform=""><g class="traces" transform="translate(0,104.14999999999999)" style="opacity: 1;"><text class="legendtext" text-anchor="start" x="40" y="7.409999999999999" style="font-family: 'Open Sans', verdana, arial, sans-serif; font-size: 19px; fill: rgb(42, 63, 95); fill-opacity: 1; white-space: pre;">pv_curtailed</text><g class="layers" style="opacity: 1;"><g class="legendfill"/><g class="legendlines"><path class="js-line" d="M5,0h30" style="fill: none; stroke: rgb(255, 127, 14); stroke-opacity: 1; stroke-width: 2px;"/></g><g class="legendsymbols"><g class="legendpoints"/></g></g><rect class="legendtoggle" x="0" y="-13.85" width="163.015625" height="27.7" style="fill: rgb(0, 0, 0); fill-opacity: 0;"/></g></g><g class="groups" transform=""><g class="traces" transform="translate(0,131.85)" style="opacity: 1;"><text class="legendtext" text-anchor="start" x="40" y="7.409999999999999" style="font-family: 'Open Sans', verdana, arial, sans-serif; font-size: 19px; fill: rgb(42, 63, 95); fill-opacity: 1; white-space: pre;">co2_g_kwh</text><g class="layers" style="opacity: 1;"><g class="legendfill"/><g class="legendlines"><path class="js-line" d="M5,0h30" style="fill: none; stroke: rgb(188, 189, 34); stroke-opacity: 1; stroke-width: 2px;"/></g><g class="legendsymbols"><g class="legendpoints"/></g></g><rect class="legendtoggle" x="0" y="-13.85" width="163.015625" height="27.7" style="fill: rgb(0, 0, 0); fill-opacity: 0;"/></g></g><g class="groups" transform=""><g class="traces" transform="translate(0,159.54999999999998)" style="opacity: 1;"><text class="legendtext" text-anchor="start" x="40" y="7.409999999999999" style="font-family: 'Open Sans', verdana, arial, sans-serif; font-size: 19px; fill: rgb(42, 63, 95); fill-opacity: 1; white-space: pre;">batteryin</text><g class="layers" style="opacity: 1;"><g class="legendfill"/><g class="legendlines"><path class="js-line" d="M5,0h30" style="fill: none; stroke: rgb(227, 119, 194); stroke-opacity: 1; stroke-width: 2px;"/></g><g class="legendsymbols"><g class="legendpoints"/></g></g><rect class="legendtoggle" x="0" y="-13.85" width="163.015625" height="27.7" style="fill: rgb(0, 0, 0); fill-opacity: 0;"/></g></g><g class="groups" transform=""><g class="traces" transform="translate(0,187.25)" style="opacity: 1;"><text class="legendtext" text-anchor="start" x="40" y="7.409999999999999" style="font-family: 'Open Sans', verdana, arial, sans-serif; font-size: 19px; fill: rgb(42, 63, 95); fill-opacity: 1; white-space: pre;">batteryout</text><g class="layers" style="opacity: 1;"><g class="legendfill"/><g class="legendlines"><path class="js-line" d="M5,0h30" style="fill: none; stroke: rgb(23, 190, 207); stroke-opacity: 1; stroke-width: 2px;"/></g><g class="legendsymbols"><g class="legendpoints"/></g></g><rect class="legendtoggle" x="0" y="-13.85" width="163.015625" height="27.7" style="fill: rgb(0, 0, 0); fill-opacity: 0;"/></g></g></g><rect class="scrollbar" rx="20" ry="3" width="0" height="0" x="0" y="0" style="fill: rgb(128, 139, 164); fill-opacity: 1;"/></g><g class="g-gtitle"/><g class="g-xtitle"/><g class="g-ytitle" transform="translate(13.349609375,0)"><text class="ytitle" transform="rotate(-90,9.650000000000006,280)" x="9.650000000000006" y="280" text-anchor="middle" style="font-family: 'Open Sans', verdana, arial, sans-serif; font-size: 23px; fill: rgb(42, 63, 95); opacity: 1; font-weight: normal; white-space: pre;">Legend</text></g></g></svg>