<svg class="main-svg" xmlns="http://www.w3.org/2000/svg" xmlns:xlink="http://www.w3.org/1999/xlink" width="1100" height="600" viewBox="0 0 1100 600"><rect x="0" y="0" width="1100" height="600" style="fill: rgb(255, 255, 255); fill-opacity: 1;"/><defs id="defs-ef06c5"><g class="clips"><clipPath id="clipef06c5xyplot" class="plotclip"><rect width="826" height="460"/></clipPath><clipPath class="axesclip" id="clipef06c5x"><rect x="78" y="0" width="826" height="600"/></clipPath><clipPath class="axesclip" id="clipef06c5y"><rect x="0" y="50" width="1100" height="460"/></clipPath><clipPath class="axesclip" id="clipef06c5xy"><rect x="78" y="50" width="826" height="460"/></clipPath></g><g class="gradients"/><g class="patterns"/></defs><g class="bglayer"/><g class="layer-below"><g class="imagelayer"/><g class="shapelayer"/></g><g class="cartesianlayer"><g class="subplot xy"><g class="layer-subplot"><g class="shapelayer"/><g class="imagelayer"/></g><g class="gridlayer"><g class="x"><path class="xgrid crisp" transform="translate(196,0)" d="M0,50v460" style="stroke: rgb(235, 240, 248); stroke-opacity: 1; stroke-width: 1px;"/><path class="xgrid crisp" transform="translate(314,0)" d="M0,50v460" style="stroke: rgb(235, 240, 248); stroke-opacity: 1; stroke-width: 1px;"/><path class="xgrid crisp" transform="translate(432,0)" d="M0,50v460" style="stroke: rgb(235, 240, 248); stroke-opacity: 1; stroke-width: 1px;"/><path class="xgrid crisp" transform="translate(550,0)" d="M0,50v460" style="stroke: rgb(235, 240, 248); stroke-opacity: 1; stroke-width: 1px;"/><path class="xgrid crisp" transform="translate(668,0)" d="M0,50v460" style="stroke: rgb(235, 240, 248); stroke-opacity: 1; stroke-width: 1px;"/><path class="xgrid crisp" transform="translate(786,0)" d="M0,50v460" style="stroke: rgb(235, 240, 248); stroke-opacity: 1; stroke-width: 1px;"/></g><g class="y"><path class="ygrid crisp" transform="translate(0,429.13)" d="M78,0h826" style="stroke: rgb(235, 240, 248); stroke-opacity: 1; stroke-width: 1px;"/><path class="ygrid crisp" transform="translate(0,371.26)" d="M78,0h826" style="stroke: rgb(235, 240, 248); stroke-opacity: 1; stroke-width: 1px;"/><path class="ygrid crisp" transform="translate(0,313.39)" d="M78,0h826" style="stroke: rgb(235, 240, 248); stroke-opacity: 1; stroke-width: 1px;"/><path class="ygrid crisp" transform="translate(0,255.52)" d="M78,0h826" style="stroke: rgb(235, 240, 248); stroke-opacity: 1; stroke-width: 1px;"/><path class="ygrid crisp" transform="translate(0,197.65)" d="M78,0h826" style="stroke: rgb(235, 240, 248); stroke-opacity: 1; stroke-width: 1px;"/><path class="ygrid crisp" transform="translate(0,139.78)" d="M78,0h826" style="stroke: rgb(235, 240, 248); stroke-opacity: 1; stroke-width: 1px;"/><path class="ygrid crisp" transform="translate(0,81.91)" d="M78,0h826" style="stroke: rgb(235, 240, 248); stroke-opacity: 1; stroke-width: 1px;"/></g></g><g class="zerolinelayer"><path class="yzl zl crisp" transform="translate(0,487)" d="M78,0h826" style="stroke: rgb(0, 0, 0); stroke-opacity: 1; stroke-width: 2px;"/></g><path class="xlines-below"/><path class="ylines-below"/><g class="overlines-below"/><g class="xaxislayer-below"/><g class="yaxislayer-below"/><g class="overaxes-below"/><g class="plot" transform="translate(78,50)" clip-path="url(#clipef06c5xyplot)"><g class="scatterlayer mlayer"><g class="trace scatter trace34004e" style="stroke-miterlimit: 2; opacity: 1;"><g class="fills"/><g class="errorbars"/><g class="lines"><path class="js-line" d="M0,424.31L2.46,418.32L3.69,418.27L4.92,425.6L6.15,417.44L7.38,417.38L8.6,419.9L9.83,417.46L11.06,408.84L12.29,421.04L13.52,420.63L14.75,420.97L15.98,422.19L17.21,390.69L18.44,424.65L19.67,426.05L20.9,423.57L23.35,425.07L24.58,425.26L25.81,425.06L27.04,423.88L28.27,420.34L29.5,420.88L30.73,425.1L31.96,425.02L33.19,422.48L34.42,416.16L35.65,418.61L36.88,424.04L38.1,425.59L39.33,411.89L41.79,424.21L43.02,420.64L44.25,424.22L45.48,416.14L46.71,411.63L47.94,413.95L50.4,419.16L51.63,417L52.85,417.3L54.08,419.54L56.54,416.46L57.77,423.64L59,415.64L60.23,420.96L61.46,422.74L62.69,415.69L63.92,415.88L65.15,418.59L66.38,419.91L67.6,416.7L68.83,410.59L70.06,420.72L72.52,415.48L73.75,419.6L74.98,424.37L76.21,421.09L79.9,421.2L81.13,418.88L82.35,415.85L83.58,408.88L84.81,409.14L86.04,395.99L87.27,394.09L88.5,408.93L90.96,394.14L92.19,389.51L93.42,398.95L94.65,397.56L95.88,411.78L97.1,406.52L98.33,404.79L99.56,418.57L100.79,409.26L102.02,417.85L103.25,419.2L104.48,409.13L105.71,412.54L106.94,418.33L108.17,409.67L109.4,416.21L110.63,413.51L111.85,406.04L113.08,403.98L114.31,411.92L119.23,425.66L120.46,417L121.69,425.26L122.92,421.38L124.15,421.97L125.38,421.5L126.6,422.55L127.83,420.26L129.06,407.55L130.29,413.51L131.52,418.11L132.75,426.52L133.98,425.87L135.21,423.76L136.44,424.59L137.67,428.65L138.9,424.74L140.13,425.59L141.35,424.09L142.58,426.17L143.81,422.12L145.04,414.31L146.27,422.25L147.5,407.1L148.73,399.76L149.96,412.28L151.19,403.54L152.42,410.63L156.1,414.4L157.33,417.65L158.56,421.78L159.79,421.55L161.02,419.11L162.25,410.34L163.48,424.92L164.71,420.16L165.94,421.89L167.17,425.24L168.4,421.9L169.63,421.17L170.85,418.14L172.08,421.9L173.31,420.51L174.54,424.29L178.23,415.81L179.46,420.32L180.69,416.96L181.92,410.64L183.15,404.21L184.38,405.17L186.83,435.06L188.06,432.21L189.29,429.68L190.52,417.59L191.75,419.16L192.98,408.38L194.21,403.52L195.44,409.6L196.67,416.72L197.9,413.78L200.35,419.75L201.58,412.98L204.04,417.05L205.27,414.86L206.5,404.65L207.73,418.68L210.19,415.35L211.42,404.36L212.65,414.87L213.88,415.5L215.1,417.12L216.33,437L224.94,437L226.17,417.35L227.4,412.45L228.63,411.53L229.85,408.94L231.08,382.79L232.31,406.33L233.54,403.55L234.77,389.61L236,413.7L237.23,417.4L238.46,424.28L240.92,417.35L242.15,427.7L243.38,428.27L244.6,426.15L245.83,413.05L247.06,412.99L248.29,400.18L249.52,421.52L250.75,419.5L251.98,421.64L253.21,411.25L254.44,411.53L255.67,394.15L256.9,403.28L258.13,407.13L259.35,425.72L260.58,419.66L261.81,429.38L263.04,420.04L264.27,421.56L265.5,418.15L266.73,421L267.96,421.56L269.19,415.42L270.42,420.94L271.65,420.09L272.88,423.04L274.1,416.73L275.33,413.64L276.56,418.1L277.79,424.06L279.02,422.1L280.25,421.15L281.48,423.54L282.71,426.89L283.94,425.16L285.17,421.99L286.4,426.78L287.63,419.62L288.85,426.5L290.08,418.66L291.31,423.82L293.77,423.74L295,407.13L297.46,423.31L298.69,416.89L299.92,415.8L301.15,409.19L302.38,410.56L303.6,417.64L304.83,419.93L306.06,417.5L307.29,416.51L308.52,423.47L310.98,421.79L312.21,418.17L313.44,425.44L314.67,427.33L315.9,426.42L317.13,422.72L318.35,420.51L319.58,416.33L320.81,405.06L322.04,421.44L323.27,422.92L324.5,416.84L325.73,415.78L326.96,418.31L330.65,420.55L331.88,415.17L333.1,422.55L334.33,418.83L335.56,415.77L336.79,418.35L338.02,403.58L339.25,418.6L340.48,419.49L341.71,417.31L344.17,411.29L345.4,416.88L346.63,411.11L347.85,415.41L349.08,412.43L350.31,400.23L351.54,402.86L352.77,412.28L354,426.45L355.23,426.7L356.46,426.86L357.69,420.03L360.15,428.72L361.38,427.08L363.83,424.07L365.06,425.31L366.29,420.98L367.52,423.84L368.75,426.8L369.98,426.76L371.21,419.07L372.44,395.83L374.9,423.57L376.13,423.4L377.35,423.39L378.58,427.76L379.81,426.75L381.04,427.12L382.27,428.25L383.5,423.41L384.73,425.3L385.96,424.62L387.19,425.29L388.42,421.68L389.65,421.67L390.88,414.22L392.1,420.02L393.33,418.66L394.56,421.49L395.79,421.63L398.25,421.06L399.48,425.88L400.71,421L401.94,420.39L403.17,416.91L404.4,423.56L405.63,419.77L406.85,423.76L409.31,422.47L410.54,426.86L413,422.86L414.23,424.21L415.46,416.97L416.69,421.02L417.92,417.1L419.15,416.91L420.38,412.88L421.6,421.03L422.83,423.18L424.06,413.93L427.75,424L428.98,423.56L430.21,422.62L431.44,424.69L432.67,427.76L433.9,423.54L435.13,424.06L436.35,419.8L437.58,422.16L438.81,420L441.27,418.53L442.5,419.03L443.73,419.45L444.96,417.11L448.65,422.23L449.88,411.32L452.33,416.35L453.56,416.87L454.79,419.16L456.02,418.71L457.25,423.5L458.48,420.35L459.71,415.09L460.94,414.91L462.17,416.57L463.4,410.7L464.63,413.75L465.85,407.2L467.08,422.26L468.31,413.43L469.54,420.42L470.77,415.44L472,424.7L473.23,427.85L474.46,426.68L475.69,426.84L476.92,427.16L478.15,425.09L479.38,425.8L480.6,424.26L481.83,424L483.06,418.72L484.29,428.45L485.52,424.67L487.98,425.87L489.21,424.5L490.44,422.04L491.67,425.48L492.9,428.34L494.13,426.62L495.35,428.89L496.58,429.34L497.81,427.78L499.04,429.26L500.27,417.77L501.5,426.14L502.73,428.25L503.96,425.22L506.42,426.14L507.65,423.42L510.1,419.49L511.33,422.45L512.56,415.55L513.79,426.54L516.25,420.5L517.48,428.41L519.94,437L521.17,437L522.4,437L523.63,436.01L524.85,429.41L526.08,427.34L528.54,427.98L529.77,425.46L531,426.22L532.23,424.08L533.46,437L534.69,437L576.48,437L577.71,430.91L578.94,417.05L580.17,419.8L581.4,416.6L582.63,416.67L583.85,414.87L585.08,415.88L586.31,420.5L587.54,417.18L588.77,419.94L590,425.93L591.23,426.06L592.46,421.15L594.92,429.37L596.15,424.27L597.38,426.67L598.6,425.57L599.83,428.33L601.06,425.96L602.29,420.75L603.52,420.91L604.75,424.37L605.98,415.32L607.21,417.79L608.44,425.67L609.67,423.43L610.9,419.43L612.13,425.53L613.35,424.59L614.58,427.31L615.81,401.47L617.04,425.35L618.27,424.36L619.5,423.22L620.73,420.92L621.96,411.8L623.19,422.72L624.42,420.42L625.65,421.69L628.1,420.92L629.33,422.52L630.56,425.39L631.79,410.15L633.02,427.9L634.25,422.97L635.48,421.79L636.71,425.38L637.94,426.66L639.17,425.83L640.4,426.86L641.63,421.04L642.85,429.71L644.08,431.08L645.31,432.75L646.54,427.45L647.77,384.2L649,428.59L650.23,431.76L651.46,432.08L652.69,425.37L653.92,431.88L655.15,423.62L656.38,421.74L657.6,421.83L658.83,420.75L660.06,418.61L661.29,409.94L662.52,411.38L663.75,406.78L664.98,423.13L666.21,416.86L667.44,412.5L668.67,420.68L672.35,427.99L673.58,421.1L674.81,419.82L676.04,420.39L678.5,411.48L679.73,409.77L682.19,418.19L683.42,417.27L684.65,395.36L685.88,390.38L688.33,418.34L689.56,421.86L690.79,420.12L692.02,423.11L693.25,420.29L694.48,424.18L696.94,418.28L698.17,424.21L699.4,415.31L700.63,420.25L701.85,413.12L703.08,418.47L704.31,416.11L705.54,418.04L708,418.79L709.23,421.55L710.46,414.37L711.69,428.11L712.92,426.1L714.15,425.81L715.38,426.86L716.6,421.4L717.83,415.18L719.06,421L720.29,425.93L721.52,426.07L722.75,425.36L723.98,423.53L726.44,424.57L727.67,427.41L728.9,393.05L730.13,424.02L732.58,423.25L733.81,426.32L735.04,428.78L736.27,426.59L738.73,423.35L739.96,419.89L742.42,417.25L743.65,418.35L744.88,420.71L746.1,420.37L747.33,419.12L748.56,421.97L749.79,421.99L751.02,425.13L752.25,421.8L753.48,420.78L754.71,420L755.94,422.25L757.17,426.87L758.4,406.58L760.85,423.67L762.08,421.79L763.31,423.08L764.54,418.97L765.77,425.64L767,423.76L768.23,418.44L769.46,419.27L770.69,401.92L771.92,424.25L774.38,419.49L775.6,413.06L776.83,421.28L778.06,418.76L779.29,416.33L780.52,420.9L781.75,424.19L782.98,425.14L784.21,425.56L785.44,418.19L786.67,424.2L787.9,418.26L789.13,421.15L790.35,419.64L791.58,402.43L792.81,412.11L794.04,407.13L795.27,411.28L796.5,385.02L797.73,405.05L800.19,415.4L801.42,410.23L802.65,417.28L803.88,411.98L805.1,414.97L806.33,423.8L807.56,415.42L808.79,417.51L810.02,402.23L811.25,418.98L812.48,419.54L813.71,418.46L814.94,407.94L816.17,415.81L817.4,413.79L818.63,415.99L821.08,414.56L822.31,415.33L823.54,404.46L824.77,416.17L826,437" style="vector-effect: non-scaling-stroke; fill: none; stroke: rgb(214, 39, 40); stroke-opacity: 1; stroke-width: 2px; opacity: 1;"/></g><g class="points"/><g class="text"/></g><g class="trace scatter traceba8aec" style="stroke-miterlimit: 2; opacity: 1;"><g class="fills"/><g class="errorbars"/><g class="lines"><path class="js-line" d="M0,437L826,437" style="vector-effect: non-scaling-stroke; fill: none; stroke: rgb(255, 127, 14); stroke-opacity: 1; stroke-width: 2px; opacity: 1;"/></g><g class="points"/><g class="text"/></g><g class="trace scatter trace5cbd1d" style="stroke-miterlimit: 2; opacity: 1;"><g class="fills"/><g class="errorbars"/><g class="lines"><path class="js-line" d="M0,388.61L41.79,388.3L43.02,387.84L52.85,381.59L54.08,380.43L59,375.79L60.23,375.2L66.38,373.56L67.6,373.34L76.21,372.53L77.44,372.53L158.56,372.17L159.79,371.58L162.25,368.48L163.48,365.97L165.94,358.29L167.17,353L174.54,317.88L175.77,314.17L178.23,310.07L179.46,308.33L181.92,302.14L183.15,297.69L185.6,288.84L186.83,288.84L215.1,288.84L216.33,290.8L218.79,302.95L220.02,310.22L223.71,329.86L224.94,336.42L226.17,342.47L227.4,342.47L277.79,341.82L279.02,340.33L281.48,334.73L282.71,330.85L287.63,310.47L288.85,304.83L296.23,274.1L297.46,270.01L303.6,251.88L304.83,250.08L308.52,248.12L309.75,247.89L325.73,247.83L326.96,247.83L394.56,247.83L395.79,246.46L398.25,237.54L399.48,229.99L403.17,212.42L404.4,209.41L408.08,204.29L409.31,203.56L415.46,200L416.69,199.11L422.83,195.29L424.06,195.15L444.96,195.04L446.19,195.04L519.94,195.45L521.17,195.95L524.85,195.04L526.08,195.04L533.46,195.04L534.69,197.95L537.15,203.63L538.38,208.09L544.52,229.28L545.75,233.74L549.44,246.62L550.67,254.64L554.35,270.81L555.58,277.73L561.73,306.9L562.96,317.48L571.56,359.84L572.79,365.73L578.94,388.61L580.17,388.61L760.85,388.08L762.08,387.56L764.54,387.05L765.77,387.05L776.83,387.05L778.06,388.61L826,388.61" style="vector-effect: non-scaling-stroke; fill: none; stroke: rgb(44, 160, 44); stroke-opacity: 1; stroke-width: 2px; opacity: 1;"/></g><g class="points"/><g class="text"/></g><g class="trace scatter trace2cd549" style="stroke-miterlimit: 2; opacity: 1;"><g class="fills"/><g class="errorbars"/><g class="lines"><path class="js-line" d="M0,258.01L7.38,262.82L8.6,263.88L11.06,265.16L12.29,265.38L19.67,266.13L20.9,264.84L25.81,258.79L27.04,256.62L29.5,252.26L30.73,248.33L34.42,236.53L35.65,235.23L39.33,231.32L40.56,231.52L49.17,233.21L50.4,231.28L55.31,224.52L56.54,223.53L59,221.55L60.23,219.25L65.15,211.12L66.38,209.89L68.83,207.42L70.06,204.52L74.98,194.47L76.21,193.15L81.13,188.76L82.35,187.89L83.58,187.01L84.81,184.82L88.5,178.22L89.73,178.11L94.65,178.22L95.88,178.67L99.56,180.57L100.79,181.59L103.25,183.61L104.48,186.23L109.4,198.32L110.63,202.56L113.08,211.02L114.31,212.34L118,216.28L119.23,216.07L124.15,214.7L125.38,213.98L130.29,211.71L131.52,211.3L135.21,210.58L136.44,210.43L140.13,209.28L141.35,208.78L143.81,207.05L145.04,205.82L147.5,203.36L148.73,199.07L162.25,153.3L163.48,152.83L168.4,151.63L169.63,151.83L172.08,152.23L173.31,153.54L177,157.48L178.23,152.93L188.06,115.84L189.29,112.86L191.75,106.88L192.98,107L197.9,106.78L199.13,106.23L201.58,105.13L202.81,103.22L206.5,97.5L207.73,97.15L216.33,94.19L217.56,91.86L221.25,84.85L222.48,87.44L226.17,95.19L227.4,105.81L236,175.43L237.23,178.67L243.38,193.12L244.6,195.49L248.29,201.51L249.52,203.34L256.9,215.41L258.13,217.54L261.81,222.96L263.04,224.11L265.5,226.41L266.73,225.72L270.42,223.64L271.65,226.02L279.02,238.9L280.25,240.81L290.08,251.46L291.31,253.02L296.23,258.16L297.46,258.63L299.92,259.58L301.15,258.75L309.75,253.25L310.98,253.5L315.9,254.96L317.13,255.65L324.5,259.07L325.73,261.09L335.56,277.15L336.79,278.02L339.25,279.76L340.48,279.18L344.17,277.43L345.4,278.83L349.08,283.03L350.31,282.82L355.23,281.56L356.46,280.91L363.83,276.67L365.06,276.87L368.75,277.44L369.98,276.66L373.67,274.3L374.9,274.61L379.81,276.41L381.04,277.29L384.73,280.38L385.96,281.73L394.56,291.22L395.79,293.11L399.48,297.72L400.71,298.53L404.4,300.45L405.63,300.75L414.23,302.77L415.46,302.61L430.21,301.44L431.44,301.35L437.58,301.48L438.81,300.29L444.96,295.17L446.19,294.4L447.42,293.63L448.65,291.94L453.56,284.53L454.79,282.2L458.48,276.61L459.71,275.67L462.17,273.81L463.4,271.88L468.31,263.18L469.54,260.28L475.69,243.89L476.92,240.36L483.06,223.74L484.29,218.97L490.44,197.98L491.67,194.16L502.73,93.74L503.96,87.16L506.42,73.98L507.65,71.62L513.79,61.35L515.02,59.76L522.4,51.36L523.63,50L529.77,44.07L531,43L537.15,31.6L538.38,30.57L540.83,28.51L542.06,29.51L546.98,34.15L548.21,35.77L550.67,39.03L551.9,37.53L556.81,30.75L558.04,28.48L560.5,23.94L561.73,23.71L565.42,23L566.65,25.09L571.56,32.71L572.79,34.05L580.17,41.54L581.4,44.98L586.31,56.78L587.54,58.25L593.69,66.75L594.92,68.6L601.06,86.29L602.29,87.76L604.75,90.7L605.98,89.19L609.67,84.67L610.9,81.47L617.04,63.75L618.27,59.7L619.5,55.64L620.73,54.53L624.42,51.21L625.65,52.94L639.17,72.51L640.4,75.58L644.08,84.81L645.31,84.78L649,84.71L650.23,83.25L656.38,76.89L657.6,75.88L660.06,74.39L661.29,73.89L663.75,72.91L664.98,74.05L669.9,79.52L671.13,81.55L674.81,86.79L676.04,87.97L678.5,90.32L679.73,93.56L685.88,108.06L687.1,110.44L690.79,116.44L692.02,118.24L694.48,123.11L695.71,126.17L700.63,140.11L701.85,144.02L710.46,169.6L711.69,172.78L714.15,177.16L715.38,178.36L717.83,180.76L719.06,178.6L722.75,172.13L723.98,165.69L728.9,142.53L730.13,138.71L733.81,125.31L735.04,119.55L738.73,105.8L739.96,103.55L742.42,99.07L743.65,99.45L747.33,100.6L748.56,102.18L758.4,114.36L759.63,114.9L762.08,115.98L763.31,113.54L768.23,102.67L769.46,99.12L773.15,90L774.38,87.96L776.83,83.89L778.06,83.96L781.75,84.16L782.98,85.58L791.58,94.8L792.81,95.7L796.5,98.38L797.73,103.18L806.33,134.36L807.56,134.17L811.25,133.59L812.48,132.37L816.17,128.72L817.4,132.14L824.77,150.52L826,153.23" style="vector-effect: non-scaling-stroke; fill: none; stroke: rgb(188, 189, 34); stroke-opacity: 1; stroke-width: 2px; opacity: 1;"/></g><g class="points"/><g class="text"/></g><g class="trace scatter trace1189f3" style="stroke-miterlimit: 2; opacity: 1;"><g class="fills"/><g class="errorbars"/><g class="lines"><path class="js-line" d="M0,437L39.33,436.83L40.56,436.11L44.25,432.97L45.48,432.99L49.17,434.69L50.4,434.18L54.08,431.07L55.31,431.42L60.23,435.08L61.46,435.37L67.6,436.09L68.83,436.11L79.9,437L81.13,437L157.33,436.36L158.56,434.51L163.48,422.85L164.71,418.8L167.17,410.69L168.4,410.05L172.08,413.28L173.31,416.74L177,430.69L178.23,429.7L181.92,418.24L183.15,417.77L184.38,418.99L185.6,437L275.33,436.92L276.56,434.45L281.48,420.67L282.71,418.48L286.4,413.31L287.63,413.22L290.08,413.04L291.31,414.12L296.23,419.76L297.46,419.9L299.92,420.18L301.15,422.53L306.06,434.55L307.29,435.28L310.98,437L312.21,437L393.33,437L394.56,431.22L398.25,405.22L399.48,406.33L404.4,427.74L405.63,429.81L408.08,433.95L409.31,434.48L417.92,432.77L419.15,433.36L424.06,436.79L425.29,436.85L440.04,437L441.27,437L519.94,437L521.17,434.97L522.4,435.2L523.63,437L758.4,437L759.63,434.77L762.08,434.86L763.31,437L826,437" style="vector-effect: non-scaling-stroke; fill: none; stroke: rgb(227, 119, 194); stroke-opacity: 1; stroke-width: 2px; opacity: 1;"/></g><g class="points"/><g class="text"/></g><g class="trace scatter trace54c2c1" style="stroke-miterlimit: 2; opacity: 1;"><g class="fills"/><g class="errorbars"/><g class="lines"><path class="js-line" d="M0,437L213.88,437L215.1,429.57L217.56,411.17L218.79,409.37L220.02,406.57L221.25,418.38L222.48,411.44L223.71,412.07L224.94,414L226.17,437L517.48,437L518.71,435.43L519.94,435.11L521.17,437L532.23,437L533.46,425.95L534.69,426.91L535.92,425.52L537.15,420.05L538.38,421.98L540.83,422.7L542.06,425.24L543.29,412.43L544.52,420.05L545.75,421.06L546.98,423.06L548.21,417.95L549.44,406.5L550.67,419.69L551.9,413.34L553.13,416.55L554.35,410.68L555.58,414.92L556.81,413.94L558.04,413.88L559.27,416.34L560.5,415.08L561.73,396.8L562.96,415.77L564.19,413.92L566.65,410.36L567.88,417.81L570.33,413.68L571.56,414.64L572.79,417.83L574.02,415.66L575.25,420.97L576.48,418.61L577.71,424.98L578.94,437L775.6,437L776.83,431.08L778.06,437L779.29,437L824.77,437L826,414.98" style="vector-effect: non-scaling-stroke; fill: none; stroke: rgb(23, 190, 207); stroke-opacity: 1; stroke-width: 2px; opacity: 1;"/></g><g class="points"/><g class="text"/></g></g></g><g class="overplot"/><path class="xlines-above crisp" d="M0,0" style="fill: none;"/><path class="ylines-above crisp" d="M0,0" style="fill: none;"/><g class="overlines-above"/><g class="xaxislayer-above"><g class="xtick"><text text-anchor="middle" x="0" y="530" transform="translate(78,0)" style="font-family: 'Open Sans', verdana, arial, sans-serif; font-size: 19px; fill: rgb(42, 63, 95); fill-opacity: 1; white-space: pre; opacity: 1;"><tspan class="line" dy="0em" x="0" y="530">Dec 24</tspan><tspan class="line" dy="1.3em" x="0" y="530">2019</tspan></text></g><g class="xtick"><text text-anchor="middle" x="0" y="530" style="font-family: 'Open Sans', verdana, arial, sans-serif; font-size: 19px; fill: rgb(42, 63, 95); fill-opacity: 1; white-space: pre; opacity: 1;" transform="translate(196,0)">Dec 25</text></g><g class="xtick"><text text-anchor="middle" x="0" y="530" style="font-family: 'Open Sans', verdana, arial, sans-serif; font-size: 19px; fill: rgb(42, 63, 95); fill-opacity: 1; white-space: pre; opacity: 1;" transform="translate(314,0)">Dec 26</text></g><g class="xtick"><text text-anchor="middle" x="0" y="530" style="font-family: 'Open Sans', verdana, arial, sans-serif; font-size: 19px; fill: rgb(42, 63, 95); fill-opacity: 1; white-space: pre; opacity: 1;" transform="translate(432,0)">Dec 27</text></g><g class="xtick"><text text-anchor="middle" x="0" y="530" style="font-family: 'Open Sans', verdana, arial, sans-serif; font-size: 19px; fill: rgb(42, 63, 95); fill-opacity: 1; white-space: pre; opacity: 1;" transform="translate(550,0)">Dec 28</text></g><g class="xtick"><text text-anchor="middle" x="0" y="530" style="font-family: 'Open Sans', verdana, arial, sans-serif; font-size: 19px; fill: rgb(42, 63, 95); fill-opacity: 1; white-space: pre; opacity: 1;" transform="translate(668,0)">Dec 29</text></g><g class="xtick"><text text-anchor="middle" x="0" y="530" style="font-family: 'Open Sans', verdana, arial, sans-serif; font-size: 19px; fill: rgb(42, 63, 95); fill-opacity: 1; white-space: pre; opacity: 1;" transform="translate(786,0)">Dec 30</text></g><g class="xtick"><text text-anchor="middle" x="0" y="530" style="font-family: 'Open Sans', verdana, arial, sans-serif; font-size: 19px; fill: rgb(42, 63, 95); fill-opacity: 1; white-space: pre; opacity: 1;" transform="translate(904,0)">Dec 31</text></g></g><g class="yaxislayer-above"><g class="ytick"><text text-anchor="end" x="77" y="6.6499999999999995" transform="translate(0,487)" style="font-family: 'Open Sans', verdana, arial, sans-serif; font-size: 19px; fill: rgb(42, 63, 95); fill-opacity: 1; white-space: pre; opacity: 1;">0</text></g><g class="ytick"><text text-anchor="end" x="77" y="6.6499999999999995" style="font-family: 'Open Sans', verdana, arial, sans-serif; font-size: 19px; fill: rgb(42, 63, 95); fill-opacity: 1; white-space: pre; opacity: 1;" transform="translate(0,429.13)">50</text></g><g class="ytick"><text text-anchor="end" x="77" y="6.6499999999999995" style="font-family: 'Open Sans', verdana, arial, sans-serif; font-size: 19px; fill: rgb(42, 63, 95); fill-opacity: 1; white-space: pre; opacity: 1;" transform="translate(0,371.26)">100</text></g><g class="ytick"><text text-anchor="end" x="77" y="6.6499999999999995" style="font-family: 'Open Sans', verdana, arial, sans-serif; font-size: 19px; fill: rgb(42, 63, 95); fill-opacity: 1; white-space: pre; opacity: 1;" transform="translate(0,313.39)">150</text></g><g class="ytick"><text text-anchor="end" x="77" y="6.6499999999999995" style="font-family: 'Open Sans', verdana, arial, sans-serif; font-size: 19px; fill: rgb(42, 63, 95); fill-opacity: 1; white-space: pre; opacity: 1;" transform="translate(0,255.52)">200</text></g><g class="ytick"><text text-anchor="end" x="77" y="6.6499999999999995" style="font-family: 'Open Sans', verdana, arial, sans-serif; font-size: 19px; fill: rgb(42, 63, 95); fill-opacity: 1; white-space: pre; opacity: 1;" transform="translate(0,197.65)">250</text></g><g class="ytick"><text text-anchor="end" x="77" y="6.6499999999999995" style="font-family: 'Open Sans', verdana, arial, sans-serif; font-size: 19px; fill: rgb(42, 63, 95); fill-opacity: 1; white-space: pre; opacity: 1;" transform="translate(0,139.78)">300</text></g><g class="ytick"><text text-anchor="end" x="77" y="6.6499999999999995" style="font-family: 'Open Sans', verdana, arial, sans-serif; font-size: 19px; fill: rgb(42, 63, 95); fill-opacity: 1; white-space: pre; opacity: 1;" transform="translate(0,81.91)">350</text></g></g><g class="overaxes-above"/></g></g><g class="polarlayer"/><g class="ternarylayer"/><g class="geolayer"/><g class="funnelarealayer"/><g class="pielayer"/><g class="iciclelayer"/><g class="treemaplayer"/><g class="sunburstlayer"/><g class="glimages"/><defs id="topdefs-ef06c5"><g class="clips"/><clipPath id="legendef06c5"><rect width="169" height="207" x="0" y="0"/></clipPath></defs><g class="layer-above"><g class="imagelayer"/><g class="shapelayer"/></g><g class="infolayer"><g class="legend" pointer-events="all" transform="translate(920.52,50)"><rect class="bg" shape-rendering="crispEdges" width="169" height="207" x="0" y="0" style="stroke: rgb(68, 68, 68); stroke-opacity: 1; fill: rgb(255, 255, 255); fill-opacity: 1; stroke-width: 0px;"/><g class="scrollbox" transform="" clip-path="url(#legendef06c5)"><text class="legendtitletext" text-anchor="start" x="2" y="29.900000000000002" style="font-family: 'Open Sans', verdana, arial, sans-serif; font-size: 23px; fill: rgb(42, 63, 95); fill-opacity: 1; white-space: pre;">variable</text><g class="groups" transform=""><g class="traces" transform="translate(0,48.75)" style="opacity: 1;"><text class="legendtext" text-anchor="start" x="40" y="7.409999999999999" style="font-family: 'Open Sans', verdana, arial, sans-serif; font-size: 19px; fill: rgb(42, 63, 95); fill-opacity: 1; white-space: pre;">grid_kw</text><g class="layers" style="opacity: 1;"><g class="legendfill"/><g class="legendlines"><path class="js-line" d="M5,0h30" style="fill: none; stroke: rgb(214, 39, 40); stroke-opacity: 1; stroke-width: 2px;"/></g><g class="legendsymbols"><g class="legendpoints"/></g></g><rect class="legendtoggle" x="0" y="-13.85" width="163.015625" height="27.7" style="fill: rgb(0, 0, 0); fill-opacity: 0;"/></g><g class="traces" transform="translate(0,76.45)" style="opacity: 1;"><text class="legendtext" text-anchor="start" x="40" y="7.409999999999999" style="font-family: 'Open Sans', verdana, arial, sans-serif; font-size: 19px; fill: rgb(42, 63, 95); fill-opacity: 1; white-space: pre;">battery_kWh</text><g class="layers" style="opacity: 1;"><g class="legendfill"/><g class="legendlines"><path class="js-line" d="M5,0h30" style="fill: none; stroke: rgb(44, 160, 44); stroke-opacity: 1; stroke-width: 2px;"/></g><g class="legendsymbols"><g class="legendpoints"/></g></g><rect class="legendtoggle" x="0" y="-13.85" width="163.015625" height="27.7" style="fill: rgb(0, 0, 0); fill-opacity: 0;"/></g></g><g class="groups" transform=""><g class="traces" transform="translate(0,104.14999999999999)" style="opacity: 1;"><text class="legendtext" text-anchor="start" x="40" y="7.409999999999999" style="font-family: 'Open Sans', verdana, arial, sans-serif; font-size: 19px; fill: rgb(42, 63, 95); fill-opacity: 1; white-space: pre;">pv_curtailed</text><g class="layers" style="opacity: 1;"><g class="legendfill"/><g class="legendlines"><path class="js-line" d="M5,0h30" style="fill: none; stroke: rgb(255, 127, 14); stroke-opacity: 1; stroke-width: 2px;"/></g><g class="legendsymbols"><g class="legendpoints"/></g></g><rect class="legendtoggle" x="0" y="-13.85" width="163.015625" height="27.7" style="fill: rgb(0, 0, 0); fill-opacity: 0;"/></g></g><g class="groups" transform=""><g class="traces" transform="translate(0,131.85)" style="opacity: 1;"><text class="legendtext" text-anchor="start" x="40" y="7.409999999999999" style="font-family: 'Open Sans', verdana, arial, sans-serif; font-size: 19px; fill: rgb(42, 63, 95); fill-opacity: 1; white-space: pre;">co2_g_kwh</text><g class="layers" style="opacity: 1;"><g class="legendfill"/><g class="legendlines"><path class="js-line" d="M5,0h30" style="fill: none; stroke: rgb(188, 189, 34); stroke-opacity: 1; stroke-width: 2px;"/></g><g class="legendsymbols"><g class="legendpoints"/></g></g><rect class="legendtoggle" x="0" y="-13.85" width="163.015625" height="27.7" style="fill: rgb(0, 0, 0); fill-opacity: 0;"/></g></g><g class="groups" transform=""><g class="traces" transform="translate(0,159.54999999999998)" style="opacity: 1;"><text class="legendtext" text-anchor="start" x="40" y="7.409999999999999" style="font-family: 'Open Sans', verdana, arial, sans-serif; font-size: 19px; fill: rgb(42, 63, 95); fill-opacity: 1; white-space: pre;">batteryin</text><g class="layers" style="opacity: 1;"><g class="legendfill"/><g class="legendlines"><path class="js-line" d="M5,0h30" style="fill: none; stroke: rgb(227, 119, 194); stroke-opacity: 1; stroke-width: 2px;"/></g><g class="legendsymbols"><g class="legendpoints"/></g></g><rect class="legendtoggle" x="0" y="-13.85" width="163.015625" height="27.7" style="fill: rgb(0, 0, 0); fill-opacity: 0;"/></g></g><g class="groups" transform=""><g class="traces" transform="translate(0,187.25)" style="opacity: 1;"><text class="legendtext" text-anchor="start" x="40" y="7.409999999999999" style="font-family: 'Open Sans', verdana, arial, sans-serif; font-size: 19px; fill: rgb(42, 63, 95); fill-opacity: 1; white-space: pre;">batteryout</text><g class="layers" style="opacity: 1;"><g class="legendfill"/><g class="legendlines"><path class="js-line" d="M5,0h30" style="fill: none; stroke: rgb(23, 190, 207); stroke-opacity: 1; stroke-width: 2px;"/></g><g class="legendsymbols"><g class="legendpoints"/></g></g><rect class="legendtoggle" x="0" y="-13.85" width="163.015625" height="27.7" style="fill: rgb(0, 0, 0); fill-opacity: 0;"/></g></g></g><rect class="scrollbar" rx="20" ry="3" width="0" height="0" x="0" y="0" style="fill: rgb(128, 139, 164); fill-opacity: 1;"/></g><g class="g-gtitle"/><g class="g-xtitle"/><g class="g-ytitle" transform="translate(13.349609375,0)"><text class="ytitle" transform="rotate(-90,9.650000000000006,280)" x="9.650000000000006" y="280" text-anchor="middle" style="font-family: 'Open Sans', verdana, arial, sans-serif; font-size: 23px; fill: rgb(42, 63, 95); opacity: 1; font-weight: normal; white-space: pre;">Legend</text></g></g></svg>