<svg class="main-svg" xmlns="http://www.w3.org/2000/svg" xmlns:xlink="http://www.w3.org/1999/xlink" width="1100" height="600" viewBox="0 0 1100 600"><rect x="0" y="0" width="1100" height="600" style="fill: rgb(255, 255, 255); fill-opacity: 1;"/><defs id="defs-85810d"><g class="clips"><clipPath id="clip85810dxyplot" class="plotclip"><rect width="826" height="460"/></clipPath><clipPath class="axesclip" id="clip85810dx"><rect x="78" y="0" width="826" height="600"/></clipPath><clipPath class="axesclip" id="clip85810dy"><rect x="0" y="50" width="1100" height="460"/></clipPath><clipPath class="axesclip" id="clip85810dxy"><rect x="78" y="50" width="826" height="460"/></clipPath></g><g class="gradients"/><g class="patterns"/></defs><g class="bglayer"/><g class="layer-below"><g class="imagelayer"/><g class="shapelayer"/></g><g class="cartesianlayer"><g class="subplot xy"><g class="layer-subplot"><g class="shapelayer"/><g class="imagelayer"/></g><g class="gridlayer"><g class="x"><path class="xgrid crisp" transform="translate(196,0)" d="M0,50v460" style="stroke: rgb(235, 240, 248); stroke-opacity: 1; stroke-width: 1px;"/><path class="xgrid crisp" transform="translate(314,0)" d="M0,50v460" style="stroke: rgb(235, 240, 248); stroke-opacity: 1; stroke-width: 1px;"/><path class="xgrid crisp" transform="translate(432,0)" d="M0,50v460" style="stroke: rgb(235, 240, 248); stroke-opacity: 1; stroke-width: 1px;"/><path class="xgrid crisp" transform="translate(550,0)" d="M0,50v460" style="stroke: rgb(235, 240, 248); stroke-opacity: 1; stroke-width: 1px;"/><path class="xgrid crisp" transform="translate(668,0)" d="M0,50v460" style="stroke: rgb(235, 240, 248); stroke-opacity: 1; stroke-width: 1px;"/><path class="xgrid crisp" transform="translate(786,0)" d="M0,50v460" style="stroke: rgb(235, 240, 248); stroke-opacity: 1; stroke-width: 1px;"/></g><g class="y"><path class="ygrid crisp" transform="translate(0,406.02)" d="M78,0h826" style="stroke: rgb(235, 240, 248); stroke-opacity: 1; stroke-width: 1px;"/><path class="ygrid crisp" transform="translate(0,325.04)" d="M78,0h826" style="stroke: rgb(235, 240, 248); stroke-opacity: 1; stroke-width: 1px;"/><path class="ygrid crisp" transform="translate(0,244.06)" d="M78,0h826" style="stroke: rgb(235, 240, 248); stroke-opacity: 1; stroke-width: 1px;"/><path class="ygrid crisp" transform="translate(0,163.07999999999998)" d="M78,0h826" style="stroke: rgb(235, 240, 248); stroke-opacity: 1; stroke-width: 1px;"/><path class="ygrid crisp" transform="translate(0,82.1)" d="M78,0h826" style="stroke: rgb(235, 240, 248); stroke-opacity: 1; stroke-width: 1px;"/></g></g><g class="zerolinelayer"><path class="yzl zl crisp" transform="translate(0,487)" d="M78,0h826" style="stroke: rgb(0, 0, 0); stroke-opacity: 1; stroke-width: 2px;"/></g><path class="xlines-below"/><path class="ylines-below"/><g class="overlines-below"/><g class="xaxislayer-below"/><g class="yaxislayer-below"/><g class="overaxes-below"/><g class="plot" transform="translate(78,50)" clip-path="url(#clip85810dxyplot)"><g class="scatterlayer mlayer"><g class="trace scatter trace7ef1ca" style="stroke-miterlimit: 2; opacity: 1;"><g class="fills"/><g class="errorbars"/><g class="lines"><path class="js-line" d="M0,437L106.94,437L108.17,406.07L109.4,421.22L110.63,417.52L111.85,424.87L113.08,421.45L114.31,423.27L115.54,421.9L116.77,427.28L118,429.29L119.23,423.65L120.46,425.77L122.92,420.49L124.15,426.2L125.38,427.04L126.6,429.1L127.83,426.67L129.06,422.56L131.52,426.47L132.75,430.11L133.98,414.1L135.21,428.96L136.44,424.95L137.67,427.42L138.9,426.79L140.13,427.56L141.35,430.3L142.58,424.62L143.81,418.83L145.04,420.85L146.27,424.83L147.5,422.29L148.73,423.81L149.96,409.28L151.19,422.76L152.42,423.37L153.65,428.93L154.88,428.39L156.1,425.96L157.33,428.18L161.02,437L162.25,437L184.38,437L185.6,414.31L186.83,437L188.06,437L189.29,437L190.52,417.91L191.75,426.38L192.98,424.54L195.44,422.34L196.67,425.56L199.13,422.45L200.35,425.4L201.58,418.19L202.81,416.43L204.04,414.17L205.27,421.67L207.73,419.92L208.96,416.63L210.19,414.33L211.42,420.75L212.65,422.07L213.88,416.91L215.1,421.16L216.33,420.46L217.56,413.06L218.79,399.85L220.02,419.43L221.25,419.9L222.48,424.95L223.71,422.13L224.94,425.22L226.17,423.33L227.4,425.41L228.63,422.92L229.85,427.8L231.08,425.58L232.31,426.43L233.54,424.44L236,426.46L237.23,426.19L238.46,428.1L239.69,428.28L240.92,431.87L242.15,430.14L243.38,430.2L244.6,431.52L245.83,428.2L247.06,429.12L249.52,427.57L250.75,425.51L251.98,409.79L253.21,422.7L254.44,420.27L255.67,426.24L256.9,421.62L258.13,426.64L259.35,427.88L260.58,428.04L261.81,429.66L263.04,429.11L264.27,430.77L265.5,427.26L266.73,429.72L267.96,429.06L270.42,427.86L271.65,425.07L272.88,423.95L274.1,425.24L276.56,423.51L277.79,427.56L279.02,399.41L280.25,428.43L281.48,435.23L282.71,434.65L283.94,432.96L285.17,429.72L286.4,427.78L287.63,431.6L288.85,436.4L290.08,437L291.31,430.85L292.54,431.03L293.77,430.37L295,428.19L296.23,428.27L297.46,423.83L298.69,427.39L299.92,426.67L302.38,429.99L303.6,437L304.83,437L306.06,425.39L307.29,422.04L308.52,425.06L309.75,420.25L310.98,425.41L312.21,429.18L313.44,421.97L314.67,425.51L315.9,420.08L318.35,417.14L319.58,424.42L320.81,425.75L322.04,425.65L323.27,437L324.5,437L340.48,437L341.71,430.32L344.17,427.72L345.4,423.96L346.63,426.54L347.85,426.64L349.08,430.9L350.31,428.29L351.54,427.21L352.77,429.76L354,431.55L355.23,430.15L356.46,427.57L357.69,428.99L358.92,427.93L360.15,429.9L361.38,429.57L362.6,426.97L363.83,418.57L365.06,424.99L366.29,428.03L367.52,429L368.75,411.33L369.98,423.75L371.21,420.9L372.44,424.98L373.67,428.82L374.9,427.53L376.13,428.96L377.35,427.73L378.58,427.95L379.81,423.79L381.04,428.09L382.27,427.01L383.5,429.37L384.73,422L385.96,417.46L387.19,424.02L390.88,429.37L392.1,429.56L393.33,428.7L394.56,431.22L395.79,432.87L397.02,432.36L399.48,433.41L400.71,429.13L401.94,433.09L403.17,429.01L404.4,428.07L405.63,433.65L406.85,430.61L408.08,431.12L410.54,437L411.77,436.85L413,433.82L414.23,437L417.92,436.36L419.15,434.65L421.6,432.17L422.83,427.74L424.06,430.18L425.29,424.03L426.52,427.12L427.75,428L428.98,427.6L430.21,428.8L431.44,425.81L432.67,428.4L433.9,428.13L435.13,419.96L436.35,425.73L437.58,419.82L440.04,427.45L441.27,397.48L442.5,420.88L443.73,420.81L444.96,423.92L446.19,424.17L447.42,425L448.65,424.23L449.88,424.42L451.1,425.74L452.33,424.49L453.56,425.63L454.79,420.75L456.02,427.56L457.25,427.97L458.48,426.79L459.71,426.98L460.94,424.27L462.17,423.02L463.4,426.33L464.63,422.51L465.85,429.28L467.08,428.47L468.31,429.14L469.54,429.53L470.77,426.41L472,431.54L473.23,429.87L474.46,429.48L475.69,431.25L476.92,431.67L478.15,431.16L479.38,430.46L480.6,430.91L483.06,425.93L484.29,428.64L485.52,430.23L486.75,428.5L487.98,429.21L489.21,427.06L490.44,427.49L491.67,426.27L492.9,431.49L494.13,426.97L495.35,425.47L496.58,428.32L497.81,425.72L499.04,426.66L500.27,429.07L501.5,422.16L502.73,423.31L503.96,422.89L506.42,427.58L507.65,424.31L510.1,420.82L511.33,420.81L512.56,425.18L513.79,425.17L515.02,424.97L516.25,427.06L517.48,426.33L518.71,423.47L519.94,422.9L521.17,420.21L524.85,429.32L526.08,427.63L528.54,428.22L529.77,427.47L532.23,429.98L533.46,428.99L535.92,421.47L537.15,427.62L538.38,427.07L539.6,428.23L543.29,425L544.52,420.92L545.75,425.35L546.98,426.62L548.21,426.6L549.44,429L550.67,428.55L551.9,430.07L553.13,429.77L554.35,426.34L556.81,425.28L558.04,428.52L559.27,424.18L560.5,424.18L561.73,411.14L562.96,423.16L564.19,424.11L565.42,423.12L566.65,420.33L567.88,423.88L570.33,425.2L571.56,427.61L572.79,423.44L574.02,423.31L576.48,427.43L577.71,427.09L578.94,426.15L580.17,426.17L581.4,424.55L582.63,420.63L583.85,414.85L585.08,425.92L587.54,426.29L588.77,430.28L590,430.27L591.23,426.83L592.46,423.41L593.69,426.27L594.92,431.03L596.15,428.77L597.38,423.36L598.6,427.52L599.83,425.58L601.06,414.34L602.29,426.91L603.52,429.7L605.98,430.23L607.21,428.87L608.44,425.25L609.67,429.38L610.9,427.51L612.13,429.1L614.58,428.15L615.81,432.79L617.04,429.61L618.27,430.72L619.5,429L620.73,420.66L621.96,422.5L623.19,420.11L624.42,428.61L625.65,423.92L626.88,425.96L628.1,424.14L629.33,420.75L630.56,428.73L631.79,426.17L633.02,427.64L634.25,425.02L635.48,429.69L636.71,430.95L637.94,423.47L639.17,429.66L640.4,427.76L641.63,430.51L642.85,428.71L644.08,432.78L645.31,431L646.54,425.71L647.77,425.65L649,427.41L650.23,425.02L651.46,427.4L652.69,425.05L653.92,425.48L655.15,427.49L656.38,424.2L657.6,432.14L658.83,437L660.06,426.36L661.29,420.44L662.52,422.46L663.75,427.31L664.98,426.67L666.21,430.32L667.44,423.98L668.67,423.81L669.9,428.07L671.13,427.33L672.35,428.13L674.81,421.98L676.04,425.37L677.27,425.63L678.5,409.84L679.73,422.76L680.96,424.62L683.42,417.05L684.65,422.8L685.88,417.31L687.1,421.94L688.33,424.21L689.56,415.98L690.79,424.36L692.02,425.44L693.25,425.55L694.48,422.32L695.71,420.19L696.94,420.04L700.63,424.61L701.85,420.36L703.08,427.13L704.31,424L705.54,428.2L706.77,424.24L708,428.65L709.23,426.95L710.46,429.48L711.69,428.98L712.92,432.15L714.15,430.1L715.38,430.61L716.6,429.15L717.83,425.81L719.06,427.22L721.52,429.91L722.75,422.56L723.98,427.61L725.21,425.11L726.44,427.91L727.67,428.78L728.9,429.98L730.13,424.05L731.35,437L732.58,437L739.96,437L741.19,428.52L742.42,426.19L743.65,427.3L744.88,428.31L746.1,424.63L748.56,428.29L749.79,428.53L751.02,430.52L752.25,429.89L753.48,434.06L754.71,431.12L755.94,431.8L757.17,434.58L759.63,430.58L760.85,430.78L762.08,428.88L763.31,425.25L764.54,428.31L765.77,425.15L767,426.85L768.23,426.64L769.46,428.05L770.69,430.83L771.92,431.13L773.15,437L779.29,437L780.52,433.92L782.98,427.11L784.21,426.66L785.44,426.46L786.67,424.07L787.9,427.38L789.13,425.52L790.35,422.71L791.58,426.26L792.81,425.27L794.04,426.49L795.27,424.6L796.5,420.5L797.73,418.14L798.96,419.32L800.19,414.39L801.42,412.61L802.65,424.45L803.88,422.04L805.1,422.72L806.33,424.36L807.56,426.57L808.79,422.95L810.02,426.08L811.25,422.93L812.48,423.09L813.71,424.43L814.94,423.11L816.17,420.37L817.4,421.42L818.63,426.42L821.08,426.84L822.31,424.29L823.54,417.65L824.77,420.76L826,437" style="vector-effect: non-scaling-stroke; fill: none; stroke: rgb(214, 39, 40); stroke-opacity: 1; stroke-width: 2px; opacity: 1;"/></g><g class="points"/><g class="text"/></g><g class="trace scatter trace4ae0e7" style="stroke-miterlimit: 2; opacity: 1;"><g class="fills"/><g class="errorbars"/><g class="lines"><path class="js-line" d="M0,437L826,437" style="vector-effect: non-scaling-stroke; fill: none; stroke: rgb(255, 127, 14); stroke-opacity: 1; stroke-width: 2px; opacity: 1;"/></g><g class="points"/><g class="text"/></g><g class="trace scatter trace5b1c0f" style="stroke-miterlimit: 2; opacity: 1;"><g class="fills"/><g class="errorbars"/><g class="lines"><path class="js-line" d="M0,275.11L1.23,277.59L2.46,281.9L8.6,296.6L9.83,298.26L12.29,307.51L13.52,309.97L17.21,318.39L18.44,323.41L29.5,348.04L30.73,351.19L33.19,358.57L34.42,363.29L40.56,382.93L41.79,384.61L43.02,385.2L44.25,384.18L46.71,379.46L47.94,374.71L51.63,362.7L52.85,357.55L65.15,292.85L66.38,287.82L67.6,295.87L68.83,291.96L71.29,282.69L72.52,281.98L73.75,282.22L74.98,284.02L84.81,308.86L86.04,312.78L87.27,318.04L88.5,327.38L93.42,351.47L94.65,356.24L98.33,369.36L99.56,373.48L103.25,386.63L104.48,390.72L108.17,403.14L109.4,403.14L161.02,403.14L162.25,401.47L169.63,385.16L170.85,380.33L173.31,363.98L174.54,354.01L181.92,298.43L183.15,290.67L185.6,277.02L186.83,277.34L189.29,268.78L190.52,267.71L303.6,267.71L304.83,269.93L306.06,272.86L307.29,272.86L323.27,272.86L324.5,275.4L328.19,285.73L329.42,288.6L340.48,313.77L341.71,315.62L415.46,315.23L416.69,314.82L425.29,314.71L426.52,314.71L508.88,314.43L510.1,313.72L518.71,305.78L519.94,305.13L528.54,300.43L529.77,298.09L535.92,280.95L537.15,280.26L545.75,279.09L546.98,279.07L658.83,279.07L660.06,282.05L730.13,282.05L731.35,283.95L736.27,291.56L737.5,293.69L739.96,298.83L741.19,304.87L773.15,304.87L774.38,304.04L775.6,300.55L776.83,294.42L780.52,275.12L781.75,275.12L826,275.11" style="vector-effect: non-scaling-stroke; fill: none; stroke: rgb(44, 160, 44); stroke-opacity: 1; stroke-width: 2px; opacity: 1;"/></g><g class="points"/><g class="text"/></g><g class="trace scatter trace0ba9ad" style="stroke-miterlimit: 2; opacity: 1;"><g class="fills"/><g class="errorbars"/><g class="lines"><path class="js-line" d="M0,65.7L4.92,67.11L6.15,66.67L12.29,63.76L13.52,62.97L14.75,62.17L15.98,58.77L20.9,43.67L22.13,38.78L24.58,28.99L25.81,27.49L29.5,23L30.73,24.74L35.65,30.74L36.88,31.51L44.25,35.74L45.48,35.94L50.4,36.1L51.63,35.66L54.08,34.76L55.31,33.41L62.69,26.1L63.92,25.02L70.06,24.21L71.29,24.63L76.21,26.96L77.44,27.71L78.67,28.45L79.9,28.23L83.58,27.57L84.81,28.14L88.5,29.84L89.73,32.09L102.02,55.96L103.25,58.58L114.31,97.51L115.54,100.11L119.23,106.92L120.46,108.55L122.92,111.81L124.15,114.93L129.06,126.36L130.29,128.42L132.75,132.53L133.98,131.57L137.67,128.69L138.9,126.41L143.81,118.17L145.04,116.76L147.5,113.96L148.73,115.17L156.1,123.44L157.33,124.98L163.48,127.84L164.71,127.81L169.63,128.4L170.85,128.73L174.54,129.07L175.77,129.08L183.15,129.79L184.38,130.38L196.67,135.71L197.9,135.27L202.81,134.14L204.04,134.3L206.5,134.63L207.73,136.26L216.33,146.88L217.56,147.28L223.71,149.95L224.94,150.69L226.17,151.43L227.4,154.06L231.08,161.96L232.31,160.71L240.92,152.41L242.15,151.78L245.83,149.91L247.06,150.46L250.75,152.08L251.98,150.9L256.9,145.13L258.13,142.91L260.58,138.48L261.81,134.51L266.73,120L267.96,117.37L270.42,112.11L271.65,111.49L276.56,108.49L277.79,107.34L286.4,99.11L287.63,97.06L292.54,87.49L293.77,84.75L296.23,80.65L297.46,79.29L301.15,75.97L302.38,75.38L304.83,74.19L306.06,75.07L312.21,78.63L313.44,79.09L314.67,79.55L315.9,78.9L323.27,74.22L324.5,73.31L335.56,70.03L336.79,70.09L339.25,70.21L340.48,72.97L349.08,90.92L350.31,92.33L360.15,104.74L361.38,106.78L365.06,111.64L366.29,112.43L368.75,114L369.98,111.72L376.13,101.44L377.35,99.71L379.81,95.57L381.04,93.15L388.42,79.36L389.65,79.5L393.33,79.93L394.56,81.74L400.71,89.57L401.94,90.77L403.17,91.97L404.4,91.5L413,87.86L414.23,86.64L417.92,82.99L419.15,83.45L422.83,84.83L424.06,86.91L431.44,98.24L432.67,99.95L446.19,126.48L447.42,129.37L453.56,148.17L454.79,150.65L457.25,155.62L458.48,160.17L464.63,180.33L465.85,183.59L468.31,192L469.54,197.16L474.46,215.62L475.69,219.69L478.15,226.12L479.38,228.49L481.83,233.22L483.06,232.14L486.75,228.9L487.98,225.38L491.67,214.81L492.9,208.26L497.81,184.15L499.04,179.69L501.5,170.78L502.73,170.27L507.65,168.99L508.88,169.26L511.33,169.8L512.56,170.97L522.4,180.09L523.63,180.34L526.08,180.84L527.31,178.62L531,171.96L532.23,167.93L540.83,142.37L542.06,142.07L546.98,141.6L548.21,142.05L550.67,142.95L551.9,142.38L560.5,139.01L561.73,139.94L567.88,143.9L569.1,144.48L571.56,146.3L572.79,147.53L581.4,156.09L582.63,157.92L586.31,164.62L587.54,167.63L590,173.67L591.23,173.87L594.92,174.47L596.15,173.42L603.52,168.07L604.75,167.33L609.67,157.03L610.9,151.95L620.73,114.25L621.96,111.58L625.65,105.34L626.88,104.43L644.08,91L645.31,89.49L651.46,81.06L652.69,79.11L655.15,76.54L656.38,75.91L658.83,74.65L660.06,75.41L669.9,80.71L671.13,80.85L674.81,80.76L676.04,80.39L678.5,79.66L679.73,80.85L683.42,84.44L684.65,87.21L689.56,97.27L690.79,99.01L693.25,102.48L694.48,102.56L699.4,102.44L700.63,102.09L704.31,100.56L705.54,99.74L709.23,97.89L710.46,97.67L720.29,95.83L721.52,95.26L722.75,94.68L723.98,91.4L732.58,68.43L733.81,69.11L738.73,72.53L739.96,73.9L742.42,76.66L743.65,79.27L752.25,96.68L753.48,97.88L757.17,101.45L758.4,101.09L762.08,100.01L763.31,98.71L769.46,91.3L770.69,89.54L771.92,87.78L773.15,87.37L776.83,86.15L778.06,88.89L786.67,106.32L787.9,108.33L791.58,114.38L792.81,119.06L806.33,168.07L807.56,170.92L812.48,183.71L813.71,187.91L817.4,198.56L818.63,200.79L823.54,208.39L824.77,209.96L826,211.53" style="vector-effect: non-scaling-stroke; fill: none; stroke: rgb(188, 189, 34); stroke-opacity: 1; stroke-width: 2px; opacity: 1;"/></g><g class="points"/><g class="text"/></g><g class="trace scatter tracee0203c" style="stroke-miterlimit: 2; opacity: 1;"><g class="fills"/><g class="errorbars"/><g class="lines"><path class="js-line" d="M0,437L41.79,437L43.02,432.71L45.48,425.19L46.71,417.01L47.94,421.58L49.17,421.94L50.4,416.92L51.63,415.31L52.85,408.65L54.08,406.69L55.31,411.19L56.54,406.55L57.77,406.51L59,411.02L60.23,405.82L61.46,410.28L62.69,417.16L63.92,413.71L65.15,415.82L66.38,437L67.6,420.52L68.83,415.57L70.06,419.41L71.29,434.03L72.52,437L73.75,437L159.79,437L161.02,429.95L163.48,423.37L164.71,425.18L165.94,427.62L167.17,426.79L168.4,423.66L169.63,416.67L170.85,409.59L172.08,395.58L175.77,394.33L177,395.12L178.23,401.53L179.46,403.39L180.69,398.43L181.92,404.34L183.15,405.28L184.38,411.22L185.6,437L186.83,416.4L188.06,421.6L189.29,432.49L190.52,437L191.75,437L288.85,437L290.08,434.77L291.31,437L292.54,437L413,437L414.23,435.52L415.46,435.27L416.69,436.56L419.15,437L420.38,437L506.42,437L507.65,435.81L511.33,430.43L512.56,430.56L517.48,434.2L518.71,434.23L526.08,434.97L527.31,431.88L531,417.66L532.23,419.35L535.92,434.1L537.15,435.83L551.9,437L553.13,437L771.92,437L773.15,433.48L776.83,403.95L778.06,407.22L779.29,418.54L780.52,437L826,437" style="vector-effect: non-scaling-stroke; fill: none; stroke: rgb(227, 119, 194); stroke-opacity: 1; stroke-width: 2px; opacity: 1;"/></g><g class="points"/><g class="text"/></g><g class="trace scatter tracefb7aba" style="stroke-miterlimit: 2; opacity: 1;"><g class="fills"/><g class="errorbars"/><g class="lines"><path class="js-line" d="M0,427.61L1.23,420.59L2.46,425.98L3.69,418.72L4.92,427.96L7.38,428.34L8.6,430.66L9.83,414.93L11.06,423.93L12.29,427.68L13.52,425.17L14.75,429.78L15.98,424.03L17.21,417.94L18.44,426.49L19.67,426.92L20.9,430.11L23.35,426.31L24.58,427.23L25.81,424.6L27.04,424.51L30.73,425.75L31.96,420.22L33.19,419.04L34.42,422.09L35.65,421.75L36.88,425.4L38.1,417.6L39.33,423.55L41.79,434.78L43.02,437L65.15,437L66.38,406.41L67.6,437L68.83,437L71.29,437L72.52,436.12L74.98,425.77L76.21,423.55L77.44,422.74L78.67,426.5L81.13,427.7L82.35,425.68L83.58,422.66L84.81,422.11L86.04,417L87.27,401.49L88.5,411.8L89.73,409.07L92.19,420.84L93.42,418.86L94.65,416.58L95.88,423.24L97.1,421.35L98.33,421.32L99.56,416.52L100.79,420.16L102.02,424.36L103.25,421.48L104.48,420.62L105.71,421.89L106.94,421.26L108.17,437L184.38,437L185.6,435.8L186.83,437L188.06,437L287.63,437L288.85,434.99L290.08,437L291.31,437L302.38,437L303.6,428.58L304.83,425.88L306.06,437L322.04,437L323.27,427.35L324.5,421.89L325.73,424.6L328.19,426.1L329.42,425.85L331.88,428.4L333.1,425.43L334.33,424.72L335.56,427.51L338.02,425.66L339.25,426.93L340.48,429.97L341.71,437L657.6,437L658.83,425.68L660.06,437L661.29,437L728.9,437L730.13,429.8L732.58,430.75L733.81,427.59L735.04,430.14L736.27,428.91L737.5,426.31L738.73,428.14L739.96,414.04L741.19,437L824.77,437L826,428.13" style="vector-effect: non-scaling-stroke; fill: none; stroke: rgb(23, 190, 207); stroke-opacity: 1; stroke-width: 2px; opacity: 1;"/></g><g class="points"/><g class="text"/></g></g></g><g class="overplot"/><path class="xlines-above crisp" d="M0,0" style="fill: none;"/><path class="ylines-above crisp" d="M0,0" style="fill: none;"/><g class="overlines-above"/><g class="xaxislayer-above"><g class="xtick"><text text-anchor="middle" x="0" y="530" transform="translate(78,0)" style="font-family: 'Open Sans', verdana, arial, sans-serif; font-size: 19px; fill: rgb(42, 63, 95); fill-opacity: 1; white-space: pre; opacity: 1;"><tspan class="line" dy="0em" x="0" y="530">Dec 10</tspan><tspan class="line" dy="1.3em" x="0" y="530">2019</tspan></text></g><g class="xtick"><text text-anchor="middle" x="0" y="530" style="font-family: 'Open Sans', verdana, arial, sans-serif; font-size: 19px; fill: rgb(42, 63, 95); fill-opacity: 1; white-space: pre; opacity: 1;" transform="translate(196,0)">Dec 11</text></g><g class="xtick"><text text-anchor="middle" x="0" y="530" style="font-family: 'Open Sans', verdana, arial, sans-serif; font-size: 19px; fill: rgb(42, 63, 95); fill-opacity: 1; white-space: pre; opacity: 1;" transform="translate(314,0)">Dec 12</text></g><g class="xtick"><text text-anchor="middle" x="0" y="530" style="font-family: 'Open Sans', verdana, arial, sans-serif; font-size: 19px; fill: rgb(42, 63, 95); fill-opacity: 1; white-space: pre; opacity: 1;" transform="translate(432,0)">Dec 13</text></g><g class="xtick"><text text-anchor="middle" x="0" y="530" style="font-family: 'Open Sans', verdana, arial, sans-serif; font-size: 19px; fill: rgb(42, 63, 95); fill-opacity: 1; white-space: pre; opacity: 1;" transform="translate(550,0)">Dec 14</text></g><g class="xtick"><text text-anchor="middle" x="0" y="530" style="font-family: 'Open Sans', verdana, arial, sans-serif; font-size: 19px; fill: rgb(42, 63, 95); fill-opacity: 1; white-space: pre; opacity: 1;" transform="translate(668,0)">Dec 15</text></g><g class="xtick"><text text-anchor="middle" x="0" y="530" style="font-family: 'Open Sans', verdana, arial, sans-serif; font-size: 19px; fill: rgb(42, 63, 95); fill-opacity: 1; white-space: pre; opacity: 1;" transform="translate(786,0)">Dec 16</text></g><g class="xtick"><text text-anchor="middle" x="0" y="530" style="font-family: 'Open Sans', verdana, arial, sans-serif; font-size: 19px; fill: rgb(42, 63, 95); fill-opacity: 1; white-space: pre; opacity: 1;" transform="translate(904,0)">Dec 17</text></g></g><g class="yaxislayer-above"><g class="ytick"><text text-anchor="end" x="77" y="6.6499999999999995" transform="translate(0,487)" style="font-family: 'Open Sans', verdana, arial, sans-serif; font-size: 19px; fill: rgb(42, 63, 95); fill-opacity: 1; white-space: pre; opacity: 1;">0</text></g><g class="ytick"><text text-anchor="end" x="77" y="6.6499999999999995" style="font-family: 'Open Sans', verdana, arial, sans-serif; font-size: 19px; fill: rgb(42, 63, 95); fill-opacity: 1; white-space: pre; opacity: 1;" transform="translate(0,406.02)">100</text></g><g class="ytick"><text text-anchor="end" x="77" y="6.6499999999999995" style="font-family: 'Open Sans', verdana, arial, sans-serif; font-size: 19px; fill: rgb(42, 63, 95); fill-opacity: 1; white-space: pre; opacity: 1;" transform="translate(0,325.04)">200</text></g><g class="ytick"><text text-anchor="end" x="77" y="6.6499999999999995" style="font-family: 'Open Sans', verdana, arial, sans-serif; font-size: 19px; fill: rgb(42, 63, 95); fill-opacity: 1; white-space: pre; opacity: 1;" transform="translate(0,244.06)">300</text></g><g class="ytick"><text text-anchor="end" x="77" y="6.6499999999999995" style="font-family: 'Open Sans', verdana, arial, sans-serif; font-size: 19px; fill: rgb(42, 63, 95); fill-opacity: 1; white-space: pre; opacity: 1;" transform="translate(0,163.07999999999998)">400</text></g><g class="ytick"><text text-anchor="end" x="77" y="6.6499999999999995" style="font-family: 'Open Sans', verdana, arial, sans-serif; font-size: 19px; fill: rgb(42, 63, 95); fill-opacity: 1; white-space: pre; opacity: 1;" transform="translate(0,82.1)">500</text></g></g><g class="overaxes-above"/></g></g><g class="polarlayer"/><g class="ternarylayer"/><g class="geolayer"/><g class="funnelarealayer"/><g class="pielayer"/><g class="iciclelayer"/><g class="treemaplayer"/><g class="sunburstlayer"/><g class="glimages"/><defs id="topdefs-85810d"><g class="clips"/><clipPath id="legend85810d"><rect width="169" height="207" x="0" y="0"/></clipPath></defs><g class="layer-above"><g class="imagelayer"/><g class="shapelayer"/></g><g class="infolayer"><g class="legend" pointer-events="all" transform="translate(920.52,50)"><rect class="bg" shape-rendering="crispEdges" width="169" height="207" x="0" y="0" style="stroke: rgb(68, 68, 68); stroke-opacity: 1; fill: rgb(255, 255, 255); fill-opacity: 1; stroke-width: 0px;"/><g class="scrollbox" transform="" clip-path="url(#legend85810d)"><text class="legendtitletext" text-anchor="start" x="2" y="29.900000000000002" style="font-family: 'Open Sans', verdana, arial, sans-serif; font-size: 23px; fill: rgb(42, 63, 95); fill-opacity: 1; white-space: pre;">variable</text><g class="groups" transform=""><g class="traces" transform="translate(0,48.75)" style="opacity: 1;"><text class="legendtext" text-anchor="start" x="40" y="7.409999999999999" style="font-family: 'Open Sans', verdana, arial, sans-serif; font-size: 19px; fill: rgb(42, 63, 95); fill-opacity: 1; white-space: pre;">grid_kw</text><g class="layers" style="opacity: 1;"><g class="legendfill"/><g class="legendlines"><path class="js-line" d="M5,0h30" style="fill: none; stroke: rgb(214, 39, 40); stroke-opacity: 1; stroke-width: 2px;"/></g><g class="legendsymbols"><g class="legendpoints"/></g></g><rect class="legendtoggle" x="0" y="-13.85" width="163.015625" height="27.7" style="fill: rgb(0, 0, 0); fill-opacity: 0;"/></g><g class="traces" transform="translate(0,76.45)" style="opacity: 1;"><text class="legendtext" text-anchor="start" x="40" y="7.409999999999999" style="font-family: 'Open Sans', verdana, arial, sans-serif; font-size: 19px; fill: rgb(42, 63, 95); fill-opacity: 1; white-space: pre;">battery_kWh</text><g class="layers" style="opacity: 1;"><g class="legendfill"/><g class="legendlines"><path class="js-line" d="M5,0h30" style="fill: none; stroke: rgb(44, 160, 44); stroke-opacity: 1; stroke-width: 2px;"/></g><g class="legendsymbols"><g class="legendpoints"/></g></g><rect class="legendtoggle" x="0" y="-13.85" width="163.015625" height="27.7" style="fill: rgb(0, 0, 0); fill-opacity: 0;"/></g></g><g class="groups" transform=""><g class="traces" transform="translate(0,104.14999999999999)" style="opacity: 1;"><text class="legendtext" text-anchor="start" x="40" y="7.409999999999999" style="font-family: 'Open Sans', verdana, arial, sans-serif; font-size: 19px; fill: rgb(42, 63, 95); fill-opacity: 1; white-space: pre;">pv_curtailed</text><g class="layers" style="opacity: 1;"><g class="legendfill"/><g class="legendlines"><path class="js-line" d="M5,0h30" style="fill: none; stroke: rgb(255, 127, 14); stroke-opacity: 1; stroke-width: 2px;"/></g><g class="legendsymbols"><g class="legendpoints"/></g></g><rect class="legendtoggle" x="0" y="-13.85" width="163.015625" height="27.7" style="fill: rgb(0, 0, 0); fill-opacity: 0;"/></g></g><g class="groups" transform=""><g class="traces" transform="translate(0,131.85)" style="opacity: 1;"><text class="legendtext" text-anchor="start" x="40" y="7.409999999999999" style="font-family: 'Open Sans', verdana, arial, sans-serif; font-size: 19px; fill: rgb(42, 63, 95); fill-opacity: 1; white-space: pre;">co2_g_kwh</text><g class="layers" style="opacity: 1;"><g class="legendfill"/><g class="legendlines"><path class="js-line" d="M5,0h30" style="fill: none; stroke: rgb(188, 189, 34); stroke-opacity: 1; stroke-width: 2px;"/></g><g class="legendsymbols"><g class="legendpoints"/></g></g><rect class="legendtoggle" x="0" y="-13.85" width="163.015625" height="27.7" style="fill: rgb(0, 0, 0); fill-opacity: 0;"/></g></g><g class="groups" transform=""><g class="traces" transform="translate(0,159.54999999999998)" style="opacity: 1;"><text class="legendtext" text-anchor="start" x="40" y="7.409999999999999" style="font-family: 'Open Sans', verdana, arial, sans-serif; font-size: 19px; fill: rgb(42, 63, 95); fill-opacity: 1; white-space: pre;">batteryin</text><g class="layers" style="opacity: 1;"><g class="legendfill"/><g class="legendlines"><path class="js-line" d="M5,0h30" style="fill: none; stroke: rgb(227, 119, 194); stroke-opacity: 1; stroke-width: 2px;"/></g><g class="legendsymbols"><g class="legendpoints"/></g></g><rect class="legendtoggle" x="0" y="-13.85" width="163.015625" height="27.7" style="fill: rgb(0, 0, 0); fill-opacity: 0;"/></g></g><g class="groups" transform=""><g class="traces" transform="translate(0,187.25)" style="opacity: 1;"><text class="legendtext" text-anchor="start" x="40" y="7.409999999999999" style="font-family: 'Open Sans', verdana, arial, sans-serif; font-size: 19px; fill: rgb(42, 63, 95); fill-opacity: 1; white-space: pre;">batteryout</text><g class="layers" style="opacity: 1;"><g class="legendfill"/><g class="legendlines"><path class="js-line" d="M5,0h30" style="fill: none; stroke: rgb(23, 190, 207); stroke-opacity: 1; stroke-width: 2px;"/></g><g class="legendsymbols"><g class="legendpoints"/></g></g><rect class="legendtoggle" x="0" y="-13.85" width="163.015625" height="27.7" style="fill: rgb(0, 0, 0); fill-opacity: 0;"/></g></g></g><rect class="scrollbar" rx="20" ry="3" width="0" height="0" x="0" y="0" style="fill: rgb(128, 139, 164); fill-opacity: 1;"/></g><g class="g-gtitle"/><g class="g-xtitle"/><g class="g-ytitle" transform="translate(13.349609375,0)"><text class="ytitle" transform="rotate(-90,9.650000000000006,280)" x="9.650000000000006" y="280" text-anchor="middle" style="font-family: 'Open Sans', verdana, arial, sans-serif; font-size: 23px; fill: rgb(42, 63, 95); opacity: 1; font-weight: normal; white-space: pre;">Legend</text></g></g></svg>