<svg class="main-svg" xmlns="http://www.w3.org/2000/svg" xmlns:xlink="http://www.w3.org/1999/xlink" width="1100" height="600" viewBox="0 0 1100 600"><rect x="0" y="0" width="1100" height="600" style="fill: rgb(255, 255, 255); fill-opacity: 1;"/><defs id="defs-65eed7"><g class="clips"><clipPath id="clip65eed7xyplot" class="plotclip"><rect width="826" height="460"/></clipPath><clipPath class="axesclip" id="clip65eed7x"><rect x="78" y="0" width="826" height="600"/></clipPath><clipPath class="axesclip" id="clip65eed7y"><rect x="0" y="50" width="1100" height="460"/></clipPath><clipPath class="axesclip" id="clip65eed7xy"><rect x="78" y="50" width="826" height="460"/></clipPath></g><g class="gradients"/><g class="patterns"/></defs><g class="bglayer"/><g class="layer-below"><g class="imagelayer"/><g class="shapelayer"/></g><g class="cartesianlayer"><g class="subplot xy"><g class="layer-subplot"><g class="shapelayer"/><g class="imagelayer"/></g><g class="gridlayer"><g class="x"><path class="xgrid crisp" transform="translate(196,0)" d="M0,50v460" style="stroke: rgb(235, 240, 248); stroke-opacity: 1; stroke-width: 1px;"/><path class="xgrid crisp" transform="translate(314,0)" d="M0,50v460" style="stroke: rgb(235, 240, 248); stroke-opacity: 1; stroke-width: 1px;"/><path class="xgrid crisp" transform="translate(432,0)" d="M0,50v460" style="stroke: rgb(235, 240, 248); stroke-opacity: 1; stroke-width: 1px;"/><path class="xgrid crisp" transform="translate(550,0)" d="M0,50v460" style="stroke: rgb(235, 240, 248); stroke-opacity: 1; stroke-width: 1px;"/><path class="xgrid crisp" transform="translate(668,0)" d="M0,50v460" style="stroke: rgb(235, 240, 248); stroke-opacity: 1; stroke-width: 1px;"/><path class="xgrid crisp" transform="translate(786,0)" d="M0,50v460" style="stroke: rgb(235, 240, 248); stroke-opacity: 1; stroke-width: 1px;"/></g><g class="y"><path class="ygrid crisp" transform="translate(0,425.26)" d="M78,0h826" style="stroke: rgb(235, 240, 248); stroke-opacity: 1; stroke-width: 1px;"/><path class="ygrid crisp" transform="translate(0,363.52)" d="M78,0h826" style="stroke: rgb(235, 240, 248); stroke-opacity: 1; stroke-width: 1px;"/><path class="ygrid crisp" transform="translate(0,301.77)" d="M78,0h826" style="stroke: rgb(235, 240, 248); stroke-opacity: 1; stroke-width: 1px;"/><path class="ygrid crisp" transform="translate(0,240.03)" d="M78,0h826" style="stroke: rgb(235, 240, 248); stroke-opacity: 1; stroke-width: 1px;"/><path class="ygrid crisp" transform="translate(0,178.29)" d="M78,0h826" style="stroke: rgb(235, 240, 248); stroke-opacity: 1; stroke-width: 1px;"/><path class="ygrid crisp" transform="translate(0,116.55)" d="M78,0h826" style="stroke: rgb(235, 240, 248); stroke-opacity: 1; stroke-width: 1px;"/><path class="ygrid crisp" transform="translate(0,54.81)" d="M78,0h826" style="stroke: rgb(235, 240, 248); stroke-opacity: 1; stroke-width: 1px;"/></g></g><g class="zerolinelayer"><path class="yzl zl crisp" transform="translate(0,487)" d="M78,0h826" style="stroke: rgb(0, 0, 0); stroke-opacity: 1; stroke-width: 2px;"/></g><path class="xlines-below"/><path class="ylines-below"/><g class="overlines-below"/><g class="xaxislayer-below"/><g class="yaxislayer-below"/><g class="overaxes-below"/><g class="plot" transform="translate(78,50)" clip-path="url(#clip65eed7xyplot)"><g class="scatterlayer mlayer"><g class="trace scatter trace8cb80d" style="stroke-miterlimit: 2; opacity: 1;"><g class="fills"/><g class="errorbars"/><g class="lines"><path class="js-line" d="M0,437L3.69,437L4.92,423.35L6.15,421.09L7.38,410.66L8.6,413.06L9.83,403.02L11.06,415.16L12.29,410.19L13.52,401.76L14.75,421.75L15.98,437L17.21,437L145.04,437L146.27,434.78L147.5,425.95L148.73,432.72L149.96,432.25L151.19,437L266.73,437L267.96,429.55L269.19,437L270.42,437L406.85,437L408.08,430.18L409.31,437L410.54,437L433.9,437L435.13,435.47L437.58,429.42L438.81,428.05L440.04,428.3L441.27,422.65L442.5,437L443.73,437L453.56,437L454.79,419.06L457.25,415.71L458.48,427.04L459.71,437L460.94,437L503.96,437L505.19,425.77L506.42,426.56L507.65,426.42L508.88,437L510.1,437L518.71,437L519.94,432.48L521.17,437L522.4,428.84L523.63,437L524.85,437L527.31,437L528.54,420.05L529.77,407.29L531,403.74L532.23,411.45L533.46,413.06L534.69,416.36L535.92,415.45L537.15,414.63L538.38,420.48L539.6,417.29L540.83,421.65L542.06,423.65L543.29,423.25L544.52,420.36L545.75,433.38L546.98,434.31L548.21,432.43L549.44,431.85L550.67,437L574.02,437L575.25,418.76L576.48,416.63L577.71,420.6L578.94,421.12L580.17,418.87L581.4,422.81L582.63,416.41L583.85,413.7L585.08,415.04L586.31,419.8L587.54,419.93L588.77,423.6L590,419.76L591.23,425.53L592.46,424.91L593.69,424.69L594.92,425.53L597.38,427.55L598.6,425.04L601.06,417.03L602.29,426.42L603.52,437L604.75,437L623.19,437L624.42,430.3L626.88,437L628.1,437L751.02,437L752.25,433.38L753.48,424.75L754.71,432.32L755.94,420.88L757.17,428L759.63,419.03L760.85,421.78L762.08,413.66L763.31,431.96L764.54,437L765.77,437L826,437" style="vector-effect: non-scaling-stroke; fill: none; stroke: rgb(214, 39, 40); stroke-opacity: 1; stroke-width: 2px; opacity: 1;"/></g><g class="points"/><g class="text"/></g><g class="trace scatter trace69cad0" style="stroke-miterlimit: 2; opacity: 1;"><g class="fills"/><g class="errorbars"/><g class="lines"><path class="js-line" d="M0,437L33.19,437L34.42,435.99L35.65,428.22L36.88,437L38.1,437L39.33,425.35L40.56,425.63L41.79,437L45.48,437L46.71,417.85L47.94,437L49.17,437L51.63,437L52.85,383.97L54.08,437L55.31,437L63.92,437L65.15,413.28L66.38,437L67.6,437L70.06,437L71.29,411.23L72.52,437L73.75,437L149.96,437L151.19,432.76L152.42,431.05L153.65,437L154.88,417.42L156.1,428.51L157.33,437L158.56,399.2L159.79,437L161.02,391.83L162.25,382.27L163.48,437L164.71,371.75L165.94,437L167.17,361.1L168.4,437L169.63,437L170.85,355.54L172.08,362.25L173.31,353.46L174.54,352.18L175.77,437L177,365.65L178.23,365.66L179.46,353.35L180.69,437L181.92,437L183.15,366.21L185.6,359.44L186.83,363.16L188.06,437L189.29,372.27L190.52,377.32L191.75,437L194.21,437L195.44,407.89L196.67,416.27L197.9,437L267.96,437L269.19,428.31L270.42,423.49L271.65,437L274.1,404.51L275.33,437L276.56,391.58L277.79,437L279.02,384.92L280.25,376.44L281.48,437L282.71,371.78L283.94,437L285.17,365.29L286.4,437L287.63,437L288.85,352.26L290.08,359.96L291.31,392.27L292.54,356.86L293.77,437L295,359.73L296.23,367.41L297.46,437L298.69,379.7L299.92,437L301.15,381.91L302.38,380.68L303.6,437L304.83,437L306.06,437L307.29,389.81L309.75,417.6L310.98,417.06L312.21,437L313.44,415.51L314.67,414.58L315.9,437L629.33,437L630.56,400.38L631.79,437L633.02,394.17L634.25,395.83L635.48,437L636.71,374.51L637.94,437L639.17,372.69L640.4,356.11L641.63,437L642.85,360.99L644.08,351.65L645.31,384.85L646.54,347.96L647.77,437L649,346.24L650.23,348.01L651.46,364.66L652.69,437L653.92,437L655.15,360.01L656.38,362.43L657.6,437L658.83,366.65L660.06,437L661.29,372.62L662.52,437L663.75,378.25L664.98,437L666.21,437L667.44,405.94L668.67,437L669.9,437L826,437" style="vector-effect: non-scaling-stroke; fill: none; stroke: rgb(255, 127, 14); stroke-opacity: 1; stroke-width: 2px; opacity: 1;"/></g><g class="points"/><g class="text"/></g><g class="trace scatter tracedf4109" style="stroke-miterlimit: 2; opacity: 1;"><g class="fills"/><g class="errorbars"/><g class="lines"><path class="js-line" d="M0,308.2L3.69,319.36L4.92,326.28L15.98,326.3L17.21,331.87L28.27,367.15L29.5,368.37L31.96,374.17L33.19,376.52L34.42,385.37L35.65,385.37L36.88,385.37L38.1,383.84L40.56,382.95L41.79,382.95L46.71,370.12L47.94,370.12L51.63,348.19L52.85,337.01L54.08,337.01L55.31,321.03L59,285.04L60.23,279.58L63.92,271.62L65.15,271.6L66.38,276.44L67.6,271.87L74.98,221.87L76.21,213.3L81.13,188.73L82.35,184.77L84.81,179.65L86.04,178.86L87.27,178.94L88.5,180.83L89.73,183.54L90.96,188.14L94.65,200.29L95.88,206.68L99.56,223.87L100.79,227.48L103.25,235.8L104.48,242.15L108.17,259.21L109.4,264.93L114.31,289.75L115.54,294.54L120.46,315.57L121.69,320.52L125.38,333.75L126.6,336.32L129.06,343.4L130.29,347.75L136.44,362.81L137.67,365.08L142.58,377.64L143.81,379.53L146.27,384.81L147.5,385.37L153.65,385.37L154.88,384.38L156.1,384.38L157.33,380.67L158.56,374.19L159.79,374.19L161.02,364.31L162.25,364.31L163.48,364.31L164.71,350.58L165.94,350.58L167.17,334.18L168.4,334.18L169.63,315.6L170.85,296.98L172.08,296.98L175.77,296.98L177,277.75L180.69,277.75L181.92,259.91L183.15,241.81L184.38,241.81L188.06,241.81L189.29,225.79L191.75,225.79L192.98,212.6L195.44,191.56L196.67,191.56L197.9,191.56L199.13,188.29L202.81,180.19L204.04,178.86L206.5,179.5L207.73,185.55L211.42,197.14L212.65,202.62L216.33,218.7L217.56,223.73L224.94,253.78L226.17,258.06L229.85,271.89L231.08,280.06L234.77,294.55L236,299.85L239.69,310.4L240.92,314.45L243.38,321.41L244.6,326.17L248.29,336.23L249.52,339.49L253.21,350.46L254.44,354.81L260.58,372.89L261.81,376.1L266.73,382.99L267.96,385.02L271.65,385.37L272.88,380.64L275.33,380.64L276.56,371.76L277.79,371.76L279.02,359.68L281.48,359.68L282.71,345.89L283.94,345.89L285.17,330.68L286.4,330.68L287.63,313.08L288.85,294.38L290.08,294.38L291.31,294.38L292.54,285.32L293.77,285.32L295,266.58L297.46,266.58L298.69,250.96L299.92,250.96L301.15,239.14L303.6,239.14L304.83,224.47L307.29,196.21L308.52,196.21L312.21,196.21L313.44,192.47L315.9,192.47L317.13,187.22L319.58,180.78L320.81,178.86L322.04,179.54L323.27,178.95L324.5,180.33L325.73,183.06L331.88,201.23L333.1,205.52L341.71,230.84L342.94,235.51L354,281.82L355.23,284.77L369.98,315.04L371.21,316.99L372.44,319.61L373.67,326.66L377.35,333.36L378.58,337.21L381.04,342.74L382.27,343.87L385.96,344.36L387.19,343.59L389.65,341.2L390.88,339.12L395.79,327.55L397.02,323.04L400.71,299.93L401.94,297.01L403.17,294.74L404.4,296.85L408.08,301.54L409.31,316.39L410.54,312.06L411.77,303.91L414.23,274.03L415.46,256.4L417.92,230.93L419.15,226.27L422.83,215.43L424.06,212.53L426.52,206.68L427.75,201.13L431.44,183.57L432.67,180.74L436.35,178.86L437.58,178.86L442.5,178.86L443.73,184.27L448.65,202.23L449.88,213.06L452.33,225.36L453.56,231.38L454.79,235.56L456.02,235.56L458.48,235.56L459.71,237.82L472,287.04L473.23,290.18L481.83,311.48L483.06,319.76L487.98,338.6L489.21,345.6L492.9,357.2L494.13,361.86L499.04,376.51L500.27,377.87L501.5,378.7L502.73,381.19L505.19,385.37L506.42,385.37L508.88,385.37L510.1,384.4L512.56,377.19L513.79,370.67L518.71,344.29L519.94,341.96L524.85,341.32L526.08,340.57L528.54,335.05L529.77,329.82L534.69,303.89L535.92,299.83L545.75,277.58L546.98,277.58L550.67,277.58L551.9,278.52L554.35,280.89L555.58,281.59L556.81,291.16L558.04,291.53L560.5,296.04L561.73,299.39L566.65,314.68L567.88,319.25L570.33,327.28L571.56,331.79L574.02,340.75L575.25,346.51L603.52,346.51L604.75,351.49L614.58,375.28L615.81,377.63L618.27,380.43L619.5,381.03L621.96,381.76L623.19,382.71L624.42,385.37L625.65,385.37L626.88,385.37L628.1,383.51L630.56,373.37L631.79,373.37L633.02,364.76L634.25,364.76L635.48,364.76L636.71,352.22L637.94,352.22L639.17,336.46L641.63,336.46L642.85,320.84L645.31,320.84L646.54,313.83L647.77,313.83L649,292.41L652.69,292.41L653.92,276.6L655.15,256.9L656.38,256.9L657.6,256.9L658.83,240.46L660.06,240.46L661.29,223.15L662.52,223.15L663.75,209.08L664.98,209.08L666.21,196.77L667.44,187.3L668.67,187.3L671.13,180.69L672.35,178.86L673.58,179.03L674.81,180.47L677.27,185.39L678.5,189.01L687.1,212.67L688.33,217.2L699.4,256.13L700.63,260.1L704.31,280.95L705.54,285.53L710.46,302.92L711.69,306.51L715.38,315.79L716.6,318.22L717.83,320.49L719.06,326.07L732.58,358.59L733.81,360.44L741.19,373.83L742.42,374.15L743.65,374.76L744.88,373.84L746.1,373.66L747.33,374.39L753.48,385.37L754.71,385.37L764.54,385.37L765.77,379.32L768.23,349.87L769.46,330.42L774.38,268.13L775.6,256.67L776.83,250.58L778.06,249.87L780.52,239.06L781.75,229.93L785.44,196.89L786.67,189.55L789.13,181.87L790.35,179.86L791.58,178.86L792.81,179.66L795.27,182.74L796.5,185.86L810.02,232.08L811.25,235.85L819.85,273.96L821.08,284.57L826,308.2" style="vector-effect: non-scaling-stroke; fill: none; stroke: rgb(44, 160, 44); stroke-opacity: 1; stroke-width: 2px; opacity: 1;"/></g><g class="points"/><g class="text"/></g><g class="trace scatter traceb8f415" style="stroke-miterlimit: 2; opacity: 1;"><g class="fills"/><g class="errorbars"/><g class="lines"><path class="js-line" d="M0,202.21L6.15,208.43L7.38,208.89L9.83,209.81L11.06,209.01L14.75,206.62L15.98,203.93L19.67,195.86L20.9,191.06L25.81,173.92L27.04,171.16L29.5,165.63L30.73,170.72L35.65,193.68L36.88,201.37L40.56,220.07L41.79,223.37L50.4,246.64L51.63,248.23L54.08,251.4L55.31,250.75L60.23,248.92L61.46,249.06L63.92,249.34L65.15,244.28L68.83,229.1L70.06,217.52L79.9,127.21L81.13,122.58L83.58,113.32L84.81,111.6L88.5,106.46L89.73,108.32L93.42,113.92L94.65,126.02L103.25,210.46L104.48,214.98L108.17,228.52L109.4,227.88L118,224.01L119.23,225.64L122.92,230.54L124.15,230.56L130.29,229.94L131.52,229.61L132.75,229.27L133.98,229.94L138.9,233.4L140.13,234.84L146.27,243.1L147.5,244.89L153.65,260.26L154.88,262.38L157.33,266.64L158.56,266.05L162.25,264.28L163.48,262.25L167.17,256.16L168.4,255.98L172.08,255.44L173.31,250.9L177,237.26L178.23,237.02L181.92,236.28L183.15,232.97L186.83,223.03L188.06,217.17L196.67,173.46L197.9,165.42L202.81,137.05L204.04,132.81L206.5,124.32L207.73,125.05L211.42,127.23L212.65,136.72L216.33,165.2L217.56,167.17L223.71,175.97L224.94,177.4L227.4,180.86L228.63,182.89L236,193.93L237.23,194.11L240.92,194.64L242.15,195.63L245.83,198.58L247.06,197.01L250.75,192.32L251.98,192.08L255.67,191.35L256.9,192.87L263.04,201.6L264.27,203.68L265.5,205.76L266.73,210.81L275.33,245.23L276.56,247.57L280.25,254.58L281.48,254.81L290.08,257.04L291.31,255.91L296.23,250.62L297.46,248.71L299.92,244.89L301.15,244.9L304.83,244.95L306.06,241.96L310.98,228.3L312.21,223.58L314.67,214.16L315.9,202.88L320.81,164.14L322.04,159.22L324.5,149.36L325.73,148.81L329.42,147.16L330.65,149.53L334.33,156.64L335.56,161.87L339.25,177.58L340.48,176.37L349.08,167.8L350.31,168.08L354,168.91L355.23,170.47L360.15,175.81L361.38,176.48L363.83,177.83L365.06,176.68L369.98,173.04L371.21,172.85L373.67,172.46L374.9,174.85L381.04,188.31L382.27,191.46L384.73,199.63L385.96,204.64L390.88,222.02L392.1,225.69L393.33,229.36L394.56,228.3L398.25,225.11L399.48,222.9L403.17,216.26L404.4,219.43L408.08,228.92L409.31,227.81L417.92,219.64L419.15,215.48L422.83,202.98L424.06,194.84L428.98,157.79L430.21,145.15L437.58,74.67L438.81,70.51L442.5,58.03L443.73,57.66L447.42,56.54L448.65,57.39L457.25,63.15L458.48,61L462.17,54.57L463.4,55.31L467.08,57.52L468.31,55.61L472,49.87L473.23,50.5L476.92,52.38L478.15,50.21L481.83,43.7L483.06,38.52L486.75,23L487.98,24.53L492.9,29.98L494.13,30.84L496.58,32.55L497.81,36.25L502.73,53.24L503.96,59.13L511.33,92.63L512.56,96.33L517.48,109.06L518.71,110.72L521.17,114.05L522.4,117.79L527.31,134.12L528.54,139.24L532.23,151.52L533.46,153.56L537.15,158.81L538.38,159.97L540.83,162.29L542.06,155.41L551.9,104.46L553.13,100.51L556.81,90.7L558.04,88.8L561.73,84.39L562.96,83.8L565.42,82.62L566.65,84.63L570.33,90.64L571.56,96.81L577.71,124.94L578.94,129.75L580.17,134.55L581.4,136.04L585.08,140.53L586.31,140.58L594.92,140.77L596.15,137.47L599.83,127.55L601.06,121.98L604.75,105.27L605.98,95.84L609.67,67.55L610.9,68.37L614.58,70.82L615.81,74.52L619.5,85.6L620.73,92.92L629.33,147.8L630.56,150.51L635.48,159.62L636.71,160.62L639.17,162.62L640.4,164.69L649,180.39L650.23,179.67L658.83,174.61L660.06,168.25L663.75,149.17L664.98,137.47L671.13,84.8L672.35,76.03L674.81,63.74L676.04,60.23L678.5,53.2L679.73,53L683.42,52.41L684.65,53.08L688.33,55.09L689.56,54.6L693.25,53.15L694.48,57.07L703.08,82.2L704.31,85.78L708,96.52L709.23,95.73L712.92,93.35L714.15,94.03L717.83,96.08L719.06,89.88L725.21,62.14L726.44,57.57L727.67,53.01L728.9,55.44L732.58,62.72L733.81,67.07L737.5,80.09L738.73,87.86L743.65,122.83L744.88,134.49L749.79,176.05L751.02,185.17L753.48,198.72L754.71,203.15L758.4,214.69L759.63,217.36L762.08,222.7L763.31,222.99L767,223.84L768.23,222.55L776.83,213.31L778.06,206.54L781.75,186.24L782.98,173.79L787.9,127.89L789.13,119.35L792.81,97.74L794.04,93.21L796.5,84.17L797.73,84.73L801.42,86.4L802.65,88.43L810.02,99.17L811.25,100.72L816.17,114.01L817.4,115.06L821.08,118.23L822.31,117.6L826,115.7" style="vector-effect: non-scaling-stroke; fill: none; stroke: rgb(188, 189, 34); stroke-opacity: 1; stroke-width: 2px; opacity: 1;"/></g><g class="points"/><g class="text"/></g><g class="trace scatter traceffc4d2" style="stroke-miterlimit: 2; opacity: 1;"><g class="fills"/><g class="errorbars"/><g class="lines"><path class="js-line" d="M0,437L35.65,437L36.88,430.57L39.33,437L40.56,437L41.79,422.35L43.02,423.79L44.25,423.3L45.48,403.44L46.71,437L47.94,411.11L49.17,407.44L50.4,400.11L51.63,389.96L52.85,437L54.08,369.68L55.31,377.01L56.54,384.73L57.77,397.73L60.23,423.15L61.46,425.83L62.69,428.49L63.92,436.93L65.15,437L66.38,417.79L68.83,398.86L70.06,391.66L71.29,420.56L72.52,397.99L73.75,397.42L74.98,400.92L77.44,410.27L78.67,412.09L83.58,427.41L84.81,433.66L86.04,437L87.27,437L152.42,437L153.65,432.83L154.88,437L156.1,421.39L157.33,409.72L158.56,437L159.79,395.38L161.02,437L162.25,437L163.48,360.94L164.71,437L165.94,367.95L167.17,437L168.4,358.77L169.63,358.61L170.85,437L174.54,437L175.77,356L177,437L178.23,437L179.46,437L180.69,361.9L181.92,360.81L183.15,437L186.83,437L188.06,369.51L189.29,437L190.52,437L191.75,381.49L192.98,387.9L194.21,397.49L195.44,437L196.67,437L197.9,423.23L199.13,425.18L200.35,424.77L201.58,426.95L202.81,431.4L204.04,437L205.27,437L270.42,437L271.65,417.06L272.88,437L274.1,437L275.33,399.64L276.56,437L277.79,386.12L279.02,437L280.25,437L281.48,360.36L282.71,437L283.94,372.96L285.17,437L286.4,362.87L287.63,343.59L288.85,437L290.08,437L291.31,398.85L292.54,437L293.77,358.1L295,437L296.23,437L297.46,371.2L298.69,437L299.92,387.23L301.15,437L302.38,437L303.6,375.24L304.83,373.39L306.06,381.61L307.29,437L308.52,437L310.98,437L312.21,421.28L313.44,437L314.67,437L315.9,414.87L317.13,421L319.58,428.89L320.81,437L322.04,434.56L323.27,437L384.73,437L385.96,433.75L388.42,431.09L389.65,428.25L390.88,424.9L392.1,431.84L394.56,417.73L395.79,418.02L397.02,403.25L398.25,406.89L399.48,403.52L400.71,424.74L401.94,427.43L403.17,437L408.08,437L409.31,418.79L413,363.91L414.23,362.79L415.46,371.7L416.69,395.03L417.92,417.4L419.15,418.9L421.6,424.78L422.83,424.8L424.06,426.91L425.29,422.45L427.75,406.62L428.98,412.41L431.44,425.07L432.67,433.05L433.9,433.02L435.13,437L507.65,437L508.88,432.93L512.56,409.55L513.79,409.06L515.02,407.05L516.25,407.22L517.48,413.59L518.71,427.21L519.94,437L521.17,436.86L522.4,437L523.63,434.45L524.85,433.84L526.08,425.03L527.31,425.73L528.54,414.98L529.77,406.73L531,406.88L533.46,415.04L534.69,419.92L535.92,424.79L537.15,425.93L540.83,423.73L542.06,424.52L544.52,427.6L545.75,437L625.65,437L626.88,429.14L629.33,412.87L630.56,437L631.79,400.74L633.02,437L634.25,437L635.48,384.2L636.71,437L637.94,370.66L639.17,437L640.4,437L641.63,371.22L642.85,437L644.08,437L645.31,407.51L646.54,437L647.77,346.8L649,437L650.23,437L651.46,437L652.69,370.41L653.92,354.07L655.15,437L656.38,437L657.6,367.78L658.83,437L660.06,350L661.29,437L662.52,377.77L663.75,437L664.98,385.16L666.21,397.1L667.44,437L668.67,421.26L669.9,424.91L671.13,429.29L672.35,437L742.42,437L743.65,433.14L744.88,436.23L746.1,437L763.31,437L764.54,411.5L767,363.31L768.23,355.12L769.46,361.99L770.69,384.25L771.92,363.82L773.15,375.69L774.38,388.74L775.6,411.36L776.83,434.02L778.06,418.03L780.52,398.55L781.75,386.32L782.98,389.18L784.21,396.39L787.9,424.46L789.13,428.55L791.58,437L792.81,437L826,437" style="vector-effect: non-scaling-stroke; fill: none; stroke: rgb(227, 119, 194); stroke-opacity: 1; stroke-width: 2px; opacity: 1;"/></g><g class="points"/><g class="text"/></g><g class="trace scatter trace5feba6" style="stroke-miterlimit: 2; opacity: 1;"><g class="fills"/><g class="errorbars"/><g class="lines"><path class="js-line" d="M0,424.15L1.23,421.71L2.46,422.72L3.69,410.69L4.92,437L14.75,436.93L15.98,415.85L18.44,423.39L19.67,421.91L22.13,420.73L23.35,424.34L24.58,417.89L25.81,420.32L28.27,432.35L29.5,421.61L30.73,430.35L31.96,428.07L33.19,403.37L34.42,437L44.25,437L45.48,417.95L46.71,437L47.94,437L63.92,437L65.15,418.64L66.38,437L67.6,437L86.04,436.68L87.27,429.84L88.5,426.69L89.73,419.5L92.19,424.06L93.42,419.1L94.65,412.71L95.88,412.29L97.1,417.88L98.33,415.5L99.56,423.28L100.79,422.03L102.02,420.37L103.25,412.87L104.48,410.64L105.71,420.22L106.94,415.3L108.17,415.26L109.4,410.83L110.63,417.03L113.08,411.37L114.31,418.77L115.54,414.45L116.77,414.98L118,419.53L119.23,419.13L121.69,417.95L122.92,426.07L124.15,416.71L125.38,427.23L126.6,425.81L127.83,421.3L129.06,420.45L130.29,424.44L133.98,425.06L135.21,428.67L136.44,428.35L137.67,422.83L138.9,425.48L140.13,425.09L142.58,429.82L143.81,427.49L145.04,426.45L146.27,434.87L147.5,437L148.73,437L162.25,437L163.48,420.54L164.71,437L165.94,437L204.04,437L205.27,434.56L206.5,414.02L207.73,424.28L208.96,421.67L210.19,420.99L212.65,412.48L213.88,421.35L215.1,416.05L216.33,417.89L217.56,416.2L218.79,419.38L220.02,415.73L221.25,421.08L222.48,416.96L223.71,418.46L226.17,422.12L227.4,420.09L228.63,416.24L229.85,405.95L232.31,422.01L233.54,419.89L234.77,416.87L236,425.89L238.46,421.23L239.69,421.61L240.92,426.09L242.15,421.46L243.38,418.92L244.6,426.36L247.06,422.31L248.29,424.61L249.52,425.23L250.75,420.06L251.98,424.01L253.21,420.46L254.44,422.73L255.67,422.03L256.9,418.29L258.13,425.73L259.35,427.54L260.58,424.79L261.81,431.11L263.04,430.33L264.27,433.57L265.5,426.8L266.73,429.32L267.96,435.65L269.19,437L270.42,437L280.25,437L281.48,420.22L282.71,437L283.94,437L286.4,437L287.63,423.73L288.85,437L290.08,437L319.58,437L320.81,434.42L322.04,437L323.27,431.78L324.5,426.61L325.73,424.69L326.96,422.52L328.19,425.8L330.65,420.07L331.88,420.73L333.1,424.03L334.33,422.27L335.56,424.48L336.79,423.95L338.02,422.89L339.25,423.07L340.48,422.06L341.71,419.27L342.94,417.6L344.17,406.85L345.4,419.84L346.63,420.77L347.85,420L349.08,417.55L350.31,416.85L351.54,414.66L352.77,422.89L354,425.82L355.23,427.39L356.46,425.95L357.69,427.68L358.92,427.56L361.38,426.59L362.6,426.95L363.83,425.03L365.06,428.37L366.29,427.25L367.52,429.17L368.75,430.08L369.98,429.59L371.21,427.07L372.44,410.2L373.67,428.28L374.9,429.34L376.13,427.93L377.35,422.35L378.58,422.54L379.81,430.46L383.5,436.64L384.73,436.76L389.65,437L390.88,437L401.94,437L403.17,428.99L406.85,431.83L408.08,380.56L409.31,437L410.54,437L441.27,437L442.5,416.44L443.73,420.84L444.96,421.24L446.19,420.94L447.42,416.72L448.65,395.85L449.88,418.64L451.1,408.62L452.33,414.11L453.56,421.14L454.79,437L457.25,437L458.48,428.4L459.71,418.04L460.94,416.43L462.17,418.2L463.4,416.78L464.63,416.55L465.85,418.05L467.08,415.31L468.31,420.61L469.54,423.19L470.77,419.8L472,425.07L473.23,426.34L475.69,422.67L476.92,425.78L478.15,427.71L479.38,425.3L480.6,426.06L481.83,405.55L483.06,420.04L484.29,415.33L486.75,422.51L487.98,410.42L489.21,423.37L490.44,425.54L491.67,417.99L492.9,419.29L494.13,423.27L495.35,422.31L496.58,424.3L497.81,422.45L499.04,431.85L500.27,433.85L501.5,427.51L502.73,428.19L503.96,429.93L505.19,437L549.44,437L550.67,433.4L551.9,431.63L553.13,433.4L554.35,434.33L555.58,400.62L556.81,435.58L558.04,429.24L559.27,427.65L560.5,424.26L561.73,424.4L562.96,421.3L564.19,423.02L565.42,421.19L566.65,419.62L567.88,424.63L569.1,418.86L570.33,419.86L571.56,423.68L572.79,416.28L574.02,415.11L575.25,437L602.29,437L603.52,418.09L605.98,428.5L607.21,428.12L608.44,419.16L609.67,424.62L610.9,430.16L612.13,426.69L613.35,423.3L614.58,428.07L619.5,436.36L620.73,434.86L621.96,433.38L623.19,426.89L624.42,437L625.65,437L658.83,437L660.06,424.26L661.29,437L662.52,437L672.35,436.33L673.58,431.55L677.27,423.25L678.5,424.86L679.73,422.91L680.96,424.36L682.19,424.93L683.42,426.33L687.1,419.8L688.33,419.86L689.56,417.04L690.79,422.26L692.02,424.07L693.25,418.62L694.48,420.85L695.71,415.83L696.94,423.21L698.17,423.32L699.4,421.91L700.63,408.42L703.08,413.06L704.31,419.59L706.77,416.29L708,423.87L711.69,422.71L712.92,427.2L714.15,425.83L715.38,427.76L716.6,428.36L717.83,415.79L719.06,425.49L720.29,424L721.52,424.89L722.75,427.27L723.98,423.16L725.21,425.74L726.44,426.46L727.67,426.11L730.13,425.52L731.35,428.99L732.58,429.98L733.81,428.99L735.04,428.18L736.27,431.43L737.5,426.92L738.73,429.39L739.96,426.19L741.19,435.81L742.42,434.67L743.65,437L744.88,437L746.1,434.2L747.33,427.7L748.56,430.85L749.79,424.1L751.02,428.59L753.48,437L754.71,437L790.35,437L791.58,433.95L794.04,430.25L795.27,425.12L796.5,420.28L797.73,422.43L798.96,422.22L800.19,416.89L801.42,419.3L802.65,423.95L803.88,420.44L805.1,422.21L806.33,417.57L807.56,424.66L808.79,421.41L810.02,422.68L811.25,414.67L812.48,416.16L813.71,416.48L814.94,411.42L816.17,418.56L817.4,416.08L818.63,420.84L819.85,396.67L821.08,415.93L822.31,410.54L824.77,417.83L826,423.34" style="vector-effect: non-scaling-stroke; fill: none; stroke: rgb(23, 190, 207); stroke-opacity: 1; stroke-width: 2px; opacity: 1;"/></g><g class="points"/><g class="text"/></g></g></g><g class="overplot"/><path class="xlines-above crisp" d="M0,0" style="fill: none;"/><path class="ylines-above crisp" d="M0,0" style="fill: none;"/><g class="overlines-above"/><g class="xaxislayer-above"><g class="xtick"><text text-anchor="middle" x="0" y="530" transform="translate(78,0)" style="font-family: 'Open Sans', verdana, arial, sans-serif; font-size: 19px; fill: rgb(42, 63, 95); fill-opacity: 1; white-space: pre; opacity: 1;"><tspan class="line" dy="0em" x="0" y="530">Apr 30</tspan><tspan class="line" dy="1.3em" x="0" y="530">2019</tspan></text></g><g class="xtick"><text text-anchor="middle" x="0" y="530" style="font-family: 'Open Sans', verdana, arial, sans-serif; font-size: 19px; fill: rgb(42, 63, 95); fill-opacity: 1; white-space: pre; opacity: 1;" transform="translate(196,0)">May 1</text></g><g class="xtick"><text text-anchor="middle" x="0" y="530" style="font-family: 'Open Sans', verdana, arial, sans-serif; font-size: 19px; fill: rgb(42, 63, 95); fill-opacity: 1; white-space: pre; opacity: 1;" transform="translate(314,0)">May 2</text></g><g class="xtick"><text text-anchor="middle" x="0" y="530" style="font-family: 'Open Sans', verdana, arial, sans-serif; font-size: 19px; fill: rgb(42, 63, 95); fill-opacity: 1; white-space: pre; opacity: 1;" transform="translate(432,0)">May 3</text></g><g class="xtick"><text text-anchor="middle" x="0" y="530" style="font-family: 'Open Sans', verdana, arial, sans-serif; font-size: 19px; fill: rgb(42, 63, 95); fill-opacity: 1; white-space: pre; opacity: 1;" transform="translate(550,0)">May 4</text></g><g class="xtick"><text text-anchor="middle" x="0" y="530" style="font-family: 'Open Sans', verdana, arial, sans-serif; font-size: 19px; fill: rgb(42, 63, 95); fill-opacity: 1; white-space: pre; opacity: 1;" transform="translate(668,0)">May 5</text></g><g class="xtick"><text text-anchor="middle" x="0" y="530" style="font-family: 'Open Sans', verdana, arial, sans-serif; font-size: 19px; fill: rgb(42, 63, 95); fill-opacity: 1; white-space: pre; opacity: 1;" transform="translate(786,0)">May 6</text></g><g class="xtick"><text text-anchor="middle" x="0" y="530" style="font-family: 'Open Sans', verdana, arial, sans-serif; font-size: 19px; fill: rgb(42, 63, 95); fill-opacity: 1; white-space: pre; opacity: 1;" transform="translate(904,0)">May 7</text></g></g><g class="yaxislayer-above"><g class="ytick"><text text-anchor="end" x="77" y="6.6499999999999995" transform="translate(0,487)" style="font-family: 'Open Sans', verdana, arial, sans-serif; font-size: 19px; fill: rgb(42, 63, 95); fill-opacity: 1; white-space: pre; opacity: 1;">0</text></g><g class="ytick"><text text-anchor="end" x="77" y="6.6499999999999995" style="font-family: 'Open Sans', verdana, arial, sans-serif; font-size: 19px; fill: rgb(42, 63, 95); fill-opacity: 1; white-space: pre; opacity: 1;" transform="translate(0,425.26)">50</text></g><g class="ytick"><text text-anchor="end" x="77" y="6.6499999999999995" style="font-family: 'Open Sans', verdana, arial, sans-serif; font-size: 19px; fill: rgb(42, 63, 95); fill-opacity: 1; white-space: pre; opacity: 1;" transform="translate(0,363.52)">100</text></g><g class="ytick"><text text-anchor="end" x="77" y="6.6499999999999995" style="font-family: 'Open Sans', verdana, arial, sans-serif; font-size: 19px; fill: rgb(42, 63, 95); fill-opacity: 1; white-space: pre; opacity: 1;" transform="translate(0,301.77)">150</text></g><g class="ytick"><text text-anchor="end" x="77" y="6.6499999999999995" style="font-family: 'Open Sans', verdana, arial, sans-serif; font-size: 19px; fill: rgb(42, 63, 95); fill-opacity: 1; white-space: pre; opacity: 1;" transform="translate(0,240.03)">200</text></g><g class="ytick"><text text-anchor="end" x="77" y="6.6499999999999995" style="font-family: 'Open Sans', verdana, arial, sans-serif; font-size: 19px; fill: rgb(42, 63, 95); fill-opacity: 1; white-space: pre; opacity: 1;" transform="translate(0,178.29)">250</text></g><g class="ytick"><text text-anchor="end" x="77" y="6.6499999999999995" style="font-family: 'Open Sans', verdana, arial, sans-serif; font-size: 19px; fill: rgb(42, 63, 95); fill-opacity: 1; white-space: pre; opacity: 1;" transform="translate(0,116.55)">300</text></g><g class="ytick"><text text-anchor="end" x="77" y="6.6499999999999995" style="font-family: 'Open Sans', verdana, arial, sans-serif; font-size: 19px; fill: rgb(42, 63, 95); fill-opacity: 1; white-space: pre; opacity: 1;" transform="translate(0,54.81)">350</text></g></g><g class="overaxes-above"/></g></g><g class="polarlayer"/><g class="ternarylayer"/><g class="geolayer"/><g class="funnelarealayer"/><g class="pielayer"/><g class="iciclelayer"/><g class="treemaplayer"/><g class="sunburstlayer"/><g class="glimages"/><defs id="topdefs-65eed7"><g class="clips"/><clipPath id="legend65eed7"><rect width="169" height="207" x="0" y="0"/></clipPath></defs><g class="layer-above"><g class="imagelayer"/><g class="shapelayer"/></g><g class="infolayer"><g class="legend" pointer-events="all" transform="translate(920.52,50)"><rect class="bg" shape-rendering="crispEdges" style="stroke: rgb(68, 68, 68); stroke-opacity: 1; fill: rgb(255, 255, 255); fill-opacity: 1; stroke-width: 0px;" width="169" height="207" x="0" y="0"/><g class="scrollbox" transform="" clip-path="url(#legend65eed7)"><text class="legendtitletext" text-anchor="start" x="2" y="29.900000000000002" style="font-family: 'Open Sans', verdana, arial, sans-serif; font-size: 23px; fill: rgb(42, 63, 95); fill-opacity: 1; white-space: pre;">variable</text><g class="groups" transform=""><g class="traces" transform="translate(0,48.75)" style="opacity: 1;"><text class="legendtext" text-anchor="start" x="40" y="7.409999999999999" style="font-family: 'Open Sans', verdana, arial, sans-serif; font-size: 19px; fill: rgb(42, 63, 95); fill-opacity: 1; white-space: pre;">grid_kw</text><g class="layers" style="opacity: 1;"><g class="legendfill"/><g class="legendlines"><path class="js-line" d="M5,0h30" style="fill: none; stroke: rgb(214, 39, 40); stroke-opacity: 1; stroke-width: 2px;"/></g><g class="legendsymbols"><g class="legendpoints"/></g></g><rect class="legendtoggle" x="0" y="-13.85" width="163.015625" height="27.7" style="fill: rgb(0, 0, 0); fill-opacity: 0;"/></g><g class="traces" transform="translate(0,76.45)" style="opacity: 1;"><text class="legendtext" text-anchor="start" x="40" y="7.409999999999999" style="font-family: 'Open Sans', verdana, arial, sans-serif; font-size: 19px; fill: rgb(42, 63, 95); fill-opacity: 1; white-space: pre;">battery_kWh</text><g class="layers" style="opacity: 1;"><g class="legendfill"/><g class="legendlines"><path class="js-line" d="M5,0h30" style="fill: none; stroke: rgb(44, 160, 44); stroke-opacity: 1; stroke-width: 2px;"/></g><g class="legendsymbols"><g class="legendpoints"/></g></g><rect class="legendtoggle" x="0" y="-13.85" width="163.015625" height="27.7" style="fill: rgb(0, 0, 0); fill-opacity: 0;"/></g></g><g class="groups" transform=""><g class="traces" transform="translate(0,104.14999999999999)" style="opacity: 1;"><text class="legendtext" text-anchor="start" x="40" y="7.409999999999999" style="font-family: 'Open Sans', verdana, arial, sans-serif; font-size: 19px; fill: rgb(42, 63, 95); fill-opacity: 1; white-space: pre;">pv_curtailed</text><g class="layers" style="opacity: 1;"><g class="legendfill"/><g class="legendlines"><path class="js-line" d="M5,0h30" style="fill: none; stroke: rgb(255, 127, 14); stroke-opacity: 1; stroke-width: 2px;"/></g><g class="legendsymbols"><g class="legendpoints"/></g></g><rect class="legendtoggle" x="0" y="-13.85" width="163.015625" height="27.7" style="fill: rgb(0, 0, 0); fill-opacity: 0;"/></g></g><g class="groups" transform=""><g class="traces" transform="translate(0,131.85)" style="opacity: 1;"><text class="legendtext" text-anchor="start" x="40" y="7.409999999999999" style="font-family: 'Open Sans', verdana, arial, sans-serif; font-size: 19px; fill: rgb(42, 63, 95); fill-opacity: 1; white-space: pre;">co2_g_kwh</text><g class="layers" style="opacity: 1;"><g class="legendfill"/><g class="legendlines"><path class="js-line" d="M5,0h30" style="fill: none; stroke: rgb(188, 189, 34); stroke-opacity: 1; stroke-width: 2px;"/></g><g class="legendsymbols"><g class="legendpoints"/></g></g><rect class="legendtoggle" x="0" y="-13.85" width="163.015625" height="27.7" style="fill: rgb(0, 0, 0); fill-opacity: 0;"/></g></g><g class="groups" transform=""><g class="traces" transform="translate(0,159.54999999999998)" style="opacity: 1;"><text class="legendtext" text-anchor="start" x="40" y="7.409999999999999" style="font-family: 'Open Sans', verdana, arial, sans-serif; font-size: 19px; fill: rgb(42, 63, 95); fill-opacity: 1; white-space: pre;">batteryin</text><g class="layers" style="opacity: 1;"><g class="legendfill"/><g class="legendlines"><path class="js-line" d="M5,0h30" style="fill: none; stroke: rgb(227, 119, 194); stroke-opacity: 1; stroke-width: 2px;"/></g><g class="legendsymbols"><g class="legendpoints"/></g></g><rect class="legendtoggle" x="0" y="-13.85" width="163.015625" height="27.7" style="fill: rgb(0, 0, 0); fill-opacity: 0;"/></g></g><g class="groups" transform=""><g class="traces" transform="translate(0,187.25)" style="opacity: 1;"><text class="legendtext" text-anchor="start" x="40" y="7.409999999999999" style="font-family: 'Open Sans', verdana, arial, sans-serif; font-size: 19px; fill: rgb(42, 63, 95); fill-opacity: 1; white-space: pre;">batteryout</text><g class="layers" style="opacity: 1;"><g class="legendfill"/><g class="legendlines"><path class="js-line" d="M5,0h30" style="fill: none; stroke: rgb(23, 190, 207); stroke-opacity: 1; stroke-width: 2px;"/></g><g class="legendsymbols"><g class="legendpoints"/></g></g><rect class="legendtoggle" x="0" y="-13.85" width="163.015625" height="27.7" style="fill: rgb(0, 0, 0); fill-opacity: 0;"/></g></g></g><rect class="scrollbar" rx="20" ry="3" width="0" height="0" style="fill: rgb(128, 139, 164); fill-opacity: 1;" x="0" y="0"/></g><g class="g-gtitle"/><g class="g-xtitle"/><g class="g-ytitle" transform="translate(13.349609375,0)"><text class="ytitle" transform="rotate(-90,9.650000000000006,280)" x="9.650000000000006" y="280" text-anchor="middle" style="font-family: 'Open Sans', verdana, arial, sans-serif; font-size: 23px; fill: rgb(42, 63, 95); opacity: 1; font-weight: normal; white-space: pre;">Legend</text></g></g></svg>