<svg class="main-svg" xmlns="http://www.w3.org/2000/svg" xmlns:xlink="http://www.w3.org/1999/xlink" width="1100" height="600" viewBox="0 0 1100 600"><rect x="0" y="0" width="1100" height="600" style="fill: rgb(255, 255, 255); fill-opacity: 1;"/><defs id="defs-3b8472"><g class="clips"><clipPath id="clip3b8472xyplot" class="plotclip"><rect width="826" height="460"/></clipPath><clipPath class="axesclip" id="clip3b8472x"><rect x="78" y="0" width="826" height="600"/></clipPath><clipPath class="axesclip" id="clip3b8472y"><rect x="0" y="50" width="1100" height="460"/></clipPath><clipPath class="axesclip" id="clip3b8472xy"><rect x="78" y="50" width="826" height="460"/></clipPath></g><g class="gradients"/><g class="patterns"/></defs><g class="bglayer"/><g class="layer-below"><g class="imagelayer"/><g class="shapelayer"/></g><g class="cartesianlayer"><g class="subplot xy"><g class="layer-subplot"><g class="shapelayer"/><g class="imagelayer"/></g><g class="gridlayer"><g class="x"><path class="xgrid crisp" transform="translate(196,0)" d="M0,50v460" style="stroke: rgb(235, 240, 248); stroke-opacity: 1; stroke-width: 1px;"/><path class="xgrid crisp" transform="translate(314,0)" d="M0,50v460" style="stroke: rgb(235, 240, 248); stroke-opacity: 1; stroke-width: 1px;"/><path class="xgrid crisp" transform="translate(432,0)" d="M0,50v460" style="stroke: rgb(235, 240, 248); stroke-opacity: 1; stroke-width: 1px;"/><path class="xgrid crisp" transform="translate(550,0)" d="M0,50v460" style="stroke: rgb(235, 240, 248); stroke-opacity: 1; stroke-width: 1px;"/><path class="xgrid crisp" transform="translate(668,0)" d="M0,50v460" style="stroke: rgb(235, 240, 248); stroke-opacity: 1; stroke-width: 1px;"/><path class="xgrid crisp" transform="translate(786,0)" d="M0,50v460" style="stroke: rgb(235, 240, 248); stroke-opacity: 1; stroke-width: 1px;"/></g><g class="y"><path class="ygrid crisp" transform="translate(0,400.45)" d="M78,0h826" style="stroke: rgb(235, 240, 248); stroke-opacity: 1; stroke-width: 1px;"/><path class="ygrid crisp" transform="translate(0,313.91)" d="M78,0h826" style="stroke: rgb(235, 240, 248); stroke-opacity: 1; stroke-width: 1px;"/><path class="ygrid crisp" transform="translate(0,227.36)" d="M78,0h826" style="stroke: rgb(235, 240, 248); stroke-opacity: 1; stroke-width: 1px;"/><path class="ygrid crisp" transform="translate(0,140.81)" d="M78,0h826" style="stroke: rgb(235, 240, 248); stroke-opacity: 1; stroke-width: 1px;"/><path class="ygrid crisp" transform="translate(0,54.269999999999996)" d="M78,0h826" style="stroke: rgb(235, 240, 248); stroke-opacity: 1; stroke-width: 1px;"/></g></g><g class="zerolinelayer"><path class="yzl zl crisp" transform="translate(0,487)" d="M78,0h826" style="stroke: rgb(0, 0, 0); stroke-opacity: 1; stroke-width: 2px;"/></g><path class="xlines-below"/><path class="ylines-below"/><g class="overlines-below"/><g class="xaxislayer-below"/><g class="yaxislayer-below"/><g class="overaxes-below"/><g class="plot" transform="translate(78,50)" clip-path="url(#clip3b8472xyplot)"><g class="scatterlayer mlayer"><g class="trace scatter trace139cad" style="stroke-miterlimit: 2; opacity: 1;"><g class="fills"/><g class="errorbars"/><g class="lines"><path class="js-line" d="M0,430.95L1.23,429.83L2.46,431.1L3.69,430.17L4.92,432.91L6.15,429.99L7.38,431.47L8.6,426L9.83,427.48L11.06,426.7L12.29,429.16L13.52,428.06L14.75,430.64L15.98,431.28L17.21,437L28.27,437L29.5,433.27L30.73,436.96L31.96,437L33.19,436L34.42,437L47.94,437L49.17,434.33L50.4,428.28L51.63,430.1L52.85,430.16L54.08,427.99L55.31,430.82L56.54,431.03L59,429.87L60.23,430.22L61.46,437L62.69,437L63.92,437L65.15,435.91L66.38,435.42L67.6,437L153.65,437L154.88,430.02L157.33,431.96L158.56,431.25L159.79,431.52L161.02,429.01L162.25,424.08L163.48,426.85L164.71,423.97L165.94,423.05L167.17,424.58L168.4,427.74L169.63,425.83L170.85,429.81L174.54,429.08L175.77,427.12L177,427.72L178.23,425.76L179.46,427.89L180.69,427.62L181.92,426.74L183.15,427.34L184.38,428.06L185.6,426.7L186.83,427.12L188.06,428.74L189.29,432.82L190.52,433.29L191.75,433.27L192.98,431.99L194.21,437L195.44,437L220.02,437L221.25,421.49L222.48,423.88L223.71,423.83L224.94,419.5L226.17,424.38L227.4,422.98L228.63,424.2L229.85,423.81L231.08,424.76L232.31,424.46L233.54,427.09L234.77,427.16L236,431.26L237.23,429.2L238.46,431.63L239.69,429.21L240.92,431.95L242.15,430L243.38,432.92L244.6,433.28L245.83,429.7L247.06,426.79L248.29,427.12L249.52,425.59L250.75,429.59L251.98,429.85L253.21,432.61L255.67,433.25L256.9,432.2L258.13,433.61L259.35,433.17L260.58,433.74L261.81,432.41L263.04,433.9L264.27,433.6L266.73,431.56L267.96,431.46L269.19,429.67L270.42,430.09L272.88,428.87L274.1,429.34L276.56,429.88L277.79,408.32L279.02,428.97L280.25,430.4L281.48,427.55L282.71,429.16L285.17,424.08L286.4,428.97L291.31,431.33L292.54,430.78L293.77,430.07L295,427.21L296.23,425.97L297.46,427.04L299.92,428.89L301.15,426.59L302.38,423.8L303.6,423.38L304.83,423.52L306.06,426L307.29,428.29L308.52,426.87L309.75,427.7L310.98,426.47L312.21,428.48L313.44,428.5L314.67,428.35L315.9,433.54L318.35,430.24L319.58,433.33L320.81,431.33L322.04,432.1L323.27,431.51L324.5,437L341.71,437L342.94,427.99L344.17,423.97L345.4,423.03L346.63,426.41L347.85,427.17L349.08,428.29L350.31,421.68L352.77,425.13L354,429.28L356.46,430.87L357.69,429.52L361.38,432.5L362.6,431.21L365.06,431.02L366.29,429.88L367.52,430.07L368.75,431.85L369.98,433.02L371.21,430.5L373.67,433.61L374.9,432.66L377.35,434.46L378.58,433.72L379.81,434.8L381.04,433.42L382.27,434.42L383.5,433.62L384.73,433.93L385.96,437L742.42,437L743.65,431.37L744.88,431.83L746.1,433.16L748.56,432.81L749.79,421.02L751.02,420.75L752.25,425.51L753.48,424.6L754.71,426.25L755.94,427.25L757.17,425.69L759.63,429.84L760.85,428.43L762.08,428.1L763.31,429.87L765.77,428.89L767,426.26L768.23,422.67L769.46,422.52L771.92,427.65L773.15,426.48L774.38,428.43L775.6,427.4L776.83,428.91L778.06,426.33L779.29,429.25L780.52,425.88L781.75,428.67L782.98,427.44L784.21,426.97L785.44,428.88L786.67,429.17L787.9,427.89L789.13,428.68L790.35,428.13L791.58,430.12L792.81,429.63L794.04,430.97L795.27,431.15L797.73,430.06L798.96,428.78L800.19,429.05L801.42,427.17L802.65,423.02L803.88,426.08L805.1,423.74L806.33,424.37L807.56,426.86L808.79,425.99L810.02,423.89L811.25,423.93L812.48,420.94L813.71,424.51L814.94,421.75L816.17,422.51L817.4,423.5L818.63,414.46L819.85,424.98L821.08,423.97L822.31,426.86L823.54,421.29L824.77,425.77L826,437" style="vector-effect: non-scaling-stroke; fill: none; stroke: rgb(214, 39, 40); stroke-opacity: 1; stroke-width: 2px; opacity: 1;"/></g><g class="points"/><g class="text"/></g><g class="trace scatter trace364f86" style="stroke-miterlimit: 2; opacity: 1;"><g class="fills"/><g class="errorbars"/><g class="lines"><path class="js-line" d="M0,437L384.73,437L385.96,435.67L387.19,437L388.42,432.5L389.65,429.96L390.88,437L392.1,420.9L393.33,437L394.56,424.5L395.79,437L397.02,421.52L398.25,437L399.48,421.27L400.71,437L401.94,405.32L403.17,402.44L404.4,437L405.63,397.9L406.85,437L408.08,437L409.31,391.07L410.54,437L411.77,387.41L413,437L414.23,437L415.46,388.04L416.69,437L417.92,389.8L419.15,437L420.38,437L421.6,388.41L422.83,437L424.06,395.88L425.29,437L426.52,413.57L427.75,423.31L428.98,437L430.21,422.15L431.44,425.03L432.67,425.15L433.9,437L435.13,422.34L436.35,437L437.58,437L440.04,437L441.27,433.84L442.5,437L443.73,437L497.81,436.56L499.04,435.91L500.27,435.26L501.5,437L502.73,437L503.96,431.19L505.19,437L506.42,435.88L507.65,433.52L508.88,437L510.1,428.37L511.33,437L512.56,437L513.79,419.16L515.02,437L516.25,418.09L517.48,437L518.71,437L523.63,437L524.85,411.4L526.08,437L527.31,437L528.54,420.68L529.77,437L545.75,437L546.98,432.38L548.21,437L549.44,437L551.9,437L553.13,435.05L554.35,434.37L555.58,437L615.81,436.69L617.04,436.23L619.5,435.3L620.73,437L621.96,432.24L623.19,437L625.65,433.02L626.88,437L628.1,426.68L629.33,437L630.56,437L631.79,435.83L633.02,437L634.25,404.41L635.48,437L636.71,437L826,437" style="vector-effect: non-scaling-stroke; fill: none; stroke: rgb(255, 127, 14); stroke-opacity: 1; stroke-width: 2px; opacity: 1;"/></g><g class="points"/><g class="text"/></g><g class="trace scatter trace4e517b" style="stroke-miterlimit: 2; opacity: 1;"><g class="fills"/><g class="errorbars"/><g class="lines"><path class="js-line" d="M0,319.57L17.21,319.57L18.44,320.87L20.9,323.07L22.13,325.38L27.04,330.5L28.27,331.99L30.73,332.76L31.96,332.76L35.65,332.19L36.88,331.59L38.1,329.98L39.33,329.68L41.79,325.46L43.02,322.4L45.48,313.75L46.71,308.98L60.23,267.4L61.46,264.72L66.38,263.23L67.6,263.23L71.29,263.31L72.52,263.96L73.75,264.53L74.98,264.27L76.21,264.11L77.44,263.15L83.58,259.05L84.81,259.27L87.27,260.63L88.5,261.7L92.19,267.88L93.42,269.98L99.56,284.65L100.79,288.6L103.25,296.18L104.48,301.46L113.08,323.63L114.31,326.25L120.46,337.38L121.69,339.29L130.29,351.95L131.52,357.36L133.98,361.09L135.21,362.52L143.81,370.87L145.04,371.83L148.73,376.51L149.96,378.52L154.88,385.78L156.1,385.78L161.02,385.78L162.25,384.97L168.4,379.71L169.63,378.23L173.31,371.51L174.54,368.83L180.69,357.41L181.92,355.78L189.29,347.15L190.52,347.15L194.21,347.15L195.44,348.09L200.35,353.83L201.58,355.35L205.27,359.66L206.5,361.53L211.42,370.6L212.65,374.45L216.33,385.64L217.56,388.67L221.25,400.81L222.48,400.81L265.5,400.32L266.73,399.96L271.65,397.59L272.88,396.76L280.25,390.28L281.48,389.25L286.4,383.74L287.63,382.23L291.31,379.12L292.54,378.34L299.92,372.11L301.15,371.07L307.29,367.01L308.52,366.3L317.13,361.39L318.35,361.39L324.5,361.41L325.73,363.92L335.56,383.13L336.79,386.61L342.94,400.81L344.17,400.81L390.88,400.63L392.1,398.86L393.33,400.52L394.56,398.27L395.79,398.27L397.02,396.01L398.25,396.01L399.48,391.4L400.71,391.4L401.94,384.75L404.4,384.75L405.63,376.34L406.85,376.34L408.08,366.6L409.31,355.9L410.54,355.9L411.77,344.82L413,344.82L415.46,322.8L416.69,322.8L417.92,311.48L419.15,311.48L421.6,288.95L422.83,288.95L424.06,277.8L425.29,277.8L426.52,269.66L427.75,269.66L428.98,268.48L430.21,264.94L433.9,264.94L435.13,262.98L436.35,265.42L437.58,264.54L440.04,262.74L441.27,263.8L447.42,274.44L448.65,278.15L454.79,294.42L456.02,297.25L459.71,307.05L460.94,311.15L469.54,336.26L470.77,338.44L476.92,349.12L478.15,350.84L481.83,354.6L483.06,356.35L486.75,364.43L487.98,366.09L501.5,379.16L502.73,379.77L503.96,380.32L505.19,381.75L508.88,381.39L510.1,380.24L511.33,380.24L512.56,377.42L513.79,374.13L515.02,374.13L516.25,369.6L517.48,369.6L524.85,335.63L526.08,335.63L528.54,325.73L529.77,325.73L534.69,317.98L535.92,313.34L543.29,275.46L544.52,271.39L546.98,267.21L548.21,267.21L549.44,266.85L550.67,267.33L556.81,273.8L558.04,274.02L560.5,275.54L561.73,277.38L564.19,281.26L565.42,284.09L567.88,289.85L569.1,292.21L586.31,344.51L587.54,349.3L590,355.7L591.23,357.5L593.69,361.65L594.92,363.95L601.06,371.77L602.29,373.69L609.67,386.49L610.9,387.54L623.19,400.81L624.42,400.8L626.88,400.8L628.1,399.26L629.33,399.26L630.56,396.46L633.02,387.45L634.25,381.33L635.48,381.33L636.71,373.56L640.4,356.83L641.63,352.25L645.31,336.98L646.54,330.5L652.69,293.78L653.92,284.57L656.38,267.08L657.6,260.97L658.83,257.2L660.06,256.07L661.29,256.07L662.52,257.49L666.21,260.62L667.44,260.34L671.13,259.22L672.35,259.96L676.04,262.55L677.27,264.7L679.73,268.53L680.96,270.94L687.1,285.99L688.33,288.19L700.63,325.74L701.85,329.29L704.31,335.49L705.54,338L712.92,350.93L714.15,352.38L720.29,359.77L721.52,362.23L736.27,382.3L737.5,383.23L739.96,387.92L741.19,390.07L743.65,392.73L744.88,392.73L749.79,392.73L751.02,391.2L757.17,385.59L758.4,384.61L770.69,375.28L771.92,374.01L774.38,370.97L775.6,368.75L779.29,359.17L780.52,355.47L786.67,334.18L787.9,329.21L790.35,321.99L791.58,320.25L794.04,319.66L795.27,319.61L826,319.57" style="vector-effect: non-scaling-stroke; fill: none; stroke: rgb(44, 160, 44); stroke-opacity: 1; stroke-width: 2px; opacity: 1;"/></g><g class="points"/><g class="text"/></g><g class="trace scatter traceef8219" style="stroke-miterlimit: 2; opacity: 1;"><g class="fills"/><g class="errorbars"/><g class="lines"><path class="js-line" d="M0,155.17L8.6,130.96L9.83,127.17L19.67,102.7L20.9,104.6L24.58,110.3L25.81,110.48L29.5,111.01L30.73,112.09L34.42,115.31L35.65,118.51L41.79,132.64L43.02,134.92L44.25,137.2L45.48,137.9L50.4,141.22L51.63,142.44L54.08,144.87L55.31,144.81L59,144.64L60.23,141.99L63.92,134.04L65.15,128.75L71.29,99.75L72.52,93.17L77.44,70.35L78.67,64.93L83.58,56.58L84.81,56L88.5,54.27L89.73,50.84L94.65,38.64L95.88,36.7L100.79,27.92L102.02,25.46L103.25,23L104.48,23.46L108.17,24.85L109.4,27.11L122.92,51.87L124.15,53.03L127.83,56.53L129.06,53.94L132.75,46.19L133.98,48.54L138.9,59.02L140.13,62.46L143.81,74.13L145.04,78.95L156.1,119.26L157.33,123.87L169.63,183.47L170.85,187.87L172.08,192.26L173.31,193.24L177,196.18L178.23,193.52L181.92,185.53L183.15,178.49L188.06,147.81L189.29,138.25L196.67,85.96L197.9,83.11L201.58,74.56L202.81,75.51L206.5,78.34L207.73,77.55L211.42,75.16L212.65,79.28L217.56,97.12L218.79,102.59L226.17,134.03L227.4,136.81L232.31,146.27L233.54,147.39L237.23,151.76L238.46,153.88L251.98,177.02L253.21,178L255.67,179.96L256.9,182.71L260.58,190.98L261.81,196.11L271.65,238.88L272.88,246.08L280.25,286.81L281.48,291.15L285.17,304.18L286.4,305.39L290.08,309.05L291.31,308.81L295,308.11L296.23,305.44L299.92,297.42L301.15,290.63L306.06,260.89L307.29,251.53L315.9,190.14L317.13,184.98L320.81,172.68L322.04,170.69L324.5,166.7L325.73,166.43L330.65,164.89L331.88,164.15L339.25,159.81L340.48,163.05L345.4,174.79L346.63,176.81L351.54,186.22L352.77,188.92L360.15,204.33L361.38,205.83L363.83,208.83L365.06,208.98L368.75,209.44L369.98,210.83L376.13,218.56L377.35,220.35L378.58,222.13L379.81,226.12L384.73,243.83L385.96,249.55L390.88,269.06L392.1,273.09L397.02,291.7L398.25,296.56L403.17,309.89L404.4,310.43L408.08,312.05L409.31,310.94L413,307.6L414.23,305.15L417.92,297.8L419.15,290.3L422.83,267.81L424.06,255L433.9,154.21L435.13,148.68L437.58,137.63L438.81,137.82L442.5,138.39L443.73,137.31L448.65,133.73L449.88,133.4L457.25,130.64L458.48,130.13L463.4,128.82L464.63,129.02L467.08,129.41L468.31,128.59L472,126.11L473.23,124.2L479.38,113.41L480.6,110.88L481.83,108.34L483.06,101.67L486.75,81.65L487.98,79.87L491.67,74.53L492.9,75.62L496.58,78.91L497.81,83.74L503.96,110.24L505.19,116.25L508.88,131.34L510.1,135.87L516.25,156.09L517.48,158.66L521.17,166.38L522.4,166.64L526.08,167.44L527.31,165.54L531,159.83L532.23,155.37L537.15,135.44L538.38,128.89L546.98,84.91L548.21,80.95L550.67,73.03L551.9,71.79L555.58,68.05L556.81,68.89L560.5,71.41L561.73,69.86L566.65,64.52L567.88,63.81L570.33,62.39L571.56,63.48L576.48,67.17L577.71,67.58L580.17,68.41L581.4,69.7L585.08,73.55L586.31,73.31L591.23,72.79L592.46,72.97L594.92,73.34L596.15,72.33L601.06,67.57L602.29,65.84L604.75,62.36L605.98,63.08L609.67,65.23L610.9,67.9L614.58,75.93L615.81,80.86L629.33,133.66L630.56,137.76L635.48,152.38L636.71,154.69L639.17,159.32L640.4,159.66L644.08,160.69L645.31,159.6L649,156.34L650.23,152.75L655.15,136.76L656.38,131.55L664.98,91.63L666.21,86.19L669.9,72.07L671.13,68.84L673.58,62.37L674.81,62.55L678.5,63.09L679.73,61.68L685.88,53.59L687.1,51.68L694.48,39.48L695.71,38.27L698.17,35.84L699.4,36.33L703.08,37.77L704.31,39.25L709.23,45.92L710.46,48.14L712.92,52.58L714.15,52.39L717.83,51.82L719.06,50.48L722.75,46.46L723.98,48.55L728.9,58.12L730.13,61.41L733.81,72.92L735.04,77.85L743.65,114.5L744.88,120.82L754.71,167.85L755.94,172.3L760.85,187.83L762.08,191.53L767,194.77L768.23,193.36L771.92,189.14L773.15,185.2L782.98,153.75L784.21,151.75L787.9,147.03L789.13,146.3L791.58,144.85L792.81,145.35L798.96,148.46L800.19,149.26L801.42,150.05L802.65,154L808.79,171.39L810.02,174.17L812.48,180.67L813.71,184.4L816.17,191.85L817.4,191.74L821.08,191.4L822.31,190.2L826,186.6" style="vector-effect: non-scaling-stroke; fill: none; stroke: rgb(188, 189, 34); stroke-opacity: 1; stroke-width: 2px; opacity: 1;"/></g><g class="points"/><g class="text"/></g><g class="trace scatter tracedabb3c" style="stroke-miterlimit: 2; opacity: 1;"><g class="fills"/><g class="errorbars"/><g class="lines"><path class="js-line" d="M0,437L33.19,437L34.42,434.97L35.65,434.49L36.88,430.21L38.1,435.73L39.33,430.49L40.56,425.73L41.79,424.11L43.02,421.87L44.25,415.72L45.48,416.95L46.71,420.99L47.94,423.53L49.17,422.46L50.4,418.98L51.63,418.98L54.08,418.99L55.31,419.99L60.23,425.69L61.46,435.23L62.69,434.03L63.92,435.47L65.15,437L66.38,437L68.83,436.04L70.06,437L72.52,437L73.75,435.91L74.98,436.34L76.21,432.94L81.13,433.82L82.35,433.36L83.58,437L84.81,437L159.79,437L161.02,433.61L168.4,430.77L169.63,429.17L172.08,425.96L173.31,425.73L178.23,427.97L179.46,429.05L183.15,431.36L184.38,431.03L186.83,430.37L188.06,430.97L189.29,437L190.52,437L263.04,436.31L264.27,435.89L276.56,432.12L277.79,432.3L281.48,432.25L282.71,431.56L285.17,430.16L286.4,430.61L291.31,433.71L292.54,433.27L296.23,432.32L297.46,432.42L303.6,433.64L304.83,434.01L310.98,433.72L312.21,433.48L314.67,432.99L315.9,437L385.96,437L387.19,436.23L389.65,437L390.88,429.54L392.1,437L393.33,427.51L394.56,437L395.79,427.5L397.02,437L398.25,417.58L399.48,437L400.71,409.01L401.94,437L403.17,437L404.4,392.28L405.63,437L406.85,395.99L408.08,391.96L409.31,437L410.54,383.49L411.77,437L413,390.3L414.23,390.99L415.46,437L416.69,389.33L417.92,437L419.15,387.32L420.38,391.8L421.6,437L422.83,381.97L424.06,437L425.29,402.7L426.52,437L427.75,432.07L428.98,422.08L430.21,437L432.67,437L433.9,428.75L435.13,437L436.35,433.31L437.58,432.96L438.81,433.46L440.04,437L441.27,437L503.96,437L505.19,435.48L506.42,437L507.65,437L508.88,432.16L510.1,437L511.33,425.14L512.56,423.12L513.79,437L515.02,417.93L516.25,437L517.48,414.65L518.71,415.87L519.94,411.02L521.17,412.65L522.4,411.22L523.63,413.61L524.85,437L526.08,413.48L527.31,418.82L528.54,437L529.77,428L531,431.9L532.23,430.02L533.46,425.45L534.69,417.45L537.15,404.33L538.38,408.54L539.6,412.94L540.83,412.15L543.29,419.87L544.52,427.1L545.75,429.31L546.98,437L548.21,435.49L549.44,437L625.65,437L626.88,430.49L628.1,437L629.33,425.25L633.02,411.25L634.25,437L635.48,404.25L636.71,409.94L639.17,416.31L640.4,417.74L641.63,417.44L642.85,414.3L644.08,414.94L645.31,409.75L646.54,407.8L647.77,407.5L649,409.44L650.23,406.39L651.46,399.25L652.69,398.2L653.92,394.46L655.15,405.9L656.38,411.28L657.6,421.13L660.06,437L661.29,437L664.98,437L666.21,435.81L667.44,435.62L668.67,436.25L669.9,434.41L671.13,437L748.56,437L749.79,430.56L753.48,432.5L754.71,432.63L763.31,433.77L764.54,433.34L771.92,431.39L773.15,429.83L778.06,422.05L779.29,421.41L784.21,418.16L785.44,417.11L786.67,416.06L787.9,419.2L791.58,434.87L792.81,436.67L805.1,437L806.33,437L826,437" style="vector-effect: non-scaling-stroke; fill: none; stroke: rgb(227, 119, 194); stroke-opacity: 1; stroke-width: 2px; opacity: 1;"/></g><g class="points"/><g class="text"/></g><g class="trace scatter trace7f333e" style="stroke-miterlimit: 2; opacity: 1;"><g class="fills"/><g class="errorbars"/><g class="lines"><path class="js-line" d="M0,437L15.98,437L17.21,432.05L18.44,433.07L19.67,432.59L20.9,428.19L22.13,432.66L24.58,433L25.81,429.92L27.04,431.33L28.27,434.1L29.5,437L30.73,437L68.83,437L70.06,435.66L71.29,434.53L72.52,434.86L73.75,437L74.98,437L82.35,437L83.58,436.17L84.81,435.59L86.04,433.23L87.27,432.94L88.5,427.12L89.73,430.13L90.96,430.27L92.19,429L93.42,426.49L94.65,424.98L95.88,427.96L97.1,427.37L98.33,422.46L99.56,421.99L100.79,424.25L103.25,416.95L104.48,424.13L105.71,422.49L106.94,426.81L108.17,423.01L109.4,427.64L110.63,423.45L111.85,427.21L113.08,427.05L114.31,427.91L115.54,426.03L116.77,427.4L118,430.39L119.23,430.96L120.46,429.77L121.69,430.1L122.92,431.89L124.15,429.71L126.6,431.91L127.83,430.03L129.06,425.95L130.29,416.43L131.52,428.42L132.75,431.38L137.67,432.22L138.9,431.92L140.13,430.88L141.35,433.78L143.81,433.37L145.04,432.21L146.27,432.51L147.5,428.5L151.19,431.87L152.42,429.19L153.65,428.45L154.88,437L192.98,437L194.21,433.45L195.44,430.45L196.67,432.93L199.13,431.21L200.35,431.24L201.58,432.31L202.81,431.57L205.27,429.88L206.5,428.06L207.73,429.73L208.96,429.66L212.65,419.48L213.88,422.64L215.1,426.36L216.33,425.48L218.79,418.23L220.02,424.98L221.25,437L222.48,437L323.27,436.91L324.5,427.45L328.19,428L329.42,429.32L330.65,427.72L331.88,429L335.56,423.77L336.79,426.28L339.25,425.82L340.48,427.39L341.71,425.57L342.94,437L390.88,437L392.1,430.69L393.33,437L394.56,437L403.17,437L404.4,428.6L405.63,437L406.85,437L409.31,437L410.54,430.82L411.77,437L413,437L421.6,437L422.83,429.69L424.06,437L425.29,437L433.9,437L435.13,427.75L436.35,437L437.58,437L438.81,437L440.04,432.96L441.27,428.79L442.5,428.7L443.73,429.77L444.96,428.79L446.19,428.54L447.42,422.9L448.65,423.4L449.88,426.68L452.33,422.08L453.56,426.22L457.25,426.02L458.48,421.99L459.71,421.45L460.94,422.06L463.4,424.73L464.63,420.17L465.85,421.87L467.08,428.7L468.31,421.98L469.54,428.72L472,427.35L473.23,429.58L475.69,429.9L476.92,430.45L478.15,433.11L479.38,431.86L480.6,431.73L481.83,430.35L483.06,424.98L484.29,425.67L485.52,429.64L486.75,430.71L489.21,433.77L490.44,432.11L492.9,432.95L494.13,432.31L495.35,431.71L496.58,433.05L499.04,431.56L500.27,432.41L501.5,434.66L502.73,434.93L503.96,431.56L505.19,437L548.21,437L549.44,435.21L550.67,432.32L551.9,432.48L553.13,430.58L554.35,431.38L556.81,436.16L558.04,434.34L559.27,433.87L560.5,430.03L561.73,430.3L562.96,428.95L564.19,426.25L565.42,428.72L566.65,423.39L567.88,428.04L569.1,423.01L570.33,424.64L571.56,423.35L572.79,425L574.02,422.34L575.25,422.65L576.48,423.33L577.71,422.96L578.94,422.59L580.17,419.64L581.4,424.53L582.63,425.1L583.85,415.91L585.08,424.2L586.31,418.78L587.54,421.76L588.77,427.94L590,430.16L591.23,430.48L592.46,427.74L593.69,428.25L594.92,431.02L597.38,433.07L598.6,432.08L599.83,427.23L601.06,429.72L603.52,427.83L604.75,425.85L605.98,430.37L607.21,430.82L608.44,429.35L609.67,433L612.13,430.83L613.35,430.81L615.81,433.14L617.04,432.42L618.27,432.84L619.5,430.4L620.73,433.56L621.96,431.67L623.19,437L624.42,437L660.06,437L661.29,431.62L662.52,433.58L663.75,432.43L664.98,433.09L666.21,437L669.9,437L671.13,434.18L673.58,434.44L674.81,432.23L676.04,428.84L677.27,431.75L678.5,427.7L679.73,427.82L680.96,424.61L682.19,424.76L684.65,425.58L685.88,427.59L687.1,428.61L688.33,422.43L689.56,419.06L690.79,420.29L693.25,424.96L694.48,423.08L695.71,422.72L696.94,423.8L698.17,421.69L699.4,425.86L701.85,420.55L703.08,429.89L704.31,427.44L705.54,428.37L706.77,426.06L708,428.94L710.46,430.4L711.69,429.06L712.92,431.5L714.15,431.64L716.6,433.35L717.83,430L720.29,427.66L721.52,430.39L725.21,431.53L726.44,429.68L727.67,429.66L728.9,427.98L730.13,431.4L731.35,429.72L732.58,431.67L733.81,431.1L736.27,433.49L737.5,425.5L738.73,430.65L739.96,428.84L741.19,432.46L742.42,431.45L743.65,437L744.88,437L824.77,437L826,425.97" style="vector-effect: non-scaling-stroke; fill: none; stroke: rgb(23, 190, 207); stroke-opacity: 1; stroke-width: 2px; opacity: 1;"/></g><g class="points"/><g class="text"/></g></g></g><g class="overplot"/><path class="xlines-above crisp" d="M0,0" style="fill: none;"/><path class="ylines-above crisp" d="M0,0" style="fill: none;"/><g class="overlines-above"/><g class="xaxislayer-above"><g class="xtick"><text text-anchor="middle" x="0" y="530" transform="translate(78,0)" style="font-family: 'Open Sans', verdana, arial, sans-serif; font-size: 19px; fill: rgb(42, 63, 95); fill-opacity: 1; white-space: pre; opacity: 1;"><tspan class="line" dy="0em" x="0" y="530">Sep 10</tspan><tspan class="line" dy="1.3em" x="0" y="530">2019</tspan></text></g><g class="xtick"><text text-anchor="middle" x="0" y="530" style="font-family: 'Open Sans', verdana, arial, sans-serif; font-size: 19px; fill: rgb(42, 63, 95); fill-opacity: 1; white-space: pre; opacity: 1;" transform="translate(196,0)">Sep 11</text></g><g class="xtick"><text text-anchor="middle" x="0" y="530" style="font-family: 'Open Sans', verdana, arial, sans-serif; font-size: 19px; fill: rgb(42, 63, 95); fill-opacity: 1; white-space: pre; opacity: 1;" transform="translate(314,0)">Sep 12</text></g><g class="xtick"><text text-anchor="middle" x="0" y="530" style="font-family: 'Open Sans', verdana, arial, sans-serif; font-size: 19px; fill: rgb(42, 63, 95); fill-opacity: 1; white-space: pre; opacity: 1;" transform="translate(432,0)">Sep 13</text></g><g class="xtick"><text text-anchor="middle" x="0" y="530" style="font-family: 'Open Sans', verdana, arial, sans-serif; font-size: 19px; fill: rgb(42, 63, 95); fill-opacity: 1; white-space: pre; opacity: 1;" transform="translate(550,0)">Sep 14</text></g><g class="xtick"><text text-anchor="middle" x="0" y="530" style="font-family: 'Open Sans', verdana, arial, sans-serif; font-size: 19px; fill: rgb(42, 63, 95); fill-opacity: 1; white-space: pre; opacity: 1;" transform="translate(668,0)">Sep 15</text></g><g class="xtick"><text text-anchor="middle" x="0" y="530" style="font-family: 'Open Sans', verdana, arial, sans-serif; font-size: 19px; fill: rgb(42, 63, 95); fill-opacity: 1; white-space: pre; opacity: 1;" transform="translate(786,0)">Sep 16</text></g><g class="xtick"><text text-anchor="middle" x="0" y="530" style="font-family: 'Open Sans', verdana, arial, sans-serif; font-size: 19px; fill: rgb(42, 63, 95); fill-opacity: 1; white-space: pre; opacity: 1;" transform="translate(904,0)">Sep 17</text></g></g><g class="yaxislayer-above"><g class="ytick"><text text-anchor="end" x="77" y="6.6499999999999995" transform="translate(0,487)" style="font-family: 'Open Sans', verdana, arial, sans-serif; font-size: 19px; fill: rgb(42, 63, 95); fill-opacity: 1; white-space: pre; opacity: 1;">0</text></g><g class="ytick"><text text-anchor="end" x="77" y="6.6499999999999995" style="font-family: 'Open Sans', verdana, arial, sans-serif; font-size: 19px; fill: rgb(42, 63, 95); fill-opacity: 1; white-space: pre; opacity: 1;" transform="translate(0,400.45)">100</text></g><g class="ytick"><text text-anchor="end" x="77" y="6.6499999999999995" style="font-family: 'Open Sans', verdana, arial, sans-serif; font-size: 19px; fill: rgb(42, 63, 95); fill-opacity: 1; white-space: pre; opacity: 1;" transform="translate(0,313.91)">200</text></g><g class="ytick"><text text-anchor="end" x="77" y="6.6499999999999995" style="font-family: 'Open Sans', verdana, arial, sans-serif; font-size: 19px; fill: rgb(42, 63, 95); fill-opacity: 1; white-space: pre; opacity: 1;" transform="translate(0,227.36)">300</text></g><g class="ytick"><text text-anchor="end" x="77" y="6.6499999999999995" style="font-family: 'Open Sans', verdana, arial, sans-serif; font-size: 19px; fill: rgb(42, 63, 95); fill-opacity: 1; white-space: pre; opacity: 1;" transform="translate(0,140.81)">400</text></g><g class="ytick"><text text-anchor="end" x="77" y="6.6499999999999995" style="font-family: 'Open Sans', verdana, arial, sans-serif; font-size: 19px; fill: rgb(42, 63, 95); fill-opacity: 1; white-space: pre; opacity: 1;" transform="translate(0,54.269999999999996)">500</text></g></g><g class="overaxes-above"/></g></g><g class="polarlayer"/><g class="ternarylayer"/><g class="geolayer"/><g class="funnelarealayer"/><g class="pielayer"/><g class="iciclelayer"/><g class="treemaplayer"/><g class="sunburstlayer"/><g class="glimages"/><defs id="topdefs-3b8472"><g class="clips"/><clipPath id="legend3b8472"><rect width="169" height="207" x="0" y="0"/></clipPath></defs><g class="layer-above"><g class="imagelayer"/><g class="shapelayer"/></g><g class="infolayer"><g class="legend" pointer-events="all" transform="translate(920.52,50)"><rect class="bg" shape-rendering="crispEdges" width="169" height="207" x="0" y="0" style="stroke: rgb(68, 68, 68); stroke-opacity: 1; fill: rgb(255, 255, 255); fill-opacity: 1; stroke-width: 0px;"/><g class="scrollbox" transform="" clip-path="url(#legend3b8472)"><text class="legendtitletext" text-anchor="start" x="2" y="29.900000000000002" style="font-family: 'Open Sans', verdana, arial, sans-serif; font-size: 23px; fill: rgb(42, 63, 95); fill-opacity: 1; white-space: pre;">variable</text><g class="groups" transform=""><g class="traces" transform="translate(0,48.75)" style="opacity: 1;"><text class="legendtext" text-anchor="start" x="40" y="7.409999999999999" style="font-family: 'Open Sans', verdana, arial, sans-serif; font-size: 19px; fill: rgb(42, 63, 95); fill-opacity: 1; white-space: pre;">grid_kw</text><g class="layers" style="opacity: 1;"><g class="legendfill"/><g class="legendlines"><path class="js-line" d="M5,0h30" style="fill: none; stroke: rgb(214, 39, 40); stroke-opacity: 1; stroke-width: 2px;"/></g><g class="legendsymbols"><g class="legendpoints"/></g></g><rect class="legendtoggle" x="0" y="-13.85" width="163.015625" height="27.7" style="fill: rgb(0, 0, 0); fill-opacity: 0;"/></g><g class="traces" transform="translate(0,76.45)" style="opacity: 1;"><text class="legendtext" text-anchor="start" x="40" y="7.409999999999999" style="font-family: 'Open Sans', verdana, arial, sans-serif; font-size: 19px; fill: rgb(42, 63, 95); fill-opacity: 1; white-space: pre;">battery_kWh</text><g class="layers" style="opacity: 1;"><g class="legendfill"/><g class="legendlines"><path class="js-line" d="M5,0h30" style="fill: none; stroke: rgb(44, 160, 44); stroke-opacity: 1; stroke-width: 2px;"/></g><g class="legendsymbols"><g class="legendpoints"/></g></g><rect class="legendtoggle" x="0" y="-13.85" width="163.015625" height="27.7" style="fill: rgb(0, 0, 0); fill-opacity: 0;"/></g></g><g class="groups" transform=""><g class="traces" transform="translate(0,104.14999999999999)" style="opacity: 1;"><text class="legendtext" text-anchor="start" x="40" y="7.409999999999999" style="font-family: 'Open Sans', verdana, arial, sans-serif; font-size: 19px; fill: rgb(42, 63, 95); fill-opacity: 1; white-space: pre;">pv_curtailed</text><g class="layers" style="opacity: 1;"><g class="legendfill"/><g class="legendlines"><path class="js-line" d="M5,0h30" style="fill: none; stroke: rgb(255, 127, 14); stroke-opacity: 1; stroke-width: 2px;"/></g><g class="legendsymbols"><g class="legendpoints"/></g></g><rect class="legendtoggle" x="0" y="-13.85" width="163.015625" height="27.7" style="fill: rgb(0, 0, 0); fill-opacity: 0;"/></g></g><g class="groups" transform=""><g class="traces" transform="translate(0,131.85)" style="opacity: 1;"><text class="legendtext" text-anchor="start" x="40" y="7.409999999999999" style="font-family: 'Open Sans', verdana, arial, sans-serif; font-size: 19px; fill: rgb(42, 63, 95); fill-opacity: 1; white-space: pre;">co2_g_kwh</text><g class="layers" style="opacity: 1;"><g class="legendfill"/><g class="legendlines"><path class="js-line" d="M5,0h30" style="fill: none; stroke: rgb(188, 189, 34); stroke-opacity: 1; stroke-width: 2px;"/></g><g class="legendsymbols"><g class="legendpoints"/></g></g><rect class="legendtoggle" x="0" y="-13.85" width="163.015625" height="27.7" style="fill: rgb(0, 0, 0); fill-opacity: 0;"/></g></g><g class="groups" transform=""><g class="traces" transform="translate(0,159.54999999999998)" style="opacity: 1;"><text class="legendtext" text-anchor="start" x="40" y="7.409999999999999" style="font-family: 'Open Sans', verdana, arial, sans-serif; font-size: 19px; fill: rgb(42, 63, 95); fill-opacity: 1; white-space: pre;">batteryin</text><g class="layers" style="opacity: 1;"><g class="legendfill"/><g class="legendlines"><path class="js-line" d="M5,0h30" style="fill: none; stroke: rgb(227, 119, 194); stroke-opacity: 1; stroke-width: 2px;"/></g><g class="legendsymbols"><g class="legendpoints"/></g></g><rect class="legendtoggle" x="0" y="-13.85" width="163.015625" height="27.7" style="fill: rgb(0, 0, 0); fill-opacity: 0;"/></g></g><g class="groups" transform=""><g class="traces" transform="translate(0,187.25)" style="opacity: 1;"><text class="legendtext" text-anchor="start" x="40" y="7.409999999999999" style="font-family: 'Open Sans', verdana, arial, sans-serif; font-size: 19px; fill: rgb(42, 63, 95); fill-opacity: 1; white-space: pre;">batteryout</text><g class="layers" style="opacity: 1;"><g class="legendfill"/><g class="legendlines"><path class="js-line" d="M5,0h30" style="fill: none; stroke: rgb(23, 190, 207); stroke-opacity: 1; stroke-width: 2px;"/></g><g class="legendsymbols"><g class="legendpoints"/></g></g><rect class="legendtoggle" x="0" y="-13.85" width="163.015625" height="27.7" style="fill: rgb(0, 0, 0); fill-opacity: 0;"/></g></g></g><rect class="scrollbar" rx="20" ry="3" width="0" height="0" x="0" y="0" style="fill: rgb(128, 139, 164); fill-opacity: 1;"/></g><g class="g-gtitle"/><g class="g-xtitle"/><g class="g-ytitle" transform="translate(13.349609375,0)"><text class="ytitle" transform="rotate(-90,9.650000000000006,280)" x="9.650000000000006" y="280" text-anchor="middle" style="font-family: 'Open Sans', verdana, arial, sans-serif; font-size: 23px; fill: rgb(42, 63, 95); opacity: 1; font-weight: normal; white-space: pre;">Legend</text></g></g></svg>