<svg class="main-svg" xmlns="http://www.w3.org/2000/svg" xmlns:xlink="http://www.w3.org/1999/xlink" width="1100" height="600" viewBox="0 0 1100 600"><rect x="0" y="0" width="1100" height="600" style="fill: rgb(255, 255, 255); fill-opacity: 1;"/><defs id="defs-7d92e6"><g class="clips"><clipPath id="clip7d92e6xyplot" class="plotclip"><rect width="826" height="460"/></clipPath><clipPath class="axesclip" id="clip7d92e6x"><rect x="78" y="0" width="826" height="600"/></clipPath><clipPath class="axesclip" id="clip7d92e6y"><rect x="0" y="50" width="1100" height="460"/></clipPath><clipPath class="axesclip" id="clip7d92e6xy"><rect x="78" y="50" width="826" height="460"/></clipPath></g><g class="gradients"/><g class="patterns"/></defs><g class="bglayer"/><g class="layer-below"><g class="imagelayer"/><g class="shapelayer"/></g><g class="cartesianlayer"><g class="subplot xy"><g class="layer-subplot"><g class="shapelayer"/><g class="imagelayer"/></g><g class="gridlayer"><g class="x"><path class="xgrid crisp" transform="translate(196,0)" d="M0,50v460" style="stroke: rgb(235, 240, 248); stroke-opacity: 1; stroke-width: 1px;"/><path class="xgrid crisp" transform="translate(314,0)" d="M0,50v460" style="stroke: rgb(235, 240, 248); stroke-opacity: 1; stroke-width: 1px;"/><path class="xgrid crisp" transform="translate(432,0)" d="M0,50v460" style="stroke: rgb(235, 240, 248); stroke-opacity: 1; stroke-width: 1px;"/><path class="xgrid crisp" transform="translate(550,0)" d="M0,50v460" style="stroke: rgb(235, 240, 248); stroke-opacity: 1; stroke-width: 1px;"/><path class="xgrid crisp" transform="translate(668,0)" d="M0,50v460" style="stroke: rgb(235, 240, 248); stroke-opacity: 1; stroke-width: 1px;"/><path class="xgrid crisp" transform="translate(786,0)" d="M0,50v460" style="stroke: rgb(235, 240, 248); stroke-opacity: 1; stroke-width: 1px;"/></g><g class="y"><path class="ygrid crisp" transform="translate(0,432.35)" d="M78,0h826" style="stroke: rgb(235, 240, 248); stroke-opacity: 1; stroke-width: 1px;"/><path class="ygrid crisp" transform="translate(0,377.7)" d="M78,0h826" style="stroke: rgb(235, 240, 248); stroke-opacity: 1; stroke-width: 1px;"/><path class="ygrid crisp" transform="translate(0,323.05)" d="M78,0h826" style="stroke: rgb(235, 240, 248); stroke-opacity: 1; stroke-width: 1px;"/><path class="ygrid crisp" transform="translate(0,268.4)" d="M78,0h826" style="stroke: rgb(235, 240, 248); stroke-opacity: 1; stroke-width: 1px;"/><path class="ygrid crisp" transform="translate(0,213.75)" d="M78,0h826" style="stroke: rgb(235, 240, 248); stroke-opacity: 1; stroke-width: 1px;"/><path class="ygrid crisp" transform="translate(0,159.09)" d="M78,0h826" style="stroke: rgb(235, 240, 248); stroke-opacity: 1; stroke-width: 1px;"/><path class="ygrid crisp" transform="translate(0,104.44)" d="M78,0h826" style="stroke: rgb(235, 240, 248); stroke-opacity: 1; stroke-width: 1px;"/></g></g><g class="zerolinelayer"><path class="yzl zl crisp" transform="translate(0,487)" d="M78,0h826" style="stroke: rgb(0, 0, 0); stroke-opacity: 1; stroke-width: 2px;"/></g><path class="xlines-below"/><path class="ylines-below"/><g class="overlines-below"/><g class="xaxislayer-below"/><g class="yaxislayer-below"/><g class="overaxes-below"/><g class="plot" transform="translate(78,50)" clip-path="url(#clip7d92e6xyplot)"><g class="scatterlayer mlayer"><g class="trace scatter tracef903c2" style="stroke-miterlimit: 2; opacity: 1;"><g class="fills"/><g class="errorbars"/><g class="lines"><path class="js-line" d="M0,413.11L1.23,410.76L2.46,414.91L3.69,406.9L4.92,417.93L6.15,422.33L7.38,420.26L8.6,420.5L9.83,412.22L11.06,374.99L12.29,408.46L13.52,403.18L14.75,391.95L17.21,410.04L18.44,416.03L20.9,406.8L22.13,411.01L23.35,416.73L24.58,412.82L25.81,426.5L27.04,423.07L28.27,421.82L29.5,416.48L30.73,413.64L31.96,417.06L33.19,417.81L34.42,410.04L35.65,413.44L36.88,422.07L39.33,415.51L40.56,398.17L41.79,420.7L43.02,414.98L45.48,420.27L46.71,418.73L47.94,424.06L49.17,414.83L50.4,432.01L51.63,434.58L52.85,437L54.08,432.99L55.31,431.16L56.54,437L73.75,437L74.98,432.82L77.44,416.86L78.67,414.46L79.9,398.57L81.13,410.78L82.35,414.86L83.58,411.97L84.81,399.37L86.04,437L92.19,437L93.42,422.54L94.65,394.34L95.88,401.18L97.1,401.7L98.33,406L100.79,388.58L102.02,392.26L103.25,387.7L104.48,406.31L106.94,404.47L108.17,398.72L110.63,408.41L111.85,397.32L113.08,402.22L114.31,411.69L116.77,393.81L118,407.87L119.23,411.76L120.46,412.85L122.92,419.56L124.15,417.89L125.38,421.22L126.6,416.44L129.06,404.24L130.29,418.34L131.52,416.92L132.75,411.37L133.98,415.64L135.21,415.15L136.44,407.23L137.67,420.08L138.9,413.92L140.13,411.68L141.35,437L142.58,437L185.6,437L186.83,421.69L188.06,418.66L189.29,402.23L190.52,398.84L191.75,414.83L192.98,409.8L194.21,409.69L195.44,404.82L196.67,393.53L197.9,385.83L199.13,398.61L200.35,398.67L201.58,387.64L202.81,399.59L204.04,394.42L205.27,437L206.5,437L208.96,368.07L210.19,393.06L211.42,363.69L212.65,394.62L213.88,388.7L215.1,386.98L216.33,402.08L217.56,365.04L218.79,354.93L220.02,354.92L221.25,397.38L222.48,381.99L223.71,393.72L224.94,369.61L226.17,397.65L227.4,400.53L228.63,393.95L229.85,395.44L231.08,389.04L232.31,391.65L233.54,411.35L234.77,394.1L236,396.02L237.23,403.08L238.46,394.3L239.69,393.82L240.92,417.11L242.15,415.67L243.38,415.28L244.6,410.87L247.06,413.25L248.29,408.79L249.52,418.09L250.75,414.48L251.98,408.56L253.21,416L254.44,415.79L255.67,419.29L256.9,409.73L258.13,411.21L259.35,418.79L260.58,418.23L261.81,411.07L263.04,412.36L265.5,400.52L266.73,403.6L267.96,404.6L269.19,408.07L271.65,393.76L272.88,370.68L275.33,420.78L276.56,431.41L277.79,418.95L279.02,428.19L280.25,429.96L281.48,421.77L282.71,425.13L283.94,395.2L285.17,413.38L286.4,420.26L287.63,417.85L288.85,418.92L290.08,418.05L291.31,415.06L292.54,416.81L293.77,401.87L295,411.02L296.23,414.09L297.46,426.36L298.69,418.83L299.92,421.93L301.15,414.87L302.38,417.92L303.6,423.73L304.83,431.71L306.06,411.34L307.29,429.21L308.52,412.44L309.75,413.77L310.98,431.7L313.44,406.64L314.67,406.04L315.9,385.42L317.13,390.51L320.81,408.75L322.04,390.29L323.27,399.97L324.5,387.99L325.73,387.21L326.96,395.07L328.19,385.54L329.42,392.36L330.65,394.22L331.88,402.34L334.33,394.72L335.56,402.51L336.79,408.68L338.02,408.83L339.25,397.19L340.48,403.66L341.71,415.36L342.94,406.78L344.17,409.04L345.4,394.75L346.63,402.06L347.85,399.13L349.08,407.45L350.31,407.3L351.54,412.39L352.77,407.78L354,414.81L355.23,408.35L356.46,407.68L357.69,411.28L358.92,401.79L360.15,404.31L361.38,407.28L362.6,416.99L363.83,417.39L365.06,418.99L366.29,413.1L367.52,415.93L368.75,419.14L369.98,407.41L371.21,415.51L372.44,417.43L373.67,416.14L374.9,412.76L376.13,378.89L377.35,393.11L379.81,416.38L381.04,415.37L382.27,400.52L383.5,404.73L384.73,405.65L385.96,388.38L387.19,402.85L388.42,370L389.65,410.49L390.88,392L392.1,387.98L393.33,414.16L394.56,421.91L395.79,413.41L397.02,427.49L398.25,428.52L399.48,437L400.71,434.33L401.94,437L403.17,437L419.15,437L420.38,429.77L421.6,426.05L422.83,426.57L424.06,421.85L425.29,413.59L426.52,421.26L427.75,414.01L428.98,408.56L430.21,395.35L431.44,400.27L432.67,396.96L433.9,390.91L435.13,380.77L436.35,396.68L437.58,399.54L438.81,402.79L440.04,400.63L441.27,437L442.5,437L474.46,437L475.69,406.51L476.92,421.87L478.15,418.78L479.38,417.17L480.6,413.28L481.83,413.54L483.06,411.89L484.29,415.17L485.52,402.35L486.75,422.57L487.98,419.94L489.21,412.52L490.44,416.83L492.9,416.53L494.13,434.87L495.35,437L496.58,437L502.73,437L503.96,397.99L507.65,416.01L508.88,412.92L510.1,413.33L511.33,425.91L512.56,430.33L513.79,428.09L515.02,426.56L516.25,429.33L517.48,437L518.71,437L544.52,437L545.75,432.57L546.98,429.1L548.21,423.06L549.44,411.76L550.67,409.35L551.9,408.63L553.13,406.48L554.35,403.3L555.58,437L571.56,437L572.79,425.15L574.02,407.08L575.25,406.13L576.48,407.16L577.71,399.45L578.94,405.73L580.17,402.06L581.4,395.86L582.63,381.9L583.85,382.37L585.08,391.65L587.54,411.54L588.77,404.27L590,414.63L591.23,408.35L594.92,422.95L596.15,423.88L597.38,417.78L598.6,417.78L599.83,408.47L601.06,408.44L602.29,407.49L603.52,413.94L605.98,422.76L607.21,421.56L610.9,410.83L612.13,418.05L613.35,421.67L614.58,417.46L615.81,416.42L617.04,417.76L618.27,437L619.5,437L623.19,437L624.42,396.55L626.88,429.07L628.1,430.43L629.33,437L630.56,437L652.69,437L653.92,431.8L655.15,429.4L656.38,414.52L657.6,412.71L658.83,406.25L660.06,414.01L661.29,390.44L663.75,414.85L664.98,410.11L666.21,385.16L667.44,407.95L668.67,412.21L669.9,401.4L672.35,417.87L673.58,414.15L674.81,408.37L676.04,413.45L678.5,399.25L679.73,400.82L682.19,389.36L683.42,395.37L684.65,392.23L685.88,403.51L687.1,391.05L688.33,401.76L689.56,401.26L690.79,399.45L692.02,397.68L693.25,392.76L694.48,394.29L695.71,386.69L696.94,388.77L698.17,396.24L700.63,376.51L701.85,391.13L703.08,395.09L704.31,395.89L705.54,405.83L706.77,399.4L708,393.41L709.23,414.39L710.46,413.5L711.69,407.09L712.92,414.53L714.15,417.3L715.38,421.56L716.6,416.29L717.83,410.97L719.06,411.32L720.29,417.32L721.52,416.01L722.75,418.32L723.98,417.74L725.21,408.18L726.44,414.04L727.67,414.17L728.9,413.51L730.13,414.26L731.35,419.31L732.58,414.25L733.81,418.73L736.27,416.65L737.5,414.57L738.73,397.61L739.96,407.28L741.19,404.95L742.42,406.88L743.65,412.61L744.88,409.41L746.1,418.29L747.33,418.56L748.56,407.6L749.79,421.43L751.02,419.62L752.25,420.09L753.48,430.93L754.71,432.79L755.94,437L757.17,437L765.77,437L767,420.47L768.23,434.77L769.46,437L773.15,437L774.38,425.02L775.6,415.49L776.83,340.89L778.06,309.8L779.29,427.04L780.52,368.28L781.75,428.16L782.98,399.29L784.21,417.21L785.44,405.57L786.67,401.89L787.9,414.47L789.13,407.06L790.35,381.71L791.58,399.95L794.04,404.49L795.27,398.39L796.5,393.67L797.73,437L826,437" style="vector-effect: non-scaling-stroke; fill: none; stroke: rgb(214, 39, 40); stroke-opacity: 1; stroke-width: 2px; opacity: 1;"/></g><g class="points"/><g class="text"/></g><g class="trace scatter tracef98e96" style="stroke-miterlimit: 2; opacity: 1;"><g class="fills"/><g class="errorbars"/><g class="lines"><path class="js-line" d="M0,437L157.33,437L158.56,420.01L159.79,437L161.02,437L162.25,364.02L163.48,437L167.17,437L168.4,385.73L169.63,437L170.85,437L173.31,437L174.54,329.14L175.77,437L177,437L826,437" style="vector-effect: non-scaling-stroke; fill: none; stroke: rgb(255, 127, 14); stroke-opacity: 1; stroke-width: 2px; opacity: 1;"/></g><g class="points"/><g class="text"/></g><g class="trace scatter trace2599c8" style="stroke-miterlimit: 2; opacity: 1;"><g class="fills"/><g class="errorbars"/><g class="lines"><path class="js-line" d="M0,354.2L56.54,353.71L57.77,349.37L59,343.25L60.23,333.12L62.69,305.74L63.92,286.9L68.83,214.05L70.06,201.79L72.52,185.66L73.75,181.31L74.98,179.34L76.21,179.34L86.04,179.34L87.27,188.7L88.5,200.36L89.73,241.08L94.65,279.64L95.88,279.64L141.35,279.64L142.58,288.19L147.5,308.18L148.73,314.93L154.88,347.04L156.1,351.19L157.33,353.74L158.56,354.2L159.79,354.2L161.02,346.6L162.25,333.72L163.48,333.72L172.08,196.66L173.31,174.28L174.54,150.15L175.77,150.15L180.69,59.54L181.92,46.72L184.38,27.98L185.6,23.71L188.06,23L189.29,23L205.27,23L206.5,38.02L208.96,64.87L210.19,64.87L399.48,64.87L400.71,63.8L403.17,63.08L404.4,60.87L408.08,51.38L409.31,51.28L416.69,27.79L417.92,26.51L420.38,23L421.6,23L441.27,23L442.5,30.07L446.19,62.94L447.42,72.69L454.79,136.46L456.02,151.77L474.46,286L475.69,291.64L494.13,291.64L495.35,298.94L497.81,308.05L499.04,319.5L501.5,339.79L502.73,348.37L503.96,354.2L505.19,354.2L517.48,354.2L518.71,349.71L521.17,334.87L522.4,323.17L526.08,272.51L527.31,248.75L529.77,216.63L531,204.25L533.46,186.54L534.69,173.34L539.6,127.56L540.83,121.05L542.06,119.29L543.29,115.4L544.52,115.4L545.75,113.99L555.58,113.99L556.81,122.66L560.5,144.64L561.73,158.2L566.65,203.85L567.88,215.77L574.02,256.45L575.25,256.45L618.27,256.45L619.5,262.02L624.42,290.8L625.65,290.8L630.56,290.24L631.79,287.33L634.25,275.92L635.48,266.24L637.94,254.72L639.17,253.61L640.4,253.14L641.63,248.34L644.08,227.05L645.31,209.47L649,176L650.23,171.75L652.69,162.61L653.92,162.39L757.17,161.74L758.4,160.78L759.63,156.38L760.85,149.21L765.77,109.55L767,108.28L770.69,107.57L771.92,104.94L773.15,104.72L774.38,102.75L797.73,102.75L798.96,119.32L801.42,141.46L802.65,159.61L803.88,172.2L805.1,200.82L808.79,233.93L810.02,243.36L813.71,265.16L814.94,276.62L821.08,320.47L822.31,331.8L824.77,348.8L826,354.2" style="vector-effect: non-scaling-stroke; fill: none; stroke: rgb(44, 160, 44); stroke-opacity: 1; stroke-width: 2px; opacity: 1;"/></g><g class="points"/><g class="text"/></g><g class="trace scatter tracec0bed5" style="stroke-miterlimit: 2; opacity: 1;"><g class="fills"/><g class="errorbars"/><g class="lines"><path class="js-line" d="M0,316.51L6.15,313.83L7.38,313.71L11.06,313.96L12.29,314.46L18.44,316.22L19.67,316.48L25.81,295.86L27.04,290.05L30.73,275.5L31.96,272.59L34.42,266.78L35.65,267.08L40.56,268.89L41.79,269.79L47.94,273.55L49.17,274.2L55.31,275.7L56.54,275.45L59,274.96L60.23,273.54L63.92,269.27L65.15,266.4L68.83,257.78L70.06,253.03L74.98,236.7L76.21,234.63L78.67,230.48L79.9,230.32L87.27,228.67L88.5,228.27L94.65,229.95L95.88,230.81L103.25,236.22L104.48,239.76L113.08,265.64L114.31,266.05L118,267.27L119.23,265.99L122.92,262.16L124.15,261.99L130.29,260.42L131.52,259.9L132.75,259.38L133.98,257.25L137.67,250.85L138.9,242.08L142.58,215.77L143.81,213.41L147.5,206.31L148.73,207.6L152.42,211.48L153.65,210.92L162.25,206.57L163.48,205.59L168.4,201.19L169.63,199.73L177,190.18L178.23,190.66L181.92,192.09L183.15,195.71L186.83,206.54L188.06,205.93L191.75,204.08L192.98,201.5L196.67,193.75L197.9,193.6L201.58,193.17L202.81,191.83L206.5,187.8L207.73,189.95L211.42,196.42L212.65,200.91L221.25,230.25L222.48,230.17L226.17,229.93L227.4,234.45L231.08,248.03L232.31,249.58L237.23,254.99L238.46,255.77L247.06,261.34L248.29,262.76L250.75,265.59L251.98,264.43L260.58,256.59L261.81,252.19L266.73,236.67L267.96,234.37L272.88,226.55L274.1,224.95L275.33,223.34L276.56,224.34L280.25,227.35L281.48,229.91L285.17,237.62L286.4,236.33L290.08,232.48L291.31,233.22L295,235.44L296.23,238.68L299.92,248.38L301.15,246.97L304.83,242.75L306.06,238.73L309.75,226.68L310.98,225.92L314.67,223.63L315.9,220.78L322.04,207.94L323.27,205.79L324.5,203.64L325.73,203.79L331.88,203.96L333.1,203.82L334.33,203.67L335.56,204.42L339.25,206.66L340.48,203.72L344.17,194.91L345.4,198.56L349.08,209.53L350.31,210.48L354,213.33L355.23,215.36L360.15,224.89L361.38,228.32L363.83,235.18L365.06,236.3L368.75,239.68L369.98,239.45L373.67,238.78L374.9,234.59L383.5,202.66L384.73,201.51L388.42,198.07L389.65,198.72L394.56,201.95L395.79,203.22L406.85,215.42L408.08,217.05L413,223.49L414.23,223.84L417.92,224.88L419.15,222.92L424.06,216.1L425.29,215.16L430.21,212.14L431.44,211.58L432.67,211.01L433.9,207.91L437.58,198.62L438.81,192.02L442.5,172.22L443.73,172.71L451.1,176.41L452.33,177.15L457.25,165.23L458.48,164.55L462.17,162.53L463.4,165.68L467.08,175.15L468.31,173.26L472,167.61L473.23,172.68L476.92,187.89L478.15,187.34L481.83,185.71L483.06,186.81L486.75,190.09L487.98,189.03L492.9,184.04L494.13,182.26L496.58,178.69L497.81,178.4L501.5,177.53L502.73,180.33L507.65,189.83L508.88,190.93L511.33,193.14L512.56,195.88L516.25,204.11L517.48,203.71L521.17,202.51L522.4,200.92L526.08,196.16L527.31,196.77L531,198.59L532.23,200.58L540.83,215.42L542.06,213.68L546.98,207.79L548.21,207.12L550.67,205.79L551.9,200.57L555.58,184.9L556.81,184.09L560.5,181.68L561.73,182.22L566.65,183.9L567.88,183.94L570.33,184.03L571.56,185.69L575.25,190.67L576.48,189.99L580.17,187.95L581.4,190.95L586.31,201.16L587.54,202.37L590,204.77L591.23,204.88L594.92,205.21L596.15,206.81L599.83,211.62L601.06,211.38L604.75,210.66L605.98,209.45L609.67,205.82L610.9,202.98L619.5,182.55L620.73,184.08L624.42,188.67L625.65,192.11L629.33,202.42L630.56,203.48L634.25,206.66L635.48,205.9L639.17,203.61L640.4,204.72L645.31,210.08L646.54,212.1L649,216.15L650.23,214.88L655.15,210.67L656.38,210.27L661.29,209.29L662.52,209.19L664.98,209.49L666.21,209.88L668.67,210.66L669.9,212.16L673.58,216.67L674.81,216.28L678.5,215.13L679.73,218.27L683.42,227.69L684.65,228.06L688.33,229.17L689.56,228.33L693.25,225.78L694.48,225.91L701.85,227.39L703.08,227.75L709.23,231.13L710.46,231.34L720.29,233.16L721.52,233.74L722.75,234.31L723.98,231.84L728.9,223.38L730.13,222.31L737.5,216.76L738.73,216.47L742.42,215.62L743.65,216.23L757.17,222.94L758.4,222.71L762.08,222.04L763.31,220.97L767,217.77L768.23,218.41L771.92,220.33L773.15,219.11L782.98,210.22L784.21,209.55L787.9,206.67L789.13,205.15L791.58,202.1L792.81,198.96L798.96,184.99L800.19,182.71L805.1,174.82L806.33,172.95L811.25,172.19L812.48,169.22L816.17,160.3L817.4,160.25L821.08,160.12L822.31,159.23L826,156.55" style="vector-effect: non-scaling-stroke; fill: none; stroke: rgb(188, 189, 34); stroke-opacity: 1; stroke-width: 2px; opacity: 1;"/></g><g class="points"/><g class="text"/></g><g class="trace scatter trace5892ea" style="stroke-miterlimit: 2; opacity: 1;"><g class="fills"/><g class="errorbars"/><g class="lines"><path class="js-line" d="M0,437L51.63,437L52.85,434.93L54.08,437L55.31,437L57.77,411.26L59,394.35L61.46,374.65L62.69,357.69L63.92,351.69L65.15,356.87L66.38,366.89L67.6,365.79L70.06,398.34L71.29,407.73L74.98,437L76.21,437L158.56,437L159.79,405L161.02,382.77L162.25,437L163.48,358.46L164.71,359.7L165.94,348.17L167.17,346.34L168.4,393.07L169.63,344.85L170.85,331.34L172.08,342.75L173.31,335.39L174.54,437L175.77,330.15L177,336.6L178.23,343.11L179.46,356.63L180.69,383.03L181.92,389.88L185.6,434.02L186.83,437L398.25,437L399.48,432.48L400.71,437L401.94,433.99L403.17,427.67L404.4,425.84L405.63,421.02L406.85,424.22L408.08,436.57L409.31,421.78L410.54,418.44L411.77,419.69L413,420.97L414.23,426.16L415.46,416.06L416.69,431.61L417.92,427.45L419.15,431.77L420.38,437L421.6,437L516.25,437L517.48,418.09L519.94,400.92L521.17,387.76L524.85,352.63L526.08,336.97L528.54,383.66L529.77,384.85L531,405.32L532.23,394.12L533.46,381.41L534.69,382.65L535.92,378.27L537.15,394.25L538.38,400.07L539.6,409.59L540.83,429.6L542.06,420.63L543.29,437L544.52,431.04L545.75,437L546.98,437L628.1,437L629.33,434.61L634.25,396.25L635.48,402.81L637.94,432.33L639.17,435.04L644.08,362.96L645.31,379.38L647.77,402.16L649,419.13L650.23,413.12L651.46,422.38L652.69,436.06L653.92,437L754.71,437L755.94,434.27L757.17,432.95L758.4,418.49L762.08,379.48L763.31,400.01L764.54,405.51L765.77,431.65L767,437L768.23,437L769.46,434.02L770.69,425.91L771.92,436.11L773.15,428.68L774.38,437L775.6,437L826,437" style="vector-effect: non-scaling-stroke; fill: none; stroke: rgb(227, 119, 194); stroke-opacity: 1; stroke-width: 2px; opacity: 1;"/></g><g class="points"/><g class="text"/></g><g class="trace scatter trace1f918d" style="stroke-miterlimit: 2; opacity: 1;"><g class="fills"/><g class="errorbars"/><g class="lines"><path class="js-line" d="M0,437L84.81,437L86.04,401.44L87.27,392.69L88.5,282.25L89.73,397.45L90.96,402.84L92.19,396.32L93.42,404.87L94.65,437L95.88,437L140.13,437L141.35,404.52L142.58,419.18L143.81,415.82L146.27,419.74L147.5,411.34L148.73,409.48L149.96,409.86L151.19,415.21L152.42,416.14L153.65,412.29L154.88,421.21L157.33,435.26L158.56,437L204.04,437L205.27,379.93L206.5,381.05L207.73,390.9L208.96,437L210.19,437L440.04,437L441.27,410.14L444.96,387.06L446.19,399.95L447.42,398.76L448.65,393.4L449.88,402.54L451.1,389.02L452.33,398.39L453.56,397.55L454.79,378.82L456.02,403.09L457.25,394.65L458.48,406.65L459.71,389.29L460.94,406.02L462.17,416.16L463.4,402.96L464.63,405.96L465.85,393.91L467.08,398.24L468.31,410.05L470.77,395.7L472,411.3L473.23,410.48L474.46,415.58L475.69,437L476.92,437L492.9,437L494.13,409.27L495.35,421.78L496.58,417.61L497.81,393.49L499.04,390.09L500.27,406.8L501.5,404.38L502.73,414.86L503.96,437L554.35,437L555.58,404.05L556.81,412.46L558.04,411.6L559.27,403.41L560.5,385.48L561.73,386.23L562.96,395.61L564.19,405.1L565.42,387.59L566.65,391.71L567.88,404.05L569.1,406.99L570.33,407.28L571.56,393.74L572.79,418.33L574.02,437L575.25,437L617.04,437L618.27,415.86L619.5,405.86L620.73,418.06L621.96,401.77L623.19,412.91L624.42,437L625.65,437L796.5,437L797.73,374.04L798.96,398.14L800.19,391.73L801.42,368.03L802.65,389.15L803.88,328.22L805.1,387.94L806.33,405.66L807.56,391.59L810.02,410.7L811.25,408.17L812.48,409.31L813.71,393.46L814.94,405.13L816.17,406.14L817.4,408.92L818.63,400.33L821.08,393.96L822.31,399.58L824.77,416.47L826,406.35" style="vector-effect: non-scaling-stroke; fill: none; stroke: rgb(23, 190, 207); stroke-opacity: 1; stroke-width: 2px; opacity: 1;"/></g><g class="points"/><g class="text"/></g></g></g><g class="overplot"/><path class="xlines-above crisp" d="M0,0" style="fill: none;"/><path class="ylines-above crisp" d="M0,0" style="fill: none;"/><g class="overlines-above"/><g class="xaxislayer-above"><g class="xtick"><text text-anchor="middle" x="0" y="530" transform="translate(78,0)" style="font-family: 'Open Sans', verdana, arial, sans-serif; font-size: 19px; fill: rgb(42, 63, 95); fill-opacity: 1; white-space: pre; opacity: 1;"><tspan class="line" dy="0em" x="0" y="530">Nov 19</tspan><tspan class="line" dy="1.3em" x="0" y="530">2019</tspan></text></g><g class="xtick"><text text-anchor="middle" x="0" y="530" style="font-family: 'Open Sans', verdana, arial, sans-serif; font-size: 19px; fill: rgb(42, 63, 95); fill-opacity: 1; white-space: pre; opacity: 1;" transform="translate(196,0)">Nov 20</text></g><g class="xtick"><text text-anchor="middle" x="0" y="530" style="font-family: 'Open Sans', verdana, arial, sans-serif; font-size: 19px; fill: rgb(42, 63, 95); fill-opacity: 1; white-space: pre; opacity: 1;" transform="translate(314,0)">Nov 21</text></g><g class="xtick"><text text-anchor="middle" x="0" y="530" style="font-family: 'Open Sans', verdana, arial, sans-serif; font-size: 19px; fill: rgb(42, 63, 95); fill-opacity: 1; white-space: pre; opacity: 1;" transform="translate(432,0)">Nov 22</text></g><g class="xtick"><text text-anchor="middle" x="0" y="530" style="font-family: 'Open Sans', verdana, arial, sans-serif; font-size: 19px; fill: rgb(42, 63, 95); fill-opacity: 1; white-space: pre; opacity: 1;" transform="translate(550,0)">Nov 23</text></g><g class="xtick"><text text-anchor="middle" x="0" y="530" style="font-family: 'Open Sans', verdana, arial, sans-serif; font-size: 19px; fill: rgb(42, 63, 95); fill-opacity: 1; white-space: pre; opacity: 1;" transform="translate(668,0)">Nov 24</text></g><g class="xtick"><text text-anchor="middle" x="0" y="530" style="font-family: 'Open Sans', verdana, arial, sans-serif; font-size: 19px; fill: rgb(42, 63, 95); fill-opacity: 1; white-space: pre; opacity: 1;" transform="translate(786,0)">Nov 25</text></g><g class="xtick"><text text-anchor="middle" x="0" y="530" style="font-family: 'Open Sans', verdana, arial, sans-serif; font-size: 19px; fill: rgb(42, 63, 95); fill-opacity: 1; white-space: pre; opacity: 1;" transform="translate(904,0)">Nov 26</text></g></g><g class="yaxislayer-above"><g class="ytick"><text text-anchor="end" x="77" y="6.6499999999999995" transform="translate(0,487)" style="font-family: 'Open Sans', verdana, arial, sans-serif; font-size: 19px; fill: rgb(42, 63, 95); fill-opacity: 1; white-space: pre; opacity: 1;">0</text></g><g class="ytick"><text text-anchor="end" x="77" y="6.6499999999999995" style="font-family: 'Open Sans', verdana, arial, sans-serif; font-size: 19px; fill: rgb(42, 63, 95); fill-opacity: 1; white-space: pre; opacity: 1;" transform="translate(0,432.35)">20</text></g><g class="ytick"><text text-anchor="end" x="77" y="6.6499999999999995" style="font-family: 'Open Sans', verdana, arial, sans-serif; font-size: 19px; fill: rgb(42, 63, 95); fill-opacity: 1; white-space: pre; opacity: 1;" transform="translate(0,377.7)">40</text></g><g class="ytick"><text text-anchor="end" x="77" y="6.6499999999999995" style="font-family: 'Open Sans', verdana, arial, sans-serif; font-size: 19px; fill: rgb(42, 63, 95); fill-opacity: 1; white-space: pre; opacity: 1;" transform="translate(0,323.05)">60</text></g><g class="ytick"><text text-anchor="end" x="77" y="6.6499999999999995" style="font-family: 'Open Sans', verdana, arial, sans-serif; font-size: 19px; fill: rgb(42, 63, 95); fill-opacity: 1; white-space: pre; opacity: 1;" transform="translate(0,268.4)">80</text></g><g class="ytick"><text text-anchor="end" x="77" y="6.6499999999999995" style="font-family: 'Open Sans', verdana, arial, sans-serif; font-size: 19px; fill: rgb(42, 63, 95); fill-opacity: 1; white-space: pre; opacity: 1;" transform="translate(0,213.75)">100</text></g><g class="ytick"><text text-anchor="end" x="77" y="6.6499999999999995" style="font-family: 'Open Sans', verdana, arial, sans-serif; font-size: 19px; fill: rgb(42, 63, 95); fill-opacity: 1; white-space: pre; opacity: 1;" transform="translate(0,159.09)">120</text></g><g class="ytick"><text text-anchor="end" x="77" y="6.6499999999999995" style="font-family: 'Open Sans', verdana, arial, sans-serif; font-size: 19px; fill: rgb(42, 63, 95); fill-opacity: 1; white-space: pre; opacity: 1;" transform="translate(0,104.44)">140</text></g></g><g class="overaxes-above"/></g></g><g class="polarlayer"/><g class="ternarylayer"/><g class="geolayer"/><g class="funnelarealayer"/><g class="pielayer"/><g class="iciclelayer"/><g class="treemaplayer"/><g class="sunburstlayer"/><g class="glimages"/><defs id="topdefs-7d92e6"><g class="clips"/><clipPath id="legend7d92e6"><rect width="169" height="207" x="0" y="0"/></clipPath></defs><g class="layer-above"><g class="imagelayer"/><g class="shapelayer"/></g><g class="infolayer"><g class="legend" pointer-events="all" transform="translate(920.52,50)"><rect class="bg" shape-rendering="crispEdges" width="169" height="207" x="0" y="0" style="stroke: rgb(68, 68, 68); stroke-opacity: 1; fill: rgb(255, 255, 255); fill-opacity: 1; stroke-width: 0px;"/><g class="scrollbox" transform="" clip-path="url(#legend7d92e6)"><text class="legendtitletext" text-anchor="start" x="2" y="29.900000000000002" style="font-family: 'Open Sans', verdana, arial, sans-serif; font-size: 23px; fill: rgb(42, 63, 95); fill-opacity: 1; white-space: pre;">variable</text><g class="groups" transform=""><g class="traces" transform="translate(0,48.75)" style="opacity: 1;"><text class="legendtext" text-anchor="start" x="40" y="7.409999999999999" style="font-family: 'Open Sans', verdana, arial, sans-serif; font-size: 19px; fill: rgb(42, 63, 95); fill-opacity: 1; white-space: pre;">grid_kw</text><g class="layers" style="opacity: 1;"><g class="legendfill"/><g class="legendlines"><path class="js-line" d="M5,0h30" style="fill: none; stroke: rgb(214, 39, 40); stroke-opacity: 1; stroke-width: 2px;"/></g><g class="legendsymbols"><g class="legendpoints"/></g></g><rect class="legendtoggle" x="0" y="-13.85" width="163.015625" height="27.7" style="fill: rgb(0, 0, 0); fill-opacity: 0;"/></g><g class="traces" transform="translate(0,76.45)" style="opacity: 1;"><text class="legendtext" text-anchor="start" x="40" y="7.409999999999999" style="font-family: 'Open Sans', verdana, arial, sans-serif; font-size: 19px; fill: rgb(42, 63, 95); fill-opacity: 1; white-space: pre;">battery_kWh</text><g class="layers" style="opacity: 1;"><g class="legendfill"/><g class="legendlines"><path class="js-line" d="M5,0h30" style="fill: none; stroke: rgb(44, 160, 44); stroke-opacity: 1; stroke-width: 2px;"/></g><g class="legendsymbols"><g class="legendpoints"/></g></g><rect class="legendtoggle" x="0" y="-13.85" width="163.015625" height="27.7" style="fill: rgb(0, 0, 0); fill-opacity: 0;"/></g></g><g class="groups" transform=""><g class="traces" transform="translate(0,104.14999999999999)" style="opacity: 1;"><text class="legendtext" text-anchor="start" x="40" y="7.409999999999999" style="font-family: 'Open Sans', verdana, arial, sans-serif; font-size: 19px; fill: rgb(42, 63, 95); fill-opacity: 1; white-space: pre;">pv_curtailed</text><g class="layers" style="opacity: 1;"><g class="legendfill"/><g class="legendlines"><path class="js-line" d="M5,0h30" style="fill: none; stroke: rgb(255, 127, 14); stroke-opacity: 1; stroke-width: 2px;"/></g><g class="legendsymbols"><g class="legendpoints"/></g></g><rect class="legendtoggle" x="0" y="-13.85" width="163.015625" height="27.7" style="fill: rgb(0, 0, 0); fill-opacity: 0;"/></g></g><g class="groups" transform=""><g class="traces" transform="translate(0,131.85)" style="opacity: 1;"><text class="legendtext" text-anchor="start" x="40" y="7.409999999999999" style="font-family: 'Open Sans', verdana, arial, sans-serif; font-size: 19px; fill: rgb(42, 63, 95); fill-opacity: 1; white-space: pre;">co2_g_kwh</text><g class="layers" style="opacity: 1;"><g class="legendfill"/><g class="legendlines"><path class="js-line" d="M5,0h30" style="fill: none; stroke: rgb(188, 189, 34); stroke-opacity: 1; stroke-width: 2px;"/></g><g class="legendsymbols"><g class="legendpoints"/></g></g><rect class="legendtoggle" x="0" y="-13.85" width="163.015625" height="27.7" style="fill: rgb(0, 0, 0); fill-opacity: 0;"/></g></g><g class="groups" transform=""><g class="traces" transform="translate(0,159.54999999999998)" style="opacity: 1;"><text class="legendtext" text-anchor="start" x="40" y="7.409999999999999" style="font-family: 'Open Sans', verdana, arial, sans-serif; font-size: 19px; fill: rgb(42, 63, 95); fill-opacity: 1; white-space: pre;">batteryin</text><g class="layers" style="opacity: 1;"><g class="legendfill"/><g class="legendlines"><path class="js-line" d="M5,0h30" style="fill: none; stroke: rgb(227, 119, 194); stroke-opacity: 1; stroke-width: 2px;"/></g><g class="legendsymbols"><g class="legendpoints"/></g></g><rect class="legendtoggle" x="0" y="-13.85" width="163.015625" height="27.7" style="fill: rgb(0, 0, 0); fill-opacity: 0;"/></g></g><g class="groups" transform=""><g class="traces" transform="translate(0,187.25)" style="opacity: 1;"><text class="legendtext" text-anchor="start" x="40" y="7.409999999999999" style="font-family: 'Open Sans', verdana, arial, sans-serif; font-size: 19px; fill: rgb(42, 63, 95); fill-opacity: 1; white-space: pre;">batteryout</text><g class="layers" style="opacity: 1;"><g class="legendfill"/><g class="legendlines"><path class="js-line" d="M5,0h30" style="fill: none; stroke: rgb(23, 190, 207); stroke-opacity: 1; stroke-width: 2px;"/></g><g class="legendsymbols"><g class="legendpoints"/></g></g><rect class="legendtoggle" x="0" y="-13.85" width="163.015625" height="27.7" style="fill: rgb(0, 0, 0); fill-opacity: 0;"/></g></g></g><rect class="scrollbar" rx="20" ry="3" width="0" height="0" x="0" y="0" style="fill: rgb(128, 139, 164); fill-opacity: 1;"/></g><g class="g-gtitle"/><g class="g-xtitle"/><g class="g-ytitle" transform="translate(13.349609375,0)"><text class="ytitle" transform="rotate(-90,9.650000000000006,280)" x="9.650000000000006" y="280" text-anchor="middle" style="font-family: 'Open Sans', verdana, arial, sans-serif; font-size: 23px; fill: rgb(42, 63, 95); opacity: 1; font-weight: normal; white-space: pre;">Legend</text></g></g></svg>