<svg class="main-svg" xmlns="http://www.w3.org/2000/svg" xmlns:xlink="http://www.w3.org/1999/xlink" width="1100" height="600" viewBox="0 0 1100 600"><rect x="0" y="0" width="1100" height="600" style="fill: rgb(255, 255, 255); fill-opacity: 1;"/><defs id="defs-e54ada"><g class="clips"><clipPath id="clipe54adaxyplot" class="plotclip"><rect width="826" height="460"/></clipPath><clipPath class="axesclip" id="clipe54adax"><rect x="78" y="0" width="826" height="600"/></clipPath><clipPath class="axesclip" id="clipe54aday"><rect x="0" y="50" width="1100" height="460"/></clipPath><clipPath class="axesclip" id="clipe54adaxy"><rect x="78" y="50" width="826" height="460"/></clipPath></g><g class="gradients"/><g class="patterns"/></defs><g class="bglayer"/><g class="layer-below"><g class="imagelayer"/><g class="shapelayer"/></g><g class="cartesianlayer"><g class="subplot xy"><g class="layer-subplot"><g class="shapelayer"/><g class="imagelayer"/></g><g class="gridlayer"><g class="x"><path class="xgrid crisp" transform="translate(196,0)" d="M0,50v460" style="stroke: rgb(235, 240, 248); stroke-opacity: 1; stroke-width: 1px;"/><path class="xgrid crisp" transform="translate(314,0)" d="M0,50v460" style="stroke: rgb(235, 240, 248); stroke-opacity: 1; stroke-width: 1px;"/><path class="xgrid crisp" transform="translate(432,0)" d="M0,50v460" style="stroke: rgb(235, 240, 248); stroke-opacity: 1; stroke-width: 1px;"/><path class="xgrid crisp" transform="translate(550,0)" d="M0,50v460" style="stroke: rgb(235, 240, 248); stroke-opacity: 1; stroke-width: 1px;"/><path class="xgrid crisp" transform="translate(668,0)" d="M0,50v460" style="stroke: rgb(235, 240, 248); stroke-opacity: 1; stroke-width: 1px;"/><path class="xgrid crisp" transform="translate(786,0)" d="M0,50v460" style="stroke: rgb(235, 240, 248); stroke-opacity: 1; stroke-width: 1px;"/></g><g class="y"><path class="ygrid crisp" transform="translate(0,432.35)" d="M78,0h826" style="stroke: rgb(235, 240, 248); stroke-opacity: 1; stroke-width: 1px;"/><path class="ygrid crisp" transform="translate(0,377.7)" d="M78,0h826" style="stroke: rgb(235, 240, 248); stroke-opacity: 1; stroke-width: 1px;"/><path class="ygrid crisp" transform="translate(0,323.05)" d="M78,0h826" style="stroke: rgb(235, 240, 248); stroke-opacity: 1; stroke-width: 1px;"/><path class="ygrid crisp" transform="translate(0,268.4)" d="M78,0h826" style="stroke: rgb(235, 240, 248); stroke-opacity: 1; stroke-width: 1px;"/><path class="ygrid crisp" transform="translate(0,213.75)" d="M78,0h826" style="stroke: rgb(235, 240, 248); stroke-opacity: 1; stroke-width: 1px;"/><path class="ygrid crisp" transform="translate(0,159.09)" d="M78,0h826" style="stroke: rgb(235, 240, 248); stroke-opacity: 1; stroke-width: 1px;"/><path class="ygrid crisp" transform="translate(0,104.44)" d="M78,0h826" style="stroke: rgb(235, 240, 248); stroke-opacity: 1; stroke-width: 1px;"/></g></g><g class="zerolinelayer"><path class="yzl zl crisp" transform="translate(0,487)" d="M78,0h826" style="stroke: rgb(0, 0, 0); stroke-opacity: 1; stroke-width: 2px;"/></g><path class="xlines-below"/><path class="ylines-below"/><g class="overlines-below"/><g class="xaxislayer-below"/><g class="yaxislayer-below"/><g class="overaxes-below"/><g class="plot" transform="translate(78,50)" clip-path="url(#clipe54adaxyplot)"><g class="scatterlayer mlayer"><g class="trace scatter trace9f3f38" style="stroke-miterlimit: 2; opacity: 1;"><g class="fills"/><g class="errorbars"/><g class="lines"><path class="js-line" d="M0,378.27L1.23,385.8L2.46,411.24L3.69,411.66L4.92,405.58L7.38,397.71L8.6,398.06L9.83,357.06L11.06,373.19L12.29,361.03L13.52,363.53L15.98,398.88L17.21,374.6L18.44,365.46L19.67,385.29L20.9,437L22.13,437L76.21,437L77.44,410.77L78.67,399.25L79.9,408.48L81.13,413.31L82.35,405.68L83.58,437L84.81,437L95.88,437L97.1,379.86L98.33,379.66L99.56,381.13L100.79,358.81L102.02,364.36L103.25,380.14L104.48,380.47L106.94,437L108.17,437L109.4,391.87L110.63,392.3L111.85,384.59L113.08,390.4L114.31,383.08L115.54,394.28L116.77,392.32L118,395.5L119.23,408.54L120.46,407.07L121.69,414.16L122.92,416.42L124.15,404.66L125.38,408.22L126.6,414.36L127.83,379.61L129.06,339.06L130.29,385.26L131.52,406.48L132.75,400.47L133.98,399.35L135.21,403.6L136.44,382.18L137.67,392.1L138.9,396.25L140.13,387.17L142.58,401.59L143.81,378.34L145.04,296.09L146.27,317.77L147.5,381.49L148.73,370.96L149.96,376.91L151.19,323.71L152.42,374L153.65,384.56L154.88,400.59L156.1,396.36L157.33,403.07L158.56,399.69L159.79,398.49L161.02,431.09L162.25,437L163.48,424.67L167.17,413.99L168.4,420.74L170.85,428.55L172.08,434.33L173.31,411.74L174.54,407.43L177,397.78L178.23,394.93L179.46,393.25L180.69,407.65L183.15,411.51L184.38,411.82L185.6,420.47L186.83,408.5L188.06,409.77L189.29,401.15L190.52,422.91L191.75,428.37L192.98,399.37L194.21,425.34L195.44,413.47L196.67,411.03L197.9,405.54L199.13,405.33L200.35,399.25L201.58,404.89L202.81,397.05L204.04,401.23L205.27,401.75L206.5,393.05L207.73,381.37L208.96,391.54L210.19,377.68L211.42,382.73L212.65,385.97L213.88,380.41L215.1,381.44L216.33,386.37L217.56,377.44L218.79,395.03L220.02,394.88L221.25,400.11L222.48,393.86L223.71,393.96L224.94,400.76L226.17,400.48L228.63,389.59L229.85,396.1L231.08,407.81L232.31,407.67L233.54,409.05L234.77,406.75L236,405.71L237.23,409.04L238.46,417.24L239.69,406.79L242.15,421.43L243.38,417.86L245.83,412L247.06,410.27L249.52,401.91L250.75,393.54L251.98,407.77L253.21,395.22L254.44,385.97L255.67,394.43L256.9,406.42L258.13,407.01L259.35,410.2L260.58,408.91L261.81,408.99L263.04,410.5L264.27,437L265.5,437L288.85,437L290.08,430.69L291.31,427.51L292.54,420.57L296.23,398.05L297.46,425.93L298.69,437L299.92,437L302.38,381.9L303.6,382.44L304.83,379.68L306.06,374.53L308.52,398.23L309.75,400.26L310.98,403.77L312.21,437L314.67,437L315.9,420.57L318.35,379.8L319.58,397.26L322.04,407.45L323.27,402.85L324.5,345.28L325.73,343.13L326.96,378.65L328.19,387L329.42,384.42L330.65,397.31L331.88,385.12L333.1,362.29L334.33,353.67L335.56,367.72L338.02,390.05L339.25,387.29L340.48,396.05L341.71,357.03L344.17,392.99L345.4,372.52L346.63,354.94L347.85,319.59L349.08,365.28L350.31,381.65L351.54,379.14L352.77,395.76L355.23,404.25L356.46,398.65L358.92,416.81L360.15,408.08L361.38,410.3L362.6,399.89L363.83,399.49L365.06,394.35L366.29,392.43L367.52,380.94L368.75,345.29L369.98,392.67L371.21,392.63L372.44,369.34L373.67,326.19L374.9,332.33L377.35,413.11L378.58,406.61L379.81,401.43L381.04,409.81L383.5,397.64L384.73,386.51L385.96,397.36L387.19,395.23L388.42,406.07L389.65,408.75L390.88,410.43L392.1,425.32L393.33,427.71L394.56,424.55L397.02,419.37L398.25,424.75L400.71,423.2L401.94,424.27L403.17,422.55L404.4,411.13L405.63,422.69L406.85,410.31L408.08,417.65L409.31,414.39L410.54,429.76L411.77,423.64L413,426.06L414.23,430.7L415.46,431.82L416.69,427.9L417.92,427.3L419.15,411.4L420.38,423.13L421.6,415.27L422.83,415.94L424.06,390.04L425.29,369.3L426.52,400.6L427.75,376.37L428.98,387.29L430.21,373.76L431.44,387.36L432.67,381.48L433.9,393.16L435.13,378.06L436.35,402.33L438.81,412.8L440.04,406L442.5,368.94L443.73,384.25L444.96,367.46L446.19,389.84L447.42,374.11L448.65,370.34L449.88,370L451.1,391.95L453.56,362.08L454.79,384.73L456.02,391.6L457.25,405.17L459.71,389.14L460.94,387.27L462.17,391.79L463.4,383.55L464.63,385.28L465.85,381.45L467.08,392.89L468.31,369.99L469.54,386.35L470.77,391.51L472,380.55L473.23,394.77L474.46,366.04L475.69,387.52L476.92,406.66L478.15,400.14L479.38,400.5L480.6,390.02L481.83,369.59L483.06,363.17L485.52,401.03L486.75,394.82L487.98,398.3L489.21,376.76L490.44,378.25L491.67,395.79L492.9,396.03L494.13,375.64L496.58,408.94L497.81,407.41L499.04,410.17L500.27,405.66L501.5,404.91L502.73,402.53L505.19,400.13L506.42,410.12L507.65,415.81L508.88,400.65L510.1,407.12L511.33,378.37L512.56,408.11L513.79,414.42L516.25,422.92L517.48,423.33L519.94,410.88L521.17,405.62L522.4,405.77L523.63,422.55L524.85,393.86L526.08,412.25L528.54,437L529.77,437L533.46,437L534.69,430.8L537.15,387.78L538.38,398.58L539.6,411.75L540.83,413.62L542.06,400.65L543.29,397.06L544.52,427.17L545.75,423.44L546.98,426.13L548.21,403.83L549.44,399.47L550.67,430.15L554.35,394.91L555.58,388.17L556.81,406.47L558.04,409.9L559.27,407.36L560.5,387.54L561.73,343.08L562.96,389.41L564.19,402.1L565.42,382.84L566.65,399.39L567.88,391.05L569.1,387.69L570.33,401.21L571.56,390.15L572.79,390.5L574.02,377.59L575.25,377.57L576.48,381.89L577.71,368.11L578.94,394.96L580.17,350.89L581.4,389.71L582.63,381.53L583.85,375.29L585.08,381.99L586.31,382.81L587.54,380.8L588.77,370.73L590,379.88L591.23,391.09L592.46,375.77L593.69,402.26L594.92,402.64L596.15,405.14L597.38,395.43L598.6,367.85L599.83,394.25L601.06,392.39L602.29,260.28L603.52,385.51L604.75,404.17L605.98,404.13L607.21,397.13L609.67,371.85L610.9,380.22L612.13,386.23L613.35,402.04L614.58,388.22L615.81,407.01L617.04,403.1L618.27,406.24L619.5,412.24L620.73,400.28L621.96,397.86L623.19,437L668.67,437L669.9,425.18L671.13,426.08L672.35,402.73L673.58,408.28L674.81,406.09L676.04,405.8L677.27,403.4L679.73,371.1L680.96,395.82L682.19,403.93L683.42,387.32L684.65,401.15L685.88,400.68L688.33,389.82L689.56,375.63L690.79,393.67L692.02,391.66L693.25,399.45L694.48,395L695.71,391.02L696.94,394.84L698.17,383.72L699.4,394.66L700.63,377.92L701.85,399.42L703.08,387.75L704.31,383.88L705.54,368.68L706.77,398.84L708,397.44L709.23,385.84L710.46,407.52L711.69,409.97L712.92,419.44L714.15,410.34L715.38,412.07L716.6,415.61L717.83,385.01L719.06,391.52L720.29,405.49L721.52,410.26L723.98,398.82L725.21,413.94L726.44,399.33L727.67,397.89L728.9,411.06L730.13,404.77L731.35,395.45L732.58,402.52L735.04,365.59L736.27,437L764.54,437L765.77,432.53L767,417.41L768.23,423.83L769.46,437L770.69,429.67L771.92,437L773.15,431.31L774.38,428.09L775.6,411.69L776.83,411.92L778.06,416.91L779.29,399.32L780.52,358.29L781.75,418.38L782.98,417.93L784.21,381.57L785.44,371.05L787.9,411.69L789.13,432.29L790.35,437L791.58,437L801.42,437L802.65,395.73L803.88,395.06L805.1,375.55L806.33,379.91L807.56,375.31L808.79,372.46L810.02,355.3L811.25,374.49L812.48,381.65L813.71,360.94L814.94,383.74L816.17,397.39L817.4,390.24L818.63,405.84L819.85,384.03L821.08,385.62L822.31,392.97L823.54,393.41L824.77,379.54L826,437" style="vector-effect: non-scaling-stroke; fill: none; stroke: rgb(214, 39, 40); stroke-opacity: 1; stroke-width: 2px; opacity: 1;"/></g><g class="points"/><g class="text"/></g><g class="trace scatter tracea0028b" style="stroke-miterlimit: 2; opacity: 1;"><g class="fills"/><g class="errorbars"/><g class="lines"><path class="js-line" d="M0,437L36.88,437L38.1,421.07L39.33,437L40.56,437L43.02,437L44.25,408.48L45.48,437L46.71,437L55.31,437L56.54,406.57L57.77,437L59,437L625.65,437L626.88,423.1L628.1,437L629.33,437L630.56,437L631.79,375.4L633.02,437L634.25,437L635.48,361.29L636.71,437L637.94,337.54L639.17,437L640.4,340.3L641.63,437L642.85,437L644.08,327.89L645.31,437L646.54,324.88L647.77,437L649,437L650.23,339.92L651.46,437L652.69,356.84L653.92,437L655.15,437L656.38,371.52L657.6,437L658.83,371.16L660.06,437L661.29,394.93L662.52,437L663.75,437L826,437" style="vector-effect: non-scaling-stroke; fill: none; stroke: rgb(255, 127, 14); stroke-opacity: 1; stroke-width: 2px; opacity: 1;"/></g><g class="points"/><g class="text"/></g><g class="trace scatter trace82a352" style="stroke-miterlimit: 2; opacity: 1;"><g class="fills"/><g class="errorbars"/><g class="lines"><path class="js-line" d="M0,231.91L20.9,231.91L22.13,250.82L28.27,299.32L29.5,309.1L31.96,327.66L33.19,333.56L35.65,350.4L36.88,354.2L39.33,353.51L40.56,350.46L44.25,331.16L45.48,331.16L49.17,294.24L50.4,286.62L52.85,267.42L54.08,265.1L56.54,253.63L57.77,248.16L60.23,210.5L61.46,187.93L65.15,123.08L66.38,105.13L70.06,63.47L71.29,52.56L74.98,24.79L76.21,23.97L77.44,23L78.67,23L83.58,23L84.81,32.12L87.27,85.65L88.5,94.73L97.1,196.06L98.33,196.06L106.94,196.06L108.17,204.94L109.4,217.55L110.63,217.55L162.25,217.55L163.48,215.81L263.04,215.81L264.27,219.39L266.73,241.79L267.96,256.59L272.88,298.3L274.1,307.35L277.79,328.77L279.02,337.39L281.48,352.88L282.71,354.2L283.94,350.85L285.17,343.72L288.85,316.23L290.08,315.95L298.69,315.95L299.92,314.51L302.38,313.82L303.6,313.82L312.21,313.82L313.44,324.03L315.9,349.22L317.13,354.2L528.54,354.2L529.77,351.23L533.46,337.1L534.69,336.36L621.96,336.36L623.19,341.9L625.65,351.96L626.88,354.2L628.1,354.2L629.33,347.72L631.79,325.72L633.02,325.72L635.48,295.31L636.71,295.31L637.94,273.96L639.17,273.96L640.4,250.39L641.63,250.39L644.08,202.37L645.31,202.37L646.54,176.62L647.77,176.62L650.23,133.82L651.46,133.82L652.69,116.03L653.92,116.03L656.38,82.06L657.6,82.06L658.83,70.27L660.06,70.27L661.29,58.1L662.52,55.48L666.21,31.39L667.44,27.47L668.67,23.77L669.9,23L736.27,23L737.5,39.25L739.96,59.56L741.19,69.94L743.65,113.86L744.88,122.23L751.02,161.07L752.25,160.32L753.48,158.86L754.71,158.59L755.94,156.38L757.17,152.54L760.85,141.5L762.08,134.66L764.54,119.55L765.77,115.88L769.46,115.88L770.69,114.54L771.92,114.54L773.15,112.85L789.13,112.85L790.35,117.76L796.5,160.35L797.73,174.99L802.65,231.91L803.88,231.91L826,231.91" style="vector-effect: non-scaling-stroke; fill: none; stroke: rgb(44, 160, 44); stroke-opacity: 1; stroke-width: 2px; opacity: 1;"/></g><g class="points"/><g class="text"/></g><g class="trace scatter trace9214c5" style="stroke-miterlimit: 2; opacity: 1;"><g class="fills"/><g class="errorbars"/><g class="lines"><path class="js-line" d="M0,303.13L6.15,303.82L7.38,303.35L11.06,301.45L12.29,300.5L14.75,298.6L15.98,295.78L19.67,287.32L20.9,281.72L29.5,245.42L30.73,241.41L35.65,227.83L36.88,226.27L39.33,223.17L40.56,224.45L45.48,229.01L46.71,229.73L52.85,234.13L54.08,235.12L61.46,231.61L62.69,230.84L76.21,221.8L77.44,220.89L79.9,218.2L81.13,216.42L88.5,206.4L89.73,206.4L93.42,206.4L94.65,209.69L98.33,219.57L99.56,218.95L104.48,215.82L105.71,214.54L108.17,211.97L109.4,214.88L114.31,228.29L115.54,232.95L118,242.26L119.23,241.93L122.92,240.95L124.15,241.78L127.83,244.26L129.06,246.29L132.75,252.36L133.98,250.34L137.67,244.29L138.9,239.26L142.58,224.18L143.81,224.3L147.5,224.65L148.73,225.98L152.42,229.99L153.65,230.2L158.56,230.59L159.79,230.35L163.48,230.37L164.71,230.87L167.17,231.87L168.4,230.84L179.46,222.31L180.69,221.54L183.15,220.46L184.38,220.15L186.83,219.54L188.06,220.12L191.75,221.86L192.98,221.46L196.67,220.24L197.9,220.89L201.58,222.85L202.81,224.45L206.5,229.23L207.73,229.34L217.56,230.62L218.79,231.36L221.25,232.86L222.48,231.79L226.17,228.56L227.4,228.81L233.54,229.44L234.77,229.38L239.69,228.47L240.92,228.19L247.06,229.2L248.29,229.73L250.75,230.77L251.98,229.46L255.67,225.52L256.9,222.94L260.58,215.19L261.81,214.49L269.19,209.62L270.42,208.69L279.02,211.41L280.25,211.68L285.17,217.22L286.4,219.78L290.08,227.46L291.31,227.72L295,228.51L296.23,227.95L301.15,226.27L302.38,226.26L306.06,225.6L307.29,224.95L310.98,222.57L312.21,221.49L314.67,219.31L315.9,222.4L322.04,235.86L323.27,237.96L324.5,240.05L325.73,240.13L329.42,240.34L330.65,239.64L335.56,236.2L336.79,234.88L339.25,232.22L340.48,232.68L344.17,234.05L345.4,245.4L352.77,306.7L354,315.78L362.6,321.16L363.83,322.08L376.13,322.53L377.35,322.66L382.27,323.8L383.5,324.14L392.1,325.41L393.33,325.47L404.4,326.04L405.63,326.63L409.31,327.82L410.54,327.82L421.6,328.52L422.83,328.66L430.21,330.52L431.44,330.65L436.35,330.45L437.58,330.35L443.73,331.28L444.96,331.11L448.65,330.2L449.88,329.62L453.56,328.31L454.79,328.15L458.48,326.97L459.71,326.08L463.4,324.17L464.63,324.02L469.54,322.71L470.77,322.21L472,321.7L473.23,319.81L476.92,314.13L478.15,314.16L484.29,314.94L485.52,315.27L489.21,315.69L490.44,315.74L491.67,315.78L492.9,314.55L496.58,310.88L497.81,311.8L501.5,314.56L502.73,314.34L506.42,313.66L507.65,315.19L512.56,320.46L513.79,321.13L517.48,322.68L518.71,322.87L527.31,323.82L528.54,323.6L533.46,322.12L534.69,321.6L538.38,320.74L539.6,320.57L543.29,320.71L544.52,320.87L546.98,321.79L548.21,322.56L556.81,327.99L558.04,328.21L561.73,328.5L562.96,328.34L566.65,327.44L567.88,326.85L574.02,323.08L575.25,322.22L588.77,318.15L590,317.61L597.38,318.15L598.6,318.05L601.06,318.36L602.29,318.77L605.98,319.25L607.21,318.93L614.58,316.36L615.81,313.38L625.65,290.57L626.88,289.23L629.33,286.56L630.56,286.37L636.71,285.95L637.94,286.04L639.17,286.13L640.4,287.24L644.08,290.57L645.31,290.32L650.23,290.02L651.46,290.47L664.98,294.69L666.21,294.59L671.13,294.8L672.35,295.02L677.27,295.22L678.5,295.21L683.42,296.31L684.65,299.5L689.56,310.43L690.79,311.82L693.25,314.59L694.48,314.85L698.17,315.64L699.4,316.85L704.31,320.84L705.54,321.18L709.23,321.63L710.46,321.41L714.15,321.34L715.38,321.71L722.75,323.18L723.98,322.1L727.67,318.86L728.9,313.29L733.81,292.89L735.04,289.17L737.5,281.75L738.73,280.64L742.42,277.31L743.65,277.47L752.25,279.19L753.48,280.49L767,295.7L768.23,295.75L775.6,296.6L776.83,296.83L784.21,289.96L785.44,289.17L791.58,285.55L792.81,285.77L801.42,286.62L802.65,290.55L807.56,303.86L808.79,305.41L812.48,309.35L813.71,310.21L817.4,313.24L818.63,314.56L821.08,317.2L822.31,317.17L826,317.09" style="vector-effect: non-scaling-stroke; fill: none; stroke: rgb(188, 189, 34); stroke-opacity: 1; stroke-width: 2px; opacity: 1;"/></g><g class="points"/><g class="text"/></g><g class="trace scatter traceb52c2a" style="stroke-miterlimit: 2; opacity: 1;"><g class="fills"/><g class="errorbars"/><g class="lines"><path class="js-line" d="M0,437L35.65,437L36.88,434.08L38.1,437L39.33,424.19L40.56,405.57L41.79,408.96L43.02,415.2L44.25,437L45.48,375.6L46.71,382.87L49.17,404.9L50.4,399.5L51.63,393.65L52.85,427.24L55.31,407.16L56.54,413.95L59,346.45L60.23,341.96L61.46,331.36L62.69,335.72L63.92,370.88L65.15,361.4L66.38,364.37L67.6,381.94L68.83,389.29L70.06,391.07L71.29,389.35L72.52,395.4L73.75,409.32L74.98,433.56L76.21,432.9L77.44,437L161.02,437L162.25,429.69L163.48,437L164.71,437L281.48,437L282.71,422.9L285.17,389.3L286.4,400.12L287.63,405.82L288.85,435.8L290.08,437L291.31,437L297.46,437L298.69,430.94L301.15,437L302.38,437L527.31,437L528.54,424.49L531,410.99L532.23,423.24L533.46,433.87L534.69,437L626.88,437L628.1,409.7L629.33,392.53L630.56,388.84L631.79,437L633.02,380.14L634.25,365.83L635.48,437L636.71,347.09L637.94,437L639.17,337.76L640.4,437L641.63,337.52L642.85,334.3L644.08,437L645.31,328.58L646.54,437L647.77,318.96L650.23,437L651.46,362.11L652.69,437L653.92,356.61L655.15,374.39L656.38,437L657.6,387.35L658.83,437L660.06,385.74L661.29,425.99L662.52,401.58L663.75,401.99L664.98,405.98L666.21,420.48L667.44,421.45L668.67,433.75L669.9,437L671.13,437L749.79,437L751.02,433.82L752.25,430.87L753.48,435.87L755.94,420.84L757.17,422.15L758.4,425.58L759.63,416.78L762.08,398.71L763.31,411.67L765.77,437L767,437L768.23,437L769.46,431.37L770.69,437L771.92,429.91L773.15,437L774.38,437L826,437" style="vector-effect: non-scaling-stroke; fill: none; stroke: rgb(227, 119, 194); stroke-opacity: 1; stroke-width: 2px; opacity: 1;"/></g><g class="points"/><g class="text"/></g><g class="trace scatter traceb3636a" style="stroke-miterlimit: 2; opacity: 1;"><g class="fills"/><g class="errorbars"/><g class="lines"><path class="js-line" d="M0,437L19.67,437L20.9,365.13L22.13,396.09L23.35,400.62L24.58,396.02L25.81,413.88L27.04,394.1L28.27,399.82L29.5,396.84L30.73,406.66L31.96,414.57L33.19,402.89L34.42,407.1L35.65,422.57L36.88,437L38.1,437L82.35,437L83.58,402.33L84.81,316.07L86.04,354.53L87.27,402.49L88.5,383.42L89.73,390.71L90.96,391.48L92.19,386.88L93.42,373.88L95.88,373.97L97.1,437L105.71,437L106.94,403.25L108.17,389.1L109.4,437L261.81,437L263.04,423.39L264.27,398.83L265.5,390.05L266.73,380.78L267.96,391.67L269.19,391.88L270.42,402.82L272.88,402.63L274.1,412.65L275.33,401.69L276.56,415.25L277.79,404.26L279.02,412.31L280.25,402.81L281.48,431.99L282.71,437L283.94,437L310.98,437L312.21,398.21L313.44,379.04L314.67,399.25L317.13,437L318.35,437L620.73,437L621.96,415.94L623.19,412.47L624.42,423.32L625.65,428.47L626.88,437L735.04,437L736.27,375.27L737.5,384.46L738.73,412.36L739.96,397.54L741.19,346.94L742.42,360.15L743.65,405.21L744.88,408.45L746.1,401.69L747.33,399.59L748.56,407.69L751.02,437L752.25,437L787.9,437L789.13,418.34L790.35,403.33L791.58,408.65L792.81,408.7L794.04,406.75L796.5,381.36L797.73,378.73L798.96,376.67L800.19,384.44L801.42,391.87L802.65,437L824.77,437L826,402.59" style="vector-effect: non-scaling-stroke; fill: none; stroke: rgb(23, 190, 207); stroke-opacity: 1; stroke-width: 2px; opacity: 1;"/></g><g class="points"/><g class="text"/></g></g></g><g class="overplot"/><path class="xlines-above crisp" d="M0,0" style="fill: none;"/><path class="ylines-above crisp" d="M0,0" style="fill: none;"/><g class="overlines-above"/><g class="xaxislayer-above"><g class="xtick"><text text-anchor="middle" x="0" y="530" transform="translate(78,0)" style="font-family: 'Open Sans', verdana, arial, sans-serif; font-size: 19px; fill: rgb(42, 63, 95); fill-opacity: 1; white-space: pre; opacity: 1;"><tspan class="line" dy="0em" x="0" y="530">Feb 12</tspan><tspan class="line" dy="1.3em" x="0" y="530">2019</tspan></text></g><g class="xtick"><text text-anchor="middle" x="0" y="530" style="font-family: 'Open Sans', verdana, arial, sans-serif; font-size: 19px; fill: rgb(42, 63, 95); fill-opacity: 1; white-space: pre; opacity: 1;" transform="translate(196,0)">Feb 13</text></g><g class="xtick"><text text-anchor="middle" x="0" y="530" style="font-family: 'Open Sans', verdana, arial, sans-serif; font-size: 19px; fill: rgb(42, 63, 95); fill-opacity: 1; white-space: pre; opacity: 1;" transform="translate(314,0)">Feb 14</text></g><g class="xtick"><text text-anchor="middle" x="0" y="530" style="font-family: 'Open Sans', verdana, arial, sans-serif; font-size: 19px; fill: rgb(42, 63, 95); fill-opacity: 1; white-space: pre; opacity: 1;" transform="translate(432,0)">Feb 15</text></g><g class="xtick"><text text-anchor="middle" x="0" y="530" style="font-family: 'Open Sans', verdana, arial, sans-serif; font-size: 19px; fill: rgb(42, 63, 95); fill-opacity: 1; white-space: pre; opacity: 1;" transform="translate(550,0)">Feb 16</text></g><g class="xtick"><text text-anchor="middle" x="0" y="530" style="font-family: 'Open Sans', verdana, arial, sans-serif; font-size: 19px; fill: rgb(42, 63, 95); fill-opacity: 1; white-space: pre; opacity: 1;" transform="translate(668,0)">Feb 17</text></g><g class="xtick"><text text-anchor="middle" x="0" y="530" style="font-family: 'Open Sans', verdana, arial, sans-serif; font-size: 19px; fill: rgb(42, 63, 95); fill-opacity: 1; white-space: pre; opacity: 1;" transform="translate(786,0)">Feb 18</text></g><g class="xtick"><text text-anchor="middle" x="0" y="530" style="font-family: 'Open Sans', verdana, arial, sans-serif; font-size: 19px; fill: rgb(42, 63, 95); fill-opacity: 1; white-space: pre; opacity: 1;" transform="translate(904,0)">Feb 19</text></g></g><g class="yaxislayer-above"><g class="ytick"><text text-anchor="end" x="77" y="6.6499999999999995" transform="translate(0,487)" style="font-family: 'Open Sans', verdana, arial, sans-serif; font-size: 19px; fill: rgb(42, 63, 95); fill-opacity: 1; white-space: pre; opacity: 1;">0</text></g><g class="ytick"><text text-anchor="end" x="77" y="6.6499999999999995" style="font-family: 'Open Sans', verdana, arial, sans-serif; font-size: 19px; fill: rgb(42, 63, 95); fill-opacity: 1; white-space: pre; opacity: 1;" transform="translate(0,432.35)">20</text></g><g class="ytick"><text text-anchor="end" x="77" y="6.6499999999999995" style="font-family: 'Open Sans', verdana, arial, sans-serif; font-size: 19px; fill: rgb(42, 63, 95); fill-opacity: 1; white-space: pre; opacity: 1;" transform="translate(0,377.7)">40</text></g><g class="ytick"><text text-anchor="end" x="77" y="6.6499999999999995" style="font-family: 'Open Sans', verdana, arial, sans-serif; font-size: 19px; fill: rgb(42, 63, 95); fill-opacity: 1; white-space: pre; opacity: 1;" transform="translate(0,323.05)">60</text></g><g class="ytick"><text text-anchor="end" x="77" y="6.6499999999999995" style="font-family: 'Open Sans', verdana, arial, sans-serif; font-size: 19px; fill: rgb(42, 63, 95); fill-opacity: 1; white-space: pre; opacity: 1;" transform="translate(0,268.4)">80</text></g><g class="ytick"><text text-anchor="end" x="77" y="6.6499999999999995" style="font-family: 'Open Sans', verdana, arial, sans-serif; font-size: 19px; fill: rgb(42, 63, 95); fill-opacity: 1; white-space: pre; opacity: 1;" transform="translate(0,213.75)">100</text></g><g class="ytick"><text text-anchor="end" x="77" y="6.6499999999999995" style="font-family: 'Open Sans', verdana, arial, sans-serif; font-size: 19px; fill: rgb(42, 63, 95); fill-opacity: 1; white-space: pre; opacity: 1;" transform="translate(0,159.09)">120</text></g><g class="ytick"><text text-anchor="end" x="77" y="6.6499999999999995" style="font-family: 'Open Sans', verdana, arial, sans-serif; font-size: 19px; fill: rgb(42, 63, 95); fill-opacity: 1; white-space: pre; opacity: 1;" transform="translate(0,104.44)">140</text></g></g><g class="overaxes-above"/></g></g><g class="polarlayer"/><g class="ternarylayer"/><g class="geolayer"/><g class="funnelarealayer"/><g class="pielayer"/><g class="iciclelayer"/><g class="treemaplayer"/><g class="sunburstlayer"/><g class="glimages"/><defs id="topdefs-e54ada"><g class="clips"/><clipPath id="legende54ada"><rect width="169" height="207" x="0" y="0"/></clipPath></defs><g class="layer-above"><g class="imagelayer"/><g class="shapelayer"/></g><g class="infolayer"><g class="legend" pointer-events="all" transform="translate(920.52,50)"><rect class="bg" shape-rendering="crispEdges" style="stroke: rgb(68, 68, 68); stroke-opacity: 1; fill: rgb(255, 255, 255); fill-opacity: 1; stroke-width: 0px;" width="169" height="207" x="0" y="0"/><g class="scrollbox" transform="" clip-path="url(#legende54ada)"><text class="legendtitletext" text-anchor="start" x="2" y="29.900000000000002" style="font-family: 'Open Sans', verdana, arial, sans-serif; font-size: 23px; fill: rgb(42, 63, 95); fill-opacity: 1; white-space: pre;">variable</text><g class="groups" transform=""><g class="traces" transform="translate(0,48.75)" style="opacity: 1;"><text class="legendtext" text-anchor="start" x="40" y="7.409999999999999" style="font-family: 'Open Sans', verdana, arial, sans-serif; font-size: 19px; fill: rgb(42, 63, 95); fill-opacity: 1; white-space: pre;">grid_kw</text><g class="layers" style="opacity: 1;"><g class="legendfill"/><g class="legendlines"><path class="js-line" d="M5,0h30" style="fill: none; stroke: rgb(214, 39, 40); stroke-opacity: 1; stroke-width: 2px;"/></g><g class="legendsymbols"><g class="legendpoints"/></g></g><rect class="legendtoggle" x="0" y="-13.85" width="163.015625" height="27.7" style="fill: rgb(0, 0, 0); fill-opacity: 0;"/></g><g class="traces" transform="translate(0,76.45)" style="opacity: 1;"><text class="legendtext" text-anchor="start" x="40" y="7.409999999999999" style="font-family: 'Open Sans', verdana, arial, sans-serif; font-size: 19px; fill: rgb(42, 63, 95); fill-opacity: 1; white-space: pre;">battery_kWh</text><g class="layers" style="opacity: 1;"><g class="legendfill"/><g class="legendlines"><path class="js-line" d="M5,0h30" style="fill: none; stroke: rgb(44, 160, 44); stroke-opacity: 1; stroke-width: 2px;"/></g><g class="legendsymbols"><g class="legendpoints"/></g></g><rect class="legendtoggle" x="0" y="-13.85" width="163.015625" height="27.7" style="fill: rgb(0, 0, 0); fill-opacity: 0;"/></g></g><g class="groups" transform=""><g class="traces" transform="translate(0,104.14999999999999)" style="opacity: 1;"><text class="legendtext" text-anchor="start" x="40" y="7.409999999999999" style="font-family: 'Open Sans', verdana, arial, sans-serif; font-size: 19px; fill: rgb(42, 63, 95); fill-opacity: 1; white-space: pre;">pv_curtailed</text><g class="layers" style="opacity: 1;"><g class="legendfill"/><g class="legendlines"><path class="js-line" d="M5,0h30" style="fill: none; stroke: rgb(255, 127, 14); stroke-opacity: 1; stroke-width: 2px;"/></g><g class="legendsymbols"><g class="legendpoints"/></g></g><rect class="legendtoggle" x="0" y="-13.85" width="163.015625" height="27.7" style="fill: rgb(0, 0, 0); fill-opacity: 0;"/></g></g><g class="groups" transform=""><g class="traces" transform="translate(0,131.85)" style="opacity: 1;"><text class="legendtext" text-anchor="start" x="40" y="7.409999999999999" style="font-family: 'Open Sans', verdana, arial, sans-serif; font-size: 19px; fill: rgb(42, 63, 95); fill-opacity: 1; white-space: pre;">co2_g_kwh</text><g class="layers" style="opacity: 1;"><g class="legendfill"/><g class="legendlines"><path class="js-line" d="M5,0h30" style="fill: none; stroke: rgb(188, 189, 34); stroke-opacity: 1; stroke-width: 2px;"/></g><g class="legendsymbols"><g class="legendpoints"/></g></g><rect class="legendtoggle" x="0" y="-13.85" width="163.015625" height="27.7" style="fill: rgb(0, 0, 0); fill-opacity: 0;"/></g></g><g class="groups" transform=""><g class="traces" transform="translate(0,159.54999999999998)" style="opacity: 1;"><text class="legendtext" text-anchor="start" x="40" y="7.409999999999999" style="font-family: 'Open Sans', verdana, arial, sans-serif; font-size: 19px; fill: rgb(42, 63, 95); fill-opacity: 1; white-space: pre;">batteryin</text><g class="layers" style="opacity: 1;"><g class="legendfill"/><g class="legendlines"><path class="js-line" d="M5,0h30" style="fill: none; stroke: rgb(227, 119, 194); stroke-opacity: 1; stroke-width: 2px;"/></g><g class="legendsymbols"><g class="legendpoints"/></g></g><rect class="legendtoggle" x="0" y="-13.85" width="163.015625" height="27.7" style="fill: rgb(0, 0, 0); fill-opacity: 0;"/></g></g><g class="groups" transform=""><g class="traces" transform="translate(0,187.25)" style="opacity: 1;"><text class="legendtext" text-anchor="start" x="40" y="7.409999999999999" style="font-family: 'Open Sans', verdana, arial, sans-serif; font-size: 19px; fill: rgb(42, 63, 95); fill-opacity: 1; white-space: pre;">batteryout</text><g class="layers" style="opacity: 1;"><g class="legendfill"/><g class="legendlines"><path class="js-line" d="M5,0h30" style="fill: none; stroke: rgb(23, 190, 207); stroke-opacity: 1; stroke-width: 2px;"/></g><g class="legendsymbols"><g class="legendpoints"/></g></g><rect class="legendtoggle" x="0" y="-13.85" width="163.015625" height="27.7" style="fill: rgb(0, 0, 0); fill-opacity: 0;"/></g></g></g><rect class="scrollbar" rx="20" ry="3" width="0" height="0" style="fill: rgb(128, 139, 164); fill-opacity: 1;" x="0" y="0"/></g><g class="g-gtitle"/><g class="g-xtitle"/><g class="g-ytitle" transform="translate(13.349609375,0)"><text class="ytitle" transform="rotate(-90,9.650000000000006,280)" x="9.650000000000006" y="280" text-anchor="middle" style="font-family: 'Open Sans', verdana, arial, sans-serif; font-size: 23px; fill: rgb(42, 63, 95); opacity: 1; font-weight: normal; white-space: pre;">Legend</text></g></g></svg>