<svg class="main-svg" xmlns="http://www.w3.org/2000/svg" xmlns:xlink="http://www.w3.org/1999/xlink" width="1100" height="600" viewBox="0 0 1100 600"><rect x="0" y="0" width="1100" height="600" style="fill: rgb(255, 255, 255); fill-opacity: 1;"/><defs id="defs-60a71c"><g class="clips"><clipPath id="clip60a71cxyplot" class="plotclip"><rect width="826" height="460"/></clipPath><clipPath class="axesclip" id="clip60a71cx"><rect x="78" y="0" width="826" height="600"/></clipPath><clipPath class="axesclip" id="clip60a71cy"><rect x="0" y="50" width="1100" height="460"/></clipPath><clipPath class="axesclip" id="clip60a71cxy"><rect x="78" y="50" width="826" height="460"/></clipPath></g><g class="gradients"/><g class="patterns"/></defs><g class="bglayer"/><g class="layer-below"><g class="imagelayer"/><g class="shapelayer"/></g><g class="cartesianlayer"><g class="subplot xy"><g class="layer-subplot"><g class="shapelayer"/><g class="imagelayer"/></g><g class="gridlayer"><g class="x"><path class="xgrid crisp" transform="translate(196,0)" d="M0,50v460" style="stroke: rgb(235, 240, 248); stroke-opacity: 1; stroke-width: 1px;"/><path class="xgrid crisp" transform="translate(314,0)" d="M0,50v460" style="stroke: rgb(235, 240, 248); stroke-opacity: 1; stroke-width: 1px;"/><path class="xgrid crisp" transform="translate(432,0)" d="M0,50v460" style="stroke: rgb(235, 240, 248); stroke-opacity: 1; stroke-width: 1px;"/><path class="xgrid crisp" transform="translate(550,0)" d="M0,50v460" style="stroke: rgb(235, 240, 248); stroke-opacity: 1; stroke-width: 1px;"/><path class="xgrid crisp" transform="translate(668,0)" d="M0,50v460" style="stroke: rgb(235, 240, 248); stroke-opacity: 1; stroke-width: 1px;"/><path class="xgrid crisp" transform="translate(786,0)" d="M0,50v460" style="stroke: rgb(235, 240, 248); stroke-opacity: 1; stroke-width: 1px;"/></g><g class="y"><path class="ygrid crisp" transform="translate(0,432.35)" d="M78,0h826" style="stroke: rgb(235, 240, 248); stroke-opacity: 1; stroke-width: 1px;"/><path class="ygrid crisp" transform="translate(0,377.7)" d="M78,0h826" style="stroke: rgb(235, 240, 248); stroke-opacity: 1; stroke-width: 1px;"/><path class="ygrid crisp" transform="translate(0,323.05)" d="M78,0h826" style="stroke: rgb(235, 240, 248); stroke-opacity: 1; stroke-width: 1px;"/><path class="ygrid crisp" transform="translate(0,268.4)" d="M78,0h826" style="stroke: rgb(235, 240, 248); stroke-opacity: 1; stroke-width: 1px;"/><path class="ygrid crisp" transform="translate(0,213.75)" d="M78,0h826" style="stroke: rgb(235, 240, 248); stroke-opacity: 1; stroke-width: 1px;"/><path class="ygrid crisp" transform="translate(0,159.09)" d="M78,0h826" style="stroke: rgb(235, 240, 248); stroke-opacity: 1; stroke-width: 1px;"/><path class="ygrid crisp" transform="translate(0,104.44)" d="M78,0h826" style="stroke: rgb(235, 240, 248); stroke-opacity: 1; stroke-width: 1px;"/></g></g><g class="zerolinelayer"><path class="yzl zl crisp" transform="translate(0,487)" d="M78,0h826" style="stroke: rgb(0, 0, 0); stroke-opacity: 1; stroke-width: 2px;"/></g><path class="xlines-below"/><path class="ylines-below"/><g class="overlines-below"/><g class="xaxislayer-below"/><g class="yaxislayer-below"/><g class="overaxes-below"/><g class="plot" transform="translate(78,50)" clip-path="url(#clip60a71cxyplot)"><g class="scatterlayer mlayer"><g class="trace scatter tracecd0c7d" style="stroke-miterlimit: 2; opacity: 1;"><g class="fills"/><g class="errorbars"/><g class="lines"><path class="js-line" d="M0,437L15.98,437L17.21,424.4L18.44,417.66L19.67,426.08L20.9,423.31L22.13,427.12L23.35,419.08L24.58,421.46L28.27,436.93L29.5,437L249.52,437L250.75,420.49L251.98,409.13L253.21,409.9L254.44,402.19L255.67,419.26L256.9,418.18L258.13,419.56L259.35,420.52L260.58,420.13L261.81,417.59L263.04,437L486.75,437L487.98,430.95L489.21,421.17L490.44,420.34L491.67,423.96L492.9,437L603.52,437L604.75,422.34L605.98,437L607.21,437L701.85,437L703.08,433.99L704.31,437L705.54,437L819.85,437L821.08,432.29L822.31,437L823.54,437L826,437" style="vector-effect: non-scaling-stroke; fill: none; stroke: rgb(214, 39, 40); stroke-opacity: 1; stroke-width: 2px; opacity: 1;"/></g><g class="points"/><g class="text"/></g><g class="trace scatter tracefb9c4f" style="stroke-miterlimit: 2; opacity: 1;"><g class="fills"/><g class="errorbars"/><g class="lines"><path class="js-line" d="M0,437L28.27,437L29.5,433.41L30.73,437L31.96,416.77L33.19,437L34.42,406.96L35.65,437L36.88,437L38.1,377.67L39.33,369.65L40.56,437L41.79,355.86L43.02,437L44.25,350.47L45.48,343.94L46.71,437L47.94,336.83L49.17,340.22L50.4,437L51.63,335.31L52.85,437L54.08,338.99L55.31,336.15L56.54,401.91L57.77,316.73L59,437L60.23,315.37L61.46,323.66L62.69,437L63.92,331.28L65.15,437L66.38,337.36L67.6,342.74L68.83,437L71.29,437L72.52,363.66L73.75,437L74.98,376.95L76.21,437L77.44,408.09L78.67,437L79.9,437L82.35,437L83.58,419.21L84.81,437L86.04,437L138.9,437L140.13,436.04L141.35,437L142.58,437L143.81,437L145.04,428.07L146.27,437L147.5,437L267.96,437L269.19,406.41L270.42,437L271.65,390.73L272.88,437L274.1,437L276.56,437L277.79,352L279.02,437L280.25,341.49L281.48,437L282.71,338.57L283.94,437L285.17,437L286.4,328.93L287.63,437L288.85,321.4L290.08,437L291.31,372.57L292.54,356.2L293.77,364.36L295,437L296.23,388.36L297.46,437L298.69,437L299.92,349.22L301.15,437L302.38,437L304.83,437L306.06,404.27L307.29,437L308.52,437L310.98,437L312.21,407.34L313.44,437L314.67,437L317.13,437L318.35,432.32L319.58,437L320.81,437L323.27,437L324.5,433.64L325.73,437L326.96,437L374.9,436.57L376.13,436.14L377.35,435.71L378.58,437L381.04,431.02L382.27,428.89L383.5,437L384.73,421.3L385.96,437L387.19,421.34L388.42,437L389.65,414.98L390.88,437L392.1,403.77L393.33,406.59L394.56,437L395.79,399.17L397.02,437L398.25,437L399.48,392.68L400.71,437L401.94,437L403.17,344.41L404.4,338.44L405.63,437L406.85,437L408.08,336.16L409.31,437L411.77,437L413,336.34L414.23,437L415.46,437L416.69,437L417.92,401.84L419.15,437L420.38,437L421.6,368.42L422.83,437L424.06,437L425.29,363.5L426.52,437L427.75,372.22L428.98,437L430.21,424.9L431.44,437L432.67,437L502.73,437L503.96,421.58L505.19,413.66L506.42,437L507.65,402.48L508.88,437L510.1,380.79L511.33,437L512.56,437L513.79,366.46L515.02,437L516.25,360.29L517.48,368.31L518.71,437L519.94,437L521.17,353.47L522.4,437L523.63,437L524.85,349.48L526.08,437L527.31,364.62L528.54,437L529.77,365.91L531,437L532.23,378.9L533.46,394.59L534.69,437L535.92,437L537.15,334.35L538.38,437L539.6,437L540.83,360.16L542.06,437L543.29,357.63L544.52,371.67L545.75,437L621.96,437L623.19,422.33L624.42,427.28L625.65,437L626.88,416.32L628.1,437L630.56,401.42L631.79,437L634.25,437L635.48,347.4L636.71,437L637.94,437L639.17,335.54L640.4,437L641.63,368.77L642.85,378.85L644.08,437L645.31,437L646.54,366.11L647.77,437L649,437L650.23,347.59L651.46,437L652.69,363.79L653.92,437L655.15,437L656.38,353.92L657.6,437L658.83,437L660.06,362.57L662.52,437L663.75,370.72L664.98,437L666.21,437L739.96,437L741.19,421.39L742.42,437L743.65,437L744.88,410.66L746.1,437L747.33,396.59L748.56,437L752.25,437L753.48,352.24L754.71,437L755.94,437L764.54,437L765.77,428.63L767,437L768.23,437L826,437" style="vector-effect: non-scaling-stroke; fill: none; stroke: rgb(255, 127, 14); stroke-opacity: 1; stroke-width: 2px; opacity: 1;"/></g><g class="points"/><g class="text"/></g><g class="trace scatter tracec3f86d" style="stroke-miterlimit: 2; opacity: 1;"><g class="fills"/><g class="errorbars"/><g class="lines"><path class="js-line" d="M0,289.25L3.69,298.82L4.92,303.5L11.06,326.46L12.29,336.99L17.21,354.2L18.44,354.2L30.73,354.2L31.96,351.48L33.19,351.48L34.42,346.66L35.65,346.66L36.88,336.67L38.1,323.23L39.33,323.23L40.56,323.23L41.79,305.58L43.02,305.58L44.25,284.97L46.71,284.97L47.94,263.48L50.4,263.48L51.63,243.34L52.85,243.34L54.08,221.71L56.54,221.71L57.77,204.62L59,204.62L60.23,174.92L62.69,174.92L63.92,149.13L65.15,149.13L66.38,124.5L68.83,124.5L70.06,102.36L72.52,63.42L73.75,63.42L74.98,47.95L76.21,47.95L77.44,38.58L78.67,38.58L82.35,25.86L83.58,24.68L90.96,62.73L92.19,71.69L100.79,120.52L102.02,134.2L104.48,153.75L105.71,162.53L118,245.04L119.23,250.81L126.6,279.97L127.83,285.66L136.44,319.85L137.67,323L142.58,340.21L143.81,344.95L146.27,351.66L147.5,352.43L148.73,352.74L149.96,351.32L151.19,349.35L152.42,345.72L156.1,326.04L157.33,317.81L159.79,297.33L161.02,282.42L165.94,214.62L167.17,203.39L168.4,193.79L169.63,197.15L172.08,191.93L173.31,193.64L174.54,192.34L175.77,189.42L178.23,178.83L179.46,169.81L181.92,148.31L183.15,133.17L190.52,36.6L191.75,31.11L194.21,24.75L195.44,23L196.67,23.54L197.9,32.95L199.13,32.66L200.35,33.36L201.58,32.59L202.81,41.64L206.5,57.3L207.73,64.19L211.42,84L212.65,94.43L215.1,114.97L216.33,124.43L220.02,155.6L221.25,168.59L231.08,247.64L232.31,255.39L236,282.99L237.23,287.55L244.6,319.44L245.83,326.42L250.75,348.19L251.98,348.19L261.81,348.19L263.04,349.14L266.73,354.2L267.96,352.05L269.19,346.7L270.42,346.7L271.65,339.05L272.88,339.05L275.33,314.29L276.56,298.81L277.79,281.05L279.02,281.05L280.25,259.04L281.48,259.04L282.71,237.14L283.94,237.14L286.4,186.42L287.63,186.42L288.85,160.16L290.08,160.16L291.31,138.19L292.54,130.53L295,130.53L296.23,117.15L297.46,117.15L298.69,105.24L299.92,88.26L301.15,88.26L303.6,59.2L304.83,53.47L306.06,51.46L307.29,60.43L309.75,64.51L310.98,66.69L312.21,67.2L313.44,72.31L314.67,69.64L315.9,62.7L318.35,57.59L319.58,57.59L320.81,58.55L322.04,60.48L326.96,78.62L328.19,84.93L334.33,123.52L335.56,130.24L341.71,162L342.94,168.47L350.31,217.4L351.54,223.79L356.46,256.34L357.69,261.63L363.83,287.95L365.06,291.78L369.98,309.88L371.21,313.59L381.04,342.41L382.27,345.17L383.5,347.94L384.73,348.74L385.96,354.2L387.19,352.57L388.42,352.57L389.65,348.05L390.88,348.05L392.1,341.67L394.56,341.67L395.79,333.56L397.02,333.56L398.25,325.87L399.48,319.87L400.71,319.87L401.94,308.42L403.17,289.87L405.63,289.87L406.85,267.97L408.08,243.77L409.31,243.77L413,167.54L414.23,167.54L416.69,136.34L417.92,129.67L419.15,136.47L420.38,131.79L421.6,120.03L422.83,120.03L425.29,77.92L426.52,77.92L427.75,61.81L428.98,61.81L431.44,41.88L432.67,35.57L436.35,25.16L437.58,23L438.81,23.11L440.04,25.35L441.27,28.16L442.5,32.98L443.73,39.28L444.96,50.32L451.1,96.81L452.33,102.94L456.02,121.97L457.25,130.47L460.94,162.95L462.17,173.1L468.31,225.79L469.54,236.66L475.69,277.57L476.92,281.94L480.6,294.15L481.83,298.44L489.21,327.4L490.44,327.4L492.9,327.4L494.13,331.68L500.27,352.92L501.5,353.8L502.73,354.2L503.96,351.98L506.42,351.97L507.65,346.46L508.88,346.46L510.1,335.84L511.33,335.84L512.56,319.15L513.79,307.04L515.02,307.04L516.25,288.95L517.48,288.95L518.71,288.95L519.94,274.65L521.17,259.85L522.4,259.85L524.85,218.59L526.08,218.59L527.31,198.44L528.54,198.44L529.77,182.74L531,182.74L532.23,171.13L533.46,171.13L534.69,171.13L535.92,157.27L537.15,134.16L538.38,134.16L540.83,87.24L542.06,87.24L543.29,74.8L544.52,74.8L545.75,74.8L546.98,60.01L550.67,31.52L551.9,26.22L553.13,23.73L554.35,23L555.58,24.78L556.81,28.34L562.96,55.81L564.19,63.75L566.65,76.39L567.88,84.11L570.33,99.42L571.56,110.05L586.31,218.06L587.54,227.22L592.46,258.57L593.69,263.41L596.15,273.7L597.38,278.28L604.75,306.2L605.98,306.86L610.9,324.85L612.13,333.4L618.27,352.89L619.5,353.45L620.73,354.2L621.96,353.33L625.65,352.55L626.88,349.16L628.1,349.16L629.33,343.21L631.79,343.21L633.02,330.47L635.48,296.39L636.71,296.39L639.17,253.85L640.4,253.85L641.63,235.51L642.85,235.51L644.08,235.51L645.31,226.53L646.54,211.3L647.77,211.3L650.23,167.8L651.46,167.8L652.69,149.68L653.92,149.68L655.15,140.08L656.38,123.08L657.6,123.08L658.83,102.37L660.06,83.14L661.29,83.14L662.52,83.14L663.75,68.67L664.98,68.67L666.21,55.7L669.9,29.31L671.13,25.15L674.81,23L676.04,23.07L677.27,25.03L678.5,28.69L690.79,89.31L692.02,95.31L695.71,117.29L696.94,126.55L701.85,170.08L703.08,178.31L704.31,185.07L705.54,196.94L709.23,225.74L710.46,231.59L712.92,242.84L714.15,248.84L716.6,257.87L717.83,268.49L722.75,296.79L723.98,300.53L727.67,315.1L728.9,319.31L737.5,352.79L738.73,354.2L739.96,354.2L741.19,351.06L742.42,351.06L743.65,349.92L744.88,344.68L746.1,344.68L747.33,334.66L748.56,334.66L751.02,307.1L752.25,287.6L753.48,265.74L754.71,265.74L760.85,152.75L762.08,123.48L765.77,50.44L767,38.28L769.46,25.74L770.69,23.64L771.92,23L773.15,27.46L780.52,54.71L781.75,56.83L784.21,58.5L785.44,66.58L787.9,75.11L789.13,78.77L791.58,85.48L792.81,89.49L801.42,122.83L802.65,128.98L807.56,157.78L808.79,163.35L812.48,184.29L813.71,193.79L818.63,227.08L819.85,244.78L826,289.25" style="vector-effect: non-scaling-stroke; fill: none; stroke: rgb(44, 160, 44); stroke-opacity: 1; stroke-width: 2px; opacity: 1;"/></g><g class="points"/><g class="text"/></g><g class="trace scatter tracee2e3b1" style="stroke-miterlimit: 2; opacity: 1;"><g class="fills"/><g class="errorbars"/><g class="lines"><path class="js-line" d="M0,256.91L9.83,278.38L11.06,277.37L14.75,274.32L15.98,281.74L19.67,304L20.9,300.59L25.81,289.02L27.04,287.68L29.5,285L30.73,277.5L34.42,255L35.65,256.69L39.33,261.79L40.56,260.79L44.25,257.81L45.48,257.85L50.4,257.4L51.63,256.85L54.08,255.75L55.31,254.31L59,250.01L60.23,251.7L65.15,257.64L66.38,258.49L73.75,263.76L74.98,259.82L78.67,248L79.9,247.56L86.04,244.83L87.27,244.12L88.5,243.42L89.73,246.06L93.42,253.98L94.65,253.43L99.56,250.69L100.79,249.6L103.25,247.42L104.48,247.84L113.08,250.21L114.31,256.03L118,273.51L119.23,273.86L122.92,274.93L124.15,273.94L127.83,270.95L129.06,272.16L132.75,275.77L133.98,270.5L137.67,254.68L138.9,257.03L142.58,264.11L143.81,260.5L147.5,249.69L148.73,252.46L152.42,260.77L153.65,258.88L162.25,244.26L163.48,245.78L167.17,250.33L168.4,248.99L173.31,244.65L174.54,244.3L180.69,243.3L181.92,243.19L186.83,246.12L188.06,251.14L191.75,266.22L192.98,261.82L196.67,248.61L197.9,247.08L201.58,242.49L202.81,243.58L206.5,246.84L207.73,244.95L211.42,239.27L212.65,234.77L218.79,214.16L220.02,210.61L221.25,207.07L222.48,212.89L226.17,230.36L227.4,232.19L232.31,240.36L233.54,243.04L237.23,249.33L238.46,250.25L240.92,252.1L242.15,253.96L250.75,267.04L251.98,267.04L256.9,267.47L258.13,267.89L260.58,268.75L261.81,266.99L265.5,261.73L266.73,257.35L271.65,242.16L272.88,240.08L275.33,235.93L276.56,238.56L282.71,249.95L283.94,251.7L286.4,254.23L287.63,255.01L290.08,256.56L291.31,254.76L295,249.37L296.23,250.24L304.83,256.82L306.06,259.12L309.75,265.99L310.98,264.87L315.9,260.89L317.13,260.28L319.58,259.06L320.81,261L324.5,266.81L325.73,267.07L329.42,267.85L330.65,260.57L334.33,238.75L335.56,236.96L339.25,231.58L340.48,239.66L344.17,263.9L345.4,265.89L349.08,271.85L350.31,271.45L355.23,270.45L356.46,270.63L360.15,271.72L361.38,272.43L363.83,273.86L365.06,271.4L368.75,264.05L369.98,263.4L373.67,261.44L374.9,261.79L378.58,262.83L379.81,265.45L383.5,273.3L384.73,272.61L388.42,270.52L389.65,268.83L394.56,262.9L395.79,262.05L398.25,260.34L399.48,258.11L403.17,251.43L404.4,253.13L413,264.05L414.23,265.01L417.92,267.88L419.15,269.97L422.83,276.23L424.06,274.99L427.75,271.27L428.98,274.19L432.67,282.94L433.9,283.07L437.58,283.49L438.81,282.45L447.42,274.46L448.65,274.93L452.33,276.32L453.56,273.19L457.25,263.79L458.48,266.62L463.4,276.54L464.63,277.98L467.08,280.85L468.31,280.65L476.92,279.92L478.15,280.88L481.83,283.78L483.06,285.72L489.21,294.3L490.44,295.67L491.67,297.04L492.9,289.86L501.5,238.23L502.73,238.4L507.65,238.62L508.88,238.31L511.33,237.7L512.56,241.03L516.25,251.02L517.48,249.61L521.17,245.39L522.4,247.79L526.08,255L527.31,254.69L535.92,253.11L537.15,253.73L540.83,255.61L542.06,252.68L546.98,242.75L548.21,241.62L553.13,236.27L554.35,234.72L558.04,231.29L559.27,230.35L560.5,229.41L561.73,229.42L565.42,229.46L566.65,234.79L570.33,250.76L571.56,250L575.25,247.71L576.48,255.19L580.17,277.6L581.4,276.75L585.08,274.2L586.31,274.46L590,275.22L591.23,274.58L594.92,272.67L596.15,273.01L599.83,274.06L601.06,275.29L604.75,278.99L605.98,269.47L609.67,240.9L610.9,241.51L615.81,243.16L617.04,242.98L620.73,243.2L621.96,243.75L629.33,247.28L630.56,244.44L634.25,235.91L635.48,236.13L639.17,236.8L640.4,238.18L645.31,242.72L646.54,243.12L651.46,245.23L652.69,245.89L658.83,249.16L660.06,247.31L663.75,241.74L664.98,241.77L668.67,241.85L669.9,240.73L674.81,237.12L676.04,236.89L678.5,236.43L679.73,236.97L683.42,238.6L684.65,236.91L688.33,231.81L689.56,233.42L693.25,238.23L694.48,242.86L699.4,259.38L700.63,262L703.08,267.24L704.31,266.23L709.23,261.65L710.46,260.09L712.92,256.97L714.15,256.95L722.75,257.11L723.98,255.35L727.67,250.06L728.9,251.48L732.58,255.72L733.81,252.61L737.5,243.27L738.73,243.26L747.33,242.49L748.56,241.5L757.17,233.79L758.4,235.04L762.08,238.78L763.31,238.53L769.46,236.76L770.69,236.25L771.92,235.73L773.15,236.76L776.83,239.85L778.06,239.54L781.75,238.6L782.98,241.21L786.67,249.02L787.9,249.57L791.58,251.22L792.81,247.33L796.5,235.64L797.73,236.04L803.88,238.6L805.1,239.29L806.33,239.97L807.56,245.36L812.48,264.46L813.71,267.4L818.63,277.79L819.85,280.04L821.08,282.3L822.31,280.37L826,274.58" style="vector-effect: non-scaling-stroke; fill: none; stroke: rgb(188, 189, 34); stroke-opacity: 1; stroke-width: 2px; opacity: 1;"/></g><g class="points"/><g class="text"/></g><g class="trace scatter tracef269c3" style="stroke-miterlimit: 2; opacity: 1;"><g class="fills"/><g class="errorbars"/><g class="lines"><path class="js-line" d="M0,437L29.5,437L30.73,425.53L31.96,437L33.19,416.74L34.42,437L35.65,394.93L36.88,380.4L38.1,437L39.33,437L40.56,346.49L41.79,437L43.02,350.22L44.25,437L45.48,437L46.71,346.54L47.94,437L49.17,437L50.4,352.19L51.63,437L52.85,345.93L54.08,437L55.31,437L56.54,365.03L57.77,437L59,311.94L60.23,437L61.46,437L62.69,328.41L63.92,437L65.15,333.31L66.38,437L67.6,437L68.83,343.77L70.06,348.86L71.29,361.17L72.52,437L73.75,371.89L74.98,437L76.21,397.56L77.44,437L78.67,386.86L79.9,419.36L81.13,423.16L82.35,432.03L83.58,437L84.81,437L147.5,437L148.73,431.05L149.96,428.68L151.19,421.72L153.65,406.63L154.88,407.65L156.1,402.33L157.33,401.56L161.02,362.98L162.25,354.34L165.94,389.72L167.17,396.57L168.4,437L169.63,422.94L172.08,437L173.31,431.49L175.77,415.81L177,413.59L178.23,399.01L179.46,397.3L183.15,368.31L184.38,362.94L185.6,354.46L186.83,356.6L189.29,391.74L190.52,413.89L191.75,418.63L192.98,428.61L194.21,429.62L195.44,437L196.67,437L197.9,435.79L199.13,437L200.35,433.73L201.58,437L202.81,437L265.5,437L266.73,427.97L267.96,414.47L269.19,437L270.42,404.76L271.65,437L272.88,390.95L274.1,378.79L276.56,362.25L277.79,437L279.02,344.33L280.25,437L281.48,320.13L282.71,437L283.94,332.98L285.17,327.42L286.4,437L287.63,299.86L288.85,437L290.08,344.48L292.54,437L293.77,437L295,380.66L296.23,437L298.69,365.49L299.92,437L301.15,364.56L302.38,387.08L303.6,412.87L304.83,396.34L306.06,437L307.29,437L312.21,437L313.44,425.76L314.67,407.78L315.9,427.74L317.13,424.75L318.35,437L384.73,437L385.96,430.14L387.19,437L388.42,417.98L389.65,437L390.88,410.11L392.1,437L393.33,437L394.56,402.88L395.79,437L397.02,404.63L398.25,411.71L399.48,437L400.71,388.79L401.94,358.92L403.17,437L404.4,437L405.63,344.78L406.85,335.11L408.08,437L409.31,330.68L410.54,334.03L411.77,325.31L413,437L414.23,366.87L415.46,375.76L417.92,437L419.15,417.32L420.38,387.46L421.6,437L422.83,345.57L424.06,351.15L425.29,437L426.52,369.15L427.75,437L428.98,380.09L430.21,410.02L431.44,410.43L432.67,418.63L433.9,421.35L435.13,427.16L436.35,427.91L437.58,437L438.81,437L501.5,437L502.73,427.64L503.96,436.99L505.19,437L506.42,413.8L507.65,437L508.88,392.28L510.1,437L511.33,366.71L512.56,386.01L513.79,437L515.02,360.85L516.25,437L517.48,437L518.71,376.77L519.94,374.7L521.17,437L522.4,351.04L523.63,324.74L524.85,437L526.08,352.14L527.31,437L528.54,370.9L529.77,437L531,388.14L532.23,437L533.46,437L534.69,378.64L535.92,339.69L537.15,437L538.38,337.31L539.6,339.13L540.83,437L542.06,384.61L543.29,437L544.52,437L545.75,374.74L546.98,387.43L548.21,395.32L549.44,408.3L550.67,414.66L551.9,426.53L554.35,437L555.58,437L619.5,437L620.73,433.34L623.19,435.59L624.42,437L625.65,422.76L626.88,437L628.1,411.91L629.33,437L630.56,437L631.79,383.37L634.25,358.52L635.48,437L636.71,346.84L637.94,348.04L639.17,437L640.4,359.8L641.63,437L642.85,437L645.31,372.86L646.54,437L647.77,352.29L649,338.58L650.23,437L651.46,360.68L652.69,437L653.92,396.6L655.15,365.41L656.38,437L657.6,349.79L658.83,356.04L660.06,437L661.29,437L662.52,376.08L663.75,437L664.98,382.41L666.21,392.36L669.9,419.48L671.13,433.58L672.35,434.48L673.58,433.89L674.81,437L676.04,437L738.73,436.64L739.96,423.76L741.19,437L742.42,432.21L743.65,414.95L744.88,437L746.1,394.81L747.33,437L749.79,367.46L751.02,354.87L752.25,344.95L753.48,437L754.71,346.9L755.94,342.81L757.17,346L758.4,339.81L759.63,333.75L760.85,313.78L762.08,310.86L763.31,339.73L764.54,352.86L765.77,385.79L767,409.38L768.23,411.82L769.46,428.15L770.69,434.31L771.92,437L773.15,437L826,437" style="vector-effect: non-scaling-stroke; fill: none; stroke: rgb(227, 119, 194); stroke-opacity: 1; stroke-width: 2px; opacity: 1;"/></g><g class="points"/><g class="text"/></g><g class="trace scatter trace44189a" style="stroke-miterlimit: 2; opacity: 1;"><g class="fills"/><g class="errorbars"/><g class="lines"><path class="js-line" d="M0,426.82L1.23,422.8L2.46,425.04L3.69,419.22L4.92,417.85L6.15,421.76L7.38,415.52L8.6,425.52L9.83,417.12L11.06,396.95L12.29,420.57L13.52,420.1L14.75,425.68L15.98,416.26L17.21,437L39.33,437L40.56,422.39L41.79,437L43.02,437L77.44,437L78.67,411.71L79.9,437L81.13,437L82.35,437L83.58,412.8L84.81,412.66L86.04,420.32L87.27,417.62L88.5,408.24L90.96,402.95L92.19,410.1L93.42,412.54L94.65,412.54L95.88,409.54L97.1,409.23L98.33,412.12L99.56,407.36L100.79,385L102.02,407.84L103.25,391.88L104.48,403.66L106.94,407.25L108.17,405.23L109.4,407.66L110.63,398.41L111.85,401.4L113.08,402.08L115.54,415.75L116.77,402.1L118,415.06L119.23,419.57L120.46,421.33L121.69,409.86L122.92,420.18L124.15,418.78L125.38,421.49L126.6,415.37L129.06,417.44L130.29,418.15L131.52,417.84L132.75,421.98L133.98,420.4L135.21,416.4L136.44,425.03L137.67,422.48L138.9,420.91L140.13,420.61L141.35,418.61L142.58,419.01L143.81,425.75L145.04,422.76L146.27,434.07L147.5,435.82L148.73,437L149.96,437L167.17,437L168.4,424.22L169.63,437L170.85,437L172.08,430.49L173.31,437L194.21,437L195.44,434.96L196.67,401.23L197.9,437L199.13,434.33L200.35,437L201.58,402.61L202.81,419.78L204.04,414.17L205.27,417.55L206.5,410.82L207.73,412.4L208.96,410.18L210.19,413.13L212.65,388.52L213.88,407.43L215.1,401.05L216.33,400.05L217.56,404.72L218.79,387.8L220.02,387.64L221.25,397.18L223.71,399.97L224.94,389.16L226.17,401.74L227.4,405.02L228.63,397.38L229.85,406.78L231.08,407.52L232.31,397.57L233.54,398.85L234.77,409.69L236,419.69L237.23,418.14L238.46,418.67L239.69,415.31L240.92,416.6L242.15,416.35L243.38,415.76L244.6,410.46L245.83,417.06L247.06,419.42L248.29,418.18L249.52,410.64L250.75,437L251.98,437L260.58,437L261.81,433.37L263.04,430.99L264.27,430.29L265.5,430.5L266.73,437L280.25,437L281.48,414.74L282.71,437L283.94,437L286.4,437L287.63,413L288.85,437L290.08,437L303.6,437L304.83,407.93L306.06,402.9L307.29,430.83L308.52,427.68L309.75,428.72L310.98,435.06L312.21,417.59L313.44,437L314.67,437L318.35,437L319.58,433.34L320.81,429.69L322.04,419.71L323.27,424.91L324.5,413.65L325.73,420.78L326.96,413.03L328.19,404.61L329.42,407.98L330.65,401.36L331.88,408.76L333.1,415.64L334.33,411.44L335.56,415.51L336.79,412.87L338.02,415.64L339.25,414.98L340.48,405.32L341.71,412.43L342.94,402.54L344.17,410.63L346.63,403.4L347.85,409.17L349.08,402.53L350.31,412.72L352.77,395.03L354,413.91L355.23,411.25L356.46,416.9L357.69,414.18L358.92,415.07L360.15,419.54L361.38,418.57L362.6,417.6L363.83,422.46L366.29,416.55L367.52,417.11L368.75,426.59L369.98,422.92L371.21,422.24L372.44,423.1L374.9,423.88L376.13,423.21L377.35,422.37L378.58,425.14L379.81,422.96L381.04,426.51L382.27,426.46L383.5,433.96L384.73,416.27L385.96,437L416.69,437L417.92,411.18L419.15,437L420.38,437L437.58,436.59L438.81,428.47L440.04,426.32L441.27,418.69L442.5,413.09L443.73,395.05L446.19,400.51L447.42,390.87L449.88,413.6L451.1,413.68L452.33,414.46L453.56,419L454.79,405.25L456.02,404.68L457.25,388.78L458.48,398.38L459.71,400.43L460.94,398.44L463.4,400.58L464.63,406.97L465.85,383.85L467.08,394.05L468.31,395.69L469.54,404.23L470.77,394.38L472,413.56L473.23,404.32L474.46,413.04L476.92,423.89L478.15,422.59L479.38,418.12L480.6,420.7L481.83,418.45L483.06,420.78L484.29,416.28L485.52,419.92L486.75,416.79L487.98,419.75L489.21,437L490.44,437L491.67,437L492.9,420.74L494.13,418.71L495.35,420.4L496.58,418.54L497.81,419.79L500.27,433.63L501.5,435.5L502.73,437L503.96,437L522.4,437L523.63,414.9L524.85,437L526.08,437L553.13,437L554.35,430.25L556.81,415.44L558.04,419.64L559.27,420.19L560.5,414.72L562.96,406.82L564.19,415.86L566.65,407.65L567.88,410.93L570.33,396.61L571.56,403.11L572.79,411.76L574.02,410.65L575.25,395.51L576.48,404.41L577.71,399.15L578.94,405.41L580.17,397.54L581.4,400.22L583.85,402.46L585.08,401.82L586.31,402.18L587.54,403.93L588.77,400.19L590,414.67L591.23,410.12L592.46,418.59L593.69,412.71L594.92,422.19L596.15,419.59L597.38,418.96L598.6,415.99L599.83,417.97L601.06,421.27L602.29,421.32L603.52,420.38L604.75,434.52L605.98,418.94L607.21,415.86L609.67,424.45L610.9,404.5L612.13,421.65L613.35,417.94L614.58,420.72L615.81,420.39L618.27,434.86L619.5,434.17L620.73,437L621.96,437L674.81,436.73L676.04,429.54L678.5,415.2L679.73,413.61L680.96,416.13L682.19,416.24L683.42,411.37L684.65,415.4L688.33,412.29L689.56,412.73L690.79,414.2L692.02,413.79L693.25,404.55L694.48,409.15L698.17,386.62L699.4,388.47L700.63,411.75L701.85,405.74L703.08,411.32L704.31,391.89L705.54,396.44L706.77,395.05L708,410.05L709.23,414.77L710.46,409.26L711.69,422L712.92,414.2L714.15,423.93L715.38,415.74L716.6,396.64L719.06,416.68L720.29,400.06L722.75,422.81L723.98,414.46L725.21,421.92L726.44,419.22L727.67,421.03L728.9,417.86L730.13,416.61L731.35,420.48L732.58,411.8L733.81,419.65L735.04,416.9L736.27,428.49L738.73,436.68L739.96,437L770.69,437L771.92,420.06L773.15,419.51L774.38,417.38L775.6,418.51L776.83,415.89L778.06,416.93L779.29,430.22L780.52,428.93L781.75,435.23L782.98,432.41L784.21,406.33L785.44,424.69L786.67,416.87L789.13,427.3L790.35,421.2L791.58,421.78L792.81,418.62L794.04,423.72L795.27,419.53L796.5,422.89L797.73,418.46L798.96,417.06L800.19,412.04L801.42,413.61L802.65,404.62L805.1,414.62L806.33,408.3L807.56,415.81L808.79,412.43L810.02,414.06L811.25,404.96L812.48,400.9L813.71,403.41L814.94,411.99L816.17,411.36L818.63,369.77L819.85,401.08L821.08,417.06L822.31,387.05L823.54,403.66L824.77,407.13L826,411.74" style="vector-effect: non-scaling-stroke; fill: none; stroke: rgb(23, 190, 207); stroke-opacity: 1; stroke-width: 2px; opacity: 1;"/></g><g class="points"/><g class="text"/></g></g></g><g class="overplot"/><path class="xlines-above crisp" d="M0,0" style="fill: none;"/><path class="ylines-above crisp" d="M0,0" style="fill: none;"/><g class="overlines-above"/><g class="xaxislayer-above"><g class="xtick"><text text-anchor="middle" x="0" y="530" transform="translate(78,0)" style="font-family: 'Open Sans', verdana, arial, sans-serif; font-size: 19px; fill: rgb(42, 63, 95); fill-opacity: 1; white-space: pre; opacity: 1;"><tspan class="line" dy="0em" x="0" y="530">Aug 6</tspan><tspan class="line" dy="1.3em" x="0" y="530">2019</tspan></text></g><g class="xtick"><text text-anchor="middle" x="0" y="530" style="font-family: 'Open Sans', verdana, arial, sans-serif; font-size: 19px; fill: rgb(42, 63, 95); fill-opacity: 1; white-space: pre; opacity: 1;" transform="translate(196,0)">Aug 7</text></g><g class="xtick"><text text-anchor="middle" x="0" y="530" style="font-family: 'Open Sans', verdana, arial, sans-serif; font-size: 19px; fill: rgb(42, 63, 95); fill-opacity: 1; white-space: pre; opacity: 1;" transform="translate(314,0)">Aug 8</text></g><g class="xtick"><text text-anchor="middle" x="0" y="530" style="font-family: 'Open Sans', verdana, arial, sans-serif; font-size: 19px; fill: rgb(42, 63, 95); fill-opacity: 1; white-space: pre; opacity: 1;" transform="translate(432,0)">Aug 9</text></g><g class="xtick"><text text-anchor="middle" x="0" y="530" style="font-family: 'Open Sans', verdana, arial, sans-serif; font-size: 19px; fill: rgb(42, 63, 95); fill-opacity: 1; white-space: pre; opacity: 1;" transform="translate(550,0)">Aug 10</text></g><g class="xtick"><text text-anchor="middle" x="0" y="530" style="font-family: 'Open Sans', verdana, arial, sans-serif; font-size: 19px; fill: rgb(42, 63, 95); fill-opacity: 1; white-space: pre; opacity: 1;" transform="translate(668,0)">Aug 11</text></g><g class="xtick"><text text-anchor="middle" x="0" y="530" style="font-family: 'Open Sans', verdana, arial, sans-serif; font-size: 19px; fill: rgb(42, 63, 95); fill-opacity: 1; white-space: pre; opacity: 1;" transform="translate(786,0)">Aug 12</text></g><g class="xtick"><text text-anchor="middle" x="0" y="530" style="font-family: 'Open Sans', verdana, arial, sans-serif; font-size: 19px; fill: rgb(42, 63, 95); fill-opacity: 1; white-space: pre; opacity: 1;" transform="translate(904,0)">Aug 13</text></g></g><g class="yaxislayer-above"><g class="ytick"><text text-anchor="end" x="77" y="6.6499999999999995" transform="translate(0,487)" style="font-family: 'Open Sans', verdana, arial, sans-serif; font-size: 19px; fill: rgb(42, 63, 95); fill-opacity: 1; white-space: pre; opacity: 1;">0</text></g><g class="ytick"><text text-anchor="end" x="77" y="6.6499999999999995" style="font-family: 'Open Sans', verdana, arial, sans-serif; font-size: 19px; fill: rgb(42, 63, 95); fill-opacity: 1; white-space: pre; opacity: 1;" transform="translate(0,432.35)">20</text></g><g class="ytick"><text text-anchor="end" x="77" y="6.6499999999999995" style="font-family: 'Open Sans', verdana, arial, sans-serif; font-size: 19px; fill: rgb(42, 63, 95); fill-opacity: 1; white-space: pre; opacity: 1;" transform="translate(0,377.7)">40</text></g><g class="ytick"><text text-anchor="end" x="77" y="6.6499999999999995" style="font-family: 'Open Sans', verdana, arial, sans-serif; font-size: 19px; fill: rgb(42, 63, 95); fill-opacity: 1; white-space: pre; opacity: 1;" transform="translate(0,323.05)">60</text></g><g class="ytick"><text text-anchor="end" x="77" y="6.6499999999999995" style="font-family: 'Open Sans', verdana, arial, sans-serif; font-size: 19px; fill: rgb(42, 63, 95); fill-opacity: 1; white-space: pre; opacity: 1;" transform="translate(0,268.4)">80</text></g><g class="ytick"><text text-anchor="end" x="77" y="6.6499999999999995" style="font-family: 'Open Sans', verdana, arial, sans-serif; font-size: 19px; fill: rgb(42, 63, 95); fill-opacity: 1; white-space: pre; opacity: 1;" transform="translate(0,213.75)">100</text></g><g class="ytick"><text text-anchor="end" x="77" y="6.6499999999999995" style="font-family: 'Open Sans', verdana, arial, sans-serif; font-size: 19px; fill: rgb(42, 63, 95); fill-opacity: 1; white-space: pre; opacity: 1;" transform="translate(0,159.09)">120</text></g><g class="ytick"><text text-anchor="end" x="77" y="6.6499999999999995" style="font-family: 'Open Sans', verdana, arial, sans-serif; font-size: 19px; fill: rgb(42, 63, 95); fill-opacity: 1; white-space: pre; opacity: 1;" transform="translate(0,104.44)">140</text></g></g><g class="overaxes-above"/></g></g><g class="polarlayer"/><g class="ternarylayer"/><g class="geolayer"/><g class="funnelarealayer"/><g class="pielayer"/><g class="iciclelayer"/><g class="treemaplayer"/><g class="sunburstlayer"/><g class="glimages"/><defs id="topdefs-60a71c"><g class="clips"/><clipPath id="legend60a71c"><rect width="169" height="207" x="0" y="0"/></clipPath></defs><g class="layer-above"><g class="imagelayer"/><g class="shapelayer"/></g><g class="infolayer"><g class="legend" pointer-events="all" transform="translate(920.52,50)"><rect class="bg" shape-rendering="crispEdges" width="169" height="207" x="0" y="0" style="stroke: rgb(68, 68, 68); stroke-opacity: 1; fill: rgb(255, 255, 255); fill-opacity: 1; stroke-width: 0px;"/><g class="scrollbox" transform="" clip-path="url(#legend60a71c)"><text class="legendtitletext" text-anchor="start" x="2" y="29.900000000000002" style="font-family: 'Open Sans', verdana, arial, sans-serif; font-size: 23px; fill: rgb(42, 63, 95); fill-opacity: 1; white-space: pre;">variable</text><g class="groups" transform=""><g class="traces" transform="translate(0,48.75)" style="opacity: 1;"><text class="legendtext" text-anchor="start" x="40" y="7.409999999999999" style="font-family: 'Open Sans', verdana, arial, sans-serif; font-size: 19px; fill: rgb(42, 63, 95); fill-opacity: 1; white-space: pre;">grid_kw</text><g class="layers" style="opacity: 1;"><g class="legendfill"/><g class="legendlines"><path class="js-line" d="M5,0h30" style="fill: none; stroke: rgb(214, 39, 40); stroke-opacity: 1; stroke-width: 2px;"/></g><g class="legendsymbols"><g class="legendpoints"/></g></g><rect class="legendtoggle" x="0" y="-13.85" width="163.015625" height="27.7" style="fill: rgb(0, 0, 0); fill-opacity: 0;"/></g><g class="traces" transform="translate(0,76.45)" style="opacity: 1;"><text class="legendtext" text-anchor="start" x="40" y="7.409999999999999" style="font-family: 'Open Sans', verdana, arial, sans-serif; font-size: 19px; fill: rgb(42, 63, 95); fill-opacity: 1; white-space: pre;">battery_kWh</text><g class="layers" style="opacity: 1;"><g class="legendfill"/><g class="legendlines"><path class="js-line" d="M5,0h30" style="fill: none; stroke: rgb(44, 160, 44); stroke-opacity: 1; stroke-width: 2px;"/></g><g class="legendsymbols"><g class="legendpoints"/></g></g><rect class="legendtoggle" x="0" y="-13.85" width="163.015625" height="27.7" style="fill: rgb(0, 0, 0); fill-opacity: 0;"/></g></g><g class="groups" transform=""><g class="traces" transform="translate(0,104.14999999999999)" style="opacity: 1;"><text class="legendtext" text-anchor="start" x="40" y="7.409999999999999" style="font-family: 'Open Sans', verdana, arial, sans-serif; font-size: 19px; fill: rgb(42, 63, 95); fill-opacity: 1; white-space: pre;">pv_curtailed</text><g class="layers" style="opacity: 1;"><g class="legendfill"/><g class="legendlines"><path class="js-line" d="M5,0h30" style="fill: none; stroke: rgb(255, 127, 14); stroke-opacity: 1; stroke-width: 2px;"/></g><g class="legendsymbols"><g class="legendpoints"/></g></g><rect class="legendtoggle" x="0" y="-13.85" width="163.015625" height="27.7" style="fill: rgb(0, 0, 0); fill-opacity: 0;"/></g></g><g class="groups" transform=""><g class="traces" transform="translate(0,131.85)" style="opacity: 1;"><text class="legendtext" text-anchor="start" x="40" y="7.409999999999999" style="font-family: 'Open Sans', verdana, arial, sans-serif; font-size: 19px; fill: rgb(42, 63, 95); fill-opacity: 1; white-space: pre;">co2_g_kwh</text><g class="layers" style="opacity: 1;"><g class="legendfill"/><g class="legendlines"><path class="js-line" d="M5,0h30" style="fill: none; stroke: rgb(188, 189, 34); stroke-opacity: 1; stroke-width: 2px;"/></g><g class="legendsymbols"><g class="legendpoints"/></g></g><rect class="legendtoggle" x="0" y="-13.85" width="163.015625" height="27.7" style="fill: rgb(0, 0, 0); fill-opacity: 0;"/></g></g><g class="groups" transform=""><g class="traces" transform="translate(0,159.54999999999998)" style="opacity: 1;"><text class="legendtext" text-anchor="start" x="40" y="7.409999999999999" style="font-family: 'Open Sans', verdana, arial, sans-serif; font-size: 19px; fill: rgb(42, 63, 95); fill-opacity: 1; white-space: pre;">batteryin</text><g class="layers" style="opacity: 1;"><g class="legendfill"/><g class="legendlines"><path class="js-line" d="M5,0h30" style="fill: none; stroke: rgb(227, 119, 194); stroke-opacity: 1; stroke-width: 2px;"/></g><g class="legendsymbols"><g class="legendpoints"/></g></g><rect class="legendtoggle" x="0" y="-13.85" width="163.015625" height="27.7" style="fill: rgb(0, 0, 0); fill-opacity: 0;"/></g></g><g class="groups" transform=""><g class="traces" transform="translate(0,187.25)" style="opacity: 1;"><text class="legendtext" text-anchor="start" x="40" y="7.409999999999999" style="font-family: 'Open Sans', verdana, arial, sans-serif; font-size: 19px; fill: rgb(42, 63, 95); fill-opacity: 1; white-space: pre;">batteryout</text><g class="layers" style="opacity: 1;"><g class="legendfill"/><g class="legendlines"><path class="js-line" d="M5,0h30" style="fill: none; stroke: rgb(23, 190, 207); stroke-opacity: 1; stroke-width: 2px;"/></g><g class="legendsymbols"><g class="legendpoints"/></g></g><rect class="legendtoggle" x="0" y="-13.85" width="163.015625" height="27.7" style="fill: rgb(0, 0, 0); fill-opacity: 0;"/></g></g></g><rect class="scrollbar" rx="20" ry="3" width="0" height="0" x="0" y="0" style="fill: rgb(128, 139, 164); fill-opacity: 1;"/></g><g class="g-gtitle"/><g class="g-xtitle"/><g class="g-ytitle" transform="translate(13.349609375,0)"><text class="ytitle" transform="rotate(-90,9.650000000000006,280)" x="9.650000000000006" y="280" text-anchor="middle" style="font-family: 'Open Sans', verdana, arial, sans-serif; font-size: 23px; fill: rgb(42, 63, 95); opacity: 1; font-weight: normal; white-space: pre;">Legend</text></g></g></svg>