<svg class="main-svg" xmlns="http://www.w3.org/2000/svg" xmlns:xlink="http://www.w3.org/1999/xlink" width="1100" height="600" viewBox="0 0 1100 600"><rect x="0" y="0" width="1100" height="600" style="fill: rgb(255, 255, 255); fill-opacity: 1;"/><defs id="defs-d438c0"><g class="clips"><clipPath id="clipd438c0xyplot" class="plotclip"><rect width="826" height="460"/></clipPath><clipPath class="axesclip" id="clipd438c0x"><rect x="78" y="0" width="826" height="600"/></clipPath><clipPath class="axesclip" id="clipd438c0y"><rect x="0" y="50" width="1100" height="460"/></clipPath><clipPath class="axesclip" id="clipd438c0xy"><rect x="78" y="50" width="826" height="460"/></clipPath></g><g class="gradients"/><g class="patterns"/></defs><g class="bglayer"/><g class="layer-below"><g class="imagelayer"/><g class="shapelayer"/></g><g class="cartesianlayer"><g class="subplot xy"><g class="layer-subplot"><g class="shapelayer"/><g class="imagelayer"/></g><g class="gridlayer"><g class="x"><path class="xgrid crisp" transform="translate(196,0)" d="M0,50v460" style="stroke: rgb(235, 240, 248); stroke-opacity: 1; stroke-width: 1px;"/><path class="xgrid crisp" transform="translate(314,0)" d="M0,50v460" style="stroke: rgb(235, 240, 248); stroke-opacity: 1; stroke-width: 1px;"/><path class="xgrid crisp" transform="translate(432,0)" d="M0,50v460" style="stroke: rgb(235, 240, 248); stroke-opacity: 1; stroke-width: 1px;"/><path class="xgrid crisp" transform="translate(550,0)" d="M0,50v460" style="stroke: rgb(235, 240, 248); stroke-opacity: 1; stroke-width: 1px;"/><path class="xgrid crisp" transform="translate(668,0)" d="M0,50v460" style="stroke: rgb(235, 240, 248); stroke-opacity: 1; stroke-width: 1px;"/><path class="xgrid crisp" transform="translate(786,0)" d="M0,50v460" style="stroke: rgb(235, 240, 248); stroke-opacity: 1; stroke-width: 1px;"/></g><g class="y"><path class="ygrid crisp" transform="translate(0,432.35)" d="M78,0h826" style="stroke: rgb(235, 240, 248); stroke-opacity: 1; stroke-width: 1px;"/><path class="ygrid crisp" transform="translate(0,377.7)" d="M78,0h826" style="stroke: rgb(235, 240, 248); stroke-opacity: 1; stroke-width: 1px;"/><path class="ygrid crisp" transform="translate(0,323.05)" d="M78,0h826" style="stroke: rgb(235, 240, 248); stroke-opacity: 1; stroke-width: 1px;"/><path class="ygrid crisp" transform="translate(0,268.4)" d="M78,0h826" style="stroke: rgb(235, 240, 248); stroke-opacity: 1; stroke-width: 1px;"/><path class="ygrid crisp" transform="translate(0,213.75)" d="M78,0h826" style="stroke: rgb(235, 240, 248); stroke-opacity: 1; stroke-width: 1px;"/><path class="ygrid crisp" transform="translate(0,159.09)" d="M78,0h826" style="stroke: rgb(235, 240, 248); stroke-opacity: 1; stroke-width: 1px;"/><path class="ygrid crisp" transform="translate(0,104.44)" d="M78,0h826" style="stroke: rgb(235, 240, 248); stroke-opacity: 1; stroke-width: 1px;"/></g></g><g class="zerolinelayer"><path class="yzl zl crisp" transform="translate(0,487)" d="M78,0h826" style="stroke: rgb(0, 0, 0); stroke-opacity: 1; stroke-width: 2px;"/></g><path class="xlines-below"/><path class="ylines-below"/><g class="overlines-below"/><g class="xaxislayer-below"/><g class="yaxislayer-below"/><g class="overaxes-below"/><g class="plot" transform="translate(78,50)" clip-path="url(#clipd438c0xyplot)"><g class="scatterlayer mlayer"><g class="trace scatter trace4cc572" style="stroke-miterlimit: 2; opacity: 1;"><g class="fills"/><g class="errorbars"/><g class="lines"><path class="js-line" d="M0,401.29L1.23,392.25L2.46,394.58L3.69,400.4L4.92,397.37L6.15,404.17L7.38,406.75L8.6,381.68L9.83,316.59L11.06,380.66L12.29,374.59L13.52,388.81L14.75,374.37L15.98,384.3L17.21,411.38L18.44,417.81L19.67,416.51L20.9,404.99L22.13,408.03L23.35,408.36L24.58,396.91L25.81,415.96L27.04,415.11L28.27,428.69L29.5,395.31L30.73,408.14L31.96,437L86.04,437L87.27,417.44L90.96,395.41L92.19,398.32L93.42,360.99L94.65,359.65L95.88,382.94L97.1,385.68L98.33,379.21L99.56,392.33L100.79,437L102.02,437L126.6,437L127.83,390.71L130.29,413.93L131.52,396.11L132.75,403.64L133.98,397.37L135.21,408.93L136.44,404.17L138.9,437L140.13,437L205.27,437L206.5,397.21L207.73,402.86L208.96,394.52L210.19,386.81L211.42,390.14L212.65,398.95L213.88,437L218.79,437L220.02,390.51L221.25,382.34L222.48,388.21L223.71,386.94L224.94,395.72L226.17,382.58L227.4,381.54L228.63,375.6L229.85,437L231.08,437L232.31,424.81L233.54,390.67L234.77,388.82L236,409.64L237.23,393.63L238.46,403.55L239.69,400.88L240.92,403.35L242.15,414.03L243.38,413.54L244.6,395.03L247.06,412.05L248.29,401.08L249.52,396.74L250.75,403.96L251.98,412.98L253.21,395.63L255.67,413.38L256.9,390.35L258.13,402.01L259.35,437L328.19,437L329.42,388.52L330.65,389.61L331.88,387.86L333.1,389.67L334.33,393.02L335.56,394.32L336.79,378.47L338.02,437L339.25,437L342.94,437L344.17,393.44L345.4,437L346.63,437L356.46,437L357.69,403.2L358.92,418.71L360.15,411.59L361.38,423.17L362.6,419.11L363.83,406.39L365.06,414.15L366.29,413.07L367.52,413.3L368.75,409.32L369.98,392.63L371.21,362.39L372.44,376.37L373.67,336.59L374.9,437L441.27,437L442.5,401.98L443.73,375.22L444.96,391.44L446.19,386.29L447.42,385.4L448.65,405.62L449.88,404.17L451.1,399.32L452.33,436.38L454.79,437L456.02,437L467.08,437L468.31,404.15L469.54,403.72L470.77,386.86L472,389L473.23,413.94L474.46,405.36L475.69,403.78L478.15,415.01L479.38,416.95L480.6,415.6L481.83,409.38L483.06,393.12L484.29,411.62L485.52,415.32L486.75,437L593.69,437L594.92,430.25L597.38,408.52L598.6,410.78L599.83,416.46L601.06,413.68L602.29,400.28L603.52,413.3L604.75,417.81L605.98,417.75L607.21,405.37L608.44,411L609.67,408.63L610.9,414.8L612.13,409.95L613.35,414.07L615.81,419.87L617.04,417.26L618.27,418.39L619.5,422.9L620.73,437L621.96,437L680.96,437L682.19,389.71L683.42,386.48L684.65,423.36L685.88,437L687.1,437L700.63,437L701.85,400.71L703.08,387.26L704.31,392.69L705.54,385.25L706.77,384.58L708,410.69L709.23,408.55L710.46,404.56L711.69,406.2L712.92,412.36L714.15,406.4L715.38,412.93L716.6,395.6L717.83,394.7L719.06,356.38L721.52,391.9L722.75,395.01L723.98,384.71L725.21,395.21L726.44,373.51L727.67,392.1L728.9,408.66L730.13,399.58L732.58,388.73L733.81,414.94L735.04,406.78L736.27,414.53L738.73,402.66L739.96,409.72L741.19,429.56L742.42,437L826,437" style="vector-effect: non-scaling-stroke; fill: none; stroke: rgb(214, 39, 40); stroke-opacity: 1; stroke-width: 2px; opacity: 1;"/></g><g class="points"/><g class="text"/></g><g class="trace scatter tracefb53c7" style="stroke-miterlimit: 2; opacity: 1;"><g class="fills"/><g class="errorbars"/><g class="lines"><path class="js-line" d="M0,437L33.19,437L34.42,411.17L35.65,437L36.88,399.45L38.1,437L39.33,373.45L40.56,365.95L41.79,437L43.02,437L44.25,352.24L45.48,437L46.71,437L47.94,347.26L49.17,437L50.4,316.28L51.63,321.58L52.85,437L54.08,322.93L55.31,353.4L56.54,437L57.77,437L59,422.59L60.23,437L61.46,346.12L62.69,342.49L63.92,426.06L65.15,344L66.38,437L67.6,385.87L68.83,437L70.06,437L71.29,372.43L72.52,437L73.75,437L74.98,400.16L76.21,437L149.96,437L151.19,419.23L152.42,437L153.65,412.82L154.88,437L156.1,388.74L157.33,388.71L158.56,437L159.79,368.81L161.02,437L163.48,437L164.71,349.16L165.94,437L167.17,340.65L168.4,355.97L169.63,437L170.85,337.06L172.08,351L173.31,437L174.54,336.52L175.77,437L177,337.31L178.23,342.89L179.46,437L180.69,437L181.92,350.42L183.15,437L184.38,437L185.6,358.91L186.83,437L188.06,437L189.29,370.31L191.75,437L192.98,437L194.21,416.99L195.44,437L385.96,437L387.19,434.06L388.42,416.61L389.65,437L390.88,399.32L392.1,437L393.33,380.05L394.56,437L395.79,381.57L397.02,437L398.25,375.01L399.48,437L400.71,357.41L401.94,437L403.17,437L404.4,329.87L405.63,437L406.85,349.63L408.08,437L409.31,337.06L410.54,437L411.77,437L413,344.26L414.23,437L415.46,338.12L416.69,349.77L417.92,437L419.15,340.54L420.38,437L421.6,437L505.19,437L506.42,424.41L507.65,437L508.88,385.22L510.1,437L511.33,379.17L512.56,437L513.79,437L515.02,437L516.25,339.83L517.48,437L518.71,357.07L519.94,376.27L521.17,437L523.63,437L524.85,321.55L526.08,437L527.31,325.72L528.54,437L529.77,437L531,350.34L532.23,437L533.46,361.76L534.69,437L535.92,437L537.15,356.73L538.38,437L539.6,437L540.83,414.91L542.06,372.39L543.29,437L544.52,437L546.98,437L548.21,433.29L549.44,437L550.67,437L741.19,437L742.42,434.96L743.65,432.7L744.88,415.12L746.1,437L747.33,417.45L748.56,437L749.79,423.75L751.02,437L752.25,366.5L753.48,378.05L754.71,437L757.17,437L758.4,344.33L759.63,351.91L760.85,437L762.08,437L763.31,342.15L764.54,437L765.77,437L767,317.13L768.23,437L769.46,316.93L770.69,332.36L771.92,437L773.15,336.54L774.38,437L775.6,349.49L776.83,437L778.06,357.21L779.29,437L780.52,437L826,437" style="vector-effect: non-scaling-stroke; fill: none; stroke: rgb(255, 127, 14); stroke-opacity: 1; stroke-width: 2px; opacity: 1;"/></g><g class="points"/><g class="text"/></g><g class="trace scatter trace4c3742" style="stroke-miterlimit: 2; opacity: 1;"><g class="fills"/><g class="errorbars"/><g class="lines"><path class="js-line" d="M0,342.39L31.96,343.11L33.19,350.84L34.42,354.2L35.65,354.2L36.88,345.8L38.1,345.8L39.33,332.13L40.56,332.13L41.79,332.13L43.02,315.95L44.25,296.35L45.48,296.35L47.94,256.28L49.17,256.28L50.4,230L51.63,230L52.85,230L54.08,203.69L56.54,203.69L57.77,177.77L59,151.95L60.23,151.95L61.46,136.44L62.69,136.44L63.92,136.44L65.15,118.39L66.38,118.39L67.6,102.6L68.83,102.6L70.06,87.5L71.29,70.16L72.52,70.16L74.98,45.39L76.21,45.39L78.67,30.18L79.9,25.67L81.13,23L82.35,23.52L83.58,24.54L84.81,26.9L87.27,35.83L88.5,35.83L100.79,35.83L102.02,47.02L110.63,113.63L111.85,127.96L118,188.04L119.23,197.41L122.92,220.26L124.15,230.57L127.83,250.6L129.06,250.6L137.67,250.6L138.9,259.7L141.35,287.79L142.58,296.43L145.04,324.72L146.27,338.74L148.73,352.59L149.96,354.2L151.19,351.91L152.42,351.91L153.65,348.34L154.88,348.34L156.1,341.32L157.33,341.32L158.56,341.32L159.79,326.36L161.02,326.36L162.25,310.68L164.71,271.41L165.94,271.41L167.17,246.15L168.4,246.15L169.63,239.52L170.85,215.09L173.31,215.09L174.54,188.57L175.77,188.57L177,163.56L179.46,163.56L180.69,140.14L181.92,119.59L183.15,119.59L185.6,90L186.83,90L189.29,59.3L190.52,59.3L191.75,59.3L192.98,46.88L194.21,36.24L195.44,36.24L197.9,24.61L199.13,23L200.35,24.94L201.58,29.32L206.5,53.57L207.73,53.57L213.88,53.57L215.1,61.17L220.02,101.71L221.25,101.71L229.85,101.71L231.08,113.62L233.54,143.01L234.77,143.01L259.35,143.01L260.58,148.54L267.96,193.22L269.19,206.18L274.1,230.62L275.33,233.35L277.79,234.85L279.02,234.13L281.48,229.12L282.71,226.7L283.94,225.85L285.17,221.15L287.63,208.33L288.85,193.83L297.46,66.29L298.69,55.65L302.38,26.73L303.6,23L308.52,31.45L309.75,35.03L313.44,50.7L314.67,57.29L317.13,70.13L318.35,82.17L323.27,115.76L324.5,122.62L326.96,144.09L328.19,155.7L329.42,163.11L330.65,163.11L338.02,163.11L339.25,175.73L344.17,217.15L345.4,217.15L354,289.26L355.23,295.57L357.69,307.77L358.92,307.77L373.67,307.77L374.9,309.21L378.58,329.88L379.81,335.67L383.5,346.46L384.73,352.26L385.96,353.87L387.19,354.2L389.65,354.2L390.88,345.74L392.1,345.74L393.33,336.97L394.56,336.97L395.79,321.2L397.02,321.2L398.25,304.7L399.48,298.57L400.71,281.45L401.94,281.45L403.17,260.16L404.4,234.42L405.63,234.42L406.85,211.35L408.08,211.35L409.31,190.96L410.54,190.96L413,140.79L414.23,140.79L415.46,119.33L416.69,119.33L417.92,119.33L419.15,93.78L420.38,93.78L421.6,73.98L425.29,31.45L426.52,24.39L427.75,23L428.98,25.38L430.21,27.91L431.44,32.73L432.67,35.65L433.9,41.6L435.13,44.95L436.35,50.96L441.27,74.21L442.5,85.98L452.33,85.98L453.56,92.87L464.63,190.38L465.85,208.23L468.31,230.62L469.54,230.62L486.75,230.62L487.98,236.28L492.9,266.4L494.13,273.62L500.27,320.12L501.5,327.17L502.73,336.06L503.96,350.92L505.19,350.74L506.42,354.2L507.65,354.2L508.88,347.88L510.1,347.88L511.33,334.82L512.56,334.82L513.79,319.45L516.25,277.59L517.48,277.59L518.71,256.95L519.94,256.95L521.17,256.95L522.4,243.22L524.85,201.95L526.08,201.95L527.31,172.85L528.54,172.85L529.77,162.59L531,141.51L532.23,141.51L533.46,124.63L534.69,124.63L535.92,113.89L537.15,100.14L538.38,100.14L542.06,49.24L543.29,49.24L544.52,38.81L545.75,35.85L546.98,41.98L548.21,43.65L549.44,43.65L550.67,40.94L553.13,27.21L554.35,23.75L555.58,23L556.81,25.21L560.5,35.59L561.73,42.21L574.02,141.16L575.25,155.85L582.63,235.07L583.85,247.47L587.54,286.78L588.77,298.33L596.15,349.01L597.38,349.01L620.73,349.01L621.96,352.3L623.19,352.78L624.42,354.2L625.65,353.97L626.88,352.45L628.1,348.61L629.33,340.36L634.25,302.51L635.48,287.59L637.94,253.01L639.17,234.23L641.63,200.75L642.85,192.64L645.31,223.24L646.54,220.68L647.77,215.42L649,200.1L651.46,173.27L652.69,162.43L655.15,147.49L656.38,137.79L660.06,106.27L661.29,98.66L662.52,95.15L663.75,96.51L666.21,107.46L667.44,107.92L668.67,107.02L669.9,102.45L671.13,98.67L672.35,97.37L673.58,99.46L674.81,105.12L678.5,119.85L679.73,128.09L682.19,155.23L683.42,155.23L684.65,155.23L685.88,164.4L689.56,204.38L690.79,232.51L695.71,292.71L696.94,304.86L701.85,354.2L703.08,354.2L746.1,354.2L747.33,349.53L748.56,349.53L749.79,344.47L751.02,354.2L752.25,339.24L754.71,339.24L755.94,324.18L758.4,285.34L759.63,285.34L760.85,285.34L762.08,270.2L763.31,250.47L764.54,250.47L767,196.14L768.23,196.14L769.46,168.46L770.69,168.46L771.92,165.65L773.15,138.37L774.38,138.37L775.6,115.16L776.83,115.16L778.06,92.09L779.29,92.09L780.52,74.91L784.21,33.61L785.44,27.51L786.67,29.63L787.9,26.5L789.13,23.26L790.35,23L791.58,24.2L792.81,29.39L796.5,55.35L797.73,63.99L810.02,176.91L811.25,186.93L817.4,249.21L818.63,268.92L824.77,334.16L826,342.39" style="vector-effect: non-scaling-stroke; fill: none; stroke: rgb(44, 160, 44); stroke-opacity: 1; stroke-width: 2px; opacity: 1;"/></g><g class="points"/><g class="text"/></g><g class="trace scatter trace17d7e8" style="stroke-miterlimit: 2; opacity: 1;"><g class="fills"/><g class="errorbars"/><g class="lines"><path class="js-line" d="M0,367.86L11.06,367.47L12.29,367.37L20.9,366.18L22.13,365.76L40.56,359.7L41.79,359.52L46.71,358.1L47.94,357.57L49.17,357.04L50.4,357.47L56.54,358.95L57.77,359.04L67.6,360.37L68.83,360.61L79.9,357.6L81.13,357.76L83.58,358.08L84.81,359.37L88.5,363.22L89.73,363.2L98.33,363.71L99.56,361.54L108.17,345.2L109.4,345.8L115.54,349.38L116.77,350.28L119.23,351.61L120.46,352.05L122.92,352.92L124.15,355.48L127.83,363.16L129.06,363.58L132.75,364.84L133.98,363.97L143.81,356.17L145.04,355.02L147.5,352.71L148.73,354.57L152.42,360.14L153.65,360.09L159.79,359.33L161.02,359.03L163.48,357.86L164.71,356.99L172.08,352.22L173.31,349.84L177,342.71L178.23,343.68L181.92,346.62L183.15,349.47L186.83,358.02L188.06,358.57L192.98,359.95L194.21,359.71L197.9,358.35L199.13,357.49L201.58,355.76L202.81,357.68L206.5,363.42L207.73,363.56L212.65,363.49L213.88,363L216.33,362.03L217.56,362.52L223.71,364.25L224.94,364.37L227.4,363.97L228.63,363.44L231.08,362.38L232.31,363.05L237.23,364.94L238.46,364.8L245.83,364.49L247.06,364.6L255.67,364.84L256.9,364.22L261.81,362.2L263.04,362.06L265.5,361.77L266.73,360.62L282.71,344.94L283.94,343.34L286.4,341.29L287.63,340.83L291.31,340.02L292.54,340.12L295,340.33L296.23,341.54L302.38,346.84L303.6,347.67L306.06,350.1L307.29,351.7L310.98,355.65L312.21,356.41L317.13,358.78L318.35,359.2L333.1,363.62L334.33,363.86L340.48,362.38L341.71,362.62L344.17,363.1L345.4,362.38L350.31,360.15L351.54,360.1L354,360L355.23,361.09L358.92,364.35L360.15,364.04L366.29,363.16L367.52,363.17L378.58,362.67L379.81,360.66L383.5,354.63L384.73,354.29L388.42,353.27L389.65,353.95L394.56,355.96L395.79,355.94L398.25,355.88L399.48,354.96L404.4,350.55L405.63,348.91L408.08,345.64L409.31,347.22L413,351.99L414.23,352.09L422.83,353.47L424.06,354.05L427.75,355.79L428.98,354.13L432.67,349.15L433.9,349.82L437.58,351.84L438.81,353.85L442.5,359.85L443.73,360.1L447.42,360.84L448.65,360.11L452.33,357.94L453.56,356.07L457.25,350.48L458.48,351.04L463.4,353.97L464.63,355.22L468.31,358.27L469.54,358.81L472,359.88L473.23,359.53L476.92,358.46L478.15,359L481.83,360.61L483.06,359.72L487.98,356.75L489.21,356.43L491.67,355.79L492.9,353.75L497.81,346.95L499.04,346.26L501.5,344.88L502.73,345.06L515.02,346.14L516.25,346.22L522.4,342.73L523.63,342.4L527.31,342.1L528.54,342.46L534.69,344.8L535.92,345.35L545.75,339.14L546.98,339.28L550.67,339.72L551.9,339.03L555.58,336.99L556.81,338.8L561.73,345L562.96,345.77L565.42,347.29L566.65,345.88L575.25,336.9L576.48,337.78L580.17,340.41L581.4,340.09L585.08,339.14L586.31,339.7L590,341.37L591.23,343.05L596.15,348.51L597.38,348.94L603.52,350.4L604.75,350.6L609.67,357.13L610.9,357.14L614.58,357.18L615.81,355.14L620.73,348L621.96,346.97L631.79,339.34L633.02,338.7L635.48,337.98L636.71,337.9L639.17,337.74L640.4,338.79L645.31,342.23L646.54,342.53L662.52,347.21L663.75,347.7L668.67,348.25L669.9,347.41L673.58,344.91L674.81,345.52L683.42,350.31L684.65,348.99L689.56,344.6L690.79,344.14L694.48,343.18L695.71,343.13L698.17,343.02L699.4,345.08L703.08,351.26L704.31,351.84L717.83,357.73L719.06,357.49L722.75,356.75L723.98,357.55L727.67,359.97L728.9,359.87L737.5,358.87L738.73,358.37L743.65,356.87L744.88,356.88L826,357.57" style="vector-effect: non-scaling-stroke; fill: none; stroke: rgb(188, 189, 34); stroke-opacity: 1; stroke-width: 2px; opacity: 1;"/></g><g class="points"/><g class="text"/></g><g class="trace scatter trace1e062b" style="stroke-miterlimit: 2; opacity: 1;"><g class="fills"/><g class="errorbars"/><g class="lines"><path class="js-line" d="M0,437L34.42,437L35.65,401.61L36.88,437L38.1,379.47L39.33,437L40.56,437L41.79,368.86L43.02,354.47L44.25,437L45.48,359.64L46.71,345.66L47.94,437L49.17,326.35L50.4,437L51.63,437L52.85,326.22L54.08,437L55.31,437L56.54,327.86L57.77,328.28L59,437L60.23,371.68L61.46,437L62.69,437L63.92,361L65.15,437L66.38,370.55L67.6,437L68.83,373.39L70.06,363.99L71.29,437L72.52,382.69L73.75,387.03L74.98,437L76.21,398.72L77.44,411.22L79.9,425.75L81.13,437L148.73,437L149.96,427.36L151.19,437L152.42,421.96L153.65,437L154.88,407.45L156.1,437L157.33,437L158.56,374.01L159.79,437L161.02,370.95L162.25,357.35L163.48,351.32L164.71,437L165.94,330.64L167.17,437L168.4,409.09L169.63,334.13L170.85,437L172.08,437L173.31,325.35L174.54,437L175.77,331.69L177,437L178.23,437L179.46,338.38L180.69,350.46L181.92,437L184.38,361.59L185.6,437L186.83,362.1L188.06,382.67L189.29,437L190.52,437L191.75,384.69L192.98,392.22L194.21,437L195.44,407.73L199.13,437L200.35,437L276.56,437L277.79,433.97L279.02,423.5L280.25,429.41L281.48,426.83L282.71,433.41L283.94,417.19L285.17,414.87L286.4,405.14L287.63,375.98L288.85,353.8L290.08,359.46L291.31,346.81L292.54,354.08L293.77,366.5L295,360.94L297.46,392.21L298.69,394.55L299.92,390.47L301.15,404.21L303.6,437L304.83,437L388.42,437L389.65,401.38L390.88,437L392.1,400.06L393.33,437L394.56,370.63L395.79,437L397.02,367.5L398.25,411.21L399.48,364.89L400.71,437L401.94,347.38L403.17,328.61L404.4,437L405.63,310.76L406.85,437L408.08,351.13L409.31,437L411.77,293.43L413,437L414.23,346.65L415.46,437L416.69,437L417.92,329.4L419.15,437L420.38,353.63L422.83,379.15L424.06,384.32L426.52,431.17L427.75,437L502.73,437L503.96,436.24L506.42,437L507.65,410.37L508.88,437L510.1,382.01L511.33,437L512.56,372.28L513.79,349.84L515.02,347.94L516.25,437L517.48,350.08L518.71,437L519.94,437L522.4,355.84L523.63,344.39L524.85,437L526.08,314.45L527.31,437L528.54,393.8L529.77,348.24L531,437L532.23,365.93L533.46,437L534.69,391.8L535.92,379.09L537.15,437L538.38,368.36L539.6,355.5L540.83,372.85L542.06,437L543.29,393.07L545.75,437L546.98,437L548.21,437L549.44,425.59L550.67,403.2L551.9,412.97L554.35,433.86L555.58,437L623.19,437L624.42,436.02L625.65,430.6L626.88,420.87L628.1,402.23L629.33,399.9L630.56,394.14L631.79,407.69L634.25,374.15L635.48,377.22L636.71,351.17L637.94,357.96L640.4,370.2L641.63,402.85L642.85,437L644.08,437L646.54,414.86L647.77,372.49L649,368.74L650.23,392.29L651.46,391.35L652.69,412.42L653.92,398.68L655.15,396.16L656.38,388.41L657.6,400.24L658.83,389.65L660.06,404.96L662.52,437L663.75,437L666.21,437L667.44,433.21L668.67,417.76L669.9,421.11L672.35,437L673.58,437L744.88,437L746.1,417.33L747.33,437L748.56,415.71L749.79,437L751.02,374L752.25,437L753.48,437L754.71,373.61L755.94,366.55L757.17,343.91L758.4,437L759.63,437L760.85,373.24L762.08,353.94L763.31,437L765.77,283.4L767,437L768.23,320.47L769.46,437L770.69,425.18L771.92,291.64L773.15,437L774.38,339.29L775.6,437L776.83,339.86L778.06,437L779.29,364.67L780.52,369.05L781.75,385.52L782.98,382.51L784.21,411.33L785.44,437L786.67,423.83L787.9,423.37L789.13,435.89L790.35,437L791.58,437L826,437" style="vector-effect: non-scaling-stroke; fill: none; stroke: rgb(227, 119, 194); stroke-opacity: 1; stroke-width: 2px; opacity: 1;"/></g><g class="points"/><g class="text"/></g><g class="trace scatter trace14e47a" style="stroke-miterlimit: 2; opacity: 1;"><g class="fills"/><g class="errorbars"/><g class="lines"><path class="js-line" d="M0,437L29.5,437L30.73,434.29L31.96,407.6L33.19,424.24L34.42,437L35.65,437L79.9,437L81.13,435.01L82.35,433.15L83.58,428.02L84.81,417.15L86.04,422.92L87.27,437L88.5,437L99.56,437L100.79,394.47L103.25,407.94L104.48,401.4L105.71,400.01L106.94,400.22L108.17,392.79L109.4,400.86L110.63,382.53L111.85,385.33L113.08,385.8L114.31,387.1L115.54,392.79L116.77,405.69L118,401.38L119.23,410.29L120.46,410.51L121.69,403.37L122.92,397.82L124.15,410.17L125.38,414.67L126.6,410.05L127.83,437L129.06,437L136.44,437L137.67,402.44L138.9,368.36L140.13,398.88L141.35,404.18L142.58,361.81L143.81,404.69L145.04,383.7L147.5,417.02L148.73,430.86L149.96,437L151.19,437L197.9,437L199.13,429.61L201.58,413.62L202.81,413.06L205.27,415.35L206.5,437L212.65,437L213.88,408.13L215.1,399.8L216.33,403.55L217.56,389.05L218.79,401.55L220.02,437L221.25,437L228.63,437L229.85,391.72L231.08,376.94L232.31,385.39L233.54,437L234.77,437L258.13,437L259.35,415.99L260.58,408.92L261.81,418.08L263.04,401.3L264.27,413.82L265.5,406.4L266.73,403.68L267.96,387.74L269.19,411.68L270.42,412.63L271.65,415.29L272.88,415.52L274.1,426.62L276.56,435.97L277.79,437L302.38,437L303.6,429.07L304.83,425.41L306.06,433.67L309.75,417.71L310.98,422.57L312.21,411.19L313.44,411.94L314.67,414.63L315.9,410.57L317.13,391.24L318.35,404.06L319.58,394.59L320.81,402.79L322.04,418.9L323.27,410.96L324.5,403.97L325.73,388.44L326.96,392.87L328.19,408.85L329.42,437L330.65,437L336.79,437L338.02,389.03L340.48,403.32L341.71,398.46L342.94,390.13L344.17,437L345.4,397.87L346.63,399.82L349.08,393.39L350.31,393.23L351.54,396.26L352.77,407.86L355.23,416.53L356.46,411.12L357.69,437L358.92,437L372.44,437L373.67,431.52L374.9,405.62L376.13,412.57L378.58,415L379.81,424.36L381.04,426.89L382.27,418.74L383.5,414.95L384.73,430.89L385.96,435.75L387.19,437L404.4,437L405.63,410.73L406.85,437L408.08,437L410.54,437L411.77,409.56L413,437L414.23,437L426.52,437L427.75,427.97L428.98,427.38L430.21,418.7L431.44,425.9L432.67,414.4L433.9,424.26L435.13,414.16L436.35,415.92L437.58,419.62L438.81,411.71L440.04,412.41L441.27,392.26L442.5,437L451.1,437L452.33,410.81L453.56,394.26L454.79,404.27L456.02,400.47L457.25,403.26L458.48,384.13L459.71,389.06L460.94,409.28L462.17,379.07L463.4,398.64L464.63,369.19L465.85,398.19L467.08,390.73L468.31,437L469.54,437L485.52,437L486.75,415.48L487.98,403.84L489.21,407.59L490.44,406.99L491.67,415.14L494.13,402.41L495.35,388.82L496.58,405.61L497.81,393.48L499.04,417.98L500.27,410.23L501.5,403.23L502.73,380.52L503.96,437L505.19,423.84L506.42,437L507.65,437L544.52,437L545.75,413.72L546.98,430.63L548.21,437L554.35,437L555.58,428.6L556.81,424.64L558.04,425.15L559.27,421.77L560.5,411.87L561.73,399.89L562.96,399.65L564.19,407.73L565.42,400.01L566.65,405.9L567.88,396.41L570.33,391.31L571.56,400.77L572.79,399.33L574.02,381.15L576.48,383.76L577.71,382.55L578.94,392.6L580.17,391.3L581.4,388.61L582.63,389.88L583.85,379.64L585.08,385.93L586.31,396.07L587.54,393.11L588.77,403.15L590,404.65L591.23,407.41L592.46,399.64L593.69,393.46L594.92,421.12L596.15,437L597.38,437L619.5,437L620.73,424.48L621.96,435.19L623.19,431.59L624.42,437L625.65,437L641.63,437L642.85,358.14L645.31,437L646.54,437L661.29,437L662.52,431.84L663.75,410.94L664.98,421.44L666.21,435.26L667.44,437L671.13,437L672.35,429.06L673.58,415.49L674.81,420.29L676.04,413.74L677.27,421L678.5,405.68L679.73,374.27L680.96,396.61L682.19,437L683.42,437L684.65,402.14L685.88,389.03L687.1,387.65L688.33,382.41L689.56,330.09L690.79,374.32L692.02,379.91L693.25,378.6L694.48,386.43L695.71,390.81L696.94,388.7L698.17,398.15L699.4,383.62L700.63,390.05L701.85,437L748.56,437L749.79,400.03L751.02,437L752.25,437L764.54,437L765.77,408.54L767,437L768.23,437L770.69,437L771.92,409.5L773.15,437L774.38,437L784.21,437L785.44,428.95L786.67,437L787.9,437L789.13,437L790.35,432.43L792.81,396.5L794.04,408.92L796.5,404.17L797.73,391.92L798.96,405.02L800.19,396.18L801.42,388.99L802.65,389.35L805.1,394.06L806.33,390.95L807.56,398.09L808.79,395.02L810.02,398.94L811.25,393.53L812.48,384.66L813.71,398.08L814.94,379.22L816.17,392.84L817.4,362.11L818.63,386.4L819.85,373.14L821.08,392.98L822.31,398.08L823.54,386.48L824.77,405.7L826,411.13" style="vector-effect: non-scaling-stroke; fill: none; stroke: rgb(23, 190, 207); stroke-opacity: 1; stroke-width: 2px; opacity: 1;"/></g><g class="points"/><g class="text"/></g></g></g><g class="overplot"/><path class="xlines-above crisp" d="M0,0" style="fill: none;"/><path class="ylines-above crisp" d="M0,0" style="fill: none;"/><g class="overlines-above"/><g class="xaxislayer-above"><g class="xtick"><text text-anchor="middle" x="0" y="530" transform="translate(78,0)" style="font-family: 'Open Sans', verdana, arial, sans-serif; font-size: 19px; fill: rgb(42, 63, 95); fill-opacity: 1; white-space: pre; opacity: 1;"><tspan class="line" dy="0em" x="0" y="530">Apr 23</tspan><tspan class="line" dy="1.3em" x="0" y="530">2019</tspan></text></g><g class="xtick"><text text-anchor="middle" x="0" y="530" style="font-family: 'Open Sans', verdana, arial, sans-serif; font-size: 19px; fill: rgb(42, 63, 95); fill-opacity: 1; white-space: pre; opacity: 1;" transform="translate(196,0)">Apr 24</text></g><g class="xtick"><text text-anchor="middle" x="0" y="530" style="font-family: 'Open Sans', verdana, arial, sans-serif; font-size: 19px; fill: rgb(42, 63, 95); fill-opacity: 1; white-space: pre; opacity: 1;" transform="translate(314,0)">Apr 25</text></g><g class="xtick"><text text-anchor="middle" x="0" y="530" style="font-family: 'Open Sans', verdana, arial, sans-serif; font-size: 19px; fill: rgb(42, 63, 95); fill-opacity: 1; white-space: pre; opacity: 1;" transform="translate(432,0)">Apr 26</text></g><g class="xtick"><text text-anchor="middle" x="0" y="530" style="font-family: 'Open Sans', verdana, arial, sans-serif; font-size: 19px; fill: rgb(42, 63, 95); fill-opacity: 1; white-space: pre; opacity: 1;" transform="translate(550,0)">Apr 27</text></g><g class="xtick"><text text-anchor="middle" x="0" y="530" style="font-family: 'Open Sans', verdana, arial, sans-serif; font-size: 19px; fill: rgb(42, 63, 95); fill-opacity: 1; white-space: pre; opacity: 1;" transform="translate(668,0)">Apr 28</text></g><g class="xtick"><text text-anchor="middle" x="0" y="530" style="font-family: 'Open Sans', verdana, arial, sans-serif; font-size: 19px; fill: rgb(42, 63, 95); fill-opacity: 1; white-space: pre; opacity: 1;" transform="translate(786,0)">Apr 29</text></g><g class="xtick"><text text-anchor="middle" x="0" y="530" style="font-family: 'Open Sans', verdana, arial, sans-serif; font-size: 19px; fill: rgb(42, 63, 95); fill-opacity: 1; white-space: pre; opacity: 1;" transform="translate(904,0)">Apr 30</text></g></g><g class="yaxislayer-above"><g class="ytick"><text text-anchor="end" x="77" y="6.6499999999999995" transform="translate(0,487)" style="font-family: 'Open Sans', verdana, arial, sans-serif; font-size: 19px; fill: rgb(42, 63, 95); fill-opacity: 1; white-space: pre; opacity: 1;">0</text></g><g class="ytick"><text text-anchor="end" x="77" y="6.6499999999999995" style="font-family: 'Open Sans', verdana, arial, sans-serif; font-size: 19px; fill: rgb(42, 63, 95); fill-opacity: 1; white-space: pre; opacity: 1;" transform="translate(0,432.35)">20</text></g><g class="ytick"><text text-anchor="end" x="77" y="6.6499999999999995" style="font-family: 'Open Sans', verdana, arial, sans-serif; font-size: 19px; fill: rgb(42, 63, 95); fill-opacity: 1; white-space: pre; opacity: 1;" transform="translate(0,377.7)">40</text></g><g class="ytick"><text text-anchor="end" x="77" y="6.6499999999999995" style="font-family: 'Open Sans', verdana, arial, sans-serif; font-size: 19px; fill: rgb(42, 63, 95); fill-opacity: 1; white-space: pre; opacity: 1;" transform="translate(0,323.05)">60</text></g><g class="ytick"><text text-anchor="end" x="77" y="6.6499999999999995" style="font-family: 'Open Sans', verdana, arial, sans-serif; font-size: 19px; fill: rgb(42, 63, 95); fill-opacity: 1; white-space: pre; opacity: 1;" transform="translate(0,268.4)">80</text></g><g class="ytick"><text text-anchor="end" x="77" y="6.6499999999999995" style="font-family: 'Open Sans', verdana, arial, sans-serif; font-size: 19px; fill: rgb(42, 63, 95); fill-opacity: 1; white-space: pre; opacity: 1;" transform="translate(0,213.75)">100</text></g><g class="ytick"><text text-anchor="end" x="77" y="6.6499999999999995" style="font-family: 'Open Sans', verdana, arial, sans-serif; font-size: 19px; fill: rgb(42, 63, 95); fill-opacity: 1; white-space: pre; opacity: 1;" transform="translate(0,159.09)">120</text></g><g class="ytick"><text text-anchor="end" x="77" y="6.6499999999999995" style="font-family: 'Open Sans', verdana, arial, sans-serif; font-size: 19px; fill: rgb(42, 63, 95); fill-opacity: 1; white-space: pre; opacity: 1;" transform="translate(0,104.44)">140</text></g></g><g class="overaxes-above"/></g></g><g class="polarlayer"/><g class="ternarylayer"/><g class="geolayer"/><g class="funnelarealayer"/><g class="pielayer"/><g class="iciclelayer"/><g class="treemaplayer"/><g class="sunburstlayer"/><g class="glimages"/><defs id="topdefs-d438c0"><g class="clips"/><clipPath id="legendd438c0"><rect width="169" height="207" x="0" y="0"/></clipPath></defs><g class="layer-above"><g class="imagelayer"/><g class="shapelayer"/></g><g class="infolayer"><g class="legend" pointer-events="all" transform="translate(920.52,50)"><rect class="bg" shape-rendering="crispEdges" width="169" height="207" x="0" y="0" style="stroke: rgb(68, 68, 68); stroke-opacity: 1; fill: rgb(255, 255, 255); fill-opacity: 1; stroke-width: 0px;"/><g class="scrollbox" transform="" clip-path="url(#legendd438c0)"><text class="legendtitletext" text-anchor="start" x="2" y="29.900000000000002" style="font-family: 'Open Sans', verdana, arial, sans-serif; font-size: 23px; fill: rgb(42, 63, 95); fill-opacity: 1; white-space: pre;">variable</text><g class="groups" transform=""><g class="traces" transform="translate(0,48.75)" style="opacity: 1;"><text class="legendtext" text-anchor="start" x="40" y="7.409999999999999" style="font-family: 'Open Sans', verdana, arial, sans-serif; font-size: 19px; fill: rgb(42, 63, 95); fill-opacity: 1; white-space: pre;">grid_kw</text><g class="layers" style="opacity: 1;"><g class="legendfill"/><g class="legendlines"><path class="js-line" d="M5,0h30" style="fill: none; stroke: rgb(214, 39, 40); stroke-opacity: 1; stroke-width: 2px;"/></g><g class="legendsymbols"><g class="legendpoints"/></g></g><rect class="legendtoggle" x="0" y="-13.85" width="163.015625" height="27.7" style="fill: rgb(0, 0, 0); fill-opacity: 0;"/></g><g class="traces" transform="translate(0,76.45)" style="opacity: 1;"><text class="legendtext" text-anchor="start" x="40" y="7.409999999999999" style="font-family: 'Open Sans', verdana, arial, sans-serif; font-size: 19px; fill: rgb(42, 63, 95); fill-opacity: 1; white-space: pre;">battery_kWh</text><g class="layers" style="opacity: 1;"><g class="legendfill"/><g class="legendlines"><path class="js-line" d="M5,0h30" style="fill: none; stroke: rgb(44, 160, 44); stroke-opacity: 1; stroke-width: 2px;"/></g><g class="legendsymbols"><g class="legendpoints"/></g></g><rect class="legendtoggle" x="0" y="-13.85" width="163.015625" height="27.7" style="fill: rgb(0, 0, 0); fill-opacity: 0;"/></g></g><g class="groups" transform=""><g class="traces" transform="translate(0,104.14999999999999)" style="opacity: 1;"><text class="legendtext" text-anchor="start" x="40" y="7.409999999999999" style="font-family: 'Open Sans', verdana, arial, sans-serif; font-size: 19px; fill: rgb(42, 63, 95); fill-opacity: 1; white-space: pre;">pv_curtailed</text><g class="layers" style="opacity: 1;"><g class="legendfill"/><g class="legendlines"><path class="js-line" d="M5,0h30" style="fill: none; stroke: rgb(255, 127, 14); stroke-opacity: 1; stroke-width: 2px;"/></g><g class="legendsymbols"><g class="legendpoints"/></g></g><rect class="legendtoggle" x="0" y="-13.85" width="163.015625" height="27.7" style="fill: rgb(0, 0, 0); fill-opacity: 0;"/></g></g><g class="groups" transform=""><g class="traces" transform="translate(0,131.85)" style="opacity: 1;"><text class="legendtext" text-anchor="start" x="40" y="7.409999999999999" style="font-family: 'Open Sans', verdana, arial, sans-serif; font-size: 19px; fill: rgb(42, 63, 95); fill-opacity: 1; white-space: pre;">co2_g_kwh</text><g class="layers" style="opacity: 1;"><g class="legendfill"/><g class="legendlines"><path class="js-line" d="M5,0h30" style="fill: none; stroke: rgb(188, 189, 34); stroke-opacity: 1; stroke-width: 2px;"/></g><g class="legendsymbols"><g class="legendpoints"/></g></g><rect class="legendtoggle" x="0" y="-13.85" width="163.015625" height="27.7" style="fill: rgb(0, 0, 0); fill-opacity: 0;"/></g></g><g class="groups" transform=""><g class="traces" transform="translate(0,159.54999999999998)" style="opacity: 1;"><text class="legendtext" text-anchor="start" x="40" y="7.409999999999999" style="font-family: 'Open Sans', verdana, arial, sans-serif; font-size: 19px; fill: rgb(42, 63, 95); fill-opacity: 1; white-space: pre;">batteryin</text><g class="layers" style="opacity: 1;"><g class="legendfill"/><g class="legendlines"><path class="js-line" d="M5,0h30" style="fill: none; stroke: rgb(227, 119, 194); stroke-opacity: 1; stroke-width: 2px;"/></g><g class="legendsymbols"><g class="legendpoints"/></g></g><rect class="legendtoggle" x="0" y="-13.85" width="163.015625" height="27.7" style="fill: rgb(0, 0, 0); fill-opacity: 0;"/></g></g><g class="groups" transform=""><g class="traces" transform="translate(0,187.25)" style="opacity: 1;"><text class="legendtext" text-anchor="start" x="40" y="7.409999999999999" style="font-family: 'Open Sans', verdana, arial, sans-serif; font-size: 19px; fill: rgb(42, 63, 95); fill-opacity: 1; white-space: pre;">batteryout</text><g class="layers" style="opacity: 1;"><g class="legendfill"/><g class="legendlines"><path class="js-line" d="M5,0h30" style="fill: none; stroke: rgb(23, 190, 207); stroke-opacity: 1; stroke-width: 2px;"/></g><g class="legendsymbols"><g class="legendpoints"/></g></g><rect class="legendtoggle" x="0" y="-13.85" width="163.015625" height="27.7" style="fill: rgb(0, 0, 0); fill-opacity: 0;"/></g></g></g><rect class="scrollbar" rx="20" ry="3" width="0" height="0" x="0" y="0" style="fill: rgb(128, 139, 164); fill-opacity: 1;"/></g><g class="g-gtitle"/><g class="g-xtitle"/><g class="g-ytitle" transform="translate(13.349609375,0)"><text class="ytitle" transform="rotate(-90,9.650000000000006,280)" x="9.650000000000006" y="280" text-anchor="middle" style="font-family: 'Open Sans', verdana, arial, sans-serif; font-size: 23px; fill: rgb(42, 63, 95); opacity: 1; font-weight: normal; white-space: pre;">Legend</text></g></g></svg>