<svg class="main-svg" xmlns="http://www.w3.org/2000/svg" xmlns:xlink="http://www.w3.org/1999/xlink" width="1100" height="600" viewBox="0 0 1100 600"><rect x="0" y="0" width="1100" height="600" style="fill: rgb(255, 255, 255); fill-opacity: 1;"/><defs id="defs-bf77aa"><g class="clips"><clipPath id="clipbf77aaxyplot" class="plotclip"><rect width="826" height="460"/></clipPath><clipPath class="axesclip" id="clipbf77aax"><rect x="78" y="0" width="826" height="600"/></clipPath><clipPath class="axesclip" id="clipbf77aay"><rect x="0" y="50" width="1100" height="460"/></clipPath><clipPath class="axesclip" id="clipbf77aaxy"><rect x="78" y="50" width="826" height="460"/></clipPath></g><g class="gradients"/><g class="patterns"/></defs><g class="bglayer"/><g class="layer-below"><g class="imagelayer"/><g class="shapelayer"/></g><g class="cartesianlayer"><g class="subplot xy"><g class="layer-subplot"><g class="shapelayer"/><g class="imagelayer"/></g><g class="gridlayer"><g class="x"><path class="xgrid crisp" transform="translate(196,0)" d="M0,50v460" style="stroke: rgb(235, 240, 248); stroke-opacity: 1; stroke-width: 1px;"/><path class="xgrid crisp" transform="translate(314,0)" d="M0,50v460" style="stroke: rgb(235, 240, 248); stroke-opacity: 1; stroke-width: 1px;"/><path class="xgrid crisp" transform="translate(432,0)" d="M0,50v460" style="stroke: rgb(235, 240, 248); stroke-opacity: 1; stroke-width: 1px;"/><path class="xgrid crisp" transform="translate(550,0)" d="M0,50v460" style="stroke: rgb(235, 240, 248); stroke-opacity: 1; stroke-width: 1px;"/><path class="xgrid crisp" transform="translate(668,0)" d="M0,50v460" style="stroke: rgb(235, 240, 248); stroke-opacity: 1; stroke-width: 1px;"/><path class="xgrid crisp" transform="translate(786,0)" d="M0,50v460" style="stroke: rgb(235, 240, 248); stroke-opacity: 1; stroke-width: 1px;"/></g><g class="y"><path class="ygrid crisp" transform="translate(0,432.35)" d="M78,0h826" style="stroke: rgb(235, 240, 248); stroke-opacity: 1; stroke-width: 1px;"/><path class="ygrid crisp" transform="translate(0,377.7)" d="M78,0h826" style="stroke: rgb(235, 240, 248); stroke-opacity: 1; stroke-width: 1px;"/><path class="ygrid crisp" transform="translate(0,323.05)" d="M78,0h826" style="stroke: rgb(235, 240, 248); stroke-opacity: 1; stroke-width: 1px;"/><path class="ygrid crisp" transform="translate(0,268.4)" d="M78,0h826" style="stroke: rgb(235, 240, 248); stroke-opacity: 1; stroke-width: 1px;"/><path class="ygrid crisp" transform="translate(0,213.75)" d="M78,0h826" style="stroke: rgb(235, 240, 248); stroke-opacity: 1; stroke-width: 1px;"/><path class="ygrid crisp" transform="translate(0,159.09)" d="M78,0h826" style="stroke: rgb(235, 240, 248); stroke-opacity: 1; stroke-width: 1px;"/><path class="ygrid crisp" transform="translate(0,104.44)" d="M78,0h826" style="stroke: rgb(235, 240, 248); stroke-opacity: 1; stroke-width: 1px;"/></g></g><g class="zerolinelayer"><path class="yzl zl crisp" transform="translate(0,487)" d="M78,0h826" style="stroke: rgb(0, 0, 0); stroke-opacity: 1; stroke-width: 2px;"/></g><path class="xlines-below"/><path class="ylines-below"/><g class="overlines-below"/><g class="xaxislayer-below"/><g class="yaxislayer-below"/><g class="overaxes-below"/><g class="plot" transform="translate(78,50)" clip-path="url(#clipbf77aaxyplot)"><g class="scatterlayer mlayer"><g class="trace scatter trace9d39c9" style="stroke-miterlimit: 2; opacity: 1;"><g class="fills"/><g class="errorbars"/><g class="lines"><path class="js-line" d="M0,414.38L1.23,414.66L2.46,409.98L4.92,418.62L6.15,419.36L7.38,413.93L8.6,422.89L9.83,408.05L11.06,410.6L12.29,421.53L13.52,416.57L14.75,420.19L15.98,417.34L17.21,415.88L18.44,415.59L19.67,413.36L20.9,373.66L22.13,418.85L23.35,376.68L24.58,418.71L25.81,421.89L27.04,416.4L28.27,437L49.17,437L50.4,420.1L52.85,423.61L54.08,426.3L55.31,426.92L56.54,436.94L57.77,434.45L59,435.97L60.23,432.64L61.46,434.84L63.92,421.12L65.15,427.32L66.38,421.73L67.6,423.55L70.06,431.27L71.29,419.8L73.75,425.49L74.98,425.51L76.21,421.71L77.44,414.13L78.67,416.12L79.9,413.72L81.13,412.06L82.35,414.97L83.58,406.23L84.81,409.41L86.04,413.28L87.27,409.88L88.5,374.3L89.73,393.09L90.96,407.8L92.19,401.99L93.42,398.3L94.65,400.69L95.88,402.02L97.1,392.68L98.33,396.85L99.56,397.2L100.79,404.17L102.02,405.21L103.25,405.25L104.48,390.21L105.71,391.23L106.94,394.23L109.4,400.57L110.63,397.57L111.85,400.54L113.08,410.76L115.54,385.18L116.77,403.28L119.23,418.45L120.46,412.89L121.69,414.04L122.92,410.71L124.15,413.25L125.38,420.09L127.83,408.63L129.06,398.57L130.29,409.86L131.52,405.5L132.75,403.42L133.98,393.57L135.21,390.96L136.44,413.85L138.9,422.81L140.13,420.21L142.58,424.27L143.81,423.33L145.04,418.3L146.27,420.57L147.5,404.79L148.73,408.2L149.96,425.82L151.19,429.37L152.42,436.55L153.65,437L227.4,437L228.63,426.29L229.85,380.42L231.08,395.82L232.31,406.23L233.54,397.61L237.23,413.19L238.46,398.07L239.69,400.51L240.92,416.29L242.15,411.98L243.38,413.69L244.6,412.95L245.83,382.88L247.06,370.67L248.29,403.52L249.52,405.58L250.75,388.53L251.98,358.31L253.21,406.39L254.44,417.8L255.67,416.55L258.13,411.44L259.35,397.03L261.81,416.89L263.04,376.24L264.27,400.22L265.5,402.14L266.73,414.4L267.96,409.63L270.42,437L271.65,437L272.88,433.22L274.1,418.69L275.33,422.78L276.56,437L326.96,437L328.19,401.01L329.42,405.58L330.65,387.25L331.88,397.9L333.1,399.79L334.33,390.14L335.56,402.16L338.02,397.47L339.25,437L347.85,437L349.08,407.09L350.31,437L351.54,437L355.23,437L356.46,408.6L357.69,412.12L358.92,409.16L360.15,408.69L361.38,415.52L362.6,413.41L363.83,413.88L366.29,409.01L367.52,417.82L368.75,418.99L369.98,409.33L371.21,414.09L372.44,414.3L374.9,415.09L376.13,417.2L377.35,418.44L378.58,422.88L379.81,425.56L381.04,424.19L382.27,424.3L383.5,416.44L384.73,419.01L385.96,426.27L387.19,437L388.42,437L428.98,437L430.21,434.21L431.44,423.78L432.67,402.09L433.9,399.02L435.13,405.47L436.35,407.44L437.58,395.32L438.81,394.87L440.04,386.07L441.27,397.8L442.5,400.46L443.73,398.02L444.96,388.24L447.42,404.65L448.65,394.94L449.88,394.55L451.1,384.67L452.33,375.57L453.56,400.49L454.79,402.18L456.02,394.09L457.25,391.92L458.48,403L459.71,405.21L460.94,403.02L462.17,402.95L463.4,396.13L465.85,405.51L467.08,404.16L468.31,406.13L469.54,404.14L470.77,411.2L472,413.31L474.46,414.99L475.69,412.23L479.38,424.1L480.6,409.24L481.83,401.08L483.06,421.17L484.29,417.83L485.52,421.4L486.75,418.39L487.98,422.05L490.44,415.79L491.67,423.84L492.9,422.66L494.13,416.59L495.35,414.15L496.58,418.76L497.81,417.05L499.04,411.79L500.27,415.99L501.5,402.32L502.73,414.98L503.96,398.01L505.19,393.97L506.42,410.07L507.65,411.68L508.88,417L510.1,414.13L511.33,407.65L512.56,408.97L513.79,396.39L515.02,408.29L516.25,405.93L517.48,404.82L518.71,416.37L519.94,403.44L521.17,414.42L522.4,401.38L523.63,410.49L524.85,383.75L526.08,409.52L527.31,413.34L528.54,410.15L529.77,423.71L531,423.7L532.23,427.83L533.46,428.19L534.69,425.81L535.92,420.8L538.38,410.6L539.6,412.52L540.83,403.58L542.06,405.78L543.29,404.75L544.52,405.99L545.75,407.83L546.98,398.79L548.21,408.89L549.44,398.78L550.67,399.43L551.9,409.86L554.35,404.28L555.58,349.59L556.81,382.86L558.04,392.73L559.27,372.01L560.5,373.17L561.73,370.23L562.96,372.85L564.19,397.27L565.42,382.24L566.65,380.55L567.88,369.9L569.1,385.48L570.33,382.65L571.56,386.27L572.79,399.04L574.02,392.77L575.25,437L582.63,437L583.85,395.52L585.08,375.49L586.31,397.7L587.54,403.1L588.77,403.49L590,410.27L591.23,409.36L592.46,392.05L593.69,412.1L594.92,413.1L596.15,419.42L597.38,418.05L598.6,421.54L599.83,421.83L601.06,418.69L602.29,414.75L603.52,415.68L604.75,421.5L605.98,421.36L607.21,410.06L608.44,387.36L609.67,410.61L610.9,413.4L612.13,437L613.35,437L677.27,437L678.5,395.68L679.73,437L680.96,437L699.4,437L700.63,425.23L701.85,403.37L703.08,398.28L704.31,400.72L705.54,409.58L706.77,397.27L708,407.15L709.23,413.16L710.46,414.95L711.69,413.12L712.92,417.03L714.15,416.87L715.38,415.75L716.6,419.31L717.83,414.39L719.06,420.25L720.29,410.7L721.52,413.14L722.75,419.68L723.98,410.66L725.21,419.32L726.44,410.25L727.67,412.18L730.13,416.83L731.35,417.39L732.58,408.78L733.81,421.97L736.27,418.08L737.5,408.17L738.73,413.19L739.96,409.51L741.19,409.55L742.42,407.25L743.65,405.43L744.88,396.84L746.1,395.07L747.33,402.19L748.56,395.31L749.79,415.21L751.02,413.82L752.25,420.06L753.48,420.93L754.71,420.68L755.94,422.78L757.17,427.06L758.4,429.34L759.63,421.75L760.85,428.4L762.08,422.37L763.31,418.3L764.54,417.22L765.77,418.08L767,413.61L770.69,399.29L771.92,411.34L773.15,414.22L774.38,411.63L775.6,406.12L776.83,393.92L778.06,405.21L779.29,395.63L780.52,390.39L781.75,413.1L782.98,400.46L784.21,408.7L785.44,415.36L786.67,416.9L787.9,405.62L789.13,409.03L790.35,416.63L791.58,409.43L795.27,398.62L796.5,403.38L797.73,399.65L798.96,399.63L800.19,412.18L801.42,397.57L802.65,397.54L803.88,399.65L806.33,386.29L807.56,398.92L808.79,403.25L810.02,399.63L811.25,405.81L812.48,379.67L813.71,399.73L814.94,396.73L816.17,409.74L817.4,408.94L819.85,393.75L821.08,408.48L822.31,385.2L823.54,405.57L824.77,402.91L826,437" style="vector-effect: non-scaling-stroke; fill: none; stroke: rgb(214, 39, 40); stroke-opacity: 1; stroke-width: 2px; opacity: 1;"/></g><g class="points"/><g class="text"/></g><g class="trace scatter trace1113bb" style="stroke-miterlimit: 2; opacity: 1;"><g class="fills"/><g class="errorbars"/><g class="lines"><path class="js-line" d="M0,437L158.56,437L159.79,364.16L161.02,437L162.25,352.51L163.48,437L164.71,437L165.94,328.68L167.17,437L168.4,324.17L169.63,437L170.85,313.48L172.08,437L173.31,336.38L174.54,377.01L175.77,437L177,348.14L178.23,437L179.46,437L180.69,369.8L181.92,437L183.15,378.98L184.38,386.67L185.6,437L186.83,437L385.96,437L387.19,431.46L388.42,437L389.65,411.34L390.88,437L392.1,395.65L393.33,387.68L394.56,437L397.02,437L398.25,352.11L399.48,437L400.71,341.94L401.94,437L403.17,340.11L404.4,437L405.63,437L406.85,325.89L408.08,437L409.31,330.53L410.54,326.11L411.77,437L413,341.04L414.23,437L415.46,343.8L416.69,437L417.92,437L419.15,360.91L420.38,437L421.6,377.18L422.83,434.24L424.06,437L425.29,437L826,437" style="vector-effect: non-scaling-stroke; fill: none; stroke: rgb(255, 127, 14); stroke-opacity: 1; stroke-width: 2px; opacity: 1;"/></g><g class="points"/><g class="text"/></g><g class="trace scatter trace92c3e4" style="stroke-miterlimit: 2; opacity: 1;"><g class="fills"/><g class="errorbars"/><g class="lines"><path class="js-line" d="M0,254.93L28.27,254.93L29.5,259.86L34.42,280.94L35.65,289.19L41.79,317.8L43.02,320.15L45.48,326.25L46.71,337.64L50.4,354.2L51.63,354.2L153.65,354.2L154.88,349.47L157.33,335.69L158.56,323.75L159.79,308.69L161.02,308.69L162.25,287.97L163.48,287.97L165.94,241.33L167.17,241.33L168.4,213.72L169.63,213.72L170.85,187.06L172.08,187.06L173.31,158.21L174.54,158.21L175.77,147.18L177,123.75L178.23,123.75L179.46,103.31L180.69,83.46L181.92,83.46L183.15,71.89L184.38,71.89L185.6,71.89L186.83,59.63L190.52,31.64L191.75,25.62L192.98,23L194.21,23.73L199.13,55.73L200.35,61.82L204.04,93.43L205.27,101.55L208.96,131.76L210.19,143.27L220.02,264.17L221.25,279.39L226.17,323.07L227.4,333.67L228.63,348.59L229.85,354.2L270.42,354.2L271.65,353.13L272.88,351L274.1,351L276.56,351L277.79,349.43L279.02,344.56L280.25,335.75L282.71,305.64L283.94,285.2L293.77,95.2L295,82.78L298.69,67.71L299.92,70.51L301.15,72.85L302.38,81.04L308.52,120.62L309.75,127.53L313.44,140.29L314.67,147.15L319.58,176.91L320.81,188.22L328.19,238.59L329.42,238.59L339.25,238.59L340.48,245.3L345.4,275.11L346.63,286L349.08,311.34L350.31,311.34L354,338.19L355.23,347.02L356.46,354.08L357.69,354.2L388.42,354.2L389.65,350.96L390.88,350.96L392.1,342.74L394.56,342.74L395.79,329.65L398.25,291.51L399.48,291.51L400.71,269.28L401.94,269.28L403.17,244.76L404.4,244.76L406.85,195.54L408.08,195.54L409.31,168.44L410.54,168.44L411.77,168.44L413,143.97L414.23,143.97L415.46,120.92L416.69,120.92L417.92,100.01L419.15,79.53L420.38,79.53L421.6,62.3L422.83,62.3L426.52,33.13L427.75,27.81L430.21,23L431.44,23L574.02,23L575.25,24.17L582.63,83.96L583.85,98.6L612.13,98.6L613.35,104.63L615.81,117.01L617.04,123.88L618.27,130.13L619.5,141.37L620.73,150.2L621.96,171.07L628.1,196.8L629.33,201.73L631.79,211.3L633.02,214.58L634.25,226.22L635.48,226.18L636.71,226.85L637.94,226.19L640.4,222.81L641.63,219.63L644.08,209.25L645.31,201.12L647.77,174.33L649,157.53L652.69,112.33L653.92,99.75L656.38,79.13L657.6,75.08L662.52,31.72L663.75,26.56L666.21,23L667.44,24.04L668.67,27.05L669.9,33.07L678.5,77.17L679.73,77.17L685.88,120.5L687.1,137.73L690.79,177.72L692.02,184.6L700.63,251.53L701.85,254.93L826,254.93" style="vector-effect: non-scaling-stroke; fill: none; stroke: rgb(44, 160, 44); stroke-opacity: 1; stroke-width: 2px; opacity: 1;"/></g><g class="points"/><g class="text"/></g><g class="trace scatter trace4f87f8" style="stroke-miterlimit: 2; opacity: 1;"><g class="fills"/><g class="errorbars"/><g class="lines"><path class="js-line" d="M0,274.29L14.75,278.32L15.98,276.92L19.67,272.69L20.9,265.24L30.73,209.93L31.96,206.73L34.42,200.33L35.65,202.39L40.56,209.25L41.79,209.95L44.25,211.36L45.48,212.99L49.17,217.89L50.4,220.93L54.08,230.04L55.31,230.99L59,233.85L60.23,237.2L63.92,247.25L65.15,245.6L70.06,237.91L71.29,235.18L73.75,229.73L74.98,228.86L78.67,226.27L79.9,231.12L83.58,245.65L84.81,244.75L88.5,242.06L89.73,240.1L93.42,234.22L94.65,235.14L99.56,238.3L100.79,238.69L108.17,240.29L109.4,241.66L114.31,246.39L115.54,247.02L119.23,248.18L120.46,248.09L124.15,247.32L125.38,246.73L127.83,245.54L129.06,247.67L132.75,254.07L133.98,252.46L137.67,247.63L138.9,244.17L143.81,231.84L145.04,229.86L147.5,225.9L148.73,226.77L154.88,230.48L156.1,231.02L157.33,231.55L158.56,231.15L167.17,227.9L168.4,227.24L172.08,225.29L173.31,226.04L180.69,231.44L181.92,232.48L186.83,228.97L188.06,229.01L191.75,229.15L192.98,230.15L199.13,234.32L200.35,234.9L202.81,236.54L204.04,237.62L207.73,241.82L208.96,243.88L212.65,251.16L213.88,254.31L217.56,265.05L218.79,269.47L222.48,280.5L223.71,282.68L227.4,289.98L228.63,292.93L232.31,299.91L233.54,300.98L237.23,303.36L238.46,303.58L243.38,305.19L244.6,305.77L248.29,308.15L249.52,309.05L250.75,309.95L251.98,309.75L255.67,309.14L256.9,308.06L260.58,304.84L261.81,304.98L269.19,305.11L270.42,305.02L277.79,306.55L279.02,306.63L282.71,306.1L283.94,305.81L287.63,304.35L288.85,303.77L297.46,300.35L298.69,300.01L306.06,298.69L307.29,298.6L312.21,298.87L313.44,299.08L317.13,299.07L318.35,298.95L324.5,297.91L325.73,300.05L330.65,307.18L331.88,307.86L334.33,309.22L335.56,307.55L339.25,302.52L340.48,302.22L344.17,301.33L345.4,301.88L349.08,303.54L350.31,302.82L354,300.66L355.23,302.04L361.38,307.98L362.6,308.88L363.83,309.77L365.06,309.49L371.21,308.82L372.44,308.9L382.27,309.42L383.5,309.31L389.65,300.11L390.88,299.18L394.56,297L395.79,296.67L399.48,296.33L400.71,296.65L405.63,297.37L406.85,297.42L410.54,298.3L411.77,298.71L413,299.13L414.23,298.51L419.15,296.64L420.38,296.62L425.29,295.95L426.52,295.64L433.9,294.37L435.13,294.31L437.58,294.19L438.81,296.09L444.96,304.62L446.19,306.04L447.42,307.45L448.65,307.26L469.54,304.48L470.77,304.52L472,304.55L473.23,303.15L476.92,298.95L478.15,298.87L481.83,298.6L483.06,297.08L486.75,292.51L487.98,287.99L494.13,262.61L495.35,256.7L497.81,247.56L499.04,244.33L501.5,237.88L502.73,237.28L507.65,235.57L508.88,235.67L516.25,235.7L517.48,235.62L527.31,235.35L528.54,235.7L535.92,237.97L537.15,236.72L540.83,232.98L542.06,233.44L545.75,234.83L546.98,233.59L551.9,229.4L553.13,228.93L555.58,227.98L556.81,228.51L560.5,230.1L561.73,229.69L567.88,228.17L569.1,228.04L570.33,227.9L571.56,226.6L576.48,220.76L577.71,218.82L580.17,214.93L581.4,218.63L585.08,229.73L586.31,230.92L592.46,237.66L593.69,239.25L599.83,246.15L601.06,245.58L604.75,243.88L605.98,240.45L614.58,216.7L615.81,216.4L623.19,214.01L624.42,213.51L629.33,217.54L630.56,216.15L635.48,211.27L636.71,210.55L639.17,209.1L640.4,210.56L646.54,217.03L647.77,218.07L649,219.11L650.23,218.74L655.15,217.7L656.38,217.77L658.83,217.92L660.06,216.85L663.75,213.65L664.98,213.8L669.9,214.82L671.13,215.41L674.81,217.69L676.04,218.8L678.5,221.02L679.73,219.9L693.25,208.28L694.48,207.65L698.17,205.76L699.4,213.22L704.31,239.82L705.54,244.03L709.23,254.06L710.46,255.68L714.15,259.65L715.38,260.38L717.83,261.84L719.06,265.04L722.75,274.64L723.98,271.31L727.67,261.32L728.9,260.36L733.81,257.4L735.04,257.33L737.5,257.2L738.73,256.15L743.65,251.25L744.88,249.5L747.33,246L748.56,247.18L752.25,250.73L753.48,250.5L762.08,248.58L763.31,249.5L768.23,252.24L769.46,252.24L771.92,252.24L773.15,253.72L776.83,258.16L778.06,256.86L781.75,252.97L782.98,253.22L789.13,255.11L790.35,255.68L796.5,258.62L797.73,260.42L801.42,265.82L802.65,271.73L806.33,289.46L807.56,290.31L811.25,292.86L812.48,290.03L816.17,281.54L817.4,282.31L826,288.01" style="vector-effect: non-scaling-stroke; fill: none; stroke: rgb(188, 189, 34); stroke-opacity: 1; stroke-width: 2px; opacity: 1;"/></g><g class="points"/><g class="text"/></g><g class="trace scatter traceef7a2b" style="stroke-miterlimit: 2; opacity: 1;"><g class="fills"/><g class="errorbars"/><g class="lines"><path class="js-line" d="M0,437L152.42,437L153.65,417.08L156.1,406.19L157.33,386.74L158.56,373.59L159.79,437L161.02,349.76L162.25,437L163.48,345.9L164.71,331.72L165.94,437L167.17,320.75L168.4,437L169.63,324.73L170.85,437L172.08,315.56L173.31,437L174.54,390.54L175.77,338.33L177,437L178.23,350.94L179.46,353.44L180.69,437L181.92,388.27L183.15,437L184.38,437L185.6,385.39L186.83,391.73L188.06,390.54L189.29,410.86L190.52,411.67L191.75,425.96L192.98,437L194.21,437L269.19,437L270.42,432.5L271.65,428.02L272.88,437L275.33,437L276.56,430.39L280.25,382.98L281.48,364.24L285.17,332.13L286.4,334.39L287.63,326.53L288.85,327.55L290.08,323.31L291.31,349.06L293.77,384.69L295,414.4L296.23,413.19L297.46,419.93L298.69,437L299.92,437L387.19,437L388.42,423.34L389.65,437L390.88,402.43L392.1,437L393.33,437L394.56,381.85L395.79,361.17L397.02,352.24L398.25,437L399.48,343.41L400.71,437L401.94,333.75L403.17,437L404.4,332.9L405.63,333.83L406.85,437L408.08,322.9L409.31,437L410.54,437L411.77,309.72L413,437L414.23,339.97L415.46,437L416.69,348.94L417.92,350.8L419.15,437L420.38,364.44L421.6,437L422.83,392.53L424.06,389.58L425.29,406.08L430.21,437L431.44,437L635.48,437L636.71,434.23L639.17,428.04L640.4,423.63L642.85,411.92L644.08,402.75L646.54,374.65L647.77,366.27L649,358.67L650.23,373.34L651.46,388.69L652.69,384.02L655.15,395.88L656.38,419.95L657.6,386L658.83,378.11L661.29,405.11L662.52,415.28L663.75,427.31L664.98,431.71L666.21,437L667.44,437L826,437" style="vector-effect: non-scaling-stroke; fill: none; stroke: rgb(227, 119, 194); stroke-opacity: 1; stroke-width: 2px; opacity: 1;"/></g><g class="points"/><g class="text"/></g><g class="trace scatter trace1a50ee" style="stroke-miterlimit: 2; opacity: 1;"><g class="fills"/><g class="errorbars"/><g class="lines"><path class="js-line" d="M0,437L27.04,437L28.27,418.28L29.5,417.39L30.73,419.59L31.96,415.54L33.19,415.36L34.42,405.64L35.65,415.57L36.88,409.56L38.1,414.18L39.33,413.98L40.56,422.99L41.79,428.07L43.02,424.34L44.25,426.5L45.48,393.72L46.71,417.77L47.94,408.68L50.4,437L51.63,437L191.75,437L192.98,434.21L194.21,402.06L195.44,414.04L197.9,402.26L199.13,413.86L200.35,389.06L201.58,405.61L202.81,396.22L204.04,406.16L205.27,404.96L206.5,396.01L207.73,395.24L208.96,393.24L210.19,374.81L211.42,380.99L212.65,385.24L213.88,376.33L215.1,372.78L216.33,383.35L217.56,379.29L218.79,383.78L220.02,379.19L221.25,389.35L222.48,400.93L223.71,402.92L224.94,388.81L226.17,396.72L227.4,380.31L228.63,415.67L229.85,437L231.08,437L297.46,437L298.69,426.35L299.92,428.09L301.15,405.88L302.38,403.92L303.6,411.7L304.83,406.48L306.06,406.79L307.29,405.72L308.52,410.73L309.75,422.42L310.98,423.92L313.44,410.93L314.67,410.74L315.9,410.76L317.13,404.25L318.35,409.17L319.58,394.02L320.81,404.93L322.04,406.63L323.27,409.61L324.5,401.34L325.73,399.9L326.96,408.18L328.19,437L329.42,437L338.02,437L339.25,411.5L340.48,410.74L341.71,401.6L344.17,414.36L345.4,395.61L346.63,375.67L347.85,402.05L349.08,437L350.31,396.76L351.54,407.53L352.77,404.65L354,403.46L355.23,410.18L356.46,436.54L357.69,437L410.54,437L411.77,415.13L413,437L414.23,437L572.79,437L574.02,432.56L575.25,400.02L576.48,390.23L577.71,388.05L578.94,400.42L580.17,413.72L581.4,402.37L582.63,381.35L583.85,437L610.9,437L612.13,414.07L613.35,417.41L614.58,409.58L617.04,413.24L618.27,394.3L619.5,403.43L620.73,357.71L621.96,414.96L623.19,421.67L624.42,415.26L625.65,419.88L626.88,415.46L628.1,418.26L629.33,415.09L630.56,422.55L631.79,424.53L633.02,392.76L634.25,437L635.48,434.44L636.71,437L637.94,437L664.98,437L666.21,433.05L668.67,414.1L669.9,412.69L672.35,416.21L673.58,412.51L674.81,412.34L676.04,410.75L677.27,411.76L678.5,437L679.73,405.23L680.96,401.65L682.19,407.8L683.42,402.93L684.65,402.75L685.88,371.53L687.1,375.7L688.33,388.6L689.56,394.73L690.79,410.84L692.02,398.7L693.25,403.91L694.48,404.36L695.71,386L696.94,402.05L698.17,402.63L699.4,407.02L700.63,424.08L701.85,437L703.08,437L824.77,437L826,417.43" style="vector-effect: non-scaling-stroke; fill: none; stroke: rgb(23, 190, 207); stroke-opacity: 1; stroke-width: 2px; opacity: 1;"/></g><g class="points"/><g class="text"/></g></g></g><g class="overplot"/><path class="xlines-above crisp" d="M0,0" style="fill: none;"/><path class="ylines-above crisp" d="M0,0" style="fill: none;"/><g class="overlines-above"/><g class="xaxislayer-above"><g class="xtick"><text text-anchor="middle" x="0" y="530" transform="translate(78,0)" style="font-family: 'Open Sans', verdana, arial, sans-serif; font-size: 19px; fill: rgb(42, 63, 95); fill-opacity: 1; white-space: pre; opacity: 1;"><tspan class="line" dy="0em" x="0" y="530">Nov 5</tspan><tspan class="line" dy="1.3em" x="0" y="530">2019</tspan></text></g><g class="xtick"><text text-anchor="middle" x="0" y="530" style="font-family: 'Open Sans', verdana, arial, sans-serif; font-size: 19px; fill: rgb(42, 63, 95); fill-opacity: 1; white-space: pre; opacity: 1;" transform="translate(196,0)">Nov 6</text></g><g class="xtick"><text text-anchor="middle" x="0" y="530" style="font-family: 'Open Sans', verdana, arial, sans-serif; font-size: 19px; fill: rgb(42, 63, 95); fill-opacity: 1; white-space: pre; opacity: 1;" transform="translate(314,0)">Nov 7</text></g><g class="xtick"><text text-anchor="middle" x="0" y="530" style="font-family: 'Open Sans', verdana, arial, sans-serif; font-size: 19px; fill: rgb(42, 63, 95); fill-opacity: 1; white-space: pre; opacity: 1;" transform="translate(432,0)">Nov 8</text></g><g class="xtick"><text text-anchor="middle" x="0" y="530" style="font-family: 'Open Sans', verdana, arial, sans-serif; font-size: 19px; fill: rgb(42, 63, 95); fill-opacity: 1; white-space: pre; opacity: 1;" transform="translate(550,0)">Nov 9</text></g><g class="xtick"><text text-anchor="middle" x="0" y="530" style="font-family: 'Open Sans', verdana, arial, sans-serif; font-size: 19px; fill: rgb(42, 63, 95); fill-opacity: 1; white-space: pre; opacity: 1;" transform="translate(668,0)">Nov 10</text></g><g class="xtick"><text text-anchor="middle" x="0" y="530" style="font-family: 'Open Sans', verdana, arial, sans-serif; font-size: 19px; fill: rgb(42, 63, 95); fill-opacity: 1; white-space: pre; opacity: 1;" transform="translate(786,0)">Nov 11</text></g><g class="xtick"><text text-anchor="middle" x="0" y="530" style="font-family: 'Open Sans', verdana, arial, sans-serif; font-size: 19px; fill: rgb(42, 63, 95); fill-opacity: 1; white-space: pre; opacity: 1;" transform="translate(904,0)">Nov 12</text></g></g><g class="yaxislayer-above"><g class="ytick"><text text-anchor="end" x="77" y="6.6499999999999995" transform="translate(0,487)" style="font-family: 'Open Sans', verdana, arial, sans-serif; font-size: 19px; fill: rgb(42, 63, 95); fill-opacity: 1; white-space: pre; opacity: 1;">0</text></g><g class="ytick"><text text-anchor="end" x="77" y="6.6499999999999995" style="font-family: 'Open Sans', verdana, arial, sans-serif; font-size: 19px; fill: rgb(42, 63, 95); fill-opacity: 1; white-space: pre; opacity: 1;" transform="translate(0,432.35)">20</text></g><g class="ytick"><text text-anchor="end" x="77" y="6.6499999999999995" style="font-family: 'Open Sans', verdana, arial, sans-serif; font-size: 19px; fill: rgb(42, 63, 95); fill-opacity: 1; white-space: pre; opacity: 1;" transform="translate(0,377.7)">40</text></g><g class="ytick"><text text-anchor="end" x="77" y="6.6499999999999995" style="font-family: 'Open Sans', verdana, arial, sans-serif; font-size: 19px; fill: rgb(42, 63, 95); fill-opacity: 1; white-space: pre; opacity: 1;" transform="translate(0,323.05)">60</text></g><g class="ytick"><text text-anchor="end" x="77" y="6.6499999999999995" style="font-family: 'Open Sans', verdana, arial, sans-serif; font-size: 19px; fill: rgb(42, 63, 95); fill-opacity: 1; white-space: pre; opacity: 1;" transform="translate(0,268.4)">80</text></g><g class="ytick"><text text-anchor="end" x="77" y="6.6499999999999995" style="font-family: 'Open Sans', verdana, arial, sans-serif; font-size: 19px; fill: rgb(42, 63, 95); fill-opacity: 1; white-space: pre; opacity: 1;" transform="translate(0,213.75)">100</text></g><g class="ytick"><text text-anchor="end" x="77" y="6.6499999999999995" style="font-family: 'Open Sans', verdana, arial, sans-serif; font-size: 19px; fill: rgb(42, 63, 95); fill-opacity: 1; white-space: pre; opacity: 1;" transform="translate(0,159.09)">120</text></g><g class="ytick"><text text-anchor="end" x="77" y="6.6499999999999995" style="font-family: 'Open Sans', verdana, arial, sans-serif; font-size: 19px; fill: rgb(42, 63, 95); fill-opacity: 1; white-space: pre; opacity: 1;" transform="translate(0,104.44)">140</text></g></g><g class="overaxes-above"/></g></g><g class="polarlayer"/><g class="ternarylayer"/><g class="geolayer"/><g class="funnelarealayer"/><g class="pielayer"/><g class="iciclelayer"/><g class="treemaplayer"/><g class="sunburstlayer"/><g class="glimages"/><defs id="topdefs-bf77aa"><g class="clips"/><clipPath id="legendbf77aa"><rect width="169" height="207" x="0" y="0"/></clipPath></defs><g class="layer-above"><g class="imagelayer"/><g class="shapelayer"/></g><g class="infolayer"><g class="legend" pointer-events="all" transform="translate(920.52,50)"><rect class="bg" shape-rendering="crispEdges" width="169" height="207" x="0" y="0" style="stroke: rgb(68, 68, 68); stroke-opacity: 1; fill: rgb(255, 255, 255); fill-opacity: 1; stroke-width: 0px;"/><g class="scrollbox" transform="" clip-path="url(#legendbf77aa)"><text class="legendtitletext" text-anchor="start" x="2" y="29.900000000000002" style="font-family: 'Open Sans', verdana, arial, sans-serif; font-size: 23px; fill: rgb(42, 63, 95); fill-opacity: 1; white-space: pre;">variable</text><g class="groups" transform=""><g class="traces" transform="translate(0,48.75)" style="opacity: 1;"><text class="legendtext" text-anchor="start" x="40" y="7.409999999999999" style="font-family: 'Open Sans', verdana, arial, sans-serif; font-size: 19px; fill: rgb(42, 63, 95); fill-opacity: 1; white-space: pre;">grid_kw</text><g class="layers" style="opacity: 1;"><g class="legendfill"/><g class="legendlines"><path class="js-line" d="M5,0h30" style="fill: none; stroke: rgb(214, 39, 40); stroke-opacity: 1; stroke-width: 2px;"/></g><g class="legendsymbols"><g class="legendpoints"/></g></g><rect class="legendtoggle" x="0" y="-13.85" width="163.015625" height="27.7" style="fill: rgb(0, 0, 0); fill-opacity: 0;"/></g><g class="traces" transform="translate(0,76.45)" style="opacity: 1;"><text class="legendtext" text-anchor="start" x="40" y="7.409999999999999" style="font-family: 'Open Sans', verdana, arial, sans-serif; font-size: 19px; fill: rgb(42, 63, 95); fill-opacity: 1; white-space: pre;">battery_kWh</text><g class="layers" style="opacity: 1;"><g class="legendfill"/><g class="legendlines"><path class="js-line" d="M5,0h30" style="fill: none; stroke: rgb(44, 160, 44); stroke-opacity: 1; stroke-width: 2px;"/></g><g class="legendsymbols"><g class="legendpoints"/></g></g><rect class="legendtoggle" x="0" y="-13.85" width="163.015625" height="27.7" style="fill: rgb(0, 0, 0); fill-opacity: 0;"/></g></g><g class="groups" transform=""><g class="traces" transform="translate(0,104.14999999999999)" style="opacity: 1;"><text class="legendtext" text-anchor="start" x="40" y="7.409999999999999" style="font-family: 'Open Sans', verdana, arial, sans-serif; font-size: 19px; fill: rgb(42, 63, 95); fill-opacity: 1; white-space: pre;">pv_curtailed</text><g class="layers" style="opacity: 1;"><g class="legendfill"/><g class="legendlines"><path class="js-line" d="M5,0h30" style="fill: none; stroke: rgb(255, 127, 14); stroke-opacity: 1; stroke-width: 2px;"/></g><g class="legendsymbols"><g class="legendpoints"/></g></g><rect class="legendtoggle" x="0" y="-13.85" width="163.015625" height="27.7" style="fill: rgb(0, 0, 0); fill-opacity: 0;"/></g></g><g class="groups" transform=""><g class="traces" transform="translate(0,131.85)" style="opacity: 1;"><text class="legendtext" text-anchor="start" x="40" y="7.409999999999999" style="font-family: 'Open Sans', verdana, arial, sans-serif; font-size: 19px; fill: rgb(42, 63, 95); fill-opacity: 1; white-space: pre;">co2_g_kwh</text><g class="layers" style="opacity: 1;"><g class="legendfill"/><g class="legendlines"><path class="js-line" d="M5,0h30" style="fill: none; stroke: rgb(188, 189, 34); stroke-opacity: 1; stroke-width: 2px;"/></g><g class="legendsymbols"><g class="legendpoints"/></g></g><rect class="legendtoggle" x="0" y="-13.85" width="163.015625" height="27.7" style="fill: rgb(0, 0, 0); fill-opacity: 0;"/></g></g><g class="groups" transform=""><g class="traces" transform="translate(0,159.54999999999998)" style="opacity: 1;"><text class="legendtext" text-anchor="start" x="40" y="7.409999999999999" style="font-family: 'Open Sans', verdana, arial, sans-serif; font-size: 19px; fill: rgb(42, 63, 95); fill-opacity: 1; white-space: pre;">batteryin</text><g class="layers" style="opacity: 1;"><g class="legendfill"/><g class="legendlines"><path class="js-line" d="M5,0h30" style="fill: none; stroke: rgb(227, 119, 194); stroke-opacity: 1; stroke-width: 2px;"/></g><g class="legendsymbols"><g class="legendpoints"/></g></g><rect class="legendtoggle" x="0" y="-13.85" width="163.015625" height="27.7" style="fill: rgb(0, 0, 0); fill-opacity: 0;"/></g></g><g class="groups" transform=""><g class="traces" transform="translate(0,187.25)" style="opacity: 1;"><text class="legendtext" text-anchor="start" x="40" y="7.409999999999999" style="font-family: 'Open Sans', verdana, arial, sans-serif; font-size: 19px; fill: rgb(42, 63, 95); fill-opacity: 1; white-space: pre;">batteryout</text><g class="layers" style="opacity: 1;"><g class="legendfill"/><g class="legendlines"><path class="js-line" d="M5,0h30" style="fill: none; stroke: rgb(23, 190, 207); stroke-opacity: 1; stroke-width: 2px;"/></g><g class="legendsymbols"><g class="legendpoints"/></g></g><rect class="legendtoggle" x="0" y="-13.85" width="163.015625" height="27.7" style="fill: rgb(0, 0, 0); fill-opacity: 0;"/></g></g></g><rect class="scrollbar" rx="20" ry="3" width="0" height="0" x="0" y="0" style="fill: rgb(128, 139, 164); fill-opacity: 1;"/></g><g class="g-gtitle"/><g class="g-xtitle"/><g class="g-ytitle" transform="translate(13.349609375,0)"><text class="ytitle" transform="rotate(-90,9.650000000000006,280)" x="9.650000000000006" y="280" text-anchor="middle" style="font-family: 'Open Sans', verdana, arial, sans-serif; font-size: 23px; fill: rgb(42, 63, 95); opacity: 1; font-weight: normal; white-space: pre;">Legend</text></g></g></svg>