<svg class="main-svg" xmlns="http://www.w3.org/2000/svg" xmlns:xlink="http://www.w3.org/1999/xlink" width="1000" height="300" viewBox="0 0 1000 300"><rect x="0" y="0" width="1000" height="300" style="fill: rgb(255, 255, 255); fill-opacity: 1;"/><defs id="defs-be6c08"><g class="clips"><clipPath id="clipbe6c08xyplot" class="plotclip"><rect width="875" height="160"/></clipPath><clipPath class="axesclip" id="clipbe6c08x"><rect x="75" y="0" width="875" height="300"/></clipPath><clipPath class="axesclip" id="clipbe6c08y"><rect x="0" y="50" width="1000" height="160"/></clipPath><clipPath class="axesclip" id="clipbe6c08xy"><rect x="75" y="50" width="875" height="160"/></clipPath></g><g class="gradients"/><g class="patterns"/></defs><g class="bglayer"/><g class="layer-below"><g class="imagelayer"/><g class="shapelayer"/></g><g class="cartesianlayer"><g class="subplot xy"><g class="layer-subplot"><g class="shapelayer"/><g class="imagelayer"/></g><g class="gridlayer"><g class="x"><path class="xgrid crisp" transform="translate(147.92000000000002,0)" d="M0,50v160" style="stroke: rgb(235, 240, 248); stroke-opacity: 1; stroke-width: 1px;"/><path class="xgrid crisp" transform="translate(293.75,0)" d="M0,50v160" style="stroke: rgb(235, 240, 248); stroke-opacity: 1; stroke-width: 1px;"/><path class="xgrid crisp" transform="translate(439.58,0)" d="M0,50v160" style="stroke: rgb(235, 240, 248); stroke-opacity: 1; stroke-width: 1px;"/><path class="xgrid crisp" transform="translate(585.4200000000001,0)" d="M0,50v160" style="stroke: rgb(235, 240, 248); stroke-opacity: 1; stroke-width: 1px;"/><path class="xgrid crisp" transform="translate(731.25,0)" d="M0,50v160" style="stroke: rgb(235, 240, 248); stroke-opacity: 1; stroke-width: 1px;"/><path class="xgrid crisp" transform="translate(877.08,0)" d="M0,50v160" style="stroke: rgb(235, 240, 248); stroke-opacity: 1; stroke-width: 1px;"/></g><g class="y"><path class="ygrid crisp" transform="translate(0,192.61)" d="M75,0h875" style="stroke: rgb(235, 240, 248); stroke-opacity: 1; stroke-width: 1px;"/><path class="ygrid crisp" transform="translate(0,157.82999999999998)" d="M75,0h875" style="stroke: rgb(235, 240, 248); stroke-opacity: 1; stroke-width: 1px;"/><path class="ygrid crisp" transform="translate(0,88.25999999999999)" d="M75,0h875" style="stroke: rgb(235, 240, 248); stroke-opacity: 1; stroke-width: 1px;"/><path class="ygrid crisp" transform="translate(0,53.48)" d="M75,0h875" style="stroke: rgb(235, 240, 248); stroke-opacity: 1; stroke-width: 1px;"/></g></g><g class="zerolinelayer"><path class="yzl zl crisp" transform="translate(0,123.04)" d="M75,0h875" style="stroke: rgb(0, 0, 0); stroke-opacity: 1; stroke-width: 2px;"/></g><path class="xlines-below"/><path class="ylines-below"/><g class="overlines-below"/><g class="xaxislayer-below"/><g class="yaxislayer-below"/><g class="overaxes-below"/><g class="plot" transform="translate(75,50)" clip-path="url(#clipbe6c08xyplot)"><g class="scatterlayer mlayer"><g class="trace scatter trace3e1fc0" style="stroke-miterlimit: 2; opacity: 1;"><g class="fills"/><g class="errorbars"/><g class="lines"><path class="js-line" d="M0,68.02L3.04,76.45L6.08,82.12L9.11,89.8L12.15,91.33L18.23,107.2L21.27,107.71L24.31,115.17L27.34,119.56L30.38,124.48L33.42,132.31L36.46,130.29L39.5,126.7L42.53,144.09L45.57,141.33L48.61,146.59L51.65,149.94L54.69,153.54L57.73,153.8L60.76,156.94L63.8,156.64L66.84,150.64L69.88,153.56L72.92,140.48L75.95,135.42L78.99,134.75L82.03,149.38L85.07,145.03L88.11,136.56L91.15,118.99L94.18,129.13L97.22,124.74L100.26,115.71L103.3,102.68L106.34,105.42L109.38,88.46L112.41,86.58L115.45,86.07L118.49,88.22L124.57,74.41L127.6,76.66L130.64,77.17L133.68,74.29L136.72,74.07L139.76,71.95L142.8,70.96L145.83,72.3L148.87,69.74L151.91,68.26L154.95,60.84L157.99,62.55L161.02,61.57L164.06,58.87L167.1,58.5L170.14,54.96L173.18,67.99L176.22,50.55L179.25,41.23L182.29,22.52L185.33,25.3L188.37,36.58L191.41,46.51L194.44,42.15L197.48,23.75L200.52,38.68L203.56,44.57L206.6,58.74L209.64,65.91L212.67,68.09L215.71,41L218.75,60.7L221.79,66.6L224.83,67.4L227.86,66.23L230.9,68.42L233.94,68.08L236.98,64.1L240.02,69.61L243.06,64.06L246.09,64.56L249.13,68.2L252.17,69.15L255.21,71.35L258.25,71.19L261.28,67.3L264.32,69.05L267.36,60.86L270.4,66.88L273.44,65.92L276.48,70.64L279.51,62.57L282.55,60.69L285.59,74.93L288.63,72.02L291.67,72.14L294.7,77.05L297.74,74.67L306.86,107.34L309.9,113L312.93,115.5L315.97,121.21L322.05,133.62L325.09,133.96L331.16,144.05L334.2,141.86L340.28,148.87L343.32,146.06L346.35,154.76L349.39,152.48L352.43,157.03L355.47,157.55L358.51,156.71L361.55,154.74L364.58,154.04L367.62,154.61L370.66,149.81L373.7,150.4L376.74,149.54L379.77,146.68L382.81,141.69L385.85,139.58L388.89,136.4L391.93,124.86L394.97,123.87L398,119.65L401.04,98.59L404.08,106.48L407.12,101.92L410.16,95.73L413.19,84.61L416.23,86.37L419.27,83.43L422.31,77.64L428.39,77.28L431.42,74.96L437.5,56.45L440.54,62.84L443.58,49.51L446.61,62.7L449.65,55.23L452.69,57.21L455.73,46.7L458.77,58.76L461.81,60.41L464.84,59L467.88,64.32L470.92,60.25L477,51L480.03,33.22L483.07,42.11L486.11,57.9L492.19,50.05L495.23,54.91L498.26,59.62L501.3,58.77L504.34,50.7L507.38,45.84L510.42,61.02L513.45,64.89L516.49,61.72L519.53,67.68L522.57,62.74L525.61,61.98L528.65,64.55L531.68,68.41L534.72,60.52L537.76,59.37L540.8,53.75L543.84,60.84L546.88,56.83L549.91,67.38L552.95,59.27L555.99,57.58L559.03,61.97L562.07,70.03L565.1,53.81L568.14,61.06L571.18,60.25L574.22,63.73L577.26,64.05L580.3,75.22L583.33,74.39L586.37,82.83L589.41,84.12L592.45,96.06L598.52,111.19L601.56,114.2L604.6,114.99L607.64,119.6L613.72,125.84L616.75,131.67L619.79,135.32L622.83,137.39L625.87,128.29L628.91,130.64L631.94,129.6L634.98,138L638.02,142.57L641.06,149.73L644.1,150.36L647.14,142.73L650.17,146.57L653.21,148.23L656.25,150.39L659.29,145.92L665.36,146.74L668.4,145.61L674.48,138.5L677.52,137.53L680.56,135.61L683.59,129.99L686.63,126.7L689.67,114.42L692.71,115.5L695.75,110.96L701.82,99.48L704.86,89.84L707.9,87.69L710.94,83.13L713.98,81.29L717.01,77.83L720.05,72.29L723.09,72.6L726.13,72.17L729.17,65.59L732.2,64.74L735.24,64.71L738.28,60.58L741.32,45.33L744.36,63.76L747.4,58.73L750.43,64.45L753.47,60.61L756.51,63.36L759.55,63.06L762.59,36.96L765.63,20.98L768.66,2.81L771.7,43.59L774.74,30.06L777.78,43.01L780.82,57.85L783.85,58.89L786.89,47.44L789.93,65.93L792.97,60.57L796.01,59.49L799.05,41.31L802.08,67.53L805.12,64.65L808.16,60.55L814.24,60.77L817.27,64.64L823.35,58.55L826.39,57.73L829.43,63.23L832.47,60.85L835.5,68.03L838.54,63.44L841.58,66.95L844.62,63.13L847.66,66.96L850.69,66.05L853.73,64.32L856.77,67.68L859.81,65.41L862.85,65.64L865.89,71.18L868.92,71.45L871.96,72.61L875,75.71" style="vector-effect: non-scaling-stroke; fill: none; stroke: rgb(76, 120, 168); stroke-opacity: 1; stroke-width: 3px; opacity: 1;"/></g><g class="points"/><g class="text"/></g><g class="trace scatter tracea50604" style="stroke-miterlimit: 2; opacity: 1;"><g class="fills"/><g class="errorbars"/><g class="lines"><path class="js-line" d="M0,69.41L3.04,78.32L6.08,82.41L9.11,89.06L12.15,89.04L15.19,91.99L18.23,101.98L21.27,107.03L24.31,109.82L33.42,122.18L36.46,127.62L39.5,128.93L42.53,128.69L45.57,137.17L48.61,138.49L51.65,142.47L54.69,145.12L57.73,149.1L60.76,150.45L63.8,152.82L66.84,151.97L69.88,150.21L72.92,150.84L75.95,143.98L78.99,139.7L82.03,136.43L85.07,140.99L91.15,133.92L94.18,123.18L97.22,124.21L100.26,117.3L103.3,109.7L106.34,98.77L109.38,97.01L112.41,87.44L118.49,78.56L121.53,78.45L127.6,72.37L130.64,70.92L133.68,70.7L136.72,69.16L145.83,66.54L148.87,66.32L154.95,62.03L157.99,57.77L161.02,56.72L164.06,54.59L173.18,48.67L176.22,53.26L179.25,46.52L182.29,41.75L185.33,31.32L188.37,31.17L191.41,33.92L194.44,40.61L197.48,40.9L200.52,36.9L203.56,43.12L206.6,46.15L209.64,53.34L212.67,57.71L215.71,63.22L218.75,54.28L221.79,62.11L224.83,62.35L227.86,64.32L230.9,63.47L233.94,66.42L236.98,66.32L243.06,64.63L246.09,61.39L261.28,65.65L264.32,64.31L267.36,65.42L270.4,62.76L273.44,65.33L276.48,65.86L279.51,69.75L282.55,68.21L285.59,69.5L288.63,75.65L294.7,79.37L297.74,83.28L300.78,85.12L303.82,91.07L312.93,110.77L315.97,115.57L322.05,123.55L325.09,127.84L328.13,129.98L331.16,133.74L334.2,138.18L337.24,139.8L343.32,145.11L346.35,145.64L349.39,150.45L352.43,151.13L355.47,153.63L358.51,154.21L361.55,154.51L364.58,152.73L370.66,150.27L373.7,147.25L376.74,145.83L379.77,143.3L382.81,140.45L385.85,135.97L391.93,128.3L394.97,120.95L401.04,112.41L404.08,101.34L407.12,100.55L410.16,96.22L413.19,92.34L416.23,85L419.27,83.47L422.31,79.37L428.39,73.32L431.42,72.72L434.46,71.56L437.5,66.64L440.54,60.41L443.58,60.35L446.61,53.47L449.65,56.57L452.69,52.14L455.73,53.16L458.77,46.77L461.81,51.04L464.84,49.37L467.88,50.2L470.92,51.01L473.96,50.87L480.03,47.07L483.07,38.89L486.11,41.24L489.15,48.97L492.19,50.69L495.23,51.27L501.3,58.84L504.34,59.97L510.42,53.59L513.45,60.6L516.49,63.84L519.53,63.31L522.57,65.67L525.61,64.72L531.68,63.37L534.72,63.68L537.76,60.21L540.8,59.92L543.84,56.26L546.88,58.75L549.91,56.73L552.95,61.49L555.99,58.82L559.03,59.93L562.07,61.34L565.1,66.41L568.14,60.47L571.18,64.29L574.22,64.93L577.26,69.36L580.3,70.44L583.33,77.08L586.37,79.49L589.41,87.25L592.45,89.48L595.49,97.03L601.56,109.02L604.6,112.24L613.72,121.18L616.75,123.87L622.83,131.05L625.87,133.27L628.91,130.42L631.94,131.05L634.98,130.98L638.02,135.77L641.06,139.01L644.1,144.93L647.14,146.68L650.17,145.16L656.25,145.46L659.29,145.41L662.33,142.62L665.36,142.06L671.44,139.59L674.48,135.45L677.52,131.72L680.56,129.2L683.59,126.18L686.63,121.4L689.67,117.39L692.71,110.04L695.75,107.53L698.78,102.92L704.86,93.61L707.9,87.96L717.01,76.65L720.05,74.12L723.09,71.48L726.13,70.05L729.17,68.74L732.2,64.59L741.32,57.22L744.36,49.07L747.4,53.87L750.43,50.88L753.47,53.66L756.51,50.69L759.55,52.5L762.59,51.33L771.7,19.75L774.74,34.84L777.78,31.24L780.82,40.58L786.89,56.09L789.93,51.51L792.97,59.42L796.01,56.06L799.05,58.74L802.08,51.38L805.12,61.74L808.16,61.84L811.2,63.32L814.24,60.71L820.31,62.8L823.35,61.37L826.39,57.76L829.43,56.7L832.47,59.48L835.5,57.85L838.54,60.74L841.58,59.16L844.62,61.59L847.66,60.09L850.69,62.29L853.73,62.09L862.85,66.14L865.89,67.84L868.92,71.65L871.96,73.76L875,75.85" style="vector-effect: non-scaling-stroke; fill: none; stroke: rgb(255, 127, 14); stroke-opacity: 0.7; stroke-width: 3px; opacity: 1;"/></g><g class="points"/><g class="text"/></g></g></g><g class="overplot"/><path class="xlines-above crisp" d="M0,0" style="fill: none;"/><path class="ylines-above crisp" d="M74,50V210" style="fill: none; stroke-width: 2px; stroke: rgb(0, 0, 0); stroke-opacity: 1;"/><g class="overlines-above"/><g class="xaxislayer-above"><g class="xtick"><text text-anchor="middle" x="0" y="230" transform="translate(147.92000000000002,0)" style="font-family: 'Open Sans', verdana, arial, sans-serif; font-size: 19px; fill: rgb(42, 63, 95); fill-opacity: 1; white-space: pre; opacity: 1;"><tspan class="line" dy="0em" x="0" y="230">12:00</tspan><tspan class="line" dy="1.3em" x="0" y="230">May 30, 2019</tspan></text></g><g class="xtick"><text text-anchor="middle" x="0" y="230" style="font-family: 'Open Sans', verdana, arial, sans-serif; font-size: 19px; fill: rgb(42, 63, 95); fill-opacity: 1; white-space: pre; opacity: 1;" transform="translate(293.75,0)"><tspan class="line" dy="0em" x="0" y="230">00:00</tspan><tspan class="line" dy="1.3em" x="0" y="230">May 31, 2019</tspan></text></g><g class="xtick"><text text-anchor="middle" x="0" y="230" style="font-family: 'Open Sans', verdana, arial, sans-serif; font-size: 19px; fill: rgb(42, 63, 95); fill-opacity: 1; white-space: pre; opacity: 1;" transform="translate(439.58,0)">12:00</text></g><g class="xtick"><text text-anchor="middle" x="0" y="230" style="font-family: 'Open Sans', verdana, arial, sans-serif; font-size: 19px; fill: rgb(42, 63, 95); fill-opacity: 1; white-space: pre; opacity: 1;" transform="translate(585.4200000000001,0)"><tspan class="line" dy="0em" x="0" y="230">00:00</tspan><tspan class="line" dy="1.3em" x="0" y="230">Jun 1, 2019</tspan></text></g><g class="xtick"><text text-anchor="middle" x="0" y="230" style="font-family: 'Open Sans', verdana, arial, sans-serif; font-size: 19px; fill: rgb(42, 63, 95); fill-opacity: 1; white-space: pre; opacity: 1;" transform="translate(731.25,0)">12:00</text></g><g class="xtick"><text text-anchor="middle" x="0" y="230" style="font-family: 'Open Sans', verdana, arial, sans-serif; font-size: 19px; fill: rgb(42, 63, 95); fill-opacity: 1; white-space: pre; opacity: 1;" transform="translate(877.08,0)"><tspan class="line" dy="0em" x="0" y="230">00:00</tspan><tspan class="line" dy="1.3em" x="0" y="230">Jun 2, 2019</tspan></text></g></g><g class="yaxislayer-above"><g class="ytick"><text text-anchor="end" x="69.2" y="6.6499999999999995" transform="translate(0,192.61)" style="font-family: 'Open Sans', verdana, arial, sans-serif; font-size: 19px; fill: rgb(42, 63, 95); fill-opacity: 1; white-space: pre; opacity: 1;">−2</text></g><g class="ytick"><text text-anchor="end" x="69.2" y="6.6499999999999995" style="font-family: 'Open Sans', verdana, arial, sans-serif; font-size: 19px; fill: rgb(42, 63, 95); fill-opacity: 1; white-space: pre; opacity: 1;" transform="translate(0,157.82999999999998)">−1</text></g><g class="ytick"><text text-anchor="end" x="69.2" y="6.6499999999999995" style="font-family: 'Open Sans', verdana, arial, sans-serif; font-size: 19px; fill: rgb(42, 63, 95); fill-opacity: 1; white-space: pre; opacity: 1;" transform="translate(0,123.04)">0</text></g><g class="ytick"><text text-anchor="end" x="69.2" y="6.6499999999999995" style="font-family: 'Open Sans', verdana, arial, sans-serif; font-size: 19px; fill: rgb(42, 63, 95); fill-opacity: 1; white-space: pre; opacity: 1;" transform="translate(0,88.25999999999999)">1</text></g><g class="ytick"><text text-anchor="end" x="69.2" y="6.6499999999999995" style="font-family: 'Open Sans', verdana, arial, sans-serif; font-size: 19px; fill: rgb(42, 63, 95); fill-opacity: 1; white-space: pre; opacity: 1;" transform="translate(0,53.48)">2</text></g></g><g class="overaxes-above"/></g></g><g class="polarlayer"/><g class="ternarylayer"/><g class="geolayer"/><g class="funnelarealayer"/><g class="pielayer"/><g class="iciclelayer"/><g class="treemaplayer"/><g class="sunburstlayer"/><g class="glimages"/><defs id="topdefs-be6c08"><g class="clips"/></defs><g class="layer-above"><g class="imagelayer"/><g class="shapelayer"/></g><g class="infolayer"><g class="g-gtitle"/><g class="g-xtitle"/><g class="g-ytitle" transform="translate(12.537109375,0)"><text class="ytitle" transform="rotate(-90,10.462500000000006,130)" x="10.462500000000006" y="130" text-anchor="middle" style="font-family: 'Open Sans', verdana, arial, sans-serif; font-size: 23px; fill: rgb(42, 63, 95); opacity: 1; font-weight: normal; white-space: pre;">Netload [kW]</text></g></g></svg>