<svg class="main-svg" xmlns="http://www.w3.org/2000/svg" xmlns:xlink="http://www.w3.org/1999/xlink" width="1000" height="300" viewBox="0 0 1000 300"><rect x="0" y="0" width="1000" height="300" style="fill: rgb(255, 255, 255); fill-opacity: 1;"/><defs id="defs-d8b228"><g class="clips"><clipPath id="clipd8b228xyplot" class="plotclip"><rect width="875" height="160"/></clipPath><clipPath class="axesclip" id="clipd8b228x"><rect x="75" y="0" width="875" height="300"/></clipPath><clipPath class="axesclip" id="clipd8b228y"><rect x="0" y="50" width="1000" height="160"/></clipPath><clipPath class="axesclip" id="clipd8b228xy"><rect x="75" y="50" width="875" height="160"/></clipPath></g><g class="gradients"/><g class="patterns"/></defs><g class="bglayer"/><g class="layer-below"><g class="imagelayer"/><g class="shapelayer"/></g><g class="cartesianlayer"><g class="subplot xy"><g class="layer-subplot"><g class="shapelayer"/><g class="imagelayer"/></g><g class="gridlayer"><g class="x"><path class="xgrid crisp" transform="translate(147.92000000000002,0)" d="M0,50v160" style="stroke: rgb(235, 240, 248); stroke-opacity: 1; stroke-width: 1px;"/><path class="xgrid crisp" transform="translate(293.75,0)" d="M0,50v160" style="stroke: rgb(235, 240, 248); stroke-opacity: 1; stroke-width: 1px;"/><path class="xgrid crisp" transform="translate(439.58,0)" d="M0,50v160" style="stroke: rgb(235, 240, 248); stroke-opacity: 1; stroke-width: 1px;"/><path class="xgrid crisp" transform="translate(585.4200000000001,0)" d="M0,50v160" style="stroke: rgb(235, 240, 248); stroke-opacity: 1; stroke-width: 1px;"/><path class="xgrid crisp" transform="translate(731.25,0)" d="M0,50v160" style="stroke: rgb(235, 240, 248); stroke-opacity: 1; stroke-width: 1px;"/><path class="xgrid crisp" transform="translate(877.08,0)" d="M0,50v160" style="stroke: rgb(235, 240, 248); stroke-opacity: 1; stroke-width: 1px;"/></g><g class="y"><path class="ygrid crisp" transform="translate(0,192.61)" d="M75,0h875" style="stroke: rgb(235, 240, 248); stroke-opacity: 1; stroke-width: 1px;"/><path class="ygrid crisp" transform="translate(0,157.82999999999998)" d="M75,0h875" style="stroke: rgb(235, 240, 248); stroke-opacity: 1; stroke-width: 1px;"/><path class="ygrid crisp" transform="translate(0,88.25999999999999)" d="M75,0h875" style="stroke: rgb(235, 240, 248); stroke-opacity: 1; stroke-width: 1px;"/><path class="ygrid crisp" transform="translate(0,53.48)" d="M75,0h875" style="stroke: rgb(235, 240, 248); stroke-opacity: 1; stroke-width: 1px;"/></g></g><g class="zerolinelayer"><path class="yzl zl crisp" transform="translate(0,123.04)" d="M75,0h875" style="stroke: rgb(0, 0, 0); stroke-opacity: 1; stroke-width: 2px;"/></g><path class="xlines-below"/><path class="ylines-below"/><g class="overlines-below"/><g class="xaxislayer-below"/><g class="yaxislayer-below"/><g class="overaxes-below"/><g class="plot" transform="translate(75,50)" clip-path="url(#clipd8b228xyplot)"><g class="scatterlayer mlayer"><g class="trace scatter tracea3788c" style="stroke-miterlimit: 2; opacity: 1;"><g class="fills"/><g class="errorbars"/><g class="lines"><path class="js-line" d="M0,59.21L3.04,57.37L6.08,59.05L9.11,53.98L12.15,35.71L18.23,54.4L21.27,68.89L24.31,61.45L27.34,61L30.38,61.21L33.42,51.02L36.46,57.62L39.5,51.65L42.53,66.2L45.57,62.44L48.61,68.47L51.65,59.16L54.69,59.62L57.73,58.14L60.76,50.02L63.8,55.17L66.84,54.93L69.88,61.41L72.92,69.86L75.95,53.74L78.99,63.81L82.03,66.22L85.07,50.21L88.11,61.7L94.18,54.28L97.22,66.25L100.26,48.77L103.3,67.3L109.38,59.22L112.41,63.35L115.45,64.34L118.49,70.34L121.53,67.47L124.57,67.04L127.6,72.5L130.64,62.3L133.68,61.35L136.72,69.66L139.76,67.84L142.8,70.52L145.83,35.45L148.87,68.17L151.91,68.57L154.95,67.91L157.99,62.64L161.02,41.33L164.06,45.11L167.1,21.88L170.14,26.88L173.18,49.47L176.22,31.44L179.25,48.51L182.29,62.18L185.33,42.18L188.37,67.91L191.41,63.65L194.44,56.58L197.48,67.57L200.52,68.88L203.56,66.33L206.6,71.23L209.64,70.08L215.71,65.47L218.75,70.68L221.79,69.87L224.83,67.47L227.86,62.44L230.9,67.37L233.94,33.34L236.98,62.02L240.02,64.18L243.06,65.33L246.09,70.22L249.13,55.3L252.17,54.13L255.21,59.56L258.25,58.87L261.28,39.66L264.32,60.93L267.36,54.02L270.4,52.88L273.44,58.82L276.48,60.57L279.51,50.03L282.55,60.33L285.59,60.68L288.63,68.66L291.67,54.43L294.7,55.76L297.74,63.13L300.78,68.58L303.82,53.55L306.86,57.39L309.9,49.15L312.93,47.8L315.97,54.7L319.01,57.93L322.05,56.97L325.09,54L328.13,65.71L331.16,61.24L334.2,61.33L337.24,66.77L340.28,44.62L343.32,44.18L346.35,58.29L349.39,65.69L352.43,48.16L355.47,68.76L358.51,71.52L361.55,69.77L364.58,72L367.62,64.91L370.66,66.54L373.7,66.7L376.74,56.1L379.77,53.04L382.81,61.12L388.89,57.36L391.93,63.78L394.97,59.37L398,56.62L401.04,51.85L404.08,48.57L407.12,23.12L410.16,37.18L413.19,59.16L416.23,44.97L419.27,48.67L422.31,57.83L425.35,52.46L428.39,33.99L431.42,38.72L434.46,62.96L437.5,19.5L440.54,48.89L443.58,54.18L446.61,27.38L449.65,31.66L452.69,38.47L455.73,47.05L458.77,43.81L461.81,23.65L464.84,53.63L467.88,61.97L470.92,35.97L473.96,55.71L477,58.84L480.03,57.93L483.07,65.45L486.11,62.65L489.15,58.7L492.19,52.97L495.23,49.71L498.26,65.59L501.3,67.8L504.34,61.83L507.38,62.44L510.42,70.8L513.45,67.67L519.53,71.1L522.57,70.32L528.65,71.13L531.68,67.22L534.72,69.26L537.76,69.22L540.8,69.73L543.84,71.68L546.88,70.25L549.91,70.57L552.95,68.99L555.99,70.37L559.03,70.58L562.07,68.41L565.1,71.84L568.14,71.72L571.18,72.66L574.22,72.17L577.26,69.93L580.3,70.64L583.33,65.06L586.37,65.3L589.41,62.06L592.45,68.06L595.49,62.25L598.52,65.39L601.56,62.63L604.6,68.11L607.64,62.05L610.68,48.02L613.72,69.13L616.75,71.25L619.79,69.3L622.83,66.17L625.87,72.34L628.91,72.34L631.94,67.51L634.98,71.09L638.02,70.45L641.06,72.22L644.1,72.04L647.14,70.43L650.17,67.95L653.21,70.41L656.25,69.58L659.29,70.54L662.33,72.16L665.36,72.17L668.4,69.79L671.44,72.28L677.52,68.9L680.56,70.29L686.63,68.62L689.67,67.68L692.71,63.78L695.75,66.12L698.78,64.05L701.82,58.03L704.86,70.16L707.9,70.52L710.94,71.94L713.98,68.74L717.01,58.39L720.05,66.65L726.13,70.44L729.17,71.82L735.24,58.46L738.28,69.54L741.32,63.8L744.36,64.5L747.4,66.86L750.43,65.53L753.47,66.27L756.51,65.66L759.55,71.56L762.59,71.19L768.66,68.82L771.7,71.65L774.74,71.64L777.78,63.53L780.82,50.03L783.85,66.2L786.89,60.5L789.93,64L792.97,69.68L796.01,71.56L799.05,70.52L802.08,64.77L805.12,60.12L808.16,70.67L811.2,62.98L814.24,71.5L817.27,71.6L820.31,70.75L826.39,62.98L829.43,66.38L835.5,72.38L838.54,71.89L841.58,68.3L844.62,68.15L850.69,70.01L853.73,69.22L856.77,67.41L859.81,68.17L862.85,69.26L865.89,68.86L868.92,70.37L871.96,69.23L875,69.83" style="vector-effect: non-scaling-stroke; fill: none; stroke: rgb(76, 120, 168); stroke-opacity: 1; stroke-width: 3px; opacity: 1;"/></g><g class="points"/><g class="text"/></g><g class="trace scatter trace1d7bd7" style="stroke-miterlimit: 2; opacity: 1;"><g class="fills"/><g class="errorbars"/><g class="lines"><path class="js-line" d="M0,57.22L3.04,58.25L6.08,58.35L9.11,57.54L12.15,55.24L15.19,47.73L18.23,47.98L21.27,50.67L24.31,56.78L33.42,53.49L36.46,49.83L39.5,52.1L42.53,51L45.57,55.92L48.61,54.93L51.65,57.69L54.69,54.97L60.76,54.34L63.8,52.35L66.84,53.83L69.88,53.78L75.95,59.88L78.99,56.4L82.03,58.75L85.07,59.63L88.11,56.65L91.15,59.03L97.22,57.78L100.26,60.02L103.3,55.9L106.34,60.95L109.38,59.42L112.41,60.03L118.49,60.33L121.53,63.15L124.57,62.16L127.6,62.62L130.64,63.57L133.68,60.15L136.72,58.94L139.76,60.34L145.83,61.01L148.87,48.49L151.91,54.87L154.95,55.18L157.99,58.29L161.02,55.95L164.06,47.6L167.1,45.06L170.14,35.17L173.18,36.48L176.22,42.5L179.25,38.83L185.33,47.67L188.37,45.68L191.41,53.62L194.44,56.23L200.52,61.36L203.56,65.05L212.67,70.4L215.71,70.22L218.75,68.93L221.79,71.26L224.83,71.57L227.86,70.7L230.9,68.39L233.94,68.67L236.98,56.56L240.02,61.77L243.06,62.63L246.09,65.37L249.13,65.61L252.17,60.6L255.21,58.2L258.25,57.67L261.28,60.16L264.32,54.19L267.36,57.88L270.4,56.19L273.44,56.14L276.48,57.12L279.51,59.16L282.55,55.98L288.63,59.56L291.67,63.23L294.7,58.84L297.74,58.38L300.78,59.23L303.82,61.73L306.86,58.1L309.9,57.4L312.93,52.9L315.97,50.59L319.01,51.53L322.05,53.45L325.09,53.12L328.13,50.62L331.16,53.92L334.2,53.56L337.24,54.36L340.28,56.41L343.32,50.03L346.35,47.44L349.39,50.39L352.43,55.71L355.47,51.64L358.51,56.72L364.58,60.46L367.62,62.2L376.74,61.74L379.77,59.9L382.81,57.59L385.85,58.25L391.93,57.32L394.97,58.64L401.04,55.73L404.08,53.25L407.12,51.69L410.16,41.58L413.19,41.98L416.23,48.46L419.27,46.81L422.31,46.52L425.35,47.63L428.39,46.73L431.42,39.65L434.46,39.55L437.5,47.54L440.54,34.84L443.58,40.5L446.61,41.74L449.65,35.42L452.69,32.08L455.73,33.44L458.77,38.64L461.81,37.34L464.84,32.41L467.88,40.07L470.92,44.08L473.96,40.98L477,46.48L483.07,52L486.11,55.36L489.15,58.56L492.19,58.68L495.23,55.58L498.26,55.77L501.3,61.5L504.34,64.28L507.38,64.47L510.42,63.68L513.45,65.94L516.49,66.3L522.57,69.08L525.61,68.88L540.8,66.12L543.84,66.22L549.91,66.02L552.95,65.9L555.99,65.09L559.03,65.65L565.1,65.52L568.14,66.59L577.26,67.54L580.3,66.97L583.33,66.89L586.37,64.67L589.41,64.01L592.45,61.98L595.49,63.08L598.52,60.83L601.56,60.88L604.6,58.99L607.64,60.04L610.68,57.89L613.72,52.44L616.75,56.86L622.83,60.12L625.87,58.5L628.91,60.22L631.94,60.65L634.98,59.86L638.02,62.11L647.14,63.43L650.17,63.85L653.21,63.07L656.25,63.61L668.4,66.33L671.44,65.74L674.48,66.44L677.52,66.29L683.59,65.95L686.63,65.85L692.71,64.39L695.75,62.69L698.78,62.5L701.82,61.32L704.86,58.94L707.9,61.5L713.98,63.28L717.01,61.72L720.05,57.64L723.09,58.31L726.13,58.9L729.17,60.87L732.2,60.98L735.24,57.94L738.28,54.44L741.32,56.4L744.36,56.11L747.4,56.75L759.55,57.19L762.59,60.57L774.74,64.96L777.78,66.47L780.82,65.2L783.85,60.71L786.89,64.41L789.93,63.99L796.01,68.49L799.05,70.34L802.08,70.33L805.12,68.56L808.16,67.42L811.2,69.87L814.24,68.2L817.27,71.03L823.35,70.45L826.39,68.17L829.43,66.04L832.47,66.6L835.5,67.38L838.54,68.96L841.58,69.03L844.62,67.42L847.66,66.63L850.69,66.73L856.77,68.13L859.81,67.54L865.89,67.54L868.92,67.78L871.96,68.46L875,68.19" style="vector-effect: non-scaling-stroke; fill: none; stroke: rgb(255, 127, 14); stroke-opacity: 0.7; stroke-width: 3px; opacity: 1;"/></g><g class="points"/><g class="text"/></g></g></g><g class="overplot"/><path class="xlines-above crisp" d="M0,0" style="fill: none;"/><path class="ylines-above crisp" d="M74,50V210" style="fill: none; stroke-width: 2px; stroke: rgb(0, 0, 0); stroke-opacity: 1;"/><g class="overlines-above"/><g class="xaxislayer-above"><g class="xtick"><text text-anchor="middle" x="0" y="230" transform="translate(147.92000000000002,0)" style="font-family: 'Open Sans', verdana, arial, sans-serif; font-size: 19px; fill: rgb(42, 63, 95); fill-opacity: 1; white-space: pre; opacity: 1;"><tspan class="line" dy="0em" x="0" y="230">12:00</tspan><tspan class="line" dy="1.3em" x="0" y="230">May 30, 2019</tspan></text></g><g class="xtick"><text text-anchor="middle" x="0" y="230" style="font-family: 'Open Sans', verdana, arial, sans-serif; font-size: 19px; fill: rgb(42, 63, 95); fill-opacity: 1; white-space: pre; opacity: 1;" transform="translate(293.75,0)"><tspan class="line" dy="0em" x="0" y="230">00:00</tspan><tspan class="line" dy="1.3em" x="0" y="230">May 31, 2019</tspan></text></g><g class="xtick"><text text-anchor="middle" x="0" y="230" style="font-family: 'Open Sans', verdana, arial, sans-serif; font-size: 19px; fill: rgb(42, 63, 95); fill-opacity: 1; white-space: pre; opacity: 1;" transform="translate(439.58,0)">12:00</text></g><g class="xtick"><text text-anchor="middle" x="0" y="230" style="font-family: 'Open Sans', verdana, arial, sans-serif; font-size: 19px; fill: rgb(42, 63, 95); fill-opacity: 1; white-space: pre; opacity: 1;" transform="translate(585.4200000000001,0)"><tspan class="line" dy="0em" x="0" y="230">00:00</tspan><tspan class="line" dy="1.3em" x="0" y="230">Jun 1, 2019</tspan></text></g><g class="xtick"><text text-anchor="middle" x="0" y="230" style="font-family: 'Open Sans', verdana, arial, sans-serif; font-size: 19px; fill: rgb(42, 63, 95); fill-opacity: 1; white-space: pre; opacity: 1;" transform="translate(731.25,0)">12:00</text></g><g class="xtick"><text text-anchor="middle" x="0" y="230" style="font-family: 'Open Sans', verdana, arial, sans-serif; font-size: 19px; fill: rgb(42, 63, 95); fill-opacity: 1; white-space: pre; opacity: 1;" transform="translate(877.08,0)"><tspan class="line" dy="0em" x="0" y="230">00:00</tspan><tspan class="line" dy="1.3em" x="0" y="230">Jun 2, 2019</tspan></text></g></g><g class="yaxislayer-above"><g class="ytick"><text text-anchor="end" x="69.2" y="6.6499999999999995" transform="translate(0,192.61)" style="font-family: 'Open Sans', verdana, arial, sans-serif; font-size: 19px; fill: rgb(42, 63, 95); fill-opacity: 1; white-space: pre; opacity: 1;">−2</text></g><g class="ytick"><text text-anchor="end" x="69.2" y="6.6499999999999995" style="font-family: 'Open Sans', verdana, arial, sans-serif; font-size: 19px; fill: rgb(42, 63, 95); fill-opacity: 1; white-space: pre; opacity: 1;" transform="translate(0,157.82999999999998)">−1</text></g><g class="ytick"><text text-anchor="end" x="69.2" y="6.6499999999999995" style="font-family: 'Open Sans', verdana, arial, sans-serif; font-size: 19px; fill: rgb(42, 63, 95); fill-opacity: 1; white-space: pre; opacity: 1;" transform="translate(0,123.04)">0</text></g><g class="ytick"><text text-anchor="end" x="69.2" y="6.6499999999999995" style="font-family: 'Open Sans', verdana, arial, sans-serif; font-size: 19px; fill: rgb(42, 63, 95); fill-opacity: 1; white-space: pre; opacity: 1;" transform="translate(0,88.25999999999999)">1</text></g><g class="ytick"><text text-anchor="end" x="69.2" y="6.6499999999999995" style="font-family: 'Open Sans', verdana, arial, sans-serif; font-size: 19px; fill: rgb(42, 63, 95); fill-opacity: 1; white-space: pre; opacity: 1;" transform="translate(0,53.48)">2</text></g></g><g class="overaxes-above"/></g></g><g class="polarlayer"/><g class="ternarylayer"/><g class="geolayer"/><g class="funnelarealayer"/><g class="pielayer"/><g class="iciclelayer"/><g class="treemaplayer"/><g class="sunburstlayer"/><g class="glimages"/><defs id="topdefs-d8b228"><g class="clips"/></defs><g class="layer-above"><g class="imagelayer"/><g class="shapelayer"/></g><g class="infolayer"><g class="g-gtitle"/><g class="g-xtitle"/><g class="g-ytitle" transform="translate(12.537109375,0)"><text class="ytitle" transform="rotate(-90,10.462500000000006,130)" x="10.462500000000006" y="130" text-anchor="middle" style="font-family: 'Open Sans', verdana, arial, sans-serif; font-size: 23px; fill: rgb(42, 63, 95); opacity: 1; font-weight: normal; white-space: pre;">Netload [kW]</text></g></g></svg>