<svg class="main-svg" xmlns="http://www.w3.org/2000/svg" xmlns:xlink="http://www.w3.org/1999/xlink" width="1000" height="300" viewBox="0 0 1000 300"><rect x="0" y="0" width="1000" height="300" style="fill: rgb(255, 255, 255); fill-opacity: 1;"/><defs id="defs-1bbf52"><g class="clips"><clipPath id="clip1bbf52xyplot" class="plotclip"><rect width="875" height="160"/></clipPath><clipPath class="axesclip" id="clip1bbf52x"><rect x="75" y="0" width="875" height="300"/></clipPath><clipPath class="axesclip" id="clip1bbf52y"><rect x="0" y="50" width="1000" height="160"/></clipPath><clipPath class="axesclip" id="clip1bbf52xy"><rect x="75" y="50" width="875" height="160"/></clipPath></g><g class="gradients"/><g class="patterns"/></defs><g class="bglayer"/><g class="layer-below"><g class="imagelayer"/><g class="shapelayer"/></g><g class="cartesianlayer"><g class="subplot xy"><g class="layer-subplot"><g class="shapelayer"/><g class="imagelayer"/></g><g class="gridlayer"><g class="x"><path class="xgrid crisp" transform="translate(147.92000000000002,0)" d="M0,50v160" style="stroke: rgb(235, 240, 248); stroke-opacity: 1; stroke-width: 1px;"/><path class="xgrid crisp" transform="translate(293.75,0)" d="M0,50v160" style="stroke: rgb(235, 240, 248); stroke-opacity: 1; stroke-width: 1px;"/><path class="xgrid crisp" transform="translate(439.58,0)" d="M0,50v160" style="stroke: rgb(235, 240, 248); stroke-opacity: 1; stroke-width: 1px;"/><path class="xgrid crisp" transform="translate(585.4200000000001,0)" d="M0,50v160" style="stroke: rgb(235, 240, 248); stroke-opacity: 1; stroke-width: 1px;"/><path class="xgrid crisp" transform="translate(731.25,0)" d="M0,50v160" style="stroke: rgb(235, 240, 248); stroke-opacity: 1; stroke-width: 1px;"/><path class="xgrid crisp" transform="translate(877.08,0)" d="M0,50v160" style="stroke: rgb(235, 240, 248); stroke-opacity: 1; stroke-width: 1px;"/></g><g class="y"><path class="ygrid crisp" transform="translate(0,192.61)" d="M75,0h875" style="stroke: rgb(235, 240, 248); stroke-opacity: 1; stroke-width: 1px;"/><path class="ygrid crisp" transform="translate(0,157.82999999999998)" d="M75,0h875" style="stroke: rgb(235, 240, 248); stroke-opacity: 1; stroke-width: 1px;"/><path class="ygrid crisp" transform="translate(0,88.25999999999999)" d="M75,0h875" style="stroke: rgb(235, 240, 248); stroke-opacity: 1; stroke-width: 1px;"/><path class="ygrid crisp" transform="translate(0,53.48)" d="M75,0h875" style="stroke: rgb(235, 240, 248); stroke-opacity: 1; stroke-width: 1px;"/></g></g><g class="zerolinelayer"><path class="yzl zl crisp" transform="translate(0,123.04)" d="M75,0h875" style="stroke: rgb(0, 0, 0); stroke-opacity: 1; stroke-width: 2px;"/></g><path class="xlines-below"/><path class="ylines-below"/><g class="overlines-below"/><g class="xaxislayer-below"/><g class="yaxislayer-below"/><g class="overaxes-below"/><g class="plot" transform="translate(75,50)" clip-path="url(#clip1bbf52xyplot)"><g class="scatterlayer mlayer"><g class="trace scatter tracebe0a5a" style="stroke-miterlimit: 2; opacity: 1;"><g class="fills"/><g class="errorbars"/><g class="lines"><path class="js-line" d="M0,78.47L3.04,74.27L6.08,94.82L9.11,97.53L12.15,91.89L15.19,108.73L18.23,117.9L21.27,119.21L24.31,126.79L27.34,132.1L30.38,134.16L33.42,132.7L36.46,141.4L39.5,141.01L42.53,141.76L45.57,141.67L48.61,144.18L51.65,149.45L54.69,149.22L57.73,147.03L60.76,148.49L63.8,156.16L66.84,140.67L69.88,141.26L72.92,133.91L75.95,145.06L78.99,136.36L82.03,138.23L85.07,133.65L88.11,134.33L91.15,96.57L94.18,127.4L97.22,131.63L100.26,120.81L103.3,112.82L106.34,111.27L109.38,106.21L118.49,88.56L121.53,85.78L124.57,79.91L127.6,78.62L130.64,74.96L133.68,73.83L136.72,74.07L139.76,72.73L142.8,71.09L145.83,61.17L148.87,64.19L151.91,65.01L154.95,59.99L157.99,56.81L161.02,56.1L164.06,63.79L167.1,52.35L170.14,60.98L173.18,65.47L176.22,65.1L179.25,49.34L182.29,45.29L185.33,67.67L188.37,55.74L191.41,49.55L194.44,39.52L197.48,41.73L200.52,4.87L203.56,51.81L206.6,61.67L209.64,63.49L212.67,49.22L215.71,47.94L218.75,54.57L221.79,66.81L224.83,66.78L227.86,64.73L230.9,60.67L233.94,60.52L236.98,64.21L240.02,62.63L243.06,58.67L249.13,56.79L252.17,57.53L255.21,51.91L258.25,48.88L261.28,63.13L264.32,65.59L267.36,69.51L270.4,60.46L276.48,69.89L279.51,72.38L282.55,70.72L285.59,78.13L288.63,79.21L291.67,63.07L294.7,68.55L297.74,81.04L303.82,92.94L306.86,108.98L312.93,114.71L315.97,113.71L319.01,111.77L322.05,62.86L325.09,123.48L328.13,138.42L331.16,139.22L334.2,132.3L337.24,138.06L340.28,138.64L343.32,129L346.35,126.73L349.39,146.61L352.43,148.2L355.47,152.91L358.51,151.99L361.55,150.38L364.58,153.82L367.62,148.87L370.66,128.72L373.7,133.71L376.74,134.02L379.77,140.75L382.81,129.53L385.85,133.18L388.89,125.57L391.93,122.17L394.97,124.07L398,123.04L401.04,112.92L404.08,105.04L407.12,90.23L410.16,94.13L413.19,93.44L416.23,85.55L419.27,80.74L422.31,80.48L425.35,70.49L428.39,58.95L431.42,-56.39L434.46,-54.11L437.5,57.91L440.54,53.57L443.58,53.03L446.61,38.18L449.65,69.57L452.69,68.87L455.73,61.64L458.77,54.75L461.81,66.36L464.84,47.55L467.88,66.2L470.92,63.26L473.96,64.59L477,64L480.03,52.52L483.07,64.24L486.11,60.42L489.15,65.53L492.19,62.63L498.26,69.04L501.3,66.66L504.34,46.07L507.38,58.45L510.42,67.58L513.45,64.27L519.53,53.96L522.57,52.62L525.61,59.27L528.65,68.41L531.68,64.24L534.72,65.68L537.76,68.48L540.8,56.16L543.84,40.39L546.88,65.33L549.91,67.15L552.95,64.38L559.03,63.37L562.07,65.35L565.1,63.28L568.14,70.69L571.18,68.55L574.22,71.58L577.26,75.81L580.3,57.67L583.33,61.79L586.37,71.65L589.41,45.56L592.45,78.73L595.49,102.17L598.52,100.98L601.56,100.88L604.6,110.52L607.64,105L610.68,97.45L613.72,79.23L616.75,110.73L619.79,102.98L622.83,129.71L628.91,98.1L631.94,137.37L634.98,138.47L638.02,141L641.06,146.14L644.1,147.24L647.14,117.74L650.17,140.25L653.21,134.26L656.25,118L659.29,103.44L662.33,137.48L665.36,141.55L668.4,141.52L671.44,138.75L674.48,125.13L677.52,133.39L680.56,133.86L683.59,125.74L686.63,126.29L692.71,118.71L695.75,109.8L701.82,95.09L704.86,75.7L707.9,-13.62L710.94,51.3L713.98,67.01L717.01,22.72L720.05,-33.18L723.09,66.87L726.13,47.9L729.17,-81.46L732.2,-28.7L735.24,49.85L738.28,46.92L741.32,29.81L744.36,40.59L747.4,62.68L750.43,64.32L753.47,62.18L756.51,63.56L759.55,56.68L762.59,44.77L765.63,57.26L768.66,65.78L771.7,1.84L774.74,61.7L777.78,66.38L780.82,67.82L783.85,64.2L786.89,64.85L789.93,63.18L796.01,-32.01L799.05,40.87L802.08,57.51L805.12,45.88L808.16,44.55L811.2,61.33L817.27,64.27L820.31,69L823.35,70.64L826.39,68.93L829.43,66.34L832.47,65.47L835.5,69.25L838.54,69.39L841.58,69.29L844.62,62.62L847.66,64.01L850.69,68.7L853.73,71.47L856.77,68.28L862.85,56.07L865.89,69.4L868.92,64.27L871.96,57.55L875,34.11" style="vector-effect: non-scaling-stroke; fill: none; stroke: rgb(76, 120, 168); stroke-opacity: 1; stroke-width: 3px; opacity: 1;"/></g><g class="points"/><g class="text"/></g><g class="trace scatter trace45f356" style="stroke-miterlimit: 2; opacity: 1;"><g class="fills"/><g class="errorbars"/><g class="lines"><path class="js-line" d="M0,81.27L6.08,82.95L9.11,96.47L12.15,98.46L15.19,98.14L18.23,110.56L21.27,115.31L24.31,117.85L27.34,123.13L30.38,127.08L33.42,129.19L36.46,129.22L39.5,135.01L42.53,134.76L45.57,136.03L51.65,138.96L54.69,142.64L57.73,142.56L60.76,143.27L63.8,144.52L66.84,148.98L69.88,140.82L72.92,143.24L75.95,139.09L78.99,144.52L82.03,139.3L85.07,140.07L91.15,135.41L94.18,115.14L97.22,130.81L100.26,126.97L103.3,115.7L106.34,111.82L109.38,104.76L112.41,100.78L115.45,91.57L118.49,88.34L121.53,81.06L124.57,78.4L127.6,73.46L130.64,71.49L133.68,68.05L136.72,67.04L139.76,67.12L142.8,65.75L145.83,65.17L148.87,59.66L151.91,61.97L154.95,61.52L157.99,58.41L161.02,57.64L164.06,56.89L167.1,60.91L170.14,53.4L173.18,58.94L176.22,60.15L179.25,58.64L182.29,50.97L185.33,48.64L188.37,60.64L191.41,50.56L194.44,49.82L197.48,45.08L200.52,46.09L203.56,26.33L206.6,52.67L209.64,55.41L212.67,55.44L215.71,52.97L218.75,51.1L221.79,57.43L224.83,59.22L227.86,62.48L230.9,61.5L233.94,61.59L236.98,61.11L240.02,63.13L246.09,60.26L249.13,60.06L252.17,59.13L255.21,59.09L258.25,55.67L261.28,54.32L264.32,61.72L267.36,61.36L270.4,64.33L273.44,60.25L279.51,66.47L282.55,67.97L285.59,69.89L288.63,75.07L291.67,77.45L294.7,70.96L300.78,85.84L303.82,90.35L306.86,95.93L309.9,106.48L315.97,112.19L319.01,113.24L322.05,113.03L325.09,88.52L328.13,124.49L331.16,127.22L334.2,127.33L337.24,129.6L340.28,131.2L343.32,134.35L346.35,124.71L349.39,128.97L352.43,138.91L355.47,139.48L358.51,142.97L361.55,143.86L364.58,143.34L367.62,145.54L370.66,141.55L373.7,132.22L376.74,135.55L379.77,133.74L382.81,135.62L385.85,128.52L388.89,129.72L391.93,123.52L394.97,117.94L398,117.44L401.04,112.46L404.08,105.44L407.12,98.09L410.16,88.09L413.19,87.1L416.23,82.93L419.27,75.73L422.31,71.96L425.35,68.71L428.39,62.75L431.42,55.82L434.46,-4.92L437.5,2.91L440.54,56.88L443.58,41.72L446.61,50.65L449.65,44.45L452.69,62.53L458.77,48.89L461.81,51.68L464.84,54.3L467.88,46.03L470.92,54.88L473.96,53.35L477,52.72L480.03,54.07L483.07,45.74L486.11,54.6L489.15,48.91L492.19,53.66L495.23,51.92L498.26,54.02L501.3,56.9L504.34,54.61L507.38,46.03L510.42,53.75L513.45,58.1L516.49,55.7L519.53,55.22L522.57,53.32L525.61,53.71L528.65,55.91L531.68,60.88L534.72,58.42L540.8,61.5L543.84,54.14L546.88,46.57L549.91,60L555.99,57.11L559.03,58.59L562.07,58L565.1,59.92L568.14,57.57L571.18,63.58L574.22,63.06L577.26,66.82L580.3,70.87L583.33,62.09L589.41,75.28L592.45,63.13L595.49,85.77L598.52,96.7L601.56,97.14L604.6,101.24L607.64,107.17L610.68,105.77L613.72,101.08L616.75,94.41L619.79,112.73L622.83,105.42L625.87,120.3L628.91,112.95L631.94,103.61L634.98,128.74L638.02,122.7L641.06,129.44L644.1,133.04L647.14,134.96L650.17,120.66L653.21,133.6L656.25,130.53L659.29,121.29L662.33,117.31L665.36,134.12L668.4,134.59L671.44,132.1L674.48,133.43L677.52,123.35L680.56,128.12L683.59,122.86L686.63,117.72L689.67,116.46L695.75,107.47L698.78,99.26L704.86,86.84L707.9,73.37L710.94,24.9L713.98,61.88L717.01,59.12L720.05,33.25L723.09,12.57L726.13,63.9L729.17,46.15L732.2,-25.02L735.24,20.34L738.28,47.16L744.36,34.94L747.4,46.62L750.43,57.22L753.47,50.59L759.55,54.19L762.59,49.9L765.63,44.15L768.66,50.92L771.7,54.02L774.74,19.7L777.78,57.06L780.82,52.79L783.85,53.1L786.89,55.65L789.93,53.59L792.97,57.31L799.05,9.2L802.08,48.96L805.12,50.7L808.16,45.71L814.24,59.02L817.27,60.3L820.31,56.73L823.35,63.46L829.43,62.95L832.47,61.55L835.5,61.64L838.54,63.15L844.62,63L847.66,59.62L850.69,60.69L853.73,63.27L856.77,64.49L859.81,63.89L865.89,60.51L868.92,68.82L871.96,66.37L875,65.08" style="vector-effect: non-scaling-stroke; fill: none; stroke: rgb(255, 127, 14); stroke-opacity: 0.7; stroke-width: 3px; opacity: 1;"/></g><g class="points"/><g class="text"/></g></g></g><g class="overplot"/><path class="xlines-above crisp" d="M0,0" style="fill: none;"/><path class="ylines-above crisp" d="M74,50V210" style="fill: none; stroke-width: 2px; stroke: rgb(0, 0, 0); stroke-opacity: 1;"/><g class="overlines-above"/><g class="xaxislayer-above"><g class="xtick"><text text-anchor="middle" x="0" y="230" transform="translate(147.92000000000002,0)" style="font-family: 'Open Sans', verdana, arial, sans-serif; font-size: 19px; fill: rgb(42, 63, 95); fill-opacity: 1; white-space: pre; opacity: 1;"><tspan class="line" dy="0em" x="0" y="230">12:00</tspan><tspan class="line" dy="1.3em" x="0" y="230">May 30, 2019</tspan></text></g><g class="xtick"><text text-anchor="middle" x="0" y="230" style="font-family: 'Open Sans', verdana, arial, sans-serif; font-size: 19px; fill: rgb(42, 63, 95); fill-opacity: 1; white-space: pre; opacity: 1;" transform="translate(293.75,0)"><tspan class="line" dy="0em" x="0" y="230">00:00</tspan><tspan class="line" dy="1.3em" x="0" y="230">May 31, 2019</tspan></text></g><g class="xtick"><text text-anchor="middle" x="0" y="230" style="font-family: 'Open Sans', verdana, arial, sans-serif; font-size: 19px; fill: rgb(42, 63, 95); fill-opacity: 1; white-space: pre; opacity: 1;" transform="translate(439.58,0)">12:00</text></g><g class="xtick"><text text-anchor="middle" x="0" y="230" style="font-family: 'Open Sans', verdana, arial, sans-serif; font-size: 19px; fill: rgb(42, 63, 95); fill-opacity: 1; white-space: pre; opacity: 1;" transform="translate(585.4200000000001,0)"><tspan class="line" dy="0em" x="0" y="230">00:00</tspan><tspan class="line" dy="1.3em" x="0" y="230">Jun 1, 2019</tspan></text></g><g class="xtick"><text text-anchor="middle" x="0" y="230" style="font-family: 'Open Sans', verdana, arial, sans-serif; font-size: 19px; fill: rgb(42, 63, 95); fill-opacity: 1; white-space: pre; opacity: 1;" transform="translate(731.25,0)">12:00</text></g><g class="xtick"><text text-anchor="middle" x="0" y="230" style="font-family: 'Open Sans', verdana, arial, sans-serif; font-size: 19px; fill: rgb(42, 63, 95); fill-opacity: 1; white-space: pre; opacity: 1;" transform="translate(877.08,0)"><tspan class="line" dy="0em" x="0" y="230">00:00</tspan><tspan class="line" dy="1.3em" x="0" y="230">Jun 2, 2019</tspan></text></g></g><g class="yaxislayer-above"><g class="ytick"><text text-anchor="end" x="69.2" y="6.6499999999999995" transform="translate(0,192.61)" style="font-family: 'Open Sans', verdana, arial, sans-serif; font-size: 19px; fill: rgb(42, 63, 95); fill-opacity: 1; white-space: pre; opacity: 1;">−2</text></g><g class="ytick"><text text-anchor="end" x="69.2" y="6.6499999999999995" style="font-family: 'Open Sans', verdana, arial, sans-serif; font-size: 19px; fill: rgb(42, 63, 95); fill-opacity: 1; white-space: pre; opacity: 1;" transform="translate(0,157.82999999999998)">−1</text></g><g class="ytick"><text text-anchor="end" x="69.2" y="6.6499999999999995" style="font-family: 'Open Sans', verdana, arial, sans-serif; font-size: 19px; fill: rgb(42, 63, 95); fill-opacity: 1; white-space: pre; opacity: 1;" transform="translate(0,123.04)">0</text></g><g class="ytick"><text text-anchor="end" x="69.2" y="6.6499999999999995" style="font-family: 'Open Sans', verdana, arial, sans-serif; font-size: 19px; fill: rgb(42, 63, 95); fill-opacity: 1; white-space: pre; opacity: 1;" transform="translate(0,88.25999999999999)">1</text></g><g class="ytick"><text text-anchor="end" x="69.2" y="6.6499999999999995" style="font-family: 'Open Sans', verdana, arial, sans-serif; font-size: 19px; fill: rgb(42, 63, 95); fill-opacity: 1; white-space: pre; opacity: 1;" transform="translate(0,53.48)">2</text></g></g><g class="overaxes-above"/></g></g><g class="polarlayer"/><g class="ternarylayer"/><g class="geolayer"/><g class="funnelarealayer"/><g class="pielayer"/><g class="iciclelayer"/><g class="treemaplayer"/><g class="sunburstlayer"/><g class="glimages"/><defs id="topdefs-1bbf52"><g class="clips"/></defs><g class="layer-above"><g class="imagelayer"/><g class="shapelayer"/></g><g class="infolayer"><g class="g-gtitle"/><g class="g-xtitle"/><g class="g-ytitle" transform="translate(12.537109375,0)"><text class="ytitle" transform="rotate(-90,10.462500000000006,130)" x="10.462500000000006" y="130" text-anchor="middle" style="font-family: 'Open Sans', verdana, arial, sans-serif; font-size: 23px; fill: rgb(42, 63, 95); opacity: 1; font-weight: normal; white-space: pre;">Netload [kW]</text></g></g></svg>