<svg class="main-svg" xmlns="http://www.w3.org/2000/svg" xmlns:xlink="http://www.w3.org/1999/xlink" width="1000" height="300" viewBox="0 0 1000 300"><rect x="0" y="0" width="1000" height="300" style="fill: rgb(255, 255, 255); fill-opacity: 1;"/><defs id="defs-e22338"><g class="clips"><clipPath id="clipe22338xyplot" class="plotclip"><rect width="875" height="160"/></clipPath><clipPath class="axesclip" id="clipe22338x"><rect x="75" y="0" width="875" height="300"/></clipPath><clipPath class="axesclip" id="clipe22338y"><rect x="0" y="50" width="1000" height="160"/></clipPath><clipPath class="axesclip" id="clipe22338xy"><rect x="75" y="50" width="875" height="160"/></clipPath></g><g class="gradients"/><g class="patterns"/></defs><g class="bglayer"/><g class="layer-below"><g class="imagelayer"/><g class="shapelayer"/></g><g class="cartesianlayer"><g class="subplot xy"><g class="layer-subplot"><g class="shapelayer"/><g class="imagelayer"/></g><g class="gridlayer"><g class="x"><path class="xgrid crisp" transform="translate(147.92000000000002,0)" d="M0,50v160" style="stroke: rgb(235, 240, 248); stroke-opacity: 1; stroke-width: 1px;"/><path class="xgrid crisp" transform="translate(293.75,0)" d="M0,50v160" style="stroke: rgb(235, 240, 248); stroke-opacity: 1; stroke-width: 1px;"/><path class="xgrid crisp" transform="translate(439.58,0)" d="M0,50v160" style="stroke: rgb(235, 240, 248); stroke-opacity: 1; stroke-width: 1px;"/><path class="xgrid crisp" transform="translate(585.4200000000001,0)" d="M0,50v160" style="stroke: rgb(235, 240, 248); stroke-opacity: 1; stroke-width: 1px;"/><path class="xgrid crisp" transform="translate(731.25,0)" d="M0,50v160" style="stroke: rgb(235, 240, 248); stroke-opacity: 1; stroke-width: 1px;"/><path class="xgrid crisp" transform="translate(877.08,0)" d="M0,50v160" style="stroke: rgb(235, 240, 248); stroke-opacity: 1; stroke-width: 1px;"/></g><g class="y"><path class="ygrid crisp" transform="translate(0,192.61)" d="M75,0h875" style="stroke: rgb(235, 240, 248); stroke-opacity: 1; stroke-width: 1px;"/><path class="ygrid crisp" transform="translate(0,157.82999999999998)" d="M75,0h875" style="stroke: rgb(235, 240, 248); stroke-opacity: 1; stroke-width: 1px;"/><path class="ygrid crisp" transform="translate(0,88.25999999999999)" d="M75,0h875" style="stroke: rgb(235, 240, 248); stroke-opacity: 1; stroke-width: 1px;"/><path class="ygrid crisp" transform="translate(0,53.48)" d="M75,0h875" style="stroke: rgb(235, 240, 248); stroke-opacity: 1; stroke-width: 1px;"/></g></g><g class="zerolinelayer"><path class="yzl zl crisp" transform="translate(0,123.04)" d="M75,0h875" style="stroke: rgb(0, 0, 0); stroke-opacity: 1; stroke-width: 2px;"/></g><path class="xlines-below"/><path class="ylines-below"/><g class="overlines-below"/><g class="xaxislayer-below"/><g class="yaxislayer-below"/><g class="overaxes-below"/><g class="plot" transform="translate(75,50)" clip-path="url(#clipe22338xyplot)"><g class="scatterlayer mlayer"><g class="trace scatter tracef1a0a1" style="stroke-miterlimit: 2; opacity: 1;"><g class="fills"/><g class="errorbars"/><g class="lines"><path class="js-line" d="M0,85.21L3.04,92.21L6.08,96.98L9.11,98.99L12.15,106.84L15.19,109.97L18.23,117.73L24.31,126.26L27.34,132.17L30.38,129.54L33.42,136.04L36.46,129.84L39.5,118.64L42.53,143.16L45.57,147.14L48.61,149.36L51.65,149.82L54.69,145.57L57.73,143.12L60.76,120.98L63.8,152.36L66.84,155.59L69.88,152.67L72.92,143.82L75.95,142.58L78.99,150.96L82.03,147.11L85.07,140.84L88.11,143.37L91.15,115.85L94.18,128.15L97.22,129.15L100.26,118.82L103.3,110.18L106.34,106.38L109.38,99.38L112.41,89.85L115.45,92.02L118.49,82.82L124.57,61.87L127.6,55.13L130.64,61.56L133.68,58.14L136.72,57.45L139.76,62.74L142.8,66.08L145.83,57.79L148.87,49.61L151.91,56.4L154.95,63.68L157.99,57.16L161.02,57.87L164.06,49.9L167.1,31.6L170.14,43.63L173.18,48.43L176.22,50.17L179.25,67.42L182.29,67.06L185.33,70.01L188.37,65.47L191.41,51.88L194.44,61.42L197.48,38.53L200.52,57.98L203.56,65.42L206.6,67.34L209.64,65.05L212.67,60.98L215.71,65.49L218.75,62.8L221.79,61.03L224.83,64.19L227.86,60.82L230.9,65.21L233.94,71.36L236.98,71.62L240.02,71.76L243.06,69.7L246.09,62.86L249.13,63.48L252.17,67.49L255.21,62.34L258.25,62.18L261.28,64.35L267.36,70.81L270.4,72.14L273.44,67.89L276.48,68.26L279.51,65.28L282.55,65.43L285.59,68.24L288.63,74.8L291.67,73.55L294.7,79.97L297.74,89.19L300.78,90.45L303.82,99.49L306.86,99.03L309.9,108.66L312.93,111.69L315.97,119.61L319.01,124.25L322.05,130.13L325.09,120.17L328.13,128.31L331.16,129.66L337.24,138.74L340.28,148.37L343.32,137.43L346.35,123.37L352.43,106.47L355.47,113.07L358.51,114L361.55,148.25L364.58,145.66L367.62,145.58L370.66,135.74L373.7,122.06L376.74,121.12L379.77,129.36L382.81,128.55L385.85,125.88L388.89,123.07L391.93,111.3L394.97,108.08L398,114.63L401.04,115.77L404.08,110.77L407.12,96.71L410.16,91.96L413.19,77.46L416.23,75.25L419.27,72.6L422.31,51.85L425.35,53.49L428.39,61.14L431.42,63.14L434.46,74.71L437.5,57.83L440.54,47.83L443.58,52.63L446.61,54.65L449.65,63.67L452.69,55.15L458.77,47.9L461.81,47.62L464.84,60.78L467.88,37.85L473.96,66.93L477,62.61L483.07,47.56L486.11,62.56L489.15,56.5L492.19,47.06L495.23,52.63L498.26,60.2L501.3,43.8L504.34,59.03L507.38,67.39L510.42,56.24L513.45,58.33L516.49,58.19L519.53,65.32L522.57,67.58L525.61,64.62L528.65,56.76L531.68,65.94L534.72,68.85L537.76,67.61L540.8,69.91L543.84,66.06L546.88,67.24L552.95,70.17L555.99,67.3L559.03,65.96L562.07,72.37L565.1,68.46L568.14,66.57L571.18,73.66L574.22,76.52L577.26,70.38L580.3,77.98L583.33,80.66L586.37,88.94L589.41,95.02L592.45,95.79L595.49,105.34L598.52,107.35L601.56,107.63L604.6,116.92L607.64,115.88L610.68,126L613.72,129.47L616.75,128.27L619.79,131.29L622.83,117.27L625.87,119.62L628.91,123.3L631.94,139.45L634.98,143.4L638.02,133.57L641.06,145.71L644.1,118.83L647.14,117.93L650.17,121.32L653.21,102.17L656.25,45.27L659.29,79.42L662.33,118.67L665.36,119.72L668.4,127.79L671.44,113.12L674.48,109.22L677.52,116.16L680.56,122.51L683.59,121.82L686.63,119.49L689.67,119.18L692.71,118.01L695.75,114.71L698.78,106.91L701.82,101.18L704.86,82.43L707.9,71.08L710.94,71.93L713.98,53.96L717.01,56.6L720.05,74.47L723.09,35.73L726.13,51.67L729.17,54.59L732.2,58.64L735.24,57.33L738.28,62.59L741.32,69.41L744.36,64.89L747.4,70.49L750.43,56.31L753.47,21.9L756.51,13.62L759.55,-3.89L762.59,27.02L765.63,50.45L768.66,19.21L771.7,3.11L774.74,24.8L777.78,42.98L780.82,47.02L783.85,37.51L786.89,44.79L789.93,62.97L792.97,58.97L796.01,55.92L799.05,63.19L805.12,44.05L808.16,52.22L811.2,55.13L814.24,67.55L817.27,56.35L820.31,69.46L823.35,56.73L826.39,63.53L829.43,60.18L832.47,65.09L835.5,63.66L838.54,46.68L841.58,65.26L844.62,67.57L847.66,68.45L850.69,66.9L853.73,68.87L856.77,73.08L859.81,70.92L862.85,70.14L868.92,74.25L871.96,77.28L875,82.5" style="vector-effect: non-scaling-stroke; fill: none; stroke: rgb(76, 120, 168); stroke-opacity: 1; stroke-width: 3px; opacity: 1;"/></g><g class="points"/><g class="text"/></g><g class="trace scatter trace073038" style="stroke-miterlimit: 2; opacity: 1;"><g class="fills"/><g class="errorbars"/><g class="lines"><path class="js-line" d="M0,82.59L6.08,92.99L9.11,98.35L12.15,102.11L15.19,107.45L18.23,111.36L21.27,116.94L30.38,129.12L33.42,129.76L36.46,133.08L39.5,131.48L42.53,125.74L45.57,135.43L48.61,141.35L51.65,143.28L54.69,143.63L57.73,141.4L60.76,140.61L63.8,129.6L66.84,138.61L69.88,144.52L72.92,144.18L75.95,138.6L78.99,135.31L82.03,139.05L85.07,137.84L88.11,131.4L91.15,129.98L94.18,117.75L97.22,118.39L100.26,117.29L109.38,95.57L112.41,90.64L115.45,84.23L118.49,80.95L130.64,56.37L133.68,57.76L139.76,55.85L142.8,58.08L145.83,60.5L148.87,57.15L151.91,51.31L154.95,52.1L157.99,56.28L161.02,54.45L164.06,52.96L167.1,49.08L170.14,40.15L173.18,42.77L176.22,45.86L179.25,47.5L182.29,56.03L185.33,58.52L188.37,60.88L191.41,59.84L194.44,52.38L197.48,55.01L200.52,46.71L203.56,52.38L206.6,59.53L209.64,62.59L212.67,63L215.71,60.94L218.75,62.9L221.79,63.15L224.83,61.33L227.86,62.16L230.9,61.85L233.94,63.94L236.98,67.43L240.02,68.31L243.06,68.59L246.09,67.61L249.13,64.13L252.17,63.54L255.21,65.27L258.25,63.56L261.28,63.06L264.32,64.21L267.36,66.3L270.4,69.33L273.44,70.75L276.48,69.45L285.59,70.65L288.63,73.08L291.67,77.54L294.7,80.33L297.74,85.26L300.78,92.27L303.82,96.19L306.86,102.08L309.9,104.38L312.93,110.11L325.09,127.75L328.13,125.1L340.28,135.41L343.32,140.26L346.35,137.29L349.39,129.7L355.47,117.51L358.51,118.85L361.55,119.38L364.58,134.49L367.62,138.53L370.66,137.8L373.7,132.18L376.74,123.24L379.77,119.44L382.81,120.99L388.89,118.29L391.93,115.61L394.97,108.73L398,104.35L401.04,104.65L404.08,103.97L407.12,100.53L410.16,91.82L413.19,85.99L416.23,77.45L422.31,68.31L425.35,56.64L428.39,54.38L431.42,57.81L434.46,59.61L437.5,64.69L443.58,50.23L446.61,50.88L449.65,51.47L452.69,55.24L458.77,48.63L461.81,47.38L464.84,46.88L467.88,52.13L470.92,43.28L473.96,46.69L477,55.89L480.03,56.92L483.07,53.2L486.11,48.03L489.15,54.44L492.19,55.7L495.23,50.24L498.26,50.92L501.3,56.62L504.34,52.05L510.42,61.98L513.45,59.45L516.49,59.51L519.53,58.8L525.61,65.53L528.65,63.58L531.68,59.39L534.72,63.16L537.76,65.98L540.8,65.68L543.84,66.23L546.88,64.82L555.99,67.17L559.03,66.32L562.07,66.06L565.1,69.4L568.14,69.4L571.18,68.51L577.26,76.25L580.3,75.54L586.37,83.12L589.41,89.82L592.45,95.84L595.49,98.4L598.52,104.58L601.56,108.69L604.6,110.31L607.64,115.64L610.68,117.27L613.72,122.75L616.75,126.76L619.79,127.38L622.83,128.22L625.87,121.76L628.91,120.06L631.94,121.6L634.98,129.7L638.02,134.53L641.06,131.1L644.1,135.61L647.14,125.28L650.17,120.37L653.21,120.53L656.25,111.59L659.29,82.76L662.33,88.37L665.36,110.68L668.4,118.35L671.44,120.31L674.48,111.67L677.52,108.98L680.56,112.14L683.59,111.17L686.63,108.65L695.75,105.11L698.78,101.93L704.86,89.96L707.9,79.36L710.94,69.93L713.98,66.77L717.01,57.05L720.05,55.4L723.09,63.36L726.13,48.39L729.17,49.63L732.2,52.1L735.24,53.94L738.28,54.04L741.32,53.96L744.36,57.67L750.43,58.67L753.47,51.94L756.51,34.49L759.55,25.38L762.59,15.76L765.63,27.48L768.66,43.25L771.7,32.81L774.74,21.78L777.78,29.85L780.82,42.37L783.85,47.38L786.89,41.51L789.93,43.4L792.97,56.35L796.01,58.54L799.05,54.95L802.08,57.18L805.12,55.63L808.16,51.18L814.24,54.78L817.27,62.04L820.31,59.08L823.35,62.84L826.39,59.69L829.43,61.13L832.47,60.02L835.5,61.21L838.54,61.72L841.58,54.11L847.66,64.31L850.69,65.57L853.73,65.31L856.77,66.15L859.81,69.78L862.85,70.45L865.89,70.04L868.92,71.72L875,77.9" style="vector-effect: non-scaling-stroke; fill: none; stroke: rgb(255, 127, 14); stroke-opacity: 0.7; stroke-width: 3px; opacity: 1;"/></g><g class="points"/><g class="text"/></g></g></g><g class="overplot"/><path class="xlines-above crisp" d="M0,0" style="fill: none;"/><path class="ylines-above crisp" d="M74,50V210" style="fill: none; stroke-width: 2px; stroke: rgb(0, 0, 0); stroke-opacity: 1;"/><g class="overlines-above"/><g class="xaxislayer-above"><g class="xtick"><text text-anchor="middle" x="0" y="230" transform="translate(147.92000000000002,0)" style="font-family: 'Open Sans', verdana, arial, sans-serif; font-size: 19px; fill: rgb(42, 63, 95); fill-opacity: 1; white-space: pre; opacity: 1;"><tspan class="line" dy="0em" x="0" y="230">12:00</tspan><tspan class="line" dy="1.3em" x="0" y="230">May 30, 2019</tspan></text></g><g class="xtick"><text text-anchor="middle" x="0" y="230" style="font-family: 'Open Sans', verdana, arial, sans-serif; font-size: 19px; fill: rgb(42, 63, 95); fill-opacity: 1; white-space: pre; opacity: 1;" transform="translate(293.75,0)"><tspan class="line" dy="0em" x="0" y="230">00:00</tspan><tspan class="line" dy="1.3em" x="0" y="230">May 31, 2019</tspan></text></g><g class="xtick"><text text-anchor="middle" x="0" y="230" style="font-family: 'Open Sans', verdana, arial, sans-serif; font-size: 19px; fill: rgb(42, 63, 95); fill-opacity: 1; white-space: pre; opacity: 1;" transform="translate(439.58,0)">12:00</text></g><g class="xtick"><text text-anchor="middle" x="0" y="230" style="font-family: 'Open Sans', verdana, arial, sans-serif; font-size: 19px; fill: rgb(42, 63, 95); fill-opacity: 1; white-space: pre; opacity: 1;" transform="translate(585.4200000000001,0)"><tspan class="line" dy="0em" x="0" y="230">00:00</tspan><tspan class="line" dy="1.3em" x="0" y="230">Jun 1, 2019</tspan></text></g><g class="xtick"><text text-anchor="middle" x="0" y="230" style="font-family: 'Open Sans', verdana, arial, sans-serif; font-size: 19px; fill: rgb(42, 63, 95); fill-opacity: 1; white-space: pre; opacity: 1;" transform="translate(731.25,0)">12:00</text></g><g class="xtick"><text text-anchor="middle" x="0" y="230" style="font-family: 'Open Sans', verdana, arial, sans-serif; font-size: 19px; fill: rgb(42, 63, 95); fill-opacity: 1; white-space: pre; opacity: 1;" transform="translate(877.08,0)"><tspan class="line" dy="0em" x="0" y="230">00:00</tspan><tspan class="line" dy="1.3em" x="0" y="230">Jun 2, 2019</tspan></text></g></g><g class="yaxislayer-above"><g class="ytick"><text text-anchor="end" x="69.2" y="6.6499999999999995" transform="translate(0,192.61)" style="font-family: 'Open Sans', verdana, arial, sans-serif; font-size: 19px; fill: rgb(42, 63, 95); fill-opacity: 1; white-space: pre; opacity: 1;">−2</text></g><g class="ytick"><text text-anchor="end" x="69.2" y="6.6499999999999995" style="font-family: 'Open Sans', verdana, arial, sans-serif; font-size: 19px; fill: rgb(42, 63, 95); fill-opacity: 1; white-space: pre; opacity: 1;" transform="translate(0,157.82999999999998)">−1</text></g><g class="ytick"><text text-anchor="end" x="69.2" y="6.6499999999999995" style="font-family: 'Open Sans', verdana, arial, sans-serif; font-size: 19px; fill: rgb(42, 63, 95); fill-opacity: 1; white-space: pre; opacity: 1;" transform="translate(0,123.04)">0</text></g><g class="ytick"><text text-anchor="end" x="69.2" y="6.6499999999999995" style="font-family: 'Open Sans', verdana, arial, sans-serif; font-size: 19px; fill: rgb(42, 63, 95); fill-opacity: 1; white-space: pre; opacity: 1;" transform="translate(0,88.25999999999999)">1</text></g><g class="ytick"><text text-anchor="end" x="69.2" y="6.6499999999999995" style="font-family: 'Open Sans', verdana, arial, sans-serif; font-size: 19px; fill: rgb(42, 63, 95); fill-opacity: 1; white-space: pre; opacity: 1;" transform="translate(0,53.48)">2</text></g></g><g class="overaxes-above"/></g></g><g class="polarlayer"/><g class="ternarylayer"/><g class="geolayer"/><g class="funnelarealayer"/><g class="pielayer"/><g class="iciclelayer"/><g class="treemaplayer"/><g class="sunburstlayer"/><g class="glimages"/><defs id="topdefs-e22338"><g class="clips"/></defs><g class="layer-above"><g class="imagelayer"/><g class="shapelayer"/></g><g class="infolayer"><g class="g-gtitle"/><g class="g-xtitle"/><g class="g-ytitle" transform="translate(12.537109375,0)"><text class="ytitle" transform="rotate(-90,10.462500000000006,130)" x="10.462500000000006" y="130" text-anchor="middle" style="font-family: 'Open Sans', verdana, arial, sans-serif; font-size: 23px; fill: rgb(42, 63, 95); opacity: 1; font-weight: normal; white-space: pre;">Netload [kW]</text></g></g></svg>