<svg class="main-svg" xmlns="http://www.w3.org/2000/svg" xmlns:xlink="http://www.w3.org/1999/xlink" width="1000" height="300" viewBox="0 0 1000 300"><rect x="0" y="0" width="1000" height="300" style="fill: rgb(255, 255, 255); fill-opacity: 1;"/><defs id="defs-e446d5"><g class="clips"><clipPath id="clipe446d5xyplot" class="plotclip"><rect width="875" height="160"/></clipPath><clipPath class="axesclip" id="clipe446d5x"><rect x="75" y="0" width="875" height="300"/></clipPath><clipPath class="axesclip" id="clipe446d5y"><rect x="0" y="50" width="1000" height="160"/></clipPath><clipPath class="axesclip" id="clipe446d5xy"><rect x="75" y="50" width="875" height="160"/></clipPath></g><g class="gradients"/><g class="patterns"/></defs><g class="bglayer"/><g class="layer-below"><g class="imagelayer"/><g class="shapelayer"/></g><g class="cartesianlayer"><g class="subplot xy"><g class="layer-subplot"><g class="shapelayer"/><g class="imagelayer"/></g><g class="gridlayer"><g class="x"><path class="xgrid crisp" transform="translate(147.92000000000002,0)" d="M0,50v160" style="stroke: rgb(235, 240, 248); stroke-opacity: 1; stroke-width: 1px;"/><path class="xgrid crisp" transform="translate(293.75,0)" d="M0,50v160" style="stroke: rgb(235, 240, 248); stroke-opacity: 1; stroke-width: 1px;"/><path class="xgrid crisp" transform="translate(439.58,0)" d="M0,50v160" style="stroke: rgb(235, 240, 248); stroke-opacity: 1; stroke-width: 1px;"/><path class="xgrid crisp" transform="translate(585.4200000000001,0)" d="M0,50v160" style="stroke: rgb(235, 240, 248); stroke-opacity: 1; stroke-width: 1px;"/><path class="xgrid crisp" transform="translate(731.25,0)" d="M0,50v160" style="stroke: rgb(235, 240, 248); stroke-opacity: 1; stroke-width: 1px;"/><path class="xgrid crisp" transform="translate(877.08,0)" d="M0,50v160" style="stroke: rgb(235, 240, 248); stroke-opacity: 1; stroke-width: 1px;"/></g><g class="y"><path class="ygrid crisp" transform="translate(0,192.61)" d="M75,0h875" style="stroke: rgb(235, 240, 248); stroke-opacity: 1; stroke-width: 1px;"/><path class="ygrid crisp" transform="translate(0,157.82999999999998)" d="M75,0h875" style="stroke: rgb(235, 240, 248); stroke-opacity: 1; stroke-width: 1px;"/><path class="ygrid crisp" transform="translate(0,88.25999999999999)" d="M75,0h875" style="stroke: rgb(235, 240, 248); stroke-opacity: 1; stroke-width: 1px;"/><path class="ygrid crisp" transform="translate(0,53.48)" d="M75,0h875" style="stroke: rgb(235, 240, 248); stroke-opacity: 1; stroke-width: 1px;"/></g></g><g class="zerolinelayer"><path class="yzl zl crisp" transform="translate(0,123.04)" d="M75,0h875" style="stroke: rgb(0, 0, 0); stroke-opacity: 1; stroke-width: 2px;"/></g><path class="xlines-below"/><path class="ylines-below"/><g class="overlines-below"/><g class="xaxislayer-below"/><g class="yaxislayer-below"/><g class="overaxes-below"/><g class="plot" transform="translate(75,50)" clip-path="url(#clipe446d5xyplot)"><g class="scatterlayer mlayer"><g class="trace scatter tracec45acf" style="stroke-miterlimit: 2; opacity: 1;"><g class="fills"/><g class="errorbars"/><g class="lines"><path class="js-line" d="M0,9.43L3.04,34.03L6.08,40.07L9.11,29.79L12.15,-37.12L15.19,50.66L18.23,55.33L21.27,64.78L24.31,51.43L27.34,54.11L30.38,43.75L33.42,47.61L36.46,48.29L39.5,41.52L42.53,45.7L45.57,64.86L48.61,50.72L51.65,51.83L54.69,39.54L60.76,62.05L63.8,59.91L66.84,62.99L69.88,64.33L72.92,34.53L75.95,56.49L78.99,66.32L82.03,55.51L85.07,54.13L88.11,61.08L91.15,58.41L94.18,63.36L97.22,61.68L100.26,63.6L103.3,67.91L106.34,68.35L109.38,62.63L112.41,62.66L115.45,62.97L118.49,67.39L121.53,70.62L124.57,69.71L127.6,68.57L130.64,65.5L133.68,60.33L136.72,64.17L139.76,59.81L142.8,61.26L145.83,64.75L148.87,54.01L154.95,49.26L157.99,52.92L161.02,52.08L164.06,48.36L167.1,36.37L170.14,53.59L173.18,52.65L176.22,47.64L179.25,49.15L182.29,53.8L185.33,45.51L188.37,55.75L191.41,56.69L194.44,48.34L197.48,42.49L200.52,45.92L203.56,59.37L206.6,64.35L209.64,59.54L212.67,60.55L215.71,54.23L218.75,58.19L221.79,63.31L224.83,64.37L227.86,60.82L230.9,63.74L233.94,48.64L236.98,65.7L249.13,67.43L252.17,64.11L255.21,65.05L258.25,67.22L261.28,67.53L264.32,62.97L267.36,61.98L270.4,68.5L273.44,68.35L276.48,71.37L279.51,67.72L282.55,67.22L285.59,64.79L288.63,64.26L291.67,42.33L294.7,43.57L297.74,55.75L300.78,57.52L303.82,64.84L306.86,61.66L309.9,54.64L312.93,50.81L315.97,58.28L319.01,63.06L322.05,52.58L325.09,58.64L328.13,58.87L331.16,55.86L334.2,44.72L337.24,48.96L343.32,50.89L346.35,33.71L349.39,45.42L352.43,62.34L355.47,63.8L358.51,55.09L361.55,57.26L364.58,51.83L367.62,67.92L370.66,56.68L376.74,42.84L379.77,47.22L382.81,52.26L385.85,51.17L388.89,54.97L391.93,56.35L398,63.86L401.04,65.34L404.08,52.93L407.12,50.54L413.19,61.55L416.23,64.75L419.27,68.48L422.31,68.13L425.35,67.97L428.39,58.49L434.46,71.02L437.5,65.25L440.54,56.17L443.58,53.47L446.61,48.06L449.65,47.62L452.69,57.57L455.73,61.84L458.77,64.47L461.81,50.31L464.84,38.43L467.88,30.52L470.92,23.51L473.96,40.82L477,42.59L480.03,34.88L483.07,-19.52L486.11,-19.78L489.15,32.74L492.19,31.81L495.23,-13.92L498.26,10.81L501.3,51.2L504.34,55.57L507.38,60.86L510.42,61.89L513.45,58.68L516.49,60.46L519.53,65.08L522.57,62.35L525.61,68.8L528.65,67.94L531.68,70.36L534.72,65.67L540.8,70.41L543.84,67.11L549.91,59.29L552.95,58.35L555.99,64.86L559.03,60.73L562.07,61.78L565.1,66.83L568.14,62.25L571.18,60.95L574.22,59.81L577.26,66.75L580.3,66.65L583.33,61.19L586.37,53.68L589.41,49.1L592.45,56.64L595.49,48.36L598.52,-31.11L601.56,30.42L604.6,51.24L607.64,62.95L610.68,61.59L613.72,55.85L616.75,52.29L619.79,54.15L622.83,45.38L625.87,50.98L628.91,10.22L631.94,19.77L634.98,7.56L638.02,37.24L641.06,22.02L644.1,49.87L647.14,46.86L650.17,59.22L653.21,57.95L656.25,43.92L659.29,26.25L662.33,30.76L668.4,59.11L671.44,45.94L674.48,48.13L677.52,43.5L680.56,49.48L683.59,58.45L686.63,52.02L689.67,62.01L692.71,64.7L695.75,64.53L698.78,63.52L701.82,63.76L704.86,63.34L707.9,64.6L710.94,69.84L713.98,69.26L720.05,57.25L723.09,56.48L726.13,63.91L729.17,62.07L732.2,51.76L735.24,49.43L738.28,51.04L741.32,51.53L744.36,60.22L747.4,62.36L750.43,41.5L753.47,44.01L756.51,45.19L759.55,51.31L762.59,53.15L765.63,36.34L768.66,34.47L771.7,34.96L774.74,40.17L777.78,48.09L780.82,44.49L783.85,44.87L786.89,43.88L789.93,57.62L792.97,70.37L796.01,67.36L799.05,61.77L802.08,60.84L805.12,64.17L808.16,62.04L811.2,63.36L814.24,67.37L817.27,70.34L820.31,70.17L823.35,68.37L826.39,62.46L829.43,67.9L832.47,63.44L835.5,59.75L838.54,57.62L841.58,52.92L844.62,54.88L847.66,46.96L850.69,60.94L853.73,63.28L856.77,62.31L859.81,51.84L862.85,60.4L865.89,53.27L868.92,60.56L871.96,67.12L875,60.37" style="vector-effect: non-scaling-stroke; fill: none; stroke: rgb(76, 120, 168); stroke-opacity: 1; stroke-width: 3px; opacity: 1;"/></g><g class="points"/><g class="text"/></g><g class="trace scatter trace62941e" style="stroke-miterlimit: 2; opacity: 1;"><g class="fills"/><g class="errorbars"/><g class="lines"><path class="js-line" d="M0,53.84L3.04,35.15L6.08,46.51L9.11,48.3L12.15,40.62L15.19,7.67L18.23,50.62L21.27,52.41L24.31,53.16L27.34,43.07L30.38,51.04L33.42,48.64L36.46,51.34L39.5,47.31L42.53,47.45L45.57,49.87L48.61,59.55L51.65,52.12L54.69,52.42L57.73,47.11L60.76,53.45L63.8,57.48L66.84,55.21L69.88,55.8L72.92,58.22L75.95,44.58L78.99,55.06L82.03,59.04L85.07,53.26L88.11,52.1L91.15,57.18L94.18,56.83L97.22,59.16L100.26,57.39L103.3,59.85L106.34,63.13L109.38,63.65L112.41,61.16L115.45,62.14L118.49,62.74L121.53,64.92L124.57,65.75L127.6,64.96L130.64,64.36L133.68,62.95L136.72,59.91L139.76,60.87L142.8,57.82L145.83,57.46L148.87,58.21L151.91,52.55L157.99,49.3L161.02,50.28L164.06,49.06L167.1,46.79L170.14,41.41L173.18,50.31L176.22,49.62L179.25,46.97L182.29,47.95L185.33,52.06L188.37,48.91L191.41,54.12L194.44,54.71L197.48,52.23L200.52,50.23L203.56,52.91L206.6,59.42L209.64,61.39L212.67,58.49L215.71,60.18L218.75,58.76L221.79,60.74L224.83,62.51L227.86,62.71L230.9,61.3L233.94,63.45L236.98,56.75L240.02,64.89L246.09,64.63L249.13,64.71L252.17,65.85L255.21,64.38L261.28,65.31L264.32,65.79L267.36,63.41L270.4,62.85L273.44,65.73L276.48,65.07L279.51,65.43L282.55,63.26L285.59,63.03L288.63,61.61L291.67,60.77L294.7,49.79L297.74,50.32L300.78,55.51L303.82,55.25L306.86,56.71L309.9,55.33L312.93,52.93L315.97,52.06L319.01,55.24L322.05,57.01L325.09,52.24L328.13,55.44L331.16,56.84L334.2,55.7L337.24,50.01L340.28,52.27L343.32,53.08L346.35,53.14L349.39,43.94L352.43,49.76L355.47,57.52L358.51,57.11L361.55,51.34L364.58,53.51L367.62,52.28L370.66,59.79L373.7,53L376.74,49.98L379.77,48.15L382.81,51.53L385.85,52.91L388.89,51.97L391.93,53.39L401.04,59.81L404.08,60.72L407.12,55.6L410.16,55.51L416.23,60.83L419.27,61.1L422.31,62.37L425.35,62.39L428.39,62.4L431.42,57.19L437.5,61.68L440.54,58.05L443.58,52.88L446.61,51.93L449.65,49.39L452.69,48.37L455.73,51.55L458.77,53.06L461.81,54.28L464.84,48.16L467.88,43.75L470.92,41.3L473.96,38.46L477,45.8L480.03,46.39L483.07,42.82L486.11,18.94L489.15,21.02L492.19,45.67L495.23,42.39L498.26,17.02L501.3,31.29L504.34,54.06L507.38,54.67L510.42,52.05L513.45,54.21L516.49,58.26L519.53,60.82L522.57,61.15L525.61,60.2L528.65,64.99L531.68,65.27L534.72,66.91L537.76,64.98L543.84,67.64L546.88,66.34L552.95,62.83L555.99,62.41L559.03,65.06L562.07,62.15L565.1,61.95L568.14,64.14L571.18,61.7L574.22,60.24L577.26,59.2L580.3,61.93L583.33,61.28L586.37,57.88L589.41,54.14L592.45,52.55L595.49,55.57L598.52,50.82L601.56,13.4L604.6,43.01L607.64,52.76L610.68,54.32L613.72,49.74L616.75,51.23L619.79,52.76L622.83,55.49L625.87,47.39L628.91,51.67L631.94,34.11L634.98,39.53L638.02,33.68L641.06,46L644.1,35.76L647.14,48.35L650.17,46.23L653.21,53.52L656.25,50.82L659.29,46.04L662.33,37.68L665.36,42.2L671.44,53.68L674.48,46.31L677.52,48.83L680.56,48.8L686.63,55.28L689.67,52.46L692.71,57.89L695.75,61.02L707.9,61.65L710.94,62.49L713.98,64.14L717.01,63.66L723.09,57.25L726.13,56.53L729.17,59.01L732.2,56.64L735.24,50.65L738.28,49.5L741.32,50.38L744.36,49.63L747.4,52.31L750.43,52.8L753.47,43.72L756.51,45.88L759.55,47.23L762.59,49.94L765.63,50.08L768.66,42.99L771.7,43.8L774.74,45.81L777.78,47.67L780.82,50.66L783.85,49.24L786.89,50.4L789.93,51.35L792.97,57.81L796.01,63.4L799.05,61.86L802.08,59.92L805.12,61.47L808.16,63.9L811.2,62.63L814.24,62.63L817.27,64.95L820.31,67.13L823.35,66.96L826.39,66.11L829.43,63.74L832.47,66.79L835.5,64.62L838.54,62.63L841.58,61.61L844.62,59.76L847.66,60.25L850.69,56.01L853.73,61.55L856.77,62.09L859.81,60.79L862.85,55.24L865.89,59.68L868.92,55.82L871.96,58.39L875,59.91" style="vector-effect: non-scaling-stroke; fill: none; stroke: rgb(255, 127, 14); stroke-opacity: 0.7; stroke-width: 3px; opacity: 1;"/></g><g class="points"/><g class="text"/></g></g></g><g class="overplot"/><path class="xlines-above crisp" d="M0,0" style="fill: none;"/><path class="ylines-above crisp" d="M74,50V210" style="fill: none; stroke-width: 2px; stroke: rgb(0, 0, 0); stroke-opacity: 1;"/><g class="overlines-above"/><g class="xaxislayer-above"><g class="xtick"><text text-anchor="middle" x="0" y="230" transform="translate(147.92000000000002,0)" style="font-family: 'Open Sans', verdana, arial, sans-serif; font-size: 19px; fill: rgb(42, 63, 95); fill-opacity: 1; white-space: pre; opacity: 1;"><tspan class="line" dy="0em" x="0" y="230">12:00</tspan><tspan class="line" dy="1.3em" x="0" y="230">May 30, 2019</tspan></text></g><g class="xtick"><text text-anchor="middle" x="0" y="230" style="font-family: 'Open Sans', verdana, arial, sans-serif; font-size: 19px; fill: rgb(42, 63, 95); fill-opacity: 1; white-space: pre; opacity: 1;" transform="translate(293.75,0)"><tspan class="line" dy="0em" x="0" y="230">00:00</tspan><tspan class="line" dy="1.3em" x="0" y="230">May 31, 2019</tspan></text></g><g class="xtick"><text text-anchor="middle" x="0" y="230" style="font-family: 'Open Sans', verdana, arial, sans-serif; font-size: 19px; fill: rgb(42, 63, 95); fill-opacity: 1; white-space: pre; opacity: 1;" transform="translate(439.58,0)">12:00</text></g><g class="xtick"><text text-anchor="middle" x="0" y="230" style="font-family: 'Open Sans', verdana, arial, sans-serif; font-size: 19px; fill: rgb(42, 63, 95); fill-opacity: 1; white-space: pre; opacity: 1;" transform="translate(585.4200000000001,0)"><tspan class="line" dy="0em" x="0" y="230">00:00</tspan><tspan class="line" dy="1.3em" x="0" y="230">Jun 1, 2019</tspan></text></g><g class="xtick"><text text-anchor="middle" x="0" y="230" style="font-family: 'Open Sans', verdana, arial, sans-serif; font-size: 19px; fill: rgb(42, 63, 95); fill-opacity: 1; white-space: pre; opacity: 1;" transform="translate(731.25,0)">12:00</text></g><g class="xtick"><text text-anchor="middle" x="0" y="230" style="font-family: 'Open Sans', verdana, arial, sans-serif; font-size: 19px; fill: rgb(42, 63, 95); fill-opacity: 1; white-space: pre; opacity: 1;" transform="translate(877.08,0)"><tspan class="line" dy="0em" x="0" y="230">00:00</tspan><tspan class="line" dy="1.3em" x="0" y="230">Jun 2, 2019</tspan></text></g></g><g class="yaxislayer-above"><g class="ytick"><text text-anchor="end" x="69.2" y="6.6499999999999995" transform="translate(0,192.61)" style="font-family: 'Open Sans', verdana, arial, sans-serif; font-size: 19px; fill: rgb(42, 63, 95); fill-opacity: 1; white-space: pre; opacity: 1;">−2</text></g><g class="ytick"><text text-anchor="end" x="69.2" y="6.6499999999999995" style="font-family: 'Open Sans', verdana, arial, sans-serif; font-size: 19px; fill: rgb(42, 63, 95); fill-opacity: 1; white-space: pre; opacity: 1;" transform="translate(0,157.82999999999998)">−1</text></g><g class="ytick"><text text-anchor="end" x="69.2" y="6.6499999999999995" style="font-family: 'Open Sans', verdana, arial, sans-serif; font-size: 19px; fill: rgb(42, 63, 95); fill-opacity: 1; white-space: pre; opacity: 1;" transform="translate(0,123.04)">0</text></g><g class="ytick"><text text-anchor="end" x="69.2" y="6.6499999999999995" style="font-family: 'Open Sans', verdana, arial, sans-serif; font-size: 19px; fill: rgb(42, 63, 95); fill-opacity: 1; white-space: pre; opacity: 1;" transform="translate(0,88.25999999999999)">1</text></g><g class="ytick"><text text-anchor="end" x="69.2" y="6.6499999999999995" style="font-family: 'Open Sans', verdana, arial, sans-serif; font-size: 19px; fill: rgb(42, 63, 95); fill-opacity: 1; white-space: pre; opacity: 1;" transform="translate(0,53.48)">2</text></g></g><g class="overaxes-above"/></g></g><g class="polarlayer"/><g class="ternarylayer"/><g class="geolayer"/><g class="funnelarealayer"/><g class="pielayer"/><g class="iciclelayer"/><g class="treemaplayer"/><g class="sunburstlayer"/><g class="glimages"/><defs id="topdefs-e446d5"><g class="clips"/></defs><g class="layer-above"><g class="imagelayer"/><g class="shapelayer"/></g><g class="infolayer"><g class="g-gtitle"/><g class="g-xtitle"/><g class="g-ytitle" transform="translate(12.537109375,0)"><text class="ytitle" transform="rotate(-90,10.462500000000006,130)" x="10.462500000000006" y="130" text-anchor="middle" style="font-family: 'Open Sans', verdana, arial, sans-serif; font-size: 23px; fill: rgb(42, 63, 95); opacity: 1; font-weight: normal; white-space: pre;">Netload [kW]</text></g></g></svg>