<svg class="main-svg" xmlns="http://www.w3.org/2000/svg" xmlns:xlink="http://www.w3.org/1999/xlink" width="800" height="600" viewBox="0 0 800 600"><rect x="0" y="0" width="800" height="600" style="fill: rgb(255, 255, 255); fill-opacity: 1;"/><defs id="defs-51ca9a"><g class="clips"><clipPath id="clip51ca9axyplot" class="plotclip"><rect width="679" height="460"/></clipPath><clipPath class="axesclip" id="clip51ca9ax"><rect x="71" y="0" width="679" height="600"/></clipPath><clipPath class="axesclip" id="clip51ca9ay"><rect x="0" y="50" width="800" height="460"/></clipPath><clipPath class="axesclip" id="clip51ca9axy"><rect x="71" y="50" width="679" height="460"/></clipPath></g><g class="gradients"/><g class="patterns"/></defs><g class="bglayer"/><g class="layer-below"><g class="imagelayer"/><g class="shapelayer"/></g><g class="cartesianlayer"><g class="subplot xy"><g class="layer-subplot"><g class="shapelayer"/><g class="imagelayer"/></g><g class="gridlayer"><g class="x"><path class="xgrid crisp" transform="translate(127.58,0)" d="M0,50v460" style="stroke: rgb(235, 240, 248); stroke-opacity: 1; stroke-width: 1px;"/><path class="xgrid crisp" transform="translate(240.75,0)" d="M0,50v460" style="stroke: rgb(235, 240, 248); stroke-opacity: 1; stroke-width: 1px;"/><path class="xgrid crisp" transform="translate(353.92,0)" d="M0,50v460" style="stroke: rgb(235, 240, 248); stroke-opacity: 1; stroke-width: 1px;"/><path class="xgrid crisp" transform="translate(467.08,0)" d="M0,50v460" style="stroke: rgb(235, 240, 248); stroke-opacity: 1; stroke-width: 1px;"/><path class="xgrid crisp" transform="translate(580.25,0)" d="M0,50v460" style="stroke: rgb(235, 240, 248); stroke-opacity: 1; stroke-width: 1px;"/><path class="xgrid crisp" transform="translate(693.42,0)" d="M0,50v460" style="stroke: rgb(235, 240, 248); stroke-opacity: 1; stroke-width: 1px;"/></g><g class="y"><path class="ygrid crisp" transform="translate(0,437.74)" d="M71,0h679" style="stroke: rgb(235, 240, 248); stroke-opacity: 1; stroke-width: 1px;"/><path class="ygrid crisp" transform="translate(0,386.27)" d="M71,0h679" style="stroke: rgb(235, 240, 248); stroke-opacity: 1; stroke-width: 1px;"/><path class="ygrid crisp" transform="translate(0,334.8)" d="M71,0h679" style="stroke: rgb(235, 240, 248); stroke-opacity: 1; stroke-width: 1px;"/><path class="ygrid crisp" transform="translate(0,283.33000000000004)" d="M71,0h679" style="stroke: rgb(235, 240, 248); stroke-opacity: 1; stroke-width: 1px;"/><path class="ygrid crisp" transform="translate(0,231.86)" d="M71,0h679" style="stroke: rgb(235, 240, 248); stroke-opacity: 1; stroke-width: 1px;"/><path class="ygrid crisp" transform="translate(0,180.39)" d="M71,0h679" style="stroke: rgb(235, 240, 248); stroke-opacity: 1; stroke-width: 1px;"/><path class="ygrid crisp" transform="translate(0,128.92000000000002)" d="M71,0h679" style="stroke: rgb(235, 240, 248); stroke-opacity: 1; stroke-width: 1px;"/><path class="ygrid crisp" transform="translate(0,77.45)" d="M71,0h679" style="stroke: rgb(235, 240, 248); stroke-opacity: 1; stroke-width: 1px;"/></g></g><g class="zerolinelayer"><path class="yzl zl crisp" transform="translate(0,489.21)" d="M71,0h679" style="stroke: rgb(0, 0, 0); stroke-opacity: 1; stroke-width: 2px;"/></g><path class="xlines-below"/><path class="ylines-below"/><g class="overlines-below"/><g class="xaxislayer-below"/><g class="yaxislayer-below"/><g class="overaxes-below"/><g class="plot" transform="translate(71,50)" clip-path="url(#clip51ca9axyplot)"><g class="scatterlayer mlayer"><g class="trace scatter tracef04c3d" style="stroke-miterlimit: 2; opacity: 1;"><g class="fills"/><g class="errorbars"/><g class="lines"><path class="js-line" d="M0,437L2.36,435.84L4.72,435.53L7.07,435.1L9.43,432.44L33.01,425.52L35.36,425.39L47.15,423.85L49.51,423.05L68.37,417.13L70.73,416.82L80.16,416L82.52,415.9L103.74,415.18L106.09,415.15L202.76,414.58L205.11,413.74L214.55,410.03L216.9,409.1L221.62,407.4L223.98,407.02L228.69,404.08L231.05,403.85L254.63,401.25L256.98,401.05L268.77,399.38L271.13,398.53L275.84,396.62L278.2,395.31L289.99,389.06L292.35,388.64L301.78,387.31L304.14,387.13L332.43,384.78L334.78,383.45L337.14,382.16L339.5,382.16L372.51,382.16L374.86,379.17L377.22,376.19L379.58,376.19L381.94,376.19L384.3,373.38L398.44,372.95L400.8,372.43L424.38,368.88L426.73,368.16L450.31,360.1L452.67,359.33L455.02,359.07L457.38,357.89L462.1,357.5L464.45,356.73L478.6,354.6L480.96,353.85L490.39,349.96L492.75,348.6L502.18,343.61L504.53,343.07L518.68,341.37L521.04,341.19L554.05,339.34L556.4,339.31L561.12,338.82L563.48,338.82L570.55,337.82L572.91,337.82L612.99,337.1L615.34,335.66L617.7,331.72L620.06,330.38L624.77,327.45L627.13,325.85L634.2,323.12L636.56,322.79L648.35,318.8L650.71,317.31L662.5,311.46L664.85,310.8L671.93,307.35L674.28,306.63L676.64,306.03L679,304.57" style="vector-effect: non-scaling-stroke; fill: none; stroke: rgb(76, 120, 168); stroke-opacity: 1; stroke-width: 3px; opacity: 1;"/></g><g class="points"/><g class="text"/></g><g class="trace scatter trace34f9a8" style="stroke-miterlimit: 2; opacity: 1;"><g class="fills"/><g class="errorbars"/><g class="lines"><path class="js-line" d="M0,437L4.72,435.53L7.07,435.1L9.43,432.14L11.79,431.8L77.8,425.63L80.16,425.55L99.02,423.95L101.38,423.13L113.17,416.93L115.52,415L122.6,408.82L124.95,405.73L127.31,402.54L129.67,397.24L141.46,379.51L143.82,375.83L150.89,366.25L153.25,361.39L157.96,354.08L160.32,352.74L165.03,349.53L167.39,346.59L174.47,342.37L176.82,340.75L179.18,339.49L181.54,336.79L195.68,328.5L198.04,326.73L209.83,318.62L212.19,317.36L216.9,315.07L219.26,313.73L223.98,312.85L226.33,310.92L231.05,309.33L233.41,309.17L294.7,303.25L297.06,303.02L325.35,299.47L327.71,298.44L332.43,294.56L334.78,288.74L339.5,280.58L341.86,277.49L372.51,233.38L374.86,228.08L384.3,211.48L386.65,208.24L396.08,199.03L398.44,197.36L407.87,191.31L410.23,190.15L419.66,185.57L422.02,183.66L440.88,173.88L443.24,172.96L466.81,167.01L469.17,166.83L495.1,164.03L497.46,163.67L546.97,159.86L549.33,157.03L554.05,155.56L556.4,152.73L561.12,146.53L563.48,144.62L568.19,133.45L570.55,130.7L584.69,115.31L587.05,111.66L596.48,93.51L598.84,86.75L605.91,75.94L608.27,72.93L612.99,67.93L615.34,65.36L620.06,57.95L622.42,55.99L629.49,48.81L631.85,47.68L653.07,35.84L655.42,34.27L662.5,30.69L664.85,29.85L674.28,25.19L676.64,24.47L679,23" style="vector-effect: non-scaling-stroke; fill: none; stroke: rgb(245, 133, 24); stroke-opacity: 1; stroke-width: 5px; opacity: 1;"/></g><g class="points"/><g class="text"/></g><g class="trace scatter traceaeb904" style="stroke-miterlimit: 2; opacity: 1;"><g class="fills"/><g class="errorbars"/><g class="lines"><path class="js-line" d="M0,436.56L7.07,431.29L9.43,426.53L14.15,423.77L16.5,423.36L25.93,418.45L28.29,417.16L33.01,414.35L35.36,413.89L96.66,409.31L99.02,409.26L110.81,406.71L113.17,405.22L122.6,401.72L124.95,400.02L127.31,398.32L129.67,395.49L136.74,389.8L139.1,388.26L141.46,387.28L143.82,385.4L150.89,382.52L153.25,381.36L157.96,379.71L160.32,379.38L179.18,374.77L181.54,372.69L200.4,367.9L202.76,366.38L221.62,359.1L223.98,358.69L231.05,354.57L233.41,353.93L240.48,350.81L242.84,349.27L264.06,339.98L266.41,339.64L275.84,338.69L278.2,338.56L299.42,336.71L301.78,336.48L320.64,334.34L323,333.88L330.07,332.34L332.43,330.71L337.14,326.34L339.5,324.36L344.22,321.81L346.57,319.55L351.29,315.79L353.65,314.58L356,313.37L358.36,311.05L363.08,307.58L365.43,304.8L372.51,300.04L374.86,296.82L377.22,293.5L379.58,291.73L381.94,289.77L384.3,286.22L386.65,283.98L389.01,283.1L396.08,281.02L398.44,280.38L407.87,278.91L410.23,278.68L422.02,276.95L424.38,276.31L438.52,271.37L440.88,270.37L455.02,265.4L457.38,263.39L462.1,261.56L464.45,257.96L469.17,255.39L471.53,254.72L476.24,252.87L478.6,252.15L485.67,249.57L488.03,247.51L490.39,245.63L492.75,245.17L525.75,242.13L528.11,241.95L556.4,240.13L558.76,238.79L563.48,237.73L565.83,235.16L572.91,231.66L575.26,230.68L582.34,228.19L584.69,227.05L594.13,222.06L596.48,220.47L598.84,216.89L601.2,215.42L603.56,214.11L605.91,211.56L610.63,206.49L612.99,205.05L615.34,202.89L617.7,198.72L629.49,189.04L631.85,188.3L650.71,180.58L653.07,179.21L660.14,174.97L662.5,174.06L667.21,171.72L669.57,170.33L679,165.93" style="vector-effect: non-scaling-stroke; fill: none; stroke: rgb(228, 87, 86); stroke-opacity: 1; stroke-width: 3px; opacity: 1;"/></g><g class="points"/><g class="text"/></g></g></g><g class="overplot"/><path class="xlines-above crisp" d="M0,0" style="fill: none;"/><path class="ylines-above crisp" d="M70,50V510" style="fill: none; stroke-width: 2px; stroke: rgb(0, 0, 0); stroke-opacity: 1;"/><g class="overlines-above"/><g class="xaxislayer-above"><g class="xtick"><text text-anchor="middle" x="0" y="530" transform="translate(127.58,0)" style="font-family: 'Open Sans', verdana, arial, sans-serif; font-size: 19px; fill: rgb(42, 63, 95); fill-opacity: 1; white-space: pre; opacity: 1;"><tspan class="line" dy="0em" x="0" y="530">12:00</tspan><tspan class="line" dy="1.3em" x="0" y="530">May 30, 2019</tspan></text></g><g class="xtick"><text text-anchor="middle" x="0" y="530" style="font-family: 'Open Sans', verdana, arial, sans-serif; font-size: 19px; fill: rgb(42, 63, 95); fill-opacity: 1; white-space: pre; opacity: 1;" transform="translate(240.75,0)"><tspan class="line" dy="0em" x="0" y="530">00:00</tspan><tspan class="line" dy="1.3em" x="0" y="530">May 31, 2019</tspan></text></g><g class="xtick"><text text-anchor="middle" x="0" y="530" style="font-family: 'Open Sans', verdana, arial, sans-serif; font-size: 19px; fill: rgb(42, 63, 95); fill-opacity: 1; white-space: pre; opacity: 1;" transform="translate(353.92,0)">12:00</text></g><g class="xtick"><text text-anchor="middle" x="0" y="530" style="font-family: 'Open Sans', verdana, arial, sans-serif; font-size: 19px; fill: rgb(42, 63, 95); fill-opacity: 1; white-space: pre; opacity: 1;" transform="translate(467.08,0)"><tspan class="line" dy="0em" x="0" y="530">00:00</tspan><tspan class="line" dy="1.3em" x="0" y="530">Jun 1, 2019</tspan></text></g><g class="xtick"><text text-anchor="middle" x="0" y="530" style="font-family: 'Open Sans', verdana, arial, sans-serif; font-size: 19px; fill: rgb(42, 63, 95); fill-opacity: 1; white-space: pre; opacity: 1;" transform="translate(580.25,0)">12:00</text></g><g class="xtick"><text text-anchor="middle" x="0" y="530" style="font-family: 'Open Sans', verdana, arial, sans-serif; font-size: 19px; fill: rgb(42, 63, 95); fill-opacity: 1; white-space: pre; opacity: 1;" transform="translate(693.42,0)"><tspan class="line" dy="0em" x="0" y="530">00:00</tspan><tspan class="line" dy="1.3em" x="0" y="530">Jun 2, 2019</tspan></text></g></g><g class="yaxislayer-above"><g class="ytick"><text text-anchor="end" x="65.2" y="6.6499999999999995" transform="translate(0,489.21)" style="font-family: 'Open Sans', verdana, arial, sans-serif; font-size: 19px; fill: rgb(42, 63, 95); fill-opacity: 1; white-space: pre; opacity: 1;">0</text></g><g class="ytick"><text text-anchor="end" x="65.2" y="6.6499999999999995" style="font-family: 'Open Sans', verdana, arial, sans-serif; font-size: 19px; fill: rgb(42, 63, 95); fill-opacity: 1; white-space: pre; opacity: 1;" transform="translate(0,437.74)">2</text></g><g class="ytick"><text text-anchor="end" x="65.2" y="6.6499999999999995" style="font-family: 'Open Sans', verdana, arial, sans-serif; font-size: 19px; fill: rgb(42, 63, 95); fill-opacity: 1; white-space: pre; opacity: 1;" transform="translate(0,386.27)">4</text></g><g class="ytick"><text text-anchor="end" x="65.2" y="6.6499999999999995" style="font-family: 'Open Sans', verdana, arial, sans-serif; font-size: 19px; fill: rgb(42, 63, 95); fill-opacity: 1; white-space: pre; opacity: 1;" transform="translate(0,334.8)">6</text></g><g class="ytick"><text text-anchor="end" x="65.2" y="6.6499999999999995" style="font-family: 'Open Sans', verdana, arial, sans-serif; font-size: 19px; fill: rgb(42, 63, 95); fill-opacity: 1; white-space: pre; opacity: 1;" transform="translate(0,283.33000000000004)">8</text></g><g class="ytick"><text text-anchor="end" x="65.2" y="6.6499999999999995" style="font-family: 'Open Sans', verdana, arial, sans-serif; font-size: 19px; fill: rgb(42, 63, 95); fill-opacity: 1; white-space: pre; opacity: 1;" transform="translate(0,231.86)">10</text></g><g class="ytick"><text text-anchor="end" x="65.2" y="6.6499999999999995" style="font-family: 'Open Sans', verdana, arial, sans-serif; font-size: 19px; fill: rgb(42, 63, 95); fill-opacity: 1; white-space: pre; opacity: 1;" transform="translate(0,180.39)">12</text></g><g class="ytick"><text text-anchor="end" x="65.2" y="6.6499999999999995" style="font-family: 'Open Sans', verdana, arial, sans-serif; font-size: 19px; fill: rgb(42, 63, 95); fill-opacity: 1; white-space: pre; opacity: 1;" transform="translate(0,128.92000000000002)">14</text></g><g class="ytick"><text text-anchor="end" x="65.2" y="6.6499999999999995" style="font-family: 'Open Sans', verdana, arial, sans-serif; font-size: 19px; fill: rgb(42, 63, 95); fill-opacity: 1; white-space: pre; opacity: 1;" transform="translate(0,77.45)">16</text></g></g><g class="overaxes-above"/></g></g><g class="polarlayer"/><g class="ternarylayer"/><g class="geolayer"/><g class="funnelarealayer"/><g class="pielayer"/><g class="iciclelayer"/><g class="treemaplayer"/><g class="sunburstlayer"/><g class="glimages"/><defs id="topdefs-51ca9a"><g class="clips"/><clipPath id="legend51ca9a"><rect width="137" height="123" x="0" y="0"/></clipPath></defs><g class="layer-above"><g class="imagelayer"/><g class="shapelayer"/></g><g class="infolayer"><g class="legend" pointer-events="all" transform="translate(104.95,50)"><rect class="bg" shape-rendering="crispEdges" width="137" height="123" x="0" y="0" style="stroke: rgb(68, 68, 68); stroke-opacity: 1; fill: rgb(255, 255, 255); fill-opacity: 1; stroke-width: 0px;"/><g class="scrollbox" transform="" clip-path="url(#legend51ca9a)"><text class="legendtitletext" text-anchor="start" x="2" y="29.900000000000002" style="font-family: 'Open Sans', verdana, arial, sans-serif; font-size: 23px; fill: rgb(42, 63, 95); fill-opacity: 1; white-space: pre;">variable</text><g class="groups" transform=""><g class="traces" transform="translate(0,48.75)" style="opacity: 1;"><text class="legendtext" text-anchor="start" x="40" y="7.409999999999999" style="font-family: 'Open Sans', verdana, arial, sans-serif; font-size: 19px; fill: rgb(42, 63, 95); fill-opacity: 1; white-space: pre;">perfect</text><g class="layers" style="opacity: 1;"><g class="legendfill"/><g class="legendlines"><path class="js-line" d="M5,0h30" style="fill: none; stroke: rgb(76, 120, 168); stroke-opacity: 1; stroke-width: 3px;"/></g><g class="legendsymbols"><g class="legendpoints"/></g></g><rect class="legendtoggle" x="0" y="-13.85" width="131.140625" height="27.7" style="fill: rgb(0, 0, 0); fill-opacity: 0;"/></g></g><g class="groups" transform=""><g class="traces" transform="translate(0,76.45)" style="opacity: 1;"><text class="legendtext" text-anchor="start" x="40" y="7.409999999999999" style="font-family: 'Open Sans', verdana, arial, sans-serif; font-size: 19px; fill: rgb(42, 63, 95); fill-opacity: 1; white-space: pre;">pv only</text><g class="layers" style="opacity: 1;"><g class="legendfill"/><g class="legendlines"><path class="js-line" d="M5,0h30" style="fill: none; stroke: rgb(245, 133, 24); stroke-opacity: 1; stroke-width: 5px;"/></g><g class="legendsymbols"><g class="legendpoints"/></g></g><rect class="legendtoggle" x="0" y="-13.85" width="131.140625" height="27.7" style="fill: rgb(0, 0, 0); fill-opacity: 0;"/></g></g><g class="groups" transform=""><g class="traces" transform="translate(0,104.14999999999999)" style="opacity: 1;"><text class="legendtext" text-anchor="start" x="40" y="7.409999999999999" style="font-family: 'Open Sans', verdana, arial, sans-serif; font-size: 19px; fill: rgb(42, 63, 95); fill-opacity: 1; white-space: pre;">individuel</text><g class="layers" style="opacity: 1;"><g class="legendfill"/><g class="legendlines"><path class="js-line" d="M5,0h30" style="fill: none; stroke: rgb(228, 87, 86); stroke-opacity: 1; stroke-width: 3px;"/></g><g class="legendsymbols"><g class="legendpoints"/></g></g><rect class="legendtoggle" x="0" y="-13.85" width="131.140625" height="27.7" style="fill: rgb(0, 0, 0); fill-opacity: 0;"/></g></g></g><rect class="scrollbar" rx="20" ry="3" width="0" height="0" x="0" y="0" style="fill: rgb(128, 139, 164); fill-opacity: 1;"/></g><g class="g-gtitle"/><g class="g-xtitle"/><g class="g-ytitle" transform="translate(13.068359375,0)"><text class="ytitle" transform="rotate(-90,9.931250000000006,280)" x="9.931250000000006" y="280" text-anchor="middle" style="font-family: 'Open Sans', verdana, arial, sans-serif; font-size: 23px; fill: rgb(42, 63, 95); opacity: 1; font-weight: normal; white-space: pre;">Community cost [€]</text></g></g></svg>