<svg class="main-svg" xmlns="http://www.w3.org/2000/svg" xmlns:xlink="http://www.w3.org/1999/xlink" width="900" height="400" viewBox="0 0 900 400"><rect x="0" y="0" width="900" height="400" style="fill: rgb(255, 255, 255); fill-opacity: 1;"/><defs id="defs-03caea"><g class="clips"><clipPath id="clip03caeaxyplot" class="plotclip"><rect width="775" height="260"/></clipPath><clipPath class="axesclip" id="clip03caeax"><rect x="75" y="0" width="775" height="400"/></clipPath><clipPath class="axesclip" id="clip03caeay"><rect x="0" y="50" width="900" height="260"/></clipPath><clipPath class="axesclip" id="clip03caeaxy"><rect x="75" y="50" width="775" height="260"/></clipPath></g><g class="gradients"/><g class="patterns"/></defs><g class="bglayer"/><g class="layer-below"><g class="imagelayer"/><g class="shapelayer"/></g><g class="cartesianlayer"><g class="subplot xy"><g class="layer-subplot"><g class="shapelayer"/><g class="imagelayer"/></g><g class="gridlayer"><g class="x"><path class="xgrid crisp" transform="translate(113.75,0)" d="M0,50v260" style="stroke: rgb(235, 240, 248); stroke-opacity: 1; stroke-width: 1px;"/><path class="xgrid crisp" transform="translate(191.25,0)" d="M0,50v260" style="stroke: rgb(235, 240, 248); stroke-opacity: 1; stroke-width: 1px;"/><path class="xgrid crisp" transform="translate(268.75,0)" d="M0,50v260" style="stroke: rgb(235, 240, 248); stroke-opacity: 1; stroke-width: 1px;"/><path class="xgrid crisp" transform="translate(346.25,0)" d="M0,50v260" style="stroke: rgb(235, 240, 248); stroke-opacity: 1; stroke-width: 1px;"/><path class="xgrid crisp" transform="translate(423.75,0)" d="M0,50v260" style="stroke: rgb(235, 240, 248); stroke-opacity: 1; stroke-width: 1px;"/><path class="xgrid crisp" transform="translate(501.25,0)" d="M0,50v260" style="stroke: rgb(235, 240, 248); stroke-opacity: 1; stroke-width: 1px;"/><path class="xgrid crisp" transform="translate(578.75,0)" d="M0,50v260" style="stroke: rgb(235, 240, 248); stroke-opacity: 1; stroke-width: 1px;"/><path class="xgrid crisp" transform="translate(656.25,0)" d="M0,50v260" style="stroke: rgb(235, 240, 248); stroke-opacity: 1; stroke-width: 1px;"/><path class="xgrid crisp" transform="translate(733.75,0)" d="M0,50v260" style="stroke: rgb(235, 240, 248); stroke-opacity: 1; stroke-width: 1px;"/><path class="xgrid crisp" transform="translate(811.25,0)" d="M0,50v260" style="stroke: rgb(235, 240, 248); stroke-opacity: 1; stroke-width: 1px;"/></g><g class="y"><path class="ygrid crisp" transform="translate(0,287.11)" d="M75,0h775" style="stroke: rgb(235, 240, 248); stroke-opacity: 1; stroke-width: 1px;"/><path class="ygrid crisp" transform="translate(0,233.9)" d="M75,0h775" style="stroke: rgb(235, 240, 248); stroke-opacity: 1; stroke-width: 1px;"/><path class="ygrid crisp" transform="translate(0,127.48)" d="M75,0h775" style="stroke: rgb(235, 240, 248); stroke-opacity: 1; stroke-width: 1px;"/><path class="ygrid crisp" transform="translate(0,74.27)" d="M75,0h775" style="stroke: rgb(235, 240, 248); stroke-opacity: 1; stroke-width: 1px;"/></g></g><g class="zerolinelayer"><path class="yzl zl crisp" transform="translate(0,180.69)" d="M75,0h775" style="stroke: rgb(0, 0, 0); stroke-opacity: 1; stroke-width: 2px;"/></g><path class="xlines-below"/><path class="ylines-below"/><g class="overlines-below"/><g class="xaxislayer-below"/><g class="yaxislayer-below"/><g class="overaxes-below"/><g class="plot" transform="translate(75,50)" clip-path="url(#clip03caeaxyplot)"><g class="scatterlayer mlayer"><g class="trace scatter trace75c057" style="stroke-miterlimit: 2; opacity: 1;"><g class="fills"/><g class="errorbars"/><g class="lines"><path class="js-line" d="M0,142.34L3.23,164.31L4.84,165.49L6.46,180.09L8.07,183.18L9.69,183.6L11.3,197.82L12.92,196.22L14.53,211.7L16.15,217.02L17.76,215.18L19.38,219.8L20.99,198.35L22.6,201.94L24.22,207.57L25.83,232.28L27.45,238.33L29.06,223.29L30.68,241.86L32.29,200.74L33.91,199.37L35.52,204.55L37.14,175.25L38.75,88.2L40.36,140.44L41.98,200.49L43.59,202.1L45.21,214.44L46.82,192.01L48.44,186.04L50.05,196.66L51.67,206.36L53.28,205.31L54.9,201.74L56.51,201.27L58.13,199.49L59.74,194.43L62.97,173.73L64.58,145.04L66.2,127.69L67.81,128.99L69.43,101.49L71.04,105.54L72.66,132.87L74.27,73.6L75.89,97.99L77.5,102.45L79.11,108.66L80.73,106.65L83.96,125.13L85.57,118.22L87.19,126.79L88.8,105.09L90.42,52.44L92.03,39.79L93.65,13L95.26,60.29L96.88,96.12L98.49,48.33L100.1,23.7L101.72,56.89L103.33,84.7L104.95,90.88L106.56,76.33L108.18,87.47L109.79,115.27L111.41,109.17L113.02,104.49L114.64,115.62L117.86,86.33L119.48,98.83L121.09,103.29L122.71,122.29L124.32,105.15L125.94,125.21L127.55,105.73L129.17,116.14L130.78,111L132.4,118.52L134.01,116.33L135.63,90.36L137.24,118.78L138.85,122.32L140.47,123.66L142.08,121.29L143.7,124.31L145.31,130.75L146.93,127.43L148.54,126.25L151.77,132.54L153.39,137.18L161.46,173.66L163.07,171.55L164.69,167.05L166.3,185.64L167.92,183.62L169.53,192.21L171.15,195.84L172.76,181.03L175.99,195.12L177.6,185.3L179.22,193.68L180.83,163.34L182.45,187.68L184.06,197.62L187.29,247L188.91,215.06L190.52,131.03L192.14,220.3L193.75,211.5L195.36,227.75L198.59,189.41L200.21,192.36L201.82,165.51L203.44,167.19L205.05,165.78L206.67,158.57L208.28,92.86L209.9,170.46L211.51,175.51L213.13,154.64L214.74,170.15L216.35,141.43L217.97,151.6L219.58,134.1L221.2,149.04L222.81,149.81L224.43,143.71L226.04,128.57L227.66,117.73L229.27,114.85L230.89,124.21L232.5,125.91L234.11,129.61L235.73,126.29L237.34,112.62L238.96,113.67L240.57,111.84L242.19,113.76L243.8,111.47L245.42,89.6L247.03,98.08L248.65,83.67L250.26,119.78L251.88,116.42L253.49,94.82L255.1,108.44L256.72,86.86L258.33,114.77L259.95,90.22L261.56,116.17L263.18,105.17L264.79,114.05L266.41,124.84L268.02,115.67L269.64,114.96L271.25,124.07L272.86,96.3L274.48,116.96L276.09,123.09L277.71,124L279.32,112.01L280.94,112.71L282.55,114.74L284.17,121.09L285.78,120.56L287.4,108.19L289.01,122.73L290.63,116.15L292.24,122.95L293.85,124.72L295.47,128.64L297.08,128.56L300.31,133.06L301.93,132.28L303.54,133.31L305.16,133.09L306.77,141.79L308.39,146.21L310,149.63L311.61,154.87L313.23,149.64L314.84,162.62L316.46,167.34L318.07,180.82L321.3,190.82L322.92,207.39L324.53,203.81L326.15,222.37L327.76,215.89L329.38,222.03L330.99,220.61L332.6,187.29L334.22,207.47L335.83,215.48L337.45,206.91L339.06,216.75L340.68,234.49L342.29,240.42L343.91,225.72L345.52,198.36L347.14,234.56L348.75,226.13L353.59,237.62L355.21,207.85L356.82,217.93L358.44,222.13L360.05,222.25L361.67,199.9L363.28,191.49L364.9,159.57L366.51,177.1L368.13,169.43L372.97,76.05L374.58,68.53L376.2,107.99L377.81,39.75L379.43,101.82L381.04,107.02L382.66,112.75L384.27,127.3L387.5,94.91L389.11,101.9L390.73,111.64L392.34,72.98L393.96,55.18L395.57,54.06L397.19,79.19L398.8,61.93L400.42,66.81L402.03,87.69L403.65,60.99L405.26,78.7L406.88,81.94L408.49,106.92L410.1,118.26L411.72,110.39L413.33,121.04L414.95,80.55L416.56,90.68L418.18,121.28L419.79,123.72L421.41,124.62L424.64,102.21L426.25,116.69L429.48,127.71L431.09,128.53L432.71,124.81L434.32,128.83L435.94,129.65L437.55,128.05L440.78,126.2L442.4,122.71L444.01,129.12L445.63,124.82L447.24,124.5L448.85,105.18L450.47,106.23L452.08,116.97L453.7,115.14L455.31,111.42L456.93,116.54L458.54,118L460.16,110.99L461.77,123.92L463.39,112.05L465,112.95L466.61,109.95L468.23,114.44L471.46,118.65L473.07,117.24L474.69,98.91L476.3,121.41L481.15,132.98L482.76,127.8L484.38,128.48L485.99,125.49L487.6,123.08L489.22,146.86L490.83,125.44L492.45,123.17L494.06,107.93L495.68,116.46L497.29,110.23L498.91,84.01L500.52,96.25L502.14,17.49L503.75,86.21L505.36,113.1L506.98,78.36L508.59,134.94L510.21,118.38L511.82,119.41L513.44,105.1L515.05,129.82L516.67,135.07L518.28,134.17L519.9,137.02L521.51,142.88L523.13,139.98L524.74,115.43L526.35,126.42L527.97,115.08L529.58,112.53L531.2,129.96L532.81,103.56L534.43,112.16L536.04,119.51L537.66,88.5L539.27,114.82L540.89,107.9L542.5,117.96L544.11,102.85L545.73,76.41L547.34,65.79L550.57,93.71L552.19,68.98L553.8,44.38L555.42,90.05L557.03,112.84L558.65,118.94L560.26,125.58L561.88,67.51L563.49,93.78L565.1,95.75L566.72,74.9L568.33,116.7L571.56,67.05L573.18,68.14L574.79,100.44L576.41,101.26L578.02,87.6L579.64,85.11L581.25,113.37L582.86,94.79L584.48,119.15L586.09,121.35L587.71,115.56L589.32,116.42L590.94,115.4L592.55,119.79L594.17,120.45L595.78,127.71L597.4,118.86L599.01,124.74L600.63,124.06L602.24,128.24L603.85,128.65L605.47,126.94L607.08,122.15L608.7,125.34L610.31,120.69L611.93,127.39L613.54,115.29L615.16,119.31L616.77,121.11L618.39,127.28L620,119.35L621.61,77.26L623.23,115.18L624.84,114.98L628.07,162.76L629.69,161.24L632.92,196.25L634.53,193.52L636.15,193.34L637.76,198.65L639.38,213.46L640.99,200.89L642.6,220.23L644.22,223.3L645.83,205.6L647.45,223.86L649.06,221.13L650.68,172.49L652.29,209.05L653.91,183.66L655.52,192.27L657.14,221.15L658.75,229.46L660.36,139.99L663.59,216.7L665.21,194.89L666.82,188.46L668.44,166.2L670.05,177.26L671.67,164.94L673.28,160.22L674.9,163.62L676.51,189.89L678.13,181.12L679.74,171.56L681.35,152.74L682.97,135.8L684.58,152.65L686.2,144.49L687.81,141.55L689.43,115.27L691.04,126.57L692.66,123.83L694.27,134.24L695.89,87.9L697.5,94.45L699.11,15.26L700.73,63.35L702.34,87.14L703.96,98.27L705.57,100.87L707.19,25.24L708.8,105.04L710.42,82.93L712.03,97.26L713.65,77.46L715.26,106.42L716.88,67.42L718.49,81.92L720.1,71.6L721.72,82.93L723.33,58.15L726.56,111.18L728.18,120.79L729.79,120.81L731.41,114.89L734.64,127.88L736.25,128.68L737.86,127.05L739.48,117.44L741.09,121.2L742.71,113.71L744.32,122.38L745.94,106.8L749.17,116.5L750.78,118.95L752.4,105.69L754.01,110.2L757.24,118.96L758.85,113.78L760.47,127.4L762.08,124.32L763.7,126.95L765.31,117.72L766.93,114.27L768.54,123.53L770.16,126.31L771.77,106.24L773.39,129.99L775,136.38" style="vector-effect: non-scaling-stroke; fill: none; stroke: rgb(76, 120, 168); stroke-opacity: 1; stroke-width: 2px; opacity: 1;"/></g><g class="points"/><g class="text"/></g></g></g><g class="overplot"/><path class="xlines-above crisp" d="M0,0" style="fill: none;"/><path class="ylines-above crisp" d="M74,50V310" style="fill: none; stroke-width: 2px; stroke: rgb(0, 0, 0); stroke-opacity: 1;"/><g class="overlines-above"/><g class="xaxislayer-above"><g class="xtick"><text text-anchor="middle" x="0" y="330" transform="translate(113.75,0)" style="font-family: 'Open Sans', verdana, arial, sans-serif; font-size: 19px; fill: rgb(42, 63, 95); fill-opacity: 1; white-space: pre; opacity: 1;"><tspan class="line" dy="0em" x="0" y="330">12:00</tspan><tspan class="line" dy="1.3em" x="0" y="330">Jun 1, 2019</tspan></text></g><g class="xtick"><text text-anchor="middle" x="0" y="330" style="font-family: 'Open Sans', verdana, arial, sans-serif; font-size: 19px; fill: rgb(42, 63, 95); fill-opacity: 1; white-space: pre; opacity: 1;" transform="translate(191.25,0)"><tspan class="line" dy="0em" x="0" y="330">00:00</tspan><tspan class="line" dy="1.3em" x="0" y="330">Jun 2, 2019</tspan></text></g><g class="xtick"><text text-anchor="middle" x="0" y="330" style="font-family: 'Open Sans', verdana, arial, sans-serif; font-size: 19px; fill: rgb(42, 63, 95); fill-opacity: 1; white-space: pre; opacity: 1;" transform="translate(268.75,0)">12:00</text></g><g class="xtick"><text text-anchor="middle" x="0" y="330" style="font-family: 'Open Sans', verdana, arial, sans-serif; font-size: 19px; fill: rgb(42, 63, 95); fill-opacity: 1; white-space: pre; opacity: 1;" transform="translate(346.25,0)"><tspan class="line" dy="0em" x="0" y="330">00:00</tspan><tspan class="line" dy="1.3em" x="0" y="330">Jun 3, 2019</tspan></text></g><g class="xtick"><text text-anchor="middle" x="0" y="330" style="font-family: 'Open Sans', verdana, arial, sans-serif; font-size: 19px; fill: rgb(42, 63, 95); fill-opacity: 1; white-space: pre; opacity: 1;" transform="translate(423.75,0)">12:00</text></g><g class="xtick"><text text-anchor="middle" x="0" y="330" style="font-family: 'Open Sans', verdana, arial, sans-serif; font-size: 19px; fill: rgb(42, 63, 95); fill-opacity: 1; white-space: pre; opacity: 1;" transform="translate(501.25,0)"><tspan class="line" dy="0em" x="0" y="330">00:00</tspan><tspan class="line" dy="1.3em" x="0" y="330">Jun 4, 2019</tspan></text></g><g class="xtick"><text text-anchor="middle" x="0" y="330" style="font-family: 'Open Sans', verdana, arial, sans-serif; font-size: 19px; fill: rgb(42, 63, 95); fill-opacity: 1; white-space: pre; opacity: 1;" transform="translate(578.75,0)">12:00</text></g><g class="xtick"><text text-anchor="middle" x="0" y="330" style="font-family: 'Open Sans', verdana, arial, sans-serif; font-size: 19px; fill: rgb(42, 63, 95); fill-opacity: 1; white-space: pre; opacity: 1;" transform="translate(656.25,0)"><tspan class="line" dy="0em" x="0" y="330">00:00</tspan><tspan class="line" dy="1.3em" x="0" y="330">Jun 5, 2019</tspan></text></g><g class="xtick"><text text-anchor="middle" x="0" y="330" style="font-family: 'Open Sans', verdana, arial, sans-serif; font-size: 19px; fill: rgb(42, 63, 95); fill-opacity: 1; white-space: pre; opacity: 1;" transform="translate(733.75,0)">12:00</text></g><g class="xtick"><text text-anchor="middle" x="0" y="330" style="font-family: 'Open Sans', verdana, arial, sans-serif; font-size: 19px; fill: rgb(42, 63, 95); fill-opacity: 1; white-space: pre; opacity: 1;" transform="translate(811.25,0)"><tspan class="line" dy="0em" x="0" y="330">00:00</tspan><tspan class="line" dy="1.3em" x="0" y="330">Jun 6, 2019</tspan></text></g></g><g class="yaxislayer-above"><g class="ytick"><text text-anchor="end" x="69.2" y="6.6499999999999995" transform="translate(0,287.11)" style="font-family: 'Open Sans', verdana, arial, sans-serif; font-size: 19px; fill: rgb(42, 63, 95); fill-opacity: 1; white-space: pre; opacity: 1;">−2</text></g><g class="ytick"><text text-anchor="end" x="69.2" y="6.6499999999999995" style="font-family: 'Open Sans', verdana, arial, sans-serif; font-size: 19px; fill: rgb(42, 63, 95); fill-opacity: 1; white-space: pre; opacity: 1;" transform="translate(0,233.9)">−1</text></g><g class="ytick"><text text-anchor="end" x="69.2" y="6.6499999999999995" style="font-family: 'Open Sans', verdana, arial, sans-serif; font-size: 19px; fill: rgb(42, 63, 95); fill-opacity: 1; white-space: pre; opacity: 1;" transform="translate(0,180.69)">0</text></g><g class="ytick"><text text-anchor="end" x="69.2" y="6.6499999999999995" style="font-family: 'Open Sans', verdana, arial, sans-serif; font-size: 19px; fill: rgb(42, 63, 95); fill-opacity: 1; white-space: pre; opacity: 1;" transform="translate(0,127.48)">1</text></g><g class="ytick"><text text-anchor="end" x="69.2" y="6.6499999999999995" style="font-family: 'Open Sans', verdana, arial, sans-serif; font-size: 19px; fill: rgb(42, 63, 95); fill-opacity: 1; white-space: pre; opacity: 1;" transform="translate(0,74.27)">2</text></g></g><g class="overaxes-above"/></g></g><g class="polarlayer"/><g class="ternarylayer"/><g class="geolayer"/><g class="funnelarealayer"/><g class="pielayer"/><g class="iciclelayer"/><g class="treemaplayer"/><g class="sunburstlayer"/><g class="glimages"/><defs id="topdefs-03caea"><g class="clips"/></defs><g class="layer-above"><g class="imagelayer"/><g class="shapelayer"/></g><g class="infolayer"><g class="g-gtitle"/><g class="g-xtitle"/><g class="g-ytitle" transform="translate(12.537109375,0)"><text class="ytitle" transform="rotate(-90,10.462500000000006,180)" x="10.462500000000006" y="180" text-anchor="middle" style="font-family: 'Open Sans', verdana, arial, sans-serif; font-size: 23px; fill: rgb(42, 63, 95); opacity: 1; font-weight: normal; white-space: pre;">Netload [kW]</text></g></g></svg>