<svg class="main-svg" xmlns="http://www.w3.org/2000/svg" xmlns:xlink="http://www.w3.org/1999/xlink" width="800" height="510" viewBox="0 0 800 510"><rect x="0" y="0" width="800" height="510" style="fill: rgb(255, 255, 255); fill-opacity: 1;"/><defs id="defs-13565d"><g class="clips"><clipPath id="clip13565dxyplot" class="plotclip"><rect width="679" height="370"/></clipPath><clipPath class="axesclip" id="clip13565dx"><rect x="71" y="0" width="679" height="510"/></clipPath><clipPath class="axesclip" id="clip13565dy"><rect x="0" y="50" width="800" height="370"/></clipPath><clipPath class="axesclip" id="clip13565dxy"><rect x="71" y="50" width="679" height="370"/></clipPath></g><g class="gradients"/><g class="patterns"/></defs><g class="bglayer"/><g class="layer-below"><g class="imagelayer"/><g class="shapelayer"/></g><g class="cartesianlayer"><g class="subplot xy"><g class="layer-subplot"><g class="shapelayer"/><g class="imagelayer"/></g><g class="gridlayer"><g class="x"><path class="xgrid crisp" transform="translate(127.58,0)" d="M0,50v370" style="stroke: rgb(235, 240, 248); stroke-opacity: 1; stroke-width: 1px;"/><path class="xgrid crisp" transform="translate(240.75,0)" d="M0,50v370" style="stroke: rgb(235, 240, 248); stroke-opacity: 1; stroke-width: 1px;"/><path class="xgrid crisp" transform="translate(353.92,0)" d="M0,50v370" style="stroke: rgb(235, 240, 248); stroke-opacity: 1; stroke-width: 1px;"/><path class="xgrid crisp" transform="translate(467.08,0)" d="M0,50v370" style="stroke: rgb(235, 240, 248); stroke-opacity: 1; stroke-width: 1px;"/><path class="xgrid crisp" transform="translate(580.25,0)" d="M0,50v370" style="stroke: rgb(235, 240, 248); stroke-opacity: 1; stroke-width: 1px;"/><path class="xgrid crisp" transform="translate(693.42,0)" d="M0,50v370" style="stroke: rgb(235, 240, 248); stroke-opacity: 1; stroke-width: 1px;"/></g><g class="y"><path class="ygrid crisp" transform="translate(0,361.88)" d="M71,0h679" style="stroke: rgb(235, 240, 248); stroke-opacity: 1; stroke-width: 1px;"/><path class="ygrid crisp" transform="translate(0,320.48)" d="M71,0h679" style="stroke: rgb(235, 240, 248); stroke-opacity: 1; stroke-width: 1px;"/><path class="ygrid crisp" transform="translate(0,279.08000000000004)" d="M71,0h679" style="stroke: rgb(235, 240, 248); stroke-opacity: 1; stroke-width: 1px;"/><path class="ygrid crisp" transform="translate(0,237.68)" d="M71,0h679" style="stroke: rgb(235, 240, 248); stroke-opacity: 1; stroke-width: 1px;"/><path class="ygrid crisp" transform="translate(0,196.28)" d="M71,0h679" style="stroke: rgb(235, 240, 248); stroke-opacity: 1; stroke-width: 1px;"/><path class="ygrid crisp" transform="translate(0,154.88)" d="M71,0h679" style="stroke: rgb(235, 240, 248); stroke-opacity: 1; stroke-width: 1px;"/><path class="ygrid crisp" transform="translate(0,113.47999999999999)" d="M71,0h679" style="stroke: rgb(235, 240, 248); stroke-opacity: 1; stroke-width: 1px;"/><path class="ygrid crisp" transform="translate(0,72.08)" d="M71,0h679" style="stroke: rgb(235, 240, 248); stroke-opacity: 1; stroke-width: 1px;"/></g></g><g class="zerolinelayer"><path class="yzl zl crisp" transform="translate(0,403.28)" d="M71,0h679" style="stroke: rgb(0, 0, 0); stroke-opacity: 1; stroke-width: 2px;"/></g><path class="xlines-below"/><path class="ylines-below"/><g class="overlines-below"/><g class="xaxislayer-below"/><g class="yaxislayer-below"/><g class="overaxes-below"/><g class="plot" transform="translate(71,50)" clip-path="url(#clip13565dxyplot)"><g class="scatterlayer mlayer"><g class="trace scatter tracec1291d" style="stroke-miterlimit: 2; opacity: 1;"><g class="fills"/><g class="errorbars"/><g class="lines"><path class="js-line" d="M0,351.5L7.07,349.43L9.43,346.57L16.5,345.29L18.86,344.59L35.36,341.09L37.72,340.94L44.8,339.62L47.15,339.33L58.94,337.92L61.3,337.34L75.44,333.26L77.8,333.08L127.31,331.44L129.67,330.01L150.89,329.14L153.25,328.13L157.96,327.26L160.32,327.26L165.03,327.16L167.39,326.27L179.18,326L181.54,323.84L186.25,323L188.61,321.94L195.68,318.09L198.04,316.79L200.4,316.39L202.76,315.15L214.55,311.67L216.9,310.68L223.98,310.35L226.33,309.02L233.41,308.36L235.76,308.05L247.55,305.32L249.91,304.04L264.06,300.76L266.41,299.96L273.49,298.72L275.84,298.63L285.27,298.05L287.63,297.14L292.35,296.17L294.7,295.3L301.78,293L304.14,292.75L325.35,290.95L327.71,290.21L332.43,289.4L334.78,286.77L341.86,286.03L344.22,285.98L348.93,285.41L351.29,285.41L360.72,284.72L363.08,284.41L370.15,283.71L372.51,281.89L377.22,278.12L379.58,278.12L381.94,277.54L384.3,275.86L386.65,275.84L389.01,274.21L393.73,271.12L396.08,270.17L407.87,265.86L410.23,265.1L417.3,264L419.66,263.34L424.38,262.06L426.73,261.95L438.52,260.19L440.88,260.13L455.02,259.32L457.38,258.33L462.1,258.02L464.45,257.17L473.89,255.45L476.24,254.89L485.67,252.41L488.03,250.73L504.53,245.85L506.89,245.37L509.25,243.14L511.61,242.04L546.97,238.6L549.33,236.35L554.05,236.26L556.4,235.21L558.76,233.95L561.12,233.78L563.48,233.7L565.83,230.7L568.19,229.66L570.55,229.66L582.34,229.29L584.69,228.56L587.05,228.23L589.41,226.51L594.13,226.22L596.48,225.11L601.2,221.75L603.56,221.69L608.27,221.19L610.63,219.77L612.99,219.7L615.34,217.8L620.06,213.04L622.42,212.11L629.49,207.76L631.85,207.3L636.56,206.17L638.92,205.32L641.28,204.16L643.64,203.97L648.35,202.92L650.71,202.38L655.42,201.16L657.78,200.49L676.64,199.56L679,198.38" style="vector-effect: non-scaling-stroke; fill: none; stroke: rgb(76, 120, 168); stroke-opacity: 1; stroke-width: 3px; opacity: 1;"/></g><g class="points"/><g class="text"/></g><g class="trace scatter trace36fedb" style="stroke-miterlimit: 2; opacity: 1;"><g class="fills"/><g class="errorbars"/><g class="lines"><path class="js-line" d="M0,351.5L18.86,345.39L21.22,344.75L35.36,342.16L37.72,342L51.87,339.64L54.23,339.04L70.73,335.27L73.09,334.96L122.6,333.93L124.95,333.93L205.11,332.79L207.47,331.92L219.26,328.23L221.62,327.7L226.33,326.12L228.69,325.02L271.13,320.55L273.49,319.91L294.7,312.23L297.06,311.92L334.78,308.42L337.14,307.39L372.51,307.39L374.86,304.99L377.22,302.59L379.58,302.59L381.94,302.59L384.3,300.33L403.16,299.32L405.51,298.96L424.38,296.71L426.73,296.13L457.38,287.87L459.74,287.76L478.6,285.22L480.96,284.62L495.1,279.3L497.46,278.08L504.53,275.95L506.89,275.61L539.9,273.44L542.26,273.34L589.41,271.72L591.77,271.72L612.99,271.14L615.34,269.98L620.06,265.74L622.42,264.83L629.49,261.19L631.85,260.63L655.42,253.11L657.78,251.91L679,244.98" style="vector-effect: non-scaling-stroke; fill: none; stroke: rgb(245, 133, 24); stroke-opacity: 1; stroke-width: 5px; opacity: 1;"/></g><g class="points"/><g class="text"/></g><g class="trace scatter trace92ae29" style="stroke-miterlimit: 2; opacity: 1;"><g class="fills"/><g class="errorbars"/><g class="lines"><path class="js-line" d="M0,351.5L7.07,349.97L9.43,347.59L49.51,344.23L51.87,344.09L101.38,340.34L103.74,339.37L113.17,335.35L115.52,333.8L122.6,328.83L124.95,326.35L129.67,319.52L132.03,316.29L136.74,311.07L139.1,308.24L157.96,284.8L160.32,283.73L165.03,281.14L167.39,278.78L176.82,274.08L179.18,273.07L183.9,269.92L186.25,269.13L198.04,262.8L200.4,261.33L209.83,256.28L212.19,255.27L223.98,251.64L226.33,250.09L231.05,248.81L233.41,248.68L304.14,243.22L306.49,243.07L325.35,240.88L327.71,240.05L332.43,236.93L334.78,232.25L341.86,223.2L344.22,220.55L351.29,212.27L353.65,209.77L370.15,191.14L372.51,187.72L379.58,177.27L381.94,174.14L386.65,167.5L389.01,165.51L396.08,160.09L398.44,158.74L407.87,153.88L410.23,152.95L419.66,149.26L422.02,147.73L443.24,139.12L445.59,138.54L471.53,134.07L473.89,133.88L506.89,131.15L509.25,130.82L535.18,129.08L537.54,128.98L546.97,128.58L549.33,126.31L554.05,125.13L556.4,122.85L561.12,117.86L563.48,116.33L568.19,107.34L570.55,105.13L584.69,92.75L587.05,89.81L596.48,75.22L598.84,69.77L605.91,61.08L608.27,58.66L612.99,54.64L615.34,52.57L620.06,46.61L622.42,45.04L629.49,39.26L631.85,38.35L653.07,28.83L655.42,27.57L662.5,24.69L664.85,24.01L674.28,20.26L676.64,19.68L679,18.5" style="vector-effect: non-scaling-stroke; fill: none; stroke: rgb(228, 87, 86); stroke-opacity: 1; stroke-width: 5px; opacity: 1;"/></g><g class="points"/><g class="text"/></g></g></g><g class="overplot"/><path class="xlines-above crisp" d="M0,0" style="fill: none;"/><path class="ylines-above crisp" d="M70,50V420" style="fill: none; stroke-width: 2px; stroke: rgb(0, 0, 0); stroke-opacity: 1;"/><g class="overlines-above"/><g class="xaxislayer-above"><g class="xtick"><text text-anchor="middle" x="0" y="440" transform="translate(127.58,0)" style="font-family: 'Open Sans', verdana, arial, sans-serif; font-size: 19px; fill: rgb(42, 63, 95); fill-opacity: 1; white-space: pre; opacity: 1;"><tspan class="line" dy="0em" x="0" y="440">12:00</tspan><tspan class="line" dy="1.3em" x="0" y="440">May 30, 2019</tspan></text></g><g class="xtick"><text text-anchor="middle" x="0" y="440" style="font-family: 'Open Sans', verdana, arial, sans-serif; font-size: 19px; fill: rgb(42, 63, 95); fill-opacity: 1; white-space: pre; opacity: 1;" transform="translate(240.75,0)"><tspan class="line" dy="0em" x="0" y="440">00:00</tspan><tspan class="line" dy="1.3em" x="0" y="440">May 31, 2019</tspan></text></g><g class="xtick"><text text-anchor="middle" x="0" y="440" style="font-family: 'Open Sans', verdana, arial, sans-serif; font-size: 19px; fill: rgb(42, 63, 95); fill-opacity: 1; white-space: pre; opacity: 1;" transform="translate(353.92,0)">12:00</text></g><g class="xtick"><text text-anchor="middle" x="0" y="440" style="font-family: 'Open Sans', verdana, arial, sans-serif; font-size: 19px; fill: rgb(42, 63, 95); fill-opacity: 1; white-space: pre; opacity: 1;" transform="translate(467.08,0)"><tspan class="line" dy="0em" x="0" y="440">00:00</tspan><tspan class="line" dy="1.3em" x="0" y="440">Jun 1, 2019</tspan></text></g><g class="xtick"><text text-anchor="middle" x="0" y="440" style="font-family: 'Open Sans', verdana, arial, sans-serif; font-size: 19px; fill: rgb(42, 63, 95); fill-opacity: 1; white-space: pre; opacity: 1;" transform="translate(580.25,0)">12:00</text></g><g class="xtick"><text text-anchor="middle" x="0" y="440" style="font-family: 'Open Sans', verdana, arial, sans-serif; font-size: 19px; fill: rgb(42, 63, 95); fill-opacity: 1; white-space: pre; opacity: 1;" transform="translate(693.42,0)"><tspan class="line" dy="0em" x="0" y="440">00:00</tspan><tspan class="line" dy="1.3em" x="0" y="440">Jun 2, 2019</tspan></text></g></g><g class="yaxislayer-above"><g class="ytick"><text text-anchor="end" x="65.2" y="6.6499999999999995" transform="translate(0,403.28)" style="font-family: 'Open Sans', verdana, arial, sans-serif; font-size: 19px; fill: rgb(42, 63, 95); fill-opacity: 1; white-space: pre; opacity: 1;">0</text></g><g class="ytick"><text text-anchor="end" x="65.2" y="6.6499999999999995" style="font-family: 'Open Sans', verdana, arial, sans-serif; font-size: 19px; fill: rgb(42, 63, 95); fill-opacity: 1; white-space: pre; opacity: 1;" transform="translate(0,361.88)">2</text></g><g class="ytick"><text text-anchor="end" x="65.2" y="6.6499999999999995" style="font-family: 'Open Sans', verdana, arial, sans-serif; font-size: 19px; fill: rgb(42, 63, 95); fill-opacity: 1; white-space: pre; opacity: 1;" transform="translate(0,320.48)">4</text></g><g class="ytick"><text text-anchor="end" x="65.2" y="6.6499999999999995" style="font-family: 'Open Sans', verdana, arial, sans-serif; font-size: 19px; fill: rgb(42, 63, 95); fill-opacity: 1; white-space: pre; opacity: 1;" transform="translate(0,279.08000000000004)">6</text></g><g class="ytick"><text text-anchor="end" x="65.2" y="6.6499999999999995" style="font-family: 'Open Sans', verdana, arial, sans-serif; font-size: 19px; fill: rgb(42, 63, 95); fill-opacity: 1; white-space: pre; opacity: 1;" transform="translate(0,237.68)">8</text></g><g class="ytick"><text text-anchor="end" x="65.2" y="6.6499999999999995" style="font-family: 'Open Sans', verdana, arial, sans-serif; font-size: 19px; fill: rgb(42, 63, 95); fill-opacity: 1; white-space: pre; opacity: 1;" transform="translate(0,196.28)">10</text></g><g class="ytick"><text text-anchor="end" x="65.2" y="6.6499999999999995" style="font-family: 'Open Sans', verdana, arial, sans-serif; font-size: 19px; fill: rgb(42, 63, 95); fill-opacity: 1; white-space: pre; opacity: 1;" transform="translate(0,154.88)">12</text></g><g class="ytick"><text text-anchor="end" x="65.2" y="6.6499999999999995" style="font-family: 'Open Sans', verdana, arial, sans-serif; font-size: 19px; fill: rgb(42, 63, 95); fill-opacity: 1; white-space: pre; opacity: 1;" transform="translate(0,113.47999999999999)">14</text></g><g class="ytick"><text text-anchor="end" x="65.2" y="6.6499999999999995" style="font-family: 'Open Sans', verdana, arial, sans-serif; font-size: 19px; fill: rgb(42, 63, 95); fill-opacity: 1; white-space: pre; opacity: 1;" transform="translate(0,72.08)">16</text></g></g><g class="overaxes-above"/></g></g><g class="polarlayer"/><g class="ternarylayer"/><g class="geolayer"/><g class="funnelarealayer"/><g class="pielayer"/><g class="iciclelayer"/><g class="treemaplayer"/><g class="sunburstlayer"/><g class="glimages"/><defs id="topdefs-13565d"><g class="clips"/><clipPath id="legend13565d"><rect width="139" height="123" x="0" y="0"/></clipPath></defs><g class="layer-above"><g class="imagelayer"/><g class="shapelayer"/></g><g class="infolayer"><g class="legend" pointer-events="all" transform="translate(104.95,50)"><rect class="bg" shape-rendering="crispEdges" width="139" height="123" x="0" y="0" style="stroke: rgb(68, 68, 68); stroke-opacity: 1; fill: rgb(255, 255, 255); fill-opacity: 1; stroke-width: 0px;"/><g class="scrollbox" transform="" clip-path="url(#legend13565d)"><text class="legendtitletext" text-anchor="start" x="2" y="29.900000000000002" style="font-family: 'Open Sans', verdana, arial, sans-serif; font-size: 23px; fill: rgb(42, 63, 95); fill-opacity: 1; white-space: pre;">variable</text><g class="groups" transform=""><g class="traces" transform="translate(0,48.75)" style="opacity: 1;"><text class="legendtext" text-anchor="start" x="40" y="7.409999999999999" style="font-family: 'Open Sans', verdana, arial, sans-serif; font-size: 19px; fill: rgb(42, 63, 95); fill-opacity: 1; white-space: pre;">predictive</text><g class="layers" style="opacity: 1;"><g class="legendfill"/><g class="legendlines"><path class="js-line" d="M5,0h30" style="fill: none; stroke: rgb(76, 120, 168); stroke-opacity: 1; stroke-width: 3px;"/></g><g class="legendsymbols"><g class="legendpoints"/></g></g><rect class="legendtoggle" x="0" y="-13.85" width="133.46875" height="27.7" style="fill: rgb(0, 0, 0); fill-opacity: 0;"/></g></g><g class="groups" transform=""><g class="traces" transform="translate(0,76.45)" style="opacity: 1;"><text class="legendtext" text-anchor="start" x="40" y="7.409999999999999" style="font-family: 'Open Sans', verdana, arial, sans-serif; font-size: 19px; fill: rgb(42, 63, 95); fill-opacity: 1; white-space: pre;">perfect</text><g class="layers" style="opacity: 1;"><g class="legendfill"/><g class="legendlines"><path class="js-line" d="M5,0h30" style="fill: none; stroke: rgb(245, 133, 24); stroke-opacity: 1; stroke-width: 5px;"/></g><g class="legendsymbols"><g class="legendpoints"/></g></g><rect class="legendtoggle" x="0" y="-13.85" width="133.46875" height="27.7" style="fill: rgb(0, 0, 0); fill-opacity: 0;"/></g></g><g class="groups" transform=""><g class="traces" transform="translate(0,104.14999999999999)" style="opacity: 1;"><text class="legendtext" text-anchor="start" x="40" y="7.409999999999999" style="font-family: 'Open Sans', verdana, arial, sans-serif; font-size: 19px; fill: rgb(42, 63, 95); fill-opacity: 1; white-space: pre;">pv only</text><g class="layers" style="opacity: 1;"><g class="legendfill"/><g class="legendlines"><path class="js-line" d="M5,0h30" style="fill: none; stroke: rgb(228, 87, 86); stroke-opacity: 1; stroke-width: 5px;"/></g><g class="legendsymbols"><g class="legendpoints"/></g></g><rect class="legendtoggle" x="0" y="-13.85" width="133.46875" height="27.7" style="fill: rgb(0, 0, 0); fill-opacity: 0;"/></g></g></g><rect class="scrollbar" rx="20" ry="3" width="0" height="0" x="0" y="0" style="fill: rgb(128, 139, 164); fill-opacity: 1;"/></g><g class="g-gtitle"/><g class="g-xtitle"/><g class="g-ytitle" transform="translate(13.068359375,0)"><text class="ytitle" transform="rotate(-90,9.931250000000006,235)" x="9.931250000000006" y="235" text-anchor="middle" style="font-family: 'Open Sans', verdana, arial, sans-serif; font-size: 23px; fill: rgb(42, 63, 95); opacity: 1; font-weight: normal; white-space: pre;">Community cost [€]</text></g></g></svg>