<svg class="main-svg" xmlns="http://www.w3.org/2000/svg" xmlns:xlink="http://www.w3.org/1999/xlink" width="1200" height="600" viewBox="0 0 1200 600"><rect x="0" y="0" width="1200" height="600" style="fill: rgb(255, 255, 255); fill-opacity: 1;"/><defs id="defs-01a4ba"><g class="clips"><clipPath id="clip01a4baxyplot" class="plotclip"><rect width="978" height="460"/></clipPath><clipPath class="axesclip" id="clip01a4bax"><rect x="75" y="0" width="978" height="600"/></clipPath><clipPath class="axesclip" id="clip01a4bay"><rect x="0" y="50" width="1200" height="460"/></clipPath><clipPath class="axesclip" id="clip01a4baxy"><rect x="75" y="50" width="978" height="460"/></clipPath></g><g class="gradients"/><g class="patterns"/></defs><g class="bglayer"/><g class="layer-below"><g class="imagelayer"/><g class="shapelayer"/></g><g class="cartesianlayer"><g class="subplot xy"><g class="layer-subplot"><g class="shapelayer"/><g class="imagelayer"/></g><g class="gridlayer"><g class="x"><path class="xgrid crisp" transform="translate(156.5,0)" d="M0,50v460" style="stroke: rgb(235, 240, 248); stroke-opacity: 1; stroke-width: 1px;"/><path class="xgrid crisp" transform="translate(319.5,0)" d="M0,50v460" style="stroke: rgb(235, 240, 248); stroke-opacity: 1; stroke-width: 1px;"/><path class="xgrid crisp" transform="translate(482.5,0)" d="M0,50v460" style="stroke: rgb(235, 240, 248); stroke-opacity: 1; stroke-width: 1px;"/><path class="xgrid crisp" transform="translate(645.5,0)" d="M0,50v460" style="stroke: rgb(235, 240, 248); stroke-opacity: 1; stroke-width: 1px;"/><path class="xgrid crisp" transform="translate(808.5,0)" d="M0,50v460" style="stroke: rgb(235, 240, 248); stroke-opacity: 1; stroke-width: 1px;"/><path class="xgrid crisp" transform="translate(971.5,0)" d="M0,50v460" style="stroke: rgb(235, 240, 248); stroke-opacity: 1; stroke-width: 1px;"/></g><g class="y"><path class="ygrid crisp" transform="translate(0,470.57)" d="M75,0h978" style="stroke: rgb(235, 240, 248); stroke-opacity: 1; stroke-width: 1px;"/><path class="ygrid crisp" transform="translate(0,336.93)" d="M75,0h978" style="stroke: rgb(235, 240, 248); stroke-opacity: 1; stroke-width: 1px;"/><path class="ygrid crisp" transform="translate(0,270.11)" d="M75,0h978" style="stroke: rgb(235, 240, 248); stroke-opacity: 1; stroke-width: 1px;"/><path class="ygrid crisp" transform="translate(0,203.3)" d="M75,0h978" style="stroke: rgb(235, 240, 248); stroke-opacity: 1; stroke-width: 1px;"/><path class="ygrid crisp" transform="translate(0,136.48000000000002)" d="M75,0h978" style="stroke: rgb(235, 240, 248); stroke-opacity: 1; stroke-width: 1px;"/><path class="ygrid crisp" transform="translate(0,69.66)" d="M75,0h978" style="stroke: rgb(235, 240, 248); stroke-opacity: 1; stroke-width: 1px;"/></g></g><g class="zerolinelayer"><path class="yzl zl crisp" transform="translate(0,403.75)" d="M75,0h978" style="stroke: rgb(0, 0, 0); stroke-opacity: 1; stroke-width: 2px;"/></g><path class="xlines-below"/><path class="ylines-below"/><g class="overlines-below"/><g class="xaxislayer-below"/><g class="yaxislayer-below"/><g class="overaxes-below"/><g class="plot" transform="translate(75,50)" clip-path="url(#clip01a4baxyplot)"><g class="scatterlayer mlayer"><g class="trace scatter tracebfba81" style="stroke-miterlimit: 2; opacity: 1;"><g class="fills"/><g class="errorbars"/><g class="lines"><path class="js-line" d="M0,328.83L6.79,356.75L10.19,355.63L13.58,324.33L16.98,372.53L20.38,387.31L23.77,398.69L27.17,398.28L30.56,405.13L33.96,402.9L37.35,405.41L40.75,408.39L44.15,397.67L47.54,421.25L50.94,427.61L57.73,428.66L61.13,423.78L64.52,426.03L67.92,420.32L71.31,436.36L74.71,430.44L78.1,433.67L81.5,414.21L84.9,418.33L88.29,425.6L91.69,427.23L95.08,414.7L98.48,419.77L101.88,385.57L105.27,406.43L108.67,410.7L112.06,393.13L115.46,390.51L118.85,388.07L122.25,373.22L125.65,368.2L129.04,367.5L132.44,366.09L135.83,358.27L139.23,349.04L142.63,348.47L146.02,344.63L149.42,339.43L152.81,343.84L156.21,342.17L159.6,344.03L163,325.41L166.4,330.89L169.79,332.52L176.58,325.65L179.98,316.76L183.38,315.64L186.77,290.54L193.56,322.55L196.96,307.53L200.35,311.66L203.75,309.81L207.15,309.74L210.54,321.57L213.94,316.51L217.33,308.72L220.73,295.68L224.13,296.55L227.52,323.89L230.92,337.66L234.31,337.94L237.71,331.12L241.1,318.75L244.5,331.36L247.9,339.31L251.29,340.3L254.69,334.48L258.08,338.45L261.48,321.76L264.88,339.32L268.27,341.89L271.67,338.21L275.06,337.62L278.46,333L281.85,333.46L285.25,332.62L288.65,331.9L292.04,329.45L295.44,338.54L298.83,335.3L305.63,338.74L309.02,344.35L312.42,335.6L315.81,338.06L319.21,346.66L322.6,351.34L326,330.81L329.4,338.26L332.79,353.2L336.19,362.79L339.58,369.51L342.98,380.33L349.77,382.68L353.17,393.05L356.56,399.32L359.96,381.01L363.35,401.79L366.75,416.94L370.15,417.07L373.54,410.97L376.94,419.93L380.33,417.29L383.73,408.44L387.13,404.33L390.52,415.32L393.92,414.07L397.31,427.08L400.71,424.48L404.1,436.43L407.5,435.25L410.9,437L414.29,419.94L417.69,414.22L421.08,406.93L424.48,412.09L427.88,410.59L431.27,409L434.67,404.53L438.06,397.26L441.46,395.93L444.85,397.01L448.25,384.2L451.65,376.25L455.04,352.72L458.44,357.47L461.83,357.98L465.23,350.55L468.63,349.41L475.42,337L478.81,324.79L482.21,284.51L485.6,298.08L489,312.15L492.4,316.9L495.79,314.41L499.19,302.17L502.58,316.3L505.98,319.96L509.38,316.5L512.77,317.05L516.17,308.85L519.56,313.09L522.96,313.66L526.35,304.12L529.75,322.55L533.15,320.64L536.54,303.12L539.94,290.21L543.33,299.4L546.73,316.25L550.13,307.38L553.52,293.8L556.92,315.34L560.31,324.17L563.71,318.4L567.1,326.77L570.5,335.43L573.9,334.01L577.29,331.92L580.69,337.59L584.08,334.69L587.48,338.55L590.88,339.76L594.27,342.59L597.67,340.22L601.06,341.21L607.85,331.03L611.25,337.58L614.65,341.39L618.04,336.82L621.44,337.91L624.83,337.38L628.23,343.27L631.63,338L635.02,341.1L638.42,342.55L641.81,345.53L645.21,346.72L648.6,347.2L652,345.25L655.4,352.67L658.79,342.48L662.19,365.3L665.58,375.85L668.98,349.37L672.38,373.17L675.77,390.85L679.17,392.27L682.56,388.52L685.96,389.98L689.35,403.31L692.75,402.86L696.15,403.97L699.54,400.46L702.94,380.41L706.33,403.11L709.73,404.97L713.13,415.07L716.52,419.3L719.92,420.27L723.31,403.88L726.71,419.1L730.1,410.54L733.5,377.55L736.9,376.94L740.29,407.52L747.08,422.37L750.48,410.17L753.88,402.27L757.27,405.33L760.67,410.05L764.06,407.77L767.46,402.89L770.85,400.05L774.25,398.12L777.65,392.52L784.44,373.85L787.83,360L791.23,321.12L794.63,347.19L798.02,344.16L801.42,320.54L804.81,304.67L808.21,328.9L811.6,331.03L815,279.74L818.4,294.37L821.79,320.92L825.19,325.11L828.58,313.28L835.38,336.81L838.77,325.66L842.17,311.39L845.56,310.02L848.96,305.15L852.35,302.99L855.75,303.62L859.15,286.85L862.54,273.04L865.94,301.18L869.33,314.86L872.73,316.1L876.13,317.82L879.52,313.89L882.92,333.96L886.31,323.15L889.71,298.85L893.1,320.11L896.5,330.45L899.9,320.57L906.69,330.07L910.08,340.28L913.48,339.14L916.88,344.38L920.27,336.89L923.67,334.7L927.06,337.93L930.46,338.21L933.85,341.4L937.25,332.16L940.65,337.42L944.04,334.98L947.44,334.57L950.83,341.22L954.23,342.98L957.63,343.59L961.02,336.06L964.42,336.96L967.81,341.97L971.21,344.41L974.6,345.52L978,337.35" style="vector-effect: non-scaling-stroke; fill: none; stroke: rgb(76, 120, 168); stroke-opacity: 1; stroke-width: 2px; opacity: 1;"/></g><g class="points"/><g class="text"/></g><g class="trace scatter trace68836f" style="stroke-miterlimit: 2; opacity: 1;"><g class="fills"/><g class="errorbars"/><g class="lines"><path class="js-line" d="M0,353.75L3.4,353.75L6.79,350.75L10.19,351.88L13.58,357.12L16.98,334.97L20.38,320.2L23.77,308.81L27.17,309.23L30.56,302.38L33.96,304.6L40.75,299.11L44.15,309.84L47.54,286.25L50.94,279.9L57.73,278.84L61.13,283.72L64.52,281.47L67.92,300.44L78.1,300.3L81.5,304.11L88.29,300.3L91.69,300.3L95.08,303.82L98.48,300.78L105.27,350.25L108.67,353.75L135.83,353.75L139.23,358.47L142.63,359.03L146.02,362.87L149.42,368.08L152.81,363.66L156.21,365.33L159.6,363.48L163,382.09L166.4,376.61L169.79,374.98L173.19,378.16L176.58,381.85L179.98,390.74L183.38,391.86L186.77,416.96L193.56,384.95L196.96,399.98L200.35,395.85L203.75,397.69L207.15,397.77L210.54,385.94L213.94,390.99L217.33,398.78L220.73,411.82L224.13,410.95L227.52,383.61L230.92,369.84L234.31,369.56L237.71,376.38L241.1,388.75L244.5,376.14L247.9,368.19L251.29,367.2L254.69,373.03L258.08,369.05L261.48,385.74L264.88,368.19L268.27,365.62L271.67,369.29L275.06,369.89L278.46,374.51L281.85,374.04L285.25,374.88L288.65,375.6L292.04,378.05L295.44,368.96L298.83,366.95L302.23,353.75L305.63,353.75L332.79,353.75L336.19,344.71L339.58,337.99L342.98,327.17L349.77,324.83L353.17,314.45L356.56,308.18L359.96,326.5L366.75,290.56L370.15,290.43L373.54,296.53L376.94,287.57L380.33,290.22L383.73,299.07L387.13,303.17L390.52,292.18L393.92,293.44L397.31,289.71L400.71,299.51L404.1,300.3L414.29,300.68L417.69,304.11L421.08,308.48L424.48,305.38L431.27,307.24L434.67,348.81L438.06,353.75L441.46,353.75L451.65,353.75L455.04,354.79L458.44,352.61L461.83,353.75L465.23,356.95L468.63,358.1L475.42,370.5L478.81,382.71L482.21,422.99L485.6,409.42L489,395.35L492.4,390.61L495.79,393.09L499.19,405.33L502.58,391.2L505.98,387.54L509.38,391L512.77,390.46L516.17,398.65L519.56,394.41L522.96,393.85L526.35,403.38L529.75,384.95L533.15,386.86L539.94,417.29L543.33,408.1L546.73,391.26L550.13,400.13L553.52,413.7L556.92,392.16L560.31,383.33L563.71,389.1L570.5,372.07L573.9,373.49L577.29,373.45L580.69,353.75L658.79,353.75L662.19,342.2L665.58,331.66L668.98,358.14L675.77,316.65L679.17,315.23L682.56,318.98L685.96,317.52L689.35,304.19L692.75,304.64L696.15,303.53L699.54,307.04L702.94,327.09L706.33,304.39L709.73,302.53L713.13,292.43L716.52,288.2L719.92,287.24L723.31,303.62L726.71,288.4L730.1,299.63L733.5,329.95L736.9,330.57L740.29,308.13L747.08,300.3L750.48,306.54L753.88,311.27L757.27,309.44L760.67,306.61L764.06,307.98L770.85,314.91L774.25,353.75L787.83,353.75L791.23,386.39L794.63,360.31L798.02,363.34L801.42,386.96L804.81,402.83L808.21,378.6L811.6,376.47L815,427.76L818.4,413.14L821.79,386.58L825.19,382.39L828.58,394.23L831.98,381.13L835.38,370.69L838.77,381.84L842.17,396.11L845.56,397.49L848.96,402.35L852.35,404.51L855.75,403.88L859.15,420.65L862.54,430.93L865.94,406.32L869.33,392.65L872.73,391.41L876.13,389.69L879.52,393.61L882.92,373.55L886.31,384.35L889.71,406.74L893.1,387.39L903.29,353.75L906.69,353.75L978,353.75" style="vector-effect: non-scaling-stroke; fill: none; stroke: rgb(214, 39, 40); stroke-opacity: 1; stroke-width: 4px; opacity: 1;"/></g><g class="points"/><g class="text"/></g><g class="trace scatter trace4bf920" style="stroke-miterlimit: 2; opacity: 1;"><g class="fills"/><g class="errorbars"/><g class="lines"><path class="js-line" d="M0,350.41L13.58,350.23L16.98,348.49L20.38,342.57L23.77,333.41L33.96,299.53L37.35,287.6L47.54,250.32L50.94,233.66L67.92,149.11L71.31,136.43L98.48,37L101.88,27.52L105.27,23.17L108.67,23L139.23,23.55L142.63,24.86L146.02,26.69L149.42,29.69L159.6,38.59L163,43.3L179.98,77.18L183.38,87.04L193.56,125.56L196.96,135.51L210.54,180.28L213.94,189.33L220.73,213.4L224.13,228.58L227.52,240.46L230.92,246.73L237.71,255.88L241.1,263.27L244.5,271.02L247.9,275.99L258.08,288.5L261.48,294.46L264.88,300.84L268.27,304.35L275.06,312.05L278.46,316.83L298.83,348.8L302.23,350.41L336.19,349.48L339.58,346.67L346.38,335.39L349.77,328.72L356.56,310.8L359.96,301.94L363.35,293.35L366.75,280.36L387.13,194.86L390.52,181.72L407.5,112.17L410.9,99.47L424.48,52.36L427.88,41L431.27,29.86L434.67,23.23L451.65,23L455.04,23.12L465.23,23.37L468.63,24.37L472.02,26.31L475.42,29.91L478.81,35.73L482.21,48.02L489,77.7L492.4,88.1L499.19,109.85L502.58,121.79L516.17,160.87L519.56,172.19L536.54,224.58L539.94,239.4L546.73,267.41L550.13,278.3L556.92,305.36L560.31,314.45L570.5,337.33L573.9,342.32L577.29,347.64L580.69,350.41L658.79,350.41L662.19,349.2L665.58,345.37L668.98,343.23L672.38,342.19L675.77,335.82L689.35,299.7L692.75,287.99L702.94,255.73L706.33,247.04L713.13,221.92L716.52,207L726.71,164.07L730.1,149.57L733.5,140.15L736.9,134.77L740.29,126.47L743.69,115.01L753.88,80.3L757.27,69.95L770.85,27.74L774.25,23L787.83,23L791.23,26.78L794.63,32.39L798.02,34.55L801.42,39.82L804.81,50.41L808.21,60.52L811.6,66.82L815,78.73L818.4,96.52L821.79,109.07L825.19,117.22L831.98,135.26L835.38,141.26L838.77,147.01L842.17,156.05L852.35,192.47L855.75,205.76L862.54,239.91L865.94,257.14L872.73,279.49L876.13,289.2L882.92,307.28L886.31,313.74L896.5,343.74L899.9,349.47L906.69,350.41L910.08,350.41L978,350.41" style="vector-effect: non-scaling-stroke; fill: none; stroke: rgb(148, 103, 189); stroke-opacity: 0.7; stroke-width: 4px; opacity: 1; stroke-dasharray: 4px, 4px;"/></g><g class="points"/><g class="text"/></g></g></g><g class="overplot"/><path class="xlines-above crisp" d="M0,0" style="fill: none;"/><path class="ylines-above crisp" d="M74,50V510" style="fill: none; stroke-width: 2px; stroke: rgb(0, 0, 0); stroke-opacity: 1;"/><g class="overlines-above"/><g class="xaxislayer-above"><g class="xtick"><text text-anchor="middle" x="0" y="530" transform="translate(156.5,0)" style="font-family: 'Open Sans', verdana, arial, sans-serif; font-size: 19px; fill: rgb(42, 63, 95); fill-opacity: 1; white-space: pre; opacity: 1;"><tspan class="line" dy="0em" x="0" y="530">12:00</tspan><tspan class="line" dy="1.3em" x="0" y="530">May 30, 2019</tspan></text></g><g class="xtick"><text text-anchor="middle" x="0" y="530" style="font-family: 'Open Sans', verdana, arial, sans-serif; font-size: 19px; fill: rgb(42, 63, 95); fill-opacity: 1; white-space: pre; opacity: 1;" transform="translate(319.5,0)"><tspan class="line" dy="0em" x="0" y="530">00:00</tspan><tspan class="line" dy="1.3em" x="0" y="530">May 31, 2019</tspan></text></g><g class="xtick"><text text-anchor="middle" x="0" y="530" style="font-family: 'Open Sans', verdana, arial, sans-serif; font-size: 19px; fill: rgb(42, 63, 95); fill-opacity: 1; white-space: pre; opacity: 1;" transform="translate(482.5,0)">12:00</text></g><g class="xtick"><text text-anchor="middle" x="0" y="530" style="font-family: 'Open Sans', verdana, arial, sans-serif; font-size: 19px; fill: rgb(42, 63, 95); fill-opacity: 1; white-space: pre; opacity: 1;" transform="translate(645.5,0)"><tspan class="line" dy="0em" x="0" y="530">00:00</tspan><tspan class="line" dy="1.3em" x="0" y="530">Jun 1, 2019</tspan></text></g><g class="xtick"><text text-anchor="middle" x="0" y="530" style="font-family: 'Open Sans', verdana, arial, sans-serif; font-size: 19px; fill: rgb(42, 63, 95); fill-opacity: 1; white-space: pre; opacity: 1;" transform="translate(808.5,0)">12:00</text></g><g class="xtick"><text text-anchor="middle" x="0" y="530" style="font-family: 'Open Sans', verdana, arial, sans-serif; font-size: 19px; fill: rgb(42, 63, 95); fill-opacity: 1; white-space: pre; opacity: 1;" transform="translate(971.5,0)"><tspan class="line" dy="0em" x="0" y="530">00:00</tspan><tspan class="line" dy="1.3em" x="0" y="530">Jun 2, 2019</tspan></text></g></g><g class="yaxislayer-above"><g class="ytick"><text text-anchor="end" x="69.2" y="6.6499999999999995" transform="translate(0,470.57)" style="font-family: 'Open Sans', verdana, arial, sans-serif; font-size: 19px; fill: rgb(42, 63, 95); fill-opacity: 1; white-space: pre; opacity: 1;">−5</text></g><g class="ytick"><text text-anchor="end" x="69.2" y="6.6499999999999995" style="font-family: 'Open Sans', verdana, arial, sans-serif; font-size: 19px; fill: rgb(42, 63, 95); fill-opacity: 1; white-space: pre; opacity: 1;" transform="translate(0,403.75)">0</text></g><g class="ytick"><text text-anchor="end" x="69.2" y="6.6499999999999995" style="font-family: 'Open Sans', verdana, arial, sans-serif; font-size: 19px; fill: rgb(42, 63, 95); fill-opacity: 1; white-space: pre; opacity: 1;" transform="translate(0,336.93)">5</text></g><g class="ytick"><text text-anchor="end" x="69.2" y="6.6499999999999995" style="font-family: 'Open Sans', verdana, arial, sans-serif; font-size: 19px; fill: rgb(42, 63, 95); fill-opacity: 1; white-space: pre; opacity: 1;" transform="translate(0,270.11)">10</text></g><g class="ytick"><text text-anchor="end" x="69.2" y="6.6499999999999995" style="font-family: 'Open Sans', verdana, arial, sans-serif; font-size: 19px; fill: rgb(42, 63, 95); fill-opacity: 1; white-space: pre; opacity: 1;" transform="translate(0,203.3)">15</text></g><g class="ytick"><text text-anchor="end" x="69.2" y="6.6499999999999995" style="font-family: 'Open Sans', verdana, arial, sans-serif; font-size: 19px; fill: rgb(42, 63, 95); fill-opacity: 1; white-space: pre; opacity: 1;" transform="translate(0,136.48000000000002)">20</text></g><g class="ytick"><text text-anchor="end" x="69.2" y="6.6499999999999995" style="font-family: 'Open Sans', verdana, arial, sans-serif; font-size: 19px; fill: rgb(42, 63, 95); fill-opacity: 1; white-space: pre; opacity: 1;" transform="translate(0,69.66)">25</text></g></g><g class="overaxes-above"/></g></g><g class="polarlayer"/><g class="ternarylayer"/><g class="geolayer"/><g class="funnelarealayer"/><g class="pielayer"/><g class="iciclelayer"/><g class="treemaplayer"/><g class="sunburstlayer"/><g class="glimages"/><defs id="topdefs-01a4ba"><g class="clips"/><clipPath id="legend01a4ba"><rect width="117" height="123" x="0" y="0"/></clipPath></defs><g class="layer-above"><g class="imagelayer"/><g class="shapelayer"/></g><g class="infolayer"><g class="legend" pointer-events="all" transform="translate(1072.56,50)"><rect class="bg" shape-rendering="crispEdges" width="117" height="123" x="0" y="0" style="stroke: rgb(68, 68, 68); stroke-opacity: 1; fill: rgb(255, 255, 255); fill-opacity: 1; stroke-width: 0px;"/><g class="scrollbox" transform="" clip-path="url(#legend01a4ba)"><text class="legendtitletext" text-anchor="start" x="2" y="29.900000000000002" style="font-family: 'Open Sans', verdana, arial, sans-serif; font-size: 23px; fill: rgb(42, 63, 95); fill-opacity: 1; white-space: pre;">variable</text><g class="groups" transform=""><g class="traces" transform="translate(0,48.75)" style="opacity: 1;"><text class="legendtext" text-anchor="start" x="40" y="7.409999999999999" style="font-family: 'Open Sans', verdana, arial, sans-serif; font-size: 19px; fill: rgb(42, 63, 95); fill-opacity: 1; white-space: pre;">actual</text><g class="layers" style="opacity: 1;"><g class="legendfill"/><g class="legendlines"><path class="js-line" d="M5,0h30" style="fill: none; stroke: rgb(76, 120, 168); stroke-opacity: 1; stroke-width: 2px;"/></g><g class="legendsymbols"><g class="legendpoints"/></g></g><rect class="legendtoggle" x="0" y="-13.85" width="111.578125" height="27.7" style="fill: rgb(0, 0, 0); fill-opacity: 0;"/></g></g><g class="groups" transform=""><g class="traces" transform="translate(0,76.45)" style="opacity: 1;"><text class="legendtext" text-anchor="start" x="40" y="7.409999999999999" style="font-family: 'Open Sans', verdana, arial, sans-serif; font-size: 19px; fill: rgb(42, 63, 95); fill-opacity: 1; white-space: pre;">storage</text><g class="layers" style="opacity: 1;"><g class="legendfill"/><g class="legendlines"><path class="js-line" d="M5,0h30" style="fill: none; stroke: rgb(214, 39, 40); stroke-opacity: 1; stroke-width: 4px;"/></g><g class="legendsymbols"><g class="legendpoints"/></g></g><rect class="legendtoggle" x="0" y="-13.85" width="111.578125" height="27.7" style="fill: rgb(0, 0, 0); fill-opacity: 0;"/></g></g><g class="groups" transform=""><g class="traces" transform="translate(0,104.14999999999999)" style="opacity: 1;"><text class="legendtext" text-anchor="start" x="40" y="7.409999999999999" style="font-family: 'Open Sans', verdana, arial, sans-serif; font-size: 19px; fill: rgb(42, 63, 95); fill-opacity: 1; white-space: pre;">soc</text><g class="layers" style="opacity: 1;"><g class="legendfill"/><g class="legendlines"><path class="js-line" d="M5,0h30" style="fill: none; stroke: rgb(148, 103, 189); stroke-opacity: 0.7; stroke-dasharray: 4px, 4px; stroke-width: 4px;"/></g><g class="legendsymbols"><g class="legendpoints"/></g></g><rect class="legendtoggle" x="0" y="-13.85" width="111.578125" height="27.7" style="fill: rgb(0, 0, 0); fill-opacity: 0;"/></g></g></g><rect class="scrollbar" rx="20" ry="3" width="0" height="0" x="0" y="0" style="fill: rgb(128, 139, 164); fill-opacity: 1;"/></g><g class="g-gtitle"/><g class="g-xtitle"/><g class="g-ytitle" transform="translate(12.537109375,0)"><text class="ytitle" transform="rotate(-90,10.462500000000006,280)" x="10.462500000000006" y="280" text-anchor="middle" style="font-family: 'Open Sans', verdana, arial, sans-serif; font-size: 23px; fill: rgb(42, 63, 95); opacity: 1; font-weight: normal; white-space: pre;">Power [kW] &amp; SOC [kWh]</text></g></g></svg>