<svg class="main-svg" xmlns="http://www.w3.org/2000/svg" xmlns:xlink="http://www.w3.org/1999/xlink" width="800" height="510" viewBox="0 0 800 510"><rect x="0" y="0" width="800" height="510" style="fill: rgb(255, 255, 255); fill-opacity: 1;"/><defs id="defs-9bb41e"><g class="clips"><clipPath id="clip9bb41exyplot" class="plotclip"><rect width="679" height="370"/></clipPath><clipPath class="axesclip" id="clip9bb41ex"><rect x="71" y="0" width="679" height="510"/></clipPath><clipPath class="axesclip" id="clip9bb41ey"><rect x="0" y="50" width="800" height="370"/></clipPath><clipPath class="axesclip" id="clip9bb41exy"><rect x="71" y="50" width="679" height="370"/></clipPath></g><g class="gradients"/><g class="patterns"/></defs><g class="bglayer"/><g class="layer-below"><g class="imagelayer"/><g class="shapelayer"/></g><g class="cartesianlayer"><g class="subplot xy"><g class="layer-subplot"><g class="shapelayer"/><g class="imagelayer"/></g><g class="gridlayer"><g class="x"><path class="xgrid crisp" transform="translate(127.58,0)" d="M0,50v370" style="stroke: rgb(235, 240, 248); stroke-opacity: 1; stroke-width: 1px;"/><path class="xgrid crisp" transform="translate(240.75,0)" d="M0,50v370" style="stroke: rgb(235, 240, 248); stroke-opacity: 1; stroke-width: 1px;"/><path class="xgrid crisp" transform="translate(353.92,0)" d="M0,50v370" style="stroke: rgb(235, 240, 248); stroke-opacity: 1; stroke-width: 1px;"/><path class="xgrid crisp" transform="translate(467.08,0)" d="M0,50v370" style="stroke: rgb(235, 240, 248); stroke-opacity: 1; stroke-width: 1px;"/><path class="xgrid crisp" transform="translate(580.25,0)" d="M0,50v370" style="stroke: rgb(235, 240, 248); stroke-opacity: 1; stroke-width: 1px;"/><path class="xgrid crisp" transform="translate(693.42,0)" d="M0,50v370" style="stroke: rgb(235, 240, 248); stroke-opacity: 1; stroke-width: 1px;"/></g><g class="y"><path class="ygrid crisp" transform="translate(0,362.68)" d="M71,0h679" style="stroke: rgb(235, 240, 248); stroke-opacity: 1; stroke-width: 1px;"/><path class="ygrid crisp" transform="translate(0,321.17)" d="M71,0h679" style="stroke: rgb(235, 240, 248); stroke-opacity: 1; stroke-width: 1px;"/><path class="ygrid crisp" transform="translate(0,279.65999999999997)" d="M71,0h679" style="stroke: rgb(235, 240, 248); stroke-opacity: 1; stroke-width: 1px;"/><path class="ygrid crisp" transform="translate(0,238.14)" d="M71,0h679" style="stroke: rgb(235, 240, 248); stroke-opacity: 1; stroke-width: 1px;"/><path class="ygrid crisp" transform="translate(0,196.63)" d="M71,0h679" style="stroke: rgb(235, 240, 248); stroke-opacity: 1; stroke-width: 1px;"/><path class="ygrid crisp" transform="translate(0,155.12)" d="M71,0h679" style="stroke: rgb(235, 240, 248); stroke-opacity: 1; stroke-width: 1px;"/><path class="ygrid crisp" transform="translate(0,113.6)" d="M71,0h679" style="stroke: rgb(235, 240, 248); stroke-opacity: 1; stroke-width: 1px;"/><path class="ygrid crisp" transform="translate(0,72.09)" d="M71,0h679" style="stroke: rgb(235, 240, 248); stroke-opacity: 1; stroke-width: 1px;"/></g></g><g class="zerolinelayer"><path class="yzl zl crisp" transform="translate(0,404.2)" d="M71,0h679" style="stroke: rgb(0, 0, 0); stroke-opacity: 1; stroke-width: 2px;"/></g><path class="xlines-below"/><path class="ylines-below"/><g class="overlines-below"/><g class="xaxislayer-below"/><g class="yaxislayer-below"/><g class="overaxes-below"/><g class="plot" transform="translate(71,50)" clip-path="url(#clip9bb41exyplot)"><g class="scatterlayer mlayer"><g class="trace scatter tracef10728" style="stroke-miterlimit: 2; opacity: 1;"><g class="fills"/><g class="errorbars"/><g class="lines"><path class="js-line" d="M0,351.37L9.43,346.89L18.86,344.77L28.29,342.46L37.72,341.09L56.58,338.5L66.01,335.7L75.44,333.92L84.88,333.5L113.17,332.6L122.6,332.01L132.03,330.7L141.46,330.29L160.32,327.82L169.75,327.03L179.18,324.99L188.61,320.91L198.04,316.54L207.47,313.34L226.33,309.41L235.76,308.08L264.06,300.53L273.49,299.33L282.92,298.37L292.35,295.62L301.78,293.45L311.21,292.56L320.64,291.58L330.07,288.8L339.5,286.62L348.93,286.12L358.36,285.28L367.79,283.07L377.22,278.12L386.65,274.08L396.08,269.36L405.51,266.26L424.38,262.4L433.81,260.93L452.67,259.48L462.1,257.77L480.96,253.1L490.39,249.38L499.82,246.73L509.25,242.77L528.11,240.49L537.54,239.76L556.4,234.75L565.83,230.49L575.26,230.01L584.69,228L603.56,221.58L612.99,216.89L622.42,210.32L631.85,206.8L650.71,202.04L660.14,200.87L669.57,200.47L679,198.88" style="vector-effect: non-scaling-stroke; fill: none; stroke: rgb(76, 120, 168); stroke-opacity: 1; stroke-width: 3px; opacity: 1;"/></g><g class="points"/><g class="text"/></g><g class="trace scatter tracea3553b" style="stroke-miterlimit: 2; opacity: 1;"><g class="fills"/><g class="errorbars"/><g class="lines"><path class="js-line" d="M0,351.5L18.86,345.41L28.29,343.56L47.15,340.85L56.58,338.16L75.44,335.53L84.88,335.11L141.46,334.79L150.89,334.71L198.04,334.32L207.47,331.58L226.33,325.98L235.76,324.77L264.06,322.17L273.49,319.27L282.92,315.12L292.35,312.92L348.93,308.18L358.36,308.18L367.79,307.58L377.22,302.8L396.08,300.53L405.51,299.47L424.38,296.55L433.81,293.91L452.67,289.11L462.1,287.65L471.53,286.64L480.96,284.32L499.82,276.94L509.25,275.7L565.83,272.53L575.26,272.42L603.56,272.19L612.99,269.11L622.42,263.54L631.85,260.46L641.28,258.08L650.71,254.27L669.57,247.6L679,245.6" style="vector-effect: non-scaling-stroke; fill: none; stroke: rgb(245, 133, 24); stroke-opacity: 1; stroke-width: 5px; opacity: 1;"/></g><g class="points"/><g class="text"/></g><g class="trace scatter trace94310f" style="stroke-miterlimit: 2; opacity: 1;"><g class="fills"/><g class="errorbars"/><g class="lines"><path class="js-line" d="M0,351.5L9.43,348.17L18.86,347.46L66.01,343.77L75.44,343.23L94.31,342.01L103.74,339.19L113.17,333.93L122.6,325.46L150.89,289.97L160.32,282.3L179.18,271.45L188.61,266.91L207.47,256.56L216.9,252.96L226.33,249.77L235.76,248.88L320.64,241.56L330.07,234.73L348.93,211.5L358.36,200.52L367.79,189.39L377.22,175.76L386.65,164.76L396.08,158.46L424.38,145.52L433.81,141.56L452.67,136.61L462.1,134.98L537.54,129.13L546.97,126.75L556.4,119.42L565.83,107L584.69,88.24L594.13,72.89L603.56,59.95L612.99,50.77L622.42,42.05L631.85,37.07L669.57,20.64L679,18.5" style="vector-effect: non-scaling-stroke; fill: none; stroke: rgb(228, 87, 86); stroke-opacity: 1; stroke-width: 5px; opacity: 1;"/></g><g class="points"/><g class="text"/></g><g class="trace scatter trace99ca92" style="stroke-miterlimit: 2; opacity: 1;"><g class="fills"/><g class="errorbars"/><g class="lines"><path class="js-line" d="M0,351.5L9.43,348.36L18.86,347.64L37.72,345.74L47.15,343.36L66.01,336.37L75.44,335.41L103.74,334.67L113.17,334.67L198.04,334.27L207.47,332.11L226.33,325.34L235.76,324.43L264.06,321.92L273.49,320.19L292.35,313.17L301.78,311.37L330.07,309.31L339.5,308.87L377.22,308.4L386.65,307.45L396.08,306.76L405.51,303.09L424.38,294.76L433.81,290.8L443.24,287.89L452.67,285.85L471.53,283.62L480.96,283L499.82,280.83L509.25,278.46L528.11,272.05L537.54,270.75L603.56,268.58L612.99,267.54L622.42,264.17L631.85,259.37L660.14,246.55L669.57,242.92L679,240.8" style="vector-effect: non-scaling-stroke; fill: none; stroke: rgb(114, 183, 178); stroke-opacity: 1; stroke-width: 3px; opacity: 1;"/></g><g class="points"/><g class="text"/></g></g></g><g class="overplot"/><path class="xlines-above crisp" d="M0,0" style="fill: none;"/><path class="ylines-above crisp" d="M70,50V420" style="fill: none; stroke-width: 2px; stroke: rgb(0, 0, 0); stroke-opacity: 1;"/><g class="overlines-above"/><g class="xaxislayer-above"><g class="xtick"><text text-anchor="middle" x="0" y="440" transform="translate(127.58,0)" style="font-family: 'Open Sans', verdana, arial, sans-serif; font-size: 19px; fill: rgb(42, 63, 95); fill-opacity: 1; white-space: pre; opacity: 1;"><tspan class="line" dy="0em" x="0" y="440">12:00</tspan><tspan class="line" dy="1.3em" x="0" y="440">May 30, 2019</tspan></text></g><g class="xtick"><text text-anchor="middle" x="0" y="440" style="font-family: 'Open Sans', verdana, arial, sans-serif; font-size: 19px; fill: rgb(42, 63, 95); fill-opacity: 1; white-space: pre; opacity: 1;" transform="translate(240.75,0)"><tspan class="line" dy="0em" x="0" y="440">00:00</tspan><tspan class="line" dy="1.3em" x="0" y="440">May 31, 2019</tspan></text></g><g class="xtick"><text text-anchor="middle" x="0" y="440" style="font-family: 'Open Sans', verdana, arial, sans-serif; font-size: 19px; fill: rgb(42, 63, 95); fill-opacity: 1; white-space: pre; opacity: 1;" transform="translate(353.92,0)">12:00</text></g><g class="xtick"><text text-anchor="middle" x="0" y="440" style="font-family: 'Open Sans', verdana, arial, sans-serif; font-size: 19px; fill: rgb(42, 63, 95); fill-opacity: 1; white-space: pre; opacity: 1;" transform="translate(467.08,0)"><tspan class="line" dy="0em" x="0" y="440">00:00</tspan><tspan class="line" dy="1.3em" x="0" y="440">Jun 1, 2019</tspan></text></g><g class="xtick"><text text-anchor="middle" x="0" y="440" style="font-family: 'Open Sans', verdana, arial, sans-serif; font-size: 19px; fill: rgb(42, 63, 95); fill-opacity: 1; white-space: pre; opacity: 1;" transform="translate(580.25,0)">12:00</text></g><g class="xtick"><text text-anchor="middle" x="0" y="440" style="font-family: 'Open Sans', verdana, arial, sans-serif; font-size: 19px; fill: rgb(42, 63, 95); fill-opacity: 1; white-space: pre; opacity: 1;" transform="translate(693.42,0)"><tspan class="line" dy="0em" x="0" y="440">00:00</tspan><tspan class="line" dy="1.3em" x="0" y="440">Jun 2, 2019</tspan></text></g></g><g class="yaxislayer-above"><g class="ytick"><text text-anchor="end" x="65.2" y="6.6499999999999995" transform="translate(0,404.2)" style="font-family: 'Open Sans', verdana, arial, sans-serif; font-size: 19px; fill: rgb(42, 63, 95); fill-opacity: 1; white-space: pre; opacity: 1;">0</text></g><g class="ytick"><text text-anchor="end" x="65.2" y="6.6499999999999995" style="font-family: 'Open Sans', verdana, arial, sans-serif; font-size: 19px; fill: rgb(42, 63, 95); fill-opacity: 1; white-space: pre; opacity: 1;" transform="translate(0,362.68)">2</text></g><g class="ytick"><text text-anchor="end" x="65.2" y="6.6499999999999995" style="font-family: 'Open Sans', verdana, arial, sans-serif; font-size: 19px; fill: rgb(42, 63, 95); fill-opacity: 1; white-space: pre; opacity: 1;" transform="translate(0,321.17)">4</text></g><g class="ytick"><text text-anchor="end" x="65.2" y="6.6499999999999995" style="font-family: 'Open Sans', verdana, arial, sans-serif; font-size: 19px; fill: rgb(42, 63, 95); fill-opacity: 1; white-space: pre; opacity: 1;" transform="translate(0,279.65999999999997)">6</text></g><g class="ytick"><text text-anchor="end" x="65.2" y="6.6499999999999995" style="font-family: 'Open Sans', verdana, arial, sans-serif; font-size: 19px; fill: rgb(42, 63, 95); fill-opacity: 1; white-space: pre; opacity: 1;" transform="translate(0,238.14)">8</text></g><g class="ytick"><text text-anchor="end" x="65.2" y="6.6499999999999995" style="font-family: 'Open Sans', verdana, arial, sans-serif; font-size: 19px; fill: rgb(42, 63, 95); fill-opacity: 1; white-space: pre; opacity: 1;" transform="translate(0,196.63)">10</text></g><g class="ytick"><text text-anchor="end" x="65.2" y="6.6499999999999995" style="font-family: 'Open Sans', verdana, arial, sans-serif; font-size: 19px; fill: rgb(42, 63, 95); fill-opacity: 1; white-space: pre; opacity: 1;" transform="translate(0,155.12)">12</text></g><g class="ytick"><text text-anchor="end" x="65.2" y="6.6499999999999995" style="font-family: 'Open Sans', verdana, arial, sans-serif; font-size: 19px; fill: rgb(42, 63, 95); fill-opacity: 1; white-space: pre; opacity: 1;" transform="translate(0,113.6)">14</text></g><g class="ytick"><text text-anchor="end" x="65.2" y="6.6499999999999995" style="font-family: 'Open Sans', verdana, arial, sans-serif; font-size: 19px; fill: rgb(42, 63, 95); fill-opacity: 1; white-space: pre; opacity: 1;" transform="translate(0,72.09)">16</text></g></g><g class="overaxes-above"/></g></g><g class="polarlayer"/><g class="ternarylayer"/><g class="geolayer"/><g class="funnelarealayer"/><g class="pielayer"/><g class="iciclelayer"/><g class="treemaplayer"/><g class="sunburstlayer"/><g class="glimages"/><defs id="topdefs-9bb41e"><g class="clips"/><clipPath id="legend9bb41e"><rect width="139" height="151" x="0" y="0"/></clipPath></defs><g class="layer-above"><g class="imagelayer"/><g class="shapelayer"/></g><g class="infolayer"><g class="legend" pointer-events="all" transform="translate(104.95,50)"><rect class="bg" shape-rendering="crispEdges" width="139" height="151" x="0" y="0" style="stroke: rgb(68, 68, 68); stroke-opacity: 1; fill: rgb(255, 255, 255); fill-opacity: 1; stroke-width: 0px;"/><g class="scrollbox" transform="" clip-path="url(#legend9bb41e)"><text class="legendtitletext" text-anchor="start" x="2" y="29.900000000000002" style="font-family: 'Open Sans', verdana, arial, sans-serif; font-size: 23px; fill: rgb(42, 63, 95); fill-opacity: 1; white-space: pre;">variable</text><g class="groups" transform=""><g class="traces" transform="translate(0,48.75)" style="opacity: 1;"><text class="legendtext" text-anchor="start" x="40" y="7.409999999999999" style="font-family: 'Open Sans', verdana, arial, sans-serif; font-size: 19px; fill: rgb(42, 63, 95); fill-opacity: 1; white-space: pre;">predictive</text><g class="layers" style="opacity: 1;"><g class="legendfill"/><g class="legendlines"><path class="js-line" d="M5,0h30" style="fill: none; stroke: rgb(76, 120, 168); stroke-opacity: 1; stroke-width: 3px;"/></g><g class="legendsymbols"><g class="legendpoints"/></g></g><rect class="legendtoggle" x="0" y="-13.85" width="133.46875" height="27.7" style="fill: rgb(0, 0, 0); fill-opacity: 0;"/></g></g><g class="groups" transform=""><g class="traces" transform="translate(0,76.45)" style="opacity: 1;"><text class="legendtext" text-anchor="start" x="40" y="7.409999999999999" style="font-family: 'Open Sans', verdana, arial, sans-serif; font-size: 19px; fill: rgb(42, 63, 95); fill-opacity: 1; white-space: pre;">perfect</text><g class="layers" style="opacity: 1;"><g class="legendfill"/><g class="legendlines"><path class="js-line" d="M5,0h30" style="fill: none; stroke: rgb(245, 133, 24); stroke-opacity: 1; stroke-width: 5px;"/></g><g class="legendsymbols"><g class="legendpoints"/></g></g><rect class="legendtoggle" x="0" y="-13.85" width="133.46875" height="27.7" style="fill: rgb(0, 0, 0); fill-opacity: 0;"/></g></g><g class="groups" transform=""><g class="traces" transform="translate(0,104.14999999999999)" style="opacity: 1;"><text class="legendtext" text-anchor="start" x="40" y="7.409999999999999" style="font-family: 'Open Sans', verdana, arial, sans-serif; font-size: 19px; fill: rgb(42, 63, 95); fill-opacity: 1; white-space: pre;">pv only</text><g class="layers" style="opacity: 1;"><g class="legendfill"/><g class="legendlines"><path class="js-line" d="M5,0h30" style="fill: none; stroke: rgb(228, 87, 86); stroke-opacity: 1; stroke-width: 5px;"/></g><g class="legendsymbols"><g class="legendpoints"/></g></g><rect class="legendtoggle" x="0" y="-13.85" width="133.46875" height="27.7" style="fill: rgb(0, 0, 0); fill-opacity: 0;"/></g></g><g class="groups" transform=""><g class="traces" transform="translate(0,131.85)" style="opacity: 1;"><text class="legendtext" text-anchor="start" x="40" y="7.409999999999999" style="font-family: 'Open Sans', verdana, arial, sans-serif; font-size: 19px; fill: rgb(42, 63, 95); fill-opacity: 1; white-space: pre;">reactive</text><g class="layers" style="opacity: 1;"><g class="legendfill"/><g class="legendlines"><path class="js-line" d="M5,0h30" style="fill: none; stroke: rgb(114, 183, 178); stroke-opacity: 1; stroke-width: 3px;"/></g><g class="legendsymbols"><g class="legendpoints"/></g></g><rect class="legendtoggle" x="0" y="-13.85" width="133.46875" height="27.7" style="fill: rgb(0, 0, 0); fill-opacity: 0;"/></g></g></g><rect class="scrollbar" rx="20" ry="3" width="0" height="0" x="0" y="0" style="fill: rgb(128, 139, 164); fill-opacity: 1;"/></g><g class="g-gtitle"/><g class="g-xtitle"/><g class="g-ytitle" transform="translate(13.068359375,0)"><text class="ytitle" transform="rotate(-90,9.931250000000006,235)" x="9.931250000000006" y="235" text-anchor="middle" style="font-family: 'Open Sans', verdana, arial, sans-serif; font-size: 23px; fill: rgb(42, 63, 95); opacity: 1; font-weight: normal; white-space: pre;">Community cost [€]</text></g></g></svg>