<svg class="main-svg" xmlns="http://www.w3.org/2000/svg" xmlns:xlink="http://www.w3.org/1999/xlink" width="1000" height="500" viewBox="0 0 1000 500"><rect x="0" y="0" width="1000" height="500" style="fill: rgb(255, 255, 255); fill-opacity: 1;"/><defs id="defs-ff8998"><g class="clips"><clipPath id="clipff8998xyplot" class="plotclip"><rect width="867" height="385"/></clipPath><clipPath class="axesclip" id="clipff8998x"><rect x="83" y="0" width="867" height="500"/></clipPath><clipPath class="axesclip" id="clipff8998y"><rect x="0" y="50" width="1000" height="385"/></clipPath><clipPath class="axesclip" id="clipff8998xy"><rect x="83" y="50" width="867" height="385"/></clipPath></g><g class="gradients"/><g class="patterns"/></defs><g class="bglayer"/><g class="layer-below"><g class="imagelayer"/><g class="shapelayer"/></g><g class="cartesianlayer"><g class="subplot xy"><g class="layer-subplot"><g class="shapelayer"/><g class="imagelayer"/></g><g class="gridlayer"><g class="x"><path class="xgrid crisp" transform="translate(85.87,0)" d="M0,50v385" style="stroke: rgb(235, 240, 248); stroke-opacity: 1; stroke-width: 1px;"/><path class="xgrid crisp" transform="translate(157.64,0)" d="M0,50v385" style="stroke: rgb(235, 240, 248); stroke-opacity: 1; stroke-width: 1px;"/><path class="xgrid crisp" transform="translate(229.41,0)" d="M0,50v385" style="stroke: rgb(235, 240, 248); stroke-opacity: 1; stroke-width: 1px;"/><path class="xgrid crisp" transform="translate(301.19,0)" d="M0,50v385" style="stroke: rgb(235, 240, 248); stroke-opacity: 1; stroke-width: 1px;"/><path class="xgrid crisp" transform="translate(372.96,0)" d="M0,50v385" style="stroke: rgb(235, 240, 248); stroke-opacity: 1; stroke-width: 1px;"/><path class="xgrid crisp" transform="translate(444.73,0)" d="M0,50v385" style="stroke: rgb(235, 240, 248); stroke-opacity: 1; stroke-width: 1px;"/><path class="xgrid crisp" transform="translate(516.5,0)" d="M0,50v385" style="stroke: rgb(235, 240, 248); stroke-opacity: 1; stroke-width: 1px;"/><path class="xgrid crisp" transform="translate(588.27,0)" d="M0,50v385" style="stroke: rgb(235, 240, 248); stroke-opacity: 1; stroke-width: 1px;"/><path class="xgrid crisp" transform="translate(660.04,0)" d="M0,50v385" style="stroke: rgb(235, 240, 248); stroke-opacity: 1; stroke-width: 1px;"/><path class="xgrid crisp" transform="translate(731.81,0)" d="M0,50v385" style="stroke: rgb(235, 240, 248); stroke-opacity: 1; stroke-width: 1px;"/><path class="xgrid crisp" transform="translate(803.59,0)" d="M0,50v385" style="stroke: rgb(235, 240, 248); stroke-opacity: 1; stroke-width: 1px;"/><path class="xgrid crisp" transform="translate(875.36,0)" d="M0,50v385" style="stroke: rgb(235, 240, 248); stroke-opacity: 1; stroke-width: 1px;"/><path class="xgrid crisp" transform="translate(947.13,0)" d="M0,50v385" style="stroke: rgb(235, 240, 248); stroke-opacity: 1; stroke-width: 1px;"/></g><g class="y"><path class="ygrid crisp" transform="translate(0,398.43)" d="M83,0h867" style="stroke: rgb(235, 240, 248); stroke-opacity: 1; stroke-width: 1px;"/><path class="ygrid crisp" transform="translate(0,361.85)" d="M83,0h867" style="stroke: rgb(235, 240, 248); stroke-opacity: 1; stroke-width: 1px;"/><path class="ygrid crisp" transform="translate(0,325.27)" d="M83,0h867" style="stroke: rgb(235, 240, 248); stroke-opacity: 1; stroke-width: 1px;"/><path class="ygrid crisp" transform="translate(0,288.7)" d="M83,0h867" style="stroke: rgb(235, 240, 248); stroke-opacity: 1; stroke-width: 1px;"/><path class="ygrid crisp" transform="translate(0,252.13)" d="M83,0h867" style="stroke: rgb(235, 240, 248); stroke-opacity: 1; stroke-width: 1px;"/><path class="ygrid crisp" transform="translate(0,215.55)" d="M83,0h867" style="stroke: rgb(235, 240, 248); stroke-opacity: 1; stroke-width: 1px;"/><path class="ygrid crisp" transform="translate(0,178.98)" d="M83,0h867" style="stroke: rgb(235, 240, 248); stroke-opacity: 1; stroke-width: 1px;"/><path class="ygrid crisp" transform="translate(0,142.4)" d="M83,0h867" style="stroke: rgb(235, 240, 248); stroke-opacity: 1; stroke-width: 1px;"/><path class="ygrid crisp" transform="translate(0,105.83)" d="M83,0h867" style="stroke: rgb(235, 240, 248); stroke-opacity: 1; stroke-width: 1px;"/><path class="ygrid crisp" transform="translate(0,69.25)" d="M83,0h867" style="stroke: rgb(235, 240, 248); stroke-opacity: 1; stroke-width: 1px;"/></g></g><g class="zerolinelayer"><path class="yzl zl crisp" transform="translate(0,435)" d="M83,0h867" style="stroke: rgb(0, 0, 0); stroke-opacity: 1; stroke-width: 2px;"/></g><path class="xlines-below"/><path class="ylines-below"/><g class="overlines-below"/><g class="xaxislayer-below"/><g class="yaxislayer-below"/><g class="overaxes-below"/><g class="plot" transform="translate(83,50)" clip-path="url(#clipff8998xyplot)"><g class="scatterlayer mlayer"><g class="trace scatter tracea853c2" style="stroke-miterlimit: 2;"><g class="fills"><g><path class="js-fill" d="M330.44,385L222.49,385L222.49,384.63H226.22V384.27H227.09V383.9H228.52V383.54H230.24V383.17H232.25V382.81H235.7V382.44H235.98V382.07H236.27V381.71H237.13V381.34H237.42V380.98H238.86V380.61H239.14V380.25H239.43V379.88H239.72V379.51H239.72V379.15H239.72V378.78H240V378.42H240V378.05H240V377.69H240.29V377.32H240.29V376.95H240.29V376.59H240.29V376.22H240.87V375.86H240.87V375.49H241.44V375.12H242.01V374.76H242.3V374.39H242.59V374.03H242.59V373.66H243.16V373.3H243.16V372.93H243.16V372.56H244.02V372.2H244.31V371.83H244.31V371.47H244.31V371.1H244.31V370.74H244.31V370.37H244.6V370H244.6V369.64H244.88V369.27H244.88V368.91H244.88V368.54H245.17V368.18H245.46V367.81H245.46V367.44H245.46V367.08H245.46V366.71H245.46V366.35H245.46V365.98H245.75V365.62H246.03V365.25H246.03V364.88H246.03V364.52H246.03V364.15H246.32V363.79H246.32V363.42H246.32V363.06H246.32V362.69H246.61V362.32H246.61V361.96H247.47V361.59H247.47V361.23H247.47V360.86H247.76V360.49H247.76V360.13H248.04V359.76H248.33V359.4H248.33V359.03H248.33V358.67H248.9V358.3H249.19V357.93H249.48V357.57H249.48V357.2H249.76V356.84H249.76V356.47H250.05V356.11H250.05V355.74H250.34V355.37H250.34V355.01H250.34V354.64H250.63V354.28H250.91V353.91H250.91V353.55H250.91V353.18H250.91V352.81H251.2V352.45H251.2V352.08H251.2V351.72H251.2V351.35H251.2V350.99H251.77V350.62H251.77V350.25H252.06V349.89H252.06V349.52H252.35V349.16H252.35V348.79H252.35V348.43H252.35V348.06H252.35V347.69H252.92V347.33H253.21V346.96H253.21V346.6H253.5V346.23H253.5V345.86H253.5V345.5H253.78V345.13H253.78V344.77H253.78V344.4H254.07V344.04H254.07V343.67H254.07V343.3H254.07V342.94H254.07V342.57H254.36V342.21H254.36V341.84H254.36V341.48H254.65V341.11H254.65V340.74H254.65V340.38H254.65V340.01H254.65V339.65H254.65V339.28H254.65V338.92H254.93V338.55H255.22V338.18H255.22V337.82H255.22V337.45H255.22V337.09H255.51V336.72H255.51V336.36H255.51V335.99H255.51V335.62H255.51V335.26H255.51V334.89H255.51V334.53H255.79V334.16H255.79V333.8H255.79V333.43H255.79V333.06H255.79V332.7H256.08V332.33H256.08V331.97H256.08V331.6H256.08V331.23H256.08V330.87H256.08V330.5H256.08V330.14H256.37V329.77H256.37V329.41H256.65V329.04H256.65V328.67H256.65V328.31H256.65V327.94H256.94V327.58H256.94V327.21H257.23V326.85H257.23V326.48H257.52V326.11H257.52V325.75H257.52V325.38H257.52V325.02H257.52V324.65H257.8V324.29H257.8V323.92H257.8V323.55H257.8V323.19H257.8V322.82H257.8V322.46H258.09V322.09H258.09V321.73H258.38V321.36H258.38V320.99H258.66V320.63H258.66V320.26H258.66V319.9H258.66V319.53H258.95V319.17H258.95V318.8H258.95V318.43H258.95V318.07H258.95V317.7H258.95V317.34H258.95V316.97H258.95V316.6H258.95V316.24H258.95V315.87H259.24V315.51H259.24V315.14H259.24V314.78H259.24V314.41H259.24V314.04H259.24V313.68H259.24V313.31H259.53V312.95H259.53V312.58H259.53V312.22H259.53V311.85H259.53V311.48H259.53V311.12H259.81V310.75H259.81V310.39H259.81V310.02H259.81V309.66H260.1V309.29H260.1V308.92H260.1V308.56H260.1V308.19H260.1V307.83H260.1V307.46H260.1V307.1H260.39V306.73H260.39V306.36H260.39V306H260.39V305.63H260.39V305.27H260.39V304.9H260.39V304.54H260.67V304.17H260.67V303.8H260.67V303.44H260.67V303.07H260.96V302.71H260.96V302.34H260.96V301.97H260.96V301.61H260.96V301.24H261.25V300.88H261.25V300.51H261.25V300.15H261.25V299.78H261.54V299.41H261.54V299.05H261.54V298.68H261.54V298.32H261.54V297.95H261.54V297.59H261.54V297.22H261.82V296.85H261.82V296.49H261.82V296.12H261.82V295.76H261.82V295.39H261.82V295.03H262.11V294.66H262.11V294.29H262.11V293.93H262.11V293.56H262.11V293.2H262.11V292.83H262.4V292.47H262.4V292.1H262.4V291.73H262.4V291.37H262.68V291H262.68V290.64H262.68V290.27H262.68V289.9H262.68V289.54H262.97V289.17H262.97V288.81H262.97V288.44H262.97V288.08H262.97V287.71H263.26V287.34H263.26V286.98H263.26V286.61H263.26V286.25H263.26V285.88H263.26V285.52H263.26V285.15H263.55V284.78H263.55V284.42H263.55V284.05H263.83V283.69H263.83V283.32H263.83V282.96H263.83V282.59H263.83V282.22H263.83V281.86H264.12V281.49H264.12V281.13H264.12V280.76H264.41V280.4H264.41V280.03H264.41V279.66H264.41V279.3H264.41V278.93H264.69V278.57H264.69V278.2H264.69V277.84H264.98V277.47H264.98V277.1H264.98V276.74H264.98V276.37H264.98V276.01H264.98V275.64H265.27V275.27H265.27V274.91H265.27V274.54H265.27V274.18H265.27V273.81H265.55V273.45H265.55V273.08H265.55V272.71H265.55V272.35H265.55V271.98H265.84V271.62H265.84V271.25H265.84V270.89H265.84V270.52H265.84V270.15H265.84V269.79H265.84V269.42H265.84V269.06H266.13V268.69H266.13V268.33H266.13V267.96H266.42V267.59H266.42V267.23H266.42V266.86H266.42V266.5H266.42V266.13H266.42V265.77H266.42V265.4H266.42V265.03H266.42V264.67H266.42V264.3H266.42V263.94H266.7V263.57H266.7V263.21H266.7V262.84H266.7V262.47H266.7V262.11H266.7V261.74H266.99V261.38H266.99V261.01H266.99V260.65H266.99V260.28H267.28V259.91H267.28V259.55H267.28V259.18H267.28V258.82H267.28V258.45H267.28V258.08H267.56V257.72H267.56V257.35H267.56V256.99H267.56V256.62H267.56V256.26H267.56V255.89H267.56V255.52H267.56V255.16H267.85V254.79H267.85V254.43H267.85V254.06H267.85V253.7H267.85V253.33H268.14V252.96H268.14V252.6H268.14V252.23H268.14V251.87H268.43V251.5H268.43V251.14H268.43V250.77H268.43V250.4H268.71V250.04H268.71V249.67H268.71V249.31H269V248.94H269V248.58H269V248.21H269V247.84H269V247.48H269.29V247.11H269.29V246.75H269.29V246.38H269.29V246.02H269.29V245.65H269.29V245.28H269.29V244.92H269.29V244.55H269.29V244.19H269.57V243.82H269.57V243.45H269.57V243.09H269.57V242.72H269.57V242.36H269.57V241.99H269.57V241.63H269.86V241.26H269.86V240.89H269.86V240.53H269.86V240.16H269.86V239.8H269.86V239.43H269.86V239.07H269.86V238.7H270.15V238.33H270.15V237.97H270.15V237.6H270.15V237.24H270.15V236.87H270.15V236.51H270.15V236.14H270.15V235.77H270.44V235.41H270.44V235.04H270.44V234.68H270.44V234.31H270.44V233.95H270.44V233.58H270.44V233.21H270.44V232.85H270.44V232.48H270.44V232.12H270.72V231.75H270.72V231.39H270.72V231.02H270.72V230.65H270.72V230.29H270.72V229.92H270.72V229.56H270.72V229.19H270.72V228.82H271.01V228.46H271.01V228.09H271.01V227.73H271.01V227.36H271.01V227H271.3V226.63H271.3V226.26H271.3V225.9H271.3V225.53H271.3V225.17H271.3V224.8H271.58V224.44H271.58V224.07H271.58V223.7H271.58V223.34H271.58V222.97H271.58V222.61H271.58V222.24H271.58V221.88H271.58V221.51H271.87V221.14H271.87V220.78H271.87V220.41H271.87V220.05H271.87V219.68H272.16V219.32H272.16V218.95H272.16V218.58H272.16V218.22H272.16V217.85H272.44V217.49H272.44V217.12H272.44V216.76H272.44V216.39H272.44V216.02H272.44V215.66H272.44V215.29H272.44V214.93H272.44V214.56H272.73V214.19H272.73V213.83H272.73V213.46H272.73V213.1H272.73V212.73H272.73V212.37H272.73V212H272.73V211.63H272.73V211.27H272.73V210.9H272.73V210.54H272.73V210.17H273.02V209.81H273.02V209.44H273.02V209.07H273.02V208.71H273.02V208.34H273.02V207.98H273.02V207.61H273.02V207.25H273.02V206.88H273.31V206.51H273.31V206.15H273.31V205.78H273.31V205.42H273.31V205.05H273.31V204.69H273.31V204.32H273.31V203.95H273.31V203.59H273.59V203.22H273.59V202.86H273.59V202.49H273.59V202.13H273.88V201.76H273.88V201.39H273.88V201.03H273.88V200.66H273.88V200.3H273.88V199.93H273.88V199.56H274.17V199.2H274.17V198.83H274.17V198.47H274.17V198.1H274.17V197.74H274.17V197.37H274.17V197H274.17V196.64H274.17V196.27H274.17V195.91H274.45V195.54H274.45V195.18H274.45V194.81H274.74V194.44H274.74V194.08H274.74V193.71H274.74V193.35H274.74V192.98H275.03V192.62H275.03V192.25H275.03V191.88H275.03V191.52H275.03V191.15H275.03V190.79H275.03V190.42H275.03V190.06H275.32V189.69H275.32V189.32H275.32V188.96H275.32V188.59H275.32V188.23H275.32V187.86H275.32V187.5H275.32V187.13H275.32V186.76H275.32V186.4H275.6V186.03H275.6V185.67H275.6V185.3H275.6V184.93H275.6V184.57H275.6V184.2H275.6V183.84H275.89V183.47H275.89V183.11H275.89V182.74H275.89V182.37H275.89V182.01H275.89V181.64H275.89V181.28H275.89V180.91H276.18V180.55H276.18V180.18H276.18V179.81H276.18V179.45H276.18V179.08H276.18V178.72H276.18V178.35H276.18V177.99H276.18V177.62H276.18V177.25H276.18V176.89H276.18V176.52H276.46V176.16H276.46V175.79H276.46V175.43H276.46V175.06H276.46V174.69H276.46V174.33H276.75V173.96H276.75V173.6H276.75V173.23H276.75V172.87H276.75V172.5H276.75V172.13H276.75V171.77H276.75V171.4H276.75V171.04H277.04V170.67H277.04V170.3H277.04V169.94H277.04V169.57H277.04V169.21H277.04V168.84H277.04V168.48H277.04V168.11H277.04V167.74H277.04V167.38H277.04V167.01H277.33V166.65H277.33V166.28H277.33V165.92H277.61V165.55H277.61V165.18H277.61V164.82H277.61V164.45H277.61V164.09H277.9V163.72H277.9V163.36H277.9V162.99H277.9V162.62H277.9V162.26H277.9V161.89H277.9V161.53H277.9V161.16H277.9V160.8H278.19V160.43H278.47V160.06H278.47V159.7H278.47V159.33H278.47V158.97H278.47V158.6H278.47V158.24H278.76V157.87H278.76V157.5H278.76V157.14H278.76V156.77H279.05V156.41H279.05V156.04H279.05V155.67H279.05V155.31H279.05V154.94H279.33V154.58H279.33V154.21H279.33V153.85H279.33V153.48H279.33V153.11H279.33V152.75H279.33V152.38H279.33V152.02H279.33V151.65H279.33V151.29H279.33V150.92H279.62V150.55H279.62V150.19H279.91V149.82H279.91V149.46H279.91V149.09H279.91V148.73H279.91V148.36H280.2V147.99H280.2V147.63H280.2V147.26H280.2V146.9H280.2V146.53H280.2V146.17H280.2V145.8H280.2V145.43H280.2V145.07H280.2V144.7H280.48V144.34H280.48V143.97H280.77V143.61H280.77V143.24H280.77V142.87H280.77V142.51H281.06V142.14H281.06V141.78H281.06V141.41H281.06V141.04H281.06V140.68H281.34V140.31H281.34V139.95H281.34V139.58H281.34V139.22H281.34V138.85H281.34V138.48H281.34V138.12H281.34V137.75H281.34V137.39H281.63V137.02H281.63V136.66H281.63V136.29H281.63V135.92H281.63V135.56H281.63V135.19H281.63V134.83H281.92V134.46H281.92V134.1H281.92V133.73H281.92V133.36H281.92V133H282.21V132.63H282.21V132.27H282.21V131.9H282.49V131.54H282.49V131.17H282.49V130.8H282.49V130.44H282.49V130.07H282.49V129.71H282.78V129.34H282.78V128.98H282.78V128.61H282.78V128.24H282.78V127.88H282.78V127.51H282.78V127.15H282.78V126.78H282.78V126.41H283.07V126.05H283.07V125.68H283.07V125.32H283.07V124.95H283.35V124.59H283.35V124.22H283.35V123.85H283.64V123.49H283.64V123.12H283.64V122.76H283.64V122.39H283.64V122.03H283.93V121.66H283.93V121.29H283.93V120.93H283.93V120.56H283.93V120.2H283.93V119.83H284.5V119.47H284.5V119.1H284.5V118.73H284.79V118.37H284.79V118H284.79V117.64H284.79V117.27H285.08V116.91H285.08V116.54H285.36V116.17H285.36V115.81H285.36V115.44H285.36V115.08H285.36V114.71H285.36V114.35H285.65V113.98H285.65V113.61H285.65V113.25H285.65V112.88H285.65V112.52H285.65V112.15H285.94V111.78H285.94V111.42H285.94V111.05H285.94V110.69H286.22V110.32H286.22V109.96H286.22V109.59H286.22V109.22H286.22V108.86H286.51V108.49H286.51V108.13H286.51V107.76H286.51V107.4H286.51V107.03H286.51V106.66H286.51V106.3H286.8V105.93H286.8V105.57H286.8V105.2H286.8V104.84H287.09V104.47H287.09V104.1H287.09V103.74H287.09V103.37H287.09V103.01H287.37V102.64H287.66V102.28H287.66V101.91H287.66V101.54H287.66V101.18H287.66V100.81H287.66V100.45H287.66V100.08H287.66V99.72H287.95V99.35H287.95V98.98H287.95V98.62H287.95V98.25H288.23V97.89H288.23V97.52H288.23V97.15H288.23V96.79H288.23V96.42H288.23V96.06H288.52V95.69H288.52V95.33H288.52V94.96H288.52V94.59H288.52V94.23H288.52V93.86H288.81V93.5H288.81V93.13H288.81V92.77H288.81V92.4H288.81V92.03H288.81V91.67H289.1V91.3H289.1V90.94H289.1V90.57H289.1V90.21H289.38V89.84H289.38V89.47H289.67V89.11H289.67V88.74H289.96V88.38H289.96V88.01H289.96V87.65H289.96V87.28H290.24V86.91H290.24V86.55H290.24V86.18H290.24V85.82H290.53V85.45H290.53V85.09H290.53V84.72H290.53V84.35H290.53V83.99H290.82V83.62H290.82V83.26H290.82V82.89H290.82V82.52H290.82V82.16H291.11V81.79H291.11V81.43H291.11V81.06H291.11V80.7H291.11V80.33H291.11V79.96H291.39V79.6H291.39V79.23H291.39V78.87H291.68V78.5H291.68V78.14H291.68V77.77H291.68V77.4H291.97V77.04H291.97V76.67H291.97V76.31H291.97V75.94H291.97V75.58H291.97V75.21H291.97V74.84H292.25V74.48H292.25V74.11H292.54V73.75H292.54V73.38H292.54V73.02H292.54V72.65H292.54V72.28H292.54V71.92H292.83V71.55H292.83V71.19H292.83V70.82H292.83V70.46H293.11V70.09H293.11V69.72H293.11V69.36H293.11V68.99H293.4V68.63H293.4V68.26H293.4V67.89H293.69V67.53H293.69V67.16H293.69V66.8H293.69V66.43H293.69V66.07H293.69V65.7H293.69V65.33H293.69V64.97H293.98V64.6H293.98V64.24H293.98V63.87H294.26V63.51H294.26V63.14H294.26V62.77H294.55V62.41H294.55V62.04H294.55V61.68H294.55V61.31H294.84V60.95H294.84V60.58H294.84V60.21H295.12V59.85H295.41V59.48H295.41V59.12H295.7V58.75H295.7V58.39H295.7V58.02H295.99V57.65H295.99V57.29H295.99V56.92H295.99V56.56H296.27V56.19H296.27V55.83H296.56V55.46H296.56V55.09H296.56V54.73H296.56V54.36H296.56V54H296.56V53.63H296.85V53.26H296.85V52.9H297.13V52.53H297.13V52.17H297.42V51.8H297.42V51.44H297.42V51.07H297.71V50.7H298V50.34H298V49.97H298V49.61H298.28V49.24H298.28V48.88H298.28V48.51H299.14V48.14H299.14V47.78H299.14V47.41H299.14V47.05H299.43V46.68H299.43V46.32H299.43V45.95H299.43V45.58H299.43V45.22H299.72V44.85H300V44.49H300.58V44.12H300.87V43.76H300.87V43.39H300.87V43.02H300.87V42.66H301.15V42.29H301.15V41.93H301.44V41.56H301.44V41.2H301.44V40.83H302.01V40.46H302.59V40.1H302.88V39.73H303.16V39.37H303.74V39H304.02V38.63H304.02V38.27H304.02V37.9H304.31V37.54H304.6V37.17H304.6V36.81H304.6V36.44H304.6V36.07H304.89V35.71H304.89V35.34H304.89V34.98H304.89V34.61H305.17V34.25H305.17V33.88H305.75V33.51H305.75V33.15H305.75V32.78H306.32V32.42H306.32V32.05H307.18V31.69H307.18V31.32H307.18V30.95H307.76V30.59H307.76V30.22H308.33V29.86H308.9V29.49H308.9V29.13H309.19V28.76H309.48V28.39H309.77V28.03H310.05V27.66H310.05V27.3H310.34V26.93H310.63V26.57H310.63V26.2H310.63V25.83H312.35V25.47H313.21V25.1H314.36V24.74H314.65V24.37H314.65V24H315.22V23.64H315.79V23.27H315.79V22.91H315.79V22.54H316.66V22.18H318.38V21.81H318.95V21.44H320.96V21.08H321.25V20.71H321.82V20.35H324.12V19.98H326.7V19.62H330.44V19.25" style="fill: rgb(55, 128, 191); fill-opacity: 0.2; stroke-width: 0;"/></g></g><g class="errorbars"/><g class="lines"><path class="js-line" d="M222.49,384.63H226.22V384.27H227.09V383.9H228.52V383.54H230.24V383.17H232.25V382.81H235.7V382.44H235.98V382.07H236.27V381.71H237.13V381.34H237.42V380.98H238.86V380.61H239.14V380.25H239.43V379.88H239.72V379.51H239.72V379.15H239.72V378.78H240V378.42H240V378.05H240V377.69H240.29V377.32H240.29V376.95H240.29V376.59H240.29V376.22H240.87V375.86H240.87V375.49H241.44V375.12H242.01V374.76H242.3V374.39H242.59V374.03H242.59V373.66H243.16V373.3H243.16V372.93H243.16V372.56H244.02V372.2H244.31V371.83H244.31V371.47H244.31V371.1H244.31V370.74H244.31V370.37H244.6V370H244.6V369.64H244.88V369.27H244.88V368.91H244.88V368.54H245.17V368.18H245.46V367.81H245.46V367.44H245.46V367.08H245.46V366.71H245.46V366.35H245.46V365.98H245.75V365.62H246.03V365.25H246.03V364.88H246.03V364.52H246.03V364.15H246.32V363.79H246.32V363.42H246.32V363.06H246.32V362.69H246.61V362.32H246.61V361.96H247.47V361.59H247.47V361.23H247.47V360.86H247.76V360.49H247.76V360.13H248.04V359.76H248.33V359.4H248.33V359.03H248.33V358.67H248.9V358.3H249.19V357.93H249.48V357.57H249.48V357.2H249.76V356.84H249.76V356.47H250.05V356.11H250.05V355.74H250.34V355.37H250.34V355.01H250.34V354.64H250.63V354.28H250.91V353.91H250.91V353.55H250.91V353.18H250.91V352.81H251.2V352.45H251.2V352.08H251.2V351.72H251.2V351.35H251.2V350.99H251.77V350.62H251.77V350.25H252.06V349.89H252.06V349.52H252.35V349.16H252.35V348.79H252.35V348.43H252.35V348.06H252.35V347.69H252.92V347.33H253.21V346.96H253.21V346.6H253.5V346.23H253.5V345.86H253.5V345.5H253.78V345.13H253.78V344.77H253.78V344.4H254.07V344.04H254.07V343.67H254.07V343.3H254.07V342.94H254.07V342.57H254.36V342.21H254.36V341.84H254.36V341.48H254.65V341.11H254.65V340.74H254.65V340.38H254.65V340.01H254.65V339.65H254.65V339.28H254.65V338.92H254.93V338.55H255.22V338.18H255.22V337.82H255.22V337.45H255.22V337.09H255.51V336.72H255.51V336.36H255.51V335.99H255.51V335.62H255.51V335.26H255.51V334.89H255.51V334.53H255.79V334.16H255.79V333.8H255.79V333.43H255.79V333.06H255.79V332.7H256.08V332.33H256.08V331.97H256.08V331.6H256.08V331.23H256.08V330.87H256.08V330.5H256.08V330.14H256.37V329.77H256.37V329.41H256.65V329.04H256.65V328.67H256.65V328.31H256.65V327.94H256.94V327.58H256.94V327.21H257.23V326.85H257.23V326.48H257.52V326.11H257.52V325.75H257.52V325.38H257.52V325.02H257.52V324.65H257.8V324.29H257.8V323.92H257.8V323.55H257.8V323.19H257.8V322.82H257.8V322.46H258.09V322.09H258.09V321.73H258.38V321.36H258.38V320.99H258.66V320.63H258.66V320.26H258.66V319.9H258.66V319.53H258.95V319.17H258.95V318.8H258.95V318.43H258.95V318.07H258.95V317.7H258.95V317.34H258.95V316.97H258.95V316.6H258.95V316.24H258.95V315.87H259.24V315.51H259.24V315.14H259.24V314.78H259.24V314.41H259.24V314.04H259.24V313.68H259.24V313.31H259.53V312.95H259.53V312.58H259.53V312.22H259.53V311.85H259.53V311.48H259.53V311.12H259.81V310.75H259.81V310.39H259.81V310.02H259.81V309.66H260.1V309.29H260.1V308.92H260.1V308.56H260.1V308.19H260.1V307.83H260.1V307.46H260.1V307.1H260.39V306.73H260.39V306.36H260.39V306H260.39V305.63H260.39V305.27H260.39V304.9H260.39V304.54H260.67V304.17H260.67V303.8H260.67V303.44H260.67V303.07H260.96V302.71H260.96V302.34H260.96V301.97H260.96V301.61H260.96V301.24H261.25V300.88H261.25V300.51H261.25V300.15H261.25V299.78H261.54V299.41H261.54V299.05H261.54V298.68H261.54V298.32H261.54V297.95H261.54V297.59H261.54V297.22H261.82V296.85H261.82V296.49H261.82V296.12H261.82V295.76H261.82V295.39H261.82V295.03H262.11V294.66H262.11V294.29H262.11V293.93H262.11V293.56H262.11V293.2H262.11V292.83H262.4V292.47H262.4V292.1H262.4V291.73H262.4V291.37H262.68V291H262.68V290.64H262.68V290.27H262.68V289.9H262.68V289.54H262.97V289.17H262.97V288.81H262.97V288.44H262.97V288.08H262.97V287.71H263.26V287.34H263.26V286.98H263.26V286.61H263.26V286.25H263.26V285.88H263.26V285.52H263.26V285.15H263.55V284.78H263.55V284.42H263.55V284.05H263.83V283.69H263.83V283.32H263.83V282.96H263.83V282.59H263.83V282.22H263.83V281.86H264.12V281.49H264.12V281.13H264.12V280.76H264.41V280.4H264.41V280.03H264.41V279.66H264.41V279.3H264.41V278.93H264.69V278.57H264.69V278.2H264.69V277.84H264.98V277.47H264.98V277.1H264.98V276.74H264.98V276.37H264.98V276.01H264.98V275.64H265.27V275.27H265.27V274.91H265.27V274.54H265.27V274.18H265.27V273.81H265.55V273.45H265.55V273.08H265.55V272.71H265.55V272.35H265.55V271.98H265.84V271.62H265.84V271.25H265.84V270.89H265.84V270.52H265.84V270.15H265.84V269.79H265.84V269.42H265.84V269.06H266.13V268.69H266.13V268.33H266.13V267.96H266.42V267.59H266.42V267.23H266.42V266.86H266.42V266.5H266.42V266.13H266.42V265.77H266.42V265.4H266.42V265.03H266.42V264.67H266.42V264.3H266.42V263.94H266.7V263.57H266.7V263.21H266.7V262.84H266.7V262.47H266.7V262.11H266.7V261.74H266.99V261.38H266.99V261.01H266.99V260.65H266.99V260.28H267.28V259.91H267.28V259.55H267.28V259.18H267.28V258.82H267.28V258.45H267.28V258.08H267.56V257.72H267.56V257.35H267.56V256.99H267.56V256.62H267.56V256.26H267.56V255.89H267.56V255.52H267.56V255.16H267.85V254.79H267.85V254.43H267.85V254.06H267.85V253.7H267.85V253.33H268.14V252.96H268.14V252.6H268.14V252.23H268.14V251.87H268.43V251.5H268.43V251.14H268.43V250.77H268.43V250.4H268.71V250.04H268.71V249.67H268.71V249.31H269V248.94H269V248.58H269V248.21H269V247.84H269V247.48H269.29V247.11H269.29V246.75H269.29V246.38H269.29V246.02H269.29V245.65H269.29V245.28H269.29V244.92H269.29V244.55H269.29V244.19H269.57V243.82H269.57V243.45H269.57V243.09H269.57V242.72H269.57V242.36H269.57V241.99H269.57V241.63H269.86V241.26H269.86V240.89H269.86V240.53H269.86V240.16H269.86V239.8H269.86V239.43H269.86V239.07H269.86V238.7H270.15V238.33H270.15V237.97H270.15V237.6H270.15V237.24H270.15V236.87H270.15V236.51H270.15V236.14H270.15V235.77H270.44V235.41H270.44V235.04H270.44V234.68H270.44V234.31H270.44V233.95H270.44V233.58H270.44V233.21H270.44V232.85H270.44V232.48H270.44V232.12H270.72V231.75H270.72V231.39H270.72V231.02H270.72V230.65H270.72V230.29H270.72V229.92H270.72V229.56H270.72V229.19H270.72V228.82H271.01V228.46H271.01V228.09H271.01V227.73H271.01V227.36H271.01V227H271.3V226.63H271.3V226.26H271.3V225.9H271.3V225.53H271.3V225.17H271.3V224.8H271.58V224.44H271.58V224.07H271.58V223.7H271.58V223.34H271.58V222.97H271.58V222.61H271.58V222.24H271.58V221.88H271.58V221.51H271.87V221.14H271.87V220.78H271.87V220.41H271.87V220.05H271.87V219.68H272.16V219.32H272.16V218.95H272.16V218.58H272.16V218.22H272.16V217.85H272.44V217.49H272.44V217.12H272.44V216.76H272.44V216.39H272.44V216.02H272.44V215.66H272.44V215.29H272.44V214.93H272.44V214.56H272.73V214.19H272.73V213.83H272.73V213.46H272.73V213.1H272.73V212.73H272.73V212.37H272.73V212H272.73V211.63H272.73V211.27H272.73V210.9H272.73V210.54H272.73V210.17H273.02V209.81H273.02V209.44H273.02V209.07H273.02V208.71H273.02V208.34H273.02V207.98H273.02V207.61H273.02V207.25H273.02V206.88H273.31V206.51H273.31V206.15H273.31V205.78H273.31V205.42H273.31V205.05H273.31V204.69H273.31V204.32H273.31V203.95H273.31V203.59H273.59V203.22H273.59V202.86H273.59V202.49H273.59V202.13H273.88V201.76H273.88V201.39H273.88V201.03H273.88V200.66H273.88V200.3H273.88V199.93H273.88V199.56H274.17V199.2H274.17V198.83H274.17V198.47H274.17V198.1H274.17V197.74H274.17V197.37H274.17V197H274.17V196.64H274.17V196.27H274.17V195.91H274.45V195.54H274.45V195.18H274.45V194.81H274.74V194.44H274.74V194.08H274.74V193.71H274.74V193.35H274.74V192.98H275.03V192.62H275.03V192.25H275.03V191.88H275.03V191.52H275.03V191.15H275.03V190.79H275.03V190.42H275.03V190.06H275.32V189.69H275.32V189.32H275.32V188.96H275.32V188.59H275.32V188.23H275.32V187.86H275.32V187.5H275.32V187.13H275.32V186.76H275.32V186.4H275.6V186.03H275.6V185.67H275.6V185.3H275.6V184.93H275.6V184.57H275.6V184.2H275.6V183.84H275.89V183.47H275.89V183.11H275.89V182.74H275.89V182.37H275.89V182.01H275.89V181.64H275.89V181.28H275.89V180.91H276.18V180.55H276.18V180.18H276.18V179.81H276.18V179.45H276.18V179.08H276.18V178.72H276.18V178.35H276.18V177.99H276.18V177.62H276.18V177.25H276.18V176.89H276.18V176.52H276.46V176.16H276.46V175.79H276.46V175.43H276.46V175.06H276.46V174.69H276.46V174.33H276.75V173.96H276.75V173.6H276.75V173.23H276.75V172.87H276.75V172.5H276.75V172.13H276.75V171.77H276.75V171.4H276.75V171.04H277.04V170.67H277.04V170.3H277.04V169.94H277.04V169.57H277.04V169.21H277.04V168.84H277.04V168.48H277.04V168.11H277.04V167.74H277.04V167.38H277.04V167.01H277.33V166.65H277.33V166.28H277.33V165.92H277.61V165.55H277.61V165.18H277.61V164.82H277.61V164.45H277.61V164.09H277.9V163.72H277.9V163.36H277.9V162.99H277.9V162.62H277.9V162.26H277.9V161.89H277.9V161.53H277.9V161.16H277.9V160.8H278.19V160.43H278.47V160.06H278.47V159.7H278.47V159.33H278.47V158.97H278.47V158.6H278.47V158.24H278.76V157.87H278.76V157.5H278.76V157.14H278.76V156.77H279.05V156.41H279.05V156.04H279.05V155.67H279.05V155.31H279.05V154.94H279.33V154.58H279.33V154.21H279.33V153.85H279.33V153.48H279.33V153.11H279.33V152.75H279.33V152.38H279.33V152.02H279.33V151.65H279.33V151.29H279.33V150.92H279.62V150.55H279.62V150.19H279.91V149.82H279.91V149.46H279.91V149.09H279.91V148.73H279.91V148.36H280.2V147.99H280.2V147.63H280.2V147.26H280.2V146.9H280.2V146.53H280.2V146.17H280.2V145.8H280.2V145.43H280.2V145.07H280.2V144.7H280.48V144.34H280.48V143.97H280.77V143.61H280.77V143.24H280.77V142.87H280.77V142.51H281.06V142.14H281.06V141.78H281.06V141.41H281.06V141.04H281.06V140.68H281.34V140.31H281.34V139.95H281.34V139.58H281.34V139.22H281.34V138.85H281.34V138.48H281.34V138.12H281.34V137.75H281.34V137.39H281.63V137.02H281.63V136.66H281.63V136.29H281.63V135.92H281.63V135.56H281.63V135.19H281.63V134.83H281.92V134.46H281.92V134.1H281.92V133.73H281.92V133.36H281.92V133H282.21V132.63H282.21V132.27H282.21V131.9H282.49V131.54H282.49V131.17H282.49V130.8H282.49V130.44H282.49V130.07H282.49V129.71H282.78V129.34H282.78V128.98H282.78V128.61H282.78V128.24H282.78V127.88H282.78V127.51H282.78V127.15H282.78V126.78H282.78V126.41H283.07V126.05H283.07V125.68H283.07V125.32H283.07V124.95H283.35V124.59H283.35V124.22H283.35V123.85H283.64V123.49H283.64V123.12H283.64V122.76H283.64V122.39H283.64V122.03H283.93V121.66H283.93V121.29H283.93V120.93H283.93V120.56H283.93V120.2H283.93V119.83H284.5V119.47H284.5V119.1H284.5V118.73H284.79V118.37H284.79V118H284.79V117.64H284.79V117.27H285.08V116.91H285.08V116.54H285.36V116.17H285.36V115.81H285.36V115.44H285.36V115.08H285.36V114.71H285.36V114.35H285.65V113.98H285.65V113.61H285.65V113.25H285.65V112.88H285.65V112.52H285.65V112.15H285.94V111.78H285.94V111.42H285.94V111.05H285.94V110.69H286.22V110.32H286.22V109.96H286.22V109.59H286.22V109.22H286.22V108.86H286.51V108.49H286.51V108.13H286.51V107.76H286.51V107.4H286.51V107.03H286.51V106.66H286.51V106.3H286.8V105.93H286.8V105.57H286.8V105.2H286.8V104.84H287.09V104.47H287.09V104.1H287.09V103.74H287.09V103.37H287.09V103.01H287.37V102.64H287.66V102.28H287.66V101.91H287.66V101.54H287.66V101.18H287.66V100.81H287.66V100.45H287.66V100.08H287.66V99.72H287.95V99.35H287.95V98.98H287.95V98.62H287.95V98.25H288.23V97.89H288.23V97.52H288.23V97.15H288.23V96.79H288.23V96.42H288.23V96.06H288.52V95.69H288.52V95.33H288.52V94.96H288.52V94.59H288.52V94.23H288.52V93.86H288.81V93.5H288.81V93.13H288.81V92.77H288.81V92.4H288.81V92.03H288.81V91.67H289.1V91.3H289.1V90.94H289.1V90.57H289.1V90.21H289.38V89.84H289.38V89.47H289.67V89.11H289.67V88.74H289.96V88.38H289.96V88.01H289.96V87.65H289.96V87.28H290.24V86.91H290.24V86.55H290.24V86.18H290.24V85.82H290.53V85.45H290.53V85.09H290.53V84.72H290.53V84.35H290.53V83.99H290.82V83.62H290.82V83.26H290.82V82.89H290.82V82.52H290.82V82.16H291.11V81.79H291.11V81.43H291.11V81.06H291.11V80.7H291.11V80.33H291.11V79.96H291.39V79.6H291.39V79.23H291.39V78.87H291.68V78.5H291.68V78.14H291.68V77.77H291.68V77.4H291.97V77.04H291.97V76.67H291.97V76.31H291.97V75.94H291.97V75.58H291.97V75.21H291.97V74.84H292.25V74.48H292.25V74.11H292.54V73.75H292.54V73.38H292.54V73.02H292.54V72.65H292.54V72.28H292.54V71.92H292.83V71.55H292.83V71.19H292.83V70.82H292.83V70.46H293.11V70.09H293.11V69.72H293.11V69.36H293.11V68.99H293.4V68.63H293.4V68.26H293.4V67.89H293.69V67.53H293.69V67.16H293.69V66.8H293.69V66.43H293.69V66.07H293.69V65.7H293.69V65.33H293.69V64.97H293.98V64.6H293.98V64.24H293.98V63.87H294.26V63.51H294.26V63.14H294.26V62.77H294.55V62.41H294.55V62.04H294.55V61.68H294.55V61.31H294.84V60.95H294.84V60.58H294.84V60.21H295.12V59.85H295.41V59.48H295.41V59.12H295.7V58.75H295.7V58.39H295.7V58.02H295.99V57.65H295.99V57.29H295.99V56.92H295.99V56.56H296.27V56.19H296.27V55.83H296.56V55.46H296.56V55.09H296.56V54.73H296.56V54.36H296.56V54H296.56V53.63H296.85V53.26H296.85V52.9H297.13V52.53H297.13V52.17H297.42V51.8H297.42V51.44H297.42V51.07H297.71V50.7H298V50.34H298V49.97H298V49.61H298.28V49.24H298.28V48.88H298.28V48.51H299.14V48.14H299.14V47.78H299.14V47.41H299.14V47.05H299.43V46.68H299.43V46.32H299.43V45.95H299.43V45.58H299.43V45.22H299.72V44.85H300V44.49H300.58V44.12H300.87V43.76H300.87V43.39H300.87V43.02H300.87V42.66H301.15V42.29H301.15V41.93H301.44V41.56H301.44V41.2H301.44V40.83H302.01V40.46H302.59V40.1H302.88V39.73H303.16V39.37H303.74V39H304.02V38.63H304.02V38.27H304.02V37.9H304.31V37.54H304.6V37.17H304.6V36.81H304.6V36.44H304.6V36.07H304.89V35.71H304.89V35.34H304.89V34.98H304.89V34.61H305.17V34.25H305.17V33.88H305.75V33.51H305.75V33.15H305.75V32.78H306.32V32.42H306.32V32.05H307.18V31.69H307.18V31.32H307.18V30.95H307.76V30.59H307.76V30.22H308.33V29.86H308.9V29.49H308.9V29.13H309.19V28.76H309.48V28.39H309.77V28.03H310.05V27.66H310.05V27.3H310.34V26.93H310.63V26.57H310.63V26.2H310.63V25.83H312.35V25.47H313.21V25.1H314.36V24.74H314.65V24.37H314.65V24H315.22V23.64H315.79V23.27H315.79V22.91H315.79V22.54H316.66V22.18H318.38V21.81H318.95V21.44H320.96V21.08H321.25V20.71H321.82V20.35H324.12V19.98H326.7V19.62H330.44V19.25" style="vector-effect: non-scaling-stroke; fill: none; stroke: rgb(76, 120, 168); stroke-opacity: 1; stroke-width: 3px; opacity: 1;"/></g><g class="points"/><g class="text"/></g></g></g><g class="overplot"/><path class="xlines-above crisp" d="M0,0" style="fill: none;"/><path class="ylines-above crisp" d="M82,50V435" style="fill: none; stroke-width: 2px; stroke: rgb(0, 0, 0); stroke-opacity: 1;"/><g class="overlines-above"/><g class="xaxislayer-above"><g class="xtick"><text text-anchor="middle" x="0" y="455" transform="translate(85.87,0)" style="font-family: 'Open Sans', verdana, arial, sans-serif; font-size: 19px; fill: rgb(42, 63, 95); fill-opacity: 1; white-space: pre; opacity: 1;">4.75</text></g><g class="xtick"><text text-anchor="middle" x="0" y="455" style="font-family: 'Open Sans', verdana, arial, sans-serif; font-size: 19px; fill: rgb(42, 63, 95); fill-opacity: 1; white-space: pre; opacity: 1;" transform="translate(157.64,0)">5</text></g><g class="xtick"><text text-anchor="middle" x="0" y="455" style="font-family: 'Open Sans', verdana, arial, sans-serif; font-size: 19px; fill: rgb(42, 63, 95); fill-opacity: 1; white-space: pre; opacity: 1;" transform="translate(229.41,0)">5.25</text></g><g class="xtick"><text text-anchor="middle" x="0" y="455" style="font-family: 'Open Sans', verdana, arial, sans-serif; font-size: 19px; fill: rgb(42, 63, 95); fill-opacity: 1; white-space: pre; opacity: 1;" transform="translate(301.19,0)">5.5</text></g><g class="xtick"><text text-anchor="middle" x="0" y="455" style="font-family: 'Open Sans', verdana, arial, sans-serif; font-size: 19px; fill: rgb(42, 63, 95); fill-opacity: 1; white-space: pre; opacity: 1;" transform="translate(372.96,0)">5.75</text></g><g class="xtick"><text text-anchor="middle" x="0" y="455" style="font-family: 'Open Sans', verdana, arial, sans-serif; font-size: 19px; fill: rgb(42, 63, 95); fill-opacity: 1; white-space: pre; opacity: 1;" transform="translate(444.73,0)">6</text></g><g class="xtick"><text text-anchor="middle" x="0" y="455" style="font-family: 'Open Sans', verdana, arial, sans-serif; font-size: 19px; fill: rgb(42, 63, 95); fill-opacity: 1; white-space: pre; opacity: 1;" transform="translate(516.5,0)">6.25</text></g><g class="xtick"><text text-anchor="middle" x="0" y="455" style="font-family: 'Open Sans', verdana, arial, sans-serif; font-size: 19px; fill: rgb(42, 63, 95); fill-opacity: 1; white-space: pre; opacity: 1;" transform="translate(588.27,0)">6.5</text></g><g class="xtick"><text text-anchor="middle" x="0" y="455" style="font-family: 'Open Sans', verdana, arial, sans-serif; font-size: 19px; fill: rgb(42, 63, 95); fill-opacity: 1; white-space: pre; opacity: 1;" transform="translate(660.04,0)">6.75</text></g><g class="xtick"><text text-anchor="middle" x="0" y="455" style="font-family: 'Open Sans', verdana, arial, sans-serif; font-size: 19px; fill: rgb(42, 63, 95); fill-opacity: 1; white-space: pre; opacity: 1;" transform="translate(731.81,0)">7</text></g><g class="xtick"><text text-anchor="middle" x="0" y="455" style="font-family: 'Open Sans', verdana, arial, sans-serif; font-size: 19px; fill: rgb(42, 63, 95); fill-opacity: 1; white-space: pre; opacity: 1;" transform="translate(803.59,0)">7.25</text></g><g class="xtick"><text text-anchor="middle" x="0" y="455" style="font-family: 'Open Sans', verdana, arial, sans-serif; font-size: 19px; fill: rgb(42, 63, 95); fill-opacity: 1; white-space: pre; opacity: 1;" transform="translate(875.36,0)">7.5</text></g><g class="xtick"><text text-anchor="middle" x="0" y="455" style="font-family: 'Open Sans', verdana, arial, sans-serif; font-size: 19px; fill: rgb(42, 63, 95); fill-opacity: 1; white-space: pre; opacity: 1;" transform="translate(947.13,0)">7.75</text></g></g><g class="yaxislayer-above"><g class="ytick"><text text-anchor="end" x="77.2" y="6.6499999999999995" transform="translate(0,435)" style="font-family: 'Open Sans', verdana, arial, sans-serif; font-size: 19px; fill: rgb(42, 63, 95); fill-opacity: 1; white-space: pre; opacity: 1;">0</text></g><g class="ytick"><text text-anchor="end" x="77.2" y="6.6499999999999995" style="font-family: 'Open Sans', verdana, arial, sans-serif; font-size: 19px; fill: rgb(42, 63, 95); fill-opacity: 1; white-space: pre; opacity: 1;" transform="translate(0,398.43)">10</text></g><g class="ytick"><text text-anchor="end" x="77.2" y="6.6499999999999995" style="font-family: 'Open Sans', verdana, arial, sans-serif; font-size: 19px; fill: rgb(42, 63, 95); fill-opacity: 1; white-space: pre; opacity: 1;" transform="translate(0,361.85)">20</text></g><g class="ytick"><text text-anchor="end" x="77.2" y="6.6499999999999995" style="font-family: 'Open Sans', verdana, arial, sans-serif; font-size: 19px; fill: rgb(42, 63, 95); fill-opacity: 1; white-space: pre; opacity: 1;" transform="translate(0,325.27)">30</text></g><g class="ytick"><text text-anchor="end" x="77.2" y="6.6499999999999995" style="font-family: 'Open Sans', verdana, arial, sans-serif; font-size: 19px; fill: rgb(42, 63, 95); fill-opacity: 1; white-space: pre; opacity: 1;" transform="translate(0,288.7)">40</text></g><g class="ytick"><text text-anchor="end" x="77.2" y="6.6499999999999995" style="font-family: 'Open Sans', verdana, arial, sans-serif; font-size: 19px; fill: rgb(42, 63, 95); fill-opacity: 1; white-space: pre; opacity: 1;" transform="translate(0,252.13)">50</text></g><g class="ytick"><text text-anchor="end" x="77.2" y="6.6499999999999995" style="font-family: 'Open Sans', verdana, arial, sans-serif; font-size: 19px; fill: rgb(42, 63, 95); fill-opacity: 1; white-space: pre; opacity: 1;" transform="translate(0,215.55)">60</text></g><g class="ytick"><text text-anchor="end" x="77.2" y="6.6499999999999995" style="font-family: 'Open Sans', verdana, arial, sans-serif; font-size: 19px; fill: rgb(42, 63, 95); fill-opacity: 1; white-space: pre; opacity: 1;" transform="translate(0,178.98)">70</text></g><g class="ytick"><text text-anchor="end" x="77.2" y="6.6499999999999995" style="font-family: 'Open Sans', verdana, arial, sans-serif; font-size: 19px; fill: rgb(42, 63, 95); fill-opacity: 1; white-space: pre; opacity: 1;" transform="translate(0,142.4)">80</text></g><g class="ytick"><text text-anchor="end" x="77.2" y="6.6499999999999995" style="font-family: 'Open Sans', verdana, arial, sans-serif; font-size: 19px; fill: rgb(42, 63, 95); fill-opacity: 1; white-space: pre; opacity: 1;" transform="translate(0,105.83)">90</text></g><g class="ytick"><text text-anchor="end" x="77.2" y="6.6499999999999995" style="font-family: 'Open Sans', verdana, arial, sans-serif; font-size: 19px; fill: rgb(42, 63, 95); fill-opacity: 1; white-space: pre; opacity: 1;" transform="translate(0,69.25)">100</text></g></g><g class="overaxes-above"/></g></g><g class="polarlayer"/><g class="ternarylayer"/><g class="geolayer"/><g class="funnelarealayer"/><g class="pielayer"/><g class="iciclelayer"/><g class="treemaplayer"/><g class="sunburstlayer"/><g class="glimages"/><defs id="topdefs-ff8998"><g class="clips"/></defs><g class="layer-above"><g class="imagelayer"/><g class="shapelayer"><path data-index="0" fill-rule="evenodd" d="M100.23,435L100.23,69.25" clip-path="url(#clipff8998xy)" style="opacity: 1; stroke: rgb(214, 39, 40); stroke-opacity: 0.7; fill: rgb(0, 0, 0); fill-opacity: 0; stroke-dasharray: 12px, 12px; stroke-width: 4px;"/><path data-index="1" fill-rule="evenodd" d="M157.64,435L157.64,69.25" clip-path="url(#clipff8998xy)" style="opacity: 1; stroke: rgb(214, 39, 40); stroke-opacity: 0.7; fill: rgb(0, 0, 0); fill-opacity: 0; stroke-dasharray: 12px, 12px; stroke-width: 4px;"/><path data-index="2" fill-rule="evenodd" d="M760.52,435L760.52,69.25" clip-path="url(#clipff8998xy)" style="opacity: 1; stroke: rgb(214, 39, 40); stroke-opacity: 0.7; fill: rgb(0, 0, 0); fill-opacity: 0; stroke-dasharray: 12px, 12px; stroke-width: 4px;"/></g></g><g class="infolayer"><g class="g-gtitle"/><g class="g-xtitle"><text class="xtitle" x="516.5" y="490.1" text-anchor="middle" style="font-family: 'Open Sans', verdana, arial, sans-serif; font-size: 23px; fill: rgb(42, 63, 95); opacity: 1; font-weight: normal; white-space: pre;">Costs [€]</text></g><g class="g-ytitle" transform="translate(13.146484375,0)"><text class="ytitle" transform="rotate(-90,9.853125000000006,242.5)" x="9.853125000000006" y="242.5" text-anchor="middle" style="font-family: 'Open Sans', verdana, arial, sans-serif; font-size: 23px; fill: rgb(42, 63, 95); opacity: 1; font-weight: normal; white-space: pre;">Cummulative distribution [%]</text></g></g></svg>