<svg class="main-svg" xmlns="http://www.w3.org/2000/svg" xmlns:xlink="http://www.w3.org/1999/xlink" width="1000" height="500" viewBox="0 0 1000 500"><rect x="0" y="0" width="1000" height="500" style="fill: rgb(255, 255, 255); fill-opacity: 1;"/><defs id="defs-1638dc"><g class="clips"><clipPath id="clip1638dcxyplot" class="plotclip"><rect width="867" height="385"/></clipPath><clipPath class="axesclip" id="clip1638dcx"><rect x="83" y="0" width="867" height="500"/></clipPath><clipPath class="axesclip" id="clip1638dcy"><rect x="0" y="50" width="1000" height="385"/></clipPath><clipPath class="axesclip" id="clip1638dcxy"><rect x="83" y="50" width="867" height="385"/></clipPath></g><g class="gradients"/><g class="patterns"/></defs><g class="bglayer"/><g class="layer-below"><g class="imagelayer"/><g class="shapelayer"/></g><g class="cartesianlayer"><g class="subplot xy"><g class="layer-subplot"><g class="shapelayer"/><g class="imagelayer"/></g><g class="gridlayer"><g class="x"><path class="xgrid crisp" transform="translate(85.87,0)" d="M0,50v385" style="stroke: rgb(235, 240, 248); stroke-opacity: 1; stroke-width: 1px;"/><path class="xgrid crisp" transform="translate(157.64,0)" d="M0,50v385" style="stroke: rgb(235, 240, 248); stroke-opacity: 1; stroke-width: 1px;"/><path class="xgrid crisp" transform="translate(229.41,0)" d="M0,50v385" style="stroke: rgb(235, 240, 248); stroke-opacity: 1; stroke-width: 1px;"/><path class="xgrid crisp" transform="translate(301.19,0)" d="M0,50v385" style="stroke: rgb(235, 240, 248); stroke-opacity: 1; stroke-width: 1px;"/><path class="xgrid crisp" transform="translate(372.96,0)" d="M0,50v385" style="stroke: rgb(235, 240, 248); stroke-opacity: 1; stroke-width: 1px;"/><path class="xgrid crisp" transform="translate(444.73,0)" d="M0,50v385" style="stroke: rgb(235, 240, 248); stroke-opacity: 1; stroke-width: 1px;"/><path class="xgrid crisp" transform="translate(516.5,0)" d="M0,50v385" style="stroke: rgb(235, 240, 248); stroke-opacity: 1; stroke-width: 1px;"/><path class="xgrid crisp" transform="translate(588.27,0)" d="M0,50v385" style="stroke: rgb(235, 240, 248); stroke-opacity: 1; stroke-width: 1px;"/><path class="xgrid crisp" transform="translate(660.04,0)" d="M0,50v385" style="stroke: rgb(235, 240, 248); stroke-opacity: 1; stroke-width: 1px;"/><path class="xgrid crisp" transform="translate(731.81,0)" d="M0,50v385" style="stroke: rgb(235, 240, 248); stroke-opacity: 1; stroke-width: 1px;"/><path class="xgrid crisp" transform="translate(803.59,0)" d="M0,50v385" style="stroke: rgb(235, 240, 248); stroke-opacity: 1; stroke-width: 1px;"/><path class="xgrid crisp" transform="translate(875.36,0)" d="M0,50v385" style="stroke: rgb(235, 240, 248); stroke-opacity: 1; stroke-width: 1px;"/><path class="xgrid crisp" transform="translate(947.13,0)" d="M0,50v385" style="stroke: rgb(235, 240, 248); stroke-opacity: 1; stroke-width: 1px;"/></g><g class="y"><path class="ygrid crisp" transform="translate(0,398.43)" d="M83,0h867" style="stroke: rgb(235, 240, 248); stroke-opacity: 1; stroke-width: 1px;"/><path class="ygrid crisp" transform="translate(0,361.85)" d="M83,0h867" style="stroke: rgb(235, 240, 248); stroke-opacity: 1; stroke-width: 1px;"/><path class="ygrid crisp" transform="translate(0,325.27)" d="M83,0h867" style="stroke: rgb(235, 240, 248); stroke-opacity: 1; stroke-width: 1px;"/><path class="ygrid crisp" transform="translate(0,288.7)" d="M83,0h867" style="stroke: rgb(235, 240, 248); stroke-opacity: 1; stroke-width: 1px;"/><path class="ygrid crisp" transform="translate(0,252.13)" d="M83,0h867" style="stroke: rgb(235, 240, 248); stroke-opacity: 1; stroke-width: 1px;"/><path class="ygrid crisp" transform="translate(0,215.55)" d="M83,0h867" style="stroke: rgb(235, 240, 248); stroke-opacity: 1; stroke-width: 1px;"/><path class="ygrid crisp" transform="translate(0,178.98)" d="M83,0h867" style="stroke: rgb(235, 240, 248); stroke-opacity: 1; stroke-width: 1px;"/><path class="ygrid crisp" transform="translate(0,142.4)" d="M83,0h867" style="stroke: rgb(235, 240, 248); stroke-opacity: 1; stroke-width: 1px;"/><path class="ygrid crisp" transform="translate(0,105.83)" d="M83,0h867" style="stroke: rgb(235, 240, 248); stroke-opacity: 1; stroke-width: 1px;"/><path class="ygrid crisp" transform="translate(0,69.25)" d="M83,0h867" style="stroke: rgb(235, 240, 248); stroke-opacity: 1; stroke-width: 1px;"/></g></g><g class="zerolinelayer"><path class="yzl zl crisp" transform="translate(0,435)" d="M83,0h867" style="stroke: rgb(0, 0, 0); stroke-opacity: 1; stroke-width: 2px;"/></g><path class="xlines-below"/><path class="ylines-below"/><g class="overlines-below"/><g class="xaxislayer-below"/><g class="yaxislayer-below"/><g class="overaxes-below"/><g class="plot" transform="translate(83,50)" clip-path="url(#clip1638dcxyplot)"><g class="scatterlayer mlayer"><g class="trace scatter trace9b4b3c" style="stroke-miterlimit: 2;"><g class="fills"><g><path class="js-fill" d="M460.49,385L340.77,385L340.77,384.63H345.36V384.27H349.96V383.9H350.25V383.54H350.82V383.17H350.82V382.81H352.25V382.44H352.83V382.07H353.4V381.71H353.4V381.34H353.69V380.98H353.69V380.61H353.98V380.25H353.98V379.88H356.27V379.51H356.56V379.15H356.56V378.78H356.85V378.42H357.14V378.05H357.42V377.69H359.43V377.32H360.29V376.95H360.87V376.59H361.15V376.22H361.15V375.86H361.44V375.49H361.44V375.12H361.44V374.76H361.73V374.39H361.73V374.03H361.73V373.66H362.02V373.3H362.3V372.93H362.88V372.56H363.16V372.2H363.16V371.83H363.16V371.47H363.45V371.1H363.45V370.74H364.03V370.37H364.6V370H364.6V369.64H364.89V369.27H364.89V368.91H365.17V368.54H365.17V368.18H365.75V367.81H366.03V367.44H366.03V367.08H366.32V366.71H366.32V366.35H366.61V365.98H366.61V365.62H366.9V365.25H366.9V364.88H367.18V364.52H367.18V364.15H367.18V363.79H367.18V363.42H367.47V363.06H367.47V362.69H367.76V362.32H367.76V361.96H368.33V361.59H368.33V361.23H368.33V360.86H368.33V360.49H368.33V360.13H368.62V359.76H368.62V359.4H368.62V359.03H368.91V358.67H368.91V358.3H368.91V357.93H368.91V357.57H369.19V357.2H369.19V356.84H369.19V356.47H369.77V356.11H369.77V355.74H370.05V355.37H370.05V355.01H370.05V354.64H370.05V354.28H370.05V353.91H370.34V353.55H370.34V353.18H370.34V352.81H370.63V352.45H370.63V352.08H370.92V351.72H371.2V351.35H371.2V350.99H371.2V350.62H371.49V350.25H371.49V349.89H371.78V349.52H371.78V349.16H371.78V348.79H371.78V348.43H372.06V348.06H372.35V347.69H372.35V347.33H372.35V346.96H372.35V346.6H372.35V346.23H372.35V345.86H372.64V345.5H372.64V345.13H372.64V344.77H372.64V344.4H372.92V344.04H372.92V343.67H373.21V343.3H373.21V342.94H373.21V342.57H373.21V342.21H373.5V341.84H373.5V341.48H373.79V341.11H373.79V340.74H373.79V340.38H373.79V340.01H373.79V339.65H374.07V339.28H374.36V338.92H374.36V338.55H374.65V338.18H374.65V337.82H374.93V337.45H374.93V337.09H375.22V336.72H375.22V336.36H375.22V335.99H375.22V335.62H375.22V335.26H375.22V334.89H375.22V334.53H375.51V334.16H375.51V333.8H375.51V333.43H375.51V333.06H375.51V332.7H375.8V332.33H376.08V331.97H376.08V331.6H376.08V331.23H376.37V330.87H376.37V330.5H376.37V330.14H376.37V329.77H376.37V329.41H376.37V329.04H376.37V328.67H376.37V328.31H376.66V327.94H376.66V327.58H376.94V327.21H376.94V326.85H377.23V326.48H377.23V326.11H377.23V325.75H377.23V325.38H377.52V325.02H377.52V324.65H377.52V324.29H377.81V323.92H377.81V323.55H377.81V323.19H378.09V322.82H378.09V322.46H378.09V322.09H378.09V321.73H378.09V321.36H378.09V320.99H378.09V320.63H378.09V320.26H378.38V319.9H378.38V319.53H378.38V319.17H378.38V318.8H378.38V318.43H378.67V318.07H378.67V317.7H378.67V317.34H378.67V316.97H378.67V316.6H378.67V316.24H378.95V315.87H378.95V315.51H378.95V315.14H378.95V314.78H379.53V314.41H379.53V314.04H379.53V313.68H379.53V313.31H379.53V312.95H379.81V312.58H379.81V312.22H379.81V311.85H379.81V311.48H380.1V311.12H380.1V310.75H380.1V310.39H380.1V310.02H380.1V309.66H380.39V309.29H380.39V308.92H380.39V308.56H380.39V308.19H380.39V307.83H380.39V307.46H380.39V307.1H380.68V306.73H380.68V306.36H380.68V306H380.68V305.63H380.96V305.27H380.96V304.9H380.96V304.54H380.96V304.17H380.96V303.8H381.25V303.44H381.25V303.07H381.25V302.71H381.25V302.34H381.25V301.97H381.54V301.61H381.54V301.24H381.54V300.88H381.54V300.51H381.54V300.15H381.54V299.78H381.82V299.41H381.82V299.05H382.11V298.68H382.11V298.32H382.11V297.95H382.11V297.59H382.11V297.22H382.11V296.85H382.11V296.49H382.11V296.12H382.4V295.76H382.4V295.39H382.4V295.03H382.4V294.66H382.4V294.29H382.69V293.93H382.69V293.56H382.69V293.2H382.69V292.83H382.69V292.47H382.69V292.1H382.69V291.73H382.69V291.37H382.97V291H382.97V290.64H383.26V290.27H383.26V289.9H383.26V289.54H383.26V289.17H383.55V288.81H383.55V288.44H383.55V288.08H383.55V287.71H383.83V287.34H383.83V286.98H383.83V286.61H384.12V286.25H384.12V285.88H384.12V285.52H384.12V285.15H384.12V284.78H384.41V284.42H384.41V284.05H384.41V283.69H384.41V283.32H384.41V282.96H384.41V282.59H384.41V282.22H384.41V281.86H384.41V281.49H384.7V281.13H384.7V280.76H384.98V280.4H384.98V280.03H384.98V279.66H384.98V279.3H384.98V278.93H384.98V278.57H385.27V278.2H385.27V277.84H385.27V277.47H385.27V277.1H385.27V276.74H385.56V276.37H385.56V276.01H385.56V275.64H385.56V275.27H385.56V274.91H385.56V274.54H385.56V274.18H385.84V273.81H385.84V273.45H385.84V273.08H386.13V272.71H386.13V272.35H386.13V271.98H386.13V271.62H386.13V271.25H386.13V270.89H386.42V270.52H386.42V270.15H386.42V269.79H386.42V269.42H386.7V269.06H386.7V268.69H386.7V268.33H386.7V267.96H386.7V267.59H386.7V267.23H386.7V266.86H386.7V266.5H386.99V266.13H386.99V265.77H386.99V265.4H386.99V265.03H387.28V264.67H387.28V264.3H387.28V263.94H387.57V263.57H387.57V263.21H387.57V262.84H387.57V262.47H387.57V262.11H387.85V261.74H387.85V261.38H387.85V261.01H387.85V260.65H388.14V260.28H388.14V259.91H388.43V259.55H388.43V259.18H388.43V258.82H388.43V258.45H388.71V258.08H388.71V257.72H388.71V257.35H388.71V256.99H388.71V256.62H388.71V256.26H389V255.89H389V255.52H389V255.16H389.29V254.79H389.29V254.43H389.29V254.06H389.29V253.7H389.29V253.33H389.29V252.96H389.58V252.6H389.58V252.23H389.58V251.87H389.58V251.5H389.58V251.14H389.58V250.77H389.58V250.4H389.58V250.04H389.58V249.67H389.58V249.31H389.86V248.94H389.86V248.58H389.86V248.21H389.86V247.84H389.86V247.48H389.86V247.11H390.15V246.75H390.15V246.38H390.15V246.02H390.15V245.65H390.44V245.28H390.44V244.92H390.44V244.55H390.44V244.19H390.44V243.82H390.44V243.45H390.72V243.09H390.72V242.72H390.72V242.36H390.72V241.99H391.01V241.63H391.01V241.26H391.01V240.89H391.01V240.53H391.3V240.16H391.3V239.8H391.3V239.43H391.3V239.07H391.59V238.7H391.59V238.33H391.59V237.97H391.87V237.6H391.87V237.24H391.87V236.87H391.87V236.51H392.16V236.14H392.16V235.77H392.16V235.41H392.16V235.04H392.16V234.68H392.16V234.31H392.16V233.95H392.16V233.58H392.16V233.21H392.16V232.85H392.16V232.48H392.45V232.12H392.45V231.75H392.73V231.39H392.73V231.02H392.73V230.65H392.73V230.29H392.73V229.92H392.73V229.56H393.02V229.19H393.02V228.82H393.02V228.46H393.02V228.09H393.02V227.73H393.02V227.36H393.02V227H393.31V226.63H393.31V226.26H393.31V225.9H393.31V225.53H393.6V225.17H393.6V224.8H393.6V224.44H393.6V224.07H393.6V223.7H393.6V223.34H393.6V222.97H393.6V222.61H393.88V222.24H393.88V221.88H393.88V221.51H393.88V221.14H393.88V220.78H394.17V220.41H394.17V220.05H394.17V219.68H394.17V219.32H394.17V218.95H394.17V218.58H394.17V218.22H394.17V217.85H394.17V217.49H394.17V217.12H394.46V216.76H394.46V216.39H394.46V216.02H394.46V215.66H394.46V215.29H394.46V214.93H394.46V214.56H394.46V214.19H394.46V213.83H394.46V213.46H394.46V213.1H394.46V212.73H394.46V212.37H394.46V212H394.46V211.63H394.74V211.27H394.74V210.9H394.74V210.54H394.74V210.17H394.74V209.81H394.74V209.44H394.74V209.07H394.74V208.71H395.03V208.34H395.03V207.98H395.03V207.61H395.03V207.25H395.03V206.88H395.32V206.51H395.32V206.15H395.32V205.78H395.6V205.42H395.6V205.05H395.6V204.69H395.6V204.32H395.6V203.95H395.6V203.59H395.89V203.22H395.89V202.86H395.89V202.49H395.89V202.13H395.89V201.76H395.89V201.39H395.89V201.03H395.89V200.66H396.18V200.3H396.18V199.93H396.18V199.56H396.18V199.2H396.18V198.83H396.18V198.47H396.18V198.1H396.18V197.74H396.18V197.37H396.47V197H396.47V196.64H396.47V196.27H396.47V195.91H396.75V195.54H396.75V195.18H396.75V194.81H396.75V194.44H396.75V194.08H397.04V193.71H397.04V193.35H397.04V192.98H397.04V192.62H397.04V192.25H397.04V191.88H397.04V191.52H397.04V191.15H397.04V190.79H397.04V190.42H397.04V190.06H397.04V189.69H397.04V189.32H397.33V188.96H397.61V188.59H397.61V188.23H397.61V187.86H397.61V187.5H397.61V187.13H397.61V186.76H397.61V186.4H397.61V186.03H397.9V185.67H397.9V185.3H397.9V184.93H398.19V184.57H398.19V184.2H398.19V183.84H398.19V183.47H398.19V183.11H398.19V182.74H398.48V182.37H398.48V182.01H398.48V181.64H398.48V181.28H398.76V180.91H398.76V180.55H398.76V180.18H399.05V179.81H399.05V179.45H399.05V179.08H399.05V178.72H399.34V178.35H399.34V177.99H399.34V177.62H399.34V177.25H399.34V176.89H399.34V176.52H399.62V176.16H399.62V175.79H399.62V175.43H399.62V175.06H399.91V174.69H399.91V174.33H399.91V173.96H399.91V173.6H400.2V173.23H400.2V172.87H400.2V172.5H400.49V172.13H400.49V171.77H400.49V171.4H400.49V171.04H400.49V170.67H400.49V170.3H400.77V169.94H400.77V169.57H400.77V169.21H400.77V168.84H400.77V168.48H401.06V168.11H401.06V167.74H401.06V167.38H401.35V167.01H401.35V166.65H401.35V166.28H401.35V165.92H401.35V165.55H401.35V165.18H401.63V164.82H401.63V164.45H401.63V164.09H401.63V163.72H401.92V163.36H401.92V162.99H401.92V162.62H401.92V162.26H401.92V161.89H401.92V161.53H401.92V161.16H401.92V160.8H401.92V160.43H402.21V160.06H402.21V159.7H402.21V159.33H402.21V158.97H402.21V158.6H402.49V158.24H402.49V157.87H402.49V157.5H402.78V157.14H402.78V156.77H402.78V156.41H402.78V156.04H402.78V155.67H402.78V155.31H403.07V154.94H403.07V154.58H403.07V154.21H403.07V153.85H403.07V153.48H403.36V153.11H403.36V152.75H403.36V152.38H403.36V152.02H403.36V151.65H403.36V151.29H403.64V150.92H403.64V150.55H403.64V150.19H403.64V149.82H403.64V149.46H403.64V149.09H403.64V148.73H403.64V148.36H403.64V147.99H403.64V147.63H403.93V147.26H403.93V146.9H403.93V146.53H403.93V146.17H403.93V145.8H403.93V145.43H403.93V145.07H404.22V144.7H404.22V144.34H404.22V143.97H404.22V143.61H404.22V143.24H404.22V142.87H404.22V142.51H404.5V142.14H404.5V141.78H404.79V141.41H404.79V141.04H405.08V140.68H405.08V140.31H405.37V139.95H405.37V139.58H405.37V139.22H405.37V138.85H405.37V138.48H405.37V138.12H405.65V137.75H405.94V137.39H405.94V137.02H405.94V136.66H405.94V136.29H405.94V135.92H405.94V135.56H405.94V135.19H405.94V134.83H406.23V134.46H406.23V134.1H406.23V133.73H406.23V133.36H406.23V133H406.23V132.63H406.23V132.27H406.51V131.9H406.51V131.54H406.51V131.17H406.51V130.8H406.51V130.44H406.51V130.07H406.8V129.71H407.09V129.34H407.09V128.98H407.09V128.61H407.09V128.24H407.09V127.88H407.38V127.51H407.38V127.15H407.38V126.78H407.38V126.41H407.38V126.05H407.38V125.68H407.66V125.32H407.66V124.95H407.66V124.59H407.66V124.22H407.66V123.85H407.95V123.49H407.95V123.12H407.95V122.76H407.95V122.39H407.95V122.03H407.95V121.66H407.95V121.29H407.95V120.93H407.95V120.56H408.24V120.2H408.24V119.83H408.24V119.47H408.52V119.1H408.52V118.73H408.52V118.37H408.52V118H408.52V117.64H408.81V117.27H408.81V116.91H408.81V116.54H409.1V116.17H409.1V115.81H409.1V115.44H409.1V115.08H409.1V114.71H409.38V114.35H409.38V113.98H409.38V113.61H409.67V113.25H409.67V112.88H409.67V112.52H409.67V112.15H409.96V111.78H409.96V111.42H409.96V111.05H409.96V110.69H409.96V110.32H410.25V109.96H410.25V109.59H410.25V109.22H410.25V108.86H410.53V108.49H410.53V108.13H410.53V107.76H410.53V107.4H410.53V107.03H410.53V106.66H410.82V106.3H410.82V105.93H410.82V105.57H410.82V105.2H410.82V104.84H410.82V104.47H411.11V104.1H411.11V103.74H411.11V103.37H411.11V103.01H411.11V102.64H411.11V102.28H411.11V101.91H411.11V101.54H411.11V101.18H411.39V100.81H411.39V100.45H411.39V100.08H411.39V99.72H411.68V99.35H411.68V98.98H411.97V98.62H411.97V98.25H411.97V97.89H411.97V97.52H411.97V97.15H411.97V96.79H412.26V96.42H412.26V96.06H412.26V95.69H412.54V95.33H412.54V94.96H412.83V94.59H412.83V94.23H412.83V93.86H412.83V93.5H412.83V93.13H413.12V92.77H413.12V92.4H413.12V92.03H413.4V91.67H413.4V91.3H413.4V90.94H413.4V90.57H413.69V90.21H413.69V89.84H413.98V89.47H413.98V89.11H413.98V88.74H413.98V88.38H413.98V88.01H414.27V87.65H414.27V87.28H414.27V86.91H414.27V86.55H414.55V86.18H414.55V85.82H414.55V85.45H414.55V85.09H414.55V84.72H414.84V84.35H414.84V83.99H414.84V83.62H414.84V83.26H414.84V82.89H414.84V82.52H414.84V82.16H414.84V81.79H414.84V81.43H415.13V81.06H415.13V80.7H415.13V80.33H415.13V79.96H415.13V79.6H415.41V79.23H415.41V78.87H415.41V78.5H415.41V78.14H415.7V77.77H415.7V77.4H415.99V77.04H415.99V76.67H415.99V76.31H415.99V75.94H415.99V75.58H416.27V75.21H416.27V74.84H416.27V74.48H416.56V74.11H416.56V73.75H416.85V73.38H416.85V73.02H416.85V72.65H416.85V72.28H417.14V71.92H417.14V71.55H417.14V71.19H417.14V70.82H417.42V70.46H417.42V70.09H417.42V69.72H417.42V69.36H417.71V68.99H417.71V68.63H417.71V68.26H417.71V67.89H417.71V67.53H418V67.16H418.28V66.8H418.28V66.43H418.57V66.07H418.57V65.7H418.86V65.33H418.86V64.97H419.15V64.6H419.15V64.24H419.15V63.87H419.43V63.51H419.43V63.14H419.43V62.77H419.43V62.41H419.43V62.04H419.43V61.68H419.72V61.31H419.72V60.95H420.01V60.58H420.01V60.21H420.01V59.85H420.01V59.48H420.29V59.12H420.29V58.75H420.29V58.39H420.58V58.02H420.58V57.65H420.87V57.29H420.87V56.92H420.87V56.56H420.87V56.19H421.16V55.83H421.16V55.46H421.16V55.09H421.44V54.73H421.73V54.36H421.73V54H421.73V53.63H422.02V53.26H422.02V52.9H422.3V52.53H422.59V52.17H422.88V51.8H423.45V51.44H423.74V51.07H424.03V50.7H424.03V50.34H424.03V49.97H424.03V49.61H424.6V49.24H424.6V48.88H424.6V48.51H424.6V48.14H424.6V47.78H424.89V47.41H425.46V47.05H425.75V46.68H425.75V46.32H426.04V45.95H426.04V45.58H426.04V45.22H426.04V44.85H426.04V44.49H426.32V44.12H426.32V43.76H426.61V43.39H426.61V43.02H426.61V42.66H427.18V42.29H427.18V41.93H427.18V41.56H427.47V41.2H427.47V40.83H427.76V40.46H427.76V40.1H428.05V39.73H428.05V39.37H428.05V39H428.33V38.63H428.33V38.27H428.91V37.9H429.19V37.54H429.19V37.17H429.19V36.81H429.48V36.44H429.48V36.07H429.77V35.71H430.05V35.34H430.05V34.98H430.34V34.61H430.34V34.25H430.34V33.88H430.63V33.51H430.92V33.15H431.2V32.78H431.49V32.42H431.78V32.05H432.35V31.69H432.64V31.32H432.93V30.95H433.21V30.59H434.07V30.22H434.07V29.86H434.07V29.49H434.65V29.13H434.94V28.76H435.8V28.39H436.08V28.03H436.08V27.66H436.66V27.3H436.95V26.93H436.95V26.57H437.23V26.2H437.52V25.83H437.81V25.47H438.38V25.1H438.67V24.74H439.53V24.37H441.25V24H442.11V23.64H444.12V23.27H445.27V22.91H446.99V22.54H446.99V22.18H448.14V21.81H449.29V21.44H450.44V21.08H450.44V20.71H454.74V20.35H455.32V19.98H459.05V19.62H460.49V19.25" style="fill: rgb(55, 128, 191); fill-opacity: 0.2; stroke-width: 0;"/></g></g><g class="errorbars"/><g class="lines"><path class="js-line" d="M340.77,384.63H345.36V384.27H349.96V383.9H350.25V383.54H350.82V383.17H350.82V382.81H352.25V382.44H352.83V382.07H353.4V381.71H353.4V381.34H353.69V380.98H353.69V380.61H353.98V380.25H353.98V379.88H356.27V379.51H356.56V379.15H356.56V378.78H356.85V378.42H357.14V378.05H357.42V377.69H359.43V377.32H360.29V376.95H360.87V376.59H361.15V376.22H361.15V375.86H361.44V375.49H361.44V375.12H361.44V374.76H361.73V374.39H361.73V374.03H361.73V373.66H362.02V373.3H362.3V372.93H362.88V372.56H363.16V372.2H363.16V371.83H363.16V371.47H363.45V371.1H363.45V370.74H364.03V370.37H364.6V370H364.6V369.64H364.89V369.27H364.89V368.91H365.17V368.54H365.17V368.18H365.75V367.81H366.03V367.44H366.03V367.08H366.32V366.71H366.32V366.35H366.61V365.98H366.61V365.62H366.9V365.25H366.9V364.88H367.18V364.52H367.18V364.15H367.18V363.79H367.18V363.42H367.47V363.06H367.47V362.69H367.76V362.32H367.76V361.96H368.33V361.59H368.33V361.23H368.33V360.86H368.33V360.49H368.33V360.13H368.62V359.76H368.62V359.4H368.62V359.03H368.91V358.67H368.91V358.3H368.91V357.93H368.91V357.57H369.19V357.2H369.19V356.84H369.19V356.47H369.77V356.11H369.77V355.74H370.05V355.37H370.05V355.01H370.05V354.64H370.05V354.28H370.05V353.91H370.34V353.55H370.34V353.18H370.34V352.81H370.63V352.45H370.63V352.08H370.92V351.72H371.2V351.35H371.2V350.99H371.2V350.62H371.49V350.25H371.49V349.89H371.78V349.52H371.78V349.16H371.78V348.79H371.78V348.43H372.06V348.06H372.35V347.69H372.35V347.33H372.35V346.96H372.35V346.6H372.35V346.23H372.35V345.86H372.64V345.5H372.64V345.13H372.64V344.77H372.64V344.4H372.92V344.04H372.92V343.67H373.21V343.3H373.21V342.94H373.21V342.57H373.21V342.21H373.5V341.84H373.5V341.48H373.79V341.11H373.79V340.74H373.79V340.38H373.79V340.01H373.79V339.65H374.07V339.28H374.36V338.92H374.36V338.55H374.65V338.18H374.65V337.82H374.93V337.45H374.93V337.09H375.22V336.72H375.22V336.36H375.22V335.99H375.22V335.62H375.22V335.26H375.22V334.89H375.22V334.53H375.51V334.16H375.51V333.8H375.51V333.43H375.51V333.06H375.51V332.7H375.8V332.33H376.08V331.97H376.08V331.6H376.08V331.23H376.37V330.87H376.37V330.5H376.37V330.14H376.37V329.77H376.37V329.41H376.37V329.04H376.37V328.67H376.37V328.31H376.66V327.94H376.66V327.58H376.94V327.21H376.94V326.85H377.23V326.48H377.23V326.11H377.23V325.75H377.23V325.38H377.52V325.02H377.52V324.65H377.52V324.29H377.81V323.92H377.81V323.55H377.81V323.19H378.09V322.82H378.09V322.46H378.09V322.09H378.09V321.73H378.09V321.36H378.09V320.99H378.09V320.63H378.09V320.26H378.38V319.9H378.38V319.53H378.38V319.17H378.38V318.8H378.38V318.43H378.67V318.07H378.67V317.7H378.67V317.34H378.67V316.97H378.67V316.6H378.67V316.24H378.95V315.87H378.95V315.51H378.95V315.14H378.95V314.78H379.53V314.41H379.53V314.04H379.53V313.68H379.53V313.31H379.53V312.95H379.81V312.58H379.81V312.22H379.81V311.85H379.81V311.48H380.1V311.12H380.1V310.75H380.1V310.39H380.1V310.02H380.1V309.66H380.39V309.29H380.39V308.92H380.39V308.56H380.39V308.19H380.39V307.83H380.39V307.46H380.39V307.1H380.68V306.73H380.68V306.36H380.68V306H380.68V305.63H380.96V305.27H380.96V304.9H380.96V304.54H380.96V304.17H380.96V303.8H381.25V303.44H381.25V303.07H381.25V302.71H381.25V302.34H381.25V301.97H381.54V301.61H381.54V301.24H381.54V300.88H381.54V300.51H381.54V300.15H381.54V299.78H381.82V299.41H381.82V299.05H382.11V298.68H382.11V298.32H382.11V297.95H382.11V297.59H382.11V297.22H382.11V296.85H382.11V296.49H382.11V296.12H382.4V295.76H382.4V295.39H382.4V295.03H382.4V294.66H382.4V294.29H382.69V293.93H382.69V293.56H382.69V293.2H382.69V292.83H382.69V292.47H382.69V292.1H382.69V291.73H382.69V291.37H382.97V291H382.97V290.64H383.26V290.27H383.26V289.9H383.26V289.54H383.26V289.17H383.55V288.81H383.55V288.44H383.55V288.08H383.55V287.71H383.83V287.34H383.83V286.98H383.83V286.61H384.12V286.25H384.12V285.88H384.12V285.52H384.12V285.15H384.12V284.78H384.41V284.42H384.41V284.05H384.41V283.69H384.41V283.32H384.41V282.96H384.41V282.59H384.41V282.22H384.41V281.86H384.41V281.49H384.7V281.13H384.7V280.76H384.98V280.4H384.98V280.03H384.98V279.66H384.98V279.3H384.98V278.93H384.98V278.57H385.27V278.2H385.27V277.84H385.27V277.47H385.27V277.1H385.27V276.74H385.56V276.37H385.56V276.01H385.56V275.64H385.56V275.27H385.56V274.91H385.56V274.54H385.56V274.18H385.84V273.81H385.84V273.45H385.84V273.08H386.13V272.71H386.13V272.35H386.13V271.98H386.13V271.62H386.13V271.25H386.13V270.89H386.42V270.52H386.42V270.15H386.42V269.79H386.42V269.42H386.7V269.06H386.7V268.69H386.7V268.33H386.7V267.96H386.7V267.59H386.7V267.23H386.7V266.86H386.7V266.5H386.99V266.13H386.99V265.77H386.99V265.4H386.99V265.03H387.28V264.67H387.28V264.3H387.28V263.94H387.57V263.57H387.57V263.21H387.57V262.84H387.57V262.47H387.57V262.11H387.85V261.74H387.85V261.38H387.85V261.01H387.85V260.65H388.14V260.28H388.14V259.91H388.43V259.55H388.43V259.18H388.43V258.82H388.43V258.45H388.71V258.08H388.71V257.72H388.71V257.35H388.71V256.99H388.71V256.62H388.71V256.26H389V255.89H389V255.52H389V255.16H389.29V254.79H389.29V254.43H389.29V254.06H389.29V253.7H389.29V253.33H389.29V252.96H389.58V252.6H389.58V252.23H389.58V251.87H389.58V251.5H389.58V251.14H389.58V250.77H389.58V250.4H389.58V250.04H389.58V249.67H389.58V249.31H389.86V248.94H389.86V248.58H389.86V248.21H389.86V247.84H389.86V247.48H389.86V247.11H390.15V246.75H390.15V246.38H390.15V246.02H390.15V245.65H390.44V245.28H390.44V244.92H390.44V244.55H390.44V244.19H390.44V243.82H390.44V243.45H390.72V243.09H390.72V242.72H390.72V242.36H390.72V241.99H391.01V241.63H391.01V241.26H391.01V240.89H391.01V240.53H391.3V240.16H391.3V239.8H391.3V239.43H391.3V239.07H391.59V238.7H391.59V238.33H391.59V237.97H391.87V237.6H391.87V237.24H391.87V236.87H391.87V236.51H392.16V236.14H392.16V235.77H392.16V235.41H392.16V235.04H392.16V234.68H392.16V234.31H392.16V233.95H392.16V233.58H392.16V233.21H392.16V232.85H392.16V232.48H392.45V232.12H392.45V231.75H392.73V231.39H392.73V231.02H392.73V230.65H392.73V230.29H392.73V229.92H392.73V229.56H393.02V229.19H393.02V228.82H393.02V228.46H393.02V228.09H393.02V227.73H393.02V227.36H393.02V227H393.31V226.63H393.31V226.26H393.31V225.9H393.31V225.53H393.6V225.17H393.6V224.8H393.6V224.44H393.6V224.07H393.6V223.7H393.6V223.34H393.6V222.97H393.6V222.61H393.88V222.24H393.88V221.88H393.88V221.51H393.88V221.14H393.88V220.78H394.17V220.41H394.17V220.05H394.17V219.68H394.17V219.32H394.17V218.95H394.17V218.58H394.17V218.22H394.17V217.85H394.17V217.49H394.17V217.12H394.46V216.76H394.46V216.39H394.46V216.02H394.46V215.66H394.46V215.29H394.46V214.93H394.46V214.56H394.46V214.19H394.46V213.83H394.46V213.46H394.46V213.1H394.46V212.73H394.46V212.37H394.46V212H394.46V211.63H394.74V211.27H394.74V210.9H394.74V210.54H394.74V210.17H394.74V209.81H394.74V209.44H394.74V209.07H394.74V208.71H395.03V208.34H395.03V207.98H395.03V207.61H395.03V207.25H395.03V206.88H395.32V206.51H395.32V206.15H395.32V205.78H395.6V205.42H395.6V205.05H395.6V204.69H395.6V204.32H395.6V203.95H395.6V203.59H395.89V203.22H395.89V202.86H395.89V202.49H395.89V202.13H395.89V201.76H395.89V201.39H395.89V201.03H395.89V200.66H396.18V200.3H396.18V199.93H396.18V199.56H396.18V199.2H396.18V198.83H396.18V198.47H396.18V198.1H396.18V197.74H396.18V197.37H396.47V197H396.47V196.64H396.47V196.27H396.47V195.91H396.75V195.54H396.75V195.18H396.75V194.81H396.75V194.44H396.75V194.08H397.04V193.71H397.04V193.35H397.04V192.98H397.04V192.62H397.04V192.25H397.04V191.88H397.04V191.52H397.04V191.15H397.04V190.79H397.04V190.42H397.04V190.06H397.04V189.69H397.04V189.32H397.33V188.96H397.61V188.59H397.61V188.23H397.61V187.86H397.61V187.5H397.61V187.13H397.61V186.76H397.61V186.4H397.61V186.03H397.9V185.67H397.9V185.3H397.9V184.93H398.19V184.57H398.19V184.2H398.19V183.84H398.19V183.47H398.19V183.11H398.19V182.74H398.48V182.37H398.48V182.01H398.48V181.64H398.48V181.28H398.76V180.91H398.76V180.55H398.76V180.18H399.05V179.81H399.05V179.45H399.05V179.08H399.05V178.72H399.34V178.35H399.34V177.99H399.34V177.62H399.34V177.25H399.34V176.89H399.34V176.52H399.62V176.16H399.62V175.79H399.62V175.43H399.62V175.06H399.91V174.69H399.91V174.33H399.91V173.96H399.91V173.6H400.2V173.23H400.2V172.87H400.2V172.5H400.49V172.13H400.49V171.77H400.49V171.4H400.49V171.04H400.49V170.67H400.49V170.3H400.77V169.94H400.77V169.57H400.77V169.21H400.77V168.84H400.77V168.48H401.06V168.11H401.06V167.74H401.06V167.38H401.35V167.01H401.35V166.65H401.35V166.28H401.35V165.92H401.35V165.55H401.35V165.18H401.63V164.82H401.63V164.45H401.63V164.09H401.63V163.72H401.92V163.36H401.92V162.99H401.92V162.62H401.92V162.26H401.92V161.89H401.92V161.53H401.92V161.16H401.92V160.8H401.92V160.43H402.21V160.06H402.21V159.7H402.21V159.33H402.21V158.97H402.21V158.6H402.49V158.24H402.49V157.87H402.49V157.5H402.78V157.14H402.78V156.77H402.78V156.41H402.78V156.04H402.78V155.67H402.78V155.31H403.07V154.94H403.07V154.58H403.07V154.21H403.07V153.85H403.07V153.48H403.36V153.11H403.36V152.75H403.36V152.38H403.36V152.02H403.36V151.65H403.36V151.29H403.64V150.92H403.64V150.55H403.64V150.19H403.64V149.82H403.64V149.46H403.64V149.09H403.64V148.73H403.64V148.36H403.64V147.99H403.64V147.63H403.93V147.26H403.93V146.9H403.93V146.53H403.93V146.17H403.93V145.8H403.93V145.43H403.93V145.07H404.22V144.7H404.22V144.34H404.22V143.97H404.22V143.61H404.22V143.24H404.22V142.87H404.22V142.51H404.5V142.14H404.5V141.78H404.79V141.41H404.79V141.04H405.08V140.68H405.08V140.31H405.37V139.95H405.37V139.58H405.37V139.22H405.37V138.85H405.37V138.48H405.37V138.12H405.65V137.75H405.94V137.39H405.94V137.02H405.94V136.66H405.94V136.29H405.94V135.92H405.94V135.56H405.94V135.19H405.94V134.83H406.23V134.46H406.23V134.1H406.23V133.73H406.23V133.36H406.23V133H406.23V132.63H406.23V132.27H406.51V131.9H406.51V131.54H406.51V131.17H406.51V130.8H406.51V130.44H406.51V130.07H406.8V129.71H407.09V129.34H407.09V128.98H407.09V128.61H407.09V128.24H407.09V127.88H407.38V127.51H407.38V127.15H407.38V126.78H407.38V126.41H407.38V126.05H407.38V125.68H407.66V125.32H407.66V124.95H407.66V124.59H407.66V124.22H407.66V123.85H407.95V123.49H407.95V123.12H407.95V122.76H407.95V122.39H407.95V122.03H407.95V121.66H407.95V121.29H407.95V120.93H407.95V120.56H408.24V120.2H408.24V119.83H408.24V119.47H408.52V119.1H408.52V118.73H408.52V118.37H408.52V118H408.52V117.64H408.81V117.27H408.81V116.91H408.81V116.54H409.1V116.17H409.1V115.81H409.1V115.44H409.1V115.08H409.1V114.71H409.38V114.35H409.38V113.98H409.38V113.61H409.67V113.25H409.67V112.88H409.67V112.52H409.67V112.15H409.96V111.78H409.96V111.42H409.96V111.05H409.96V110.69H409.96V110.32H410.25V109.96H410.25V109.59H410.25V109.22H410.25V108.86H410.53V108.49H410.53V108.13H410.53V107.76H410.53V107.4H410.53V107.03H410.53V106.66H410.82V106.3H410.82V105.93H410.82V105.57H410.82V105.2H410.82V104.84H410.82V104.47H411.11V104.1H411.11V103.74H411.11V103.37H411.11V103.01H411.11V102.64H411.11V102.28H411.11V101.91H411.11V101.54H411.11V101.18H411.39V100.81H411.39V100.45H411.39V100.08H411.39V99.72H411.68V99.35H411.68V98.98H411.97V98.62H411.97V98.25H411.97V97.89H411.97V97.52H411.97V97.15H411.97V96.79H412.26V96.42H412.26V96.06H412.26V95.69H412.54V95.33H412.54V94.96H412.83V94.59H412.83V94.23H412.83V93.86H412.83V93.5H412.83V93.13H413.12V92.77H413.12V92.4H413.12V92.03H413.4V91.67H413.4V91.3H413.4V90.94H413.4V90.57H413.69V90.21H413.69V89.84H413.98V89.47H413.98V89.11H413.98V88.74H413.98V88.38H413.98V88.01H414.27V87.65H414.27V87.28H414.27V86.91H414.27V86.55H414.55V86.18H414.55V85.82H414.55V85.45H414.55V85.09H414.55V84.72H414.84V84.35H414.84V83.99H414.84V83.62H414.84V83.26H414.84V82.89H414.84V82.52H414.84V82.16H414.84V81.79H414.84V81.43H415.13V81.06H415.13V80.7H415.13V80.33H415.13V79.96H415.13V79.6H415.41V79.23H415.41V78.87H415.41V78.5H415.41V78.14H415.7V77.77H415.7V77.4H415.99V77.04H415.99V76.67H415.99V76.31H415.99V75.94H415.99V75.58H416.27V75.21H416.27V74.84H416.27V74.48H416.56V74.11H416.56V73.75H416.85V73.38H416.85V73.02H416.85V72.65H416.85V72.28H417.14V71.92H417.14V71.55H417.14V71.19H417.14V70.82H417.42V70.46H417.42V70.09H417.42V69.72H417.42V69.36H417.71V68.99H417.71V68.63H417.71V68.26H417.71V67.89H417.71V67.53H418V67.16H418.28V66.8H418.28V66.43H418.57V66.07H418.57V65.7H418.86V65.33H418.86V64.97H419.15V64.6H419.15V64.24H419.15V63.87H419.43V63.51H419.43V63.14H419.43V62.77H419.43V62.41H419.43V62.04H419.43V61.68H419.72V61.31H419.72V60.95H420.01V60.58H420.01V60.21H420.01V59.85H420.01V59.48H420.29V59.12H420.29V58.75H420.29V58.39H420.58V58.02H420.58V57.65H420.87V57.29H420.87V56.92H420.87V56.56H420.87V56.19H421.16V55.83H421.16V55.46H421.16V55.09H421.44V54.73H421.73V54.36H421.73V54H421.73V53.63H422.02V53.26H422.02V52.9H422.3V52.53H422.59V52.17H422.88V51.8H423.45V51.44H423.74V51.07H424.03V50.7H424.03V50.34H424.03V49.97H424.03V49.61H424.6V49.24H424.6V48.88H424.6V48.51H424.6V48.14H424.6V47.78H424.89V47.41H425.46V47.05H425.75V46.68H425.75V46.32H426.04V45.95H426.04V45.58H426.04V45.22H426.04V44.85H426.04V44.49H426.32V44.12H426.32V43.76H426.61V43.39H426.61V43.02H426.61V42.66H427.18V42.29H427.18V41.93H427.18V41.56H427.47V41.2H427.47V40.83H427.76V40.46H427.76V40.1H428.05V39.73H428.05V39.37H428.05V39H428.33V38.63H428.33V38.27H428.91V37.9H429.19V37.54H429.19V37.17H429.19V36.81H429.48V36.44H429.48V36.07H429.77V35.71H430.05V35.34H430.05V34.98H430.34V34.61H430.34V34.25H430.34V33.88H430.63V33.51H430.92V33.15H431.2V32.78H431.49V32.42H431.78V32.05H432.35V31.69H432.64V31.32H432.93V30.95H433.21V30.59H434.07V30.22H434.07V29.86H434.07V29.49H434.65V29.13H434.94V28.76H435.8V28.39H436.08V28.03H436.08V27.66H436.66V27.3H436.95V26.93H436.95V26.57H437.23V26.2H437.52V25.83H437.81V25.47H438.38V25.1H438.67V24.74H439.53V24.37H441.25V24H442.11V23.64H444.12V23.27H445.27V22.91H446.99V22.54H446.99V22.18H448.14V21.81H449.29V21.44H450.44V21.08H450.44V20.71H454.74V20.35H455.32V19.98H459.05V19.62H460.49V19.25" style="vector-effect: non-scaling-stroke; fill: none; stroke: rgb(76, 120, 168); stroke-opacity: 1; stroke-width: 3px; opacity: 1;"/></g><g class="points"/><g class="text"/></g></g></g><g class="overplot"/><path class="xlines-above crisp" d="M0,0" style="fill: none;"/><path class="ylines-above crisp" d="M82,50V435" style="fill: none; stroke-width: 2px; stroke: rgb(0, 0, 0); stroke-opacity: 1;"/><g class="overlines-above"/><g class="xaxislayer-above"><g class="xtick"><text text-anchor="middle" x="0" y="455" transform="translate(85.87,0)" style="font-family: 'Open Sans', verdana, arial, sans-serif; font-size: 19px; fill: rgb(42, 63, 95); fill-opacity: 1; white-space: pre; opacity: 1;">4.75</text></g><g class="xtick"><text text-anchor="middle" x="0" y="455" style="font-family: 'Open Sans', verdana, arial, sans-serif; font-size: 19px; fill: rgb(42, 63, 95); fill-opacity: 1; white-space: pre; opacity: 1;" transform="translate(157.64,0)">5</text></g><g class="xtick"><text text-anchor="middle" x="0" y="455" style="font-family: 'Open Sans', verdana, arial, sans-serif; font-size: 19px; fill: rgb(42, 63, 95); fill-opacity: 1; white-space: pre; opacity: 1;" transform="translate(229.41,0)">5.25</text></g><g class="xtick"><text text-anchor="middle" x="0" y="455" style="font-family: 'Open Sans', verdana, arial, sans-serif; font-size: 19px; fill: rgb(42, 63, 95); fill-opacity: 1; white-space: pre; opacity: 1;" transform="translate(301.19,0)">5.5</text></g><g class="xtick"><text text-anchor="middle" x="0" y="455" style="font-family: 'Open Sans', verdana, arial, sans-serif; font-size: 19px; fill: rgb(42, 63, 95); fill-opacity: 1; white-space: pre; opacity: 1;" transform="translate(372.96,0)">5.75</text></g><g class="xtick"><text text-anchor="middle" x="0" y="455" style="font-family: 'Open Sans', verdana, arial, sans-serif; font-size: 19px; fill: rgb(42, 63, 95); fill-opacity: 1; white-space: pre; opacity: 1;" transform="translate(444.73,0)">6</text></g><g class="xtick"><text text-anchor="middle" x="0" y="455" style="font-family: 'Open Sans', verdana, arial, sans-serif; font-size: 19px; fill: rgb(42, 63, 95); fill-opacity: 1; white-space: pre; opacity: 1;" transform="translate(516.5,0)">6.25</text></g><g class="xtick"><text text-anchor="middle" x="0" y="455" style="font-family: 'Open Sans', verdana, arial, sans-serif; font-size: 19px; fill: rgb(42, 63, 95); fill-opacity: 1; white-space: pre; opacity: 1;" transform="translate(588.27,0)">6.5</text></g><g class="xtick"><text text-anchor="middle" x="0" y="455" style="font-family: 'Open Sans', verdana, arial, sans-serif; font-size: 19px; fill: rgb(42, 63, 95); fill-opacity: 1; white-space: pre; opacity: 1;" transform="translate(660.04,0)">6.75</text></g><g class="xtick"><text text-anchor="middle" x="0" y="455" style="font-family: 'Open Sans', verdana, arial, sans-serif; font-size: 19px; fill: rgb(42, 63, 95); fill-opacity: 1; white-space: pre; opacity: 1;" transform="translate(731.81,0)">7</text></g><g class="xtick"><text text-anchor="middle" x="0" y="455" style="font-family: 'Open Sans', verdana, arial, sans-serif; font-size: 19px; fill: rgb(42, 63, 95); fill-opacity: 1; white-space: pre; opacity: 1;" transform="translate(803.59,0)">7.25</text></g><g class="xtick"><text text-anchor="middle" x="0" y="455" style="font-family: 'Open Sans', verdana, arial, sans-serif; font-size: 19px; fill: rgb(42, 63, 95); fill-opacity: 1; white-space: pre; opacity: 1;" transform="translate(875.36,0)">7.5</text></g><g class="xtick"><text text-anchor="middle" x="0" y="455" style="font-family: 'Open Sans', verdana, arial, sans-serif; font-size: 19px; fill: rgb(42, 63, 95); fill-opacity: 1; white-space: pre; opacity: 1;" transform="translate(947.13,0)">7.75</text></g></g><g class="yaxislayer-above"><g class="ytick"><text text-anchor="end" x="77.2" y="6.6499999999999995" transform="translate(0,435)" style="font-family: 'Open Sans', verdana, arial, sans-serif; font-size: 19px; fill: rgb(42, 63, 95); fill-opacity: 1; white-space: pre; opacity: 1;">0</text></g><g class="ytick"><text text-anchor="end" x="77.2" y="6.6499999999999995" style="font-family: 'Open Sans', verdana, arial, sans-serif; font-size: 19px; fill: rgb(42, 63, 95); fill-opacity: 1; white-space: pre; opacity: 1;" transform="translate(0,398.43)">10</text></g><g class="ytick"><text text-anchor="end" x="77.2" y="6.6499999999999995" style="font-family: 'Open Sans', verdana, arial, sans-serif; font-size: 19px; fill: rgb(42, 63, 95); fill-opacity: 1; white-space: pre; opacity: 1;" transform="translate(0,361.85)">20</text></g><g class="ytick"><text text-anchor="end" x="77.2" y="6.6499999999999995" style="font-family: 'Open Sans', verdana, arial, sans-serif; font-size: 19px; fill: rgb(42, 63, 95); fill-opacity: 1; white-space: pre; opacity: 1;" transform="translate(0,325.27)">30</text></g><g class="ytick"><text text-anchor="end" x="77.2" y="6.6499999999999995" style="font-family: 'Open Sans', verdana, arial, sans-serif; font-size: 19px; fill: rgb(42, 63, 95); fill-opacity: 1; white-space: pre; opacity: 1;" transform="translate(0,288.7)">40</text></g><g class="ytick"><text text-anchor="end" x="77.2" y="6.6499999999999995" style="font-family: 'Open Sans', verdana, arial, sans-serif; font-size: 19px; fill: rgb(42, 63, 95); fill-opacity: 1; white-space: pre; opacity: 1;" transform="translate(0,252.13)">50</text></g><g class="ytick"><text text-anchor="end" x="77.2" y="6.6499999999999995" style="font-family: 'Open Sans', verdana, arial, sans-serif; font-size: 19px; fill: rgb(42, 63, 95); fill-opacity: 1; white-space: pre; opacity: 1;" transform="translate(0,215.55)">60</text></g><g class="ytick"><text text-anchor="end" x="77.2" y="6.6499999999999995" style="font-family: 'Open Sans', verdana, arial, sans-serif; font-size: 19px; fill: rgb(42, 63, 95); fill-opacity: 1; white-space: pre; opacity: 1;" transform="translate(0,178.98)">70</text></g><g class="ytick"><text text-anchor="end" x="77.2" y="6.6499999999999995" style="font-family: 'Open Sans', verdana, arial, sans-serif; font-size: 19px; fill: rgb(42, 63, 95); fill-opacity: 1; white-space: pre; opacity: 1;" transform="translate(0,142.4)">80</text></g><g class="ytick"><text text-anchor="end" x="77.2" y="6.6499999999999995" style="font-family: 'Open Sans', verdana, arial, sans-serif; font-size: 19px; fill: rgb(42, 63, 95); fill-opacity: 1; white-space: pre; opacity: 1;" transform="translate(0,105.83)">90</text></g><g class="ytick"><text text-anchor="end" x="77.2" y="6.6499999999999995" style="font-family: 'Open Sans', verdana, arial, sans-serif; font-size: 19px; fill: rgb(42, 63, 95); fill-opacity: 1; white-space: pre; opacity: 1;" transform="translate(0,69.25)">100</text></g></g><g class="overaxes-above"/></g></g><g class="polarlayer"/><g class="ternarylayer"/><g class="geolayer"/><g class="funnelarealayer"/><g class="pielayer"/><g class="iciclelayer"/><g class="treemaplayer"/><g class="sunburstlayer"/><g class="glimages"/><defs id="topdefs-1638dc"><g class="clips"/></defs><g class="layer-above"><g class="imagelayer"/><g class="shapelayer"><path data-index="0" fill-rule="evenodd" d="M215.06,435L215.06,69.25" clip-path="url(#clip1638dcxy)" style="opacity: 1; stroke: rgb(214, 39, 40); stroke-opacity: 0.7; fill: rgb(0, 0, 0); fill-opacity: 0; stroke-dasharray: 12px, 12px; stroke-width: 4px;"/><path data-index="1" fill-rule="evenodd" d="M301.19,435L301.19,69.25" clip-path="url(#clip1638dcxy)" style="opacity: 1; stroke: rgb(214, 39, 40); stroke-opacity: 0.7; fill: rgb(0, 0, 0); fill-opacity: 0; stroke-dasharray: 12px, 12px; stroke-width: 4px;"/><path data-index="2" fill-rule="evenodd" d="M875.36,435L875.36,69.25" clip-path="url(#clip1638dcxy)" style="opacity: 1; stroke: rgb(214, 39, 40); stroke-opacity: 0.7; fill: rgb(0, 0, 0); fill-opacity: 0; stroke-dasharray: 12px, 12px; stroke-width: 4px;"/></g></g><g class="infolayer"><g class="g-gtitle"/><g class="g-xtitle"><text class="xtitle" x="516.5" y="490.1" text-anchor="middle" style="font-family: 'Open Sans', verdana, arial, sans-serif; font-size: 23px; fill: rgb(42, 63, 95); opacity: 1; font-weight: normal; white-space: pre;">Costs [€]</text></g><g class="g-ytitle" transform="translate(13.146484375,0)"><text class="ytitle" transform="rotate(-90,9.853125000000006,242.5)" x="9.853125000000006" y="242.5" text-anchor="middle" style="font-family: 'Open Sans', verdana, arial, sans-serif; font-size: 23px; fill: rgb(42, 63, 95); opacity: 1; font-weight: normal; white-space: pre;">Cummulative distribution [%]</text></g></g></svg>