<svg class="main-svg" xmlns="http://www.w3.org/2000/svg" xmlns:xlink="http://www.w3.org/1999/xlink" width="800" height="510" viewBox="0 0 800 510"><rect x="0" y="0" width="800" height="510" style="fill: rgb(255, 255, 255); fill-opacity: 1;"/><defs id="defs-0d50b8"><g class="clips"><clipPath id="clip0d50b8xyplot" class="plotclip"><rect width="679" height="370"/></clipPath><clipPath class="axesclip" id="clip0d50b8x"><rect x="71" y="0" width="679" height="510"/></clipPath><clipPath class="axesclip" id="clip0d50b8y"><rect x="0" y="50" width="800" height="370"/></clipPath><clipPath class="axesclip" id="clip0d50b8xy"><rect x="71" y="50" width="679" height="370"/></clipPath></g><g class="gradients"/><g class="patterns"/></defs><g class="bglayer"/><g class="layer-below"><g class="imagelayer"/><g class="shapelayer"/></g><g class="cartesianlayer"><g class="subplot xy"><g class="layer-subplot"><g class="shapelayer"/><g class="imagelayer"/></g><g class="gridlayer"><g class="x"><path class="xgrid crisp" transform="translate(127.58,0)" d="M0,50v370" style="stroke: rgb(235, 240, 248); stroke-opacity: 1; stroke-width: 1px;"/><path class="xgrid crisp" transform="translate(240.75,0)" d="M0,50v370" style="stroke: rgb(235, 240, 248); stroke-opacity: 1; stroke-width: 1px;"/><path class="xgrid crisp" transform="translate(353.92,0)" d="M0,50v370" style="stroke: rgb(235, 240, 248); stroke-opacity: 1; stroke-width: 1px;"/><path class="xgrid crisp" transform="translate(467.08,0)" d="M0,50v370" style="stroke: rgb(235, 240, 248); stroke-opacity: 1; stroke-width: 1px;"/><path class="xgrid crisp" transform="translate(580.25,0)" d="M0,50v370" style="stroke: rgb(235, 240, 248); stroke-opacity: 1; stroke-width: 1px;"/><path class="xgrid crisp" transform="translate(693.42,0)" d="M0,50v370" style="stroke: rgb(235, 240, 248); stroke-opacity: 1; stroke-width: 1px;"/></g><g class="y"><path class="ygrid crisp" transform="translate(0,361.75)" d="M71,0h679" style="stroke: rgb(235, 240, 248); stroke-opacity: 1; stroke-width: 1px;"/><path class="ygrid crisp" transform="translate(0,319.62)" d="M71,0h679" style="stroke: rgb(235, 240, 248); stroke-opacity: 1; stroke-width: 1px;"/><path class="ygrid crisp" transform="translate(0,277.49)" d="M71,0h679" style="stroke: rgb(235, 240, 248); stroke-opacity: 1; stroke-width: 1px;"/><path class="ygrid crisp" transform="translate(0,235.36)" d="M71,0h679" style="stroke: rgb(235, 240, 248); stroke-opacity: 1; stroke-width: 1px;"/><path class="ygrid crisp" transform="translate(0,193.23)" d="M71,0h679" style="stroke: rgb(235, 240, 248); stroke-opacity: 1; stroke-width: 1px;"/><path class="ygrid crisp" transform="translate(0,151.1)" d="M71,0h679" style="stroke: rgb(235, 240, 248); stroke-opacity: 1; stroke-width: 1px;"/><path class="ygrid crisp" transform="translate(0,108.97)" d="M71,0h679" style="stroke: rgb(235, 240, 248); stroke-opacity: 1; stroke-width: 1px;"/><path class="ygrid crisp" transform="translate(0,66.84)" d="M71,0h679" style="stroke: rgb(235, 240, 248); stroke-opacity: 1; stroke-width: 1px;"/></g></g><g class="zerolinelayer"><path class="yzl zl crisp" transform="translate(0,403.88)" d="M71,0h679" style="stroke: rgb(0, 0, 0); stroke-opacity: 1; stroke-width: 2px;"/></g><path class="xlines-below"/><path class="ylines-below"/><g class="overlines-below"/><g class="xaxislayer-below"/><g class="yaxislayer-below"/><g class="overaxes-below"/><g class="plot" transform="translate(71,50)" clip-path="url(#clip0d50b8xyplot)"><g class="scatterlayer mlayer"><g class="trace scatter trace8585b0" style="stroke-miterlimit: 2; opacity: 1;"><g class="fills"/><g class="errorbars"/><g class="lines"><path class="js-line" d="M0,351.38L9.43,346.81L18.86,344.52L28.29,342.16L37.72,340.96L56.58,338.55L66.01,335.54L75.44,333.54L84.88,333.06L113.17,332.11L122.6,331.5L132.03,330.1L141.46,329.67L160.32,327.18L169.75,326.35L179.18,324.74L188.61,321.65L198.04,317.82L207.47,315.08L235.76,309.91L245.19,307.16L264.06,302.28L273.49,300.95L282.92,300.18L292.35,296.88L301.78,294.92L311.21,294.04L320.64,293.19L330.07,291.15L339.5,288.82L348.93,288.28L358.36,287.93L367.79,286.65L377.22,284.45L386.65,278.28L396.08,273.64L405.51,270.93L443.24,263.89L452.67,262.86L480.96,257.25L490.39,254.09L499.82,251.14L509.25,246.67L528.11,243.72L537.54,242.98L556.4,237.64L565.83,233.54L584.69,232.71L594.13,230.42L603.56,228.97L612.99,224.5L622.42,217.36L631.85,213.56L650.71,208.68L660.14,207.36L679,204.84" style="vector-effect: non-scaling-stroke; fill: none; stroke: rgb(76, 120, 168); stroke-opacity: 1; stroke-width: 2px; opacity: 1;"/></g><g class="points"/><g class="text"/></g><g class="trace scatter traced4213b" style="stroke-miterlimit: 2; opacity: 1;"><g class="fills"/><g class="errorbars"/><g class="lines"><path class="js-line" d="M0,350.65L18.86,345.49L28.29,343.62L47.15,341.06L56.58,338.33L66.01,336.4L75.44,335.48L103.74,334.73L113.17,334.73L198.04,334.3L207.47,331.95L226.33,327.12L235.76,325.92L264.06,323.22L273.49,320.31L282.92,316.13L292.35,313.9L339.5,310.48L348.93,310.48L377.22,310.19L386.65,307.12L405.51,304.44L414.94,303.16L433.81,296.24L443.24,293.72L462.1,290.55L471.53,289.52L480.96,287.16L490.39,283.32L499.82,279.7L509.25,278.42L546.97,276.42L556.4,276L575.26,275.09L584.69,275.09L603.56,274.86L612.99,272.14L622.42,267.37L631.85,264.72L641.28,262.68L650.71,259.41L669.57,253.7L679,251.98" style="vector-effect: non-scaling-stroke; fill: none; stroke: rgb(245, 133, 24); stroke-opacity: 1; stroke-width: 2px; opacity: 1;"/></g><g class="points"/><g class="text"/></g><g class="trace scatter trace48af7e" style="stroke-miterlimit: 2; opacity: 1;"><g class="fills"/><g class="errorbars"/><g class="lines"><path class="js-line" d="M0,351.5L9.43,348.03L18.86,347.31L56.58,344.21L66.01,343.56L94.31,341.75L103.74,338.72L113.17,333.07L122.6,323.98L150.89,285.87L160.32,278.34L179.18,269.03L188.61,265.14L207.47,256.27L216.9,253.17L226.33,250.41L235.76,249.55L320.64,242.09L330.07,234.77L339.5,221.29L348.93,209.82L367.79,186.09L377.22,171.44L386.65,160.89L396.08,155.48L424.38,144.39L433.81,140.99L452.67,136.7L462.1,135.09L528.11,129.57L537.54,129.15L546.97,126.62L556.4,118.75L565.83,105.41L575.26,96.04L584.69,85.27L594.13,68.79L603.56,54.88L612.99,46.18L622.42,38.71L631.85,34.44L660.14,23.44L669.57,20.34L679,18.5" style="vector-effect: non-scaling-stroke; fill: none; stroke: rgb(228, 87, 86); stroke-opacity: 1; stroke-width: 2px; opacity: 1;"/></g><g class="points"/><g class="text"/></g><g class="trace scatter trace08bfa3" style="stroke-miterlimit: 2; opacity: 1;"><g class="fills"/><g class="errorbars"/><g class="lines"><path class="js-line" d="M0,351.5L9.43,348.23L18.86,347.5L37.72,345.58L47.15,343.16L66.01,336.08L75.44,335.1L103.74,334.35L113.17,334.35L198.04,333.93L207.47,332.05L226.33,326.2L235.76,325.33L264.06,322.78L273.49,321.02L292.35,313.9L301.78,312.07L330.07,309.98L339.5,309.53L377.22,309.05L386.65,308.1L396.08,307.45L405.51,304.29L443.24,291.25L452.67,289.46L471.53,287.25L480.96,286.61L499.82,284.42L509.25,282.02L528.11,275.51L537.54,274.19L603.56,271.98L612.99,270.93L622.42,267.9L631.85,263.78L660.14,252.78L669.57,249.69L679,247.86" style="vector-effect: non-scaling-stroke; fill: none; stroke: rgb(114, 183, 178); stroke-opacity: 1; stroke-width: 2px; opacity: 1;"/></g><g class="points"/><g class="text"/></g><g class="trace scatter tracef97bdf" style="stroke-miterlimit: 2; opacity: 1;"><g class="fills"/><g class="errorbars"/><g class="lines"><path class="js-line" d="M0,351.44L9.43,348.09L18.86,347.11L37.72,344.76L47.15,342.29L66.01,335.27L75.44,334.17L169.75,330.3L179.18,330L198.04,329.04L207.47,326.54L226.33,320.57L235.76,319.4L264.06,316.12L273.49,314.2L292.35,307.13L301.78,305.29L348.93,301.46L358.36,301.08L377.22,299.96L386.65,298.71L396.08,297.67L405.51,294.35L424.38,287.16L433.81,283.74L452.67,279.24L462.1,277.61L499.82,272.89L509.25,270.35L528.11,263.9L537.54,262.48L603.56,258.11L612.99,256.79L622.42,253.51L631.85,249.42L660.14,238.24L669.57,235.07L679,233.24" style="vector-effect: non-scaling-stroke; fill: none; stroke: rgb(84, 162, 75); stroke-opacity: 1; stroke-width: 2px; opacity: 1;"/></g><g class="points"/><g class="text"/></g></g></g><g class="overplot"/><path class="xlines-above crisp" d="M0,0" style="fill: none;"/><path class="ylines-above crisp" d="M70,50V420" style="fill: none; stroke-width: 2px; stroke: rgb(0, 0, 0); stroke-opacity: 1;"/><g class="overlines-above"/><g class="xaxislayer-above"><g class="xtick"><text text-anchor="middle" x="0" y="440" transform="translate(127.58,0)" style="font-family: 'Open Sans', verdana, arial, sans-serif; font-size: 19px; fill: rgb(42, 63, 95); fill-opacity: 1; white-space: pre; opacity: 1;"><tspan class="line" dy="0em" x="0" y="440">12:00</tspan><tspan class="line" dy="1.3em" x="0" y="440">May 30, 2019</tspan></text></g><g class="xtick"><text text-anchor="middle" x="0" y="440" style="font-family: 'Open Sans', verdana, arial, sans-serif; font-size: 19px; fill: rgb(42, 63, 95); fill-opacity: 1; white-space: pre; opacity: 1;" transform="translate(240.75,0)"><tspan class="line" dy="0em" x="0" y="440">00:00</tspan><tspan class="line" dy="1.3em" x="0" y="440">May 31, 2019</tspan></text></g><g class="xtick"><text text-anchor="middle" x="0" y="440" style="font-family: 'Open Sans', verdana, arial, sans-serif; font-size: 19px; fill: rgb(42, 63, 95); fill-opacity: 1; white-space: pre; opacity: 1;" transform="translate(353.92,0)">12:00</text></g><g class="xtick"><text text-anchor="middle" x="0" y="440" style="font-family: 'Open Sans', verdana, arial, sans-serif; font-size: 19px; fill: rgb(42, 63, 95); fill-opacity: 1; white-space: pre; opacity: 1;" transform="translate(467.08,0)"><tspan class="line" dy="0em" x="0" y="440">00:00</tspan><tspan class="line" dy="1.3em" x="0" y="440">Jun 1, 2019</tspan></text></g><g class="xtick"><text text-anchor="middle" x="0" y="440" style="font-family: 'Open Sans', verdana, arial, sans-serif; font-size: 19px; fill: rgb(42, 63, 95); fill-opacity: 1; white-space: pre; opacity: 1;" transform="translate(580.25,0)">12:00</text></g><g class="xtick"><text text-anchor="middle" x="0" y="440" style="font-family: 'Open Sans', verdana, arial, sans-serif; font-size: 19px; fill: rgb(42, 63, 95); fill-opacity: 1; white-space: pre; opacity: 1;" transform="translate(693.42,0)"><tspan class="line" dy="0em" x="0" y="440">00:00</tspan><tspan class="line" dy="1.3em" x="0" y="440">Jun 2, 2019</tspan></text></g></g><g class="yaxislayer-above"><g class="ytick"><text text-anchor="end" x="65.2" y="6.6499999999999995" transform="translate(0,403.88)" style="font-family: 'Open Sans', verdana, arial, sans-serif; font-size: 19px; fill: rgb(42, 63, 95); fill-opacity: 1; white-space: pre; opacity: 1;">0</text></g><g class="ytick"><text text-anchor="end" x="65.2" y="6.6499999999999995" style="font-family: 'Open Sans', verdana, arial, sans-serif; font-size: 19px; fill: rgb(42, 63, 95); fill-opacity: 1; white-space: pre; opacity: 1;" transform="translate(0,361.75)">2</text></g><g class="ytick"><text text-anchor="end" x="65.2" y="6.6499999999999995" style="font-family: 'Open Sans', verdana, arial, sans-serif; font-size: 19px; fill: rgb(42, 63, 95); fill-opacity: 1; white-space: pre; opacity: 1;" transform="translate(0,319.62)">4</text></g><g class="ytick"><text text-anchor="end" x="65.2" y="6.6499999999999995" style="font-family: 'Open Sans', verdana, arial, sans-serif; font-size: 19px; fill: rgb(42, 63, 95); fill-opacity: 1; white-space: pre; opacity: 1;" transform="translate(0,277.49)">6</text></g><g class="ytick"><text text-anchor="end" x="65.2" y="6.6499999999999995" style="font-family: 'Open Sans', verdana, arial, sans-serif; font-size: 19px; fill: rgb(42, 63, 95); fill-opacity: 1; white-space: pre; opacity: 1;" transform="translate(0,235.36)">8</text></g><g class="ytick"><text text-anchor="end" x="65.2" y="6.6499999999999995" style="font-family: 'Open Sans', verdana, arial, sans-serif; font-size: 19px; fill: rgb(42, 63, 95); fill-opacity: 1; white-space: pre; opacity: 1;" transform="translate(0,193.23)">10</text></g><g class="ytick"><text text-anchor="end" x="65.2" y="6.6499999999999995" style="font-family: 'Open Sans', verdana, arial, sans-serif; font-size: 19px; fill: rgb(42, 63, 95); fill-opacity: 1; white-space: pre; opacity: 1;" transform="translate(0,151.1)">12</text></g><g class="ytick"><text text-anchor="end" x="65.2" y="6.6499999999999995" style="font-family: 'Open Sans', verdana, arial, sans-serif; font-size: 19px; fill: rgb(42, 63, 95); fill-opacity: 1; white-space: pre; opacity: 1;" transform="translate(0,108.97)">14</text></g><g class="ytick"><text text-anchor="end" x="65.2" y="6.6499999999999995" style="font-family: 'Open Sans', verdana, arial, sans-serif; font-size: 19px; fill: rgb(42, 63, 95); fill-opacity: 1; white-space: pre; opacity: 1;" transform="translate(0,66.84)">16</text></g></g><g class="overaxes-above"/></g></g><g class="polarlayer"/><g class="ternarylayer"/><g class="geolayer"/><g class="funnelarealayer"/><g class="pielayer"/><g class="iciclelayer"/><g class="treemaplayer"/><g class="sunburstlayer"/><g class="glimages"/><defs id="topdefs-0d50b8"><g class="clips"/><clipPath id="legend0d50b8"><rect width="139" height="179" x="0" y="0"/></clipPath></defs><g class="layer-above"><g class="imagelayer"/><g class="shapelayer"/></g><g class="infolayer"><g class="legend" pointer-events="all" transform="translate(104.95,50)"><rect class="bg" shape-rendering="crispEdges" width="139" height="179" x="0" y="0" style="stroke: rgb(68, 68, 68); stroke-opacity: 1; fill: rgb(255, 255, 255); fill-opacity: 1; stroke-width: 0px;"/><g class="scrollbox" transform="" clip-path="url(#legend0d50b8)"><text class="legendtitletext" text-anchor="start" x="2" y="29.900000000000002" style="font-family: 'Open Sans', verdana, arial, sans-serif; font-size: 23px; fill: rgb(42, 63, 95); fill-opacity: 1; white-space: pre;">variable</text><g class="groups" transform=""><g class="traces" transform="translate(0,48.75)" style="opacity: 1;"><text class="legendtext" text-anchor="start" x="40" y="7.409999999999999" style="font-family: 'Open Sans', verdana, arial, sans-serif; font-size: 19px; fill: rgb(42, 63, 95); fill-opacity: 1; white-space: pre;">predictive</text><g class="layers" style="opacity: 1;"><g class="legendfill"/><g class="legendlines"><path class="js-line" d="M5,0h30" style="fill: none; stroke: rgb(76, 120, 168); stroke-opacity: 1; stroke-width: 2px;"/></g><g class="legendsymbols"><g class="legendpoints"/></g></g><rect class="legendtoggle" x="0" y="-13.85" width="133.46875" height="27.7" style="fill: rgb(0, 0, 0); fill-opacity: 0;"/></g></g><g class="groups" transform=""><g class="traces" transform="translate(0,76.45)" style="opacity: 1;"><text class="legendtext" text-anchor="start" x="40" y="7.409999999999999" style="font-family: 'Open Sans', verdana, arial, sans-serif; font-size: 19px; fill: rgb(42, 63, 95); fill-opacity: 1; white-space: pre;">perfect</text><g class="layers" style="opacity: 1;"><g class="legendfill"/><g class="legendlines"><path class="js-line" d="M5,0h30" style="fill: none; stroke: rgb(245, 133, 24); stroke-opacity: 1; stroke-width: 2px;"/></g><g class="legendsymbols"><g class="legendpoints"/></g></g><rect class="legendtoggle" x="0" y="-13.85" width="133.46875" height="27.7" style="fill: rgb(0, 0, 0); fill-opacity: 0;"/></g></g><g class="groups" transform=""><g class="traces" transform="translate(0,104.14999999999999)" style="opacity: 1;"><text class="legendtext" text-anchor="start" x="40" y="7.409999999999999" style="font-family: 'Open Sans', verdana, arial, sans-serif; font-size: 19px; fill: rgb(42, 63, 95); fill-opacity: 1; white-space: pre;">pv only</text><g class="layers" style="opacity: 1;"><g class="legendfill"/><g class="legendlines"><path class="js-line" d="M5,0h30" style="fill: none; stroke: rgb(228, 87, 86); stroke-opacity: 1; stroke-width: 2px;"/></g><g class="legendsymbols"><g class="legendpoints"/></g></g><rect class="legendtoggle" x="0" y="-13.85" width="133.46875" height="27.7" style="fill: rgb(0, 0, 0); fill-opacity: 0;"/></g></g><g class="groups" transform=""><g class="traces" transform="translate(0,131.85)" style="opacity: 1;"><text class="legendtext" text-anchor="start" x="40" y="7.409999999999999" style="font-family: 'Open Sans', verdana, arial, sans-serif; font-size: 19px; fill: rgb(42, 63, 95); fill-opacity: 1; white-space: pre;">reactive</text><g class="layers" style="opacity: 1;"><g class="legendfill"/><g class="legendlines"><path class="js-line" d="M5,0h30" style="fill: none; stroke: rgb(114, 183, 178); stroke-opacity: 1; stroke-width: 2px;"/></g><g class="legendsymbols"><g class="legendpoints"/></g></g><rect class="legendtoggle" x="0" y="-13.85" width="133.46875" height="27.7" style="fill: rgb(0, 0, 0); fill-opacity: 0;"/></g></g><g class="groups" transform=""><g class="traces" transform="translate(0,159.54999999999998)" style="opacity: 1;"><text class="legendtext" text-anchor="start" x="40" y="7.409999999999999" style="font-family: 'Open Sans', verdana, arial, sans-serif; font-size: 19px; fill: rgb(42, 63, 95); fill-opacity: 1; white-space: pre;">bruité</text><g class="layers" style="opacity: 1;"><g class="legendfill"/><g class="legendlines"><path class="js-line" d="M5,0h30" style="fill: none; stroke: rgb(84, 162, 75); stroke-opacity: 1; stroke-width: 2px;"/></g><g class="legendsymbols"><g class="legendpoints"/></g></g><rect class="legendtoggle" x="0" y="-13.85" width="133.46875" height="27.7" style="fill: rgb(0, 0, 0); fill-opacity: 0;"/></g></g></g><rect class="scrollbar" rx="20" ry="3" width="0" height="0" x="0" y="0" style="fill: rgb(128, 139, 164); fill-opacity: 1;"/></g><g class="g-gtitle"/><g class="g-xtitle"/><g class="g-ytitle" transform="translate(13.068359375,0)"><text class="ytitle" transform="rotate(-90,9.931250000000006,235)" x="9.931250000000006" y="235" text-anchor="middle" style="font-family: 'Open Sans', verdana, arial, sans-serif; font-size: 23px; fill: rgb(42, 63, 95); opacity: 1; font-weight: normal; white-space: pre;">Community cost [€]</text></g></g></svg>