<svg class="main-svg" xmlns="http://www.w3.org/2000/svg" xmlns:xlink="http://www.w3.org/1999/xlink" width="1000" height="500" viewBox="0 0 1000 500"><rect x="0" y="0" width="1000" height="500" style="fill: rgb(255, 255, 255); fill-opacity: 1;"/><defs id="defs-009c9c"><g class="clips"><clipPath id="clip009c9cxyplot" class="plotclip"><rect width="858" height="360"/></clipPath><clipPath class="axesclip" id="clip009c9cx"><rect x="75" y="0" width="858" height="500"/></clipPath><clipPath class="axesclip" id="clip009c9cy"><rect x="0" y="50" width="1000" height="360"/></clipPath><clipPath class="axesclip" id="clip009c9cxy"><rect x="75" y="50" width="858" height="360"/></clipPath></g><g class="gradients"/><g class="patterns"/></defs><g class="bglayer"/><g class="layer-below"><g class="imagelayer"/><g class="shapelayer"/></g><g class="cartesianlayer"><g class="subplot xy"><g class="layer-subplot"><g class="shapelayer"/><g class="imagelayer"/></g><g class="gridlayer"><g class="x"><path class="xgrid crisp" transform="translate(182.25,0)" d="M0,50v360" style="stroke: rgb(235, 240, 248); stroke-opacity: 1; stroke-width: 1px;"/><path class="xgrid crisp" transform="translate(289.5,0)" d="M0,50v360" style="stroke: rgb(235, 240, 248); stroke-opacity: 1; stroke-width: 1px;"/><path class="xgrid crisp" transform="translate(396.75,0)" d="M0,50v360" style="stroke: rgb(235, 240, 248); stroke-opacity: 1; stroke-width: 1px;"/><path class="xgrid crisp" transform="translate(504,0)" d="M0,50v360" style="stroke: rgb(235, 240, 248); stroke-opacity: 1; stroke-width: 1px;"/><path class="xgrid crisp" transform="translate(611.25,0)" d="M0,50v360" style="stroke: rgb(235, 240, 248); stroke-opacity: 1; stroke-width: 1px;"/><path class="xgrid crisp" transform="translate(718.5,0)" d="M0,50v360" style="stroke: rgb(235, 240, 248); stroke-opacity: 1; stroke-width: 1px;"/><path class="xgrid crisp" transform="translate(825.75,0)" d="M0,50v360" style="stroke: rgb(235, 240, 248); stroke-opacity: 1; stroke-width: 1px;"/></g><g class="y"><path class="ygrid crisp" transform="translate(0,359.1)" d="M75,0h858" style="stroke: rgb(235, 240, 248); stroke-opacity: 1; stroke-width: 1px;"/><path class="ygrid crisp" transform="translate(0,301.11)" d="M75,0h858" style="stroke: rgb(235, 240, 248); stroke-opacity: 1; stroke-width: 1px;"/><path class="ygrid crisp" transform="translate(0,185.13)" d="M75,0h858" style="stroke: rgb(235, 240, 248); stroke-opacity: 1; stroke-width: 1px;"/><path class="ygrid crisp" transform="translate(0,127.14)" d="M75,0h858" style="stroke: rgb(235, 240, 248); stroke-opacity: 1; stroke-width: 1px;"/><path class="ygrid crisp" transform="translate(0,69.15)" d="M75,0h858" style="stroke: rgb(235, 240, 248); stroke-opacity: 1; stroke-width: 1px;"/></g></g><g class="zerolinelayer"><path class="yzl zl crisp" transform="translate(0,243.12)" d="M75,0h858" style="stroke: rgb(0, 0, 0); stroke-opacity: 1; stroke-width: 2px;"/></g><path class="xlines-below"/><path class="ylines-below"/><g class="overlines-below"/><g class="xaxislayer-below"/><g class="yaxislayer-below"/><g class="overaxes-below"/><g class="plot" transform="translate(75,50)" clip-path="url(#clip009c9cxyplot)"><g class="scatterlayer mlayer"><g class="trace scatter tracec6b7cb" style="stroke-miterlimit: 2; opacity: 1;"><g class="fills"/><g class="errorbars"/><g class="lines"><path class="js-line" d="M0,153.37L7.15,153.37L8.94,150.29L16.09,150.29L17.88,145.76L25.03,145.76L26.81,158.05L33.96,158.05L35.75,151.77L42.9,151.77L44.69,160.13L51.84,160.13L53.63,162.75L60.78,162.75L62.56,168.91L69.71,168.91L71.5,163.75L78.65,163.75L80.44,165.91L87.59,165.91L89.38,155.39L96.53,155.39L98.31,143.83L105.46,143.83L107.25,158.03L114.4,158.03L116.19,166.3L123.34,166.3L125.13,156.39L132.28,156.39L134.06,158.75L150.15,157.61L151.94,170.39L159.09,170.39L160.88,158.95L168.03,158.95L169.81,165.67L176.96,165.67L178.75,168.83L185.9,168.83L187.69,175.28L194.84,175.28L196.63,177.87L212.71,178.9L214.5,174.67L221.65,174.67L223.44,190.77L230.59,190.77L232.38,168.66L239.53,168.66L241.31,218.18L248.46,218.18L250.25,241.06L257.4,241.06L259.19,183.61L266.34,183.61L268.13,235.26L275.28,235.26L277.06,273.61L284.21,273.61L286,276.7L293.15,276.7L294.94,268.56L302.09,268.56L303.88,271.73L311.03,271.73L312.81,300.65L328.9,299.68L330.69,302.08L337.84,302.08L339.63,294.47L346.78,294.47L348.56,250.96L355.71,250.96L357.5,300.23L364.65,300.23L366.44,304.25L373.59,304.25L375.38,326.17L382.53,326.17L384.31,335.34L391.46,335.34L393.25,337.44L400.4,337.44L402.19,301.89L409.34,301.89L411.13,334.91L418.28,334.91L420.06,316.34L427.21,316.34L429,244.76L436.15,244.76L437.94,243.43L445.09,243.43L446.88,309.78L454.03,309.78L455.81,325.61L462.96,325.61L464.75,342L471.9,342L473.69,315.53L480.84,315.53L482.63,298.4L489.78,298.4L491.56,305.04L498.71,305.04L500.5,315.27L507.65,315.27L509.44,310.33L516.59,310.33L518.38,299.74L525.53,299.74L527.31,293.58L534.46,293.58L536.25,289.4L543.4,289.4L545.19,277.23L552.34,277.23L554.13,256.03L561.28,256.03L563.06,236.73L570.21,236.73L572,206.67L579.15,206.67L580.94,122.32L588.09,122.32L589.88,178.88L597.03,178.88L598.81,172.31L605.96,172.31L607.75,121.06L614.9,121.06L616.69,86.64L623.84,86.64L625.63,139.2L632.78,139.2L634.56,143.83L641.71,143.83L643.5,32.55L650.65,32.55L652.44,64.28L659.59,64.28L661.38,121.89L668.53,121.89L670.31,130.99L677.46,130.99L679.25,105.31L686.4,105.31L688.19,133.73L695.34,133.73L697.13,156.37L704.28,156.37L706.06,132.18L713.21,132.18L715,101.22L722.15,101.22L723.94,98.23L731.09,98.23L732.88,87.67L740.03,87.67L741.81,82.99L748.96,82.99L750.75,84.35L757.9,84.35L759.69,47.97L766.84,47.97L768.63,18L775.78,18L777.56,79.05L784.71,79.05L786.5,108.73L793.65,108.73L795.44,111.42L802.59,111.42L804.38,115.15L811.53,115.15L813.31,106.63L820.46,106.63L822.25,150.17L829.4,150.17L831.19,126.72L838.34,126.72L840.13,73.99L847.28,73.99L849.06,120.13L856.21,120.13L858,142.58" style="vector-effect: non-scaling-stroke; fill: none; stroke: rgb(255, 0, 0); stroke-opacity: 1; stroke-width: 5px; opacity: 1;"/></g><g class="points"/><g class="text"/></g></g></g><g class="overplot"/><path class="xlines-above crisp" d="M0,0" style="fill: none;"/><path class="ylines-above crisp" d="M74,50V410" style="fill: none; stroke-width: 2px; stroke: rgb(0, 0, 0); stroke-opacity: 1;"/><g class="overlines-above"/><g class="xaxislayer-above"><g class="xtick"><text text-anchor="middle" x="0" y="430" transform="translate(75,0)" style="font-family: 'Open Sans', verdana, arial, sans-serif; font-size: 19px; fill: rgb(42, 63, 95); fill-opacity: 1; white-space: pre; opacity: 1;"><tspan class="line" dy="0em" x="0" y="430">00:00</tspan><tspan class="line" dy="1.3em" x="0" y="430">Jun 1, 2019</tspan></text></g><g class="xtick"><text text-anchor="middle" x="0" y="430" style="font-family: 'Open Sans', verdana, arial, sans-serif; font-size: 19px; fill: rgb(42, 63, 95); fill-opacity: 1; white-space: pre; opacity: 1;" transform="translate(182.25,0)">03:00</text></g><g class="xtick"><text text-anchor="middle" x="0" y="430" style="font-family: 'Open Sans', verdana, arial, sans-serif; font-size: 19px; fill: rgb(42, 63, 95); fill-opacity: 1; white-space: pre; opacity: 1;" transform="translate(289.5,0)">06:00</text></g><g class="xtick"><text text-anchor="middle" x="0" y="430" style="font-family: 'Open Sans', verdana, arial, sans-serif; font-size: 19px; fill: rgb(42, 63, 95); fill-opacity: 1; white-space: pre; opacity: 1;" transform="translate(396.75,0)">09:00</text></g><g class="xtick"><text text-anchor="middle" x="0" y="430" style="font-family: 'Open Sans', verdana, arial, sans-serif; font-size: 19px; fill: rgb(42, 63, 95); fill-opacity: 1; white-space: pre; opacity: 1;" transform="translate(504,0)">12:00</text></g><g class="xtick"><text text-anchor="middle" x="0" y="430" style="font-family: 'Open Sans', verdana, arial, sans-serif; font-size: 19px; fill: rgb(42, 63, 95); fill-opacity: 1; white-space: pre; opacity: 1;" transform="translate(611.25,0)">15:00</text></g><g class="xtick"><text text-anchor="middle" x="0" y="430" style="font-family: 'Open Sans', verdana, arial, sans-serif; font-size: 19px; fill: rgb(42, 63, 95); fill-opacity: 1; white-space: pre; opacity: 1;" transform="translate(718.5,0)">18:00</text></g><g class="xtick"><text text-anchor="middle" x="0" y="430" style="font-family: 'Open Sans', verdana, arial, sans-serif; font-size: 19px; fill: rgb(42, 63, 95); fill-opacity: 1; white-space: pre; opacity: 1;" transform="translate(825.75,0)">21:00</text></g><g class="xtick"><text text-anchor="middle" x="0" y="430" style="font-family: 'Open Sans', verdana, arial, sans-serif; font-size: 19px; fill: rgb(42, 63, 95); fill-opacity: 1; white-space: pre; opacity: 1;" transform="translate(933,0)"><tspan class="line" dy="0em" x="0" y="430">00:00</tspan><tspan class="line" dy="1.3em" x="0" y="430">Jun 2, 2019</tspan></text></g></g><g class="yaxislayer-above"><g class="ytick"><text text-anchor="end" x="69.2" y="6.6499999999999995" transform="translate(0,359.1)" style="font-family: 'Open Sans', verdana, arial, sans-serif; font-size: 19px; fill: rgb(42, 63, 95); fill-opacity: 1; white-space: pre; opacity: 1;">−4</text></g><g class="ytick"><text text-anchor="end" x="69.2" y="6.6499999999999995" style="font-family: 'Open Sans', verdana, arial, sans-serif; font-size: 19px; fill: rgb(42, 63, 95); fill-opacity: 1; white-space: pre; opacity: 1;" transform="translate(0,301.11)">−2</text></g><g class="ytick"><text text-anchor="end" x="69.2" y="6.6499999999999995" style="font-family: 'Open Sans', verdana, arial, sans-serif; font-size: 19px; fill: rgb(42, 63, 95); fill-opacity: 1; white-space: pre; opacity: 1;" transform="translate(0,243.12)">0</text></g><g class="ytick"><text text-anchor="end" x="69.2" y="6.6499999999999995" style="font-family: 'Open Sans', verdana, arial, sans-serif; font-size: 19px; fill: rgb(42, 63, 95); fill-opacity: 1; white-space: pre; opacity: 1;" transform="translate(0,185.13)">2</text></g><g class="ytick"><text text-anchor="end" x="69.2" y="6.6499999999999995" style="font-family: 'Open Sans', verdana, arial, sans-serif; font-size: 19px; fill: rgb(42, 63, 95); fill-opacity: 1; white-space: pre; opacity: 1;" transform="translate(0,127.14)">4</text></g><g class="ytick"><text text-anchor="end" x="69.2" y="6.6499999999999995" style="font-family: 'Open Sans', verdana, arial, sans-serif; font-size: 19px; fill: rgb(42, 63, 95); fill-opacity: 1; white-space: pre; opacity: 1;" transform="translate(0,69.15)">6</text></g></g><g class="overaxes-above"/></g></g><g class="polarlayer"/><g class="ternarylayer"/><g class="geolayer"/><g class="funnelarealayer"/><g class="pielayer"/><g class="iciclelayer"/><g class="treemaplayer"/><g class="sunburstlayer"/><g class="glimages"/><defs id="topdefs-009c9c"><g class="clips"/></defs><g class="layer-above"><g class="imagelayer"/><g class="shapelayer"/></g><g class="infolayer"><g class="g-gtitle"/><g class="g-xtitle"/><g class="g-ytitle" transform="translate(12.537109375,0)"><text class="ytitle" transform="rotate(-90,10.462500000000006,230)" x="10.462500000000006" y="230" text-anchor="middle" style="font-family: 'Open Sans', verdana, arial, sans-serif; font-size: 23px; fill: rgb(42, 63, 95); opacity: 1; font-weight: normal; white-space: pre;">Netload [kW]</text></g></g></svg>