<svg class="main-svg" xmlns="http://www.w3.org/2000/svg" xmlns:xlink="http://www.w3.org/1999/xlink" width="900" height="500" viewBox="0 0 900 500"><rect x="0" y="0" width="900" height="500" style="fill: rgb(255, 255, 255); fill-opacity: 1;"/><defs id="defs-085054"><g class="clips"><clipPath id="clip085054xyplot" class="plotclip"><rect width="777" height="360"/></clipPath><clipPath class="axesclip" id="clip085054x"><rect x="73" y="0" width="777" height="500"/></clipPath><clipPath class="axesclip" id="clip085054y"><rect x="0" y="50" width="900" height="360"/></clipPath><clipPath class="axesclip" id="clip085054xy"><rect x="73" y="50" width="777" height="360"/></clipPath></g><g class="gradients"/><g class="patterns"/></defs><g class="bglayer"/><g class="layer-below"><g class="imagelayer"/><g class="shapelayer"/></g><g class="cartesianlayer"><g class="subplot xy"><g class="layer-subplot"><g class="shapelayer"/><g class="imagelayer"/></g><g class="gridlayer"><g class="x"><path class="xgrid crisp" transform="translate(171.15,0)" d="M0,50v360" style="stroke: rgb(235, 240, 248); stroke-opacity: 1; stroke-width: 1px;"/><path class="xgrid crisp" transform="translate(269.28999999999996,0)" d="M0,50v360" style="stroke: rgb(235, 240, 248); stroke-opacity: 1; stroke-width: 1px;"/><path class="xgrid crisp" transform="translate(367.44,0)" d="M0,50v360" style="stroke: rgb(235, 240, 248); stroke-opacity: 1; stroke-width: 1px;"/><path class="xgrid crisp" transform="translate(465.59,0)" d="M0,50v360" style="stroke: rgb(235, 240, 248); stroke-opacity: 1; stroke-width: 1px;"/><path class="xgrid crisp" transform="translate(563.74,0)" d="M0,50v360" style="stroke: rgb(235, 240, 248); stroke-opacity: 1; stroke-width: 1px;"/><path class="xgrid crisp" transform="translate(661.88,0)" d="M0,50v360" style="stroke: rgb(235, 240, 248); stroke-opacity: 1; stroke-width: 1px;"/><path class="xgrid crisp" transform="translate(760.03,0)" d="M0,50v360" style="stroke: rgb(235, 240, 248); stroke-opacity: 1; stroke-width: 1px;"/></g><g class="y"><path class="ygrid crisp" transform="translate(0,359.3)" d="M73,0h777" style="stroke: rgb(235, 240, 248); stroke-opacity: 1; stroke-width: 1px;"/><path class="ygrid crisp" transform="translate(0,308.59)" d="M73,0h777" style="stroke: rgb(235, 240, 248); stroke-opacity: 1; stroke-width: 1px;"/><path class="ygrid crisp" transform="translate(0,257.89)" d="M73,0h777" style="stroke: rgb(235, 240, 248); stroke-opacity: 1; stroke-width: 1px;"/><path class="ygrid crisp" transform="translate(0,207.18)" d="M73,0h777" style="stroke: rgb(235, 240, 248); stroke-opacity: 1; stroke-width: 1px;"/><path class="ygrid crisp" transform="translate(0,156.48000000000002)" d="M73,0h777" style="stroke: rgb(235, 240, 248); stroke-opacity: 1; stroke-width: 1px;"/><path class="ygrid crisp" transform="translate(0,105.77000000000001)" d="M73,0h777" style="stroke: rgb(235, 240, 248); stroke-opacity: 1; stroke-width: 1px;"/><path class="ygrid crisp" transform="translate(0,55.07)" d="M73,0h777" style="stroke: rgb(235, 240, 248); stroke-opacity: 1; stroke-width: 1px;"/></g></g><g class="zerolinelayer"><path class="yzl zl crisp" transform="translate(0,410)" d="M73,0h777" style="stroke: rgb(0, 0, 0); stroke-opacity: 1; stroke-width: 2px;"/></g><path class="xlines-below"/><path class="ylines-below"/><g class="overlines-below"/><g class="xaxislayer-below"/><g class="yaxislayer-below"/><g class="overaxes-below"/><g class="plot" transform="translate(73,50)" clip-path="url(#clip085054xyplot)"><g class="scatterlayer mlayer"><g class="trace scatter trace49fd23" style="stroke-miterlimit: 2; opacity: 1;"><g class="fills"/><g class="errorbars"/><g class="lines"><path class="js-line" d="M0,360L130.86,360L139.04,355.98L163.58,343.91L171.76,333.26L196.29,301.3L204.47,279.02L229.01,212.18L237.19,192.12L261.73,131.93L269.91,116.03L294.44,68.32L302.62,59.22L327.16,31.9L335.34,27.41L359.87,13.92L368.05,15.24L392.59,19.2L400.77,25.44L425.31,44.14L433.48,55.87L458.02,91.04L466.2,107.59L490.74,157.25L498.92,177.55L556.17,320.37L564.35,326.89L588.88,346.46L597.06,349.85L621.6,360L629.78,360L777,360" style="vector-effect: non-scaling-stroke; fill: none; stroke: rgb(255, 127, 14); stroke-opacity: 1; stroke-width: 3px; opacity: 1;"/></g><g class="points"/><g class="text"/></g><g class="trace scatter trace320423" style="stroke-miterlimit: 2;"><g class="fills"><g><path class="js-fill" d="M0,234.39L8.18,240.43L16.36,217.29L24.54,215.53L32.72,196.9L40.89,197.59L49.07,209.17L57.25,226.27L65.43,224.13L73.61,228.77L81.79,179.34L89.97,58.99L98.15,142.17L106.33,217.72L114.51,150.07L122.68,65.45L130.86,226.46L139.04,240.9L147.22,215.02L155.4,186.27L163.58,201.53L171.76,206.58L179.94,234.1L188.12,226.28L196.29,162.93L204.47,136.92L212.65,360L220.83,132.67L229.01,360L302.62,360L310.8,343.19L318.98,360L327.16,340.35L343.52,293L351.69,296.49L359.87,359.03L368.05,340L376.23,324.69L384.41,337.88L400.77,359.55L408.95,333.96L417.13,342.52L425.31,329.78L433.48,360L441.66,360L449.84,322.14L458.02,323.03L466.2,351.59L474.38,360L539.81,360L547.99,205.59L556.17,212.95L564.35,70.15L572.53,209.5L580.71,152.82L588.88,158.08L597.06,91.51L605.24,187.89L613.42,200.36L621.6,212.46L629.78,135.42L637.96,157.86L646.14,187.08L654.32,161.93L662.49,200.46L670.67,196.51L678.85,201.44L687.03,162.41L695.21,172.9L703.39,164.54L711.57,152.11L719.75,100.97L727.93,30.46L736.11,46.95L744.28,85.69L752.46,170.84L760.64,175.95L768.82,170.75L777,188.95L777,360L768.82,354.42L760.64,359.62L752.46,354.51L744.28,269.36L736.11,230.61L727.93,150.71L719.75,284.63L711.57,335.78L703.39,348.21L695.21,356.57L687.03,346.08L678.85,360L662.49,360L654.32,345.6L646.14,360L637.96,341.52L629.78,319.09L621.6,360L613.42,356.62L605.24,353.23L597.06,275.18L588.88,341.75L580.71,336.49L572.53,333.42L564.35,253.82L556.17,320.37L498.92,177.55L490.74,157.25L458.02,91.04L449.84,79.32L441.66,112.82L433.48,110.12L425.31,75.59L417.13,88.33L408.95,79.78L400.77,105.37L384.41,83.69L376.23,70.51L368.05,85.81L359.87,104.84L351.69,42.3L343.52,38.82L335.34,63.35L327.16,86.17L318.98,120.57L310.8,89L302.62,128.53L294.44,105.96L286.26,126.24L278.08,111.83L269.91,129.17L261.73,131.93L237.19,192.12L229.01,212.18L204.47,279.02L196.29,301.3L171.76,333.26L163.58,343.91L139.04,355.98L130.86,360L122.68,249.12L114.51,333.74L106.33,360L98.15,325.84L89.97,242.66L81.79,360L0,360Z" style="fill: rgb(55, 128, 191); fill-opacity: 0.01; stroke-width: 0;"/></g></g><g class="errorbars"/><g class="lines"><path class="js-line" d="M0,360L81.79,360L89.97,242.66L98.15,325.84L106.33,360L114.51,333.74L122.68,249.12L130.86,360L139.04,355.98L163.58,343.91L171.76,333.26L196.29,301.3L204.47,279.02L229.01,212.18L237.19,192.12L261.73,131.93L269.91,129.17L278.08,111.83L286.26,126.24L294.44,105.96L302.62,128.53L310.8,89L318.98,120.57L327.16,86.17L335.34,63.35L343.52,38.82L351.69,42.3L359.87,104.84L368.05,85.81L376.23,70.51L384.41,83.69L400.77,105.37L408.95,79.78L417.13,88.33L425.31,75.59L433.48,110.12L441.66,112.82L449.84,79.32L458.02,91.04L490.74,157.25L498.92,177.55L556.17,320.37L564.35,253.82L572.53,333.42L580.71,336.49L588.88,341.75L597.06,275.18L605.24,353.23L613.42,356.62L621.6,360L629.78,319.09L637.96,341.52L646.14,360L654.32,345.6L662.49,360L678.85,360L687.03,346.08L695.21,356.57L703.39,348.21L711.57,335.78L719.75,284.63L727.93,150.71L736.11,230.61L744.28,269.36L752.46,354.51L760.64,359.62L768.82,354.42L777,360" style="vector-effect: non-scaling-stroke; fill: none; stroke: rgb(44, 160, 44); stroke-opacity: 0.7; stroke-width: 2px; opacity: 1;"/></g><g class="points"/><g class="text"/></g><g class="trace scatter trace03a37d" style="stroke-miterlimit: 2;"><g class="fills"/><g class="errorbars"/><g class="lines"><path class="js-line" d="M0,234.39L8.18,240.43L16.36,217.29L24.54,215.53L32.72,196.9L40.89,197.59L49.07,209.17L57.25,226.27L65.43,224.13L73.61,228.77L81.79,179.34L89.97,58.99L98.15,142.17L106.33,217.72L114.51,150.07L122.68,65.45L130.86,226.46L139.04,240.9L147.22,215.02L155.4,186.27L163.58,201.53L171.76,206.58L179.94,234.1L188.12,226.28L196.29,162.93L204.47,136.92L212.65,360L220.83,132.67L229.01,360L302.62,360L310.8,343.19L318.98,360L327.16,340.35L343.52,293L351.69,296.49L359.87,359.03L368.05,340L376.23,324.69L384.41,337.88L400.77,359.55L408.95,333.96L417.13,342.52L425.31,329.78L433.48,360L441.66,360L449.84,322.14L458.02,323.03L466.2,351.59L474.38,360L539.81,360L547.99,205.59L556.17,212.95L564.35,70.15L572.53,209.5L580.71,152.82L588.88,158.08L597.06,91.51L605.24,187.89L613.42,200.36L621.6,212.46L629.78,135.42L637.96,157.86L646.14,187.08L654.32,161.93L662.49,200.46L670.67,196.51L678.85,201.44L687.03,162.41L695.21,172.9L703.39,164.54L711.57,152.11L719.75,100.97L727.93,30.46L736.11,46.95L744.28,85.69L752.46,170.84L760.64,175.95L768.82,170.75L777,188.95" style="vector-effect: non-scaling-stroke; fill: none; stroke: rgb(214, 39, 40); stroke-opacity: 0.7; stroke-width: 2px; opacity: 1;"/></g><g class="points"/><g class="text"/></g><g class="trace scatter traceaf1a1c" style="stroke-miterlimit: 2; opacity: 0.7;"><g class="fills"/><g class="errorbars"/><g class="lines"><path class="js-line" d="M0,297.81L8.18,303.84L16.36,280.71L24.54,278.95L32.72,260.31L40.89,261.01L49.07,272.59L57.25,289.68L65.43,287.55L73.61,292.19L81.79,242.75L89.97,122.41L98.15,205.59L106.33,281.13L114.51,213.49L122.68,128.87L130.86,289.88L139.04,304.32L147.22,278.43L155.4,249.69L163.58,264.95L171.76,270L179.94,297.52L188.12,289.7L196.29,226.35L204.47,200.34L212.65,286.56L220.83,196.09L229.01,282.32L237.19,260.67L245.37,295.8L253.55,283.61L261.73,281.18L269.91,282.74L278.08,265.39L286.26,279.8L294.44,259.52L302.62,282.09L310.8,242.57L318.98,274.14L327.16,239.73L343.52,192.38L351.69,195.87L359.87,258.41L368.05,239.38L376.23,224.07L384.41,237.25L400.77,258.93L408.95,233.34L417.13,241.9L425.31,229.16L433.48,263.69L441.66,266.38L449.84,221.51L458.02,222.41L466.2,250.97L474.38,270.84L482.56,291.19L490.74,272.35L498.92,294.36L507.09,299.95L515.27,310.19L523.45,307.99L531.63,298.23L539.81,293.55L547.99,269.01L556.17,276.37L564.35,133.57L572.53,272.92L580.71,216.24L588.88,221.5L597.06,154.93L605.24,251.31L621.6,275.88L629.78,198.84L637.96,221.28L646.14,250.5L654.32,225.35L662.49,263.88L670.67,259.93L678.85,264.86L687.03,225.83L695.21,236.32L703.39,227.96L711.57,215.53L719.75,164.39L727.93,30.46L736.11,110.36L744.28,149.11L752.46,234.26L760.64,239.37L768.82,234.17L777,252.37" style="vector-effect: non-scaling-stroke; fill: none; stroke: rgb(55, 128, 191); stroke-opacity: 1; stroke-width: 3px; opacity: 1;"/></g><g class="points"/><g class="text"/></g></g></g><g class="overplot"/><path class="xlines-above crisp" d="M0,0" style="fill: none;"/><path class="ylines-above crisp" d="M72,50V410" style="fill: none; stroke-width: 2px; stroke: rgb(0, 0, 0); stroke-opacity: 1;"/><g class="overlines-above"/><g class="xaxislayer-above"><g class="xtick"><text text-anchor="middle" x="0" y="430" transform="translate(73,0)" style="font-family: 'Open Sans', verdana, arial, sans-serif; font-size: 19px; fill: rgb(0, 0, 0); fill-opacity: 1; white-space: pre; opacity: 1;"><tspan class="line" dy="0em" x="0" y="430">00:00</tspan><tspan class="line" dy="1.3em" x="0" y="430">Jun 11, 2019</tspan></text></g><g class="xtick"><text text-anchor="middle" x="0" y="430" style="font-family: 'Open Sans', verdana, arial, sans-serif; font-size: 19px; fill: rgb(0, 0, 0); fill-opacity: 1; white-space: pre; opacity: 1;" transform="translate(171.15,0)">03:00</text></g><g class="xtick"><text text-anchor="middle" x="0" y="430" style="font-family: 'Open Sans', verdana, arial, sans-serif; font-size: 19px; fill: rgb(0, 0, 0); fill-opacity: 1; white-space: pre; opacity: 1;" transform="translate(269.28999999999996,0)">06:00</text></g><g class="xtick"><text text-anchor="middle" x="0" y="430" style="font-family: 'Open Sans', verdana, arial, sans-serif; font-size: 19px; fill: rgb(0, 0, 0); fill-opacity: 1; white-space: pre; opacity: 1;" transform="translate(367.44,0)">09:00</text></g><g class="xtick"><text text-anchor="middle" x="0" y="430" style="font-family: 'Open Sans', verdana, arial, sans-serif; font-size: 19px; fill: rgb(0, 0, 0); fill-opacity: 1; white-space: pre; opacity: 1;" transform="translate(465.59,0)">12:00</text></g><g class="xtick"><text text-anchor="middle" x="0" y="430" style="font-family: 'Open Sans', verdana, arial, sans-serif; font-size: 19px; fill: rgb(0, 0, 0); fill-opacity: 1; white-space: pre; opacity: 1;" transform="translate(563.74,0)">15:00</text></g><g class="xtick"><text text-anchor="middle" x="0" y="430" style="font-family: 'Open Sans', verdana, arial, sans-serif; font-size: 19px; fill: rgb(0, 0, 0); fill-opacity: 1; white-space: pre; opacity: 1;" transform="translate(661.88,0)">18:00</text></g><g class="xtick"><text text-anchor="middle" x="0" y="430" style="font-family: 'Open Sans', verdana, arial, sans-serif; font-size: 19px; fill: rgb(0, 0, 0); fill-opacity: 1; white-space: pre; opacity: 1;" transform="translate(760.03,0)">21:00</text></g></g><g class="yaxislayer-above"><g class="ytick"><text text-anchor="end" x="67.2" y="6.6499999999999995" transform="translate(0,410)" style="font-family: 'Open Sans', verdana, arial, sans-serif; font-size: 19px; fill: rgb(0, 0, 0); fill-opacity: 1; white-space: pre; opacity: 1;">0</text></g><g class="ytick"><text text-anchor="end" x="67.2" y="6.6499999999999995" style="font-family: 'Open Sans', verdana, arial, sans-serif; font-size: 19px; fill: rgb(0, 0, 0); fill-opacity: 1; white-space: pre; opacity: 1;" transform="translate(0,359.3)">5</text></g><g class="ytick"><text text-anchor="end" x="67.2" y="6.6499999999999995" style="font-family: 'Open Sans', verdana, arial, sans-serif; font-size: 19px; fill: rgb(0, 0, 0); fill-opacity: 1; white-space: pre; opacity: 1;" transform="translate(0,308.59)">10</text></g><g class="ytick"><text text-anchor="end" x="67.2" y="6.6499999999999995" style="font-family: 'Open Sans', verdana, arial, sans-serif; font-size: 19px; fill: rgb(0, 0, 0); fill-opacity: 1; white-space: pre; opacity: 1;" transform="translate(0,257.89)">15</text></g><g class="ytick"><text text-anchor="end" x="67.2" y="6.6499999999999995" style="font-family: 'Open Sans', verdana, arial, sans-serif; font-size: 19px; fill: rgb(0, 0, 0); fill-opacity: 1; white-space: pre; opacity: 1;" transform="translate(0,207.18)">20</text></g><g class="ytick"><text text-anchor="end" x="67.2" y="6.6499999999999995" style="font-family: 'Open Sans', verdana, arial, sans-serif; font-size: 19px; fill: rgb(0, 0, 0); fill-opacity: 1; white-space: pre; opacity: 1;" transform="translate(0,156.48000000000002)">25</text></g><g class="ytick"><text text-anchor="end" x="67.2" y="6.6499999999999995" style="font-family: 'Open Sans', verdana, arial, sans-serif; font-size: 19px; fill: rgb(0, 0, 0); fill-opacity: 1; white-space: pre; opacity: 1;" transform="translate(0,105.77000000000001)">30</text></g><g class="ytick"><text text-anchor="end" x="67.2" y="6.6499999999999995" style="font-family: 'Open Sans', verdana, arial, sans-serif; font-size: 19px; fill: rgb(0, 0, 0); fill-opacity: 1; white-space: pre; opacity: 1;" transform="translate(0,55.07)">35</text></g></g><g class="overaxes-above"/></g></g><g class="polarlayer"/><g class="ternarylayer"/><g class="geolayer"/><g class="funnelarealayer"/><g class="pielayer"/><g class="iciclelayer"/><g class="treemaplayer"/><g class="sunburstlayer"/><g class="glimages"/><defs id="topdefs-085054"><g class="clips"/></defs><g class="layer-above"><g class="imagelayer"/><g class="shapelayer"/></g><g class="infolayer"><g class="g-gtitle"/><g class="g-xtitle"/><g class="g-ytitle" transform="translate(11.068359375,0)"><text class="ytitle" transform="rotate(-90,11.931250000000006,230)" x="11.931250000000006" y="230" text-anchor="middle" style="font-family: 'Open Sans', verdana, arial, sans-serif; font-size: 23px; fill: rgb(0, 0, 0); opacity: 1; font-weight: normal; white-space: pre;">Power [kW]</text></g></g></svg>