<svg class="main-svg" xmlns="http://www.w3.org/2000/svg" xmlns:xlink="http://www.w3.org/1999/xlink" width="900" height="500" viewBox="0 0 900 500"><rect x="0" y="0" width="900" height="500" style="fill: rgb(255, 255, 255); fill-opacity: 1;"/><defs id="defs-78fb1b"><g class="clips"><clipPath id="clip78fb1bxyplot" class="plotclip"><rect width="743" height="360"/></clipPath><clipPath class="axesclip" id="clip78fb1bx"><rect x="87" y="0" width="743" height="500"/></clipPath><clipPath class="axesclip" id="clip78fb1by"><rect x="0" y="50" width="900" height="360"/></clipPath><clipPath class="axesclip" id="clip78fb1bxy"><rect x="87" y="50" width="743" height="360"/></clipPath></g><g class="gradients"/><g class="patterns"/></defs><g class="bglayer"/><g class="layer-below"><g class="imagelayer"/><g class="shapelayer"/></g><g class="cartesianlayer"><g class="subplot xy"><g class="layer-subplot"><g class="shapelayer"/><g class="imagelayer"/></g><g class="gridlayer"><g class="x"><path class="xgrid crisp" transform="translate(179.88,0)" d="M0,50v360" style="stroke: rgb(235, 240, 248); stroke-opacity: 1; stroke-width: 1px;"/><path class="xgrid crisp" transform="translate(272.75,0)" d="M0,50v360" style="stroke: rgb(235, 240, 248); stroke-opacity: 1; stroke-width: 1px;"/><path class="xgrid crisp" transform="translate(365.63,0)" d="M0,50v360" style="stroke: rgb(235, 240, 248); stroke-opacity: 1; stroke-width: 1px;"/><path class="xgrid crisp" transform="translate(458.5,0)" d="M0,50v360" style="stroke: rgb(235, 240, 248); stroke-opacity: 1; stroke-width: 1px;"/><path class="xgrid crisp" transform="translate(551.38,0)" d="M0,50v360" style="stroke: rgb(235, 240, 248); stroke-opacity: 1; stroke-width: 1px;"/><path class="xgrid crisp" transform="translate(644.25,0)" d="M0,50v360" style="stroke: rgb(235, 240, 248); stroke-opacity: 1; stroke-width: 1px;"/><path class="xgrid crisp" transform="translate(737.13,0)" d="M0,50v360" style="stroke: rgb(235, 240, 248); stroke-opacity: 1; stroke-width: 1px;"/></g><g class="y"><path class="ygrid crisp" transform="translate(0,395.29)" d="M87,0h743" style="stroke: rgb(235, 240, 248); stroke-opacity: 1; stroke-width: 1px;"/><path class="ygrid crisp" transform="translate(0,354.07)" d="M87,0h743" style="stroke: rgb(235, 240, 248); stroke-opacity: 1; stroke-width: 1px;"/><path class="ygrid crisp" transform="translate(0,271.63)" d="M87,0h743" style="stroke: rgb(235, 240, 248); stroke-opacity: 1; stroke-width: 1px;"/><path class="ygrid crisp" transform="translate(0,230.41)" d="M87,0h743" style="stroke: rgb(235, 240, 248); stroke-opacity: 1; stroke-width: 1px;"/><path class="ygrid crisp" transform="translate(0,189.19)" d="M87,0h743" style="stroke: rgb(235, 240, 248); stroke-opacity: 1; stroke-width: 1px;"/><path class="ygrid crisp" transform="translate(0,147.97)" d="M87,0h743" style="stroke: rgb(235, 240, 248); stroke-opacity: 1; stroke-width: 1px;"/><path class="ygrid crisp" transform="translate(0,106.75)" d="M87,0h743" style="stroke: rgb(235, 240, 248); stroke-opacity: 1; stroke-width: 1px;"/><path class="ygrid crisp" transform="translate(0,65.53)" d="M87,0h743" style="stroke: rgb(235, 240, 248); stroke-opacity: 1; stroke-width: 1px;"/></g></g><g class="zerolinelayer"><path class="yzl zl crisp" transform="translate(0,312.85)" d="M87,0h743" style="stroke: rgb(0, 0, 0); stroke-opacity: 1; stroke-width: 2px;"/></g><path class="xlines-below"/><path class="ylines-below"/><g class="overlines-below"/><g class="xaxislayer-below"/><g class="yaxislayer-below"/><g class="overaxes-below"/><g class="plot" transform="translate(87,50)" clip-path="url(#clip78fb1bxyplot)"><g class="scatterlayer mlayer"><g class="trace scatter trace20564c" style="stroke-miterlimit: 2; opacity: 1;"><g class="fills"/><g class="errorbars"/><g class="lines"><path class="js-line" d="M0,208.96L3.87,207.72L7.74,204.83L11.61,204.1L15.48,229.14L19.35,200.28L23.22,232.72L27.09,228.32L30.96,214.42L34.83,211.8L38.7,224.11L46.44,225.49L50.31,226.03L54.18,237.14L58.05,236.17L61.92,219.16L65.79,226.07L69.66,222.99L73.53,226.61L77.4,233.86L81.27,222.02L85.14,212.82L89.01,225.92L92.88,199.24L96.74,210.18L100.61,196.8L104.48,212.59L108.35,205.94L112.22,182.48L116.09,209.03L119.96,201.99L123.83,190.82L127.7,205.7L135.44,196.76L139.31,210.4L143.18,212.08L147.05,217.42L150.92,217.06L154.79,226.12L158.66,225.86L162.53,221.27L166.4,225.64L170.27,199.86L174.14,222.54L178.01,222.42L181.88,206.54L185.75,172.72L189.62,173.51L193.49,214.77L197.36,191.69L201.23,198.35L205.1,186.93L208.97,204.27L212.84,220.24L216.71,214.97L220.58,207.75L224.45,214.69L228.32,214.59L232.19,217.2L236.06,223.33L239.93,224.84L243.8,223.89L247.67,229.13L251.54,221.75L255.41,221.28L259.28,228.09L263.15,226.93L267.02,224.97L270.89,223.97L274.76,229.85L278.63,181.34L282.49,218.89L286.36,212.25L290.23,211.57L294.1,198.15L297.97,187.23L301.84,214.58L305.71,198.21L309.58,203.91L313.45,198.7L317.32,208.49L321.19,197.25L325.06,213.75L328.93,201.02L332.8,205.67L336.67,212.66L340.54,216.96L344.41,210.69L348.28,198.83L352.15,167.07L356.02,192.01L359.89,216.61L363.76,210.08L367.63,200.76L371.5,228.57L379.24,214.19L383.11,215.38L386.98,229.21L390.85,214.92L394.72,207.07L398.59,230.03L406.33,217.53L410.2,224.63L414.07,226.55L417.94,210.61L421.81,222.78L425.68,211.84L429.55,218.85L433.42,216.68L437.29,203.71L441.16,224.51L445.03,227.91L448.9,217.29L452.77,233.16L456.64,226.41L460.51,232.03L464.38,206.8L468.24,201.55L472.11,180.74L475.98,217.35L479.85,214.87L483.72,216.2L487.59,203.57L491.46,216.8L495.33,212.76L499.2,221.59L503.07,223.9L506.94,213.1L510.81,224.76L514.68,211.09L518.55,217.61L522.42,203.97L526.29,217.59L530.16,214.38L534.03,221.91L537.9,225.08L541.77,190.32L545.64,210.2L549.51,210.04L553.38,214.52L557.25,217.8L561.12,207.28L564.99,211.2L568.86,200.59L572.73,192.97L576.6,208.64L580.47,203.49L584.34,211.35L588.21,208.12L592.08,206.34L595.95,220.87L599.82,207.73L603.69,214.77L607.56,228.09L611.43,212.66L615.3,228.03L619.17,228.48L623.04,234.88L626.91,228.15L630.78,225.21L634.65,228.14L638.52,207.51L642.39,235.42L646.26,224.2L650.13,220.68L653.99,219.9L657.86,214.7L661.73,226.31L665.6,218.74L669.47,210.64L673.34,212.66L677.21,222.83L681.08,217.42L684.95,224.24L688.82,222.6L692.69,219.32L696.56,219.88L700.43,216.78L704.3,208.16L708.17,203.01L712.04,169.84L715.91,209.93L719.78,212.78L723.65,210.4L727.52,202.85L731.39,200.69L735.26,193.94L739.13,219.33L743,228.36" style="vector-effect: non-scaling-stroke; fill: none; stroke: rgb(76, 120, 168); stroke-opacity: 1; stroke-width: 2px; opacity: 1;"/></g><g class="points"/><g class="text"/></g><g class="trace scatter trace81ddaa" style="stroke-miterlimit: 2; opacity: 1;"><g class="fills"/><g class="errorbars"/><g class="lines"><path class="js-line" d="M0,262.85L69.66,262.12L73.53,261.75L77.4,261.38L81.27,255.19L92.88,236.62L96.74,225.52L139.31,103.68L143.18,97.7L154.79,79.73L158.66,88.03L170.27,112.93L174.14,101.26L185.75,66.23L189.62,69.22L201.23,78.2L205.1,88.06L220.58,128.66L224.45,139.65L232.19,161.65L236.06,170.08L247.67,195.37L251.54,209.49L263.15,251.86L267.02,254.02L278.63,260.49L282.49,261.08L297.97,262.85L301.84,262.85L448.9,262.85L452.77,258.43L464.38,245.16L468.24,243.94L479.85,240.27L483.72,235.87L495.33,222.65L499.2,221.62L510.81,218.52L514.68,220.8L526.29,227.66L530.16,218.37L541.77,190.48L545.64,197.17L557.25,217.26L561.12,212.67L572.73,198.9L576.6,205.49L603.69,251.37L607.56,252.97L619.17,257.77L623.04,258.22L642.39,261.15L646.26,261.95L653.99,262.77L657.86,262.79L743,262.85" style="vector-effect: non-scaling-stroke; fill: none; stroke: rgb(245, 133, 24); stroke-opacity: 1; stroke-width: 2px; opacity: 1;"/></g><g class="points"/><g class="text"/></g><g class="trace scatter tracebf29f4" style="stroke-miterlimit: 2;"><g class="fills"><g><path class="js-fill" d="M743,262.85L0,262.85L0,262.85L100.61,262.85L104.48,253.57L108.35,249.11L112.22,261.34L116.09,223.56L119.96,219.36L123.83,219.3L127.7,193.52L135.44,180.67L139.31,156.13L147.05,139.19L150.92,139.19L154.79,139.19L158.66,212.95L162.53,262.85L166.4,262.85L251.54,262.85L255.41,265.18L259.28,272.5L263.15,287.78L270.89,295.05L274.76,291.34L278.63,342L282.49,305.04L286.36,312.27L290.23,313.53L297.97,338.46L301.84,311.12L305.71,327.48L309.58,321.79L313.45,326.99L317.32,317.21L321.19,328.45L325.06,311.94L328.93,290.4L332.8,262.85L499.2,262.85L503.07,259.53L506.94,265.84L510.81,256.61L514.68,268.48L518.55,262.85L530.16,262.85L534.03,250L537.9,237.54L541.77,263.01L545.64,249.82L549.51,256.68L553.38,258.89L557.25,262.31L561.12,268.24L564.99,259.73L568.86,265.75L572.73,268.78L576.6,259.69L580.47,271.43L584.34,270.17L588.21,279.98L592.08,276.91L595.95,262.85L743,262.85" style="fill: rgb(214, 39, 40); fill-opacity: 0.1; stroke-width: 0;"/></g></g><g class="errorbars"/><g class="lines"><path class="js-line" d="M0,262.85L100.61,262.85L104.48,253.57L108.35,249.11L112.22,261.34L116.09,223.56L119.96,219.36L123.83,219.3L127.7,193.52L135.44,180.67L139.31,156.13L147.05,139.19L150.92,139.19L154.79,139.19L158.66,212.95L162.53,262.85L166.4,262.85L251.54,262.85L255.41,265.18L259.28,272.5L263.15,287.78L270.89,295.05L274.76,291.34L278.63,342L282.49,305.04L286.36,312.27L290.23,313.53L297.97,338.46L301.84,311.12L305.71,327.48L309.58,321.79L313.45,326.99L317.32,317.21L321.19,328.45L325.06,311.94L328.93,290.4L332.8,262.85L499.2,262.85L503.07,259.53L506.94,265.84L510.81,256.61L514.68,268.48L518.55,262.85L530.16,262.85L534.03,250L537.9,237.54L541.77,263.01L545.64,249.82L549.51,256.68L553.38,258.89L557.25,262.31L561.12,268.24L564.99,259.73L568.86,265.75L572.73,268.78L576.6,259.69L580.47,271.43L584.34,270.17L588.21,279.98L592.08,276.91L595.95,262.85L743,262.85" style="vector-effect: non-scaling-stroke; fill: none; stroke: rgb(228, 87, 86); stroke-opacity: 1; stroke-width: 4px; opacity: 1;"/></g><g class="points"/><g class="text"/></g><g class="trace scatter trace77ace3" style="stroke-miterlimit: 2; opacity: 1;"><g class="fills"/><g class="errorbars"/><g class="lines"><path class="js-line" d="M0,260.37L100.61,260.37L104.48,258.17L108.35,254.91L112.22,254.55L123.83,224.55L127.7,208.08L135.44,170.47L139.31,145.13L154.79,29.85L158.66,18L255.41,18.61L259.28,21.15L267.02,35.36L270.89,43.83L274.76,51.33L278.63,72.16L286.36,96.27L290.23,109.61L305.71,176.24L309.58,191.76L321.19,240.2L325.06,253.12L328.93,260.37L332.8,260.37L506.94,260.37L510.81,258.89L514.68,260.37L518.55,260.37L530.16,260.37L534.03,257.32L537.9,251.31L541.77,251.36L545.64,248.26L549.51,246.8L557.25,245.73L561.12,247.15L564.99,246.4L568.86,247.17L572.73,248.73L576.6,247.98L584.34,252.17L588.21,256.67L592.08,260.37L595.95,260.37L743,260.37" style="vector-effect: non-scaling-stroke; fill: none; stroke: rgb(114, 183, 178); stroke-opacity: 1; stroke-width: 4px; opacity: 1; stroke-dasharray: 4px, 4px;"/></g><g class="points"/><g class="text"/></g></g></g><g class="overplot"/><path class="xlines-above crisp" d="M0,0" style="fill: none;"/><path class="ylines-above crisp" d="M86,50V410" style="fill: none; stroke-width: 2px; stroke: rgb(0, 0, 0); stroke-opacity: 1;"/><g class="overlines-above"/><g class="xaxislayer-above"><g class="xtick"><text text-anchor="middle" x="0" y="430" transform="translate(87,0)" style="font-family: 'Open Sans', verdana, arial, sans-serif; font-size: 19px; fill: rgb(42, 63, 95); fill-opacity: 1; white-space: pre; opacity: 1;"><tspan class="line" dy="0em" x="0" y="430">00:00</tspan><tspan class="line" dy="1.3em" x="0" y="430">May 1, 2019</tspan></text></g><g class="xtick"><text text-anchor="middle" x="0" y="430" style="font-family: 'Open Sans', verdana, arial, sans-serif; font-size: 19px; fill: rgb(42, 63, 95); fill-opacity: 1; white-space: pre; opacity: 1;" transform="translate(179.88,0)">06:00</text></g><g class="xtick"><text text-anchor="middle" x="0" y="430" style="font-family: 'Open Sans', verdana, arial, sans-serif; font-size: 19px; fill: rgb(42, 63, 95); fill-opacity: 1; white-space: pre; opacity: 1;" transform="translate(272.75,0)">12:00</text></g><g class="xtick"><text text-anchor="middle" x="0" y="430" style="font-family: 'Open Sans', verdana, arial, sans-serif; font-size: 19px; fill: rgb(42, 63, 95); fill-opacity: 1; white-space: pre; opacity: 1;" transform="translate(365.63,0)">18:00</text></g><g class="xtick"><text text-anchor="middle" x="0" y="430" style="font-family: 'Open Sans', verdana, arial, sans-serif; font-size: 19px; fill: rgb(42, 63, 95); fill-opacity: 1; white-space: pre; opacity: 1;" transform="translate(458.5,0)"><tspan class="line" dy="0em" x="0" y="430">00:00</tspan><tspan class="line" dy="1.3em" x="0" y="430">May 2, 2019</tspan></text></g><g class="xtick"><text text-anchor="middle" x="0" y="430" style="font-family: 'Open Sans', verdana, arial, sans-serif; font-size: 19px; fill: rgb(42, 63, 95); fill-opacity: 1; white-space: pre; opacity: 1;" transform="translate(551.38,0)">06:00</text></g><g class="xtick"><text text-anchor="middle" x="0" y="430" style="font-family: 'Open Sans', verdana, arial, sans-serif; font-size: 19px; fill: rgb(42, 63, 95); fill-opacity: 1; white-space: pre; opacity: 1;" transform="translate(644.25,0)">12:00</text></g><g class="xtick"><text text-anchor="middle" x="0" y="430" style="font-family: 'Open Sans', verdana, arial, sans-serif; font-size: 19px; fill: rgb(42, 63, 95); fill-opacity: 1; white-space: pre; opacity: 1;" transform="translate(737.13,0)">18:00</text></g><g class="xtick"><text text-anchor="middle" x="0" y="430" style="font-family: 'Open Sans', verdana, arial, sans-serif; font-size: 19px; fill: rgb(42, 63, 95); fill-opacity: 1; white-space: pre; opacity: 1;" transform="translate(830,0)"><tspan class="line" dy="0em" x="0" y="430">00:00</tspan><tspan class="line" dy="1.3em" x="0" y="430">May 3, 2019</tspan></text></g></g><g class="yaxislayer-above"><g class="ytick"><text text-anchor="end" x="81.2" y="6.6499999999999995" transform="translate(0,395.29)" style="font-family: 'Open Sans', verdana, arial, sans-serif; font-size: 19px; fill: rgb(42, 63, 95); fill-opacity: 1; white-space: pre; opacity: 1;">−20</text></g><g class="ytick"><text text-anchor="end" x="81.2" y="6.6499999999999995" style="font-family: 'Open Sans', verdana, arial, sans-serif; font-size: 19px; fill: rgb(42, 63, 95); fill-opacity: 1; white-space: pre; opacity: 1;" transform="translate(0,354.07)">−10</text></g><g class="ytick"><text text-anchor="end" x="81.2" y="6.6499999999999995" style="font-family: 'Open Sans', verdana, arial, sans-serif; font-size: 19px; fill: rgb(42, 63, 95); fill-opacity: 1; white-space: pre; opacity: 1;" transform="translate(0,312.85)">0</text></g><g class="ytick"><text text-anchor="end" x="81.2" y="6.6499999999999995" style="font-family: 'Open Sans', verdana, arial, sans-serif; font-size: 19px; fill: rgb(42, 63, 95); fill-opacity: 1; white-space: pre; opacity: 1;" transform="translate(0,271.63)">10</text></g><g class="ytick"><text text-anchor="end" x="81.2" y="6.6499999999999995" style="font-family: 'Open Sans', verdana, arial, sans-serif; font-size: 19px; fill: rgb(42, 63, 95); fill-opacity: 1; white-space: pre; opacity: 1;" transform="translate(0,230.41)">20</text></g><g class="ytick"><text text-anchor="end" x="81.2" y="6.6499999999999995" style="font-family: 'Open Sans', verdana, arial, sans-serif; font-size: 19px; fill: rgb(42, 63, 95); fill-opacity: 1; white-space: pre; opacity: 1;" transform="translate(0,189.19)">30</text></g><g class="ytick"><text text-anchor="end" x="81.2" y="6.6499999999999995" style="font-family: 'Open Sans', verdana, arial, sans-serif; font-size: 19px; fill: rgb(42, 63, 95); fill-opacity: 1; white-space: pre; opacity: 1;" transform="translate(0,147.97)">40</text></g><g class="ytick"><text text-anchor="end" x="81.2" y="6.6499999999999995" style="font-family: 'Open Sans', verdana, arial, sans-serif; font-size: 19px; fill: rgb(42, 63, 95); fill-opacity: 1; white-space: pre; opacity: 1;" transform="translate(0,106.75)">50</text></g><g class="ytick"><text text-anchor="end" x="81.2" y="6.6499999999999995" style="font-family: 'Open Sans', verdana, arial, sans-serif; font-size: 19px; fill: rgb(42, 63, 95); fill-opacity: 1; white-space: pre; opacity: 1;" transform="translate(0,65.53)">60</text></g></g><g class="overaxes-above"/></g></g><g class="polarlayer"/><g class="ternarylayer"/><g class="geolayer"/><g class="funnelarealayer"/><g class="pielayer"/><g class="iciclelayer"/><g class="treemaplayer"/><g class="sunburstlayer"/><g class="glimages"/><defs id="topdefs-78fb1b"><g class="clips"/></defs><g class="layer-above"><g class="imagelayer"/><g class="shapelayer"/></g><g class="infolayer"><g class="g-gtitle"/><g class="g-xtitle"/><g class="g-ytitle" transform="translate(12.615234375,0)"><text class="ytitle" transform="rotate(-90,10.384375000000006,230)" x="10.384375000000006" y="230" text-anchor="middle" style="font-family: 'Open Sans', verdana, arial, sans-serif; font-size: 23px; fill: rgb(42, 63, 95); opacity: 1; font-weight: normal; white-space: pre;">Power [kW] &amp; SO [kWh]</text></g></g></svg>