<svg class="main-svg" xmlns="http://www.w3.org/2000/svg" xmlns:xlink="http://www.w3.org/1999/xlink" width="900" height="400" viewBox="0 0 900 400"><rect x="0" y="0" width="900" height="400" style="fill: rgb(255, 255, 255); fill-opacity: 1;"/><defs id="defs-d13b99"><g class="clips"><clipPath id="clipd13b99xyplot" class="plotclip"><rect width="759" height="260"/></clipPath><clipPath class="axesclip" id="clipd13b99x"><rect x="71" y="0" width="759" height="400"/></clipPath><clipPath class="axesclip" id="clipd13b99y"><rect x="0" y="50" width="900" height="260"/></clipPath><clipPath class="axesclip" id="clipd13b99xy"><rect x="71" y="50" width="759" height="260"/></clipPath></g><g class="gradients"/><g class="patterns"/></defs><g class="bglayer"/><g class="layer-below"><g class="imagelayer"/><g class="shapelayer"/></g><g class="cartesianlayer"><g class="subplot xy"><g class="layer-subplot"><g class="shapelayer"/><g class="imagelayer"/></g><g class="gridlayer"><g class="x"><path class="xgrid crisp" transform="translate(165.88,0)" d="M0,50v260" style="stroke: rgb(235, 240, 248); stroke-opacity: 1; stroke-width: 1px;"/><path class="xgrid crisp" transform="translate(260.75,0)" d="M0,50v260" style="stroke: rgb(235, 240, 248); stroke-opacity: 1; stroke-width: 1px;"/><path class="xgrid crisp" transform="translate(355.63,0)" d="M0,50v260" style="stroke: rgb(235, 240, 248); stroke-opacity: 1; stroke-width: 1px;"/><path class="xgrid crisp" transform="translate(450.5,0)" d="M0,50v260" style="stroke: rgb(235, 240, 248); stroke-opacity: 1; stroke-width: 1px;"/><path class="xgrid crisp" transform="translate(545.38,0)" d="M0,50v260" style="stroke: rgb(235, 240, 248); stroke-opacity: 1; stroke-width: 1px;"/><path class="xgrid crisp" transform="translate(640.25,0)" d="M0,50v260" style="stroke: rgb(235, 240, 248); stroke-opacity: 1; stroke-width: 1px;"/><path class="xgrid crisp" transform="translate(735.13,0)" d="M0,50v260" style="stroke: rgb(235, 240, 248); stroke-opacity: 1; stroke-width: 1px;"/></g><g class="y"><path class="ygrid crisp" transform="translate(0,272.59000000000003)" d="M71,0h759" style="stroke: rgb(235, 240, 248); stroke-opacity: 1; stroke-width: 1px;"/><path class="ygrid crisp" transform="translate(0,235.18)" d="M71,0h759" style="stroke: rgb(235, 240, 248); stroke-opacity: 1; stroke-width: 1px;"/><path class="ygrid crisp" transform="translate(0,197.78)" d="M71,0h759" style="stroke: rgb(235, 240, 248); stroke-opacity: 1; stroke-width: 1px;"/><path class="ygrid crisp" transform="translate(0,160.37)" d="M71,0h759" style="stroke: rgb(235, 240, 248); stroke-opacity: 1; stroke-width: 1px;"/><path class="ygrid crisp" transform="translate(0,122.96)" d="M71,0h759" style="stroke: rgb(235, 240, 248); stroke-opacity: 1; stroke-width: 1px;"/><path class="ygrid crisp" transform="translate(0,85.55)" d="M71,0h759" style="stroke: rgb(235, 240, 248); stroke-opacity: 1; stroke-width: 1px;"/></g></g><g class="zerolinelayer"><path class="yzl zl crisp" transform="translate(0,310)" d="M71,0h759" style="stroke: rgb(0, 0, 0); stroke-opacity: 1; stroke-width: 2px;"/></g><path class="xlines-below"/><path class="ylines-below"/><g class="overlines-below"/><g class="xaxislayer-below"/><g class="yaxislayer-below"/><g class="overaxes-below"/><g class="plot" transform="translate(71,50)" clip-path="url(#clipd13b99xyplot)"><g class="scatterlayer mlayer"><g class="trace scatter trace35afc4" style="stroke-miterlimit: 2; opacity: 1;"><g class="fills"/><g class="errorbars"/><g class="lines"><path class="js-line" d="M0,211.09L1.98,209.97L3.95,207.35L5.93,206.69L7.91,229.41L9.88,203.21L11.86,232.65L13.84,228.67L15.81,216.05L17.79,213.67L19.77,224.84L23.72,226.09L25.7,226.59L27.67,236.67L29.65,235.79L31.63,220.35L33.6,226.62L35.58,223.83L37.55,227.12L39.53,233.69L41.51,222.95L43.48,214.59L45.46,226.49L47.44,202.27L49.41,212.2L51.39,200.06L53.37,214.39L55.34,208.36L57.32,187.06L59.3,211.16L61.27,204.77L63.25,194.63L65.23,208.14L69.18,200.03L71.16,212.4L73.13,213.93L75.11,218.78L77.09,218.45L79.06,226.67L81.04,226.44L83.02,222.27L84.99,226.23L86.97,202.83L88.95,223.42L90.92,223.31L92.9,208.9L94.88,178.21L96.85,178.92L98.83,216.37L100.8,195.42L102.78,201.47L104.76,191.1L106.73,206.84L108.71,221.33L110.69,216.55L112.66,210L114.64,216.3L116.62,216.2L118.59,218.58L120.57,224.13L122.55,225.51L124.52,224.64L126.5,229.4L128.48,222.71L130.45,222.28L132.43,228.45L134.41,227.4L138.36,224.72L140.34,230.05L142.31,186.03L144.29,220.11L146.27,214.08L148.24,213.47L152.2,191.38L154.17,216.19L156.15,201.34L158.13,206.51L160.1,201.79L162.08,210.67L164.05,200.47L166.03,215.45L168.01,203.89L169.98,208.11L173.94,218.36L175.91,212.67L177.89,201.9L179.87,173.08L183.82,218.04L185.8,212.11L187.77,203.65L189.75,228.9L193.7,215.84L195.68,216.92L197.66,229.47L199.63,216.51L201.61,209.38L203.59,230.21L207.54,218.88L209.52,225.31L211.49,227.06L213.47,212.59L215.45,223.63L217.42,213.71L219.4,220.07L221.38,218.1L223.35,206.33L225.33,225.21L227.3,228.3L229.28,218.65L231.26,233.05L233.23,226.94L235.21,232.04L237.19,209.14L239.16,204.37L241.14,185.49L243.12,218.71L245.09,216.46L247.07,217.66L249.05,206.21L251.02,218.21L253,214.55L254.98,222.55L256.95,224.66L258.93,214.85L260.91,225.43L262.88,213.03L264.86,218.95L266.84,206.57L268.81,218.93L270.79,216.02L272.77,222.85L274.74,225.72L276.72,194.18L278.7,212.22L280.67,212.07L284.63,219.12L286.6,209.57L288.58,213.13L290.55,203.5L292.53,196.58L294.51,210.81L296.48,206.13L298.46,213.26L302.41,208.72L304.39,221.91L306.37,209.98L308.34,216.37L310.32,228.46L312.3,214.46L314.27,228.4L316.25,228.81L318.23,234.62L320.2,228.51L322.18,225.84L324.16,228.5L326.13,209.78L328.11,235.11L330.09,224.93L332.06,221.73L334.04,221.02L336.02,216.31L337.99,226.84L339.97,219.97L341.95,212.62L343.92,214.45L345.9,223.68L347.88,218.77L349.85,224.97L351.83,223.47L353.8,220.5L355.78,221.01L357.76,218.19L359.73,210.37L361.71,205.69L363.69,175.6L365.66,211.97L367.64,214.56L369.62,212.41L371.59,205.56L373.57,203.59L375.55,197.46L377.52,220.51L379.5,228.7L381.48,233.09L383.45,229.08L385.43,233.9L387.41,233.58L391.36,230.87L393.34,231.86L395.31,226.49L397.29,235.85L399.27,232.7L401.24,238.09L403.22,240.62L405.2,239.26L407.17,232.19L409.15,184.97L411.13,235.59L413.1,238.54L415.08,234.56L417.05,218.9L419.03,219.38L421.01,236.82L422.98,235.98L424.96,237.47L426.94,232.9L428.91,225.58L430.89,227.41L432.87,221.94L434.84,218.93L436.82,220.5L438.8,224.24L440.77,199.21L442.75,213.31L444.73,220.72L446.7,204.15L448.68,229.74L450.66,203.81L452.63,225.94L454.61,193.41L456.59,212.77L458.56,190.46L460.54,196.64L464.49,184.27L466.47,13L468.45,201.74L470.42,192.17L472.4,189.11L474.38,191.39L478.33,216.2L480.3,189.78L482.28,166.07L484.26,186.09L488.21,203.38L490.19,220.2L492.16,212.28L494.14,213.27L496.12,226.54L498.09,234.6L500.07,225.74L502.05,226.68L504.02,223.83L506,218.24L507.98,230.84L509.95,225.78L511.93,225.93L513.91,229.57L515.88,230.12L517.86,232.25L521.81,201.89L523.79,214.69L525.77,215.82L527.74,215L529.72,203.24L531.7,144.81L533.67,208.59L535.65,180.56L539.6,215.6L541.58,209.79L545.53,200.4L547.51,208.04L549.48,206.93L551.46,202.43L553.44,207.38L555.41,203.4L557.39,202.76L559.37,206.96L561.34,199.28L563.32,214.13L565.3,221.33L567.27,211.86L569.25,226.61L571.23,230.17L575.18,219.9L577.16,228.6L579.13,234L581.11,227.25L583.09,229.36L585.06,171.97L587.04,212.53L589.02,199.34L592.97,219.45L594.95,185.59L596.92,221.85L598.9,227.93L600.88,206.79L602.85,210.01L604.83,220.56L606.8,217.24L608.78,222.19L610.76,211.86L612.73,230.77L614.71,228.95L616.69,203.78L618.66,206.26L620.64,215.69L622.62,208.59L624.59,215.39L626.57,201.02L628.55,218.77L630.52,218.58L632.5,211.46L634.48,224.77L636.45,218.39L638.43,216.26L640.41,208.01L642.38,203.92L646.34,174.71L648.31,212.23L650.29,189.51L652.27,208.07L654.24,198.32L656.22,211.53L658.2,206.04L660.17,189.08L664.13,166.9L666.1,188.49L668.08,192.98L670.05,202.24L674.01,197.4L675.98,213.75L677.96,204.83L679.94,217.03L681.91,222.63L683.89,221.52L685.87,213.42L687.84,227.89L689.82,231.31L691.8,225.17L693.77,222.63L695.75,226.09L697.73,219.76L699.7,223.11L701.68,224.11L703.66,128.16L705.63,229.85L707.61,218.63L709.59,220.75L711.56,217.78L713.54,221.08L715.52,213.51L717.49,219.42L719.47,215.39L721.45,211.35L723.42,225.37L725.4,209.21L727.38,212.03L729.35,222.7L731.33,202.01L733.3,198.73L735.28,208.95L737.26,202.98L739.23,214.1L741.21,215.54L743.19,209.26L745.16,220.29L747.14,202.36L749.12,194.77L751.09,198.53L753.07,211.87L755.05,212.21L757.02,222.5L759,211.74" style="vector-effect: non-scaling-stroke; fill: none; stroke: rgb(76, 120, 168); stroke-opacity: 1; stroke-width: 2px; opacity: 1;"/></g><g class="points"/><g class="text"/></g><g class="trace scatter trace4f47f4" style="stroke-miterlimit: 2;"><g class="fills"><g><path class="js-fill" d="M759,260L0,260L0,260L35.58,259.34L37.55,259L39.53,258.67L41.51,253.05L47.44,236.2L49.41,226.12L71.16,115.56L73.13,110.12L79.06,93.82L81.04,101.35L86.97,123.95L88.95,113.35L94.88,81.56L96.85,84.28L102.78,92.42L104.76,101.38L116.62,158.18L118.59,168.16L126.5,198.76L128.48,211.58L134.41,250.03L136.38,251.99L142.31,257.86L144.29,258.4L152.2,260L154.17,260L229.28,260L231.26,255.99L237.19,243.95L239.16,242.84L245.09,239.51L247.07,235.51L253,223.52L254.98,222.58L260.91,219.77L262.88,221.84L268.81,228.07L270.79,219.63L276.72,194.32L278.7,200.4L284.63,218.63L286.6,214.46L292.53,201.97L294.51,207.95L308.34,249.59L310.32,251.04L316.25,255.39L318.23,255.8L328.11,258.46L330.09,259.18L334.04,259.93L336.02,259.95L387.41,260L389.38,260L411.13,260L413.1,259.04L422.98,253.48L424.96,252.13L426.94,250.78L428.91,245.35L434.84,229.06L436.82,231.67L446.7,243.82L448.68,245.97L450.66,248.12L452.63,244.94L458.56,235.38L460.54,234.88L466.47,233.36L468.45,234.14L474.38,236.48L476.35,236.12L482.28,235.06L484.26,238.11L490.19,247.26L492.16,246.13L498.09,242.77L500.07,243.71L513.91,249.88L515.88,252.24L521.81,259.35L523.79,259.51L537.63,260L539.6,260L600.88,260L602.85,258.92L608.78,255.67L610.76,249.59L616.69,231.35L618.66,219.04L632.5,136.31L634.48,127.26L640.41,100.11L642.38,95.91L656.22,68.21L658.2,69.27L664.13,72.45L666.1,76.77L672.03,89.72L674.01,98.16L687.84,160.52L689.82,170.65L703.66,244.12L705.63,247.43L711.56,257.35L713.54,258.01L721.45,260L723.42,260L759,260" style="fill: rgb(255, 127, 14); fill-opacity: 0.1; stroke-width: 0;"/></g></g><g class="errorbars"/><g class="lines"><path class="js-line" d="M0,260L35.58,259.34L37.55,259L39.53,258.67L41.51,253.05L47.44,236.2L49.41,226.12L71.16,115.56L73.13,110.12L79.06,93.82L81.04,101.35L86.97,123.95L88.95,113.35L94.88,81.56L96.85,84.28L102.78,92.42L104.76,101.38L116.62,158.18L118.59,168.16L126.5,198.76L128.48,211.58L134.41,250.03L136.38,251.99L142.31,257.86L144.29,258.4L152.2,260L154.17,260L229.28,260L231.26,255.99L237.19,243.95L239.16,242.84L245.09,239.51L247.07,235.51L253,223.52L254.98,222.58L260.91,219.77L262.88,221.84L268.81,228.07L270.79,219.63L276.72,194.32L278.7,200.4L284.63,218.63L286.6,214.46L292.53,201.97L294.51,207.95L308.34,249.59L310.32,251.04L316.25,255.39L318.23,255.8L328.11,258.46L330.09,259.18L334.04,259.93L336.02,259.95L387.41,260L389.38,260L411.13,260L413.1,259.04L422.98,253.48L424.96,252.13L426.94,250.78L428.91,245.35L434.84,229.06L436.82,231.67L446.7,243.82L448.68,245.97L450.66,248.12L452.63,244.94L458.56,235.38L460.54,234.88L466.47,233.36L468.45,234.14L474.38,236.48L476.35,236.12L482.28,235.06L484.26,238.11L490.19,247.26L492.16,246.13L498.09,242.77L500.07,243.71L513.91,249.88L515.88,252.24L521.81,259.35L523.79,259.51L537.63,260L539.6,260L600.88,260L602.85,258.92L608.78,255.67L610.76,249.59L616.69,231.35L618.66,219.04L632.5,136.31L634.48,127.26L640.41,100.11L642.38,95.91L656.22,68.21L658.2,69.27L664.13,72.45L666.1,76.77L672.03,89.72L674.01,98.16L687.84,160.52L689.82,170.65L703.66,244.12L705.63,247.43L711.56,257.35L713.54,258.01L721.45,260L723.42,260L759,260" style="vector-effect: non-scaling-stroke; fill: none; stroke: rgb(245, 133, 24); stroke-opacity: 1; stroke-width: 3px; opacity: 1;"/></g><g class="points"/><g class="text"/></g></g></g><g class="overplot"/><path class="xlines-above crisp" d="M0,0" style="fill: none;"/><path class="ylines-above crisp" d="M70,50V310" style="fill: none; stroke-width: 2px; stroke: rgb(0, 0, 0); stroke-opacity: 1;"/><g class="overlines-above"/><g class="xaxislayer-above"><g class="xtick"><text text-anchor="middle" x="0" y="330" transform="translate(71,0)" style="font-family: 'Open Sans', verdana, arial, sans-serif; font-size: 19px; fill: rgb(42, 63, 95); fill-opacity: 1; white-space: pre; opacity: 1;"><tspan class="line" dy="0em" x="0" y="330">00:00</tspan><tspan class="line" dy="1.3em" x="0" y="330">May 1, 2019</tspan></text></g><g class="xtick"><text text-anchor="middle" x="0" y="330" style="font-family: 'Open Sans', verdana, arial, sans-serif; font-size: 19px; fill: rgb(42, 63, 95); fill-opacity: 1; white-space: pre; opacity: 1;" transform="translate(165.88,0)">12:00</text></g><g class="xtick"><text text-anchor="middle" x="0" y="330" style="font-family: 'Open Sans', verdana, arial, sans-serif; font-size: 19px; fill: rgb(42, 63, 95); fill-opacity: 1; white-space: pre; opacity: 1;" transform="translate(260.75,0)"><tspan class="line" dy="0em" x="0" y="330">00:00</tspan><tspan class="line" dy="1.3em" x="0" y="330">May 2, 2019</tspan></text></g><g class="xtick"><text text-anchor="middle" x="0" y="330" style="font-family: 'Open Sans', verdana, arial, sans-serif; font-size: 19px; fill: rgb(42, 63, 95); fill-opacity: 1; white-space: pre; opacity: 1;" transform="translate(355.63,0)">12:00</text></g><g class="xtick"><text text-anchor="middle" x="0" y="330" style="font-family: 'Open Sans', verdana, arial, sans-serif; font-size: 19px; fill: rgb(42, 63, 95); fill-opacity: 1; white-space: pre; opacity: 1;" transform="translate(450.5,0)"><tspan class="line" dy="0em" x="0" y="330">00:00</tspan><tspan class="line" dy="1.3em" x="0" y="330">May 3, 2019</tspan></text></g><g class="xtick"><text text-anchor="middle" x="0" y="330" style="font-family: 'Open Sans', verdana, arial, sans-serif; font-size: 19px; fill: rgb(42, 63, 95); fill-opacity: 1; white-space: pre; opacity: 1;" transform="translate(545.38,0)">12:00</text></g><g class="xtick"><text text-anchor="middle" x="0" y="330" style="font-family: 'Open Sans', verdana, arial, sans-serif; font-size: 19px; fill: rgb(42, 63, 95); fill-opacity: 1; white-space: pre; opacity: 1;" transform="translate(640.25,0)"><tspan class="line" dy="0em" x="0" y="330">00:00</tspan><tspan class="line" dy="1.3em" x="0" y="330">May 4, 2019</tspan></text></g><g class="xtick"><text text-anchor="middle" x="0" y="330" style="font-family: 'Open Sans', verdana, arial, sans-serif; font-size: 19px; fill: rgb(42, 63, 95); fill-opacity: 1; white-space: pre; opacity: 1;" transform="translate(735.13,0)">12:00</text></g><g class="xtick"><text text-anchor="middle" x="0" y="330" style="font-family: 'Open Sans', verdana, arial, sans-serif; font-size: 19px; fill: rgb(42, 63, 95); fill-opacity: 1; white-space: pre; opacity: 1;" transform="translate(830,0)"><tspan class="line" dy="0em" x="0" y="330">00:00</tspan><tspan class="line" dy="1.3em" x="0" y="330">May 5, 2019</tspan></text></g></g><g class="yaxislayer-above"><g class="ytick"><text text-anchor="end" x="65.2" y="6.6499999999999995" transform="translate(0,310)" style="font-family: 'Open Sans', verdana, arial, sans-serif; font-size: 19px; fill: rgb(42, 63, 95); fill-opacity: 1; white-space: pre; opacity: 1;">0</text></g><g class="ytick"><text text-anchor="end" x="65.2" y="6.6499999999999995" style="font-family: 'Open Sans', verdana, arial, sans-serif; font-size: 19px; fill: rgb(42, 63, 95); fill-opacity: 1; white-space: pre; opacity: 1;" transform="translate(0,272.59000000000003)">10</text></g><g class="ytick"><text text-anchor="end" x="65.2" y="6.6499999999999995" style="font-family: 'Open Sans', verdana, arial, sans-serif; font-size: 19px; fill: rgb(42, 63, 95); fill-opacity: 1; white-space: pre; opacity: 1;" transform="translate(0,235.18)">20</text></g><g class="ytick"><text text-anchor="end" x="65.2" y="6.6499999999999995" style="font-family: 'Open Sans', verdana, arial, sans-serif; font-size: 19px; fill: rgb(42, 63, 95); fill-opacity: 1; white-space: pre; opacity: 1;" transform="translate(0,197.78)">30</text></g><g class="ytick"><text text-anchor="end" x="65.2" y="6.6499999999999995" style="font-family: 'Open Sans', verdana, arial, sans-serif; font-size: 19px; fill: rgb(42, 63, 95); fill-opacity: 1; white-space: pre; opacity: 1;" transform="translate(0,160.37)">40</text></g><g class="ytick"><text text-anchor="end" x="65.2" y="6.6499999999999995" style="font-family: 'Open Sans', verdana, arial, sans-serif; font-size: 19px; fill: rgb(42, 63, 95); fill-opacity: 1; white-space: pre; opacity: 1;" transform="translate(0,122.96)">50</text></g><g class="ytick"><text text-anchor="end" x="65.2" y="6.6499999999999995" style="font-family: 'Open Sans', verdana, arial, sans-serif; font-size: 19px; fill: rgb(42, 63, 95); fill-opacity: 1; white-space: pre; opacity: 1;" transform="translate(0,85.55)">60</text></g></g><g class="overaxes-above"/></g></g><g class="polarlayer"/><g class="ternarylayer"/><g class="geolayer"/><g class="funnelarealayer"/><g class="pielayer"/><g class="iciclelayer"/><g class="treemaplayer"/><g class="sunburstlayer"/><g class="glimages"/><defs id="topdefs-d13b99"><g class="clips"/></defs><g class="layer-above"><g class="imagelayer"/><g class="shapelayer"/></g><g class="infolayer"><g class="g-gtitle"/><g class="g-xtitle"/><g class="g-ytitle" transform="translate(13.068359375,0)"><text class="ytitle" transform="rotate(-90,9.931250000000006,180)" x="9.931250000000006" y="180" text-anchor="middle" style="font-family: 'Open Sans', verdana, arial, sans-serif; font-size: 23px; fill: rgb(42, 63, 95); opacity: 1; font-weight: normal; white-space: pre;">Power [kW]</text></g></g></svg>